<svg xmlns="http://www.w3.org/2000/svg" viewBox="0 0 64 64">
  <g id="firefighter-black-male-coronavirus">
    <g id="bfca88f3-f08c-48a0-8b45-138b5b4f4ea1">
      <g id="a92ecef7-b045-43b1-bb81-7f4c1438f670">
        <g id="f96035ae-06fe-4558-8f69-8c289eedf500">
          <g id="afabe71a-61ae-40a6-ae02-3f7b979f0faa">
            <path d="M56,50.73a6.85,6.85,0,0,0-5.25-5c-6.41-1.51-12.16-2.8-14.6-3.34V39.45h-15v3c-2.78.59-8.4,1.81-14.4,3.23a6.85,6.85,0,0,0-5.25,5L1,53.23A70,70,0,0,0,28.78,59.1a70,70,0,0,0,27.75-5.87Z" fill="#87604d"/>
            <path d="M36.11,44.41A17.34,17.34,0,0,1,29,45.73a16.33,16.33,0,0,1-7.59-1.59l7.33,8.7Z" fill="#333" stroke="#333" stroke-linejoin="round" stroke-width="1.5"/>
            <path d="M56,50.73a6.85,6.85,0,0,0-5.25-5c-8.49-2-11.5-2.75-11.5-2.75h-.62c-1.35,1.23-4,2.07-6.13,2.62a5.88,5.88,0,0,0-4.43,5.76C28,48.61,26.73,46.3,24,45.6,22,45.06,19.77,44.22,18.7,43h-.42s-3,.75-11.5,2.75a6.85,6.85,0,0,0-5.25,5L1,53.23A70,70,0,0,0,28.78,59.1a70,70,0,0,0,27.75-5.87Z" fill="#d1c5a7"/>
            <path d="M50.78,48.72C46,47.58,42,46.34,39.52,45.48V41.34c0,2.17-4.08,4-7,4.72a5.38,5.38,0,0,0-4.43,5.29C28,48.6,26.73,46.29,24,45.59c-2.91-.76-6-2.08-6-4.25v4.45c-2.3.65-6.18,1.69-11.26,2.89a6.93,6.93,0,0,0-5.19,4.76A70.78,70.78,0,0,0,28.11,59h.66A70.82,70.82,0,0,0,56,53.43,6.94,6.94,0,0,0,50.78,48.72Z" fill="#c6bc9e"/>
            <path d="M18.28,43s-3,.75-11.5,2.75a6.85,6.85,0,0,0-5.25,5L1,53.22a70,70,0,0,0,27.75,5.87,70,70,0,0,0,27.75-5.87l-.5-2.5a6.85,6.85,0,0,0-5.25-5c-8.49-2-11.5-2.75-11.5-2.75" fill="none" stroke="#333" stroke-linejoin="round" stroke-width="1.5"/>
            <path d="M20.39,38.47c-1.46.79-2.36,1.79-2.36,2.87,0,1.51,1.5,2.61,3.39,3.39V39.6C21,39.19,20.68,38.79,20.39,38.47Z" fill="#333" stroke="#333" stroke-linejoin="round" stroke-width="1.5"/>
            <path d="M37.17,38.47c-.29.36-.64.73-1,1.14v5.18c1.89-.78,3.39-1.88,3.39-3.39C39.52,40.25,38.63,39.26,37.17,38.47Z" fill="#333" stroke="#333" stroke-linejoin="round" stroke-width="1.5"/>
            <path d="M15.34,57.72V42l-6.72,1.7V56C10.57,56.62,12.83,57.21,15.34,57.72Z" fill="#333" stroke="#333" stroke-linejoin="round" stroke-width="1.5"/>
            <path d="M48.94,56V43.69L42.22,42V57.72C44.73,57.21,47,56.62,48.94,56Z" fill="#333" stroke="#333" stroke-linejoin="round" stroke-width="1.5"/>
            <path d="M28.12,51.65C28,48.79,26.83,46.31,24,45.59s-6-2.08-6-4.25V47" fill="none" stroke="#333" stroke-linejoin="round" stroke-width="1.5"/>
            <path d="M39.52,47V41.34c0,2.17-4.08,4-7,4.72a5.51,5.51,0,0,0-4.41,5.59v7.44" fill="none" stroke="#333" stroke-linejoin="round" stroke-width="1.5"/>
            <path d="M39.76,24.92v-2.2c0-5.95-2.09-12.08-11-12.08s-11,6.13-11,12.08v2.2c-.09,0-3.29,0-2.2,5.49a4.27,4.27,0,0,0,3.29,3.29c0,3.9,1.1,4.39,4.81,8.21,1.43,1.82,3.17,1.67,5.07,1.67s3.65.15,5.07-1.67c3.71-3.82,4.81-4.31,4.81-8.21a4.27,4.27,0,0,0,3.29-3.29C43,24.92,39.85,24.89,39.76,24.92Z" fill="#ab8166"/>
            <path d="M39,30C40,30,41,30,42,29.88c.78-4.94-2.2-5-2.28-5v-2.2c0-6-2.09-12.08-11-12.08s-11,6.13-11,12.08v2.2c-.08,0-3.06,0-2.28,5,1,.09,2.05.14,3.08.14Z" fill="#a0775c"/>
            <path d="M20.41,32.61a3.66,3.66,0,0,1-1.52-3.29V26.63A2.46,2.46,0,0,0,17.43,25c-.83.17-2.72,1-1.83,5.45a4.27,4.27,0,0,0,3.29,3.29c0,3.3.8,4.17,3.29,6.68V37A5.23,5.23,0,0,0,20.41,32.61Z" fill="#a0775c"/>
            <path d="M42,30.41c1.1-5.49-2.11-5.52-2.2-5.49v-2.2c0-5.95-2.09-12.08-11-12.08a15.86,15.86,0,0,0-2.92.26v12a3.89,3.89,0,0,1-1.25,2.89.46.46,0,0,0,0,.64.41.41,0,0,0,.23.13c1.5.43,2.3.71,3.23.47.31-.08.86.27.86.59v1.57a1.67,1.67,0,0,0,.64,1.4,1.1,1.1,0,0,1-.64,2c-.81,0-1.1-.55-2.2-.55-.65,0-.55.85-.57.82a2.5,2.5,0,0,1,1.1.29,3.28,3.28,0,0,0,1.65.43v3.31a1.9,1.9,0,0,0,1.25,1.76A1.56,1.56,0,0,1,31,40.29c0,3-5.43-.3-5.43,3h0a9.62,9.62,0,0,0,3.16.29c1.9,0,3.65.15,5.07-1.67,3.71-3.82,4.81-4.31,4.81-8.21A4.25,4.25,0,0,0,42,30.41Z" fill="#a0775c"/>
            <path d="M25.86,10.91v12a3.89,3.89,0,0,1-1.27,2.88.46.46,0,0,0,0,.64.41.41,0,0,0,.23.13c1.5.43,2.3.71,3.23.47.31-.08.86.27.86.59A5.58,5.58,0,0,0,29.05,30c9.48,0,10.17.1,13-.14.73-4.63-1.84-5-2.23-5h0c-.27-1.13,2-14.27-11-14.27A15.46,15.46,0,0,0,25.86,10.91Z" fill="#916953"/>
            <path d="M39.79,24.92a2.18,2.18,0,0,0-1.12,1.87v2.53a3.66,3.66,0,0,1-1.52,3.29A5.24,5.24,0,0,0,35.37,37v3.38c2.5-2.51,3.29-3.38,3.29-6.68A4.27,4.27,0,0,0,42,30.41C43,25.1,40,24.9,39.79,24.92Z" fill="#916953"/>
            <path d="M39.76,24.92v-2.2c0-5.95-2.09-12.08-11-12.08s-11,6.13-11,12.08v2.2c-.09,0-3.29,0-2.2,5.49a4.27,4.27,0,0,0,3.29,3.29c0,3.9,1.1,4.39,4.81,8.21,1.43,1.82,3.17,1.67,5.07,1.67s3.65.15,5.07-1.67c3.71-3.82,4.81-4.31,4.81-8.21a4.27,4.27,0,0,0,3.29-3.29C43,24.92,39.85,24.89,39.76,24.92Z" fill="none" stroke="#333" stroke-linejoin="round" stroke-width="1.5"/>
            <line x1="28.76" y1="33.57" x2="28.76" y2="34.57" fill="none" stroke="#936b55" stroke-linecap="round" stroke-miterlimit="10" stroke-width="0.75"/>
            <line x1="27.84" y1="38.39" x2="29.84" y2="38.39" fill="none" stroke="#936b55" stroke-linecap="round" stroke-miterlimit="10" stroke-width="0.75"/>
            <line x1="28.63" y1="41.34" x2="28.88" y2="41.34" fill="none" stroke="#936b55" stroke-linecap="round" stroke-miterlimit="10" stroke-width="0.75"/>
            <path d="M30.12,35.43a2.94,2.94,0,0,0-1.18.13.61.61,0,0,1-.42,0,2.94,2.94,0,0,0-1.18-.13c-.67.1-.74.52-2.09,1.25l1.19.73a2.29,2.29,0,0,0,1.27.41h2.07A2.17,2.17,0,0,0,31,37.41l1.23-.7C30.92,36,30.79,35.53,30.12,35.43Z" fill="#916953"/>
            <path d="M32.27,36.71c-1,0-1.26-.39-2.24-.39a6.9,6.9,0,0,0-1.29.17,8,8,0,0,0-1.29-.17c-.94,0-1.15.36-2.21.36" fill="none" stroke="#674848" stroke-linecap="round" stroke-miterlimit="10" stroke-width="0.75"/>
            <path d="M26,32.69a2.72,2.72,0,0,1,1.31.34h0A2.75,2.75,0,0,0,30,33h0a2.84,2.84,0,0,1,1.31-.34" fill="none" stroke="#674848" stroke-linecap="round" stroke-miterlimit="10" stroke-width="0.75"/>
            <path d="M21.16,26a6.19,6.19,0,0,1,1.45-.55,6,6,0,0,1,1.58-.09,10,10,0,0,1,2.82,1h0a.24.24,0,0,1,.12.3.23.23,0,0,1-.23.14,10.66,10.66,0,0,1-1.48-.26c-.47-.09-.93-.14-1.37-.21a7.48,7.48,0,0,0-2.75.06h0a.22.22,0,0,1-.29-.13.23.23,0,0,1,.14-.29h0Z" fill="#333"/>
            <path d="M36.1,26.45a7.48,7.48,0,0,0-2.75-.06c-.45.07-.9.12-1.37.21a10.66,10.66,0,0,1-1.48.26.22.22,0,0,1-.24-.2v0a.23.23,0,0,1,.14-.23h0a10,10,0,0,1,2.82-1,7,7,0,0,1,1.58.09,5.3,5.3,0,0,1,1.45.55.23.23,0,0,1-.17.43h0Z" fill="#333"/>
            <circle cx="24.23" cy="28.11" r="0.71" fill="#333"/>
            <circle cx="33.19" cy="28.11" r="0.71" fill="#333"/>
            <path d="M28.78,10.65c-8.89,0-11,6.13-11,12.08v2.82a12.71,12.71,0,0,1,1.4,4,1.22,1.22,0,0,0,1-1.19V24a7.8,7.8,0,0,0-.28-2.3,2.68,2.68,0,0,1,.49-2.45c1.31-1.31,4.45-1.45,6.67.32l.75.61C30,22,31.63,23.32,34.68,23.32h2.75v5.15a1.3,1.3,0,0,0,.94,1.25,9,9,0,0,1,1.39-4V22.79C39.76,16.79,37.67,10.65,28.78,10.65Z" fill="#a0775c"/>
            <path d="M25.86,10.91h0v8c3.8,1.78,2.73,4.44,11.58,4.44V28.5a1.3,1.3,0,0,0,.94,1.25,9,9,0,0,1,1.39-4c0-2.32,1.11-12-6.66-14.48A16,16,0,0,0,25.86,10.91Z" fill="#87604d"/>
            <path d="M35.93,12.79c.47,0,1.19-.24,1.64-.2-2.9-2.8-14.26-4.8-17.39,1.47-7.87,2.7-1,12.5-1,15.5V24a7.12,7.12,0,0,0-.24-2,3.64,3.64,0,0,1,.75-3.42c1.77-1.77,5.5-1.75,8,.25s4,3.5,7,3.5h3.74v7.48c0-3.08,1.5-4,3-7.23C43.44,18.22,39.45,14.6,35.93,12.79Z" fill="#333"/>
            <path d="M20.18,14.06A6.25,6.25,0,0,0,18,15.32h0c-2.52,2.28-1.46,6.16-.31,9.37h0c-1.23-6-.41-9.56,7.65-9.56,0,0-1-.41-1.86-.72a22.31,22.31,0,0,1,6.37-.36,23.71,23.71,0,0,0-4.34-.81c3.09-.71,5.2-.44,8.37,0a22.64,22.64,0,0,0-7.7-1.2H26c3.66-.92,8.09-.16,11.48.54C34.31,9.38,23.12,8.2,20.18,14.06Z" fill="#614938"/>
            <path d="M18.93,29.56,18.87,24a6.15,6.15,0,0,0-.21-1.59,6.34,6.34,0,0,1-.21-.86,4.71,4.71,0,0,1,0-.92A3.74,3.74,0,0,1,19,18.8a4,4,0,0,1,1.39-1.28,7,7,0,0,1,7,.4A14.64,14.64,0,0,1,28.77,19c.43.36.86.72,1.3,1.06a8.77,8.77,0,0,0,2.78,1.6,10.73,10.73,0,0,0,3.24.32l3.38.09a.26.26,0,0,1,.25.26.25.25,0,0,1-.25.25L36,22.66a11.25,11.25,0,0,1-3.47-.23c-2.37-.64-4-2.5-5.78-3.65a6.37,6.37,0,0,0-6-.47,3,3,0,0,0-1.11,1,2.91,2.91,0,0,0-.46,1.4,4.3,4.3,0,0,0,.16,1.56A7.54,7.54,0,0,1,19.49,24l0,5.57a.26.26,0,0,1-.26.25A.25.25,0,0,1,18.93,29.56Z" fill="#333"/>
            <path d="M38.09,29.79a7,7,0,0,1,.41-2.64,14.91,14.91,0,0,1,1.19-2.36,24.38,24.38,0,0,0,1.16-2.21,5.42,5.42,0,0,0,.57-2.24,6,6,0,0,0-1.86-4.14,14.26,14.26,0,0,0-3.93-2.83.66.66,0,0,1-.3-.88.68.68,0,0,1,.61-.37h0a5,5,0,0,0,.66-.1,4.21,4.21,0,0,1,1-.12l-.54,1.16a9.92,9.92,0,0,0-4-1.86,18.27,18.27,0,0,0-4.6-.55,12.33,12.33,0,0,0-4.45.84,6.28,6.28,0,0,0-3.21,2.84h0a.65.65,0,0,1-.37.32,4.77,4.77,0,0,0-3,2.34,6.76,6.76,0,0,0-.29,4,26.47,26.47,0,0,0,1.19,4.2l.7,2.1a8.09,8.09,0,0,1,.49,2.27.34.34,0,0,1-.33.35h0a.36.36,0,0,1-.35-.32h0a7.71,7.71,0,0,0-.55-2l-.81-2.05a26.34,26.34,0,0,1-1.37-4.28,7.88,7.88,0,0,1,.23-4.68,5.06,5.06,0,0,1,1.52-2A7.83,7.83,0,0,1,20,13.42l-.38.33a7.65,7.65,0,0,1,3.82-3.58,13,13,0,0,1,5-1,18.72,18.72,0,0,1,5,.62,11.36,11.36,0,0,1,4.62,2.33h0a.69.69,0,0,1-.59,1.15,2.72,2.72,0,0,0-.63.08,3.74,3.74,0,0,1-1,.11l.33-1.25a15.54,15.54,0,0,1,4.22,3.2,7.08,7.08,0,0,1,2,5,6.44,6.44,0,0,1-.73,2.64,20.87,20.87,0,0,1-1.3,2.25,13.83,13.83,0,0,0-1.22,2.15,6.69,6.69,0,0,0-.36,2.34.36.36,0,0,1-.72,0Z" fill="#333"/>
            <path d="M26.37,15.51a7.65,7.65,0,0,1,4.88,1.37c.7.47,1.31,1,1.93,1.42s1.31.84,2,1.31a5,5,0,0,1-2.59-.27,10,10,0,0,1-2.22-1.21c-.66-.45-1.29-.86-2-1.28A23.28,23.28,0,0,1,26.37,15.51Z" fill="#614938"/>
            <path d="M43.82,18.35a15.17,15.17,0,0,0-30.33,0v6H43.82Z" fill="#333"/>
            <path d="M26.26.68,20,5.79a1.14,1.14,0,0,0-.41,1l1.9,16.6a1.13,1.13,0,0,0,1.12,1H34.93a1.13,1.13,0,0,0,1.12-1L38,6.79a1.14,1.14,0,0,0-.41-1L31.29.68A4,4,0,0,0,26.26.68Z" fill="#444" stroke="#333" stroke-linecap="round" stroke-linejoin="round" stroke-width="1.5"/>
            <path d="M36,19.55H21.29a1.12,1.12,0,0,1-1.12-1.12h0V12a1.13,1.13,0,0,1,1.08-1.16H36a1.12,1.12,0,0,1,1.12,1.12h0v6.48a1.12,1.12,0,0,1-1.08,1.16Z" fill="#555" stroke="#333" stroke-linecap="round" stroke-linejoin="round" stroke-width="1.5"/>
            <path d="M17.18,19.55V10.84H15.49a15.13,15.13,0,0,0-2,7.51v1.2Z" fill="#e3ff92"/>
            <path d="M40.13,19.55h3.69v-1.2a15.13,15.13,0,0,0-2-7.51H40.13Z" fill="#e3ff92"/>
            <path d="M43.82,18.35a15.17,15.17,0,0,0-30.33,0v6H43.82Z" fill="none" stroke="#333" stroke-linecap="round" stroke-linejoin="round" stroke-width="1.5"/>
            <path d="M26.3,15.45H25.13V17h1.38l-.13,1H24V12.27h2.34v1H25.13v1.22h1.18v1Z" fill="#fff"/>
            <path d="M27.33,14V13.7c0-.67.23-1.36,1.31-1.36a1.18,1.18,0,0,1,1.3,1,1.6,1.6,0,0,1,0,.31v.21c0,.64-.25.94-.57,1.07h0A1,1,0,0,1,30,16.07v.44c0,.94-.36,1.53-1.42,1.53a1.21,1.21,0,0,1-1.36-1,1,1,0,0,1,0-.35v-.21h1v.24c0,.27.07.5.35.5s.34-.25.34-.53v-.58c0-.45-.13-.62-.56-.62h-.3v-.89h.32c.35,0,.48-.13.48-.55v-.33c0-.27,0-.48-.29-.48s-.3.2-.3.45V14h-1Z" fill="#fff"/>
            <path d="M32.45,18V16.69H30.92v-.84l1-3.43h1.53v3.37h.37l-.07.88h-.29V18h-1Zm0-2.8V13.36h0c-.17.74-.38,1.69-.57,2.44h.55Z" fill="#fff"/>
            <path d="M48.94,22.79h0a32.65,32.65,0,0,1-10,1.56H18.6a32.65,32.65,0,0,1-10-1.56h0" fill="none" stroke="#333" stroke-linecap="round" stroke-linejoin="round" stroke-width="3"/>
            <path d="M28.65,3.19a20.45,20.45,0,0,0-8.8,2l2,4.33h13.5l2-4.35A20.47,20.47,0,0,0,28.65,3.19Z" fill="#ccc" stroke="#333" stroke-linecap="round" stroke-linejoin="round" stroke-width="1.5"/>
            <path d="M22.68,5.61l2.26-.49.11.53L23.45,6l.13.63L25,6.3l.12.54-1.49.32.23,1.06-.67.14Z" fill="#333"/>
            <path d="M26.83,4.93l.26,2.86-.68.06-.26-2.8Z" fill="#333"/>
            <path d="M29,6.6V7.68h-.68l.07-2.89,1.53.06c.65,0,1,.36,1,.84a.66.66,0,0,1-.52.65.63.63,0,0,1,.39.68v.14a2.44,2.44,0,0,0,0,.54h-.7a2.72,2.72,0,0,1,0-.57V7.05c0-.28-.09-.41-.5-.42Zm0-.51h.7c.33,0,.48-.1.49-.34S30,5.4,29.7,5.38H29Z" fill="#333"/>
            <path d="M34.2,7.18l-1.54-.32-.13.63,1.71.35-.19.52-2.31-.48.57-2.76,2.29.47-.11.54-1.62-.34-.11.52,1.54.32Z" fill="#333"/>
          </g>
        </g>
      </g>
      <path d="M34.58,32.83a5.44,5.44,0,0,1,2.34,7.34,6.11,6.11,0,0,1-.7,1c-.85,1-6.73,9.73-14.95,0a5.46,5.46,0,0,1,.65-7.69,5.21,5.21,0,0,1,1-.67l4.52-2.35a2.88,2.88,0,0,1,2.62,0Z" fill="#fff"/>
      <path d="M20.82,34.79a23,23,0,0,1-3.75-9.3" fill="#fff" stroke="#333" stroke-linecap="round" stroke-linejoin="round" stroke-width="1.5"/>
      <path d="M36.94,34.79a23,23,0,0,0,3.75-9.3" fill="#fff" stroke="#333" stroke-linecap="round" stroke-linejoin="round" stroke-width="1.5"/>
      <line x1="19.98" y1="37.55" x2="18.34" y2="36.65" fill="none" stroke="#333" stroke-linecap="round" stroke-linejoin="round" stroke-width="1.5"/>
      <line x1="37.78" y1="37.55" x2="39.42" y2="36.65" fill="none" stroke="#333" stroke-linecap="round" stroke-linejoin="round" stroke-width="1.5"/>
      <path d="M34.58,32.83l-4.51-2.34a2.88,2.88,0,0,0-2.62,0l-4.52,2.35a5.38,5.38,0,0,0-2.77,3.52,5.3,5.3,0,0,0,1.12,2.17c8.22,9.75,14.1,1,14.95,0a5.36,5.36,0,0,0,1.13-2.18A5.38,5.38,0,0,0,34.58,32.83Z" fill="#fff"/>
      <path d="M34.58,32.83l-4.51-2.34a3,3,0,0,0-1.18-.3h0v8c0,2.06,2.2,1.61.86,4.11-2,3.84-7.08-2.89-7.08.41,0,.12,3,2.09,3,2.2C31.5,48,35.53,42,36.22,41.21a5.44,5.44,0,0,0-.6-7.68A5.57,5.57,0,0,0,34.58,32.83Z" fill="#eee"/>
      <path d="M20.18,36.26a19,19,0,0,0,8.71,2.27,17.24,17.24,0,0,0,8.44-2.27" fill="none" stroke="#ddd" stroke-miterlimit="10"/>
      <path d="M20.18,38.49a19,19,0,0,0,8.71,2.27,17.35,17.35,0,0,0,8.44-2.27" fill="none" stroke="#ddd" stroke-miterlimit="10"/>
      <path d="M34.58,32.83a5.44,5.44,0,0,1,2.34,7.34,6.11,6.11,0,0,1-.7,1c-.85,1-6.73,9.73-14.95,0a5.46,5.46,0,0,1,.65-7.69,5.21,5.21,0,0,1,1-.67l4.52-2.35a2.88,2.88,0,0,1,2.62,0Z" fill="none" stroke="#333" stroke-linejoin="round" stroke-width="1.5"/>
    </g>
  </g>
</svg>
