<svg xmlns="http://www.w3.org/2000/svg" viewBox="0 0 64 64">
  <g id="nurse-white-female-coronavirus">
    <g>
      <g id="b184c618-4035-4836-aa87-78842633d08b">
        <g id="a4639176-4db8-4976-a8ad-4a2f9eeb2a26">
          <g id="b7cc47be-4420-4a81-afaa-47bd3a3f526f">
            <g id="f1959d80-de29-45fe-b8ba-670141991778">
              <g id="e01f24bf-f1ec-448d-b65e-86500f5f7d83">
                <path d="M45,33.55a6,6,0,0,1-6,6H27.5c-3.31,0-6.47-2.73-6.47-6.06V23.05c0-6.9,2.62-13,12.06-13S45,16.15,45,23.05Z" fill="#333" stroke="#333" stroke-miterlimit="10" stroke-width="1.5"/>
                <path d="M56.53,50.66a6,6,0,0,0-3.5-4l-14-4H27l-14,4a6,6,0,0,0-3.5,4c-.25,1.53-.5,3-.5,3,7.64,3.38,15.11,4,24,4s16.36-.63,24-4C57,53.66,56.78,52.19,56.53,50.66Z" fill="#d362a4"/>
                <path d="M13.13,46.64a5.53,5.53,0,0,0-3.6,4c-.25,1.52-.5,3-.5,3l.47.2v-.2a5.53,5.53,0,0,1,3.6-4l11-3.15A4,4,0,0,0,27,42.67Z" fill="#dd83bf"/>
                <path d="M56.53,50.67a5.51,5.51,0,0,0-3.6-4l-13.9-4a4,4,0,0,0,2.88,3.83l11,3.15a5.51,5.51,0,0,1,3.6,4v.2l.47-.2S56.78,52.19,56.53,50.67Z" fill="#d873b2"/>
                <polygon points="39.03 42.66 33.03 49.66 27.03 42.66 27.03 37.66 39.03 37.66 39.03 42.66" fill="#8f715c"/>
                <line x1="39.03" y1="43.66" x2="39.03" y2="37.66" fill="none" stroke="#343433" stroke-miterlimit="10" stroke-width="1.5"/>
                <line x1="27.03" y1="43.66" x2="27.03" y2="37.66" fill="none" stroke="#343433" stroke-miterlimit="10" stroke-width="1.5"/>
                <path d="M39,42.66l14,4a6,6,0,0,1,3.5,4c.25,1.53.5,3,.5,3-7.64,3.37-15.12,4-24,4s-16.36-.62-24-4c0,0,.25-1.47.5-3a6,6,0,0,1,3.5-4l14-4" fill="none" stroke="#343433" stroke-linecap="round" stroke-linejoin="round" stroke-width="1.5"/>
                <path d="M17,53.66H15v-2l5-5a8,8,0,0,1,8-8H38a8,8,0,0,1,8,8v8" fill="none" stroke="#333" stroke-linejoin="round" stroke-width="1.5"/>
                <polyline points="23.03 53.66 25.03 53.66 25.03 51.66 20.03 46.66" fill="none" stroke="#333" stroke-linejoin="round" stroke-width="1.5"/>
                <circle cx="46.03" cy="54.16" r="2.5" fill="#ccc" stroke="#333" stroke-linecap="round" stroke-linejoin="round" stroke-width="1.5"/>
                <circle cx="17.03" cy="53.66" r="1.25" fill="#333"/>
                <circle cx="23.03" cy="53.66" r="1.25" fill="#333"/>
                <polyline points="39.03 42.66 33.03 49.66 27.03 42.66" fill="none" stroke="#343433" stroke-linecap="round" stroke-linejoin="round" stroke-width="1.5"/>
                <path d="M56.53,50.66a6,6,0,0,0-3.5-4l-14-4H27l-14,4a6,6,0,0,0-3.5,4c-.25,1.53-.5,3-.5,3,7.64,3.38,15.11,4,24,4s16.36-.63,24-4C57,53.66,56.78,52.19,56.53,50.66Z" fill="#d362a4"/>
                <path d="M13.13,46.64a5.53,5.53,0,0,0-3.6,4c-.25,1.52-.5,3-.5,3l.47.2v-.2a5.53,5.53,0,0,1,3.6-4l11-3.15A4,4,0,0,0,27,42.67Z" fill="#dd83bf"/>
                <path d="M56.53,50.67a5.51,5.51,0,0,0-3.6-4l-13.9-4a4,4,0,0,0,2.88,3.83l11,3.15a5.51,5.51,0,0,1,3.6,4v.2l.47-.2S56.78,52.19,56.53,50.67Z" fill="#d873b2"/>
                <polygon points="39.03 42.66 33.03 49.66 27.03 42.66 27.03 37.66 39.03 37.66 39.03 42.66" fill="#edccc3"/>
                <path d="M27.28,40.83,32,45.58A4.14,4.14,0,0,1,33,48.36a2.45,2.45,0,0,0,.24,1l5.5-6.42V39.76H27.28Z" fill="#ddb9b3"/>
                <line x1="39.03" y1="43.66" x2="39.03" y2="37.66" fill="none" stroke="#343433" stroke-miterlimit="10" stroke-width="1.5"/>
                <line x1="27.03" y1="43.66" x2="27.03" y2="37.66" fill="none" stroke="#343433" stroke-miterlimit="10" stroke-width="1.5"/>
                <path d="M39,42.66l14,4a6,6,0,0,1,3.5,4c.25,1.53.5,3,.5,3-7.64,3.37-15.12,4-24,4s-16.36-.62-24-4c0,0,.25-1.47.5-3a6,6,0,0,1,3.5-4l14-4" fill="none" stroke="#343433" stroke-linecap="round" stroke-linejoin="round" stroke-width="1.5"/>
                <path d="M17,53.66H15v-2l5-5a8,8,0,0,1,8-8H38a8,8,0,0,1,8,8v8" fill="none" stroke="#333" stroke-linejoin="round" stroke-width="1.5"/>
                <polyline points="23.03 53.66 25.03 53.66 25.03 51.66 20.03 46.66" fill="none" stroke="#333" stroke-linejoin="round" stroke-width="1.5"/>
                <circle cx="46.03" cy="54.16" r="2.5" fill="#ccc" stroke="#333" stroke-linecap="round" stroke-linejoin="round" stroke-width="1.5"/>
                <circle cx="17.03" cy="53.66" r="1.25" fill="#333"/>
                <circle cx="23.03" cy="53.66" r="1.25" fill="#333"/>
                <polyline points="39.03 42.66 33.03 49.66 27.03 42.66" fill="none" stroke="#343433" stroke-linecap="round" stroke-linejoin="round" stroke-width="1.5"/>
                <path d="M33,11.82c8,0,10.5,4.59,10.5,10v2c1.73,0,2.28,1.71,2,4-.24,1.95-1,4-3,4v1.5c0,3-2.39,4.36-5.18,7.26A4.81,4.81,0,0,1,33,42.28a4.84,4.84,0,0,1-4.32-1.74c-2.79-2.9-5.18-4.26-5.18-7.26V31.82c-2,0-2.76-2.05-3-4-.28-2.29.27-4,2-4v-2C22.53,16.37,25,11.82,33,11.82Z" fill="#edccc3"/>
                <path d="M43.11,23.89v-2c0-5.41-2-10.51-10-10.51a14.27,14.27,0,0,0-2.77.24V22a3.89,3.89,0,0,1-1.27,2.88.46.46,0,0,0,0,.64.48.48,0,0,0,.23.13,2.57,2.57,0,0,1,1.88,1.88.49.49,0,0,0,.58.37h0a.46.46,0,0,0,.19-.08,1.83,1.83,0,0,1,.58-.32.48.48,0,0,1,.59.35.69.69,0,0,1,0,.13v2.08a1.12,1.12,0,0,0,.62.94c.57.32.16,1.4-.62,1.4h0a1.65,1.65,0,0,1-.89-.23c-.74-.37-1.43.39-1.27.68s.34,0,1.08.35a2.62,2.62,0,0,0,1.1.27v3.68a.39.39,0,0,0,.31.38c1.31.31,2,2.49-.31,3h0a1.25,1.25,0,0,0-1,1.2v.45a6.5,6.5,0,0,0,5-1.3l2.56-2a6.51,6.51,0,0,0,2.29-4l.55-3h0c1.8-.12,2.77-2.08,3-4C45.9,25.59,44.84,23.89,43.11,23.89Z" fill="#e5c2ba"/>
                <circle cx="28.53" cy="27.8" r="0.75" fill="#333"/>
                <path d="M30.34,28.17c-.58-.33-2.07-2.25-4-.33a2.58,2.58,0,0,1-.67-.46,4.11,4.11,0,0,1,3-.28" fill="#333" stroke="#333" stroke-linecap="round" stroke-miterlimit="10" stroke-width="0.5"/>
                <path d="M35.79,28.17c.58-.33,2.07-2.25,4-.33a2.58,2.58,0,0,0,.67-.46,4.11,4.11,0,0,0-3-.28" fill="#333" stroke="#333" stroke-linecap="round" stroke-miterlimit="10" stroke-width="0.5"/>
                <circle cx="37.53" cy="27.8" r="0.75" fill="#333"/>
                <path d="M25.6,25.51A3.48,3.48,0,0,1,26.91,25a4.17,4.17,0,0,1,1.41,0,12.21,12.21,0,0,1,1.33.31,8.61,8.61,0,0,0,1.22.28h0a.51.51,0,0,1,.55.46.52.52,0,0,1-.46.56h0l-.17,0h-.07a9.17,9.17,0,0,1-1.32-.5,10.29,10.29,0,0,0-1.2-.47A3.62,3.62,0,0,0,27,25.41a1.89,1.89,0,0,0-1.15.38.18.18,0,1,1-.26-.25h0l0,0Z" fill="#333"/>
                <path d="M40.18,25.8A1.84,1.84,0,0,0,39,25.43a3.85,3.85,0,0,0-1.22.2,10.29,10.29,0,0,0-1.2.47,7.85,7.85,0,0,1-1.33.49.51.51,0,0,1-.23-1h.08a8.45,8.45,0,0,0,1.21-.27,12.09,12.09,0,0,1,1.33-.28,4.17,4.17,0,0,1,1.41,0,3.66,3.66,0,0,1,1.31.53.18.18,0,0,1,.07.25.19.19,0,0,1-.25.06l0,0S40.19,25.8,40.18,25.8Z" fill="#333"/>
                <path d="M31,33.38c1,0,1,.51,2,.51s1-.51,2-.51" fill="none" stroke="#d8b5af" stroke-linecap="round" stroke-miterlimit="10" stroke-width="0.5"/>
                <line x1="33.07" y1="33.73" x2="33.07" y2="34.48" fill="none" stroke="#d8b5af" stroke-linecap="round" stroke-miterlimit="10" stroke-width="0.5"/>
                <path d="M31,37.32a2.2,2.2,0,0,0,1.56.56h1a2.54,2.54,0,0,0,1.69-.6" fill="none" stroke="#d8b5af" stroke-linecap="round" stroke-miterlimit="10" stroke-width="0.5"/>
                <line x1="30.12" y1="35.83" x2="29.62" y2="36.83" fill="none" stroke="#d8b5af" stroke-linecap="round" stroke-miterlimit="10" stroke-width="0.5"/>
                <line x1="36.12" y1="35.83" x2="36.62" y2="36.83" fill="none" stroke="#d8b5af" stroke-linecap="round" stroke-miterlimit="10" stroke-width="0.5"/>
                <path d="M33.9,35.12a1.92,1.92,0,0,1-.78.2c-.2,0-.22,0-.68-.2-.8-.32-.85.66-2.33,1.2l.92.94a2.16,2.16,0,0,0,1.55.56h1a2.5,2.5,0,0,0,1.67-.6l.86-.9C34.7,35.81,34.7,34.81,33.9,35.12Z" fill="#a56659"/>
                <path d="M36.11,36.32c-1,0-1.49-.49-3,0h0c-1.48-.5-2,0-3,0" fill="none" stroke="#743f40" stroke-linecap="round" stroke-miterlimit="10" stroke-width="0.5"/>
                <path d="M31.12,32.89c1,0,1,.5,2,.5s1-.5,2-.5" fill="none" stroke="#ba8d86" stroke-linecap="round" stroke-miterlimit="10" stroke-width="0.75"/>
                <path d="M33,11.82c8,0,10.5,4.59,10.5,10v2c1.73,0,2.28,1.71,2,4-.24,1.95-1,4-3,4v1.5c0,3-2.42,4.29-5.21,7.2A4.84,4.84,0,0,1,33,42.28a4.94,4.94,0,0,1-4.35-1.8c-2.79-2.91-5.15-4.2-5.15-7.2V31.82c-2,0-2.76-2.05-3-4-.28-2.29.27-4,2-4v-2C22.53,16.37,25,11.82,33,11.82Z" fill="none" stroke="#333" stroke-linejoin="round" stroke-width="1.5"/>
                <path d="M32.54,8.82c-3.42,0-6.7,1.29-8.5,3.5-3.51.73-5,3.61-5,6.5,0,4.53,4.25,8.15,4.25,9.5v-2.5c0-3.44,2.47-1.68,3.25-5,7.37,2.38,10.41,4.93,12,7.5a13.16,13.16,0,0,0,6,5.5A30.72,30.72,0,0,0,47,23.32,14.41,14.41,0,0,0,32.71,8.82Z" fill="#333"/>
                <path d="M19.29,20.82c.25-3.54,1.62-6.87,5.75-7.54,3.73-4.57,13.89-4.09,19.5,2C39.48,7.48,28.4,7,24,12.28,20.08,13.14,18.29,16.89,19.29,20.82Z" fill="#444"/>
                <path d="M44.23,33.69a38,38,0,0,0,1.59-5.09,22.84,22.84,0,0,0,.69-5.21A14.29,14.29,0,0,0,42.79,14a13.44,13.44,0,0,0-9-4.34,13,13,0,0,0-5,.52,8.79,8.79,0,0,0-4.18,2.6h0a.61.61,0,0,1-.37.21,5.44,5.44,0,0,0-3.57,2.3,6.85,6.85,0,0,0-1,4.3,10.21,10.21,0,0,0,1.61,4.33c.41.68.87,1.34,1.32,2,.23.35.45.69.66,1.07a3.07,3.07,0,0,1,.43,1.32.35.35,0,0,1-.34.35.32.32,0,0,1-.34-.3h0A5,5,0,0,0,22,26.39c-.48-.65-1-1.31-1.43-2a11.27,11.27,0,0,1-1.9-4.69,7.92,7.92,0,0,1,1-5.06,6.59,6.59,0,0,1,4.32-3l-.39.23a10.2,10.2,0,0,1,4.77-3.15A13.71,13.71,0,0,1,34,8.11a14.46,14.46,0,0,1,9.87,5,15.51,15.51,0,0,1,3.8,10.3,21.68,21.68,0,0,1-.93,5.41A39.14,39.14,0,0,1,44.86,34a.35.35,0,0,1-.45.18h0a.34.34,0,0,1-.19-.43Z" fill="#333"/>
                <path d="M44.4,34.13a13.94,13.94,0,0,1-2.83-1.56,13.9,13.9,0,0,1-2.36-2.24c-.7-.83-1.28-1.76-1.87-2.53-.3-.41-.65-.77-1-1.16a7.7,7.7,0,0,0-1.06-1,19.38,19.38,0,0,0-5-3.35,48,48,0,0,0-5.82-2.09.34.34,0,0,1-.22-.43h0a.35.35,0,0,1,.39-.23h0a37.12,37.12,0,0,1,6.13,1.61,15.54,15.54,0,0,1,7.63,5.9c.62.92,1.12,1.78,1.71,2.59a13.08,13.08,0,0,0,4.52,3.94.32.32,0,0,1,.24.37.31.31,0,0,1-.36.24l-.1,0Z" fill="#333"/>
                <path d="M32.73,18.68a8.5,8.5,0,0,1,3.7.92,10.44,10.44,0,0,1,3.13,2.22,10,10,0,0,1,2.14,3.23,9.39,9.39,0,0,1,.78,3.77c-.63-1.11-1.14-2.2-1.81-3.18a18.6,18.6,0,0,0-2.18-2.74A23,23,0,0,0,32.73,18.68Z" fill="#333"/>
                <path d="M25.34,14.65a6.54,6.54,0,0,1,2.46-1.83,10.39,10.39,0,0,1,3-.84,11.35,11.35,0,0,1,3.08.06A9.72,9.72,0,0,1,36.8,13h-3a23,23,0,0,0-2.87.21A22.1,22.1,0,0,0,25.34,14.65Z" fill="#333"/>
                <path d="M28.82,16.25a10.46,10.46,0,0,1,3.78-1.2,12.21,12.21,0,0,1,4,.12,12.7,12.7,0,0,1,2,.58,10.12,10.12,0,0,1,1.79,1,9.48,9.48,0,0,1,2.79,2.85,21.94,21.94,0,0,0-3.28-2,14,14,0,0,0-3.51-1.18A22.64,22.64,0,0,0,28.82,16.25Z" fill="#333"/>
                <path d="M23.29,28.32v-2.5c0-3.44,2.74-2.1,3.53-5.42" fill="none" stroke="#333" stroke-linejoin="round" stroke-width="0.75"/>
              </g>
            </g>
          </g>
        </g>
      </g>
      <g id="b16ad1c5-7fa2-4b13-968a-d8cf7936f0e8">
        <path d="M38.48,31.43a5.19,5.19,0,0,1,1.57,8c-.82,1-6.44,9.31-14.3,0a5.2,5.2,0,0,1,.61-7.34,5.3,5.3,0,0,1,1-.65l4.33-2.24a2.69,2.69,0,0,1,2.5,0Z" fill="#fff"/>
        <path d="M25.32,33.3a21.79,21.79,0,0,1-3.58-8.89" fill="#fff" stroke="#333" stroke-linecap="round" stroke-linejoin="round" stroke-width="1.5"/>
        <path d="M40.74,33.3a21.79,21.79,0,0,0,3.58-8.89" fill="#fff" stroke="#333" stroke-linecap="round" stroke-linejoin="round" stroke-width="1.5"/>
        <line x1="24.52" y1="35.95" x2="22.95" y2="35.08" fill="none" stroke="#333" stroke-linecap="round" stroke-linejoin="round" stroke-width="1.5"/>
        <line x1="41.54" y1="35.95" x2="43.11" y2="35.08" fill="none" stroke="#333" stroke-linecap="round" stroke-linejoin="round" stroke-width="1.5"/>
        <path d="M38.48,31.43l-4.31-2.24a2.75,2.75,0,0,0-2.5,0l-4.33,2.25a5.13,5.13,0,0,0-2.65,3.36,5.1,5.1,0,0,0,1.07,2.08c7.86,9.32,13.48,1,14.3,0a5,5,0,0,0,1.08-2.09A5.11,5.11,0,0,0,38.48,31.43Z" fill="#fff"/>
        <path d="M38.48,31.43l-4.31-2.24A2.78,2.78,0,0,0,33,28.9h0v7.64c0,2,2.1,1.54.83,3.93-2,3.67-6.77-2.76-6.77.39,0,.11,2.82,2,2.81,2.1,5.65,2.94,9.5-2.73,10.16-3.51a5.2,5.2,0,0,0-.58-7.34A4.79,4.79,0,0,0,38.48,31.43Z" fill="#eee"/>
        <path d="M24.71,34.71A18.09,18.09,0,0,0,33,36.88a16.45,16.45,0,0,0,8.07-2.17" fill="none" stroke="#ddd" stroke-miterlimit="10" stroke-width="0.96"/>
        <path d="M24.71,36.84A18.09,18.09,0,0,0,33,39a16.56,16.56,0,0,0,8.07-2.17" fill="none" stroke="#ddd" stroke-miterlimit="10" stroke-width="0.96"/>
        <path d="M38.48,31.43a5.19,5.19,0,0,1,1.57,8c-.82,1-6.44,9.31-14.3,0a5.2,5.2,0,0,1,.61-7.34,5.3,5.3,0,0,1,1-.65l4.33-2.24a2.69,2.69,0,0,1,2.5,0Z" fill="none" stroke="#333" stroke-linejoin="round" stroke-width="1.5"/>
      </g>
    </g>
  </g>
</svg>
