<svg xmlns="http://www.w3.org/2000/svg" viewBox="0 0 64 64">
  <g id="doctor-black-male-coronavirus">
    <g>
      <g id="ffe1f4a0-1e7a-4da7-ab80-cc6454cdb92d">
        <path d="M54.34,43.05,42,39.16H24L11.72,43.05a6,6,0,0,0-4.16,5L7,52.16c7.89,3.5,17.36,5,26,5s18.11-1.49,26-5L58.51,48A6,6,0,0,0,54.34,43.05Z" fill="#e0ebee"/>
        <path d="M59,52.16l-.29-2.34a6.07,6.07,0,0,0-3.57-2.77L42.38,43.16H23.68L10.9,47.05a6.13,6.13,0,0,0-3.57,2.76L7,52.16c7.89,3.5,17.36,5,26,5S51.14,55.67,59,52.16Z" fill="#cedde1"/>
        <path d="M29,57.05C28.39,56,24,47.57,24,39.16h0l-3.83,1.2L17,46.74l5,3L19.79,56A74.37,74.37,0,0,0,29,57.05Z" fill="#eaf2f3"/>
        <polyline points="20.2 40.36 17.03 46.74 22.03 49.74 19.8 55.98" fill="none" stroke="#c5d5d8" stroke-linejoin="round"/>
        <path d="M37.09,57.05C37.67,56,42,47.57,42,39.16h0l3.83,1.2L49,46.74l-5,3L46.27,56A74.59,74.59,0,0,1,37.09,57.05Z" fill="#eaf2f3"/>
        <polyline points="45.86 40.36 49.03 46.74 44.03 49.74 46.26 55.98" fill="none" stroke="#c5d5d8" stroke-linejoin="round"/>
        <path d="M37,57.16s5-9,5-18H24c0,9,5,18,5,18" fill="#6d797d" stroke="#343433" stroke-linejoin="round" stroke-width="1.5"/>
        <polygon points="39 42.17 33 47.16 27 42.17 27 35.17 39 35.17 39 42.17" fill="#aa8064"/>
        <path d="M33,57.16c1.21,0,2.44,0,3.67-.1-1-3.27-2.67-8.9-2.67-8.9H32l-2.67,8.89C30.59,57.12,31.82,57.16,33,57.16Z" fill="#4994c4" stroke="#343433" stroke-linejoin="round" stroke-width="1.5"/>
        <path d="M36.7,57.05c-1-3.27-2.67-8.9-2.67-8.9H32l-2.67,8.9" fill="none" stroke="#343433" stroke-miterlimit="10" stroke-width="1.5"/>
        <path d="M33.32,48.16l.21,3a.5.5,0,1,1-1,.06v-.07l.21-3a.29.29,0,1,1,.58,0Z" fill="#343433"/>
        <polygon points="33.03 43.16 30.36 46.49 32.03 48.16 34.03 48.16 35.61 46.38 33.03 43.16" fill="#4994c4" stroke="#343433" stroke-linejoin="round" stroke-width="1.5"/>
        <path d="M26,36.16s1.53,3.51,7,7l-4,5c-3-3-5-7-5-9Z" fill="#6d797d" stroke="#343433" stroke-linejoin="round" stroke-width="1.5"/>
        <path d="M40,36.16s-1.53,3.51-7,7l4,5c3-3,5-7,5-9Z" fill="#6d797d" stroke="#343433" stroke-linejoin="round" stroke-width="1.5"/>
        <path d="M42,39.16l12.31,3.89a6,6,0,0,1,4.16,5L59,52.16c-7.89,3.5-17.36,5-26,5s-18.11-1.49-26-5L7.55,48a6,6,0,0,1,4.16-5L24,39.16" fill="none" stroke="#343433" stroke-linejoin="round" stroke-width="1.5"/>
        <path d="M46.25,51.16v-11a3.83,3.83,0,0,0-3.65-4H40.25" fill="none" stroke="#333" stroke-linejoin="round" stroke-width="1.5"/>
        <path d="M19,45.66V40.17a3.83,3.83,0,0,1,3.65-4H26" fill="none" stroke="#333" stroke-linejoin="round" stroke-width="1.5"/>
        <path d="M49.75,54.66a3.5,3.5,0,1,1-3.5-3.5,3.5,3.5,0,0,1,3.5,3.5Z" fill="#e0ebee"/>
        <circle cx="46.25" cy="54.66" r="1" fill="#333"/>
        <path d="M49.75,54.66a3.5,3.5,0,1,1-3.5-3.5,3.5,3.5,0,0,1,3.5,3.5Z" fill="none" stroke="#333" stroke-linejoin="round" stroke-width="1.5"/>
        <circle cx="17.03" cy="57.16" r="1" fill="#333"/>
        <circle cx="21.03" cy="57.16" r="1" fill="#333"/>
        <path d="M17,57.16c-2,0-3-.83-3-2,0-3,5-10,5-10s5,7,5,10c0,1.17-1,2-3,2" fill="none" stroke="#333" stroke-linejoin="round" stroke-width="1.5"/>
        <path d="M44.45,20.28V18.05c0-6-2.09-12.08-11-12.08s-11,6.13-11,12.08v2.2c-.09,0-3.29,0-2.2,5.49a4.29,4.29,0,0,0,3.33,3.31c0,3.9,1.1,4.39,4.81,8.21,1.43,1.82,3.17,1.67,5.07,1.67s3.65.15,5.07-1.67c3.71-3.82,4.81-4.31,4.81-8.21a4.28,4.28,0,0,0,3.29-3.29C47.74,20.28,44.54,20.24,44.45,20.28Z" fill="#a68064"/>
        <path d="M46.64,25.77c1.1-5.49-2.11-5.52-2.2-5.49V18.05c0-6-2.09-12.08-11-12.08a15,15,0,0,0-2.92.26v12a3.91,3.91,0,0,1-1.27,2.88.44.44,0,0,0,0,.63.49.49,0,0,0,.23.14c1.5.43,2.3.71,3.23.47.31-.08.86.27.86.59v1.57a1.7,1.7,0,0,0,.64,1.4,1.09,1.09,0,0,1,.27,1.53,1.13,1.13,0,0,1-.91.47c-.81,0-1.1-.55-2.2-.55-.65,0-.55.85-.57.82a2.26,2.26,0,0,1,1.1.29,3.38,3.38,0,0,0,1.65.43v3.31a1.91,1.91,0,0,0,1.27,1.84,1.54,1.54,0,0,1,.94,1.63c0,3-5.43-.3-5.43,3h0a10.19,10.19,0,0,0,3.16.29c1.9,0,3.65.15,5.07-1.67,3.71-3.82,4.81-4.31,4.81-8.21A4.3,4.3,0,0,0,46.64,25.77Z" fill="#9b775c"/>
        <path d="M42.72,21.41a21.61,21.61,0,0,0-4.47-.26,14.48,14.48,0,0,0-4.18.71H34a2.41,2.41,0,0,0-1,0l-.09-.05a13.77,13.77,0,0,0-4.17-.71,21.67,21.67,0,0,0-4.48.26.51.51,0,0,0-.42.5v.67a.53.53,0,0,0,.19.52l.27.18a9.25,9.25,0,0,0,.36,2.08.61.61,0,0,0,.23.3,9.32,9.32,0,0,0,3.07.78,10.71,10.71,0,0,0,1.39.12,8.93,8.93,0,0,0,2.3-.32.52.52,0,0,0,.31-.27s.24-.5.57-1.4c.27-.72.43-1.22.54-1.54a1.4,1.4,0,0,1,.81,0c.1.32.27.83.54,1.56.33.89.56,1.37.57,1.39a.55.55,0,0,0,.31.27,8.59,8.59,0,0,0,2.31.32A10.39,10.39,0,0,0,39,26.41,9.61,9.61,0,0,0,42,25.57a.52.52,0,0,0,.23-.3,9.25,9.25,0,0,0,.36-2.08L42.9,23a.52.52,0,0,0,.22-.42v-.67A.51.51,0,0,0,42.72,21.41Z" fill="#957058"/>
        <path d="M25.1,28a3.68,3.68,0,0,1-1.52-3.29V22a2.44,2.44,0,0,0-1.46-1.65c-.83.17-2.72,1-1.83,5.45a4.29,4.29,0,0,0,3.29,3.27c0,3.3.8,4.17,3.29,6.68V32.37A5.23,5.23,0,0,0,25.1,28Z" fill="#9b775c"/>
        <path d="M44.47,20.27a2.18,2.18,0,0,0-1.12,1.87v2.53A3.66,3.66,0,0,1,41.83,28,5.21,5.21,0,0,0,40,32.35v3.38c2.5-2.51,3.29-3.38,3.29-6.68a4.28,4.28,0,0,0,3.29-3.29C47.71,20.45,44.75,20.25,44.47,20.27Z" fill="#957058"/>
        <path d="M44.45,20.28V18.05c0-6-2.09-12.08-11-12.08s-11,6.13-11,12.08v2.2c-.09,0-3.29,0-2.2,5.49a4.29,4.29,0,0,0,3.33,3.31c0,3.9,1.1,4.39,4.81,8.21,1.43,1.82,3.17,1.67,5.07,1.67s3.65.15,5.07-1.67c3.71-3.82,4.81-4.31,4.81-8.21a4.28,4.28,0,0,0,3.29-3.29C47.74,20.28,44.54,20.24,44.45,20.28Z" fill="none" stroke="#333" stroke-linejoin="round" stroke-width="1.5"/>
        <line x1="33.47" y1="28.93" x2="33.47" y2="29.93" fill="none" stroke="#977059" stroke-linecap="round" stroke-miterlimit="10" stroke-width="0.75"/>
        <line x1="32.47" y1="33.99" x2="34.47" y2="33.99" fill="none" stroke="#977059" stroke-linecap="round" stroke-miterlimit="10" stroke-width="0.75"/>
        <line x1="33.34" y1="36.7" x2="33.59" y2="36.7" fill="none" stroke="#977059" stroke-linecap="round" stroke-miterlimit="10" stroke-width="0.75"/>
        <path d="M34.83,30.78a2.78,2.78,0,0,0-1.18.13.61.61,0,0,1-.42,0,2.73,2.73,0,0,0-1.2-.13c-.67.1-.74.52-2.09,1.25l1.19.73a2.29,2.29,0,0,0,1.27.41h2.07a2.31,2.31,0,0,0,1.27-.41L37,32.05C35.63,31.33,35.5,30.88,34.83,30.78Z" fill="#957058"/>
        <path d="M37,32.05c-1,0-1.26-.39-2.24-.39a6.16,6.16,0,0,0-1.29.17,6.25,6.25,0,0,0-1.29-.17c-.94,0-1.15.36-2.21.36" fill="none" stroke="#674848" stroke-linecap="round" stroke-miterlimit="10" stroke-width="0.75"/>
        <path d="M30.74,28.05a2.51,2.51,0,0,1,1.31.34h0a2.8,2.8,0,0,0,2.61,0h0A2.61,2.61,0,0,1,36,28.05" fill="none" stroke="#674848" stroke-linecap="round" stroke-miterlimit="10" stroke-width="0.75"/>
        <path d="M25.85,20.4a5.78,5.78,0,0,1,1.45-.55,5.24,5.24,0,0,1,1.58-.09,9.4,9.4,0,0,1,2.82,1h0a.23.23,0,0,1,.12.3.24.24,0,0,1-.23.14,14.77,14.77,0,0,1-1.48-.26c-.47-.09-.93-.14-1.37-.21a7.07,7.07,0,0,0-2.75.06h0a.24.24,0,0,1-.27-.18A.23.23,0,0,1,25.85,20.4Z" fill="#333"/>
        <path d="M40.79,20.82A7.13,7.13,0,0,0,38,20.76c-.45.07-.9.12-1.37.21a14.77,14.77,0,0,1-1.48.26.22.22,0,0,1-.24-.2v0a.23.23,0,0,1,.14-.23h0a9.4,9.4,0,0,1,2.82-1,6,6,0,0,1,1.58.09,5,5,0,0,1,1.45.55.23.23,0,0,1,.09.31.25.25,0,0,1-.26.12Z" fill="#333"/>
        <path d="M43,23.79c0-3,1.69-3.38,1.69-3.38.43-3,.89-4.88.17-7.43-1.25-4.37-5.27-7.19-11.44-7.19S23.62,8.61,22.37,13c-.7,2.46-.31,4.15.17,7.43,0,0,1.5.35,1.5,3.38,0-2.6-.09-3.9.81-5a1,1,0,0,0,.19-.6V15.94a2.1,2.1,0,0,1,1.39-2,22.14,22.14,0,0,1,7.11-1.36,22.14,22.14,0,0,1,7.11,1.36,2.1,2.1,0,0,1,1.39,2v2.21a1,1,0,0,0,.19.6C43.24,20.34,43,21.48,43,23.79Z" fill="#333"/>
        <path d="M39.56,7a14.66,14.66,0,0,0-6.09-1.17c-6.17,0-9.83,2.82-11.08,7.19-.7,2.46-.31,4.15.17,7.43,0,0,1.2.29,1.45,2.51v-5C24,6.05,35.56,6.28,39.56,7Z" fill="#444"/>
        <path d="M23.71,23.79c0-.75-.07-1.49-.07-2.26A5.65,5.65,0,0,1,24,19.15a3.36,3.36,0,0,1,.31-.56l.09-.13V18.4a.28.28,0,0,0,0-.13.38.38,0,0,0,0-.15v-2a2.81,2.81,0,0,1,.21-1.35,2.74,2.74,0,0,1,.89-1.13,2.66,2.66,0,0,1,.64-.35l.54-.2a22.23,22.23,0,0,1,6.8-1.31,19.36,19.36,0,0,1,4.6.61c.75.19,1.49.42,2.21.68l.54.2a2.35,2.35,0,0,1,.64.35,2.64,2.64,0,0,1,.9,1.13,2.81,2.81,0,0,1,.21,1.35v2.12c0,.08.31.54.45.9a5.47,5.47,0,0,1,.45,2.37c0,.77-.07,1.51-.09,2.26a.34.34,0,0,1-.4.28.34.34,0,0,1-.29-.28h0c-.08-1.5.06-3-.57-4.2a4.41,4.41,0,0,0-.25-.43,1.88,1.88,0,0,1-.32-.65,2.67,2.67,0,0,1,0-.4v-2a1.67,1.67,0,0,0-.16-.83,1.28,1.28,0,0,0-.51-.57,1.23,1.23,0,0,0-.35-.16l-.52-.17a19.07,19.07,0,0,0-2.1-.55,23.71,23.71,0,0,0-4.27-.51,22.82,22.82,0,0,0-4.28.49,19.11,19.11,0,0,0-2.1.56l-.52.17a1,1,0,0,0-.35.17,1.44,1.44,0,0,0-.51.58,1.73,1.73,0,0,0-.16.84v2a1.9,1.9,0,0,1-.05.4,1.61,1.61,0,0,1-.16.39l-.12.17-.08.1a1.8,1.8,0,0,0-.25.4,5,5,0,0,0-.45,2c0,.73-.06,1.48-.09,2.23a.35.35,0,0,1-.35.33h0a.38.38,0,0,1-.48-.22A.68.68,0,0,1,23.71,23.79Z" fill="#333"/>
        <path d="M23.71,23.79A5.2,5.2,0,0,0,23.4,22a2.45,2.45,0,0,0-.37-.74,1.2,1.2,0,0,0-.54-.41.47.47,0,0,1-.33-.36,25.38,25.38,0,0,1-.62-5.55,10.68,10.68,0,0,1,1.89-5.41A10,10,0,0,1,28,6.05a15.09,15.09,0,0,1,5.64-1,15.48,15.48,0,0,1,5.63,1,10.41,10.41,0,0,1,4.64,3.46,10.11,10.11,0,0,1,1.92,5.43,26.67,26.67,0,0,1-.62,5.55.49.49,0,0,1-.35.38h0a1.4,1.4,0,0,0-.62.39,2.3,2.3,0,0,0-.47.72,5,5,0,0,0-.36,1.83.35.35,0,0,1-.35.34.34.34,0,0,1-.34-.34A5.52,5.52,0,0,1,43,21.67a2.79,2.79,0,0,1,.58-1,2.16,2.16,0,0,1,1.06-.7l-.35.38a26.17,26.17,0,0,0,.38-5.3,8.74,8.74,0,0,0-6-7.59,15.18,15.18,0,0,0-5.12-.87,14.89,14.89,0,0,0-5.13.76,8.7,8.7,0,0,0-4.09,2.93,9.54,9.54,0,0,0-1.8,4.77A30.56,30.56,0,0,0,23,20.36l-.38-.31a2,2,0,0,1,1,.75,3.11,3.11,0,0,1,.49,1,6.2,6.2,0,0,1,.25,2.06.36.36,0,0,1-.35.34.37.37,0,0,1-.33-.35Z" fill="#333"/>
        <path d="M41.94,21.45a19,19,0,0,0-7.87.51,30.34,30.34,0,0,0,1.21,3.3,10.89,10.89,0,0,0,6.36-.52A9.15,9.15,0,0,0,41.94,21.45Z" fill="#bf9882"/>
        <path d="M35.28,25.26a9.38,9.38,0,0,0,1.08.22,21.71,21.71,0,0,1-1.2-2.91A23.55,23.55,0,0,1,42,22.45v-1A19.19,19.19,0,0,0,34.1,22,30.16,30.16,0,0,0,35.28,25.26Z" fill="#a68064"/>
        <path d="M24.63,21.46A8.89,8.89,0,0,0,25,24.74a10.84,10.84,0,0,0,6.37.52A28.39,28.39,0,0,0,32.53,22,19,19,0,0,0,24.63,21.46Z" fill="#bf9882"/>
        <path d="M32,22.77l.28-.86a19.1,19.1,0,0,0-7.71-.45,8.89,8.89,0,0,0,.32,3.28,5.66,5.66,0,0,0,1,.36,9.6,9.6,0,0,1-.54-2.9A18.2,18.2,0,0,1,32,22.77Z" fill="#a68064"/>
        <circle cx="28.94" cy="23.59" r="0.65" fill="#6c7881"/>
        <circle cx="37.9" cy="23.59" r="0.65" fill="#6c7881"/>
        <path d="M24.63,21.46A8.89,8.89,0,0,0,25,24.74a10.84,10.84,0,0,0,6.37.52A28.39,28.39,0,0,0,32.53,22a19.66,19.66,0,0,0-8.73-.38v.68l.8.2" fill="none" stroke="#333" stroke-linejoin="round" stroke-width="1.02"/>
        <path d="M32.52,22a.9.9,0,0,1,.77-.3c.61,0,.77.29.77.29" fill="none" stroke="#333" stroke-linejoin="round" stroke-width="1.02"/>
        <path d="M42,21.46a8.89,8.89,0,0,1-.32,3.28,10.84,10.84,0,0,1-6.37.52A28.64,28.64,0,0,1,34,22a19.65,19.65,0,0,1,8.73-.38v.68l-.8.2" fill="none" stroke="#333" stroke-linejoin="round" stroke-width="1.02"/>
      </g>
      <g id="e61948d4-67d7-4268-85a5-49866c9d7490">
        <path d="M39.29,27.13a5.45,5.45,0,0,1,2.33,7.35,5.79,5.79,0,0,1-.69,1c-.85,1-6.73,9.73-14.95,0a5.46,5.46,0,0,1,.64-7.69,5.21,5.21,0,0,1,1-.67l4.53-2.35a2.82,2.82,0,0,1,2.62,0Z" fill="#fff"/>
        <path d="M25.53,29.09a23,23,0,0,1-3.75-9.3" fill="#fff" stroke="#333" stroke-linecap="round" stroke-linejoin="round" stroke-width="1.5"/>
        <path d="M41.65,29.09a23,23,0,0,0,3.75-9.3" fill="#fff" stroke="#333" stroke-linecap="round" stroke-linejoin="round" stroke-width="1.5"/>
        <line x1="24.69" y1="31.85" x2="23.05" y2="30.95" fill="none" stroke="#333" stroke-linecap="round" stroke-linejoin="round" stroke-width="1.5"/>
        <line x1="42.49" y1="31.85" x2="44.13" y2="30.95" fill="none" stroke="#333" stroke-linecap="round" stroke-linejoin="round" stroke-width="1.5"/>
        <path d="M39.29,27.13l-4.51-2.34a2.82,2.82,0,0,0-2.62,0l-4.53,2.35a5.38,5.38,0,0,0-2.77,3.52A5.42,5.42,0,0,0,26,32.83c8.22,9.75,14.1,1,15,0a5.5,5.5,0,0,0,1.14-2.18A5.41,5.41,0,0,0,39.29,27.13Z" fill="#fff"/>
        <path d="M39.29,27.13l-4.51-2.34a2.86,2.86,0,0,0-1.18-.3h0v8c0,2.06,2.2,1.61.86,4.11-2,3.84-7.08-2.89-7.08.41,0,.11,3,2.09,2.95,2.2,5.9,3.07,9.93-2.86,10.62-3.68a5.44,5.44,0,0,0-.6-7.68A5.13,5.13,0,0,0,39.29,27.13Z" fill="#eee"/>
        <path d="M24.89,30.56a19,19,0,0,0,8.71,2.27A17.24,17.24,0,0,0,42,30.56" fill="none" stroke="#ddd" stroke-miterlimit="10"/>
        <path d="M24.89,32.79a19,19,0,0,0,8.71,2.27A17.24,17.24,0,0,0,42,32.79" fill="none" stroke="#ddd" stroke-miterlimit="10"/>
        <path d="M39.29,27.13a5.45,5.45,0,0,1,2.33,7.35,5.79,5.79,0,0,1-.69,1c-.85,1-6.73,9.73-14.95,0a5.46,5.46,0,0,1,.64-7.69,5.21,5.21,0,0,1,1-.67l4.53-2.35a2.82,2.82,0,0,1,2.62,0Z" fill="none" stroke="#333" stroke-linejoin="round" stroke-width="1.5"/>
      </g>
    </g>
  </g>
</svg>
