<svg xmlns="http://www.w3.org/2000/svg" viewBox="0 0 64 64">
  <g id="virologist-white-female-coronavirus">
    <g>
      <g id="a23650c7-47a2-41ee-93d9-497fbfe4b403">
        <g id="b1dbf3ee-e20d-4116-8830-87196fb43b07">
          <g id="b51bbae1-096d-4410-8416-877fbe6ef513">
            <g id="f2c46fa0-ffb9-40cb-80a2-57c09dedec90">
              <path d="M44.77,41.34c0,5.57-4.92,5.92-11,5.92s-11-.35-11-5.92,4.92-10.08,11-10.08S44.77,35.77,44.77,41.34Z" fill="#333" stroke="#333" stroke-linejoin="round" stroke-width="1.81"/>
              <path d="M57.22,49.25A5.5,5.5,0,0,0,53,44.85c-3.8-.73-7.62-1.57-13.12-2.6V38H27.57v4.27c-5.4,1-9.47,1.78-13.06,2.61a5.63,5.63,0,0,0-4.23,4.4L10,51.14c1.22.74,12,5.17,23.83,5a59,59,0,0,0,23.63-5Z" fill="#e5c2ba"/>
              <path d="M27.57,38v1.24l5,5.18a4.11,4.11,0,0,1,1.15,2.85,2.63,2.63,0,0,0,2.63,2.63h.52a3,3,0,0,0,3-3V38Z" fill="#d8b3ad"/>
              <polyline points="27.57 44.12 27.57 37.98 39.91 37.98 39.91 44.12" fill="none" stroke="#333" stroke-linejoin="round" stroke-width="1.5"/>
              <path d="M27.57,42.24c-5.4,1-9.47,1.78-13.06,2.61a5.63,5.63,0,0,0-4.23,4.4L10,51.13c1.22.74,12,5.17,23.83,5a59,59,0,0,0,23.63-5l-.25-1.9A5.5,5.5,0,0,0,53,44.83c-3.8-.73-7.62-1.57-13.12-2.6" fill="none" stroke="#333" stroke-linejoin="round" stroke-width="1.5"/>
              <path d="M57.22,49.25A5.5,5.5,0,0,0,53,44.85c-3.8-.73-7.62-1.57-13.12-2.6h-.1a13.16,13.16,0,0,1-6,9,13.1,13.1,0,0,1-6-9h-.3c-5.4,1-9.47,1.78-13.06,2.61a5.61,5.61,0,0,0-4.19,4.4L10,51.14c1.22.74,12,5.17,23.83,5a59,59,0,0,0,23.63-5Z" fill="#dae4e8"/>
              <path d="M25.16,42.69c-4.23.79-7.62,1.47-10.65,2.16a5.63,5.63,0,0,0-4.23,4.4L10,51.13a56.8,56.8,0,0,0,16.85,4.62A45,45,0,0,1,25.16,42.69Z" fill="#eee"/>
              <path d="M40.84,55.66a54.9,54.9,0,0,0,16.62-4.51l-.25-1.9A5.5,5.5,0,0,0,53,44.85c-3.17-.61-6.36-1.29-10.51-2.1A45,45,0,0,1,40.84,55.66Z" fill="#eee"/>
              <path d="M53,47.69C42.43,45.57,39,45,39,45a13,13,0,0,1-5.13,6.11A13,13,0,0,1,28.71,45s-10,1.64-14.2,2.61a5.54,5.54,0,0,0-4,3.7,59.92,59.92,0,0,0,23.32,4.76A60.94,60.94,0,0,0,57,51.34,5.41,5.41,0,0,0,53,47.69Z" fill="#d4f4f0"/>
              <path d="M42.76,44.36l-3-2.12c-.73,5.39-5.82,8.84-6,8.95V52a9.83,9.83,0,0,0,4.16-1.67l4.76,2.87V44.36Z" fill="#a8ccc6"/>
              <path d="M27.83,42l-2.91,2.32v8.88l6.64-3.9C30,47.22,28.28,45.21,27.83,42Z" fill="#a8ccc6"/>
              <path d="M40.85,55.66A58.54,58.54,0,0,0,57,51.38a5.4,5.4,0,0,0-4-3.69c-3.19-.61-6.41-1.3-10.6-2.12A40.52,40.52,0,0,1,40.85,55.66Z" fill="#ddd"/>
              <path d="M25.28,45.51c-4.28.8-7.69,1.48-10.74,2.18a5.54,5.54,0,0,0-4,3.7,60.19,60.19,0,0,0,16.35,4.36A39.43,39.43,0,0,1,25.28,45.51Z" fill="#ddd"/>
              <path d="M27.57,42.24c-5.4,1-9.47,1.78-13.06,2.61a5.63,5.63,0,0,0-4.23,4.4L10,51.13c1.22.74,12,5.17,23.83,5a59,59,0,0,0,23.63-5l-.25-1.9A5.5,5.5,0,0,0,53,44.83c-3.8-.73-7.62-1.57-13.12-2.6" fill="none" stroke="#333" stroke-linejoin="round" stroke-width="1.5"/>
              <line x1="33.84" y1="51.19" x2="33.84" y2="56.15" fill="none" stroke="#333" stroke-linejoin="round" stroke-width="1.5"/>
              <path d="M19.64,54.16l.36.34a59,59,0,0,0,6.86,1.24c-1.12-3.51-1.64-7.63-1.71-13.47l-6.68,5.67,3.86,2.72Z" fill="#ddd" stroke="#333" stroke-linejoin="round" stroke-width="1.53"/>
              <path d="M47.78,54.41l.27-.25-2.7-3.5,3.86-2.72-6.68-5.67c-.07,5.79-.58,9.89-1.68,13.39A62.9,62.9,0,0,0,47.78,54.41Z" fill="#ddd" stroke="#333" stroke-linejoin="round" stroke-width="1.53"/>
              <path d="M40.14,40.22l2.62,2.09v8.88L37.51,48C39.07,45.94,39.71,43.39,40.14,40.22Z" fill="#d4f4f0"/>
              <path d="M27.54,40.22l-2.62,2.09v8.88L30.17,48C28.61,45.94,28,43.39,27.54,40.22Z" fill="#d4f4f0"/>
              <path d="M30.16,48l-5.25,3.13V42.31l2.62-2.09h0c.62,5.2,2.4,8.31,6.3,11,3.9-2.66,5.68-5.77,6.3-11h0l2.62,2.09v8.88L37.5,48" fill="none" stroke="#333" stroke-linejoin="round" stroke-width="1.5"/>
              <path d="M44.28,24V22c0-5.41-2.46-10-10.5-10s-10.5,4.59-10.5,10v2c-1.73,0-2.28,1.71-2,4,.24,1.95,1,4,3,4,0,3,1.74,6.37,5.18,8.76,2.18,1.51,3.11,1.74,4.32,1.74s2.26-.07,4.32-1.74C41,38.35,43.28,35,43.28,32c2,0,2.76-2,3-4C46.52,25.69,46,24,44.28,24Z" fill="#edccc3"/>
              <path d="M44.28,24V22c0-5.41-2.46-10-10.5-10a18.22,18.22,0,0,0-2.66.2v10.6a3.89,3.89,0,0,1-1.27,2.88.46.46,0,0,0,0,.64.41.41,0,0,0,.23.13,2.58,2.58,0,0,1,1.88,1.88.49.49,0,0,0,.58.38h0a.66.66,0,0,0,.19-.09,1.83,1.83,0,0,1,.58-.32.49.49,0,0,1,.59.36.5.5,0,0,1,0,.12v1.61a1.09,1.09,0,0,0,.62.94c.57.31.18,1.4-.64,1.4a1.64,1.64,0,0,1-.89-.22c-.74-.37-1.43.39-1.27.68s.34,0,1.08.35a2.62,2.62,0,0,0,1.1.27v4.13a.39.39,0,0,0,.31.38c1.31.31,2,2.49-.31,3h0a1.25,1.25,0,0,0-1,1.16,4.69,4.69,0,0,0,.92.07c1.21,0,2.26-.07,4.32-1.74C41,38.37,43.28,35,43.28,32c2,0,2.76-2.05,3-4C46.52,25.69,46,24,44.28,24Z" fill="#e5c2ba"/>
              <path d="M43.28,26.21H24.7v4.21a3,3,0,0,0,3,3h2.6a2.89,2.89,0,0,0,1.52-.36A4.26,4.26,0,0,1,34,32.3a4.26,4.26,0,0,1,2.15.76,2.87,2.87,0,0,0,1.52.36h2.64a3,3,0,0,0,3-3Z" fill="#d8b3ad"/>
              <path d="M45.43,24.39A1.92,1.92,0,0,0,44.28,24V22c0-5.41-2.46-10-10.5-10s-10.5,4.59-10.5,10v2a2.08,2.08,0,0,0-.66.11,21,21,0,0,1,1.66,4.39c0,.12.4.23.53.23a.25.25,0,0,0,.25-.23c.22-4.89.22-7.28,2.22-9.75,4.1,6.26,14.46,5.06,14.46,10a.58.58,0,0,0,.63.54.59.59,0,0,0,.54-.49,3.7,3.7,0,0,1,.82-2A18.17,18.17,0,0,1,45.43,24.39Z" fill="#e5c2ba"/>
              <path d="M45.43,24.39h0a1.88,1.88,0,0,0-.23-.16,1.73,1.73,0,0,0-.31-.14h-.15a2.74,2.74,0,0,0-.5-.07V22c0-5.41-2.46-10-10.5-10a12.92,12.92,0,0,0-1.39.05c-.39,0-.86.08-1.27.14h0v10c4.67,2.62,10.64,2.83,10.64,6.56a.58.58,0,0,0,.63.54.59.59,0,0,0,.54-.49,3.7,3.7,0,0,1,.82-2A19.42,19.42,0,0,1,45.43,24.39Z" fill="#d8b5af"/>
              <path d="M25.66,26a3.87,3.87,0,0,1,1.43-.53,5.53,5.53,0,0,1,1.52,0c.5.07,1,.19,1.45.3A8.87,8.87,0,0,0,31.4,26h0a.54.54,0,0,1,.48.58.53.53,0,0,1-.58.48h0a10.67,10.67,0,0,1-1.44-.5,12.17,12.17,0,0,0-1.32-.47,3.12,3.12,0,0,0-2.62.18.2.2,0,0,1-.27,0,.2.2,0,0,1,0-.24s0,0,.06,0Z" fill="#333"/>
              <path d="M41.61,26.28a2.2,2.2,0,0,0-1.27-.37,4.32,4.32,0,0,0-1.34.21c-.44.13-.88.3-1.33.48a9.52,9.52,0,0,1-1.45.49.53.53,0,0,1-.52-.54.56.56,0,0,1,.29-.46h.08a8.68,8.68,0,0,0,1.33-.26c.47-.12,1-.23,1.45-.31a5.53,5.53,0,0,1,1.52,0,4.31,4.31,0,0,1,1.44.53.2.2,0,0,1,.07.26.18.18,0,0,1-.26.07h0S41.62,26.28,41.61,26.28Z" fill="#333"/>
              <line x1="33.81" y1="34.2" x2="33.81" y2="34.94" fill="none" stroke="#ddb7b1" stroke-linecap="round" stroke-miterlimit="10" stroke-width="0.75"/>
              <line x1="30.86" y1="36.3" x2="30.36" y2="37.3" fill="none" stroke="#ddb7b1" stroke-linecap="round" stroke-miterlimit="10" stroke-width="0.75"/>
              <line x1="36.86" y1="36.3" x2="37.36" y2="37.3" fill="none" stroke="#ddb7b1" stroke-linecap="round" stroke-miterlimit="10" stroke-width="0.75"/>
              <path d="M44.28,24V22c0-5.41-2.46-10-10.5-10s-10.5,4.59-10.5,10v2c-1.73,0-2.28,1.71-2,4,.24,1.95,1,4,3,4,0,3,1.74,6.37,5.18,8.76,2.18,1.51,3.11,1.74,4.32,1.74s2.26-.07,4.32-1.74C41,38.35,43.28,35,43.28,32c2,0,2.76-2,3-4C46.52,25.69,46,24,44.28,24Z" fill="none" stroke="#343433" stroke-linecap="round" stroke-linejoin="round" stroke-width="1.5"/>
              <path d="M34.64,35.59a1.65,1.65,0,0,1-.78.2c-.2,0-.22,0-.68-.2-.8-.32-.85.66-2.33,1.2l.92.94a2.11,2.11,0,0,0,1.55.56h1a2.5,2.5,0,0,0,1.67-.6l.86-.9C35.44,36.28,35.44,35.28,34.64,35.59Z" fill="#a56659"/>
              <path d="M36.85,36.79c-1,0-1.49-.49-3,0h0c-1.48-.5-2,0-3,0" fill="none" stroke="#743f40" stroke-linecap="round" stroke-miterlimit="10" stroke-width="0.5"/>
              <circle cx="23.53" cy="32.52" r="0.75" fill="#dee6ea"/>
              <circle cx="23.3" cy="32.29" r="0.27" fill="#ecf3f4"/>
              <circle cx="44.16" cy="32.52" r="0.75" fill="#dee6ea"/>
              <circle cx="44" cy="32.29" r="0.27" fill="#ecf3f4"/>
              <polygon points="58.79 13.54 58.79 9.42 55.22 7.36 51.65 9.42 51.65 13.54 55.22 15.6 58.79 13.54" fill="none" stroke="#000" stroke-miterlimit="10"/>
              <line x1="55.22" y1="7.36" x2="55.22" y2="5.04" fill="none" stroke="#000" stroke-miterlimit="10"/>
              <line x1="51.65" y1="9.42" x2="49.64" y2="8.26" fill="none" stroke="#000" stroke-miterlimit="10"/>
              <line x1="58.79" y1="13.54" x2="60.8" y2="14.7" fill="none" stroke="#000" stroke-miterlimit="10"/>
              <line x1="58.79" y1="9.42" x2="60.8" y2="8.26" fill="none" stroke="#000" stroke-miterlimit="10"/>
              <line x1="51.65" y1="13.54" x2="49.64" y2="14.7" fill="none" stroke="#000" stroke-miterlimit="10"/>
              <line x1="55.22" y1="15.6" x2="55.22" y2="17.92" fill="none" stroke="#000" stroke-miterlimit="10"/>
              <polyline points="15.22 15.12 13.4 18.28 15.22 21.44" fill="none" stroke="#000" stroke-miterlimit="10"/>
              <polygon points="13.4 11.96 9.75 11.96 7.93 15.12 9.75 18.28 13.4 18.28 15.22 15.12 13.4 11.96" fill="none" stroke="#000" stroke-miterlimit="10"/>
              <polyline points="7.93 21.44 9.75 18.28 7.93 15.12" fill="none" stroke="#000" stroke-miterlimit="10"/>
              <line x1="7.93" y1="8.8" x2="4.28" y2="8.8" fill="none" stroke="#000" stroke-miterlimit="10"/>
              <polyline points="9.75 5.64 7.93 8.8 9.75 11.96 13.4 11.96 15.22 8.8" fill="none" stroke="#000" stroke-miterlimit="10"/>
              <path d="M45.77,18.76c0-4.69-3.58-10-11-10a10,10,0,0,0-8,3.5c-4,.83-5,4.17-5,6.5,0,4.48,2.5,8.31,2.5,10.5v-5.5a10.4,10.4,0,0,1,3-7c3,7.3,15.5,6.28,15.5,11.5v1.5C42.77,26,45.77,22.92,45.77,18.76Z" fill="#333"/>
              <path d="M24.28,29.26v-5.5a10.4,10.4,0,0,1,3-7c3,7.3,15.5,6.28,15.5,11.5v1.5" fill="none" stroke="#333" stroke-linecap="round" stroke-miterlimit="10" stroke-width="0.75"/>
              <path d="M42.43,29.76a12.4,12.4,0,0,1,1-4.65,29.58,29.58,0,0,0,1.5-4.3A9.19,9.19,0,0,0,39.28,10.3,12.71,12.71,0,0,0,35,9.51a9.56,9.56,0,0,0-7.68,3.2l-.17.2-.24.05a5.29,5.29,0,0,0-3.57,2.32,7.3,7.3,0,0,0-1,4.38,19.31,19.31,0,0,0,1,4.7l.76,2.35a8.86,8.86,0,0,1,.49,2.54.34.34,0,0,1-.34.34h0a.32.32,0,0,1-.34-.31h0a22.46,22.46,0,0,0-1.48-4.58,20.1,20.1,0,0,1-1.21-5,8.36,8.36,0,0,1,1-5.16,6.7,6.7,0,0,1,4.42-3l-.41.25a9.69,9.69,0,0,1,4-2.95A12.25,12.25,0,0,1,35,8a11.6,11.6,0,0,1,8.78,3.83A10.32,10.32,0,0,1,46.05,21c-.77,3.19-2.77,5.72-2.93,8.72h0a.34.34,0,0,1-.35.33h0A.34.34,0,0,1,42.43,29.76Z" fill="#333"/>
              <path d="M43.08,25.64H24.46v4.21a3,3,0,0,0,3,3h2.6a2.89,2.89,0,0,0,1.52-.36,4.26,4.26,0,0,1,2.15-.76,4.26,4.26,0,0,1,2.15.76,2.87,2.87,0,0,0,1.52.36H40a3,3,0,0,0,3-3Z" fill="#98a4bf"/>
              <path d="M29.81,25.67a.46.46,0,0,0,0,.64.41.41,0,0,0,.23.13,2.58,2.58,0,0,1,1.88,1.88.49.49,0,0,0,.58.38h0a.66.66,0,0,0,.19-.09,1.83,1.83,0,0,1,.58-.32.49.49,0,0,1,.59.36.5.5,0,0,1,0,.12v1.61a1.09,1.09,0,0,0,.62.94.55.55,0,0,1,.25.62,8.9,8.9,0,0,1,1.2.59,2.87,2.87,0,0,0,1.52.36H40a3,3,0,0,0,3-3V25.64H29.83Z" fill="#8f9db5"/>
              <rect x="24.46" y="25.06" width="18.61" height="1.15" fill="#6592e0" stroke="#6592e0" stroke-linejoin="round"/>
              <path d="M36.47,29c.58-.33,2.07-2.25,4-.33a2.35,2.35,0,0,0,.67-.46,4.11,4.11,0,0,0-3-.28" fill="#77859e" stroke="#77859e" stroke-linecap="round" stroke-miterlimit="10" stroke-width="0.5"/>
              <circle cx="38.21" cy="28.6" r="0.75" fill="#77859e"/>
              <circle cx="29.2" cy="28.6" r="0.75" fill="#77859e"/>
              <path d="M31,29c-.58-.33-2.07-2.25-4-.33a2.35,2.35,0,0,1-.67-.46,4.11,4.11,0,0,1,3-.28" fill="#77859e" stroke="#77859e" stroke-linecap="round" stroke-miterlimit="10" stroke-width="0.5"/>
              <path d="M31.86,33.35c1,0,1,.5,2,.5s1-.5,2-.5" fill="none" stroke="#ba8d86" stroke-linecap="round" stroke-miterlimit="10" stroke-width="0.75"/>
            </g>
          </g>
        </g>
      </g>
      <g id="a99cd088-a403-42bb-bb38-70c98499daea">
        <path d="M39,32.58a4.89,4.89,0,0,1,2.09,6.59,4.79,4.79,0,0,1-.62.92c-.76.9-6,8.73-13.4,0a4.85,4.85,0,0,1,1.48-7.49l4.06-2.1a2.51,2.51,0,0,1,2.35,0Z" fill="#fff"/>
        <line x1="25.88" y1="36.81" x2="24.41" y2="36" fill="none" stroke="#333" stroke-linecap="round" stroke-linejoin="round" stroke-width="1.41"/>
        <line x1="41.84" y1="36.81" x2="43.31" y2="36" fill="none" stroke="#333" stroke-linecap="round" stroke-linejoin="round" stroke-width="1.41"/>
        <path d="M39,32.58l-4-2.1a2.56,2.56,0,0,0-2.35,0l-4.06,2.1A4.84,4.84,0,0,0,26,35.74a4.92,4.92,0,0,0,1,1.95c7.37,8.74,12.64.91,13.4,0a4.79,4.79,0,0,0,1-2A4.84,4.84,0,0,0,39,32.58Z" fill="#fff"/>
        <path d="M39,32.58l-4-2.1a2.45,2.45,0,0,0-1.06-.27h0v7.16c0,1.84,2,1.44.78,3.68-1.84,3.45-6.35-2.59-6.35.37,0,.1,2.65,1.88,2.64,2,5.29,2.75,8.9-2.57,9.52-3.3a4.88,4.88,0,0,0-.55-6.89A4.79,4.79,0,0,0,39,32.58Z" fill="#eee"/>
        <path d="M26.06,35.65a16.92,16.92,0,0,0,7.81,2,15.5,15.5,0,0,0,7.57-2" fill="none" stroke="#ddd" stroke-miterlimit="10" stroke-width="0.9"/>
        <path d="M26.06,37.65a16.92,16.92,0,0,0,7.81,2,15.5,15.5,0,0,0,7.57-2" fill="none" stroke="#ddd" stroke-miterlimit="10" stroke-width="0.9"/>
        <path d="M39,32.58a4.89,4.89,0,0,1,2.09,6.59,4.79,4.79,0,0,1-.62.92c-.76.9-6,8.73-13.4,0a4.85,4.85,0,0,1,1.48-7.49l4.06-2.1a2.51,2.51,0,0,1,2.35,0Z" fill="none" stroke="#333" stroke-linejoin="round" stroke-width="1.41"/>
      </g>
    </g>
  </g>
</svg>
