<svg xmlns="http://www.w3.org/2000/svg" viewBox="0 0 64 64"><title>avatar-pirate-beard-man-caucasian</title><g style="isolation:isolate"><g id="avatar-pirate-beard-man-asian"><path d="M15.1456,39.1765a3.1249,3.1249,0,0,1-3.39.692,4.6146,4.6146,0,0,1,1.4276-3.1567,4.0433,4.0433,0,0,1,3.1633-1.1765A3.9377,3.9377,0,0,1,15.1456,39.1765Z" style="fill:#3a3a3a;stroke:#333;stroke-linejoin:round;stroke-width:0.8451324171149394px"/><path d="M17.3994,29.4392c-2.4437,3.97-.3586,4.7263-.87,5.8047C19.27,33.4525,17.418,31.1541,17.3994,29.4392Z" style="fill:#3a3a3a;stroke:#333;stroke-linejoin:round;stroke-width:0.8451324171149394px"/><path d="M21.07,31.5325c-1.3792,5.54-3.6346,2.9923-4.4957,3.7524C17.6556,31.9556,19.8279,32.8463,21.07,31.5325Z" style="fill:#3a3a3a;stroke:#333;stroke-linejoin:round;stroke-width:0.8451324171149394px"/><path d="M18.3141,26.3282c-1.8156,4.4921.3342,4.9313-.0218,6.1161C20.76,30.17,18.5918,28.1034,18.3141,26.3282Z" style="fill:#3a3a3a;stroke:#333;stroke-linejoin:round;stroke-width:0.8451324171149394px"/><path d="M22.2559,27.92c-.5465,5.9062-3.1657,3.6431-3.9137,4.5591C18.9489,28.9017,21.2213,29.4627,22.2559,27.92Z" style="fill:#3a3a3a;stroke:#333;stroke-linejoin:round;stroke-width:0.8451324171149394px"/><path d="M18.7267,23.0923c-1.1032,4.93,1.0586,5.0565.87,6.3279C21.7263,26.7094,19.2759,24.8985,18.7267,23.0923Z" style="fill:#444;stroke:#333;stroke-linejoin:round;stroke-width:0.8451324171149394px"/><path d="M22.8688,24.1729c.34,6.1723-2.6035,4.2209-3.2174,5.2754C19.7557,25.6811,22.0751,25.9146,22.8688,24.1729Z" style="fill:#444;stroke:#333;stroke-linejoin:round;stroke-width:0.8451324171149394px"/><path d="M16.6917,37.377a26.5779,26.5779,0,0,0-2.0138-2.0791,16.02,16.02,0,0,0,1.029-1.3373,26.8346,26.8346,0,0,1,2.1717,1.9234A18.36,18.36,0,0,1,16.6917,37.377Z" style="fill:#ccc;stroke:#333;stroke-linejoin:round;stroke-width:0.8451324171149394px"/><path d="M48.46,39.1765a3.1247,3.1247,0,0,0,3.39.692,4.6142,4.6142,0,0,0-1.4276-3.1567,4.0431,4.0431,0,0,0-3.1633-1.1765A3.9378,3.9378,0,0,0,48.46,39.1765Z" style="fill:#3a3a3a;stroke:#333;stroke-linejoin:round;stroke-width:0.8451324171149394px"/><path d="M46.206,29.4392c2.4438,3.97.3587,4.7263.87,5.8047C44.3356,33.4525,46.1874,31.1541,46.206,29.4392Z" style="fill:#3a3a3a;stroke:#333;stroke-linejoin:round;stroke-width:0.8451324171149394px"/><path d="M42.5355,31.5325c1.3791,5.54,3.6345,2.9923,4.4956,3.7524C45.95,31.9556,43.7775,32.8463,42.5355,31.5325Z" style="fill:#3a3a3a;stroke:#333;stroke-linejoin:round;stroke-width:0.8451324171149394px"/><path d="M45.2914,26.3282c1.8155,4.4921-.3343,4.9313.0217,6.1161C42.8451,30.17,45.0136,28.1034,45.2914,26.3282Z" style="fill:#3a3a3a;stroke:#333;stroke-linejoin:round;stroke-width:0.8451324171149394px"/><path d="M41.35,27.92c.5466,5.9062,3.1657,3.6431,3.9137,4.5591C44.6565,28.9017,42.3841,29.4627,41.35,27.92Z" style="fill:#3a3a3a;stroke:#333;stroke-linejoin:round;stroke-width:0.8451324171149394px"/><path d="M44.8788,23.0923c1.1032,4.93-1.0586,5.0565-.87,6.3279C41.8791,26.7094,44.33,24.8985,44.8788,23.0923Z" style="fill:#444;stroke:#333;stroke-linejoin:round;stroke-width:0.8451324171149394px"/><path d="M40.7367,24.1729c-.34,6.1723,2.6035,4.2209,3.2173,5.2754C43.85,25.6811,41.53,25.9146,40.7367,24.1729Z" style="fill:#444;stroke:#333;stroke-linejoin:round;stroke-width:0.8451324171149394px"/><path d="M46.9137,37.377a26.579,26.579,0,0,1,2.0139-2.0791,16.02,16.02,0,0,1-1.0291-1.3373,26.8346,26.8346,0,0,0-2.1717,1.9234A18.3821,18.3821,0,0,0,46.9137,37.377Z" style="fill:#ccc;stroke:#333;stroke-linejoin:round;stroke-width:0.8451324171149394px"/><path d="M31.87,56.5109a66.353,66.353,0,0,0,26.5436-5.6254L57.746,47.456l-.0009-.0037A4.2981,4.2981,0,0,0,54.8278,44l-.0381-.0108c-2.2933-.65-23.65-7.7481-45.7849.0468l-.0024.0011a4.4,4.4,0,0,0-2.9108,3.3664c-.0028.0141-.008.0274-.0107.0416L5.429,50.9h0l.0027.0011A66.3035,66.3035,0,0,0,31.87,56.5109Z" style="fill:#75402e"/><path d="M41.7314,32.8063a17.768,17.768,0,0,1,8.8553,14.99l-6.6774,3.0134,3.0489,3.8962" style="fill:none;stroke:#d09c69;stroke-linejoin:round;stroke-width:1.18592965602875px"/><path d="M22.2377,32.6333c-7,3.9318-9.0134,11.8212-9.0937,15.2868l6.3789,2.8689-2.988,3.8588" style="fill:none;stroke:#d09c69;stroke-linejoin:round;stroke-width:1.18592965602875px"/><path d="M9.0048,48.1915a4.4878,4.4878,0,0,0-2.822,3.019,66.3129,66.3129,0,0,0,25.6869,5.3,66.3693,66.3693,0,0,0,25.7745-5.308,4.4929,4.4929,0,0,0-2.8165-3.0474L52.3212,47.44a74.2161,74.2161,0,0,0-42.6006.5184C9.39,48.0626,9.1464,48.1417,9.0048,48.1915Z" style="fill:#47210d"/><path d="M46.9582,54.7054l-3.0489-3.8962,6.6774-3.0134C50.3308,40.3158,45.0946,30.4866,32,30.4866c-17.2322,0-18.8191,15.8391-18.856,17.4335l6.3789,2.8689-2.988,3.8588A76.2651,76.2651,0,0,0,31.87,56.5109,74.5384,74.5384,0,0,0,46.9582,54.7054Z" style="fill:#444"/><path d="M50.5867,47.7958a18.6565,18.6565,0,0,0-4.3562-11.3127,18.7016,18.7016,0,0,0-12.0067-3.85c-15.2178,0-18.2326,12.3462-18.7553,16.3323l4.0544,1.8234-2.988,3.8588A76.56,76.56,0,0,0,31.87,56.5109a74.5345,74.5345,0,0,0,15.0885-1.8056l-3.0489-3.8961Z" style="fill:#333"/><path d="M39.1208,36.9894a46.112,46.112,0,0,1-7.2075,7.3493,46.1164,46.1164,0,0,1-7.2076-7.3493l-2.3444,3.6161A34.6237,34.6237,0,0,0,26.122,56.2494c2.03.1781,4.0512.2615,5.7913.2615s3.7615-.0834,5.7912-.2615a34.6237,34.6237,0,0,0,3.7607-15.6439Z" style="fill:#d1d8db"/><path d="M12.5534,42.9756s-1.3637.3593-3.5486,1.06a4.4043,4.4043,0,0,0-2.9239,3.409L5.429,50.9A65.5088,65.5088,0,0,0,31.87,56.5109a65.249,65.249,0,0,0,26.5436-5.6254l-.6673-3.4294A4.2986,4.2986,0,0,0,54.8277,44c-1.5848-.4522-3.3964-.9631-3.3964-.9631" style="fill:none;stroke:#333;stroke-linejoin:round;stroke-width:1.58519848007983px"/><path d="M46.3631,53.9449l-2.4538-3.1357,6.6774-3.0134C50.3308,40.3158,45.0946,30.4866,32,30.4866c-17.2322,0-18.8191,15.8391-18.856,17.4335l6.3789,2.8689-2.4437,3.1559" style="fill:none;stroke:#d09c69;stroke-linecap:round;stroke-linejoin:round;stroke-width:1.5px"/><path d="M39.1366,36.9894l2.252,3.4893C38.8954,47.0357,31.7513,55.0807,28.12,59.22a1.3366,1.3366,0,0,1-2.3394-.8873V51.1586a2.339,2.339,0,0,1,.6371-1.6071C31.0567,44.6762,35.4726,41.7722,39.1366,36.9894Z" style="fill:#fff;stroke:#333;stroke-linejoin:round;stroke-width:1.77889448404312px"/><path d="M24.7056,36.9894l-2.2519,3.4893c2.7827,6.3314,9.64,14.6,13.2685,18.7415a1.3366,1.3366,0,0,0,2.3394-.8873V51.1586a2.34,2.34,0,0,0-.6371-1.6071C32.7856,44.6762,28.37,41.7722,24.7056,36.9894Z" style="fill:#fff;stroke:#333;stroke-linejoin:round;stroke-width:1.77889448404312px"/><ellipse cx="31.9211" cy="48.527" rx="4.075" ry="4.871" style="fill:#aa7749;stroke:#d09c69;stroke-miterlimit:10;stroke-width:1.5px"/><path d="M34.022,48.1a2.1005,2.1005,0,0,0-4.201,0c0,1.5229-.1155,1.2393.7877,1.8379v.7877h.5251v-.5251h.5252v.5251h.525v-.5251h.5252v.5146h.5251v-.7877C34.1691,49.3081,34.0115,49.5812,34.022,48.1Zm-3.1507,1.04a.5252.5252,0,1,1,.5251-.5252A.5251.5251,0,0,1,30.8713,49.14Zm.7772.5356c0-.2836.126-.5251.2625-.5251.1575,0,.273.231.2625.5251Zm1.3233-.5356a.5252.5252,0,1,1,.525-.5252A.5251.5251,0,0,1,32.9718,49.14Z" style="fill:#d09c69"/><path d="M40.5138,49.105l-.0005.0021C40.5115,49.1156,40.5123,49.112,40.5138,49.105Z" style="fill:#535c63;opacity:0.30000000000000004;mix-blend-mode:multiply"/><path d="M12.2335,46.3482a.4367.4367,0,0,0-.2892-.1113l.3164-.3449a.4447.4447,0,1,0-.6555-.601l-.4759.5188a.442.442,0,0,0,.3135.7426l-.3135.3418a.4443.4443,0,0,0,.0272.6283.44.44,0,0,0,.2863.1143l-.3135.3418a.4421.4421,0,0,0,.3135.7427l-.3135.3418a.442.442,0,0,0,.3135.7426l-.3135.3418a.442.442,0,0,0,.3135.7426l-.3135.3418a.4447.4447,0,1,0,.6554.6011l.476-.5188a.4443.4443,0,0,0-.0272-.6283.4385.4385,0,0,0-.2889-.1116l.3161-.3446a.4443.4443,0,0,0-.0272-.6283.4378.4378,0,0,0-.2889-.1115l.3161-.3446a.4443.4443,0,0,0-.0272-.6283.4378.4378,0,0,0-.2889-.1115l.3161-.3446a.4443.4443,0,0,0-.0272-.6283.4378.4378,0,0,0-.2889-.1115l.3161-.3447A.4441.4441,0,0,0,12.2335,46.3482Z" style="fill:#ddaa7c"/><path d="M10.4547,45.2637a.446.446,0,0,0-.6283.0273L9.35,45.81a.4421.4421,0,0,0,.3136.7426l-.3136.3418a.4421.4421,0,0,0,.3136.7426l-.3136.3418a.4422.4422,0,0,0,.3136.7427l-.3136.3418a.4421.4421,0,0,0,.3136.7426l-.3136.3418a.4421.4421,0,0,0,.3136.7426l-.3136.3418a.4447.4447,0,1,0,.6556.6011l.476-.5188a.4444.4444,0,0,0-.0272-.6283.4389.4389,0,0,0-.289-.1116l.3162-.3446a.4444.4444,0,0,0-.0272-.6283.438.438,0,0,0-.2889-.1115l.3161-.3446a.4444.4444,0,0,0-.0272-.6283.4383.4383,0,0,0-.289-.1115l.3162-.3446a.4444.4444,0,0,0-.0272-.6283.4383.4383,0,0,0-.289-.1115l.3162-.3447a.4442.4442,0,0,0-.0272-.6282.4371.4371,0,0,0-.2892-.1113l.3164-.3449A.4444.4444,0,0,0,10.4547,45.2637Z" style="fill:#ddaa7c"/><path d="M8.6757,45.2637a.4459.4459,0,0,0-.6282.0273l-.476.5188a.442.442,0,0,0,.3135.7426l-.3135.3418a.4443.4443,0,0,0,.0272.6283.44.44,0,0,0,.2864.1143l-.3136.3418a.4421.4421,0,0,0,.3135.7427l-.3135.3418a.442.442,0,0,0,.3135.7426l-.3135.3418a.442.442,0,0,0,.3136.7426l-.3136.3418a.4447.4447,0,1,0,.6555.6011l.4759-.5188a.4443.4443,0,0,0-.0272-.6283.4385.4385,0,0,0-.2889-.1116l.3161-.3446a.4443.4443,0,0,0-.0272-.6283.4384.4384,0,0,0-.2889-.1115l.3161-.3446a.4443.4443,0,0,0-.0272-.6283.4384.4384,0,0,0-.2889-.1115l.3161-.3446a.4443.4443,0,0,0-.0272-.6283.4378.4378,0,0,0-.2889-.1115l.3161-.3447a.4441.4441,0,0,0-.0272-.6282.4372.4372,0,0,0-.2892-.1113l.3164-.3449A.4443.4443,0,0,0,8.6757,45.2637Z" style="fill:#ddaa7c"/><path d="M6.8969,45.2637a.446.446,0,0,0-.6283.0273l-.4761.5188a.4421.4421,0,0,0,.3136.7426l-.3136.3418a.4444.4444,0,0,0,.0273.6283.44.44,0,0,0,.2863.1143l-.3136.3418a.4422.4422,0,0,0,.3136.7427l-.3136.3418a.4421.4421,0,0,0,.3136.7426l-.3136.3418a.4421.4421,0,0,0,.3136.7426l-.3136.3418a.4447.4447,0,1,0,.6556.6011l.476-.5188a.4444.4444,0,0,0-.0272-.6283.4389.4389,0,0,0-.289-.1116l.3162-.3446a.4444.4444,0,0,0-.0272-.6283A.438.438,0,0,0,6.608,49.49l.3161-.3446a.4444.4444,0,0,0-.0272-.6283.4383.4383,0,0,0-.289-.1115l.3162-.3446a.4444.4444,0,0,0-.0272-.6283.4383.4383,0,0,0-.289-.1115l.3162-.3447a.4442.4442,0,0,0-.0272-.6282.4371.4371,0,0,0-.2892-.1113l.3164-.3449A.4444.4444,0,0,0,6.8969,45.2637Z" style="fill:#ddaa7c"/><path d="M5.118,45.2637a.446.446,0,0,0-.6283.0273l-.476.5188a.442.442,0,0,0,.3135.7426l-.3135.3418a.442.442,0,0,0,.3136.7426l-.3136.3418a.4421.4421,0,0,0,.3135.7427l-.3135.3418a.442.442,0,0,0,.3135.7426l-.3135.3418a.442.442,0,0,0,.3136.7426l-.3136.3418a.4447.4447,0,1,0,.6555.6011l.476-.5188a.4444.4444,0,0,0-.0272-.6283.4389.4389,0,0,0-.289-.1116l.3162-.3446a.4444.4444,0,0,0-.0272-.6283.438.438,0,0,0-.2889-.1115l.3161-.3446a.4444.4444,0,0,0-.0272-.6283.4383.4383,0,0,0-.289-.1115l.3162-.3446a.4444.4444,0,0,0-.0272-.6283.4383.4383,0,0,0-.289-.1115l.3162-.3447a.4443.4443,0,0,0-.0272-.6282.4369.4369,0,0,0-.2892-.1113l.3164-.3449A.4444.4444,0,0,0,5.118,45.2637Z" style="fill:#ddaa7c"/><path d="M5.2154,43.35H12.853a0,0,0,0,1,0,0v2.8535a0,0,0,0,1,0,0H3.0691a0,0,0,0,1,0,0v-.7072A2.1463,2.1463,0,0,1,5.2154,43.35Z" transform="translate(-10.6129 3.2636) rotate(-14.0232)" style="fill:#d09c69;stroke:#d09c69;stroke-linejoin:round;stroke-width:1.5px"/><path d="M51.7665,46.3482a.4367.4367,0,0,1,.2892-.1113l-.3164-.3449a.4447.4447,0,1,1,.6555-.601l.4759.5188a.442.442,0,0,1-.3135.7426l.3135.3418a.4443.4443,0,0,1-.0272.6283.44.44,0,0,1-.2863.1143l.3135.3418a.4421.4421,0,0,1-.3135.7427l.3135.3418a.442.442,0,0,1-.3135.7426l.3135.3418a.442.442,0,0,1-.3135.7426l.3135.3418a.4447.4447,0,1,1-.6554.6011l-.476-.5188a.4443.4443,0,0,1,.0272-.6283.4385.4385,0,0,1,.2889-.1116l-.3161-.3446a.4443.4443,0,0,1,.0272-.6283.4378.4378,0,0,1,.2889-.1115l-.3161-.3446a.4443.4443,0,0,1,.0272-.6283.4378.4378,0,0,1,.2889-.1115l-.3161-.3446a.4443.4443,0,0,1,.0272-.6283.4378.4378,0,0,1,.2889-.1115l-.3161-.3447A.4441.4441,0,0,1,51.7665,46.3482Z" style="fill:#ddaa7c"/><path d="M53.5453,45.2637a.446.446,0,0,1,.6283.0273l.4761.5188a.4421.4421,0,0,1-.3136.7426l.3136.3418a.4421.4421,0,0,1-.3136.7426l.3136.3418a.4422.4422,0,0,1-.3136.7427l.3136.3418a.4421.4421,0,0,1-.3136.7426l.3136.3418a.4421.4421,0,0,1-.3136.7426l.3136.3418a.4447.4447,0,1,1-.6556.6011l-.476-.5188a.4444.4444,0,0,1,.0272-.6283.4389.4389,0,0,1,.289-.1116l-.3162-.3446a.4444.4444,0,0,1,.0272-.6283.438.438,0,0,1,.2889-.1115l-.3161-.3446a.4444.4444,0,0,1,.0272-.6283.4383.4383,0,0,1,.289-.1115l-.3162-.3446a.4444.4444,0,0,1,.0272-.6283.4383.4383,0,0,1,.289-.1115l-.3162-.3447a.4442.4442,0,0,1,.0272-.6282.4371.4371,0,0,1,.2892-.1113l-.3164-.3449A.4444.4444,0,0,1,53.5453,45.2637Z" style="fill:#ddaa7c"/><path d="M55.3243,45.2637a.4459.4459,0,0,1,.6282.0273l.476.5188a.442.442,0,0,1-.3135.7426l.3135.3418a.4443.4443,0,0,1-.0272.6283.44.44,0,0,1-.2864.1143l.3136.3418a.4421.4421,0,0,1-.3135.7427l.3135.3418a.442.442,0,0,1-.3135.7426l.3135.3418a.442.442,0,0,1-.3136.7426l.3136.3418a.4447.4447,0,1,1-.6555.6011l-.4759-.5188a.4443.4443,0,0,1,.0272-.6283.4385.4385,0,0,1,.2889-.1116l-.3161-.3446a.4443.4443,0,0,1,.0272-.6283.4384.4384,0,0,1,.2889-.1115l-.3161-.3446a.4443.4443,0,0,1,.0272-.6283.4384.4384,0,0,1,.2889-.1115l-.3161-.3446a.4443.4443,0,0,1,.0272-.6283.4378.4378,0,0,1,.2889-.1115l-.3161-.3447a.4441.4441,0,0,1,.0272-.6282.4372.4372,0,0,1,.2892-.1113l-.3164-.3449A.4443.4443,0,0,1,55.3243,45.2637Z" style="fill:#ddaa7c"/><path d="M57.1031,45.2637a.446.446,0,0,1,.6283.0273l.4761.5188a.4421.4421,0,0,1-.3136.7426l.3136.3418a.4444.4444,0,0,1-.0273.6283.44.44,0,0,1-.2863.1143l.3136.3418a.4422.4422,0,0,1-.3136.7427l.3136.3418a.4421.4421,0,0,1-.3136.7426l.3136.3418a.4421.4421,0,0,1-.3136.7426l.3136.3418a.4447.4447,0,1,1-.6556.6011l-.476-.5188a.4444.4444,0,0,1,.0272-.6283.4389.4389,0,0,1,.289-.1116l-.3162-.3446a.4444.4444,0,0,1,.0272-.6283.438.438,0,0,1,.2889-.1115l-.3161-.3446a.4444.4444,0,0,1,.0272-.6283.4383.4383,0,0,1,.289-.1115l-.3162-.3446a.4444.4444,0,0,1,.0272-.6283.4383.4383,0,0,1,.289-.1115l-.3162-.3447a.4442.4442,0,0,1,.0272-.6282.4371.4371,0,0,1,.2892-.1113l-.3164-.3449A.4444.4444,0,0,1,57.1031,45.2637Z" style="fill:#ddaa7c"/><path d="M58.882,45.2637a.446.446,0,0,1,.6283.0273l.476.5188a.442.442,0,0,1-.3135.7426l.3135.3418a.442.442,0,0,1-.3136.7426l.3136.3418a.4421.4421,0,0,1-.3135.7427l.3135.3418a.442.442,0,0,1-.3135.7426l.3135.3418a.442.442,0,0,1-.3136.7426l.3136.3418a.4447.4447,0,1,1-.6555.6011l-.476-.5188a.4444.4444,0,0,1,.0272-.6283.4389.4389,0,0,1,.289-.1116l-.3162-.3446a.4444.4444,0,0,1,.0272-.6283.438.438,0,0,1,.2889-.1115l-.3161-.3446a.4444.4444,0,0,1,.0272-.6283.4383.4383,0,0,1,.289-.1115l-.3162-.3446a.4444.4444,0,0,1,.0272-.6283.4383.4383,0,0,1,.289-.1115l-.3162-.3447a.4443.4443,0,0,1,.0272-.6282.4369.4369,0,0,1,.2892-.1113l-.3164-.3449A.4444.4444,0,0,1,58.882,45.2637Z" style="fill:#ddaa7c"/><path d="M51.147,43.35h9.784a0,0,0,0,1,0,0v2.8535a0,0,0,0,1,0,0H53.2933a2.1463,2.1463,0,0,1-2.1463-2.1463V43.35A0,0,0,0,1,51.147,43.35Z" transform="translate(99.5576 101.7989) rotate(-165.9768)" style="fill:#d09c69;stroke:#d09c69;stroke-linejoin:round;stroke-width:1.5px"/><path d="M42.7818,20.25V18.0545c0-5.9506-2.0861-12.0769-10.9791-12.0769s-10.979,6.1263-10.979,12.0769V20.25c-3.3225,0-3.6313,7.7821,1.0979,8.7833,0,3.8975,1.0979,4.3916,4.8088,8.2123,1.4273,1.8225,3.1729,1.6688,5.0723,1.6688s3.6451.1537,5.0723-1.6688c3.7109-3.8207,4.8089-4.3148,4.8089-8.2123A4.2711,4.2711,0,0,0,44.9776,25.74C46.0755,20.25,42.87,20.2174,42.7818,20.25Z" style="fill:#edccc3"/><path d="M27.7193,26.73l-1.1847.8975a1.5,1.5,0,0,0-.5942,1.1956V30.472" style="fill:none;stroke:#d8b5af;stroke-linecap:round;stroke-miterlimit:10;stroke-width:0.75px"/><path d="M42.7818,20.25V18.0545c0-5.9506-2.0861-12.0769-10.9791-12.0769a17.5656,17.5656,0,0,0-3.2937.2854V16.9566a2.36,2.36,0,0,1-1.27,1.9372.2373.2373,0,0,0,.0433.447A5.9268,5.9268,0,0,1,30.37,20.8824a.4989.4989,0,0,0,.5843.1521l.1061-.0444a.5354.5354,0,0,1,.7419.4939v2.8012c0,1.4852,1.1006,1.2656,1.0979,2.297A1.0978,1.0978,0,0,1,31.8027,27.68c-.8124,0-1.0683-.4416-2.1662-.4416-.6478,0-.5785.7381-.6005.7161a2.3928,2.3928,0,0,1,1.0979.2855,3.3822,3.3822,0,0,0,1.6469.4281v3.5436a1.9032,1.9032,0,0,0,1.2518,1.758,1.5493,1.5493,0,0,1,.944,1.6292c0,3.0193-5.4347-.2964-5.4347,2.9863a9.4622,9.4622,0,0,0,3.2389.3074c1.8993,0,3.645.1537,5.0723-1.6688,3.7328-3.7987,4.8308-4.2928,4.8308-8.19C46.9448,27.92,45.75,20.2351,42.7818,20.25Z" style="fill:#e5c2ba"/><path d="M35.8422,26.73l1.1847.8975a1.5,1.5,0,0,1,.5942,1.1956V30.472" style="fill:none;stroke:#edccc3;stroke-linecap:round;stroke-miterlimit:10;stroke-width:0.75px"/><path d="M40.1688,27.9356a3.6562,3.6562,0,0,0,1.5151-3.2937V22.4461c0-.906.3442-2.1958,1.0979-2.1958,3.3224,0,3.6313,7.7821-1.0979,8.7832,0,3.3027-.7952,4.1681-3.2937,6.678V32.3273A5.2477,5.2477,0,0,1,40.1688,27.9356Z" style="fill:#d8b5af"/><path d="M42.7818,20.25V18.0545c0-5.9506-2.0861-12.0769-10.9791-12.0769s-10.979,6.1263-10.979,12.0769V20.25c-3.3225,0-3.6313,7.7821,1.0979,8.7833,0,3.8975,1.0979,4.3916,4.8088,8.2123,1.4273,1.8225,3.1729,1.6688,5.0723,1.6688s3.6451.1537,5.0723-1.6688c3.7109-3.8207,4.8089-4.3148,4.8089-8.2123A4.2711,4.2711,0,0,0,44.9776,25.74C46.0755,20.25,42.87,20.2174,42.7818,20.25Z" style="fill:none;stroke:#333;stroke-linejoin:round;stroke-width:1.5px"/><path d="M32.6672,30.6285a2.6114,2.6114,0,0,0-.9093.4647,2.2949,2.2949,0,0,0-1.0816-.2763,9.4835,9.4835,0,0,0-2.5715,1.3087c1.47.73,2.11,1.4623,2.832,1.4394,0,0,1.1009-.08,1.87-.17,1.0849-.1265,1.5945-.845,2.6691-2.4579C34.5473,31.1792,33.4155,30.517,32.6672,30.6285Z" style="fill:#d8b4ad"/><path d="M35.3432,31.0848a3.3149,3.3149,0,0,1-1.2185.7062c-.0117.003-6.0228.3252-6.0277.3228" style="fill:none;stroke:#ba8d86;stroke-linecap:round;stroke-miterlimit:10;stroke-width:0.75px"/><path d="M17.3144,20.832c-6.2315-.3981-4.7018,4.4483-7.1257,6.4834C12.8578,28.0781,18.5749,26.1887,17.3144,20.832Z" style="fill:#b72525"/><path d="M10.7519,26.7083c2.6957-.029,6.4094-1.8537,5.9145-5.8991C11.6968,20.7846,12.3354,24.5458,10.7519,26.7083Z" style="fill:#961717"/><path d="M17.71,21.5051a5.3612,5.3612,0,0,0-1.1521.73,4.6251,4.6251,0,0,0-.8922,1.08,8.5091,8.5091,0,0,1-.95,1.3464,4.0882,4.0882,0,0,1-1.4011.9441.2517.2517,0,0,1-.2335-.4439l.0048-.003A3.4418,3.4418,0,0,0,14.12,24.18a7.9125,7.9125,0,0,0,.6316-1.3424,5.8212,5.8212,0,0,1,.8638-1.492,6.7448,6.7448,0,0,1,1.3037-1.1862.784.784,0,1,1,.8088,1.3376Z" style="fill:#333"/><path d="M17.3144,20.832c-6.2315-.3981-4.7018,4.4483-7.1257,6.4834C12.8578,28.0781,18.5749,26.1887,17.3144,20.832Z" style="fill:none;stroke:#333;stroke-linejoin:round;stroke-width:1.56146985479486px"/><path d="M17.4914,19.6062c-5.2938-3.4508-6.168,1.5693-9.23,2.1515C10.2581,23.7561,16.147,24.9407,17.4914,19.6062Z" style="fill:#961717"/><path d="M9.0672,21.4892c2.3924,1.2537,6.3633,1.4279,7.7644-2.2825C12.5781,16.8362,11.4083,20.3681,9.0672,21.4892Z" style="fill:#b72525"/><path d="M17.5575,20.3841a7.52,7.52,0,0,0-2.5149.3506,14.452,14.452,0,0,1-2.6657.8863.2518.2518,0,0,1-.28-.2206.2558.2558,0,0,1,.1783-.2711,14.6389,14.6389,0,0,0,2.3488-1.3378,8.8254,8.8254,0,0,1,2.8009-.9633l.0066-.0011a.7845.7845,0,1,1,.2738,1.545A.8294.8294,0,0,1,17.5575,20.3841Z" style="fill:#333"/><path d="M17.4914,19.6062c-5.2938-3.4508-6.168,1.5693-9.23,2.1515C10.2581,23.7561,16.147,24.9407,17.4914,19.6062Z" style="fill:none;stroke:#333;stroke-linejoin:round;stroke-width:1.56146985479486px"/><path d="M45.21,19.3337c.0717-1.2-.1286-4.7118-1.2149-6.246a.8723.8723,0,0,0-.768-.3733,3.5416,3.5416,0,0,0-.3753.07,19.2935,19.2935,0,0,0-1.8876-4.8235,1.2878,1.2878,0,0,0-1.4614-.56l-2.59-2.0853a3.6593,3.6593,0,0,0-1.9688-.8c-4.4943-.4027-9.7573-.8007-14.8223,5.7488a3.9755,3.9755,0,0,0-.7176,1.5019L18.0778,17.28l2.2828,2.39s13.0419-1.4643,23.831.5157A.8889.8889,0,0,0,45.21,19.3337Z" style="fill:#b72525"/><path d="M38.2761,7.7786l-1.9747-1.394a.6787.6787,0,0,0-.6414-.08C28.6489,9.0568,19.5438,16.3468,19.5438,16.3468l-.2433,1.028A76.707,76.707,0,0,1,38.2761,7.7786Z" style="fill:#961717"/><path d="M29.0908,6.9294c-1.4453-.8015-9.9169,5.7053-10.6465,10.5136C23.0114,10.9691,29.6914,7.6482,29.0908,6.9294Z" style="fill:#961717"/><path d="M40.44,9.8819a.28.28,0,0,0-.4841-.0294q-.205.3017-.4229.61a.2847.2847,0,0,1-.1886.1179c-10.2712,1.5832-19.8092,7.45-19.8092,7.45l.5393.8541c5.7718-2.851,8.8365-4.5848,21.6143-6.0189A12.1006,12.1006,0,0,0,40.44,9.8819Z" style="fill:#961717"/><polygon points="19.28 16.406 21.347 17.346 19.295 18.337 18.944 17.037 19.28 16.406" style="fill:#961717"/><polygon points="22.121 17.545 25.225 18.344 21.091 19.502 19.495 19.066 22.121 17.545" style="fill:#961717"/><path d="M43.4125,14.3828a.4907.4907,0,0,0-.5144-.3208l-6.7153.9079a1.6727,1.6727,0,0,0-.9083.4285c-.4248.3908-.8644.7661-1.3179,1.12a1.675,1.675,0,0,1-.9137.3539,64.0238,64.0238,0,0,0-13.27,2.5533l.588.7445s13.0419-2.4643,23.831-.4843A15.0979,15.0979,0,0,0,43.4125,14.3828Z" style="fill:#961717"/><path d="M42.0169,12.578a19.1223,19.1223,0,0,0-.8317-2.6419,12.1376,12.1376,0,0,0-.5725-1.2433c-.2518-.4688-.3337-.5922-.5895-.6823a.6359.6359,0,0,0-.3566-.0078l-.6866.205-1.37.4312q-1.3662.4447-2.7184.9371a69.8384,69.8384,0,0,0-10.474,4.756.2511.2511,0,0,1-.2584-.43A70.5952,70.5952,0,0,1,34.5187,8.6192q1.3432-.5628,2.7087-1.0735l1.37-.5007.69-.2406a1.9144,1.9144,0,0,1,1.07-.0392,1.9654,1.9654,0,0,1,.9248.536,4.2645,4.2645,0,0,1,.5079.72,13.478,13.478,0,0,1,.7032,1.3526,20.4708,20.4708,0,0,1,1.0387,2.83.7811.7811,0,1,1-1.5017.4306l-.0088-.0334Z" style="fill:#333"/><path d="M18.4893,16.6733a14.2427,14.2427,0,0,1,2.08-2.85,26.5613,26.5613,0,0,1,2.4479-2.3477c.85-.7377,1.753-1.4028,2.6612-2.0527.9158-.64,1.8577-1.2362,2.81-1.81a.2511.2511,0,0,1,.3447.0855.2558.2558,0,0,1-.0719.3359c-.8948.6417-1.7734,1.3014-2.6188,1.999-.837.7067-1.6636,1.4236-2.4258,2.2006a25.4188,25.4188,0,0,0-2.1544,2.423,13.2831,13.2831,0,0,0-1.6357,2.6255l-.0271.0635a.7821.7821,0,0,1-1.4386-.6141C18.47,16.7124,18.48,16.6919,18.4893,16.6733Z" style="fill:#333"/><path d="M39.503,7.4012,37.0961,5.4636a4.423,4.423,0,0,0-2.3834-.9679c-4.4274-.3923-9.5763-.6662-14.5384,5.7015A4.15,4.15,0,0,0,19.4,11.86l-1.342,6.1172" style="fill:none;stroke:#333;stroke-linejoin:round;stroke-width:1.56146985479486px"/><path d="M20.7952,20.1032a2.397,2.397,0,0,0-1.3-1.0374,2.8831,2.8831,0,0,0-.2361-1.9114c-.701-1.33-2.4237-.7747-2.9467.24-.8864,1.7207,1.0029,5.0316,2.69,5.1628C20.0538,22.6393,21.4934,21.4487,20.7952,20.1032Z" style="fill:#961717"/><path d="M17.3463,16.4988a1.2,1.2,0,0,0-1.0343.896,3.2141,3.2141,0,0,0,.3547,3.0239C16.9013,20.3121,19.8012,19.1779,17.3463,16.4988Z" style="fill:#b72525"/><path d="M19.4948,19.0658a2.8831,2.8831,0,0,0-.2361-1.9114c-.701-1.33-2.4237-.7747-2.9467.24-.8864,1.7207,1.0029,5.0316,2.69,5.1628,1.0518.0817,2.4914-1.1089,1.7932-2.4544a3.2374,3.2374,0,0,0-2.2578-1.29" style="fill:none;stroke:#333;stroke-linecap:round;stroke-linejoin:round;stroke-width:1.56146985479486px"/><circle cx="27.1729" cy="23.1954" r="0.75" style="fill:#333"/><path d="M28.59,23.1954c-1.4167-.1638-1.88-1.1934-3.7992-.25" style="fill:none;stroke:#333;stroke-linecap:round;stroke-miterlimit:10;stroke-width:0.75px"/><circle cx="36.4037" cy="23.1954" r="0.75" style="fill:#333"/><path d="M34.9869,23.1954c1.4168-.1638,1.88-1.1934,3.7993-.25" style="fill:none;stroke:#333;stroke-linecap:round;stroke-miterlimit:10;stroke-width:0.75px"/><path d="M29.6676,21.394a3.7246,3.7246,0,0,1-1.6207.1015c-.5245-.0491-1.022-.1544-1.5093-.2329a12.0255,12.0255,0,0,0-1.4208-.2075,3.3914,3.3914,0,0,0-1.4508.1891,1.9344,1.9344,0,0,1,1.3774-.966,4.2645,4.2645,0,0,1,1.6717.0009,7.95,7.95,0,0,1,1.52.4622C28.7238,20.9338,29.1629,21.17,29.6676,21.394Z" style="fill:#333"/><path d="M33.9135,21.394c.5046-.2243.9437-.46,1.4324-.6527a7.95,7.95,0,0,1,1.52-.4622,4.2645,4.2645,0,0,1,1.6717-.0009,1.9344,1.9344,0,0,1,1.3774.966,3.3914,3.3914,0,0,0-1.4508-.1891,12.0239,12.0239,0,0,0-1.4207.2075c-.4874.0785-.9849.1838-1.5094.2329A3.7241,3.7241,0,0,1,33.9135,21.394Z" style="fill:#333"/><path d="M23.4367,27.9356a3.6558,3.6558,0,0,1-1.5151-3.2937V22.4461c0-.906-.3443-2.1958-1.0979-2.1958-3.3225,0-3.6313,7.7821,1.0979,8.7832,0,3.3027.7952,4.1681,3.2937,6.678V32.3273A5.248,5.248,0,0,0,23.4367,27.9356Z" style="fill:#e5c2ba"/><path d="M21.9353,29.02a4.2713,4.2713,0,0,1-3.2892-3.2983c-1.09-5.4911,2.1156-5.4866,2.2034-5.4865h.3914V19.6" style="fill:none;stroke:#333;stroke-linejoin:round;stroke-width:1.5px"/><path d="M43.6706,20.46c.8927.413,2.0592,1.654,1.3251,5.2977a4.2706,4.2706,0,0,1-3.2982,3.2892" style="fill:none;stroke:#333;stroke-linejoin:round;stroke-width:1.5px"/><path d="M26.4006,15.7366a50.0727,50.0727,0,0,1,12.23-2.9681q1.5606-.2093,3.1284-.3612l.7846-.0722.393-.0329a3.1925,3.1925,0,0,1,.4593-.02,1.32,1.32,0,0,1,.9746.5688,5.861,5.861,0,0,1,.4352.7352,9.0321,9.0321,0,0,1,.81,3.1875,14.16,14.16,0,0,1,.047,1.6225c-.0088.27-.0233.5408-.0469.8118l-.0432.4076-.0264.2047a1.1709,1.1709,0,0,1-.1057.3373,1.0915,1.0915,0,0,1-.518.5125.9764.9764,0,0,1-.4036.0914,1.4592,1.4592,0,0,1-.3238-.0474l-.751-.1657c-.4975-.12-1.0069-.2-1.5137-.2881-1.0144-.1712-2.04-.2985-3.0687-.3935-2.0578-.1941-4.13-.2745-6.2029-.28a69.3416,69.3416,0,0,0-12.3356.9878l-.0244.0045a.7808.7808,0,0,1-.2836-1.5356l.0167-.0029a70.58,70.58,0,0,1,12.6429-.7485c2.1057.05,4.2112.1763,6.3094.4193,1.0491.12,2.0964.272,3.138.4706.5207.1015,1.042.1951,1.558.3311l.7754.1889c.0935.0227.0834.0184.0614.0183a.0782.0782,0,0,0-.0244.0058c-.005.0042.0171-.0063.0272-.0287a.1409.1409,0,0,0,.0133-.0344l.0272-.1834.0469-.3707c.0268-.249.0453-.5.0585-.7515a13.1449,13.1449,0,0,0-.0134-1.5093,8.1273,8.1273,0,0,0-.66-2.8685,4.9656,4.9656,0,0,0-.3491-.62.4365.4365,0,0,0-.3244-.2107,3.1548,3.1548,0,0,0-.3228.0126l-.3885.0241-.7773.0548q-1.5545.1183-3.1056.2914A49.5,49.5,0,0,0,26.5936,16.2l-.0066.0026a.251.251,0,0,1-.1864-.466Z" style="fill:#333"/><path d="M20.45,26.4327c-.6186,0-1.12,1.0414-1.12,2.3261s.5015,2.326,1.12,2.326,1.12-1.0414,1.12-2.326" style="fill:none;stroke:#d09c69;stroke-linecap:round;stroke-linejoin:round"/><path d="M43.155,26.4327c.6187,0,1.12,1.0414,1.12,2.3261s-.5015,2.326-1.12,2.326-1.12-1.0414-1.12-2.326" style="fill:none;stroke:#d09c69;stroke-linecap:round;stroke-linejoin:round"/><path d="M42.1948,24.0012V19.6378H40.7769c0,5.7838-.2278,8.2109-1.5976,11.226a3.6316,3.6316,0,0,0,1.2722,1.8276c-2.0459,0-2.726-5.724-8.7337-3.959-6.0076-1.765-6.6877,3.959-8.7337,3.959a3.6318,3.6318,0,0,0,1.2723-1.8276c-1.37-3.0151-1.5976-5.4422-1.5976-11.226H21.2409v4.3634c0,7.5206-5.654,17.2764,10.4769,20.2011C47.8488,41.2776,42.1948,31.5218,42.1948,24.0012ZM35.7164,34.1463h0a.6668.6668,0,0,1-.6983.63,2.4189,2.4189,0,0,1-2.0758-.7629.5263.5263,0,0,0-.4018-.213H30.8951a.5261.5261,0,0,0-.4017.213,2.419,2.419,0,0,1-2.0758.7629.6668.6668,0,0,1-.6983-.63h0v-2.52a.5821.5821,0,0,1,.6027-.5589h1.1574a3.092,3.092,0,0,0,2.2384-.9315,3.092,3.092,0,0,0,2.2384.9315h1.1575a.5821.5821,0,0,1,.6027.5589Z" style="fill:#333"/><path d="M29.88,48.8051a3.8509,3.8509,0,0,0,1.8374,3.2769,3.8409,3.8409,0,0,0,0-6.5538A3.8508,3.8508,0,0,0,29.88,48.8051Z" style="fill:#444;stroke:#333;stroke-linejoin:round"/><path d="M34.1528,39.7736c1.0019,4.7856-2.1252,4.2651-2.4,5.4136C30.44,41.99,33.4129,41.3554,34.1528,39.7736Z" style="fill:#444;stroke:#333;stroke-linejoin:round"/><path d="M29.2828,39.7736c-1.0019,4.7856,2.1253,4.2651,2.4,5.4136C32.996,41.99,30.0227,41.3554,29.2828,39.7736Z" style="fill:#444;stroke:#333;stroke-linejoin:round"/><path d="M34.1528,36.5093c1.0019,4.7856-2.1252,4.2651-2.4,5.4136C30.44,38.7258,33.4129,38.0911,34.1528,36.5093Z" style="fill:#444;stroke:#333;stroke-linejoin:round"/><path d="M29.2828,36.5093c-1.0019,4.7856,2.1253,4.2651,2.4,5.4136C32.996,38.7258,30.0227,38.0911,29.2828,36.5093Z" style="fill:#444;stroke:#333;stroke-linejoin:round"/><rect x="30.0456" y="44.7373" width="3.3674" height="1.808" style="fill:#b72525;stroke:#333;stroke-linejoin:round"/><path d="M17.4284,42.6164a2.7267,2.7267,0,0,1-2.9968.3694A4.0268,4.0268,0,0,1,15.89,40.3375a3.5289,3.5289,0,0,1,2.8328-.8065A3.4363,3.4363,0,0,1,17.4284,42.6164Z" style="fill:#444;stroke:#333;stroke-linejoin:round;stroke-width:0.7375408119433335px"/><path d="M20.2377,33.5226c-2.7484,3.7651-.7293,4.6835-1.3235,5.7184C21.7867,37.6707,20.1213,35.2337,20.2377,33.5226Z" style="fill:#444;stroke:#333;stroke-linejoin:round;stroke-width:0.8451324171149394px"/><path d="M23.7322,35.8981c-1.81,5.4144-3.8586,2.6973-4.7768,3.3872C20.2952,36.0514,22.3907,37.11,23.7322,35.8981Z" style="fill:#444;stroke:#333;stroke-linejoin:round;stroke-width:0.8451324171149394px"/><path d="M21.3941,30.4933c-2.1632,4.3353-.0546,4.9422-.5026,6.0954C23.5306,34.5158,21.5314,32.2848,21.3941,30.4933Z" style="fill:#444;stroke:#333;stroke-linejoin:round;stroke-width:0.8451324171149394px"/><path d="M25.1986,32.39c-1.0094,5.8449-3.4424,3.3829-4.26,4.2371C21.8246,33.1086,24.0458,33.8466,25.1986,32.39Z" style="fill:#444;stroke:#333;stroke-linejoin:round;stroke-width:0.8451324171149394px"/><rect x="18.0398" y="38.1592" width="1.4202" height="2.645" transform="translate(-21.9849 23.6374) rotate(-43.3428)" style="fill:#b72525;stroke:#333;stroke-linejoin:round;stroke-width:0.7854918837547302px"/><path d="M21.7708,48.1718a3.1248,3.1248,0,0,1-3.3946.6695,4.6148,4.6148,0,0,1,1.4485-3.1472,4.0441,4.0441,0,0,1,3.1711-1.1555A3.938,3.938,0,0,1,21.7708,48.1718Z" style="fill:#444;stroke:#333;stroke-linejoin:round;stroke-width:0.8451324171149394px"/><path d="M24.0893,38.45c-2.47,3.9533-.39,4.7239-.9082,5.7989C25.933,42.4753,24.0964,40.1647,24.0893,38.45Z" style="fill:#444;stroke:#333;stroke-linejoin:round;stroke-width:0.8451324171149394px"/><path d="M27.7458,40.5673c-1.4159,5.5307-3.6543,2.9681-4.52,3.7224C24.3287,40.9677,26.4951,41.8728,27.7458,40.5673Z" style="fill:#444;stroke:#333;stroke-linejoin:round;stroke-width:0.8451324171149394px"/><path d="M25.0245,35.3448c-1.8453,4.48.3015,4.9334-.0623,6.1158C27.4452,39.203,25.2905,37.1218,25.0245,35.3448Z" style="fill:#444;stroke:#333;stroke-linejoin:round;stroke-width:0.8451324171149394px"/><path d="M28.9557,36.9627c-.5858,5.9024-3.19,3.622-3.9439,4.5329C25.6423,37.9224,27.9109,38.4985,28.9557,36.9627Z" style="fill:#444;stroke:#333;stroke-linejoin:round;stroke-width:0.8451324171149394px"/><rect x="22.3357" y="43.3343" width="1.4202" height="2.645" transform="translate(-25.442 31.4553) rotate(-47.4729)" style="fill:#b72525;stroke:#333;stroke-linejoin:round;stroke-width:0.7854918837547302px"/><path d="M46.177,42.6164a2.7269,2.7269,0,0,0,2.9969.3694,4.0274,4.0274,0,0,0-1.4587-2.6483,3.5289,3.5289,0,0,0-2.8328-.8065A3.4367,3.4367,0,0,0,46.177,42.6164Z" style="fill:#444;stroke:#333;stroke-linejoin:round;stroke-width:0.7375408119433335px"/><path d="M43.3678,33.5226c2.7484,3.7651.7292,4.6835,1.3234,5.7184C41.8188,37.6707,43.4841,35.2337,43.3678,33.5226Z" style="fill:#444;stroke:#333;stroke-linejoin:round;stroke-width:0.8451324171149394px"/><path d="M39.8732,35.8981c1.8106,5.4144,3.8587,2.6973,4.7769,3.3872C43.31,36.0514,41.2148,37.11,39.8732,35.8981Z" style="fill:#444;stroke:#333;stroke-linejoin:round;stroke-width:0.8451324171149394px"/><path d="M42.2114,30.4933c2.1631,4.3353.0545,4.9422.5026,6.0954C40.0748,34.5158,42.074,32.2848,42.2114,30.4933Z" style="fill:#444;stroke:#333;stroke-linejoin:round;stroke-width:0.8451324171149394px"/><path d="M38.4069,32.39c1.0093,5.8449,3.4424,3.3829,4.26,4.2371C41.7808,33.1086,39.56,33.8466,38.4069,32.39Z" style="fill:#444;stroke:#333;stroke-linejoin:round;stroke-width:0.8451324171149394px"/><rect x="43.5331" y="38.7716" width="2.645" height="1.4202" transform="translate(-14.645 45.0047) rotate(-46.6572)" style="fill:#b72525;stroke:#333;stroke-linejoin:round;stroke-width:0.7854918837547302px"/><path d="M41.8346,48.1718a3.1248,3.1248,0,0,0,3.3946.6695,4.6144,4.6144,0,0,0-1.4485-3.1472A4.044,4.044,0,0,0,40.61,44.5386,3.9383,3.9383,0,0,0,41.8346,48.1718Z" style="fill:#444;stroke:#333;stroke-linejoin:round;stroke-width:0.8451324171149394px"/><path d="M39.5162,38.45c2.47,3.9533.39,4.7239.9082,5.7989C37.6724,42.4753,39.509,40.1647,39.5162,38.45Z" style="fill:#444;stroke:#333;stroke-linejoin:round;stroke-width:0.8451324171149394px"/><path d="M35.86,40.5673c1.4159,5.5307,3.6544,2.9681,4.52,3.7224C39.2767,40.9677,37.11,41.8728,35.86,40.5673Z" style="fill:#444;stroke:#333;stroke-linejoin:round;stroke-width:0.8451324171149394px"/><path d="M38.581,35.3448c1.8453,4.48-.3016,4.9334.0623,6.1158C36.16,39.203,38.315,37.1218,38.581,35.3448Z" style="fill:#444;stroke:#333;stroke-linejoin:round;stroke-width:0.8451324171149394px"/><path d="M34.65,36.9627c.5858,5.9024,3.19,3.622,3.9439,4.5329C37.9632,37.9224,35.6946,38.4985,34.65,36.9627Z" style="fill:#444;stroke:#333;stroke-linejoin:round;stroke-width:0.8451324171149394px"/><rect x="39.2371" y="43.9468" width="2.645" height="1.4202" transform="translate(-19.5164 39.1625) rotate(-42.5271)" style="fill:#b72525;stroke:#333;stroke-linejoin:round;stroke-width:0.7854918837547302px"/><g id="tattooed-person-asian-male"><g id="_026-tattooed-person-asian-male" data-name=" 026-tattooed-person-asian-male"><g id="tattooed-person-asian-male-2"><g id="tattooed-person-asian-male-2-2"><g id="Icons"><path d="M28.4258,27.9809a4.1626,4.1626,0,0,1,1.6117.3207h0a4.21,4.21,0,0,0,3.2233,0h0a4.1626,4.1626,0,0,1,1.6117-.3207" style="fill:none;stroke:#ba8d86;stroke-linecap:round;stroke-miterlimit:10;stroke-width:0.75px"/></g></g></g></g></g></g></g></svg>