<svg xmlns="http://www.w3.org/2000/svg" viewBox="0 0 64 64">
  <g id="police-black-male-coronavirus">
    <g id="f793d2e4-de60-46e8-80c7-79d3455278b3">
      <g id="ae1d69ad-6041-455d-a1bc-d1fd0de98c29">
        <g id="eb4c5483-5a44-4988-ab1c-f963b6f2ea39">
          <g id="ba53cf96-05f4-4d02-ac9c-6a375f7f2e22">
            <path d="M56.42,49.36A4.93,4.93,0,0,0,53,45.73L39.65,41.29v-5.5H24.27v5.6L11,45.73a4.92,4.92,0,0,0-3.32,3.63C7.43,50.47,7,52.73,7,52.73a61.54,61.54,0,0,0,25,5,61.57,61.57,0,0,0,25-5S56.63,50.47,56.42,49.36Z" fill="#916953"/>
            <path d="M39.65,41.29,53,45.73a4.93,4.93,0,0,1,3.39,3.63c.21,1.11.61,3.37.61,3.37a61.57,61.57,0,0,1-25,5,61.54,61.54,0,0,1-25-5s.4-2.26.61-3.37A4.92,4.92,0,0,1,11,45.73l13.31-4.34L32,44.73Z" fill="#3c495a"/>
            <path d="M24.27,39.21V35.79H39.64v3.46L32,44.77Z" fill="none" stroke="#333" stroke-linejoin="round" stroke-width="1.65"/>
            <path d="M42.94,21.87v-2.2c0-6-2.09-12.08-11-12.08S21,13.72,21,19.67v2.2c-.09,0-3.29,0-2.2,5.49A4.26,4.26,0,0,0,22,30.65c0,3.9,1.1,4.39,4.81,8.21,1.43,1.82,3.17,1.67,5.07,1.67s3.65.15,5.07-1.67c3.71-3.82,4.81-4.31,4.81-8.21a4.27,4.27,0,0,0,3.29-3.29C46.23,21.87,43,21.79,42.94,21.87Z" fill="#a88064"/>
            <path d="M23.59,29.55A3.65,3.65,0,0,1,22,26.26V23.57a2.46,2.46,0,0,0-1.46-1.65c-.83.17-2.72,1-1.83,5.45A4.27,4.27,0,0,0,22,30.66c0,3.3.8,4.17,3.29,6.68V34A5.23,5.23,0,0,0,23.59,29.55Z" fill="#a0775c"/>
            <path d="M42.94,21.87v-2.2c0-6-2.09-12.08-11-12.08a18.13,18.13,0,0,0-3.29.29V18.57a2.37,2.37,0,0,1-2.2,2.2s3.29,0,4.39,2.2h1.1v3.17a1.67,1.67,0,0,0,.64,1.4,1.1,1.1,0,0,1-.64,2h0c-.81,0-1.1-.55-2.2-.55-.65,0-.55.85-.57.82a2.5,2.5,0,0,1,1.1.29,3.28,3.28,0,0,0,1.65.43h0v3.31a1.9,1.9,0,0,0,1.25,1.76,1.56,1.56,0,0,1,.94,1.63c0,3-5.43-.3-5.43,3a9.31,9.31,0,0,0,3.24.31c1.9,0,3.65.15,5.07-1.67,3.73-3.8,4.83-4.29,4.83-8.19a4.27,4.27,0,0,0,3.29-3.29C46.23,21.87,43,21.79,42.94,21.87Z" fill="#a0775c"/>
            <path d="M44.37,22.44a2.17,2.17,0,0,0-1.43-.57v-2.2c0-6-2.09-12.08-11-12.08S21,13.72,21,19.67v2.2a2.37,2.37,0,0,0-1.42.58c2.61,2.21,7.16,3.74,12.39,3.74S41.77,24.68,44.37,22.44Z" fill="#a0775c"/>
            <path d="M43,21.86a2.18,2.18,0,0,0-1.12,1.87v2.53a3.66,3.66,0,0,1-1.52,3.29,5.24,5.24,0,0,0-1.78,4.39v3.38c2.5-2.51,3.29-3.38,3.29-6.68a4.27,4.27,0,0,0,3.29-3.29C46.2,22,43.24,21.84,43,21.86Z" fill="#916953"/>
            <path d="M42.94,21.87v-2.2c0-6-2.09-12.08-11-12.08S21,13.72,21,19.67v2.2c-.09,0-3.29,0-2.2,5.49A4.26,4.26,0,0,0,22,30.65c0,3.9,1.1,4.39,4.81,8.21,1.43,1.82,3.17,1.67,5.07,1.67s3.65.15,5.07-1.67c3.71-3.82,4.81-4.31,4.81-8.21a4.27,4.27,0,0,0,3.29-3.29C46.23,21.87,43,21.79,42.94,21.87Z" fill="none" stroke="#333" stroke-linejoin="round" stroke-width="1.65"/>
            <path d="M47.26,43.87,53,45.73a4.93,4.93,0,0,1,3.39,3.63c.21,1.11.61,3.37.61,3.37a61.57,61.57,0,0,1-25,5,61.54,61.54,0,0,1-25-5s.4-2.26.61-3.37A4.92,4.92,0,0,1,11,45.73l5.83-1.88" fill="none" stroke="#343433" stroke-linejoin="round" stroke-width="1.5"/>
            <path d="M25.65,16.37,24,16.79v2l-1,2v5c0-2.17-1-3-3-3v-3c0-5,2-12,12-12s12,7,12,12v3a2.71,2.71,0,0,0-3,2.39h0a3.11,3.11,0,0,0,0,.61v-5l-1-2v-2l-1.69-.42A25.91,25.91,0,0,0,25.65,16.37Z" fill="#333" stroke="#333" stroke-linecap="round" stroke-linejoin="round"/>
            <path d="M43,7.62A39,39,0,0,1,32,3.79,39,39,0,0,1,21,7.62a19.92,19.92,0,0,1-5.5,5.88,1.66,1.66,0,0,0-.3,2.32.86.86,0,0,0,.13.14l4.22,4.24c2.69-2.14,7.24-3.56,12.43-3.56s9.74,1.42,12.43,3.56L48.61,16a1.63,1.63,0,0,0,0-2.31h0l-.16-.14A20.83,20.83,0,0,1,43,7.62Z" fill="#3c495a"/>
            <path d="M48.47,13.52c-1.72-1.43-3.87-2.41-5.51-5.9,0,0-9.21-1.92-11-3.83v7.86l-5.13,4A18.82,18.82,0,0,0,18.35,19l1.16,1.17c2.69-2.14,7.24-3.56,12.43-3.56s9.74,1.42,12.43,3.56l.52-.52h0l.73-.73h0l3.13-3.16S50.18,14.94,48.47,13.52Z" fill="#313e4c"/>
            <path d="M43,7.62A39,39,0,0,1,32,3.79,39,39,0,0,1,21,7.62a19.92,19.92,0,0,1-5.5,5.88,1.66,1.66,0,0,0-.3,2.32.86.86,0,0,0,.13.14l4.22,4.24c2.69-2.14,7.24-3.56,12.43-3.56s9.74,1.42,12.43,3.56L48.61,16a1.63,1.63,0,0,0,0-2.31h0l-.16-.14A20.83,20.83,0,0,1,43,7.62Z" fill="none" stroke="#333" stroke-linecap="round" stroke-linejoin="round" stroke-width="1.5"/>
            <path d="M33.68,12.64,32,13.79l-1.72-1.15A2.87,2.87,0,0,1,29,10.25V7.79A5,5,0,0,0,31.71,7L32,6.79l.25.17A5,5,0,0,0,35,7.79v2.47A2.85,2.85,0,0,1,33.68,12.64Z" fill="#ead4ad"/>
            <path d="M32,6.79,31.71,7A5,5,0,0,1,29,7.79v2.47a2.85,2.85,0,0,0,1.22,2.33,6.48,6.48,0,0,0,2.45-5.08V7.18L32.23,7Z" fill="#f2e1c0"/>
            <path d="M33.68,12.64,32,13.79l-1.72-1.15A2.87,2.87,0,0,1,29,10.25V7.79A5,5,0,0,0,31.71,7L32,6.79l.25.17A5,5,0,0,0,35,7.79v2.47A2.85,2.85,0,0,1,33.68,12.64Z" fill="none" stroke="#333" stroke-linecap="round" stroke-linejoin="round"/>
            <path d="M19.24,20.85c2.53-2.39,7.28-4,12.72-4s10.22,1.62,12.72,4c-2.53,2.39-7.28,4-12.72,4S21.79,23.2,19.24,20.85Z" fill="#333"/>
            <path d="M32,57.73c1.56,0,3.12,0,4.67-.15C38.29,54.93,42,48,42,40.93l-1-.2-1.33-3a25.4,25.4,0,0,1-7.67,7,26.17,26.17,0,0,1-7.71-7l-1.29,3-1,.2c0,7.06,3.68,14,5.27,16.65A47.81,47.81,0,0,0,32,57.73Z" fill="#fff" stroke="#333" stroke-linecap="round" stroke-linejoin="round" stroke-width="1.5"/>
            <path d="M32,57.73c1.11,0,2.23,0,3.34-.06-1-3.3-2.39-7.94-2.39-7.94H31l-2.38,7.93A29.29,29.29,0,0,0,32,57.73Z" fill="#3467a8" stroke="#333" stroke-miterlimit="10" stroke-width="1.5"/>
            <polygon points="31.98 44.73 29.31 48.07 30.98 49.73 32.98 49.73 34.56 47.95 31.98 44.73" fill="#3467a8" stroke="#343433" stroke-linecap="round" stroke-linejoin="round" stroke-width="1.5"/>
            <path d="M32.27,49.73l.21,3a.49.49,0,0,1-.47.53.5.5,0,0,1-.53-.47v-.07l.21-3a.29.29,0,0,1,.31-.27h0A.32.32,0,0,1,32.27,49.73Z" fill="#343433"/>
            <path d="M24.27,37.73a26.17,26.17,0,0,0,7.71,7l-4,5c-3-3-5-7-5-9Z" fill="#fff" stroke="#333" stroke-linecap="round" stroke-linejoin="round" stroke-width="1.5"/>
            <path d="M39.65,37.73a25.4,25.4,0,0,1-7.67,7l4,5c3-3,5-7,5-9Z" fill="#fff" stroke="#333" stroke-linecap="round" stroke-linejoin="round" stroke-width="1.5"/>
            <path d="M43.15,56.79l5.75-5-2-3,2.08-2-3-5L42,41c-.06,6-3.44,13.1-5.36,16.66A59.83,59.83,0,0,0,43.15,56.79Z" fill="#3c495a" stroke="#343433" stroke-linejoin="round" stroke-width="1.5"/>
            <path d="M15,51.79l5.74,5a60,60,0,0,0,6.55.78C25.43,54,22,46.88,22,40.93l-4,.8-3,5,2,2.06Z" fill="#3c495a" stroke="#343433" stroke-linejoin="round" stroke-width="1.5"/>
            <circle cx="27.45" cy="25.53" r="0.65" fill="#333"/>
            <circle cx="36.41" cy="25.53" r="0.65" fill="#333"/>
            <line x1="31.94" y1="30.52" x2="31.94" y2="31.52" fill="none" stroke="#997059" stroke-linecap="round" stroke-miterlimit="10" stroke-width="0.75"/>
            <path d="M29.36,30l-1.87,1.42a1.53,1.53,0,0,0-.59,1.2v1.65" fill="none" stroke="#a0775c" stroke-linecap="round" stroke-miterlimit="10" stroke-width="0.75"/>
            <path d="M34.39,30l1.87,1.42a1.53,1.53,0,0,1,.59,1.2v1.65" fill="none" stroke="#ab8166" stroke-linecap="round" stroke-miterlimit="10" stroke-width="0.75"/>
            <line x1="31.02" y1="35.75" x2="33.02" y2="35.75" fill="none" stroke="#997059" stroke-linecap="round" stroke-miterlimit="10" stroke-width="0.75"/>
            <line x1="31.81" y1="38.28" x2="32.06" y2="38.28" fill="none" stroke="#997059" stroke-linecap="round" stroke-miterlimit="10" stroke-width="0.75"/>
            <path d="M33.3,32.37a2.94,2.94,0,0,0-1.18.13.61.61,0,0,1-.42,0,2.94,2.94,0,0,0-1.18-.13c-.67.1-.74.52-2.09,1.25l1.19.73a2.21,2.21,0,0,0,1.27.41H33a2.16,2.16,0,0,0,1.27-.41l1.23-.7C34.1,32.92,34,32.47,33.3,32.37Z" fill="#916953"/>
            <path d="M35.45,33.65c-1,0-1.26-.39-2.24-.39a7.85,7.85,0,0,0-1.29.17,8,8,0,0,0-1.29-.17c-.94,0-1.15.36-2.21.36" fill="none" stroke="#674848" stroke-linecap="round" stroke-miterlimit="10" stroke-width="0.75"/>
            <path d="M29.41,29.64a2.83,2.83,0,0,1,1.25.32h0a2.58,2.58,0,0,0,2.5,0h0a2.83,2.83,0,0,1,1.25-.32" fill="none" stroke="#674848" stroke-linecap="round" stroke-miterlimit="10" stroke-width="0.75"/>
          </g>
        </g>
      </g>
      <path d="M37.73,29.56a5.46,5.46,0,0,1,1.64,8.38c-.86,1-6.73,9.73-14.95,0a5.44,5.44,0,0,1,.64-7.68,4.84,4.84,0,0,1,1-.68l4.53-2.35a2.88,2.88,0,0,1,2.62,0Z" fill="#fff"/>
      <path d="M24,31.52a22.92,22.92,0,0,1-3.75-9.3" fill="#fff" stroke="#333" stroke-linecap="round" stroke-linejoin="round" stroke-width="1.5"/>
      <path d="M40.09,31.52a22.92,22.92,0,0,0,3.75-9.3" fill="#fff" stroke="#333" stroke-linecap="round" stroke-linejoin="round" stroke-width="1.5"/>
      <line x1="23.13" y1="34.28" x2="21.49" y2="33.38" fill="none" stroke="#333" stroke-linecap="round" stroke-linejoin="round" stroke-width="1.5"/>
      <line x1="40.93" y1="34.28" x2="42.57" y2="33.38" fill="none" stroke="#333" stroke-linecap="round" stroke-linejoin="round" stroke-width="1.5"/>
      <path d="M37.73,29.56l-4.51-2.34a2.88,2.88,0,0,0-2.62,0l-4.53,2.35a5.4,5.4,0,0,0-2.77,3.52,5.59,5.59,0,0,0,1.12,2.18c8.22,9.74,14.1,1,14.95,0a5.48,5.48,0,0,0,1.14-2.19A5.43,5.43,0,0,0,37.73,29.56Z" fill="#fff"/>
      <path d="M37.73,29.56l-4.51-2.34a3,3,0,0,0-1.18-.3h0v8c0,2.06,2.2,1.61.86,4.11-2.05,3.84-7.08-2.89-7.08.41,0,.12,3,2.09,2.95,2.2,5.9,3.08,9.92-2.86,10.62-3.67a5.44,5.44,0,0,0-1.64-8.38Z" fill="#eee"/>
      <path d="M23.33,33A19,19,0,0,0,32,35.27,17.22,17.22,0,0,0,40.48,33" fill="none" stroke="#ddd" stroke-miterlimit="10"/>
      <path d="M23.33,35.22A19.08,19.08,0,0,0,32,37.49a17.24,17.24,0,0,0,8.44-2.27" fill="none" stroke="#ddd" stroke-miterlimit="10"/>
      <path d="M37.73,29.56a5.46,5.46,0,0,1,1.64,8.38c-.86,1-6.73,9.73-14.95,0a5.44,5.44,0,0,1,.64-7.68,4.84,4.84,0,0,1,1-.68l4.53-2.35a2.88,2.88,0,0,1,2.62,0Z" fill="none" stroke="#333" stroke-linejoin="round" stroke-width="1.5"/>
    </g>
  </g>
</svg>
