<svg xmlns="http://www.w3.org/2000/svg" viewBox="0 0 64 64">
  <g id="virologist-white-male-coronavirus">
    <g>
      <g id="ffeca3e2-f086-499a-86a7-cb6ad098f9c0">
        <g id="bc096648-1370-4a39-8228-9d31e9ba39b8">
          <g id="a173c4c6-b223-4fb0-aec7-6f32b6283879">
            <g id="eb1aa92f-ab9e-455e-8224-facd03c2981f">
              <path d="M59.47,48.72a5.65,5.65,0,0,0-4.5-4.5c-1.33-.33-4.71-1.16-8.5-2-1.84-.41-3.7-.72-5.56-1V36.7h-15v4.55a47,47,0,0,0-5.42,1l-8.52,2a5.65,5.65,0,0,0-4.5,4.5L7,51.25a65.13,65.13,0,0,0,26.53,5.5A65.18,65.18,0,0,0,60,51.25Z" fill="#d8b3ad"/>
              <line x1="25.91" y1="36.7" x2="25.91" y2="42.64" fill="none" stroke="#333" stroke-linejoin="round" stroke-width="1.5"/>
              <line x1="40.91" y1="36.7" x2="40.91" y2="42.64" fill="none" stroke="#333" stroke-linejoin="round" stroke-width="1.5"/>
              <path d="M59.47,48.72a5.65,5.65,0,0,0-4.5-4.5C45.47,41.84,42.53,41.4,39.28,41a14.9,14.9,0,0,1-4.76,3.24H32.35A14.86,14.86,0,0,1,27.6,41c-2.39.24-4.86.47-15.63,3.17a5.65,5.65,0,0,0-4.5,4.5L7,51.21a65.13,65.13,0,0,0,26.53,5.5A65.18,65.18,0,0,0,60,51.21Z" fill="#eee"/>
              <path d="M55,47.81c-19.23-4.81-25.16-4.47-43,0a6.68,6.68,0,0,0-4.69,3.55,66.08,66.08,0,0,0,26.23,5.36,66.34,66.34,0,0,0,26.17-5.35A6.61,6.61,0,0,0,55,47.81Z" fill="#ddd"/>
              <path d="M39.34,41a15,15,0,0,1-4.79,3.28H32.36A15.14,15.14,0,0,1,27.61,41c-1.12.1-2.23.21-3.34.36.2,6.71,1.08,11.05,2.93,15h0c2,.19,4.23.3,6.31.3h0c2,0,4.12-.1,6.24-.3h0c1.84-3.94,2.73-8.28,2.93-15C41.46,41.24,40.34,41.12,39.34,41Z" fill="#d4f4f0"/>
              <path d="M33.51,56.72q2.45,0,4.83-.18c-2.85-8.69-2.41-7.36-2.8-8.53l1.57-2.07a1.22,1.22,0,0,0,0-1.43A1.29,1.29,0,0,0,36,44H32.8a1.24,1.24,0,0,0-1.14.78A1.26,1.26,0,0,0,31.87,46l1.5,2-3,8.64C31.4,56.69,32.45,56.72,33.51,56.72Z" fill="#a8ccc6"/>
              <path d="M39.28,50.09l.64.85a.52.52,0,0,0,.19.14.49.49,0,0,0,.65-.28h0L43,42Z" fill="#a8ccc6"/>
              <path id="b5c2f352-e5d2-4bea-b905-71018ec20fc2" d="M32.35,44.31l-4.53,5.86s.19.32.41.72c.34.63.73.17.74.16.56-.74,4.51-6.31,4.51-6.31Z" fill="#a8ccc6"/>
              <path id="e77c9d91-5745-48e1-a4c7-8802aed01e30" d="M31,45.64,32.79,48a.82.82,0,0,0,1.15.17h0a.81.81,0,0,0,.16-.16L36,45.62a.83.83,0,0,0-.17-1.16.84.84,0,0,0-.49-.16H31.64a.83.83,0,0,0-.85.81h0A1,1,0,0,0,31,45.64Z" fill="#5e748e"/>
              <path d="M31.66,44.31h-.08l1.23,1.63a.82.82,0,0,0,1.15.17h0a.81.81,0,0,0,.16-.16l1.23-1.63Z" fill="#475b77"/>
              <path id="bff17069-70ce-4795-a180-71c4382da547" d="M31,45.64,32.79,48a.82.82,0,0,0,1.15.17h0a.81.81,0,0,0,.16-.16L36,45.62a.83.83,0,0,0-.17-1.16.84.84,0,0,0-.49-.16H31.64a.83.83,0,0,0-.85.81h0A1,1,0,0,0,31,45.64Z" fill="none" stroke="#333" stroke-linejoin="round"/>
              <path d="M29.94,56.62c1.18.06,2.37.1,3.57.1s2.37,0,3.54-.09l-3-8.52H32.86Z" fill="#5e748e"/>
              <path d="M31.42,56.68h2c1.15,0,2.44,0,3.57-.09l-3-8.52H32.85l-.33,1h0a.93.93,0,0,1,.95.91h0v0Z" fill="#475b77"/>
              <path d="M29.94,56.62c1.12.06,2.43.1,3.57.1s2.44,0,3.54-.09l-3-8.52H32.86Z" fill="none" stroke="#333" stroke-linejoin="round"/>
              <path id="fd0871d3-f29e-41d9-b69d-845a103c2314" d="M25.37,38.15,24,42,27.7,50.3l4.65-6A15,15,0,0,1,25.37,38.15Z" fill="#d4f4f0"/>
              <path id="f4b65052-ef19-4209-9176-c41b3adfc55f" d="M32.35,44.31a14.73,14.73,0,0,1-7-6.16L24,42,27.7,50.3l4.65-6" fill="none" stroke="#333" stroke-linecap="round" stroke-linejoin="round" stroke-width="1.5"/>
              <path id="a8692f6a-086f-4ea0-b9b6-382e17cb005a" d="M41.58,38.15,43,42l-3.79,8.27-4.66-6A15,15,0,0,0,41.58,38.15Z" fill="#d4f4f0"/>
              <path id="b8a5a790-625b-4100-8f29-4f824720d73d" d="M34.55,44.31a15,15,0,0,0,7-6.15L43,42l-3.79,8.27-4.66-6" fill="none" stroke="#333" stroke-linecap="round" stroke-linejoin="round" stroke-width="1.5"/>
              <path d="M24.22,39.72l-6.68,5.67,3.86,2.72-2.7,3.5,4.58,4.3c1.25.2,2.55.36,3.91.5C25.2,52.14,24.28,47.43,24.22,39.72Z" fill="#ddd" stroke="#333" stroke-linejoin="round" stroke-width="1.53"/>
              <path d="M42.6,39.72l6.68,5.67-3.86,2.72,2.7,3.5-4.57,4.3c-1.25.2-2.55.36-3.91.5C41.63,52.14,42.5,47.43,42.6,39.72Z" fill="#ddd" stroke="#333" stroke-linejoin="round" stroke-width="1.53"/>
              <path d="M21.58,42c-3.65.85-8.13,1.88-9.61,2.25a5.65,5.65,0,0,0-4.5,4.5L7,51.21a65.13,65.13,0,0,0,26.53,5.5A65.18,65.18,0,0,0,60,51.21l-.5-2.5a5.65,5.65,0,0,0-4.5-4.5c-1.33-.33-6-1.42-9.75-2.26" fill="none" stroke="#333" stroke-linecap="round" stroke-linejoin="round" stroke-width="1.5"/>
              <path d="M44.39,22v-2.2c0-5.95-2.09-12.08-11-12.08s-11,6.13-11,12.09V22c-.09,0-3.29,0-2.2,5.49a4.27,4.27,0,0,0,3.29,3.29c0,3.9,1.1,4.39,4.81,8.21,1.43,1.82,3.17,1.67,5.07,1.67S37,40.85,38.43,39c3.75-3.82,4.85-4.31,4.85-8.21a4.27,4.27,0,0,0,3.29-3.29C47.68,22,44.48,22,44.39,22Z" fill="#eed1c9"/>
              <path d="M25,29.72a3.66,3.66,0,0,1-1.52-3.29V23.74a2.46,2.46,0,0,0-1.46-1.65c-.83.17-2.72,1-1.83,5.45a4.27,4.27,0,0,0,3.29,3.29c0,3.3.8,4.17,3.29,6.68V34.13A5.21,5.21,0,0,0,25,29.72Z" fill="#e5c2ba"/>
              <path d="M46.59,27.52C47.69,22,44.48,22,44.39,22v-2.2c0-5.95-2.09-12.08-11-12.08a15.66,15.66,0,0,0-2.9.28V20a3.89,3.89,0,0,1-1.27,2.88.46.46,0,0,0,0,.64.41.41,0,0,0,.23.13c1.5.43,2.3.71,3.23.47.31-.08.86.27.86.59v1.57a1.67,1.67,0,0,0,.64,1.4,1.1,1.1,0,0,1-.64,2c-.81,0-1.1-.55-2.2-.55-.65,0-.55.85-.57.82a2.5,2.5,0,0,1,1.1.29,3.28,3.28,0,0,0,1.65.43V34a1.9,1.9,0,0,0,1.25,1.76,1.56,1.56,0,0,1,.94,1.63c0,3-5.43-.3-5.43,3h0a9.62,9.62,0,0,0,3.16.29c1.9,0,3.65.15,5.07-1.67,3.71-3.84,4.8-4.33,4.8-8.23A4.29,4.29,0,0,0,46.59,27.52Z" fill="#e5c2ba"/>
              <path d="M44.42,22a2.18,2.18,0,0,0-1.14,1.86v2.53a3.66,3.66,0,0,1-1.52,3.29A5.24,5.24,0,0,0,40,34.11v3.38c2.5-2.51,3.29-3.38,3.29-6.68a4.27,4.27,0,0,0,3.29-3.29C47.65,22.21,44.69,22,44.42,22Z" fill="#d8b3ad"/>
              <path d="M44.44,21h-21v4.74a3.42,3.42,0,0,0,3.43,3.43h2.92a3.2,3.2,0,0,0,1.71-.4A4.78,4.78,0,0,1,33.92,28a4.78,4.78,0,0,1,2.42.86,3.18,3.18,0,0,0,1.71.4H41a3.43,3.43,0,0,0,3.43-3.43h0Z" fill="#d8b3ad"/>
              <path d="M44.39,22v-2.2c0-5.95-2.09-12.08-11-12.08s-11,6.13-11,12.09V22c-.09,0-3.29,0-2.2,5.49a4.27,4.27,0,0,0,3.29,3.29c0,3.9,1.1,4.39,4.81,8.21,1.43,1.82,3.17,1.67,5.07,1.67S37,40.85,38.43,39c3.75-3.82,4.85-4.31,4.85-8.21a4.27,4.27,0,0,0,3.29-3.29C47.68,22,44.48,22,44.39,22Z" fill="none" stroke="#333" stroke-linejoin="round" stroke-width="1.5"/>
              <line x1="33.39" y1="30.68" x2="33.39" y2="31.68" fill="none" stroke="#ddb7b1" stroke-linecap="round" stroke-miterlimit="10" stroke-width="0.75"/>
              <line x1="32.47" y1="35.5" x2="34.47" y2="35.5" fill="none" stroke="#ddb7b1" stroke-linecap="round" stroke-miterlimit="10" stroke-width="0.75"/>
              <line x1="33.26" y1="38.45" x2="33.51" y2="38.45" fill="none" stroke="#ddb7b1" stroke-linecap="round" stroke-miterlimit="10" stroke-width="0.75"/>
              <path d="M34.75,32.54a2.94,2.94,0,0,0-1.18.13.61.61,0,0,1-.42,0A2.94,2.94,0,0,0,32,32.54c-.67.1-.74.52-2.09,1.25l1.19.73a2.21,2.21,0,0,0,1.27.41h2.07a2.16,2.16,0,0,0,1.27-.41l1.23-.7C35.55,33.09,35.42,32.63,34.75,32.54Z" fill="#d6b3b0"/>
              <path d="M36.9,33.82c-1,0-1.26-.39-2.24-.39a7.85,7.85,0,0,0-1.29.17,8,8,0,0,0-1.29-.17c-.94,0-1.15.36-2.21.36" fill="none" stroke="#af8582" stroke-linecap="round" stroke-miterlimit="10" stroke-width="0.6"/>
              <path d="M30.69,29.79a2.72,2.72,0,0,1,1.31.34h0a2.75,2.75,0,0,0,2.61,0h0a2.84,2.84,0,0,1,1.31-.34" fill="none" stroke="#af8582" stroke-linecap="round" stroke-miterlimit="10" stroke-width="0.75"/>
              <path d="M33.41,7.76c-8.89,0-11,6.13-11,12.08v2.82a12.71,12.71,0,0,1,1.4,4,1.22,1.22,0,0,0,1-1.19V21.14a7.8,7.8,0,0,0-.28-2.3A2.68,2.68,0,0,1,25,16.39c1.26-1.35,4.44-1.45,6.66.32l.75.61c2.14,1.72,3.85,3.11,6.85,3.11H42v5.15A1.3,1.3,0,0,0,43,26.83a9,9,0,0,1,1.39-4v-3C44.39,13.88,42.28,7.76,33.41,7.76Z" fill="#e5c2ba"/>
              <path d="M30.49,8h0v8c3.8,1.78,2.73,4.44,11.58,4.44v5.15A1.3,1.3,0,0,0,43,26.88a9,9,0,0,1,1.39-4c0-2.32,1.11-12-6.66-14.48A15.88,15.88,0,0,0,30.49,8Z" fill="#d8b3ad"/>
              <path d="M40.57,9.92c.47,0,1.19-.24,1.64-.2C39.28,6.85,28,4.92,24.82,11.17c-7.87,2.7-1,12.5-1,15.5V21.09a7.16,7.16,0,0,0-.24-2,3.66,3.66,0,0,1,.7-3.42c1.77-1.77,5.5-1.75,8,.25s4,3.5,7,3.5H43V26.9c0-3.08,1.5-4,3-7.23C48.07,15.33,44.08,11.71,40.57,9.92Z" fill="#ad9a76"/>
              <path d="M24.82,11.17a6.25,6.25,0,0,0-2.23,1.26h0c-2.52,2.28-1.46,6.16-.31,9.37h0c-1.23-6-.41-9.56,7.65-9.56,0,0-1-.41-1.86-.72a22.31,22.31,0,0,1,6.37-.36,24.59,24.59,0,0,0-4.34-.81c3.09-.71,5.2-.44,8.37,0a22.89,22.89,0,0,0-7.7-1.2H30.7c3.66-.92,8.09-.16,11.48.54C38.94,6.49,27.75,5.3,24.82,11.17Z" fill="#bead87"/>
              <path d="M23.56,26.67,23.5,21a6.3,6.3,0,0,0-.22-1.55,6.34,6.34,0,0,1-.21-.86,4.71,4.71,0,0,1,0-.92,3.74,3.74,0,0,1,.54-1.8A4,4,0,0,1,25,14.63a7,7,0,0,1,7,.4,13.19,13.19,0,0,1,1.28,1.07c.43.36.86.72,1.3,1.06a8.77,8.77,0,0,0,2.78,1.6,10.73,10.73,0,0,0,3.24.32l3.38.09a.26.26,0,0,1,.25.26.25.25,0,0,1-.25.25l-3.38.09a11.25,11.25,0,0,1-3.47-.23c-2.37-.64-4-2.5-5.78-3.65a6.37,6.37,0,0,0-6-.47,3.08,3.08,0,0,0-1.11,1,2.94,2.94,0,0,0-.46,1.4,4.3,4.3,0,0,0,.16,1.56,7.54,7.54,0,0,1,.12,1.77l0,5.57a.26.26,0,0,1-.26.25A.25.25,0,0,1,23.56,26.67Z" fill="#9f8b6b"/>
              <path d="M42.72,26.9a7,7,0,0,1,.41-2.64,15.27,15.27,0,0,1,1.15-2.33,22.09,22.09,0,0,0,1.16-2.21A5.42,5.42,0,0,0,46,17.48a6,6,0,0,0-1.86-4.14,14.4,14.4,0,0,0-3.87-2.83.66.66,0,0,1-.3-.88.68.68,0,0,1,.61-.37h0a3.76,3.76,0,0,0,.66-.1,4.46,4.46,0,0,1,1-.12l-.54,1.16a9.92,9.92,0,0,0-4-1.86,18.27,18.27,0,0,0-4.6-.55,12.33,12.33,0,0,0-4.45.84,6.28,6.28,0,0,0-3.21,2.84h0a.61.61,0,0,1-.37.32,4.77,4.77,0,0,0-3,2.34,6.76,6.76,0,0,0-.29,4A26,26,0,0,0,23,22.29l.72,2.1a8.09,8.09,0,0,1,.49,2.27.34.34,0,0,1-.33.35h0a.36.36,0,0,1-.35-.32h0a7.82,7.82,0,0,0-.55-2l-.81-2.05a26.34,26.34,0,0,1-1.37-4.28A7.88,7.88,0,0,1,21,13.68a5.06,5.06,0,0,1,1.52-2,8.1,8.1,0,0,1,2.12-1.16l-.38.33a7.65,7.65,0,0,1,3.82-3.58,13,13,0,0,1,5-1,18.72,18.72,0,0,1,5,.62,11.36,11.36,0,0,1,4.62,2.33h0a.67.67,0,0,1,0,.94.63.63,0,0,1-.59.21,2.72,2.72,0,0,0-.63.08,3.74,3.74,0,0,1-1,.11l.33-1.25a15.54,15.54,0,0,1,4.22,3.2,7.08,7.08,0,0,1,2,5,6.35,6.35,0,0,1-.73,2.64,20.87,20.87,0,0,1-1.3,2.25,13.83,13.83,0,0,0-1.22,2.15,6.56,6.56,0,0,0-.47,2.35.35.35,0,0,1-.35.34A.36.36,0,0,1,42.72,26.9Z" fill="#333"/>
              <path d="M31,12.62A7.61,7.61,0,0,1,35.88,14c.7.47,1.31,1,1.93,1.42s1.31.84,2,1.31a5.07,5.07,0,0,1-2.53-.32,10,10,0,0,1-2.22-1.21c-.66-.45-1.29-.86-2-1.28A21.36,21.36,0,0,1,31,12.62Z" fill="#9f8b6b"/>
              <path d="M30.91,29.79a2.83,2.83,0,0,1,1.25.32h0a2.58,2.58,0,0,0,2.5,0h0a2.83,2.83,0,0,1,1.25-.32" fill="none" stroke="#af8582" stroke-linecap="round" stroke-miterlimit="10" stroke-width="0.75"/>
              <polygon points="58.79 13.54 58.79 9.42 55.22 7.36 51.65 9.42 51.65 13.54 55.22 15.6 58.79 13.54" fill="none" stroke="#000" stroke-miterlimit="10"/>
              <line x1="55.22" y1="7.36" x2="55.22" y2="5.04" fill="none" stroke="#000" stroke-miterlimit="10"/>
              <line x1="51.65" y1="9.42" x2="49.64" y2="8.26" fill="none" stroke="#000" stroke-miterlimit="10"/>
              <line x1="58.79" y1="13.54" x2="60.8" y2="14.7" fill="none" stroke="#000" stroke-miterlimit="10"/>
              <line x1="58.79" y1="9.42" x2="60.8" y2="8.26" fill="none" stroke="#000" stroke-miterlimit="10"/>
              <line x1="51.65" y1="13.54" x2="49.64" y2="14.7" fill="none" stroke="#000" stroke-miterlimit="10"/>
              <line x1="55.22" y1="15.6" x2="55.22" y2="17.92" fill="none" stroke="#000" stroke-miterlimit="10"/>
              <polyline points="15.22 15.12 13.4 18.28 15.22 21.44" fill="none" stroke="#000" stroke-miterlimit="10"/>
              <polygon points="13.4 11.96 9.75 11.96 7.93 15.12 9.75 18.28 13.4 18.28 15.22 15.12 13.4 11.96" fill="none" stroke="#000" stroke-miterlimit="10"/>
              <polyline points="7.93 21.44 9.75 18.28 7.93 15.12" fill="none" stroke="#000" stroke-miterlimit="10"/>
              <line x1="7.93" y1="8.8" x2="4.28" y2="8.8" fill="none" stroke="#000" stroke-miterlimit="10"/>
              <polyline points="9.75 5.64 7.93 8.8 9.75 11.96 13.4 11.96 15.22 8.8" fill="none" stroke="#000" stroke-miterlimit="10"/>
              <path d="M25.42,30.2a22.92,22.92,0,0,1-3.75-9.3" fill="#fff" stroke="#333" stroke-linecap="round" stroke-linejoin="round" stroke-width="1.5"/>
              <path d="M41.54,30.2a22.92,22.92,0,0,0,3.75-9.3" fill="#fff" stroke="#333" stroke-linecap="round" stroke-linejoin="round" stroke-width="1.5"/>
              <path d="M44,20.72H23v4.74a3.42,3.42,0,0,0,3.43,3.43h2.92a3.2,3.2,0,0,0,1.71-.4,4.78,4.78,0,0,1,2.42-.86,4.78,4.78,0,0,1,2.42.86,3.18,3.18,0,0,0,1.71.4h2.92a3.43,3.43,0,0,0,3.43-3.43h0V20.72Z" fill="#98a4bf"/>
              <path d="M44,20.72H30.42a3.85,3.85,0,0,1-1.2,2.19.46.46,0,0,0,0,.64.41.41,0,0,0,.23.13c1.5.43,2.3.71,3.23.47.31-.08.86.27.86.59v1.57a1.68,1.68,0,0,0,.62,1.38,6.27,6.27,0,0,1,1.77.79,3.18,3.18,0,0,0,1.71.4h2.92A3.43,3.43,0,0,0,44,25.45h0Z" fill="#8f9db5"/>
              <rect x="22.99" y="20.07" width="20.97" height="1.3" fill="#6592e0" stroke="#6592e0" stroke-linejoin="round" stroke-width="1.13"/>
              <circle cx="29.11" cy="24.88" r="0.65" fill="#77859e"/>
              <circle cx="38.07" cy="24.88" r="0.65" fill="#77859e"/>
              <path d="M25.75,23a5.21,5.21,0,0,1,1.47-.64,5.93,5.93,0,0,1,1.63-.14,4.8,4.8,0,0,1,1.52.47c.47.21.9.48,1.29.69h0a.34.34,0,0,1,.13.46h0a.33.33,0,0,1-.31.18A9.82,9.82,0,0,1,30,23.9c-.47-.07-.92-.09-1.34-.16a9.23,9.23,0,0,0-1.3-.15,12.75,12.75,0,0,0-1.38.07h0a.36.36,0,0,1-.38-.32A.43.43,0,0,1,25.75,23Z" fill="#77859e"/>
              <path d="M40.69,23.67a13.31,13.31,0,0,0-1.41-.07,9.41,9.41,0,0,0-1.3.15c-.43.07-.87.08-1.34.16a9.69,9.69,0,0,1-1.52.17.35.35,0,0,1-.35-.35.37.37,0,0,1,.18-.31h0c.38-.21.82-.48,1.29-.69a4.8,4.8,0,0,1,1.52-.47,5.93,5.93,0,0,1,1.63.14,5.21,5.21,0,0,1,1.47.64.34.34,0,0,1,.11.47h0a.34.34,0,0,1-.32.16Z" fill="#77859e"/>
            </g>
          </g>
        </g>
      </g>
      <g id="a08056bf-d7ec-4a6b-b48b-fca77bf2f65a">
        <path d="M39.18,28.24a5.46,5.46,0,0,1,1.64,8.38c-.86,1-6.73,9.73-14.95,0a5.44,5.44,0,0,1,.64-7.68,5.26,5.26,0,0,1,1-.68l4.53-2.35a2.88,2.88,0,0,1,2.62,0Z" fill="#fff"/>
        <line x1="24.58" y1="32.97" x2="22.94" y2="32.06" fill="none" stroke="#333" stroke-linecap="round" stroke-linejoin="round" stroke-width="1.5"/>
        <line x1="42.38" y1="32.97" x2="44.02" y2="32.06" fill="none" stroke="#333" stroke-linecap="round" stroke-linejoin="round" stroke-width="1.5"/>
        <path d="M39.18,28.24,34.67,25.9a2.88,2.88,0,0,0-2.62,0l-4.53,2.35a5.4,5.4,0,0,0-2.77,3.52A5.46,5.46,0,0,0,25.87,34c8.22,9.74,14.1,1,15,0A5.4,5.4,0,0,0,42,31.77,5.42,5.42,0,0,0,39.18,28.24Z" fill="#fff"/>
        <path d="M39.18,28.24,34.67,25.9a3,3,0,0,0-1.18-.3h0v8c0,2.06,2.2,1.61.86,4.11-2,3.84-7.08-2.89-7.08.41,0,.11,3,2.09,2.95,2.2,5.9,3.07,9.92-2.86,10.62-3.68a5.45,5.45,0,0,0-.61-7.68A5.66,5.66,0,0,0,39.18,28.24Z" fill="#eee"/>
        <path d="M24.78,31.68A19.08,19.08,0,0,0,33.49,34a17.28,17.28,0,0,0,8.45-2.27" fill="none" stroke="#ddd" stroke-miterlimit="10"/>
        <path d="M24.78,33.9a19,19,0,0,0,8.71,2.28,17.29,17.29,0,0,0,8.45-2.28" fill="none" stroke="#ddd" stroke-miterlimit="10"/>
        <path d="M39.18,28.24a5.46,5.46,0,0,1,1.64,8.38c-.86,1-6.73,9.73-14.95,0a5.44,5.44,0,0,1,.64-7.68,5.26,5.26,0,0,1,1-.68l4.53-2.35a2.88,2.88,0,0,1,2.62,0Z" fill="none" stroke="#333" stroke-linejoin="round" stroke-width="1.5"/>
      </g>
    </g>
  </g>
</svg>
