<svg xmlns="http://www.w3.org/2000/svg" viewBox="0 0 64 64">
  <g id="pharmacist-black-male-coronavirus">
    <g>
      <g id="bd0bfed9-2f3c-4927-a9a3-28d1fd9617c9">
        <g id="a2005900-e75a-4e95-a64b-03e6c5d7131f">
          <g id="a85569f8-f8a8-442a-a383-33fb293e006b">
            <g id="f1cfeb4c-6b60-4fab-8154-5c0c709eb386">
              <path d="M9.24,37.42h0a2.12,2.12,0,0,1-2.08-2.08V31.1a2.11,2.11,0,0,1,2.08-2.05h0a2.12,2.12,0,0,1,2.08,2.08v4.24A2.13,2.13,0,0,1,9.24,37.42Z" fill="#c66161"/>
              <path d="M9.24,29.05a2.12,2.12,0,0,0-2.08,2.08v2.12h4.16V31.1A2.12,2.12,0,0,0,9.24,29.05Z" fill="#4ba6dd"/>
              <path d="M8.78,31.83v4.22a2,2,0,0,0,.52,1.34,2.14,2.14,0,0,0,2-2.07V31.1a2,2,0,0,0-.52-1.34A2.09,2.09,0,0,0,8.78,31.83Z" fill="#b74242"/>
              <path d="M8.78,31.83v1.39h2.54V31.1a2,2,0,0,0-.52-1.34A2.09,2.09,0,0,0,8.78,31.83Z" fill="#2f8dd3"/>
              <path d="M56.53,48a5.64,5.64,0,0,0-4.5-4.5c-1.33-.33-4.71-1.16-8.5-2-1.84-.41-3.7-.72-5.56-1V35.94H23v4.55a45,45,0,0,0-5.42,1L9,43.49A5.64,5.64,0,0,0,4.53,48L4,50.46A65.29,65.29,0,0,0,30.56,56,65.34,65.34,0,0,0,57,50.46Z" fill="#957058"/>
              <line x1="22.97" y1="35.94" x2="22.97" y2="41.89" fill="none" stroke="#333" stroke-linejoin="round" stroke-width="1.5"/>
              <line x1="37.97" y1="35.94" x2="37.97" y2="41.89" fill="none" stroke="#333" stroke-linejoin="round" stroke-width="1.5"/>
              <path d="M56.53,48a5.64,5.64,0,0,0-4.5-4.5c-9.5-2.41-12.44-2.82-15.67-3.15a14.9,14.9,0,0,1-4.76,3.24H29.41a15.08,15.08,0,0,1-4.75-3.26c-2.39.24-4.86.47-15.63,3.17A5.64,5.64,0,0,0,4.53,48L4,50.46A65.29,65.29,0,0,0,30.56,56,65.34,65.34,0,0,0,57,50.46Z" fill="#eee"/>
              <path d="M52,47.05c-19.23-4.81-25.16-4.47-43,0a6.64,6.64,0,0,0-4.7,3.55A66.42,66.42,0,0,0,30.56,56a66.69,66.69,0,0,0,26.17-5.35A6.66,6.66,0,0,0,52,47.05Z" fill="#ddd"/>
              <path d="M36.4,40.28a15.14,15.14,0,0,1-4.79,3.28H29.42a15.24,15.24,0,0,1-4.75-3.26c-1.12.1-2.23.21-3.34.36.2,6.71,1.08,11,2.93,15h0c2,.19,4.23.3,6.31.3h0c2,0,4.12-.1,6.24-.3h0c1.84-3.94,2.73-8.28,2.93-15C38.52,40.48,37.4,40.37,36.4,40.28Z" fill="#bcdaf7"/>
              <path d="M30.56,56q2.44,0,4.83-.18c-2.85-8.73-2.36-7.36-2.8-8.53l1.57-2.07a1.22,1.22,0,0,0,0-1.43,1.27,1.27,0,0,0-1.07-.53H29.85a1.23,1.23,0,0,0-1.14.78,1.29,1.29,0,0,0,.21,1.24l1.5,2-3,8.64C28.46,55.93,29.51,56,30.56,56Z" fill="#91acc1"/>
              <path d="M36.37,49.33l.64.85a.52.52,0,0,0,.19.14.51.51,0,0,0,.65-.28h0L40,41.28Z" fill="#91acc1"/>
              <path id="aaf21746-44b4-49f5-af8d-e90e33428691" d="M29.41,43.55l-4.53,5.86s.19.32.41.72c.34.63.73.17.74.16.56-.74,4.51-6.31,4.51-6.31Z" fill="#91acc1"/>
              <path id="bfdfc954-a055-43d6-87fa-7db2907bba42" d="M28,44.88l1.82,2.42a.83.83,0,0,0,1.15.17h0l.16-.16L33,44.88a.83.83,0,0,0-.17-1.16h0a.72.72,0,0,0-.49-.16H28.71a.83.83,0,0,0-.85.8h0A.87.87,0,0,0,28,44.88Z" fill="#5e748e"/>
              <path d="M28.71,43.56h-.08l1.23,1.63a.84.84,0,0,0,1.15.18l0,0,.16-.16,1.23-1.63Z" fill="#475b77"/>
              <path id="a897e40e-33b5-4a7e-b658-e6a6ca7cfdfa" d="M28,44.88l1.82,2.42a.83.83,0,0,0,1.15.17h0l.16-.16L33,44.88a.83.83,0,0,0-.17-1.16h0a.72.72,0,0,0-.49-.16H28.71a.83.83,0,0,0-.85.8h0A.87.87,0,0,0,28,44.88Z" fill="none" stroke="#333" stroke-linejoin="round"/>
              <path d="M27,55.87c1.18.06,2.37.1,3.57.1s2.37,0,3.54-.09l-2.95-8.52H29.92Z" fill="#5e748e"/>
              <path d="M28.48,55.93h2.05c1.15,0,2.44,0,3.57-.09l-3-8.52H29.91l-.33,1h0a.93.93,0,0,1,1,.9h0v0Z" fill="#475b77"/>
              <path d="M27,55.87c1.12.06,2.43.1,3.57.1s2.44,0,3.54-.09l-2.95-8.52H29.92Z" fill="none" stroke="#333" stroke-linejoin="round"/>
              <path id="a9c16800-cde5-4a77-878f-589ac8fc35a1" d="M22.43,37.4,21,41.31l3.75,8.26,4.66-6A15,15,0,0,1,22.43,37.4Z" fill="#bcdaf7"/>
              <path id="a33bb2ed-95e0-40b7-a51c-8c9d6833bbd6" d="M29.41,43.55a14.83,14.83,0,0,1-7-6.16L21,41.3l3.75,8.26,4.65-6" fill="none" stroke="#333" stroke-linecap="round" stroke-linejoin="round" stroke-width="1.5"/>
              <path id="f440b428-ba28-4213-b6eb-be8b9b4cf1b9" d="M38.64,37.4,40,41.28l-3.76,8.27-4.66-6A15,15,0,0,0,38.64,37.4Z" fill="#bcdaf7"/>
              <path id="e08b3ce1-49c3-4ddd-9d84-840b9d53ecb7" d="M31.6,43.56a15,15,0,0,0,7-6.15L40,41.29l-3.79,8.27-4.66-6" fill="none" stroke="#333" stroke-linecap="round" stroke-linejoin="round" stroke-width="1.5"/>
              <path d="M21.28,39,14.6,44.64l3.86,2.72-2.7,3.5,4.57,4.3c1.25.2,2.55.36,3.91.5C22.25,51.38,21.37,46.67,21.28,39Z" fill="#ddd" stroke="#333" stroke-linejoin="round" stroke-width="1.53"/>
              <path d="M39.65,39l6.68,5.67-3.86,2.72,2.7,3.5-4.57,4.3c-1.25.2-2.55.36-3.91.5C38.68,51.38,39.56,46.67,39.65,39Z" fill="#ddd" stroke="#333" stroke-linejoin="round" stroke-width="1.53"/>
              <path d="M18.64,41.21C15,42.05,10.51,43.05,9,43.46A5.64,5.64,0,0,0,4.53,48L4,50.46A65.29,65.29,0,0,0,30.56,56,65.34,65.34,0,0,0,57,50.46l-.5-2.5a5.64,5.64,0,0,0-4.5-4.5c-1.33-.33-6-1.42-9.75-2.26" fill="none" stroke="#333" stroke-linecap="round" stroke-linejoin="round" stroke-width="1.5"/>
              <path d="M9.24,37.42h0a2.12,2.12,0,0,1-2.08-2.08V31.1a2.11,2.11,0,0,1,2.08-2.05h0a2.12,2.12,0,0,1,2.08,2.08v4.24A2.13,2.13,0,0,1,9.24,37.42Z" fill="none" stroke="#333" stroke-linejoin="round"/>
              <circle cx="51.46" cy="33.18" r="3.04" fill="#ddd"/>
              <line x1="53.61" y1="31.03" x2="49.31" y2="35.33" fill="none" stroke="#aaa" stroke-linejoin="round"/>
              <line x1="54.1" y1="31.29" x2="49.8" y2="35.59" fill="none" stroke="#eee" stroke-linejoin="round" stroke-width="0.5"/>
              <circle cx="51.46" cy="33.18" r="3.04" fill="none" stroke="#333" stroke-linejoin="round"/>
              <path d="M41.45,21.28V19.05c0-6-2.09-12.08-11-12.08s-11,6.13-11,12.08v2.2c-.09,0-3.29,0-2.2,5.49a4.29,4.29,0,0,0,3.33,3.31c0,3.9,1.1,4.39,4.81,8.21,1.43,1.82,3.17,1.67,5.07,1.67s3.65.15,5.07-1.67c3.71-3.82,4.81-4.31,4.81-8.21a4.28,4.28,0,0,0,3.29-3.29C44.74,21.28,41.54,21.24,41.45,21.28Z" fill="#a68064"/>
              <path d="M43.64,26.77c1.1-5.49-2.11-5.52-2.2-5.49V19.05c0-6-2.09-12.08-11-12.08a15,15,0,0,0-2.92.26v12a3.91,3.91,0,0,1-1.27,2.88.44.44,0,0,0,0,.63.49.49,0,0,0,.23.14c1.5.43,2.3.71,3.23.47.31-.08.86.27.86.59v1.57a1.7,1.7,0,0,0,.64,1.4,1.09,1.09,0,0,1,.27,1.53,1.13,1.13,0,0,1-.91.47c-.81,0-1.1-.55-2.2-.55-.65,0-.55.85-.57.82a2.26,2.26,0,0,1,1.1.29,3.38,3.38,0,0,0,1.65.43v3.31a1.91,1.91,0,0,0,1.27,1.84,1.54,1.54,0,0,1,.94,1.63c0,3-5.43-.3-5.43,3h0a10.19,10.19,0,0,0,3.16.29c1.9,0,3.65.15,5.07-1.67,3.71-3.82,4.81-4.31,4.81-8.21A4.3,4.3,0,0,0,43.64,26.77Z" fill="#9b775c"/>
              <path d="M39.72,22.41a21.61,21.61,0,0,0-4.47-.26,14.48,14.48,0,0,0-4.18.71H31a2.41,2.41,0,0,0-1,0l-.09-.05a13.77,13.77,0,0,0-4.17-.71,21.67,21.67,0,0,0-4.48.26.51.51,0,0,0-.42.5v.67a.53.53,0,0,0,.19.52l.27.18a9.25,9.25,0,0,0,.36,2.08.61.61,0,0,0,.23.3,9.32,9.32,0,0,0,3.07.78,10.71,10.71,0,0,0,1.39.12,8.93,8.93,0,0,0,2.3-.32.52.52,0,0,0,.31-.27s.24-.5.57-1.4c.27-.72.43-1.22.54-1.54a1.4,1.4,0,0,1,.81,0c.1.32.27.83.54,1.56.33.89.56,1.37.57,1.39a.55.55,0,0,0,.31.27,8.59,8.59,0,0,0,2.31.32A10.39,10.39,0,0,0,36,27.41,9.61,9.61,0,0,0,39,26.57a.52.52,0,0,0,.23-.3,9.25,9.25,0,0,0,.36-2.08L39.9,24a.52.52,0,0,0,.22-.42v-.67A.51.51,0,0,0,39.72,22.41Z" fill="#957058"/>
              <path d="M22.1,29a3.68,3.68,0,0,1-1.52-3.29V23a2.44,2.44,0,0,0-1.46-1.65c-.83.17-2.72,1-1.83,5.45a4.29,4.29,0,0,0,3.29,3.27c0,3.3.8,4.17,3.29,6.68V33.37A5.23,5.23,0,0,0,22.1,29Z" fill="#9b775c"/>
              <path d="M41.47,21.27a2.18,2.18,0,0,0-1.12,1.87v2.53A3.66,3.66,0,0,1,38.83,29,5.21,5.21,0,0,0,37,33.35v3.38c2.5-2.51,3.29-3.38,3.29-6.68a4.28,4.28,0,0,0,3.29-3.29C44.71,21.45,41.75,21.25,41.47,21.27Z" fill="#957058"/>
              <path d="M41.45,21.28V19.05c0-6-2.09-12.08-11-12.08s-11,6.13-11,12.08v2.2c-.09,0-3.29,0-2.2,5.49a4.29,4.29,0,0,0,3.33,3.31c0,3.9,1.1,4.39,4.81,8.21,1.43,1.82,3.17,1.67,5.07,1.67s3.65.15,5.07-1.67c3.71-3.82,4.81-4.31,4.81-8.21a4.28,4.28,0,0,0,3.29-3.29C44.74,21.28,41.54,21.24,41.45,21.28Z" fill="none" stroke="#333" stroke-linejoin="round" stroke-width="1.5"/>
              <line x1="30.47" y1="29.93" x2="30.47" y2="30.93" fill="none" stroke="#977059" stroke-linecap="round" stroke-miterlimit="10" stroke-width="0.75"/>
              <line x1="29.47" y1="34.99" x2="31.47" y2="34.99" fill="none" stroke="#977059" stroke-linecap="round" stroke-miterlimit="10" stroke-width="0.75"/>
              <line x1="30.34" y1="37.7" x2="30.59" y2="37.7" fill="none" stroke="#977059" stroke-linecap="round" stroke-miterlimit="10" stroke-width="0.75"/>
              <path d="M31.83,31.78a2.78,2.78,0,0,0-1.18.13.61.61,0,0,1-.42,0,2.73,2.73,0,0,0-1.2-.13c-.67.1-.74.52-2.09,1.25l1.19.73a2.29,2.29,0,0,0,1.27.41h2.07a2.31,2.31,0,0,0,1.27-.41L34,33.05C32.63,32.33,32.5,31.88,31.83,31.78Z" fill="#957058"/>
              <path d="M34,33.05c-1,0-1.26-.39-2.24-.39a6.16,6.16,0,0,0-1.29.17,6.25,6.25,0,0,0-1.29-.17c-.94,0-1.15.36-2.21.36" fill="none" stroke="#674848" stroke-linecap="round" stroke-miterlimit="10" stroke-width="0.75"/>
              <path d="M27.74,29.05a2.51,2.51,0,0,1,1.31.34h0a2.8,2.8,0,0,0,2.61,0h0A2.61,2.61,0,0,1,33,29.05" fill="none" stroke="#674848" stroke-linecap="round" stroke-miterlimit="10" stroke-width="0.75"/>
              <path d="M22.85,21.4a5.78,5.78,0,0,1,1.45-.55,5.24,5.24,0,0,1,1.58-.09,9.4,9.4,0,0,1,2.82,1h0a.23.23,0,0,1,.12.3.24.24,0,0,1-.23.14,14.77,14.77,0,0,1-1.48-.26c-.47-.09-.93-.14-1.37-.21a7.07,7.07,0,0,0-2.75.06h0a.24.24,0,0,1-.27-.18A.23.23,0,0,1,22.85,21.4Z" fill="#333"/>
              <path d="M37.79,21.82A7.13,7.13,0,0,0,35,21.76c-.45.07-.9.12-1.37.21a14.77,14.77,0,0,1-1.48.26.22.22,0,0,1-.24-.2v0a.23.23,0,0,1,.14-.23h0a9.4,9.4,0,0,1,2.82-1,6,6,0,0,1,1.58.09,5,5,0,0,1,1.45.55.23.23,0,0,1,.09.31.25.25,0,0,1-.26.12Z" fill="#333"/>
              <path d="M40,24.79c0-3,1.69-3.38,1.69-3.38.43-3,.89-4.88.17-7.43-1.25-4.37-5.27-7.19-11.44-7.19S20.62,9.61,19.37,14c-.7,2.46-.31,4.15.17,7.43,0,0,1.5.35,1.5,3.38,0-2.6-.09-3.9.81-5a1,1,0,0,0,.19-.6V16.94a2.1,2.1,0,0,1,1.39-2,22.14,22.14,0,0,1,7.11-1.36,22.14,22.14,0,0,1,7.11,1.36,2.1,2.1,0,0,1,1.39,2v2.21a1,1,0,0,0,.19.6C40.24,21.34,40,22.48,40,24.79Z" fill="#333"/>
              <path d="M36.56,8a14.66,14.66,0,0,0-6.09-1.17c-6.17,0-9.83,2.82-11.08,7.19-.7,2.46-.31,4.15.17,7.43,0,0,1.2.29,1.45,2.51v-5C21,7.05,32.56,7.28,36.56,8Z" fill="#444"/>
              <path d="M20.71,24.79c0-.75-.07-1.49-.07-2.26A5.65,5.65,0,0,1,21,20.15a3.36,3.36,0,0,1,.31-.56l.09-.13V19.4a.28.28,0,0,0,0-.13.38.38,0,0,0,0-.15v-2a2.81,2.81,0,0,1,.21-1.35,2.74,2.74,0,0,1,.89-1.13,2.66,2.66,0,0,1,.64-.35l.54-.2a22.23,22.23,0,0,1,6.8-1.31,19.36,19.36,0,0,1,4.6.61c.75.19,1.49.42,2.21.68l.54.2a2.35,2.35,0,0,1,.64.35,2.64,2.64,0,0,1,.9,1.13,2.81,2.81,0,0,1,.21,1.35v2.12c0,.08.31.54.45.9a5.47,5.47,0,0,1,.45,2.37c0,.77-.07,1.51-.09,2.26a.34.34,0,0,1-.4.28.34.34,0,0,1-.29-.28h0c-.08-1.5.06-3-.57-4.2a4.41,4.41,0,0,0-.25-.43,1.88,1.88,0,0,1-.32-.65,2.67,2.67,0,0,1,0-.4v-2a1.67,1.67,0,0,0-.16-.83,1.28,1.28,0,0,0-.51-.57,1.23,1.23,0,0,0-.35-.16l-.52-.17a19.07,19.07,0,0,0-2.1-.55,23.71,23.71,0,0,0-4.27-.51,22.82,22.82,0,0,0-4.28.49,19.11,19.11,0,0,0-2.1.56l-.52.17a1,1,0,0,0-.35.17,1.44,1.44,0,0,0-.51.58,1.73,1.73,0,0,0-.16.84v2a1.9,1.9,0,0,1-.05.4,1.61,1.61,0,0,1-.16.39l-.12.17-.08.1a1.8,1.8,0,0,0-.25.4,5,5,0,0,0-.45,2c0,.73-.06,1.48-.09,2.23a.35.35,0,0,1-.35.33h0a.38.38,0,0,1-.48-.22A.68.68,0,0,1,20.71,24.79Z" fill="#333"/>
              <path d="M20.71,24.79A5.2,5.2,0,0,0,20.4,23a2.45,2.45,0,0,0-.37-.74,1.2,1.2,0,0,0-.54-.41.47.47,0,0,1-.33-.36,25.38,25.38,0,0,1-.62-5.55,10.68,10.68,0,0,1,1.89-5.41A10,10,0,0,1,25,7.05a15.09,15.09,0,0,1,5.64-1,15.48,15.48,0,0,1,5.63,1,10.41,10.41,0,0,1,4.64,3.46,10.11,10.11,0,0,1,1.92,5.43,26.67,26.67,0,0,1-.62,5.55.49.49,0,0,1-.35.38h0a1.4,1.4,0,0,0-.62.39,2.3,2.3,0,0,0-.47.72,5,5,0,0,0-.36,1.83.35.35,0,0,1-.35.34.34.34,0,0,1-.34-.34A5.52,5.52,0,0,1,40,22.67a2.79,2.79,0,0,1,.58-1,2.16,2.16,0,0,1,1.06-.7l-.35.38a26.17,26.17,0,0,0,.38-5.3,8.74,8.74,0,0,0-6-7.59,15.18,15.18,0,0,0-5.12-.87,14.89,14.89,0,0,0-5.13.76,8.7,8.7,0,0,0-4.09,2.93,9.54,9.54,0,0,0-1.8,4.77A30.56,30.56,0,0,0,20,21.36l-.38-.31a2,2,0,0,1,1,.75,3.11,3.11,0,0,1,.49,1,6.2,6.2,0,0,1,.25,2.06.36.36,0,0,1-.35.34.37.37,0,0,1-.33-.35Z" fill="#333"/>
              <path d="M38.94,22.45a19,19,0,0,0-7.87.51,30.34,30.34,0,0,0,1.21,3.3,10.89,10.89,0,0,0,6.36-.52A9.15,9.15,0,0,0,38.94,22.45Z" fill="#bf9882"/>
              <path d="M32.28,26.26a9.38,9.38,0,0,0,1.08.22,21.71,21.71,0,0,1-1.2-2.91A23.55,23.55,0,0,1,39,23.45v-1A19.19,19.19,0,0,0,31.1,23,30.16,30.16,0,0,0,32.28,26.26Z" fill="#a68064"/>
              <path d="M21.63,22.46A8.89,8.89,0,0,0,22,25.74a10.84,10.84,0,0,0,6.37.52A28.39,28.39,0,0,0,29.53,23,19,19,0,0,0,21.63,22.46Z" fill="#bf9882"/>
              <path d="M29,23.77l.28-.86a19.1,19.1,0,0,0-7.71-.45,8.89,8.89,0,0,0,.32,3.28,5.66,5.66,0,0,0,1,.36,9.6,9.6,0,0,1-.54-2.9A18.2,18.2,0,0,1,29,23.77Z" fill="#a68064"/>
              <circle cx="25.94" cy="24.59" r="0.65" fill="#6c7881"/>
              <circle cx="34.9" cy="24.59" r="0.65" fill="#6c7881"/>
              <path d="M21.63,22.46A8.89,8.89,0,0,0,22,25.74a10.84,10.84,0,0,0,6.37.52A28.39,28.39,0,0,0,29.53,23a19.66,19.66,0,0,0-8.73-.38v.68l.8.2" fill="none" stroke="#333" stroke-linejoin="round" stroke-width="1.02"/>
              <path d="M29.52,23a.9.9,0,0,1,.77-.3c.61,0,.77.29.77.29" fill="none" stroke="#333" stroke-linejoin="round" stroke-width="1.02"/>
              <path d="M39,22.46a8.89,8.89,0,0,1-.32,3.28,10.84,10.84,0,0,1-6.37.52A28.64,28.64,0,0,1,31,23a19.65,19.65,0,0,1,8.73-.38v.68l-.8.2" fill="none" stroke="#333" stroke-linejoin="round" stroke-width="1.02"/>
            </g>
          </g>
        </g>
      </g>
      <g id="a70ec090-b066-4f1c-b57a-d01c373bcf85">
        <path d="M36.06,28.26a5.45,5.45,0,0,1,2.33,7.34,5.52,5.52,0,0,1-.69,1c-.86,1-6.73,9.73-15,0a5.45,5.45,0,0,1,.64-7.69,5.21,5.21,0,0,1,1-.67l4.53-2.35a2.82,2.82,0,0,1,2.62,0Z" fill="#fff"/>
        <path d="M22.29,30.22a22.82,22.82,0,0,1-3.74-9.3" fill="#fff" stroke="#333" stroke-linecap="round" stroke-linejoin="round" stroke-width="1.5"/>
        <path d="M38.42,30.22a22.82,22.82,0,0,0,3.74-9.3" fill="#fff" stroke="#333" stroke-linecap="round" stroke-linejoin="round" stroke-width="1.5"/>
        <line x1="21.46" y1="32.98" x2="19.81" y2="32.08" fill="none" stroke="#333" stroke-linecap="round" stroke-linejoin="round" stroke-width="1.5"/>
        <line x1="39.25" y1="32.98" x2="40.89" y2="32.08" fill="none" stroke="#333" stroke-linecap="round" stroke-linejoin="round" stroke-width="1.5"/>
        <path d="M36.06,28.26l-4.52-2.34a2.8,2.8,0,0,0-2.61,0L24.4,28.27a5.38,5.38,0,0,0-2.77,3.52A5.42,5.42,0,0,0,22.75,34c8.22,9.75,14.1,1,15,0a5.48,5.48,0,0,0,1.13-2.18A5.4,5.4,0,0,0,36.06,28.26Z" fill="#fff"/>
        <path d="M36.06,28.26l-4.52-2.34a2.82,2.82,0,0,0-1.18-.3h0v8c0,2.06,2.2,1.61.87,4.11-2.05,3.84-7.08-2.89-7.08.41,0,.11,2.95,2.09,2.94,2.2C33,43.39,37,37.45,37.7,36.64A5.45,5.45,0,0,0,37.09,29,4.8,4.8,0,0,0,36.06,28.26Z" fill="#eee"/>
        <path d="M21.65,31.69A19.08,19.08,0,0,0,30.36,34a17.25,17.25,0,0,0,8.45-2.27" fill="none" stroke="#ddd" stroke-miterlimit="10"/>
        <path d="M21.65,33.92a19.08,19.08,0,0,0,8.71,2.27,17.25,17.25,0,0,0,8.45-2.27" fill="none" stroke="#ddd" stroke-miterlimit="10"/>
        <path d="M36.06,28.26a5.45,5.45,0,0,1,2.33,7.34,5.52,5.52,0,0,1-.69,1c-.86,1-6.73,9.73-15,0a5.45,5.45,0,0,1,.64-7.69,5.21,5.21,0,0,1,1-.67l4.53-2.35a2.82,2.82,0,0,1,2.62,0Z" fill="none" stroke="#333" stroke-linejoin="round" stroke-width="1.5"/>
      </g>
    </g>
  </g>
</svg>
