<svg xmlns="http://www.w3.org/2000/svg" viewBox="0 0 64 64">
  <g id="nurse-black-female-coronavirus">
    <g>
      <g id="a3a9edfa-534b-4b63-893d-66733a78a40d">
        <g id="b6709f63-a790-464c-b5d4-b36482491c67">
          <g id="a6f38729-4232-4e46-bee8-f25814564703">
            <g id="f8c7d576-105a-4f9e-905e-fdbbc54196c1">
              <path d="M54,41.26l-13-2.6h-.1V32.51H28.59v6.16h-.08l-13,2.58c-3.9,1-4.21,4.53-4.5,6.27l.09.06a59.18,59.18,0,0,0,47.32,0h0C58.27,45.92,58.1,42.27,54,41.26Z" fill="#ad8165"/>
              <path d="M28.59,32.5v3.12l5,5.18a4.11,4.11,0,0,1,1.15,2.85,2.63,2.63,0,0,0,2.63,2.63h.52a3,3,0,0,0,3-3V32.5Z" fill="#a57a62"/>
              <path d="M58.24,45.65A5.73,5.73,0,0,0,54,41.25c-4.6-1.15-7.73-1.73-13-2.6a24.23,24.23,0,0,1-6.29,6.24,22.18,22.18,0,0,1-6.16-6.24c-5.26.86-8.38,1.52-13.06,2.6a5.67,5.67,0,0,0-4.18,4.4L11,47.53l.09.06a58.42,58.42,0,0,0,23.66,5,58.41,58.41,0,0,0,23.65-5h0Z" fill="#dd83bf"/>
              <path d="M58.49,47.56l-.13-1A6,6,0,0,0,55,44.32C51.22,43.43,44.46,42.14,39,41.2a28.48,28.48,0,0,1-4.27,3.72,25.74,25.74,0,0,1-4.22-3.72c-5.38,1-12.09,2.29-15.9,3.13a5.93,5.93,0,0,0-3.45,2.31l-.16.9.09.06a58.42,58.42,0,0,0,23.66,5,58.41,58.41,0,0,0,23.65-5Z" fill="#d362a4"/>
              <path d="M28.59,38.64a22.25,22.25,0,0,0,6.17,6.25,21.89,21.89,0,0,0,6.14-6.25" fill="none" stroke="#333" stroke-linecap="round" stroke-linejoin="round" stroke-width="1.42"/>
              <path d="M28.59,38.65c-5.3.86-8.36,1.51-13.06,2.6a5.67,5.67,0,0,0-4.18,4.4L11,47.53l.09.06a58.42,58.42,0,0,0,23.66,5,58.41,58.41,0,0,0,23.65-5h0l-.25-1.9A5.72,5.72,0,0,0,54,41.26c-4.6-1.15-7.85-1.74-13.12-2.6" fill="none" stroke="#333" stroke-linecap="round" stroke-linejoin="round" stroke-width="1.5"/>
              <line x1="34.76" y1="44.9" x2="34.76" y2="47.39" fill="none" stroke="#333" stroke-linecap="round" stroke-linejoin="round" stroke-width="1.42"/>
              <path d="M49.32,47.7v-10a3.83,3.83,0,0,0-3.65-4H41.55" fill="none" stroke="#333" stroke-linejoin="round" stroke-width="1.5"/>
              <path d="M22.09,42.19V37.7a3.83,3.83,0,0,1,3.65-4h2.18" fill="none" stroke="#333" stroke-linejoin="round" stroke-width="1.5"/>
              <path d="M52.82,51.2a3.5,3.5,0,1,1-3.5-3.5h0A3.5,3.5,0,0,1,52.82,51.2Z" fill="#e0ebee"/>
              <circle cx="49.32" cy="51.2" r="1" fill="#333"/>
              <path d="M52.82,51.2a3.5,3.5,0,1,1-3.5-3.5h0A3.5,3.5,0,0,1,52.82,51.2Z" fill="none" stroke="#333" stroke-linejoin="round" stroke-width="1.5"/>
              <circle cx="20.09" cy="53.7" r="1" fill="#333"/>
              <circle cx="24.09" cy="53.7" r="1" fill="#333"/>
              <path d="M20.09,53.7c-2,0-3-.83-3-2,0-3,5-10,5-10s5,7,5,10c0,1.17-1,2-3,2" fill="none" stroke="#333" stroke-linejoin="round" stroke-width="1.5"/>
              <path d="M46.79,29.52a6,6,0,0,1-6,6H29.26c-3.31,0-6.47-2.73-6.47-6.06V19.05c0-6.9,2.62-13,12.06-13s11.94,6.1,11.94,13Z" fill="#333" stroke="#333" stroke-miterlimit="10" stroke-width="1.5"/>
              <path d="M34.79,7.79c8,0,10.5,4.59,10.5,10v2c1.73,0,2.28,1.71,2,4-.24,2-1,4-3,4v1.5c0,3-2.39,4.36-5.18,7.26a5.34,5.34,0,0,1-4.32,1.7,5.35,5.35,0,0,1-4.32-1.74c-2.79-2.9-5.18-4.26-5.18-7.26V27.79c-2,0-2.76-2-3-4-.28-2.29.27-4,2-4v-2C24.29,12.34,26.79,7.79,34.79,7.79Z" fill="#ad8165"/>
              <path d="M44.87,19.85v-2c0-5.41-2-10.51-10-10.51a16,16,0,0,0-2.77.24V18a3.88,3.88,0,0,1-1.27,2.88.46.46,0,0,0,0,.64.41.41,0,0,0,.23.13,2.6,2.6,0,0,1,1.88,1.88.49.49,0,0,0,.58.38h0a.48.48,0,0,0,.19-.09,1.83,1.83,0,0,1,.58-.32.49.49,0,0,1,.59.36h0a.5.5,0,0,1,0,.12v2.12a1.09,1.09,0,0,0,.62.94c.57.32.16,1.4-.62,1.4h0a1.65,1.65,0,0,1-.89-.23c-.74-.37-1.43.39-1.27.68s.34,0,1.08.35a2.62,2.62,0,0,0,1.1.27v3.68a.39.39,0,0,0,.31.38c1.31.31,2,2.49-.31,3h0a1.25,1.25,0,0,0-1,1.2v.45a6.5,6.5,0,0,0,5-1.3l2.56-2a6.53,6.53,0,0,0,2.38-3.93l.55-3h0c1.8-.12,2.77-2.08,3-4C47.66,21.56,46.6,19.85,44.87,19.85Z" fill="#a57a62"/>
              <circle cx="30.29" cy="23.77" r="0.75" fill="#333"/>
              <path d="M32.1,24.14a2.77,2.77,0,0,0-3.89-.42h0l-.1.09" fill="none" stroke="#333" stroke-linecap="round" stroke-miterlimit="10" stroke-width="0.5"/>
              <circle cx="39.46" cy="23.77" r="0.75" fill="#333"/>
              <path d="M37.65,24.14a2.77,2.77,0,0,1,3.89-.42h0l.11.09" fill="none" stroke="#333" stroke-linecap="round" stroke-miterlimit="10" stroke-width="0.5"/>
              <path d="M27.36,21.47a3.58,3.58,0,0,1,1.31-.53,4.76,4.76,0,0,1,1.41,0,12.21,12.21,0,0,1,1.33.31,7.43,7.43,0,0,0,1.22.28h0a.51.51,0,0,1,.35.63.5.5,0,0,1-.46.37h-.07a9.17,9.17,0,0,1-1.32-.5c-.39-.17-.79-.33-1.2-.47a3.89,3.89,0,0,0-1.22-.19,2,2,0,0,0-1.15.38.19.19,0,0,1-.25-.06.18.18,0,0,1,0-.22S27.36,21.48,27.36,21.47Z" fill="#333"/>
              <path d="M41.94,21.76a1.84,1.84,0,0,0-1.15-.37,4.16,4.16,0,0,0-1.22.2c-.41.14-.81.3-1.2.47a7.17,7.17,0,0,1-1.34.49.51.51,0,0,1-.62-.38.52.52,0,0,1,.39-.62h.08a6.4,6.4,0,0,0,1.21-.27A12.21,12.21,0,0,1,39.42,21a4.76,4.76,0,0,1,1.41,0,3.66,3.66,0,0,1,1.31.53.18.18,0,1,1-.18.32l0,0Z" fill="#333"/>
              <path d="M32.83,29.35c1,0,1,.51,2,.51s1-.51,2-.51" fill="none" stroke="#9b725c" stroke-linecap="round" stroke-miterlimit="10" stroke-width="0.5"/>
              <line x1="34.83" y1="29.7" x2="34.83" y2="30.44" fill="none" stroke="#9b725c" stroke-linecap="round" stroke-miterlimit="10" stroke-width="0.5"/>
              <line x1="37.85" y1="31.97" x2="38.1" y2="32.66" fill="none" stroke="#9b725c" stroke-linecap="round" stroke-miterlimit="10" stroke-width="0.5"/>
              <line x1="31.81" y1="31.97" x2="31.56" y2="32.66" fill="none" stroke="#9b725c" stroke-linecap="round" stroke-miterlimit="10" stroke-width="0.5"/>
              <path d="M35.66,31.05a1.65,1.65,0,0,1-.78.2c-.2,0-.22,0-.68-.2-.8-.32-.85.66-2.33,1.2l.92.94a2.11,2.11,0,0,0,1.55.56h1a2.45,2.45,0,0,0,1.67-.6l.86-.9C36.46,31.78,36.45,30.78,35.66,31.05Z" fill="#936a55"/>
              <path d="M37.87,32.29c-1,0-1.49-.49-3,0h0c-1.48-.5-2,0-3,0" fill="none" stroke="#755243" stroke-linecap="round" stroke-miterlimit="10" stroke-width="0.5"/>
              <path d="M32.88,28.85c1,0,1,.5,2,.5s1-.5,2-.5" fill="none" stroke="#755243" stroke-linecap="round" stroke-miterlimit="10" stroke-width="0.75"/>
              <path d="M34.79,7.79c8,0,10.5,4.59,10.5,10v2c1.73,0,2.28,1.71,2,4-.24,2-1,4-3,4v1.5c0,3-2.42,4.29-5.21,7.2a5.34,5.34,0,0,1-4.29,1.76,5.37,5.37,0,0,1-4.35-1.8c-2.79-2.91-5.15-4.2-5.15-7.2V27.79c-2,0-2.76-2-3-4-.28-2.29.27-4,2-4v-2C24.29,12.34,26.79,7.79,34.79,7.79Z" fill="none" stroke="#333" stroke-linejoin="round" stroke-width="1.5"/>
              <path d="M25.8,8.29c-3.51.73-5,3.61-5,6.5,0,4.53,4.25,8.15,4.25,9.5v-2.5c0-3.44,2.75-2.1,3.53-5.42,12.21,2.27,9.55,9.93,17.72,13.42C56.46,6.39,32.63-.1,25.8,8.29Z" fill="#333"/>
              <path d="M21,16.79c.25-3.54,1.62-6.87,5.75-7.54,3.73-4.57,13.89-4.09,19.5,2-5.06-7.8-16.14-8.3-20.5-3C21.84,9.11,20,12.86,21,16.79Z" fill="#444"/>
              <path d="M25,24.29v-2.5c0-3.44,2.74-2.1,3.53-5.42" fill="none" stroke="#333" stroke-linejoin="round" stroke-width="0.75"/>
              <path d="M46,29.65a27.78,27.78,0,0,0,2.25-10.33,13.49,13.49,0,0,0-3.55-9.47A14.58,14.58,0,0,0,35.6,5.59a14.17,14.17,0,0,0-5.06.5,8.9,8.9,0,0,0-4.18,2.62h0a.67.67,0,0,1-.36.21,5.36,5.36,0,0,0-3.57,2.3,6.86,6.86,0,0,0-1,4.3A10.91,10.91,0,0,0,23,19.87c.4.69.84,1.36,1.29,2,.22.34.45.68.67,1a3,3,0,0,1,.5,1.31.34.34,0,1,1-.68,0h0a2.52,2.52,0,0,0-.44-.92c-.21-.33-.45-.65-.69-1-.48-.66-1-1.32-1.41-2a11.83,11.83,0,0,1-1.84-4.7,7.92,7.92,0,0,1,1-5.06,6.64,6.64,0,0,1,4.31-3l-.39.23a10.32,10.32,0,0,1,4.71-3,14.73,14.73,0,0,1,5.64-.59A15.45,15.45,0,0,1,45.67,9a13.65,13.65,0,0,1,2.85,4.86,16.45,16.45,0,0,1,.8,5.52,20.89,20.89,0,0,1-.81,5.45,35.86,35.86,0,0,1-1.87,5.14.34.34,0,0,1-.45.18.33.33,0,0,1-.18-.44Z" fill="#333"/>
              <path d="M28.64,16.05a20.2,20.2,0,0,1,5.65,1.56,13.55,13.55,0,0,1,4.65,3.75c1.24,1.54,2.09,3.23,3.25,4.69a12.24,12.24,0,0,0,4.25,3.44.34.34,0,0,1,.15.46h0a.36.36,0,0,1-.42.17,12.28,12.28,0,0,1-4.92-3.26c-1.35-1.47-2.39-3.11-3.5-4.56a12.66,12.66,0,0,0-4-3.6,23.67,23.67,0,0,0-5.21-2h0a.34.34,0,0,1-.24-.42h0A.36.36,0,0,1,28.64,16.05Z" fill="#333"/>
              <path d="M27.1,10.62a8.15,8.15,0,0,1,2.91-2,10.71,10.71,0,0,1,3.49-.77A12.7,12.7,0,0,1,37,8.17a10,10,0,0,1,3.24,1.34,59.78,59.78,0,0,0-6.69-.17,25.17,25.17,0,0,0-3.23.38C29.27,9.93,28.24,10.29,27.1,10.62Z" fill="#333"/>
              <path d="M31,11.79a10.87,10.87,0,0,1,3.72-.87,12.16,12.16,0,0,1,3.85.39,11.81,11.81,0,0,1,3.54,1.56,9.3,9.3,0,0,1,2.77,2.64,29.9,29.9,0,0,0-6.7-2.75,24.56,24.56,0,0,0-3.5-.67C33.46,11.92,32.25,11.9,31,11.79Z" fill="#333"/>
              <path d="M34.49,14.32a14.81,14.81,0,0,1,2,.1,9.4,9.4,0,0,1,1.95.54,9.18,9.18,0,0,1,5.5,5.83,8.24,8.24,0,0,1,.3,4,20.81,20.81,0,0,0-1.38-3.56,12.92,12.92,0,0,0-2.09-3,6.44,6.44,0,0,0-.64-.64,6.42,6.42,0,0,0-.69-.58l-.72-.55-.78-.41c-.51-.36-1.1-.57-1.66-.89S35.09,14.63,34.49,14.32Z" fill="#333"/>
              <line x1="28.59" y1="34.64" x2="28.59" y2="38.65" fill="none" stroke="#333" stroke-linecap="round" stroke-linejoin="round" stroke-width="1.5"/>
              <line x1="40.89" y1="34.8" x2="40.89" y2="38.65" fill="none" stroke="#333" stroke-linecap="round" stroke-linejoin="round" stroke-width="1.5"/>
            </g>
          </g>
        </g>
      </g>
      <g id="a1350f6e-ba2f-4b8f-bc76-48dab807c474">
        <path d="M40.46,27.3a5.21,5.21,0,0,1,2.23,7,5.33,5.33,0,0,1-.66,1c-.82,1-6.44,9.3-14.3,0A5.2,5.2,0,0,1,28.34,28a5.3,5.3,0,0,1,1-.65l4.33-2.24a2.69,2.69,0,0,1,2.5,0Z" fill="#fff"/>
        <path d="M27.3,29.17a21.75,21.75,0,0,1-3.58-8.88" fill="#fff" stroke="#333" stroke-linecap="round" stroke-linejoin="round" stroke-width="1.5"/>
        <path d="M42.72,29.17a21.75,21.75,0,0,0,3.58-8.88" fill="#fff" stroke="#333" stroke-linecap="round" stroke-linejoin="round" stroke-width="1.5"/>
        <line x1="26.5" y1="31.82" x2="24.93" y2="30.95" fill="none" stroke="#333" stroke-linecap="round" stroke-linejoin="round" stroke-width="1.5"/>
        <line x1="43.52" y1="31.82" x2="45.09" y2="30.95" fill="none" stroke="#333" stroke-linecap="round" stroke-linejoin="round" stroke-width="1.5"/>
        <path d="M40.46,27.3l-4.31-2.23a2.69,2.69,0,0,0-2.5,0l-4.33,2.24a5.13,5.13,0,0,0-2.65,3.37,5.23,5.23,0,0,0,1.07,2.08c7.86,9.31,13.48,1,14.3,0a5.2,5.2,0,0,0,1.08-2.1A5.16,5.16,0,0,0,40.46,27.3Z" fill="#fff"/>
        <path d="M40.46,27.3l-4.31-2.23A2.63,2.63,0,0,0,35,24.78h0V32.4c0,2,2.1,1.54.83,3.93-2,3.68-6.77-2.76-6.77.39,0,.12,2.82,2,2.81,2.11,5.65,2.94,9.5-2.74,10.16-3.51a5.23,5.23,0,0,0-1.57-8Z" fill="#eee"/>
        <path d="M26.69,30.58A18.23,18.23,0,0,0,35,32.76a16.46,16.46,0,0,0,8.07-2.18" fill="none" stroke="#ddd" stroke-miterlimit="10" stroke-width="0.96"/>
        <path d="M26.69,32.71A18.23,18.23,0,0,0,35,34.89a16.46,16.46,0,0,0,8.07-2.18" fill="none" stroke="#ddd" stroke-miterlimit="10" stroke-width="0.96"/>
        <path d="M40.46,27.3a5.21,5.21,0,0,1,2.23,7,5.33,5.33,0,0,1-.66,1c-.82,1-6.44,9.3-14.3,0A5.2,5.2,0,0,1,28.34,28a5.3,5.3,0,0,1,1-.65l4.33-2.24a2.69,2.69,0,0,1,2.5,0Z" fill="none" stroke="#333" stroke-linejoin="round" stroke-width="1.5"/>
      </g>
    </g>
  </g>
</svg>
