<svg xmlns="http://www.w3.org/2000/svg" viewBox="0 0 64 64">
  <g id="ems-asian-female-coronavirus">
    <g id="a983845f-78b2-4ecd-a8a8-c8bcbfd60eaa">
      <g id="b6ad1749-1d22-4062-8a14-685eb50c4b2a">
        <g id="aa8391ce-065e-49bf-a3e4-75de3b32a56c">
          <g id="be222ee0-5634-4b28-a104-8fd95c115f2f">
            <path d="M52.16,44.36C49,43.66,39.28,41.8,39.28,41.8V37.05h-12v4.78s-9.39,1.7-12.82,2.56c-3.83,1-4.4,4.47-4.68,6.16a62.91,62.91,0,0,0,23.5,5,62.1,62.1,0,0,0,23.5-5C56.57,49,56.17,45.25,52.16,44.36Z" fill="#e6b790"/>
            <path d="M52.16,44.36C49,43.66,39.28,41.8,39.28,41.8V37.05h-12v4.78s-9.39,1.7-12.82,2.56c-3.83,1-4.4,4.47-4.68,6.16a62.91,62.91,0,0,0,23.5,5,62.1,62.1,0,0,0,23.5-5C56.57,49,56.17,45.25,52.16,44.36Z" fill="#e6b790"/>
            <path d="M27.28,37.05v2.89l4.65,4.8a4.07,4.07,0,0,1,1.15,2.85,2.63,2.63,0,0,0,2.65,2.61h.57a3,3,0,0,0,3-3V37.05Z" fill="#ddad8a"/>
            <path d="M52.16,44.36a81,81,0,0,0-13-2.57c-.5,3.5-2.64,6.2-5.89,8.41C30,48,27.88,45.28,27.38,41.79a82.41,82.41,0,0,0-12.93,2.57c-3.83,1-4.4,4.48-4.68,6.17a62.71,62.71,0,0,0,23.5,5,61.72,61.72,0,0,0,23.5-5C56.57,49,56.14,45.36,52.16,44.36Z" fill="#5d7691"/>
            <path d="M52.16,46.94l-4.28-1.07a60.2,60.2,0,0,0-9.43-1.54,13.83,13.83,0,0,1-5.17,5.88,13.68,13.68,0,0,1-5.17-5.87,59.93,59.93,0,0,0-9.33,1.54L14.46,47a5.54,5.54,0,0,0-4,3.78,57.21,57.21,0,0,0,22.77,4.81,57.67,57.67,0,0,0,22.83-4.81A5.55,5.55,0,0,0,52.16,46.94Z" fill="#475b77"/>
            <circle cx="47.3" cy="50.2" r="2.92" fill="#fff"/>
            <circle cx="47.3" cy="50.2" r="2.92" fill="none" stroke="#333" stroke-linejoin="round" stroke-width="0.83"/>
            <line x1="47.3" y1="48.26" x2="47.29" y2="52.15" fill="none" stroke="#4064a1" stroke-linejoin="round" stroke-width="1.25"/>
            <line x1="45.62" y1="49.23" x2="48.98" y2="51.19" fill="none" stroke="#4064a1" stroke-linejoin="round" stroke-width="1.25"/>
            <line x1="45.62" y1="51.18" x2="48.99" y2="49.24" fill="none" stroke="#4064a1" stroke-linejoin="round" stroke-width="1.25"/>
            <path d="M36.78,47.53l4,2.09v1a.49.49,0,0,1-.49.49A.45.45,0,0,1,40,51l-3.13-1.88-3.63,1.36Z" fill="#3a4a5e"/>
            <path d="M29.78,47.53l-4,2.09v1a.49.49,0,0,0,.49.49.45.45,0,0,0,.25-.07l3.13-1.88,3.63,1.32Z" fill="#3a4a5e"/>
            <circle cx="36.28" cy="52.03" r="0.75" fill="#333"/>
            <line x1="33.28" y1="50.2" x2="33.28" y2="55.53" fill="none" stroke="#333" stroke-linecap="round" stroke-linejoin="round" stroke-width="1.5"/>
            <path d="M24.78,41.92c-1,.24-9.13,2.13-10.35,2.44-3.86,1-4.14,4.54-4.4,6.14l.09.06a56.94,56.94,0,0,0,23.13,5,59.58,59.58,0,0,0,23.23-5c-.12-.91-.08-5.34-4.34-6.17-.93-.18-9.1-2.18-10.35-2.44" fill="none" stroke="#333" stroke-linejoin="round" stroke-width="1.5"/>
            <path d="M39.31,39.92l2.5,2v8.5l-5-3C38.29,45.39,38.9,43,39.31,39.92Z" fill="#475b77"/>
            <polyline points="36.81 47.42 41.81 50.42 41.81 41.92 39.31 39.92" fill="none" stroke="#333" stroke-linejoin="round" stroke-width="1.5"/>
            <path d="M27.31,39.92l-2.5,2v8.5l5-3C28.33,45.39,27.72,43,27.31,39.92Z" fill="#475b77"/>
            <polyline points="29.81 47.42 24.81 50.42 24.81 41.92 27.31 39.92" fill="none" stroke="#333" stroke-linejoin="round" stroke-width="1.5"/>
            <path d="M39.28,38v2.22c0,4.28-2.28,7.46-6,10-3.72-2.54-6-5.72-6-10V38.05" fill="none" stroke="#333" stroke-linejoin="round" stroke-width="1.4"/>
            <path d="M24.56,34.18a4.28,4.28,0,0,0,.19-6.05,4.23,4.23,0,0,0-1.31-.95,4.28,4.28,0,0,0-2.07,5.69h0a4.33,4.33,0,0,0,.94,1.3,4.28,4.28,0,0,0-.17,6l.17.17a4.3,4.3,0,0,0-1,4.67,2.33,2.33,0,0,0,3,1.32h0a2.37,2.37,0,0,0,1.29-1.29,4.27,4.27,0,0,0-1-4.69,4.28,4.28,0,0,0,.17-6l-.17-.17Z" fill="#333"/>
            <path d="M23.07,45.46a4.25,4.25,0,0,1,.41-3.94,1.36,1.36,0,0,0,0-1.5,4.27,4.27,0,0,1,0-4.7,1.36,1.36,0,0,0,0-1.5,4.21,4.21,0,0,1-.7-2.36,4.3,4.3,0,0,1,1.8-3.5,4.33,4.33,0,0,0-1.12-.78,4.28,4.28,0,0,0-2.07,5.69h0a4.33,4.33,0,0,0,.94,1.3,4.28,4.28,0,0,0-.17,6l.17.17a4.3,4.3,0,0,0-1,4.67,2.28,2.28,0,0,0,2.58,1.42A2.23,2.23,0,0,1,23.07,45.46Z" fill="#444"/>
            <path d="M24.56,34.18a4.28,4.28,0,0,0,.19-6.05,4.23,4.23,0,0,0-1.31-.95,4.28,4.28,0,0,0-2.07,5.69h0a4.33,4.33,0,0,0,.94,1.3,4.28,4.28,0,0,0-.17,6l.17.17a4.3,4.3,0,0,0-1,4.67,2.33,2.33,0,0,0,3,1.32h0a2.37,2.37,0,0,0,1.29-1.29,4.27,4.27,0,0,0-1-4.69,4.28,4.28,0,0,0,.17-6l-.17-.17Z" fill="none" stroke="#333" stroke-linecap="round" stroke-linejoin="round" stroke-width="1.5"/>
            <path d="M23.12,40.05a1.23,1.23,0,0,0-.88.4" fill="none" stroke="#333" stroke-linejoin="round" stroke-width="1.5"/>
            <path d="M23.12,33.87a1.23,1.23,0,0,0-.88.4" fill="none" stroke="#333" stroke-linejoin="round" stroke-width="1.5"/>
            <path d="M23.44,46.89a7,7,0,0,0-3.3,3.31A2,2,0,0,0,22,53.11h2.94a2,2,0,0,0,2-2,2.22,2.22,0,0,0-.15-.8A6.86,6.86,0,0,0,23.44,46.89Z" fill="#333"/>
            <path d="M21.91,51.93a6.93,6.93,0,0,1,3.3-3.31,6.62,6.62,0,0,1,.9.5,6.83,6.83,0,0,0-2.67-2.24,7,7,0,0,0-3.3,3.31A2,2,0,0,0,21,52.88l.06,0a2,2,0,0,0,.67.19A2,2,0,0,1,21.91,51.93Z" fill="#444"/>
            <path d="M23.44,46.89a7,7,0,0,0-3.3,3.31A2,2,0,0,0,22,53.11h2.94a2,2,0,0,0,2-2,2.22,2.22,0,0,0-.15-.8A6.86,6.86,0,0,0,23.44,46.89Z" fill="none" stroke="#333" stroke-linecap="round" stroke-linejoin="round" stroke-width="1.5"/>
            <path d="M22.13,46.05h2.65a.5.5,0,0,1,.5.5v.37a.5.5,0,0,1-.5.5H22.13a.5.5,0,0,1-.5-.5v-.37A.5.5,0,0,1,22.13,46.05Z" fill="none" stroke="#333" stroke-linecap="round" stroke-linejoin="round" stroke-width="1.5"/>
            <path d="M41.94,34.18a4.28,4.28,0,0,1-.19-6.05,4.23,4.23,0,0,1,1.31-.95,4.28,4.28,0,0,1,2.06,5.69h0a4.16,4.16,0,0,1-.94,1.3,4.28,4.28,0,0,1,.17,6l-.17.17a4.26,4.26,0,0,1,1,4.67,2.31,2.31,0,0,1-3,1.32h0a2.38,2.38,0,0,1-1.28-1.29,4.27,4.27,0,0,1,1-4.69,4.28,4.28,0,0,1-.17-6l.17-.17Z" fill="#444"/>
            <path d="M43.44,45.46a4.28,4.28,0,0,0-.4-3.94A1.36,1.36,0,0,1,43,40a4.27,4.27,0,0,0,0-4.7,1.36,1.36,0,0,1,0-1.5,4.23,4.23,0,0,0,.74-2.36A4.3,4.3,0,0,0,42,28a4.33,4.33,0,0,1,1.12-.78,4.28,4.28,0,0,1,2.06,5.69h0a4.33,4.33,0,0,1-.94,1.3,4.28,4.28,0,0,1,.17,6l-.17.17a4.28,4.28,0,0,1,1,4.67,2.28,2.28,0,0,1-2.58,1.42A2.46,2.46,0,0,0,43.44,45.46Z" fill="#333"/>
            <path d="M41.94,34.18a4.28,4.28,0,0,1-.19-6.05,4.23,4.23,0,0,1,1.31-.95,4.28,4.28,0,0,1,2.06,5.69h0a4.16,4.16,0,0,1-.94,1.3,4.28,4.28,0,0,1,.17,6l-.17.17a4.26,4.26,0,0,1,1,4.67,2.31,2.31,0,0,1-3,1.32h0a2.38,2.38,0,0,1-1.28-1.29,4.27,4.27,0,0,1,1-4.69,4.28,4.28,0,0,1-.17-6l.17-.17Z" fill="none" stroke="#333" stroke-linecap="round" stroke-linejoin="round" stroke-width="1.5"/>
            <path d="M43.38,40.05a1.25,1.25,0,0,1,.88.4" fill="none" stroke="#333" stroke-linejoin="round" stroke-width="1.5"/>
            <path d="M43.38,33.87a1.25,1.25,0,0,1,.88.4" fill="none" stroke="#333" stroke-linejoin="round" stroke-width="1.5"/>
            <path d="M43.06,46.89a7,7,0,0,1,3.3,3.31,2,2,0,0,1-1.83,2.91h-3a2,2,0,0,1-2-2,2.22,2.22,0,0,1,.15-.8A6.9,6.9,0,0,1,43.06,46.89Z" fill="#444"/>
            <path d="M44.59,51.93a6.93,6.93,0,0,0-3.3-3.31,6.62,6.62,0,0,0-.9.5,6.83,6.83,0,0,1,2.67-2.24,6.91,6.91,0,0,1,3.29,3.31,2,2,0,0,1-.88,2.69l-.06,0a2,2,0,0,1-.67.19A2,2,0,0,0,44.59,51.93Z" fill="#333"/>
            <path d="M43.06,46.89a7,7,0,0,1,3.3,3.31,2,2,0,0,1-1.83,2.91h-3a2,2,0,0,1-2-2,2.22,2.22,0,0,1,.15-.8A6.9,6.9,0,0,1,43.06,46.89Z" fill="none" stroke="#333" stroke-linecap="round" stroke-linejoin="round" stroke-width="1.5"/>
            <path d="M44.37,47.37H41.72a.5.5,0,0,1-.5-.5V46.5a.5.5,0,0,1,.5-.5h2.65a.5.5,0,0,1,.5.5v.37A.5.5,0,0,1,44.37,47.37Z" fill="none" stroke="#333" stroke-linecap="round" stroke-linejoin="round" stroke-width="1.5"/>
            <path d="M33.27,9.51c8.38,0,10.85,4.89,10.85,10.53,0,.33-.09,1.66-.13,2,1.8,0,2.45,1.85,2.16,4.24-.25,2-1,4.26-3,4.32a6.72,6.72,0,0,1-.1,1.1c-.2,3.13-2.41,5-5.32,8a5,5,0,0,1-4.5,1.82,5,5,0,0,1-4.45-1.83c-2.91-3-5.12-4.87-5.32-8a5.77,5.77,0,0,0-.1-1.1c-1.94-.06-2.71-2.28-3-4.32-.26-2.39.42-4.22,2.19-4.22,0-.33-.13-1.66-.13-2C22.42,14.4,24.88,9.51,33.27,9.51Z" fill="#efc8a5"/>
            <path d="M43.92,22.05c0-.34.13-1.66.13-2h0c0-5.64-2.47-10.53-10.85-10.53a16.59,16.59,0,0,0-2.82.22h0v11a4.09,4.09,0,0,1-1.32,3,.44.44,0,0,0-.16.34.47.47,0,0,0,.36.46,2.68,2.68,0,0,1,2,2,.5.5,0,0,0,.58.4h0a.55.55,0,0,0,.22-.1,1.81,1.81,0,0,1,.61-.33.51.51,0,0,1,.62.36.68.68,0,0,1,0,.14v1.84c0,1,1.36.87.81,1.91a.79.79,0,0,1-.81.47c-.9,0-.86-.29-1.54-.4-.34-.06-.55.22-.55.57,1,0,1,.52,2.09.52v4.61h0a.41.41,0,0,0,.32.39,1.7,1.7,0,0,1,1.26,1.48c0,.67-.37,1.36-1.58,1.6s-2.68-1-3.2,0a.6.6,0,0,0-.06.27c0,.44.34,1.28,3.26,1.28a4.85,4.85,0,0,0,4.43-1.8c2.91-3,5.12-4.87,5.32-8a5.77,5.77,0,0,1,.1-1.1c1.94-.06,2.71-2.28,3-4.32,0-.3.06-.59.07-.87C46.19,23.47,45.5,22.05,43.92,22.05Z" fill="#e6b790"/>
            <line x1="33.27" y1="32.12" x2="33.27" y2="32.89" fill="none" stroke="#ddad8a" stroke-linecap="round" stroke-miterlimit="10" stroke-width="0.65"/>
            <path d="M31.18,31.6c1,0,1,.52,2.09.52s1-.52,2.09-.52" fill="none" stroke="#c6916d" stroke-linecap="round" stroke-miterlimit="10" stroke-width="0.75"/>
            <path d="M24.65,23.93a4.41,4.41,0,0,1,1.53-.56,5.5,5.5,0,0,1,1.62,0,13.75,13.75,0,0,1,1.55.32,12,12,0,0,0,1.43.36h0a.56.56,0,0,1,0,1.12h-.18a10.65,10.65,0,0,1-1.53-.53,14.23,14.23,0,0,0-1.4-.58,5,5,0,0,0-1.43-.21,2.33,2.33,0,0,0-1.36.4.2.2,0,1,1-.24-.32h0Z" fill="#333"/>
            <path d="M41.65,24.26a2.35,2.35,0,0,0-1.36-.39,5.27,5.27,0,0,0-1.43.22,13.87,13.87,0,0,0-1.41.5,10.29,10.29,0,0,1-1.54.51.56.56,0,0,1-.23-1.05h.1a11.46,11.46,0,0,0,1.42-.27c.5-.12,1-.24,1.54-.32a5.5,5.5,0,0,1,1.62,0,4.2,4.2,0,0,1,1.53.55.19.19,0,0,1,.08.25v0a.2.2,0,0,1-.26.08h0Z" fill="#333"/>
            <path d="M30.5,27.05c-.58-.33-1.93-1.92-3.86-.33a4,4,0,0,1-.76-.25,4.9,4.9,0,0,1,3.31-.26" fill="#333" stroke="#333" stroke-linecap="round" stroke-miterlimit="10" stroke-width="0.5"/>
            <ellipse cx="28.57" cy="26.79" rx="0.81" ry="0.47" fill="#333"/>
            <path d="M36,27.05c.58-.33,1.93-1.92,3.86-.33a4.22,4.22,0,0,0,.76-.25,4.9,4.9,0,0,0-3.31-.26" fill="#333" stroke="#333" stroke-linecap="round" stroke-miterlimit="10" stroke-width="0.5"/>
            <ellipse cx="37.96" cy="26.79" rx="0.81" ry="0.47" fill="#333"/>
            <path d="M44,22.05c0-.33.13-1.66.13-2,0-5.64-2.47-10.53-10.85-10.53S22.42,14.41,22.42,20.05c0,.33.09,1.66.13,2-1.81,0-2.45,1.85-2.16,4.24.25,2,1,4.26,3,4.32,0,.12.05.44.1,1.1.2,3.13,2.26,4.82,5.17,7.85a6.26,6.26,0,0,0,4.65,2,6.15,6.15,0,0,0,4.63-2c2.91-3,5-4.74,5.19-7.87a5.77,5.77,0,0,1,.1-1.1c1.94-.06,2.71-2.28,3-4.32C46.44,23.88,45.78,22.05,44,22.05Z" fill="none" stroke="#333" stroke-linejoin="round" stroke-width="1.5"/>
            <line x1="30.08" y1="34.77" x2="29.74" y2="35.47" fill="none" stroke="#ddad8a" stroke-linecap="round" stroke-miterlimit="10" stroke-width="0.65"/>
            <line x1="36.45" y1="34.77" x2="36.86" y2="35.6" fill="none" stroke="#ddad8a" stroke-linecap="round" stroke-miterlimit="10" stroke-width="0.65"/>
            <path d="M34.08,33.93a1.91,1.91,0,0,1-.81.21c-.21,0-.23,0-.7-.21-.84-.33-.88.69-2.43,1.25l1,1a2.24,2.24,0,0,0,1.62.58h1a2.53,2.53,0,0,0,1.74-.63l.89-.94C34.92,34.65,34.91,33.6,34.08,33.93Z" fill="#925140"/>
            <path d="M36.39,35.18c-1,0-1.56-.52-3.12,0h0c-1.55-.52-2.07,0-3.12,0" fill="none" stroke="#743f40" stroke-linecap="round" stroke-miterlimit="10" stroke-width="0.52"/>
            <path d="M33.18,7.84c-8.94,0-12.4,6.86-12.4,11,0,3.58,2.53,5,2.53,7.76V23.37c8.87-.05,11.26-1.52,13.47-4.68A9.57,9.57,0,0,0,42,22.84a1.74,1.74,0,0,1,1.1,1.61v2.11c0-2.28,2.53-4.18,2.53-7.76C45.58,14.7,42.13,7.84,33.18,7.84Z" fill="#444"/>
            <path d="M23,26.55l-.18-3.21a.47.47,0,0,1,.46-.5h.06a25.15,25.15,0,0,0,7.06-1,12.27,12.27,0,0,0,3.12-1.49c1-.65,1.81-1.44,2.81-2.24h0a.72.72,0,0,1,1,.11.41.41,0,0,1,.07.11,8.67,8.67,0,0,0,3.58,3.47c.19.1.38.21.58.3a6.77,6.77,0,0,1,.66.33,2.67,2.67,0,0,1,1.07,1.25,3.18,3.18,0,0,1,.17,1.53l-.07,1.36a.36.36,0,0,1-.71,0l-.07-1.36a2.41,2.41,0,0,0-.16-1.16,1.69,1.69,0,0,0-.72-.73c-.13-.07-.35-.14-.57-.24l-.65-.28A11.27,11.27,0,0,1,38,21.28a9.22,9.22,0,0,1-1.9-2.23l1.13.19a23.76,23.76,0,0,1-2.9,2.39,13,13,0,0,1-3.57,1.58,23.37,23.37,0,0,1-7.5.61l.51-.5-.15,3.21a.37.37,0,0,1-.37.34A.33.33,0,0,1,23,26.55Z" fill="#333"/>
            <path d="M42.69,27.05a8.33,8.33,0,0,1,1-3.38,17.11,17.11,0,0,0,1.14-3.09,8.72,8.72,0,0,0-1-6.16,10.7,10.7,0,0,0-4.47-4.37,13.16,13.16,0,0,0-6.19-1.38A13.33,13.33,0,0,0,27,10.05a10.77,10.77,0,0,0-4.45,4.42,8.66,8.66,0,0,0-1,6.14,16.68,16.68,0,0,0,1.23,3,7.88,7.88,0,0,1,.89,3.4.37.37,0,0,1-.36.35.35.35,0,0,1-.35-.34h0c-.07-2.12-1.8-3.87-2.41-6.21a9.89,9.89,0,0,1,.88-7A11.85,11.85,0,0,1,26.29,8.7a13.78,13.78,0,0,1,6.89-1.65,13.86,13.86,0,0,1,6.87,1.7,12,12,0,0,1,4.86,5.12A11.45,11.45,0,0,1,46,17.25a8.65,8.65,0,0,1-.18,3.58,18.13,18.13,0,0,1-1.35,3.22,8.06,8.06,0,0,0-1.07,3h0a.36.36,0,0,1-.36.34h0a.32.32,0,0,1-.35-.29Z" fill="#333"/>
            <path d="M43.37,12.57A11.79,11.79,0,0,0,36,10.36a15.45,15.45,0,0,0-3.18,1c-3.23,1-11.11,7.5-11.11,11,.72,1.41,1.6,2.58,1.6,4.19V23.37c8.87-.05,11.26-1.52,13.47-4.68A9.57,9.57,0,0,0,42,22.84a1.74,1.74,0,0,1,1.1,1.61v2.11c0-2.28,2.53-4.18,2.53-7.76A10.91,10.91,0,0,0,43.37,12.57Z" fill="#333"/>
            <path d="M40.87,14.14a22.79,22.79,0,0,0-7.5-3.38.8.8,0,0,1-.48-1,.82.82,0,0,1,.89-.52h.14A23.67,23.67,0,0,1,40.87,14.14Z" fill="#444"/>
            <path d="M20.86,21.39a14.53,14.53,0,0,1,1-2.72,15.56,15.56,0,0,1,1.45-2.41,13.93,13.93,0,0,1,1.81-2.1,16,16,0,0,1,2.13-1.71,13.79,13.79,0,0,0-3.08,4.29,15.34,15.34,0,0,0-.91,2.45,12.35,12.35,0,0,0-.46,2.47Z" fill="#333"/>
            <path d="M41.05,18.05a14.16,14.16,0,0,0-3.87-3.92,19.87,19.87,0,0,0-2.35-1.39,20.68,20.68,0,0,0-2.5-1h0a.8.8,0,0,1,.55-1.51l.1,0a27.14,27.14,0,0,1,2.48,1.49,20.39,20.39,0,0,1,2.25,1.8A14.28,14.28,0,0,1,41.05,18.05Z" fill="#444"/>
            <path d="M26.78,22.1c1.59-1.23,3.18-2.2,4.76-3.23l2.38-1.51c.8-.5,1.58-1,2.47-1.54a8.36,8.36,0,0,1-1.72,2.44,12.27,12.27,0,0,1-2.32,1.87,13.45,13.45,0,0,1-2.66,1.32A9.38,9.38,0,0,1,26.78,22.1Z" fill="#444"/>
          </g>
        </g>
      </g>
      <path d="M38.76,30.22a5.2,5.2,0,0,1,2.23,7,4.74,4.74,0,0,1-.66,1c-.82,1-6.44,9.31-14.3,0a5.21,5.21,0,0,1,.61-7.35,5.3,5.3,0,0,1,1-.65L31.94,28a2.75,2.75,0,0,1,2.5,0Z" fill="#fff"/>
      <path d="M25.6,32.09A21.79,21.79,0,0,1,22,23.2" fill="#fff" stroke="#333" stroke-linecap="round" stroke-linejoin="round" stroke-width="1.5"/>
      <path d="M41,32.09A21.79,21.79,0,0,0,44.6,23.2" fill="#fff" stroke="#333" stroke-linecap="round" stroke-linejoin="round" stroke-width="1.5"/>
      <line x1="24.8" y1="34.73" x2="23.23" y2="33.87" fill="none" stroke="#333" stroke-linecap="round" stroke-linejoin="round" stroke-width="1.5"/>
      <line x1="41.82" y1="34.73" x2="43.39" y2="33.87" fill="none" stroke="#333" stroke-linecap="round" stroke-linejoin="round" stroke-width="1.5"/>
      <path d="M38.76,30.22,34.45,28A2.69,2.69,0,0,0,32,28l-4.33,2.24A5.17,5.17,0,0,0,25,33.59,5.1,5.1,0,0,0,26,35.67c7.86,9.32,13.48,1,14.3,0a5.16,5.16,0,0,0,1.08-2.09A5.11,5.11,0,0,0,38.76,30.22Z" fill="#fff"/>
      <path d="M38.76,30.22,34.45,28a2.63,2.63,0,0,0-1.13-.29h0v7.64c0,2,2.1,1.53.83,3.93-2,3.67-6.77-2.77-6.77.39,0,.11,2.82,2,2.81,2.1,5.65,2.94,9.5-2.73,10.16-3.51a5.21,5.21,0,0,0-.58-7.35A4.74,4.74,0,0,0,38.76,30.22Z" fill="#eee"/>
      <path d="M25,33.5a18.22,18.22,0,0,0,8.33,2.17,16.56,16.56,0,0,0,8.07-2.17" fill="none" stroke="#ddd" stroke-miterlimit="10" stroke-width="0.96"/>
      <path d="M25,35.63a18.22,18.22,0,0,0,8.33,2.17,16.56,16.56,0,0,0,8.07-2.17" fill="none" stroke="#ddd" stroke-miterlimit="10" stroke-width="0.96"/>
      <path d="M38.76,30.22a5.2,5.2,0,0,1,2.23,7,4.74,4.74,0,0,1-.66,1c-.82,1-6.44,9.31-14.3,0a5.21,5.21,0,0,1,.61-7.35,5.3,5.3,0,0,1,1-.65L31.94,28a2.75,2.75,0,0,1,2.5,0Z" fill="none" stroke="#333" stroke-linejoin="round" stroke-width="1.5"/>
    </g>
  </g>
</svg>
