<svg xmlns="http://www.w3.org/2000/svg" viewBox="0 0 64 64">
  <g id="police-asian-female-coronavirus">
    <g id="a34f024c-ea6e-4925-8cb8-b110d5c5913b">
      <g id="f16c3f44-ef8d-431d-bf40-47b32d836d6b">
        <g id="e759291b-21c8-4330-8e40-d1ffe1759a41">
          <g id="eb2f14c3-62b4-4368-ad07-dbe7459af1a3">
            <path d="M54,49.27a3.63,3.63,0,0,0-2.58-2.9L37,42a23.57,23.57,0,0,1-5.18,4.37A23,23,0,0,1,26.68,42L12.15,46.37a3.65,3.65,0,0,0-2.59,2.9L9,52.47A56.38,56.38,0,0,0,31.84,57a56.42,56.42,0,0,0,22.74-4.56Z" fill="#3c495a"/>
            <path d="M43.32,36.67c0,5-5.12,5.31-11.44,5.31s-11.45-.32-11.45-5.31,5.13-9,11.45-9S43.32,31.67,43.32,36.67Z" fill="#333"/>
            <path d="M34.13,27.79c-6.29,0-11.38,4.06-11.38,9,0,3.44,2.41,4.66,6,5.09h3.13c6.33,0,11.45-.32,11.45-5.31C43.32,32.28,39.37,28.62,34.13,27.79Z" fill="#333"/>
            <path d="M43.32,36.67c0,5-5.12,5.31-11.44,5.31s-11.45-.32-11.45-5.31,5.13-9,11.45-9S43.32,31.67,43.32,36.67Z" fill="none" stroke="#333" stroke-linejoin="round" stroke-width="1.5"/>
            <rect x="25.54" y="33.86" width="12.78" height="12.78" fill="#e6b790"/>
            <path d="M25.54,37.28l6,5.73a4.32,4.32,0,0,1,1.12,2.91,3,3,0,0,0,.11.72h5.5V33.86H25.54Z" fill="#ddad8a"/>
            <path d="M42,29.17l-.57,3A6.53,6.53,0,0,1,39,36.1l-2.62,2a6.77,6.77,0,0,1-8.21,0l-2.63-2A6.47,6.47,0,0,1,23,32.18l-.57-3c-1.89-.08-2.83-2.06-3.08-4-.29-2.29.78-4,2.55-4v-2c0-5.41,2-10.51,10.25-10.51s10.29,5.12,10.29,10.52v2c1.77,0,2.86,1.71,2.57,4-.24,1.9-1.24,3.86-3.08,4Z" fill="#a88064"/>
            <path d="M42,29.17l-.57,3A6.53,6.53,0,0,1,39,36.1l-2.62,2a6.77,6.77,0,0,1-8.21,0l-2.63-2A6.47,6.47,0,0,1,23,32.18l-.57-3c-1.89-.08-2.83-2.06-3.08-4-.29-2.29.78-4,2.55-4v-2c0-5.41,2-10.51,10.25-10.51s10.29,5.12,10.29,10.52v2c1.77,0,2.86,1.71,2.57,4-.24,1.9-1.24,3.86-3.08,4Z" fill="#efc8a5"/>
            <path d="M42.46,21.18v-2c0-5.41-2-10.51-10.25-10.51a15.86,15.86,0,0,0-3,.26V20.09A3.92,3.92,0,0,1,28,23a.44.44,0,0,0,0,.63.43.43,0,0,0,.23.14c1.5.43,2.3.71,3.23.47a.49.49,0,0,1,.6.37h0a.49.49,0,0,1,0,.12v2.84a1.12,1.12,0,0,0,.62.94c.57.32.16,1.4-.62,1.4h0a1.84,1.84,0,0,1-.89-.23c-.74-.37-1.43.39-1.27.68s.34,0,1.08.35a2.78,2.78,0,0,0,1.1.27v3.68a.41.41,0,0,0,.31.38c1.31.31,2,2.49-.31,3h0a1.24,1.24,0,0,0-1,1.2v.19a6.77,6.77,0,0,0,5.33-1.26l2.62-2a6.48,6.48,0,0,0,2.43-3.93l.57-3h0c1.84-.12,2.84-2.08,3.08-4C45.32,22.88,44.23,21.18,42.46,21.18Z" fill="#e6b790"/>
            <path d="M42.47,19.18c0-5.41-2-10.51-10.25-10.51S22,13.79,22,19.18v2a2.28,2.28,0,0,0-1.88.93A24,24,0,0,0,31.72,25,23.65,23.65,0,0,0,44,21.74a2.28,2.28,0,0,0-1.53-.56C42.49,20.86,42.47,19.49,42.47,19.18Z" fill="#e6b790"/>
            <path d="M30.62,8.79c-.46,0-.91.11-1.36.19h0V20.1A4,4,0,0,1,28,23a.44.44,0,0,0,0,.63.43.43,0,0,0,.23.14c1.5.43,2.3.71,3.23.47a.48.48,0,0,1,.59.35.51.51,0,0,1,0,.13V25a23.62,23.62,0,0,0,12-3.22h0a2.1,2.1,0,0,0-.55-.34l-.24-.1L43,21.24a2,2,0,0,0-.54-.07v-2c0-5.41-2-10.51-10.25-10.51a13.3,13.3,0,0,0-1.55.07Z" fill="#ddad8a"/>
            <path d="M42.46,21.18v-2c0-5.41-2-10.51-10.25-10.51S22,13.79,22,19.18v2a7.3,7.3,0,0,1,.79,4c0-6.48,9-2.31,13.54-6.81,2.25,3.13,5.47,1.84,5.47,6.82A8.47,8.47,0,0,1,42.46,21.18Z" fill="#333"/>
            <path d="M21.74,21.19V18.81a15.89,15.89,0,0,1,.18-2.38,10,10,0,0,1,1.69-4.49,8.14,8.14,0,0,1,3.87-2.87,14.44,14.44,0,0,1,4.75-.75A14.54,14.54,0,0,1,37,9a8.25,8.25,0,0,1,3.94,2.86,10.34,10.34,0,0,1,1.76,4.52,19.44,19.44,0,0,1,.21,2.4v2.41l-.13.27a.14.14,0,0,1-.06.11,1.67,1.67,0,0,0-.08.2c-.05.14-.1.29-.14.44a7,7,0,0,0-.17,1,16.85,16.85,0,0,0-.1,2h-.91A7.4,7.4,0,0,0,41,23.05a2.7,2.7,0,0,0-1.25-1.51c-.61-.37-1.37-.68-2.06-1.14a7.09,7.09,0,0,1-1.82-1.72l.75.06a8.35,8.35,0,0,1-3.81,2.05,25.27,25.27,0,0,1-4.14.64,12.94,12.94,0,0,0-3.85.79,2.77,2.77,0,0,0-1.26,1.18,4,4,0,0,0-.37,1.79H22.3a16.9,16.9,0,0,0-.12-2c-.05-.33-.11-.67-.19-1a3.66,3.66,0,0,0-.15-.43,1.82,1.82,0,0,0-.15-.27l-.16-.31V18.77a16.32,16.32,0,0,1,.2-2.41,10.49,10.49,0,0,1,1.78-4.53,8.15,8.15,0,0,1,4-2.85,14.5,14.5,0,0,1,4.76-.7A14.43,14.43,0,0,1,37,9a8.14,8.14,0,0,1,3.87,2.87,10,10,0,0,1,1.69,4.49,28.07,28.07,0,0,1,.16,4.76.22.22,0,0,1-.22.22h0a.21.21,0,0,1-.22-.21h0A26.81,26.81,0,0,0,42,16.5a9.7,9.7,0,0,0-1.65-4.23,7.59,7.59,0,0,0-3.62-2.61A13.89,13.89,0,0,0,32.23,9a13.83,13.83,0,0,0-4.51.72,7.35,7.35,0,0,0-3.54,2.62,9.47,9.47,0,0,0-1.57,4.18,17.38,17.38,0,0,0-.19,2.27v2.3l-.16-.3a1.86,1.86,0,0,1,.4.6c.08.18.14.37.2.55A8.32,8.32,0,0,1,23.09,23a15.37,15.37,0,0,1,.13,2.14.47.47,0,0,1-.93,0h0A5,5,0,0,1,22.75,23a3.67,3.67,0,0,1,1.68-1.6,13.25,13.25,0,0,1,4.17-.9,24.66,24.66,0,0,0,4-.63A7.34,7.34,0,0,0,36,18a.51.51,0,0,1,.71,0h0v.06a5.94,5.94,0,0,0,1.55,1.49c.6.41,1.3.7,2,1.14a3.75,3.75,0,0,1,1.63,2,8.19,8.19,0,0,1,.32,2.46.46.46,0,0,1-.53.39.46.46,0,0,1-.38-.39h0A16.91,16.91,0,0,1,41.38,23a8,8,0,0,1,.2-1.07,3.74,3.74,0,0,1,.17-.54,1.86,1.86,0,0,1,.35-.61l-.12.28v-2.3a17.66,17.66,0,0,0-.18-2.29,9.6,9.6,0,0,0-1.58-4.19,7.54,7.54,0,0,0-3.55-2.62A14.13,14.13,0,0,0,32.16,9a13.54,13.54,0,0,0-4.52.67A7.46,7.46,0,0,0,24,12.24a9.58,9.58,0,0,0-1.65,4.22,30,30,0,0,0-.24,4.64h0a.21.21,0,0,1-.2.22h0A.21.21,0,0,1,21.74,21.19Z" fill="#333"/>
            <line x1="25.54" y1="36.43" x2="25.54" y2="40.02" fill="none" stroke="#333" stroke-linecap="round" stroke-linejoin="round" stroke-width="1.5"/>
            <path d="M42,29.17l-.57,3A6.53,6.53,0,0,1,39,36.1l-2.62,2a6.77,6.77,0,0,1-8.21,0l-2.63-2A6.47,6.47,0,0,1,23,32.18l-.57-3c-1.89-.08-2.83-2.06-3.08-4-.29-2.29.78-4,2.55-4v-2c0-5.41,2-10.51,10.25-10.51s10.29,5.12,10.29,10.52v2c1.77,0,2.86,1.71,2.57,4-.24,1.9-1.24,3.86-3.08,4Z" fill="none" stroke="#333" stroke-linejoin="round" stroke-width="1.5"/>
            <line x1="38.32" y1="37.07" x2="38.32" y2="40.02" fill="none" stroke="#333" stroke-linecap="round" stroke-linejoin="round" stroke-width="1.5"/>
            <line x1="29.23" y1="33.5" x2="28.94" y2="34.07" fill="none" stroke="#e6b790" stroke-linecap="round" stroke-miterlimit="10" stroke-width="0.65"/>
            <line x1="34.96" y1="33.5" x2="35.25" y2="34.07" fill="none" stroke="#ddad8a" stroke-linecap="round" stroke-miterlimit="10" stroke-width="0.65"/>
            <path d="M30.09,30.49c1,0,1,.5,2,.5s1-.5,2-.5" fill="none" stroke="#c68b71" stroke-linecap="round" stroke-miterlimit="10" stroke-width="0.75"/>
            <path d="M39.29,24.38c-.43,0-.86-.12-1.27-.13a6.12,6.12,0,0,0-1.21,0,8.56,8.56,0,0,0-1.23.13,5.9,5.9,0,0,1-1.39.08.23.23,0,0,1-.2-.26h0a.22.22,0,0,1,.17-.19h0a10.07,10.07,0,0,0,1.2-.43,4.53,4.53,0,0,1,1.36-.34,5.2,5.2,0,0,1,1.42.16,6,6,0,0,1,1.29.51.23.23,0,0,1,.1.31h0a.21.21,0,0,1-.23.12Z" fill="#333"/>
            <path d="M24.64,23.94a5.5,5.5,0,0,1,1.29-.51,4.84,4.84,0,0,1,1.42-.16,4,4,0,0,1,1.36.34,12.21,12.21,0,0,0,1.2.43h0a.23.23,0,0,1,.16.28h0a.25.25,0,0,1-.19.17,5.9,5.9,0,0,1-1.39-.08c-.43-.06-.84-.09-1.23-.13a6.12,6.12,0,0,0-1.21,0,10.93,10.93,0,0,0-1.27.13h0a.24.24,0,0,1-.26-.2h0A.24.24,0,0,1,24.64,23.94Z" fill="#333"/>
            <path d="M42.13,6.35a39.31,39.31,0,0,1-9.82-3.41,1.33,1.33,0,0,0-1.2,0,39.72,39.72,0,0,1-9.82,3.41,1.33,1.33,0,0,0-.88.62A21.54,21.54,0,0,1,15,12.54a1.35,1.35,0,0,0-.22,1.91h0l.08.09L19.27,19c2.69-2.14,7.24-3.56,12.43-3.56S41.44,16.86,44.13,19l4.45-4.45a1.35,1.35,0,0,0,0-1.91h0l-.1-.09A21.62,21.62,0,0,1,43,7,1.38,1.38,0,0,0,42.13,6.35Z" fill="#3c495a" stroke="#333" stroke-linecap="round" stroke-linejoin="round" stroke-width="1.5"/>
            <path d="M19.19,18.89C21.68,16.59,26.36,15,31.71,15s10.06,1.56,12.52,3.85c-2.49,2.3-7.17,3.85-12.52,3.85S21.69,21.18,19.19,18.89Z" fill="#333" stroke="#333" stroke-miterlimit="10" stroke-width="1.5"/>
            <path d="M33.75,12.48,32,13.63l-1.72-1.15A2.87,2.87,0,0,1,29,10.09V7.63a5.08,5.08,0,0,0,2.75-.84L32,6.62l.25.17A5,5,0,0,0,35,7.62v2.47A2.87,2.87,0,0,1,33.75,12.48Z" fill="#ead4ad"/>
            <path d="M32,6.63l-.25.16A5,5,0,0,1,29,7.62v2.47a2.85,2.85,0,0,0,1.22,2.33A6.48,6.48,0,0,0,32.7,7.34V7l-.42-.22Z" fill="#f2e1c0"/>
            <path d="M33.75,12.48,32,13.63l-1.72-1.15A2.87,2.87,0,0,1,29,10.09V7.63a5.08,5.08,0,0,0,2.75-.84L32,6.62l.25.17A5,5,0,0,0,35,7.62v2.47A2.87,2.87,0,0,1,33.75,12.48Z" fill="none" stroke="#333" stroke-linecap="round" stroke-linejoin="round"/>
            <path d="M32.09,51.36l.21,3a.5.5,0,0,1-.47.53.51.51,0,0,1-.53-.47v-.07l.21-3a.29.29,0,0,1,.31-.27h0A.3.3,0,0,1,32.09,51.36Z" fill="#343433"/>
            <polygon points="31.8 46.37 29.65 49.06 30.8 51.36 32.8 51.36 33.95 49.06 31.8 46.37" fill="#1e4884" stroke="#343433" stroke-linejoin="round" stroke-width="1.5"/>
            <path d="M24.8,39.37s1.53,3.51,7,7l-4,5a21.77,21.77,0,0,1-5-8Z" fill="#fff" stroke="#333" stroke-linecap="round" stroke-linejoin="round" stroke-width="1.5"/>
            <path d="M38.8,39.37s-1.53,3.51-7,7l4,5a21.77,21.77,0,0,0,5-8Z" fill="#fff" stroke="#333" stroke-linecap="round" stroke-linejoin="round" stroke-width="1.5"/>
            <path d="M31.84,57c1.39,0,2.78,0,4.17-.13,1.42-2.37,4.71-8.56,4.71-14.87l-.89-.18-1.19-2.68a23.24,23.24,0,0,1-6.85,6.25,23.49,23.49,0,0,1-6.88-6.25l-1.16,2.68-.89.18c0,6.31,3.29,12.49,4.71,14.87C29,57,30.42,57.05,31.84,57Z" fill="#fff" stroke="#333" stroke-linecap="round" stroke-linejoin="round" stroke-width="1.34"/>
            <polygon points="31.8 45.42 29.42 48.4 30.91 49.89 32.69 49.89 34.1 48.3 31.8 45.42" fill="#3467a8" stroke="#343433" stroke-linecap="round" stroke-linejoin="round" stroke-width="1.5"/>
            <path d="M24.92,39.17a23.49,23.49,0,0,0,6.88,6.25l-3.57,4.47c-2.68-2.68-4.47-6.25-4.47-8Z" fill="#fff" stroke="#333" stroke-linecap="round" stroke-linejoin="round" stroke-width="1.5"/>
            <path d="M38.65,39.17a23.24,23.24,0,0,1-6.85,6.25l3.57,4.47c2.68-2.68,4.47-6.25,4.47-8Z" fill="#fff" stroke="#333" stroke-linecap="round" stroke-linejoin="round" stroke-width="1.5"/>
            <path d="M41.78,56.22l5.14-4.53L45.13,49l1.9-1.8-2.68-4.47L40.77,42c-.05,5.32-3.07,11.7-4.79,14.88A56.63,56.63,0,0,0,41.78,56.22Z" fill="#3c495a" stroke="#343433" stroke-linejoin="round" stroke-width="1.5"/>
            <path d="M16.69,51.69l5.12,4.51a54.91,54.91,0,0,0,5.85.7C26,53.72,22.93,47.35,22.88,42l-3.58.71-2.68,4.47L18.48,49Z" fill="#3c495a" stroke="#343433" stroke-linejoin="round" stroke-width="1.5"/>
            <path d="M18.21,44.55l-6.06,1.83a3.62,3.62,0,0,0-2.59,2.9L9,52.47A57.79,57.79,0,0,0,31.84,57a57.84,57.84,0,0,0,22.74-4.56L54,49.27a3.63,3.63,0,0,0-2.58-2.9l-6.06-1.83" fill="none" stroke="#333" stroke-linejoin="round" stroke-width="1.5"/>
            <path d="M31.84,57h3c-.88-3-2.13-7.09-2.13-7.09H30.9L28.77,57Z" fill="#3467a8" stroke="#333" stroke-miterlimit="10" stroke-width="1.5"/>
            <path d="M32,49.89l.19,2.68a.45.45,0,0,1-.42.48.46.46,0,0,1-.48-.42h0v-.06l.19-2.68a.25.25,0,0,1,.28-.24h0A.25.25,0,0,1,32,49.89Z" fill="#343433"/>
            <path d="M33.1,32.39c-.36,0-.56.28-1,.28s-.64-.28-1-.28c-.63,0-1.67,1-2,1.4l.93.81a2.19,2.19,0,0,0,1.56.55h1a2.19,2.19,0,0,0,1.56-.55l.93-.81C34.77,33.42,33.73,32.39,33.1,32.39Z" fill="#c69675"/>
            <path d="M35.09,33.79a3.54,3.54,0,0,0-1.44-.3c-.95,0-1,.19-1.56.19a9.11,9.11,0,0,0-1.56-.19,3.9,3.9,0,0,0-1.44.3" fill="none" stroke="#a3785a" stroke-linecap="round" stroke-miterlimit="10" stroke-width="0.5"/>
            <ellipse cx="27.56" cy="25.73" rx="0.81" ry="0.45" fill="#333"/>
            <ellipse cx="36.53" cy="25.73" rx="0.81" ry="0.45" fill="#333"/>
          </g>
        </g>
      </g>
      <path d="M37.48,29a5.21,5.21,0,0,1,2.23,7,5,5,0,0,1-.66,1c-.82,1-6.44,9.31-14.3,0a5.2,5.2,0,0,1,.61-7.34,4.84,4.84,0,0,1,1-.65l4.33-2.25a2.75,2.75,0,0,1,2.5,0Z" fill="#fff"/>
      <path d="M24.32,30.83A21.75,21.75,0,0,1,20.74,22" fill="#fff" stroke="#333" stroke-linecap="round" stroke-linejoin="round" stroke-width="1.5"/>
      <path d="M39.74,30.83A21.75,21.75,0,0,0,43.32,22" fill="#fff" stroke="#333" stroke-linecap="round" stroke-linejoin="round" stroke-width="1.5"/>
      <line x1="23.52" y1="33.48" x2="21.95" y2="32.61" fill="none" stroke="#333" stroke-linecap="round" stroke-linejoin="round" stroke-width="1.5"/>
      <line x1="40.54" y1="33.48" x2="42.11" y2="32.61" fill="none" stroke="#333" stroke-linecap="round" stroke-linejoin="round" stroke-width="1.5"/>
      <path d="M37.48,29l-4.31-2.24a2.75,2.75,0,0,0-2.5,0L26.34,29a5.13,5.13,0,0,0-2.65,3.37,5.13,5.13,0,0,0,1.07,2.07c7.86,9.32,13.48,1,14.3,0a5.2,5.2,0,0,0,1.08-2.1A5.16,5.16,0,0,0,37.48,29Z" fill="#fff"/>
      <path d="M37.48,29l-4.31-2.24A3,3,0,0,0,32,26.43h0v7.63c0,2,2.1,1.54.83,3.93-2,3.67-6.77-2.76-6.77.39,0,.11,2.82,2,2.81,2.1,5.65,2.94,9.5-2.73,10.16-3.51a5.21,5.21,0,0,0-.59-7.35A5.43,5.43,0,0,0,37.48,29Z" fill="#eee"/>
      <path d="M23.71,32.24A18.23,18.23,0,0,0,32,34.42a16.46,16.46,0,0,0,8.07-2.18" fill="none" stroke="#ddd" stroke-miterlimit="10" stroke-width="0.96"/>
      <path d="M23.71,34.37A18.09,18.09,0,0,0,32,36.54a16.35,16.35,0,0,0,8.07-2.17" fill="none" stroke="#ddd" stroke-miterlimit="10" stroke-width="0.96"/>
      <path d="M37.48,29a5.21,5.21,0,0,1,2.23,7,5,5,0,0,1-.66,1c-.82,1-6.44,9.31-14.3,0a5.2,5.2,0,0,1,.61-7.34,4.84,4.84,0,0,1,1-.65l4.33-2.25a2.75,2.75,0,0,1,2.5,0Z" fill="none" stroke="#333" stroke-linejoin="round" stroke-width="1.5"/>
    </g>
  </g>
</svg>
