<svg xmlns="http://www.w3.org/2000/svg" viewBox="0 0 64 64">
  <g id="pulmonologist-black-male-coronavirus">
    <g id="e963720f-024c-4bfe-a9ee-8905d7f62e78">
      <g id="f03483d4-829c-478c-863e-26333e89de49">
        <g id="f5f5d3df-2f74-4738-bce9-7ed0839883e9">
          <g id="b47cf9b1-2045-40ba-9941-96765521d665">
            <path d="M52.53,48.16a5.65,5.65,0,0,0-4.5-4.5c-1.33-.33-4.71-1.16-8.5-2-1.84-.41-3.7-.72-5.56-1V36.14H19v4.55a47,47,0,0,0-5.42,1L5,43.69a5.65,5.65,0,0,0-4.5,4.5L0,50.66a65.13,65.13,0,0,0,26.53,5.5A65.18,65.18,0,0,0,53,50.66Z" fill="#916953"/>
            <line x1="18.97" y1="36.14" x2="18.97" y2="42.09" fill="none" stroke="#333" stroke-linejoin="round" stroke-width="1.5"/>
            <line x1="33.97" y1="36.14" x2="33.97" y2="42.09" fill="none" stroke="#333" stroke-linejoin="round" stroke-width="1.5"/>
            <path d="M52.53,48.16a5.65,5.65,0,0,0-4.5-4.5c-9.5-2.38-12.44-2.82-15.67-3.15a14.9,14.9,0,0,1-4.76,3.24H25.41a14.91,14.91,0,0,1-4.75-3.26C18.27,40.73,15.8,41,5,43.66a5.65,5.65,0,0,0-4.5,4.5L0,50.66a65.13,65.13,0,0,0,26.53,5.5A65.18,65.18,0,0,0,53,50.66Z" fill="#eee"/>
            <path d="M48,47.25c-19.23-4.81-25.16-4.47-43,0A6.67,6.67,0,0,0,.33,50.8a66.08,66.08,0,0,0,26.23,5.36,66.34,66.34,0,0,0,26.17-5.35A6.64,6.64,0,0,0,48,47.25Z" fill="#ddd"/>
            <path d="M17.28,39.16,10.6,44.83l3.86,2.72L11.76,51l4.57,4.3c1.25.2,2.55.36,3.91.5C18.25,51.58,17.37,46.87,17.28,39.16Z" fill="#fff"/>
            <path d="M35.65,39.16l6.68,5.67-3.86,2.72,2.7,3.5-4.57,4.3c-1.25.2-2.55.36-3.91.5C34.68,51.58,35.56,46.87,35.65,39.16Z" fill="#fff"/>
            <path d="M32.4,40.48a15,15,0,0,1-4.79,3.28H25.42a15.08,15.08,0,0,1-4.75-3.26c-1.12.1-2.23.21-3.34.36.2,6.71,1.08,11,2.93,15h0c2,.19,4.23.3,6.31.3h0c2,0,4.12-.1,6.24-.3h0c1.84-3.94,2.73-8.28,2.93-15C34.52,40.68,33.4,40.56,32.4,40.48Z" fill="#bcdaf7"/>
            <path d="M26.56,56.16q2.45,0,4.83-.18c-2.85-8.69-2.41-7.36-2.8-8.53l1.57-2.07a1.22,1.22,0,0,0,0-1.43,1.29,1.29,0,0,0-1.07-.53H25.85a1.24,1.24,0,0,0-1.14.78,1.29,1.29,0,0,0,.21,1.24l1.5,2-3,8.6C24.46,56.13,25.51,56.16,26.56,56.16Z" fill="#91acc1"/>
            <path d="M32.37,49.53l.64.85a.52.52,0,0,0,.19.14.49.49,0,0,0,.65-.28h0L36,41.48Z" fill="#91acc1"/>
            <path id="b2cdbfd0-97ac-4058-9238-42b3734044ce" d="M25.41,43.75l-4.53,5.86s.19.32.41.72c.34.63.73.17.74.16.56-.74,4.51-6.31,4.51-6.31Z" fill="#91acc1"/>
            <path id="b47d28ff-e695-4b41-9c54-bfc48a09fbcd" d="M24,45l1.82,2.42a.82.82,0,0,0,1.15.17h0a.81.81,0,0,0,.16-.16L29,45a.83.83,0,0,0-.17-1.16.84.84,0,0,0-.49-.16H24.71a.83.83,0,0,0-.85.81h0A.82.82,0,0,0,24,45Z" fill="#5e748e"/>
            <path d="M24.71,43.75h-.08l1.23,1.63a.81.81,0,0,0,1.14.18h0l0,0a.81.81,0,0,0,.16-.16l1.23-1.63Z" fill="#475b77"/>
            <path id="f2d2381a-b6d5-43e8-89c3-721917c227f3" d="M24,45l1.82,2.42a.82.82,0,0,0,1.15.17h0a.81.81,0,0,0,.16-.16L29,45a.83.83,0,0,0-.17-1.16.84.84,0,0,0-.49-.16H24.71a.83.83,0,0,0-.85.81h0A.82.82,0,0,0,24,45Z" fill="none" stroke="#333" stroke-linejoin="round"/>
            <path d="M23,56c1.18.06,2.37.1,3.57.1s2.37,0,3.54-.09l-2.95-8.52H25.92Z" fill="#5e748e"/>
            <path d="M24.48,56.12h2.05c1.15,0,2.44,0,3.57-.09l-3-8.52H25.91l-.33,1h0a.93.93,0,0,1,1,.91h0v0Z" fill="#475b77"/>
            <path d="M23,56c1.12.06,2.43.1,3.57.1s2.44,0,3.54-.09l-2.95-8.52H25.92Z" fill="none" stroke="#333" stroke-linejoin="round"/>
            <path id="e6616b37-2072-4f2e-b64b-8c808559916a" d="M18.43,37.59,17,41.5l3.75,8.26,4.66-6A14.87,14.87,0,0,1,18.43,37.59Z" fill="#bcdaf7"/>
            <path id="ba66c5b6-5d3f-4398-a309-c9fb71371e9f" d="M25.41,43.75a14.73,14.73,0,0,1-7-6.16L17,41.5l3.75,8.26,4.65-6" fill="none" stroke="#333" stroke-linecap="round" stroke-linejoin="round" stroke-width="1.5"/>
            <path id="f48e207c-e31c-4a3e-809e-68e94fd4914c" d="M34.64,37.59,36,41.47l-3.76,8.27-4.66-6A15,15,0,0,0,34.64,37.59Z" fill="#bcdaf7"/>
            <path id="b57cf062-7628-4d9a-991f-f8212fe5aa30" d="M27.6,43.75a15,15,0,0,0,7-6.15L36,41.48l-3.79,8.27-4.66-6" fill="none" stroke="#333" stroke-linecap="round" stroke-linejoin="round" stroke-width="1.5"/>
            <path d="M17,41.5S6.51,43.29,5,43.66a5.65,5.65,0,0,0-4.5,4.5L0,50.66a65.13,65.13,0,0,0,26.53,5.5A65.18,65.18,0,0,0,53,50.66l-.5-2.5a5.65,5.65,0,0,0-4.5-4.5c-1.33-.33-12-2.18-12-2.18" fill="none" stroke="#333" stroke-linecap="round" stroke-linejoin="round" stroke-width="1.5"/>
            <path d="M11,57.44a1.78,1.78,0,0,1-1.76-1.76v-3.2A1.78,1.78,0,0,1,11,50.72h2.48a1.78,1.78,0,0,1,1.76,1.76v3.2a1.78,1.78,0,0,1-1.76,1.76" fill="none" stroke="#333" stroke-linejoin="round" stroke-width="1.2"/>
            <line x1="11.06" y1="56.96" x2="11.06" y2="57.92" fill="none" stroke="#333" stroke-linecap="round" stroke-linejoin="round" stroke-width="1.2"/>
            <line x1="13.54" y1="56.96" x2="13.54" y2="57.92" fill="none" stroke="#333" stroke-linecap="round" stroke-linejoin="round" stroke-width="1.2"/>
            <path d="M37.39,38.28A3.6,3.6,0,0,1,41,41.86h0v9.78a3.59,3.59,0,0,1-3.58,3.6h0" fill="none" stroke="#333" stroke-linejoin="round" stroke-width="1.2"/>
            <path d="M12.34,50.66V41.89a3.59,3.59,0,0,1,3.58-3.6h0" fill="none" stroke="#333" stroke-linejoin="round" stroke-width="1.2"/>
            <circle cx="36.11" cy="55.24" r="3.12" fill="#9cbbbc"/>
            <circle cx="36.11" cy="55.24" r="0.88" fill="#e6f3f4"/>
            <circle cx="36.11" cy="55.24" r="3.12" fill="none" stroke="#333" stroke-linejoin="round" stroke-width="1.2"/>
            <path d="M37.54,21.75V20c0-5.95-2.09-12.08-11-12.08s-11,6.13-11,12.08v1.67c-.09,0-3.29,0-2.2,5.49a4.27,4.27,0,0,0,3.29,3.29c0,3.9,1.1,4.39,4.81,8.21,1.43,1.82,3.17,1.67,5.07,1.67s3.65.15,5.07-1.67c3.71-3.82,4.81-4.31,4.81-8.21a4.27,4.27,0,0,0,3.29-3.29C40.84,21.75,37.63,21.71,37.54,21.75Z" fill="#a88064"/>
            <path d="M15.58,21.79c-3.49,0-3.5,7.77,1.1,8.74V23.45C16.68,22.68,16.61,21.79,15.58,21.79Z" fill="#a0775c"/>
            <path d="M37.54,21.75V20c0-5.95-2.09-12.08-11-12.08a18.13,18.13,0,0,0-3.29.29V19.86a2.32,2.32,0,0,1-1.07,1.82.3.3,0,0,0-.07.41.27.27,0,0,0,.18.11,6,6,0,0,1,3.16,1.16h1.1V26a1.67,1.67,0,0,0,.64,1.4,1.1,1.1,0,0,1-.64,2h0c-.81,0-1.1-.55-2.2-.55-.65,0-.55.85-.57.82a2.5,2.5,0,0,1,1.1.29,3.28,3.28,0,0,0,1.65.43h0v3.31a1.9,1.9,0,0,0,1.25,1.76,1.56,1.56,0,0,1,.94,1.63c0,3-5.43-.3-5.43,3a9.31,9.31,0,0,0,3.24.31c1.9,0,3.65.15,5.07-1.67,3.73-3.8,4.83-4.29,4.83-8.19a4.27,4.27,0,0,0,3.29-3.29C40.84,21.75,37.63,21.71,37.54,21.75Z" fill="#9c775b"/>
            <path d="M37.57,21.75c-.64,0-1.12,1.06-1.12,1.87v6.92C41.25,29.51,40.77,21.61,37.57,21.75Z" fill="#916953"/>
            <path d="M37.54,21.75V20c0-5.95-2.09-12.08-11-12.08s-11,6.13-11,12.08v1.67c-.09,0-3.29,0-2.2,5.49a4.27,4.27,0,0,0,3.29,3.29c0,3.9,1.1,4.39,4.81,8.21,1.43,1.82,3.17,1.67,5.07,1.67s3.65.15,5.07-1.67c3.71-3.82,4.81-4.31,4.81-8.21a4.27,4.27,0,0,0,3.29-3.29C40.84,21.75,37.63,21.71,37.54,21.75Z" fill="none" stroke="#333" stroke-linejoin="round" stroke-width="1.65"/>
            <line x1="26.54" y1="30.4" x2="26.54" y2="31.4" fill="none" stroke="#997059" stroke-linecap="round" stroke-miterlimit="10" stroke-width="0.75"/>
            <path d="M24,29.84l-1.87,1.42a1.53,1.53,0,0,0-.59,1.2v1.65" fill="none" stroke="#a0775c" stroke-linecap="round" stroke-miterlimit="10" stroke-width="0.75"/>
            <path d="M29,29.84l1.87,1.42a1.53,1.53,0,0,1,.59,1.2v1.65" fill="none" stroke="#ab8166" stroke-linecap="round" stroke-miterlimit="10" stroke-width="0.75"/>
            <line x1="26.42" y1="38.17" x2="26.67" y2="38.17" fill="none" stroke="#997059" stroke-linecap="round" stroke-miterlimit="10" stroke-width="0.75"/>
            <path d="M27.9,32.25a2.94,2.94,0,0,0-1.18.13.75.75,0,0,1-.42,0,2.94,2.94,0,0,0-1.18-.13c-.67.1-.74.52-2.09,1.25l1.19.73a2.21,2.21,0,0,0,1.27.41h2.07a2.16,2.16,0,0,0,1.27-.41l1.23-.7C28.71,32.8,28.57,32.35,27.9,32.25Z" fill="#916953"/>
            <path d="M30,33.54c-1,0-1.26-.39-2.24-.39a7.85,7.85,0,0,0-1.29.17,8,8,0,0,0-1.29-.17c-.94,0-1.15.36-2.21.36" fill="none" stroke="#674848" stroke-linecap="round" stroke-miterlimit="10" stroke-width="0.75"/>
            <path d="M23.79,29.52a2.72,2.72,0,0,1,1.31.34h0a2.75,2.75,0,0,0,2.61,0h0A2.76,2.76,0,0,1,29,29.52" fill="none" stroke="#674848" stroke-linecap="round" stroke-miterlimit="10" stroke-width="0.75"/>
            <path d="M18.89,22.87a6.19,6.19,0,0,1,1.45-.55,6,6,0,0,1,1.58-.09,10,10,0,0,1,2.82,1h0a.24.24,0,0,1,.12.3.23.23,0,0,1-.23.14,10.66,10.66,0,0,1-1.48-.26c-.47-.09-.93-.14-1.37-.21a7.48,7.48,0,0,0-2.75.06h0a.24.24,0,0,1-.27-.18A.23.23,0,0,1,18.89,22.87Z" fill="#333"/>
            <path d="M33.83,23.29a7.48,7.48,0,0,0-2.75-.06c-.45.07-.9.12-1.37.21a10.66,10.66,0,0,1-1.48.26.22.22,0,0,1-.24-.2h0v0a.23.23,0,0,1,.14-.23h0a10,10,0,0,1,2.82-1,7,7,0,0,1,1.58.09,5.3,5.3,0,0,1,1.45.55.23.23,0,0,1-.17.43h0Z" fill="#333"/>
            <circle cx="21.96" cy="24.95" r="0.71" fill="#333"/>
            <circle cx="30.92" cy="24.95" r="0.71" fill="#333"/>
            <path d="M35.57,31.41l-3,3v-1.5a2,2,0,0,0-2-2h-8a2,2,0,0,0-2,2v1.5l-2.88-3c0-2-1-1.89-1-5.75v4.75c0,6,2.81,5.25,4.94,8.28,1.51,2.16,3.75,1.74,4.94,1.72s3.43.44,4.94-1.72c2.13-3,5.06-2.28,5.06-8.28V25.66C36.57,29.52,35.57,29.52,35.57,31.41ZM31.3,35.25l-1,1.22a1.29,1.29,0,0,1-1,.47,1.43,1.43,0,0,1-1.3-1H25.15a1.41,1.41,0,0,1-1.3,1,1.29,1.29,0,0,1-1-.47l-1-1.22V32.72a.79.79,0,0,1,.76-.8h2.56a1.57,1.57,0,0,0,1.26-.73.21.21,0,0,1,.29,0h0l0,0a1.57,1.57,0,0,0,1.26.73h2.56a.77.77,0,0,1,.76.8h0v2.53Z" fill="#333" stroke="#333" stroke-linecap="round" stroke-linejoin="round"/>
            <path d="M26.63,6A21.8,21.8,0,0,0,18.51,7.8a8.76,8.76,0,0,0-5.42,8.12h0a8.71,8.71,0,0,0,1.11,4.27L16.35,24a.28.28,0,0,0,.26.15.51.51,0,0,0,.5-.43A11.12,11.12,0,0,1,18.23,20V17.75S17.73,11,26.63,11,35,17.77,35,17.77V20a11.07,11.07,0,0,1,1.12,3.71.51.51,0,0,0,.5.43.28.28,0,0,0,.26-.15L39,20.19a8.71,8.71,0,0,0,1.11-4.27h0A8.76,8.76,0,0,0,34.72,7.8,22.09,22.09,0,0,0,26.63,6Z" fill="#333"/>
            <path d="M21.29,17.36a6.5,6.5,0,0,1,3,.26h0a6.47,6.47,0,0,0,4.08,0h.05a6.6,6.6,0,0,1,3.36-.19" fill="none" stroke="#a88064" stroke-linecap="round" stroke-miterlimit="10" stroke-width="0.5"/>
            <path d="M21.29,17.88a6.5,6.5,0,0,1,3,.26h0a6.47,6.47,0,0,0,4.08,0h.05A6.58,6.58,0,0,1,31.8,18" fill="none" stroke="#9c775b" stroke-linecap="round" stroke-miterlimit="10" stroke-width="0.5"/>
            <path d="M24.34,14.7h0a6.33,6.33,0,0,0,4.08,0h0" fill="none" stroke="#a88064" stroke-linecap="round" stroke-miterlimit="10" stroke-width="0.5"/>
            <path d="M57.34,28l-4.09-.65a1,1,0,0,1-.85-1V25L55,24.27a12.48,12.48,0,0,0,.19-4.6c-.45-1.79-.69-3.76-4.32-3.76s-3.25,3.7-3.25,3.7v6.82a1,1,0,0,1-.82,1L43.45,28a1.41,1.41,0,0,0-1.09,1v7.61a1.12,1.12,0,0,0,1.12,1.12H57.26a1.12,1.12,0,0,0,1.12-1.11l.08-7.6A1.4,1.4,0,0,0,57.34,28Z" fill="#c4d9df"/>
            <path d="M47.85,36.11H45.77a1.22,1.22,0,0,1-1.2-1.2V32.35a3.12,3.12,0,0,1,3.12-3.12h.08a1.24,1.24,0,0,1,1.2,1.2V35a1.09,1.09,0,0,1-1.11,1.07Z" fill="#dd9292"/>
            <path d="M47.85,36.11H45.77a1.22,1.22,0,0,1-1.2-1.2V32.35a3.12,3.12,0,0,1,3.12-3.12h.08a1.24,1.24,0,0,1,1.2,1.2V35a1.09,1.09,0,0,1-1.11,1.07Z" fill="none" stroke="#333" stroke-linejoin="round" stroke-width="1.2"/>
            <path d="M53,36.11H55a1.22,1.22,0,0,0,1.2-1.2V32.35a3.12,3.12,0,0,0-3.12-3.12H53a1.24,1.24,0,0,0-1.2,1.2V35a1.09,1.09,0,0,0,1.11,1.07h0Z" fill="#dd9292"/>
            <path d="M53,36.11H55a1.22,1.22,0,0,0,1.2-1.2V32.35a3.12,3.12,0,0,0-3.12-3.12H53a1.24,1.24,0,0,0-1.2,1.2V35a1.09,1.09,0,0,0,1.11,1.07h0Z" fill="none" stroke="#333" stroke-linejoin="round" stroke-width="1.2"/>
            <polyline points="49.13 31.39 50.41 30.11 51.69 31.39" fill="none" stroke="#333" stroke-linejoin="round" stroke-width="1.2"/>
            <line x1="50.41" y1="26.27" x2="50.41" y2="30.11" fill="none" stroke="#333" stroke-linejoin="round" stroke-width="1.2"/>
            <line x1="50.41" y1="24.27" x2="50.41" y2="25.47" fill="none" stroke="#333" stroke-linejoin="round" stroke-width="1.2"/>
            <polyline points="50.41 23.47 50.41 22.27 52.24 22.27" fill="none" stroke="#333" stroke-linejoin="round" stroke-width="1.2"/>
            <line x1="53.39" y1="22.16" x2="54.99" y2="22.16" fill="none" stroke="#333" stroke-linejoin="round" stroke-width="1.2"/>
          </g>
        </g>
      </g>
      <path d="M32.33,29A5.46,5.46,0,0,1,34,37.39c-.86,1-6.73,9.73-14.95,0a5.45,5.45,0,0,1,.64-7.69,5.21,5.21,0,0,1,1-.67l4.53-2.35a2.88,2.88,0,0,1,2.62,0Z" fill="#fff"/>
      <path d="M18.57,31a23,23,0,0,1-3.75-9.3" fill="#fff" stroke="#333" stroke-linecap="round" stroke-linejoin="round" stroke-width="1.5"/>
      <path d="M34.69,31a23,23,0,0,0,3.75-9.3" fill="#fff" stroke="#333" stroke-linecap="round" stroke-linejoin="round" stroke-width="1.5"/>
      <line x1="17.73" y1="33.73" x2="16.09" y2="32.83" fill="none" stroke="#333" stroke-linecap="round" stroke-linejoin="round" stroke-width="1.5"/>
      <line x1="35.53" y1="33.73" x2="37.17" y2="32.83" fill="none" stroke="#333" stroke-linecap="round" stroke-linejoin="round" stroke-width="1.5"/>
      <path d="M32.33,29l-4.51-2.34a2.88,2.88,0,0,0-2.62,0L20.67,29a5.38,5.38,0,0,0-2.77,3.52A5.42,5.42,0,0,0,19,34.71c8.22,9.75,14.1,1,15,0a5.36,5.36,0,0,0,1.13-2.18A5.4,5.4,0,0,0,32.33,29Z" fill="#fff"/>
      <path d="M32.33,29l-4.51-2.34a2.86,2.86,0,0,0-1.18-.3h0v8c0,2.06,2.2,1.61.86,4.11-2.05,3.84-7.08-2.89-7.08.41,0,.12,3,2.09,3,2.2,5.9,3.08,9.92-2.86,10.62-3.67A5.44,5.44,0,0,0,32.33,29Z" fill="#eee"/>
      <path d="M17.93,32.44a19,19,0,0,0,8.71,2.28,17.22,17.22,0,0,0,8.44-2.28" fill="none" stroke="#ddd" stroke-miterlimit="10"/>
      <path d="M17.93,34.67a19.08,19.08,0,0,0,8.71,2.27,17.24,17.24,0,0,0,8.44-2.27" fill="none" stroke="#ddd" stroke-miterlimit="10"/>
      <path d="M32.33,29A5.46,5.46,0,0,1,34,37.39c-.86,1-6.73,9.73-14.95,0a5.45,5.45,0,0,1,.64-7.69,5.21,5.21,0,0,1,1-.67l4.53-2.35a2.88,2.88,0,0,1,2.62,0Z" fill="none" stroke="#333" stroke-linejoin="round" stroke-width="1.5"/>
    </g>
  </g>
</svg>
