<svg xmlns="http://www.w3.org/2000/svg" viewBox="0 0 64 64">
  <g id="virologist-black-male-coronavirus">
    <g>
      <g id="ae24d433-c95c-4223-9042-70a1bb8e3247">
        <g id="e151fe86-2c61-4c80-a354-e2ce30d3afe7">
          <g id="b0cd656e-4180-4cca-8b52-6d06ce4a5047">
            <g id="a73cb001-7d8d-4f09-8abe-4c02eece0d98">
              <path d="M59.47,48.72a5.65,5.65,0,0,0-4.5-4.5c-1.33-.33-4.71-1.16-8.5-2-1.84-.41-3.7-.72-5.56-1V36.7h-15v4.55a47,47,0,0,0-5.42,1l-8.52,2a5.65,5.65,0,0,0-4.5,4.5L7,51.25a65.13,65.13,0,0,0,26.53,5.5A65.18,65.18,0,0,0,60,51.25Z" fill="#957058"/>
              <line x1="25.91" y1="36.7" x2="25.91" y2="42.64" fill="none" stroke="#333" stroke-linejoin="round" stroke-width="1.5"/>
              <line x1="40.91" y1="36.7" x2="40.91" y2="42.64" fill="none" stroke="#333" stroke-linejoin="round" stroke-width="1.5"/>
              <path d="M59.47,48.72a5.65,5.65,0,0,0-4.5-4.5C45.47,41.84,42.53,41.4,39.28,41a14.9,14.9,0,0,1-4.76,3.24H32.35A14.86,14.86,0,0,1,27.6,41c-2.39.24-4.86.47-15.63,3.17a5.65,5.65,0,0,0-4.5,4.5L7,51.21a65.13,65.13,0,0,0,26.53,5.5A65.18,65.18,0,0,0,60,51.21Z" fill="#eee"/>
              <path d="M55,47.81c-19.23-4.81-25.16-4.47-43,0a6.68,6.68,0,0,0-4.69,3.55,66.08,66.08,0,0,0,26.23,5.36,66.34,66.34,0,0,0,26.17-5.35A6.61,6.61,0,0,0,55,47.81Z" fill="#ddd"/>
              <path d="M39.34,41a15,15,0,0,1-4.79,3.28H32.36A15.14,15.14,0,0,1,27.61,41c-1.12.1-2.23.21-3.34.36.2,6.71,1.08,11.05,2.93,15h0c2,.19,4.23.3,6.31.3h0c2,0,4.12-.1,6.24-.3h0c1.84-3.94,2.73-8.28,2.93-15C41.46,41.24,40.34,41.12,39.34,41Z" fill="#d4f4f0"/>
              <path d="M33.51,56.72q2.45,0,4.83-.18c-2.85-8.69-2.41-7.36-2.8-8.53l1.57-2.07a1.22,1.22,0,0,0,0-1.43A1.29,1.29,0,0,0,36,44H32.8a1.24,1.24,0,0,0-1.14.78A1.26,1.26,0,0,0,31.87,46l1.5,2-3,8.64C31.4,56.69,32.45,56.72,33.51,56.72Z" fill="#a8ccc6"/>
              <path d="M39.28,50.09l.64.85a.52.52,0,0,0,.19.14.49.49,0,0,0,.65-.28h0L43,42Z" fill="#a8ccc6"/>
              <path id="a11cce38-ee94-4847-b8eb-141aa9ed4c66" d="M32.35,44.31l-4.53,5.86s.19.32.41.72c.34.63.73.17.74.16.56-.74,4.51-6.31,4.51-6.31Z" fill="#a8ccc6"/>
              <path id="a9ae4e4a-6113-4928-b036-3f1215a836f7" d="M31,45.64,32.79,48a.82.82,0,0,0,1.15.17h0a.81.81,0,0,0,.16-.16L36,45.62a.83.83,0,0,0-.17-1.16.84.84,0,0,0-.49-.16H31.64a.83.83,0,0,0-.85.81h0A1,1,0,0,0,31,45.64Z" fill="#5e748e"/>
              <path d="M31.66,44.31h-.08l1.23,1.63a.82.82,0,0,0,1.15.17h0a.81.81,0,0,0,.16-.16l1.23-1.63Z" fill="#475b77"/>
              <path id="ad48e550-2926-49de-8026-b49361bb3078" d="M31,45.64,32.79,48a.82.82,0,0,0,1.15.17h0a.81.81,0,0,0,.16-.16L36,45.62a.83.83,0,0,0-.17-1.16.84.84,0,0,0-.49-.16H31.64a.83.83,0,0,0-.85.81h0A1,1,0,0,0,31,45.64Z" fill="none" stroke="#333" stroke-linejoin="round"/>
              <path d="M29.94,56.62c1.18.06,2.37.1,3.57.1s2.37,0,3.54-.09l-3-8.52H32.86Z" fill="#5e748e"/>
              <path d="M31.42,56.68h2c1.15,0,2.44,0,3.57-.09l-3-8.52H32.85l-.33,1h0a.93.93,0,0,1,.95.91h0v0Z" fill="#475b77"/>
              <path d="M29.94,56.62c1.12.06,2.43.1,3.57.1s2.44,0,3.54-.09l-3-8.52H32.86Z" fill="none" stroke="#333" stroke-linejoin="round"/>
              <path id="fb73576e-0f26-4574-bee2-ae8aebd9d7ef" d="M25.37,38.15,24,42,27.7,50.3l4.65-6A15,15,0,0,1,25.37,38.15Z" fill="#d4f4f0"/>
              <path id="ffa207a7-0128-43c1-b714-75dcaa2f490f" d="M32.35,44.31a14.73,14.73,0,0,1-7-6.16L24,42,27.7,50.3l4.65-6" fill="none" stroke="#333" stroke-linecap="round" stroke-linejoin="round" stroke-width="1.5"/>
              <path id="bb903bab-c00b-4318-a31e-96d8e18ca47f" d="M41.58,38.15,43,42l-3.79,8.27-4.66-6A15,15,0,0,0,41.58,38.15Z" fill="#d4f4f0"/>
              <path id="b6c01fce-e489-4ab5-a34d-2d5ba70f2e2f" d="M34.55,44.31a15,15,0,0,0,7-6.15L43,42l-3.79,8.27-4.66-6" fill="none" stroke="#333" stroke-linecap="round" stroke-linejoin="round" stroke-width="1.5"/>
              <path d="M24.22,39.72l-6.68,5.67,3.86,2.72-2.7,3.5,4.58,4.3c1.25.2,2.55.36,3.91.5C25.2,52.14,24.28,47.43,24.22,39.72Z" fill="#ddd" stroke="#333" stroke-linejoin="round" stroke-width="1.53"/>
              <path d="M42.6,39.72l6.68,5.67-3.86,2.72,2.7,3.5-4.57,4.3c-1.25.2-2.55.36-3.91.5C41.63,52.14,42.5,47.43,42.6,39.72Z" fill="#ddd" stroke="#333" stroke-linejoin="round" stroke-width="1.53"/>
              <path d="M21.58,42c-3.65.85-8.13,1.88-9.61,2.25a5.65,5.65,0,0,0-4.5,4.5L7,51.21a65.13,65.13,0,0,0,26.53,5.5A65.18,65.18,0,0,0,60,51.21l-.5-2.5a5.65,5.65,0,0,0-4.5-4.5c-1.33-.33-6-1.42-9.75-2.26" fill="none" stroke="#333" stroke-linecap="round" stroke-linejoin="round" stroke-width="1.5"/>
              <path d="M44.39,22v-2.2c0-5.95-2.09-12.08-11-12.08s-11,6.13-11,12.09V22c-.09,0-3.29,0-2.2,5.49a4.27,4.27,0,0,0,3.29,3.29c0,3.9,1.1,4.39,4.81,8.21,1.43,1.82,3.17,1.67,5.07,1.67S37,40.85,38.43,39c3.75-3.82,4.85-4.31,4.85-8.21a4.27,4.27,0,0,0,3.29-3.29C47.68,22,44.48,22,44.39,22Z" fill="#a68064"/>
              <path d="M46.59,27.52C47.69,22,44.48,22,44.39,22v-2.2c0-5.95-2.09-12.08-11-12.08a15.66,15.66,0,0,0-2.9.28V20a3.89,3.89,0,0,1-1.27,2.88.46.46,0,0,0,0,.64.41.41,0,0,0,.23.13c1.5.43,2.3.71,3.23.47.31-.08.86.27.86.59v1.57a1.67,1.67,0,0,0,.64,1.4,1.1,1.1,0,0,1-.64,2c-.81,0-1.1-.55-2.2-.55-.65,0-.55.85-.57.82a2.5,2.5,0,0,1,1.1.29,3.28,3.28,0,0,0,1.65.43V34a1.9,1.9,0,0,0,1.25,1.76,1.56,1.56,0,0,1,.94,1.63c0,3-5.43-.3-5.43,3h0a9.62,9.62,0,0,0,3.16.29c1.9,0,3.65.15,5.07-1.67,3.71-3.84,4.8-4.33,4.8-8.23A4.29,4.29,0,0,0,46.59,27.52Z" fill="#9b775c"/>
              <path d="M43.28,22.41H24.68v4.21a3,3,0,0,0,3,3h2.6a2.89,2.89,0,0,0,1.52-.36A4.26,4.26,0,0,1,34,28.5a4.26,4.26,0,0,1,2.15.76,2.87,2.87,0,0,0,1.52.36h2.66a3,3,0,0,0,3-3Z" fill="#957058"/>
              <path d="M25,29.72a3.66,3.66,0,0,1-1.52-3.29V23.74a2.46,2.46,0,0,0-1.46-1.65c-.83.17-2.72,1-1.83,5.45a4.27,4.27,0,0,0,3.29,3.29c0,3.3.8,4.17,3.29,6.68V34.13A5.21,5.21,0,0,0,25,29.72Z" fill="#9b775c"/>
              <path d="M44.42,22a2.18,2.18,0,0,0-1.14,1.86v2.53a3.66,3.66,0,0,1-1.52,3.29A5.24,5.24,0,0,0,40,34.11v3.38c2.5-2.51,3.29-3.38,3.29-6.68a4.27,4.27,0,0,0,3.29-3.29C47.65,22.21,44.69,22,44.42,22Z" fill="#957058"/>
              <path d="M44.39,22v-2.2c0-5.95-2.09-12.08-11-12.08s-11,6.13-11,12.09V22c-.09,0-3.29,0-2.2,5.49a4.27,4.27,0,0,0,3.29,3.29c0,3.9,1.1,4.39,4.81,8.21,1.43,1.82,3.17,1.67,5.07,1.67S37,40.85,38.43,39c3.75-3.82,4.85-4.31,4.85-8.21a4.27,4.27,0,0,0,3.29-3.29C47.68,22,44.48,22,44.39,22Z" fill="none" stroke="#333" stroke-linejoin="round" stroke-width="1.5"/>
              <line x1="33.41" y1="30.68" x2="33.41" y2="31.68" fill="none" stroke="#977059" stroke-linecap="round" stroke-miterlimit="10" stroke-width="0.75"/>
              <line x1="32.41" y1="35.75" x2="34.41" y2="35.75" fill="none" stroke="#977059" stroke-linecap="round" stroke-miterlimit="10" stroke-width="0.75"/>
              <line x1="33.29" y1="38.45" x2="33.54" y2="38.45" fill="none" stroke="#977059" stroke-linecap="round" stroke-miterlimit="10" stroke-width="0.75"/>
              <path d="M34.77,32.54a2.94,2.94,0,0,0-1.18.13.61.61,0,0,1-.42,0A2.94,2.94,0,0,0,32,32.54c-.67.1-.74.52-2.09,1.25l1.19.73a2.21,2.21,0,0,0,1.27.41h2.07a2.16,2.16,0,0,0,1.27-.41l1.23-.7C35.57,33.09,35.44,32.63,34.77,32.54Z" fill="#957058"/>
              <path d="M36.92,33.82c-1,0-1.26-.39-2.24-.39a7.85,7.85,0,0,0-1.29.17,8,8,0,0,0-1.29-.17c-.94,0-1.15.36-2.21.36" fill="none" stroke="#674848" stroke-linecap="round" stroke-miterlimit="10" stroke-width="0.75"/>
              <path d="M30.69,29.81a2.72,2.72,0,0,1,1.31.34h0a2.75,2.75,0,0,0,2.61,0h0a2.84,2.84,0,0,1,1.31-.34" fill="none" stroke="#674848" stroke-linecap="round" stroke-miterlimit="10" stroke-width="0.75"/>
              <path d="M43,25.54c0-3,1.69-3.38,1.69-3.38.43-3,.89-4.88.17-7.43-1.25-4.37-5.27-7.19-11.44-7.19s-9.83,2.82-11.08,7.19c-.7,2.46-.31,4.15.17,7.43,0,0,1.5.35,1.5,3.38,0-2.6-.09-3.9.81-5a1,1,0,0,0,.19-.6V17.69a2.11,2.11,0,0,1,1.39-2,22.14,22.14,0,0,1,7.11-1.36,22.14,22.14,0,0,1,7.11,1.36,2.11,2.11,0,0,1,1.39,2V19.9a1,1,0,0,0,.19.6C43.19,22.1,43,23.23,43,25.54Z" fill="#333"/>
              <path d="M39.5,8.71a15.15,15.15,0,0,0-6.09-1.17c-6.17,0-9.83,2.82-11.08,7.19-.7,2.46-.31,4.15.17,7.43,0,0,1.2.29,1.45,2.51v-5C23.94,7.83,35.51,8,39.5,8.71Z" fill="#444"/>
              <path d="M23.65,25.54c0-.75-.07-1.49-.07-2.26A5.71,5.71,0,0,1,24,20.9a4.4,4.4,0,0,1,.31-.56l.09-.13v-.06a.28.28,0,0,0,0-.13.38.38,0,0,0,0-.15V17.92a2.84,2.84,0,0,1,.21-1.35,2.74,2.74,0,0,1,.89-1.13,3.59,3.59,0,0,1,.64-.35l.54-.2a22.53,22.53,0,0,1,6.8-1.31,20.44,20.44,0,0,1,4.6.61c.75.19,1.49.42,2.21.68l.54.2a3.06,3.06,0,0,1,.64.35,2.76,2.76,0,0,1,.9,1.13,2.84,2.84,0,0,1,.21,1.35V20c0,.08.31.54.44.9a5.53,5.53,0,0,1,.45,2.37c0,.77-.07,1.51-.09,2.26a.35.35,0,0,1-.69,0h0c-.08-1.5.06-3-.57-4.2-.08-.14-.16-.29-.25-.43a1.72,1.72,0,0,1-.32-.65,1.34,1.34,0,0,1,0-.4v-2a1.71,1.71,0,0,0-.24-.88,1.42,1.42,0,0,0-.86-.73l-.52-.17c-.69-.21-1.39-.4-2.1-.55a25.66,25.66,0,0,0-4.27-.51,24.62,24.62,0,0,0-4.28.49,21.64,21.64,0,0,0-2.1.56l-.52.17a1.62,1.62,0,0,0-.35.17,1.58,1.58,0,0,0-.51.58,1.75,1.75,0,0,0-.16.84v2a1.34,1.34,0,0,1,0,.4,1.68,1.68,0,0,1-.16.39l-.12.17-.08.1a3.42,3.42,0,0,0-.26.4,5.12,5.12,0,0,0-.45,2c-.05.73-.06,1.48-.09,2.23a.34.34,0,0,1-.35.33h0a.36.36,0,0,1-.44-.28A.07.07,0,0,1,23.65,25.54Z" fill="#333"/>
              <path d="M23.65,25.54a5.28,5.28,0,0,0-.31-1.8,2.57,2.57,0,0,0-.41-.74,1.37,1.37,0,0,0-.54-.41.44.44,0,0,1-.33-.36,25.25,25.25,0,0,1-.62-5.55,10.75,10.75,0,0,1,1.89-5.41,10.09,10.09,0,0,1,4.59-3.51,15.49,15.49,0,0,1,5.64-1,15.91,15.91,0,0,1,5.63,1,10.56,10.56,0,0,1,4.64,3.46,10.17,10.17,0,0,1,1.92,5.43,26.52,26.52,0,0,1-.62,5.55.46.46,0,0,1-.35.38h0a1.6,1.6,0,0,0-.62.39,2.55,2.55,0,0,0-.47.72,5,5,0,0,0-.41,1.86.35.35,0,0,1-.35.35.35.35,0,0,1-.34-.35,5.74,5.74,0,0,1,.31-2.13,2.88,2.88,0,0,1,.58-1,2.3,2.3,0,0,1,1.06-.7l-.35.38a25.83,25.83,0,0,0,.41-5.34,8.77,8.77,0,0,0-6-7.59,15.69,15.69,0,0,0-5.12-.87,15.38,15.38,0,0,0-5.13.76,8.79,8.79,0,0,0-4.07,3,9.7,9.7,0,0,0-1.82,4.76,29.86,29.86,0,0,0,.42,5.35l-.33-.36a2.07,2.07,0,0,1,1,.75,3.21,3.21,0,0,1,.49,1,6.26,6.26,0,0,1,.25,2.06.34.34,0,1,1-.68,0Z" fill="#333"/>
              <polygon points="58.79 13.54 58.79 9.42 55.22 7.36 51.65 9.42 51.65 13.54 55.22 15.6 58.79 13.54" fill="none" stroke="#000" stroke-miterlimit="10"/>
              <line x1="55.22" y1="7.36" x2="55.22" y2="5.04" fill="none" stroke="#000" stroke-miterlimit="10"/>
              <line x1="51.65" y1="9.42" x2="49.64" y2="8.26" fill="none" stroke="#000" stroke-miterlimit="10"/>
              <line x1="58.79" y1="13.54" x2="60.8" y2="14.7" fill="none" stroke="#000" stroke-miterlimit="10"/>
              <line x1="58.79" y1="9.42" x2="60.8" y2="8.26" fill="none" stroke="#000" stroke-miterlimit="10"/>
              <line x1="51.65" y1="13.54" x2="49.64" y2="14.7" fill="none" stroke="#000" stroke-miterlimit="10"/>
              <line x1="55.22" y1="15.6" x2="55.22" y2="17.92" fill="none" stroke="#000" stroke-miterlimit="10"/>
              <polyline points="15.22 15.12 13.4 18.28 15.22 21.44" fill="none" stroke="#000" stroke-miterlimit="10"/>
              <polygon points="13.4 11.96 9.75 11.96 7.93 15.12 9.75 18.28 13.4 18.28 15.22 15.12 13.4 11.96" fill="none" stroke="#000" stroke-miterlimit="10"/>
              <polyline points="7.93 21.44 9.75 18.28 7.93 15.12" fill="none" stroke="#000" stroke-miterlimit="10"/>
              <line x1="7.93" y1="8.8" x2="4.28" y2="8.8" fill="none" stroke="#000" stroke-miterlimit="10"/>
              <polyline points="9.75 5.64 7.93 8.8 9.75 11.96 13.4 11.96 15.22 8.8" fill="none" stroke="#000" stroke-miterlimit="10"/>
              <path d="M25.42,30.2a22.92,22.92,0,0,1-3.75-9.3" fill="#fff" stroke="#333" stroke-linecap="round" stroke-linejoin="round" stroke-width="1.5"/>
              <path d="M41.54,30.2a22.92,22.92,0,0,0,3.75-9.3" fill="#fff" stroke="#333" stroke-linecap="round" stroke-linejoin="round" stroke-width="1.5"/>
              <path d="M44,20.73H23v4.74a3.42,3.42,0,0,0,3.43,3.43H29.3A3.2,3.2,0,0,0,31,28.5a4.78,4.78,0,0,1,2.42-.86,4.78,4.78,0,0,1,2.42.86,3.18,3.18,0,0,0,1.71.4h2.92a3.43,3.43,0,0,0,3.43-3.43h0Z" fill="#98a4bf"/>
              <path d="M44,20.73H30.42a3.85,3.85,0,0,1-1.2,2.19.46.46,0,0,0,0,.64.41.41,0,0,0,.23.13c1.5.43,2.3.71,3.23.47.31-.08.86.27.86.59v1.57a1.68,1.68,0,0,0,.62,1.38,6.27,6.27,0,0,1,1.77.79,3.18,3.18,0,0,0,1.71.4h2.92A3.43,3.43,0,0,0,44,25.46h0V20.73Z" fill="#8f9db5"/>
              <circle cx="29.11" cy="24.89" r="0.65" fill="#77859e"/>
              <circle cx="38.07" cy="24.89" r="0.65" fill="#77859e"/>
              <path d="M25.79,22.59A6.06,6.06,0,0,1,27.28,22,6,6,0,0,1,28.86,22a10,10,0,0,1,2.82,1h0a.24.24,0,0,1,.12.3.23.23,0,0,1-.23.14,10.66,10.66,0,0,1-1.48-.26c-.47-.09-.93-.14-1.37-.21A7.48,7.48,0,0,0,26,23h0a.24.24,0,0,1-.27-.18A.22.22,0,0,1,25.79,22.59Z" fill="#77859e"/>
              <path d="M40.73,23A7.48,7.48,0,0,0,38,23c-.45.07-.9.12-1.37.21a10.66,10.66,0,0,1-1.48.26.22.22,0,0,1-.24-.2h0v0A.23.23,0,0,1,35,23h0a10,10,0,0,1,2.82-1,6.87,6.87,0,0,1,1.57.09,5.3,5.3,0,0,1,1.45.55A.23.23,0,0,1,41,23a.21.21,0,0,1-.25.12Z" fill="#77859e"/>
              <rect x="22.99" y="20.08" width="20.97" height="1.3" fill="#6592e0" stroke="#6592e0" stroke-linejoin="round" stroke-width="1.13"/>
            </g>
          </g>
        </g>
      </g>
      <g id="ab220b25-7c29-4e2f-a2cb-c2a0818e3d1a">
        <path d="M39.18,28.24a5.46,5.46,0,0,1,1.64,8.38c-.86,1-6.73,9.73-14.95,0a5.44,5.44,0,0,1,.64-7.68,5.26,5.26,0,0,1,1-.68l4.53-2.35a2.88,2.88,0,0,1,2.62,0Z" fill="#fff"/>
        <line x1="24.58" y1="32.97" x2="22.94" y2="32.06" fill="none" stroke="#333" stroke-linecap="round" stroke-linejoin="round" stroke-width="1.5"/>
        <line x1="42.38" y1="32.97" x2="44.02" y2="32.06" fill="none" stroke="#333" stroke-linecap="round" stroke-linejoin="round" stroke-width="1.5"/>
        <path d="M39.18,28.24,34.67,25.9a2.88,2.88,0,0,0-2.62,0l-4.53,2.35a5.4,5.4,0,0,0-2.77,3.52A5.46,5.46,0,0,0,25.87,34c8.22,9.74,14.1,1,15,0A5.4,5.4,0,0,0,42,31.77,5.42,5.42,0,0,0,39.18,28.24Z" fill="#fff"/>
        <path d="M39.18,28.24,34.67,25.9a3,3,0,0,0-1.18-.3h0v8c0,2.06,2.2,1.61.86,4.11-2,3.84-7.08-2.89-7.08.41,0,.11,3,2.09,2.95,2.2,5.9,3.07,9.92-2.86,10.62-3.68a5.45,5.45,0,0,0-.61-7.68A5.66,5.66,0,0,0,39.18,28.24Z" fill="#eee"/>
        <path d="M24.78,31.68A19.08,19.08,0,0,0,33.49,34a17.28,17.28,0,0,0,8.45-2.27" fill="none" stroke="#ddd" stroke-miterlimit="10"/>
        <path d="M24.78,33.9a19,19,0,0,0,8.71,2.28,17.29,17.29,0,0,0,8.45-2.28" fill="none" stroke="#ddd" stroke-miterlimit="10"/>
        <path d="M39.18,28.24a5.46,5.46,0,0,1,1.64,8.38c-.86,1-6.73,9.73-14.95,0a5.44,5.44,0,0,1,.64-7.68,5.26,5.26,0,0,1,1-.68l4.53-2.35a2.88,2.88,0,0,1,2.62,0Z" fill="none" stroke="#333" stroke-linejoin="round" stroke-width="1.5"/>
      </g>
    </g>
  </g>
</svg>
