<svg xmlns="http://www.w3.org/2000/svg" viewBox="0 0 64 64"><title>avatar-pirate-man-african</title><g style="isolation:isolate"><g id="avatar-pirate-beard-man-asian"><path d="M35.4566,2.6617a3.7011,3.7011,0,0,1,.2676,1.3689c0,2.0569-1.6674,3.158-3.7243,3.158s-3.7242-1.1011-3.7242-3.158a3.7024,3.7024,0,0,1,.2677-1.3692C14.44,4.4842,23.8882,17.9361,3.8115,17.9361,10.3284,31.8756,22.3466,33.5639,32,33.5639s21.6715-1.6883,28.1885-15.6278C40.1364,17.9361,49.5514,4.4856,35.4566,2.6617Z" style="fill:#333"/><path d="M41.0343,28.8618a.4228.4228,0,0,1,.8066-.1519c.3625.7961,1.1326,1.1255,1.8891,1.8619.3412-.8866,1.241-2.1572,1.4639-2.89a.449.449,0,0,1,.42-.2993.4235.4235,0,0,1,.3969.33,7.9766,7.9766,0,0,1,.0571,4.3678,8.5223,8.5223,0,0,1,.8181,1.7655,4.9477,4.9477,0,0,1,1.7166,4.07l1.0547.9354a.3652.3652,0,0,1,.1071.2207,5.0846,5.0846,0,0,1,3.8045,4.1812.5.5,0,0,1-.24.51,3.9558,3.9558,0,0,1-5.4977-2.325.3645.3645,0,0,1-.4266-.0461L46.3419,40.45a.3757.3757,0,0,1-.0317-.53l.0564-.0637c-1.8065-.2108-3.1794-.5626-4.0891-3.8889a3.8843,3.8843,0,0,1-1.2608-2.7193.4747.4747,0,0,1,.4731-.5536A8.1083,8.1083,0,0,1,41.0343,28.8618Z" style="fill:#333"/><rect x="47.052" y="39.3155" width="1.8951" height="0.6703" transform="translate(-13.5132 49.2586) rotate(-48.4363)" style="fill:#666"/><path d="M45.4161,29.1807a4.6937,4.6937,0,0,1-.5307,3.413,4.42,4.42,0,0,0-.5078-1.2213,6.6325,6.6325,0,0,1,.8486-1.8666Q45.3228,29.3419,45.4161,29.1807Z" style="fill:#3a3a3a"/><path d="M45.9756,35.357a3.4283,3.4283,0,0,0-.8506-1.1742.3924.3924,0,0,0,.0206-.1125c-.0366-.2476.0684-.4229.3091-.7954.02-.0313.0425-.0684.0634-.101A3.1409,3.1409,0,0,1,45.9756,35.357Z" style="fill:#3a3a3a"/><path d="M41.8531,30.102c.1944.1783.3994.3379.6021.4952a3.7127,3.7127,0,0,1,1.7358,2.7973c-.1318-.0317-.2656-.0537-.3945-.0747C42.9464,33.1792,41.9107,33.0088,41.8531,30.102Z" style="fill:#3a3a3a"/><path d="M46.9607,35.4651a4.3841,4.3841,0,0,1,.6358,3.0042l-.1709.1926A4.1921,4.1921,0,0,0,46.5,37.1711,7.7483,7.7483,0,0,0,46.9607,35.4651Z" style="fill:#3a3a3a"/><path d="M46.684,38.93a3.8361,3.8361,0,0,0-3.437-2.3748A3.2636,3.2636,0,0,0,46.684,38.93Z" style="fill:#3a3a3a"/><path d="M42.7823,34.2031a2.8025,2.8025,0,0,1,2.4287,1.9214,8.0032,8.0032,0,0,0-1.0752-.3838c-.9213-.2783-1.5849-.479-1.9423-1.6987C42.3888,34.1025,42.587,34.1528,42.7823,34.2031Z" style="fill:#3a3a3a"/><path d="M51.0075,40.7485a3.7492,3.7492,0,0,0-1.8207-.75,4.4962,4.4962,0,0,0,1.3644,1.3851,3.3829,3.3829,0,0,1-1.0951,0,8.2546,8.2546,0,0,0,2.26.9055,6.8546,6.8546,0,0,1-2.0552.0842,3.17,3.17,0,0,0,.2666.2406,2.727,2.727,0,0,0,2.582.4385A4.063,4.063,0,0,0,51.0075,40.7485Z" style="fill:#3a3a3a"/><path d="M22.9658,28.8618a.4228.4228,0,0,0-.8066-.1519c-.3626.7961-1.1326,1.1255-1.8891,1.8619-.3413-.8866-1.241-2.1572-1.464-2.89a.4488.4488,0,0,0-.42-.2993.4236.4236,0,0,0-.397.33,7.9773,7.9773,0,0,0-.057,4.3678,8.5223,8.5223,0,0,0-.8181,1.7655,4.948,4.948,0,0,0-1.7167,4.07l-1.0547.9354a.3657.3657,0,0,0-.1071.2207,5.0846,5.0846,0,0,0-3.8045,4.1812.5.5,0,0,0,.24.51,3.9557,3.9557,0,0,0,5.4976-2.325.3646.3646,0,0,0,.4267-.0461l1.0625-.9424a.3758.3758,0,0,0,.0317-.53l-.0564-.0637c1.8064-.2108,3.1794-.5626,4.0891-3.8889a3.8843,3.8843,0,0,0,1.2608-2.7193.4747.4747,0,0,0-.4731-.5536A8.1083,8.1083,0,0,0,22.9658,28.8618Z" style="fill:#333"/><rect x="15.6653" y="38.7031" width="0.6703" height="1.8951" transform="translate(-22.2777 20.5988) rotate(-41.5637)" style="fill:#666"/><path d="M18.584,29.1807a4.6937,4.6937,0,0,0,.5307,3.413,4.42,4.42,0,0,1,.5078-1.2213,6.6353,6.6353,0,0,0-.8486-1.8666Q18.6771,29.3419,18.584,29.1807Z" style="fill:#3a3a3a"/><path d="M18.0245,35.357a3.43,3.43,0,0,1,.8505-1.1742.3957.3957,0,0,1-.02-.1125c.0366-.2476-.0684-.4229-.3091-.7954-.02-.0313-.0426-.0684-.0634-.101A3.1409,3.1409,0,0,0,18.0245,35.357Z" style="fill:#3a3a3a"/><path d="M22.1469,30.102c-.1943.1783-.3994.3379-.602.4952a3.7124,3.7124,0,0,0-1.7358,2.7973c.1318-.0317.2656-.0537.3945-.0747C21.0537,33.1792,22.0893,33.0088,22.1469,30.102Z" style="fill:#3a3a3a"/><path d="M17.0394,35.4651a4.3841,4.3841,0,0,0-.6358,3.0042l.1708.1926a4.1922,4.1922,0,0,1,.926-1.4908A7.7483,7.7483,0,0,1,17.0394,35.4651Z" style="fill:#3a3a3a"/><path d="M17.316,38.93a3.8362,3.8362,0,0,1,3.437-2.3748A3.2635,3.2635,0,0,1,17.316,38.93Z" style="fill:#3a3a3a"/><path d="M21.8066,34.042c-.1953.06-.3935.1108-.5889.1611a2.8027,2.8027,0,0,0-2.4287,1.9214,8.0081,8.0081,0,0,1,1.0752-.3838C20.7856,35.4624,21.4492,35.2617,21.8066,34.042Z" style="fill:#3a3a3a"/><path d="M12.9926,40.7485a3.7489,3.7489,0,0,1,1.8206-.75,4.497,4.497,0,0,1-1.3643,1.3851,3.3828,3.3828,0,0,0,1.0951,0,8.2539,8.2539,0,0,1-2.26.9055,6.8546,6.8546,0,0,0,2.0552.0842,3.1528,3.1528,0,0,1-.2665.2406,2.7273,2.7273,0,0,1-2.5821.4385A4.0631,4.0631,0,0,1,12.9926,40.7485Z" style="fill:#3a3a3a"/><path d="M31.9485,60.5177a66.3509,66.3509,0,0,0,26.5436-5.6253l-.6673-3.43-.0009-.0037a4.2976,4.2976,0,0,0-2.9173-3.4523l-.038-.0108c-2.2933-.65-23.65-7.7481-45.785.0468l-.0024.001A4.4,4.4,0,0,0,6.1705,51.41c-.0028.0142-.0081.0274-.0108.0417l-.6518,3.4545h0l.0027.0011A66.3043,66.3043,0,0,0,31.9485,60.5177Z" style="fill:#75402e"/><path d="M41.4067,36.8132a17.768,17.768,0,0,1,8.8552,14.99l-6.6774,3.0134,3.0489,3.8961" style="fill:none;stroke:#d09c69;stroke-linejoin:round;stroke-width:1.18592965602875px"/><path d="M21.913,36.64c-7,3.9317-9.0135,11.8212-9.0938,15.2868l6.3789,2.8689L16.21,58.6547" style="fill:none;stroke:#d09c69;stroke-linejoin:round;stroke-width:1.18592965602875px"/><path d="M9.0913,52.1984a4.4878,4.4878,0,0,0-2.822,3.019,66.311,66.311,0,0,0,25.6869,5.3A66.3674,66.3674,0,0,0,57.7307,55.21a4.4929,4.4929,0,0,0-2.8165-3.0474l-2.5065-.7151a74.2158,74.2158,0,0,0-42.6.5184C9.4767,52.0694,9.2329,52.1485,9.0913,52.1984Z" style="fill:#47210d"/><path d="M46.6334,58.7122l-3.0489-3.8961,6.6774-3.0134c-.2558-7.48-5.4921-17.3092-18.5867-17.3092-17.2322,0-18.819,15.8391-18.856,17.4335l6.3789,2.8689L16.21,58.6547a76.2651,76.2651,0,0,0,15.3348,1.8631A74.5332,74.5332,0,0,0,46.6334,58.7122Z" style="fill:#444"/><path d="M50.2619,51.8027A18.657,18.657,0,0,0,45.9058,40.49,18.7019,18.7019,0,0,0,33.899,36.64c-15.2178,0-18.2326,12.3462-18.7553,16.3323l4.0544,1.8234L16.21,58.6546a76.5549,76.5549,0,0,0,15.3348,1.8631,74.5371,74.5371,0,0,0,15.0885-1.8055l-3.0489-3.8961Z" style="fill:#333"/><path d="M39.2076,40.9962A46.1189,46.1189,0,0,1,32,48.3456a46.1189,46.1189,0,0,1-7.2076-7.3494l-2.3443,3.6161a34.6252,34.6252,0,0,0,3.7606,15.644c2.03.1781,4.0512.2614,5.7913.2614s3.7615-.0833,5.7913-.2614a34.6252,34.6252,0,0,0,3.7606-15.644Z" style="fill:#d1d8db"/><path d="M12.6322,46.9824s-1.3636.3594-3.5486,1.0605A4.4045,4.4045,0,0,0,6.16,51.452l-.6519,3.4546a65.508,65.508,0,0,0,26.4406,5.6112,65.2487,65.2487,0,0,0,26.5436-5.6254l-.6673-3.43a4.2987,4.2987,0,0,0-2.9182-3.456c-1.5849-.4522-3.3964-.9632-3.3964-.9632" style="fill:none;stroke:#333;stroke-linejoin:round;stroke-width:1.58519848007983px"/><path d="M46.0384,57.9518l-2.4539-3.1357,6.6774-3.0134c-.2558-7.48-5.4921-17.3092-18.5867-17.3092-17.2322,0-18.819,15.8391-18.856,17.4335l6.3789,2.8689-2.4437,3.1559" style="fill:none;stroke:#d09c69;stroke-linecap:round;stroke-linejoin:round;stroke-width:1.5px"/><path d="M39.2155,39.6731l2.252,3.4893c-2.4933,6.557-9.6373,14.602-13.2686,18.7415a1.3366,1.3366,0,0,1-2.3394-.8872V53.8423a2.3393,2.3393,0,0,1,.6372-1.6071C31.1356,47.36,35.5514,44.4559,39.2155,39.6731Z" style="fill:#fff;stroke:#333;stroke-linejoin:round;stroke-width:1.77889448404312px"/><path d="M24.7845,39.6731l-2.252,3.4893c2.7827,6.3314,9.64,14.6,13.2686,18.7415a1.3366,1.3366,0,0,0,2.3394-.8872V53.8423a2.3393,2.3393,0,0,0-.6372-1.6071C32.8644,47.36,28.4486,44.4559,24.7845,39.6731Z" style="fill:#fff;stroke:#333;stroke-linejoin:round;stroke-width:1.77889448404312px"/><path d="M40.189,53.1119l-.0005.0021C40.1867,53.1225,40.1875,53.1189,40.189,53.1119Z" style="fill:#535c63;opacity:0.30000000000000004;mix-blend-mode:multiply"/><path d="M12.2335,50.355a.4371.4371,0,0,0-.2892-.1112l.3164-.3449a.4447.4447,0,1,0-.6555-.6011l-.4759.5189a.442.442,0,0,0,.3135.7426l-.3135.3418a.442.442,0,0,0,.3135.7426l-.3135.3418a.4421.4421,0,0,0,.3135.7427l-.3135.3418a.442.442,0,0,0,.3135.7426l-.3135.3418a.442.442,0,0,0,.3135.7426l-.3135.3418a.4447.4447,0,1,0,.6554.6011l.476-.5188a.4443.4443,0,0,0-.0272-.6283.438.438,0,0,0-.2889-.1116l.3161-.3446a.4443.4443,0,0,0-.0272-.6283.4378.4378,0,0,0-.2889-.1115l.3161-.3446a.4443.4443,0,0,0-.0272-.6283.4385.4385,0,0,0-.2889-.1116l.3161-.3445a.4443.4443,0,0,0-.0272-.6283.4385.4385,0,0,0-.2889-.1116l.3161-.3446A.4443.4443,0,0,0,12.2335,50.355Z" style="fill:#ddaa7c"/><path d="M10.4547,49.2706a.4461.4461,0,0,0-.6283.0272l-.4761.5189a.4421.4421,0,0,0,.3136.7426l-.3136.3418a.4421.4421,0,0,0,.3136.7426l-.3136.3418a.4422.4422,0,0,0,.3136.7427L9.35,53.07a.4421.4421,0,0,0,.3136.7426l-.3136.3418a.4421.4421,0,0,0,.3136.7426l-.3136.3418a.4447.4447,0,1,0,.6556.6011l.476-.5188a.4444.4444,0,0,0-.0272-.6283.4384.4384,0,0,0-.289-.1116l.3162-.3446a.4444.4444,0,0,0-.0272-.6283.438.438,0,0,0-.2889-.1115l.3161-.3446a.4444.4444,0,0,0-.0272-.6283.4389.4389,0,0,0-.289-.1116l.3162-.3445a.4444.4444,0,0,0-.0272-.6283.4389.4389,0,0,0-.289-.1116l.3162-.3446a.4444.4444,0,0,0-.0272-.6283.4375.4375,0,0,0-.2892-.1112l.3164-.3449A.4444.4444,0,0,0,10.4547,49.2706Z" style="fill:#ddaa7c"/><path d="M8.6757,49.2706a.446.446,0,0,0-.6282.0272l-.476.5189a.442.442,0,0,0,.3135.7426l-.3135.3418a.442.442,0,0,0,.3136.7426l-.3136.3418a.4421.4421,0,0,0,.3135.7427l-.3135.3418a.442.442,0,0,0,.3135.7426l-.3135.3418a.442.442,0,0,0,.3136.7426l-.3136.3418a.4447.4447,0,1,0,.6555.6011l.4759-.5188a.4443.4443,0,0,0-.0272-.6283.438.438,0,0,0-.2889-.1116l.3161-.3446a.4443.4443,0,0,0-.0272-.6283.4384.4384,0,0,0-.2889-.1115l.3161-.3446a.4443.4443,0,0,0-.0272-.6283.439.439,0,0,0-.2889-.1116l.3161-.3445a.4443.4443,0,0,0-.0272-.6283.4385.4385,0,0,0-.2889-.1116l.3161-.3446a.4443.4443,0,0,0-.0272-.6283.4376.4376,0,0,0-.2892-.1112l.3164-.3449A.4443.4443,0,0,0,8.6757,49.2706Z" style="fill:#ddaa7c"/><path d="M6.8969,49.2706a.4461.4461,0,0,0-.6283.0272l-.4761.5189a.4421.4421,0,0,0,.3136.7426l-.3136.3418a.4421.4421,0,0,0,.3136.7426l-.3136.3418a.4422.4422,0,0,0,.3136.7427l-.3136.3418a.4421.4421,0,0,0,.3136.7426l-.3136.3418a.4421.4421,0,0,0,.3136.7426l-.3136.3418a.4447.4447,0,1,0,.6556.6011l.476-.5188a.4444.4444,0,0,0-.0272-.6283.4384.4384,0,0,0-.289-.1116l.3162-.3446a.4444.4444,0,0,0-.0272-.6283.438.438,0,0,0-.2889-.1115l.3161-.3446a.4444.4444,0,0,0-.0272-.6283.4389.4389,0,0,0-.289-.1116l.3162-.3445a.4444.4444,0,0,0-.0272-.6283.4389.4389,0,0,0-.289-.1116l.3162-.3446a.4444.4444,0,0,0-.0272-.6283.4375.4375,0,0,0-.2892-.1112l.3164-.3449A.4444.4444,0,0,0,6.8969,49.2706Z" style="fill:#ddaa7c"/><path d="M5.118,49.2706a.4461.4461,0,0,0-.6283.0272l-.476.5189a.442.442,0,0,0,.3135.7426l-.3135.3418a.442.442,0,0,0,.3136.7426l-.3136.3418a.4421.4421,0,0,0,.3135.7427l-.3135.3418a.442.442,0,0,0,.3135.7426l-.3135.3418a.442.442,0,0,0,.3136.7426l-.3136.3418a.4447.4447,0,1,0,.6555.6011l.476-.5188a.4444.4444,0,0,0-.0272-.6283.4384.4384,0,0,0-.289-.1116l.3162-.3446a.4444.4444,0,0,0-.0272-.6283.438.438,0,0,0-.2889-.1115l.3161-.3446a.4444.4444,0,0,0-.0272-.6283.4389.4389,0,0,0-.289-.1116l.3162-.3445A.4444.4444,0,0,0,5.118,51.44a.4389.4389,0,0,0-.289-.1116l.3162-.3446a.4444.4444,0,0,0-.0272-.6283.4373.4373,0,0,0-.2892-.1112l.3164-.3449A.4444.4444,0,0,0,5.118,49.2706Z" style="fill:#ddaa7c"/><path d="M5.2154,47.3573H12.853a0,0,0,0,1,0,0v2.8535a0,0,0,0,1,0,0H3.0691a0,0,0,0,1,0,0v-.7072A2.1463,2.1463,0,0,1,5.2154,47.3573Z" transform="translate(-11.5839 3.383) rotate(-14.0232)" style="fill:#d09c69;stroke:#d09c69;stroke-linejoin:round;stroke-width:1.5px"/><path d="M51.7665,50.355a.4371.4371,0,0,1,.2892-.1112l-.3164-.3449a.4447.4447,0,0,1,.6555-.6011l.4759.5189a.442.442,0,0,1-.3135.7426l.3135.3418a.442.442,0,0,1-.3135.7426l.3135.3418a.4421.4421,0,0,1-.3135.7427l.3135.3418a.442.442,0,0,1-.3135.7426l.3135.3418a.442.442,0,0,1-.3135.7426l.3135.3418a.4447.4447,0,1,1-.6554.6011l-.476-.5188a.4443.4443,0,0,1,.0272-.6283.438.438,0,0,1,.2889-.1116l-.3161-.3446a.4443.4443,0,0,1,.0272-.6283.4378.4378,0,0,1,.2889-.1115l-.3161-.3446a.4443.4443,0,0,1,.0272-.6283.4385.4385,0,0,1,.2889-.1116l-.3161-.3445a.4443.4443,0,0,1,.0272-.6283.4385.4385,0,0,1,.2889-.1116l-.3161-.3446A.4443.4443,0,0,1,51.7665,50.355Z" style="fill:#ddaa7c"/><path d="M53.5453,49.2706a.4461.4461,0,0,1,.6283.0272l.4761.5189a.4421.4421,0,0,1-.3136.7426l.3136.3418a.4421.4421,0,0,1-.3136.7426l.3136.3418a.4422.4422,0,0,1-.3136.7427l.3136.3418a.4421.4421,0,0,1-.3136.7426l.3136.3418a.4421.4421,0,0,1-.3136.7426l.3136.3418a.4447.4447,0,1,1-.6556.6011l-.476-.5188a.4444.4444,0,0,1,.0272-.6283.4384.4384,0,0,1,.289-.1116l-.3162-.3446a.4444.4444,0,0,1,.0272-.6283.438.438,0,0,1,.2889-.1115l-.3161-.3446a.4444.4444,0,0,1,.0272-.6283.4389.4389,0,0,1,.289-.1116l-.3162-.3445a.4444.4444,0,0,1,.0272-.6283.4389.4389,0,0,1,.289-.1116l-.3162-.3446a.4444.4444,0,0,1,.0272-.6283.4375.4375,0,0,1,.2892-.1112l-.3164-.3449A.4444.4444,0,0,1,53.5453,49.2706Z" style="fill:#ddaa7c"/><path d="M55.3243,49.2706a.446.446,0,0,1,.6282.0272l.476.5189a.442.442,0,0,1-.3135.7426l.3135.3418a.442.442,0,0,1-.3136.7426l.3136.3418a.4421.4421,0,0,1-.3135.7427l.3135.3418a.442.442,0,0,1-.3135.7426l.3135.3418a.442.442,0,0,1-.3136.7426l.3136.3418a.4447.4447,0,1,1-.6555.6011l-.4759-.5188a.4443.4443,0,0,1,.0272-.6283.438.438,0,0,1,.2889-.1116l-.3161-.3446a.4443.4443,0,0,1,.0272-.6283.4384.4384,0,0,1,.2889-.1115l-.3161-.3446a.4443.4443,0,0,1,.0272-.6283.439.439,0,0,1,.2889-.1116l-.3161-.3445a.4443.4443,0,0,1,.0272-.6283.4385.4385,0,0,1,.2889-.1116l-.3161-.3446a.4443.4443,0,0,1,.0272-.6283.4376.4376,0,0,1,.2892-.1112l-.3164-.3449A.4443.4443,0,0,1,55.3243,49.2706Z" style="fill:#ddaa7c"/><path d="M57.1031,49.2706a.4461.4461,0,0,1,.6283.0272l.4761.5189a.4421.4421,0,0,1-.3136.7426l.3136.3418a.4421.4421,0,0,1-.3136.7426l.3136.3418a.4422.4422,0,0,1-.3136.7427l.3136.3418a.4421.4421,0,0,1-.3136.7426l.3136.3418a.4421.4421,0,0,1-.3136.7426l.3136.3418a.4447.4447,0,1,1-.6556.6011l-.476-.5188a.4444.4444,0,0,1,.0272-.6283.4384.4384,0,0,1,.289-.1116l-.3162-.3446a.4444.4444,0,0,1,.0272-.6283.438.438,0,0,1,.2889-.1115l-.3161-.3446a.4444.4444,0,0,1,.0272-.6283.4389.4389,0,0,1,.289-.1116l-.3162-.3445a.4444.4444,0,0,1,.0272-.6283.4389.4389,0,0,1,.289-.1116l-.3162-.3446a.4444.4444,0,0,1,.0272-.6283.4375.4375,0,0,1,.2892-.1112l-.3164-.3449A.4444.4444,0,0,1,57.1031,49.2706Z" style="fill:#ddaa7c"/><path d="M58.882,49.2706a.4461.4461,0,0,1,.6283.0272l.476.5189a.442.442,0,0,1-.3135.7426l.3135.3418a.442.442,0,0,1-.3136.7426l.3136.3418a.4421.4421,0,0,1-.3135.7427l.3135.3418a.442.442,0,0,1-.3135.7426l.3135.3418a.442.442,0,0,1-.3136.7426l.3136.3418a.4447.4447,0,1,1-.6555.6011l-.476-.5188a.4444.4444,0,0,1,.0272-.6283.4384.4384,0,0,1,.289-.1116l-.3162-.3446a.4444.4444,0,0,1,.0272-.6283.438.438,0,0,1,.2889-.1115l-.3161-.3446a.4444.4444,0,0,1,.0272-.6283.4389.4389,0,0,1,.289-.1116l-.3162-.3445a.4444.4444,0,0,1,.0272-.6283.4389.4389,0,0,1,.289-.1116l-.3162-.3446a.4444.4444,0,0,1,.0272-.6283.4373.4373,0,0,1,.2892-.1112l-.3164-.3449A.4444.4444,0,0,1,58.882,49.2706Z" style="fill:#ddaa7c"/><path d="M51.147,47.3573h9.784a0,0,0,0,1,0,0v2.8535a0,0,0,0,1,0,0H53.2933a2.1463,2.1463,0,0,1-2.1463-2.1463v-.7072A0,0,0,0,1,51.147,47.3573Z" transform="translate(98.5866 109.6933) rotate(-165.9768)" style="fill:#d09c69;stroke:#d09c69;stroke-linejoin:round;stroke-width:1.5px"/><path d="M43.0056,25.0564V22.8606c0-5.9506-2.086-12.077-10.979-12.077S21.0475,16.91,21.0475,22.8606v2.1958c-3.3225,0-3.6313,7.7821,1.0979,8.7832,0,3.8976,1.0979,4.3917,4.8089,8.2124,1.4272,1.8225,3.1729,1.6688,5.0723,1.6688s3.645.1537,5.0723-1.6688c3.7109-3.8207,4.8088-4.3148,4.8088-8.2124a4.2707,4.2707,0,0,0,3.2937-3.2937C46.2993,25.0564,43.0934,25.0235,43.0056,25.0564Z" style="fill:#ac8164"/><path d="M42.9791,25.0564V22.8606c0-5.9506-2.0861-12.077-10.9791-12.077a17.5657,17.5657,0,0,0-3.2937.2855V21.7627a2.3607,2.3607,0,0,1-1.27,1.9372.2373.2373,0,0,0,.0433.447,5.9268,5.9268,0,0,1,3.0878,1.5416.4989.4989,0,0,0,.5843.1521l.1061-.0444A.5354.5354,0,0,1,32,26.29v2.8012c0,1.4851,1.1006,1.2656,1.0979,2.297A1.0978,1.0978,0,0,1,32,32.4862c-.8124,0-1.0683-.4416-2.1663-.4416-.6477,0-.5784.7381-.6.7161a2.3943,2.3943,0,0,1,1.0979.2854,3.3812,3.3812,0,0,0,1.6469.4282v3.5436A1.903,1.903,0,0,0,33.23,38.7758a1.55,1.55,0,0,1,.944,1.6293c0,3.0192-5.4347-.2964-5.4347,2.9863a9.4622,9.4622,0,0,0,3.2389.3074c1.8993,0,3.645.1537,5.0723-1.6688,3.7328-3.7987,4.8308-4.2928,4.8308-8.19C47.1421,32.7259,45.9468,25.0412,42.9791,25.0564Z" style="fill:#a0775c"/><path d="M27.9385,31.5364l-1.1846.8975A1.5,1.5,0,0,0,26.16,33.63v1.6486" style="fill:none;stroke:#a0775c;stroke-linecap:round;stroke-miterlimit:10;stroke-width:0.75px"/><path d="M36.0615,31.5364l1.1846.8975A1.5,1.5,0,0,1,37.84,33.63v1.6486" style="fill:none;stroke:#ac8164;stroke-linecap:round;stroke-miterlimit:10;stroke-width:0.75px"/><path d="M40.31,32.7417a3.6562,3.6562,0,0,0,1.5151-3.2937V27.2522c0-.906.3442-2.1958,1.0979-2.1958,3.3224,0,3.6313,7.782-1.0979,8.7832,0,3.3027-.7952,4.1681-3.2937,6.678V37.1334A5.2477,5.2477,0,0,1,40.31,32.7417Z" style="fill:#936b55"/><path d="M43.0056,25.0564V22.8606c0-5.9506-2.086-12.077-10.979-12.077S21.0475,16.91,21.0475,22.8606v2.1958c-3.3225,0-3.6313,7.7821,1.0979,8.7832,0,3.8976,1.0979,4.3917,4.8089,8.2124,1.4272,1.8225,3.1729,1.6688,5.0723,1.6688s3.645.1537,5.0723-1.6688c3.8518-2.7373,5.1333-4.084,4.8088-8.2124a4.2707,4.2707,0,0,0,3.2937-3.2937C46.2993,25.0564,43.0934,25.0235,43.0056,25.0564Z" style="fill:none;stroke:#333;stroke-linejoin:round;stroke-width:1.5px"/><path d="M32.8767,35.4346a2.6114,2.6114,0,0,0-.9093.4647,2.2936,2.2936,0,0,0-1.0816-.2763,9.4835,9.4835,0,0,0-2.5715,1.3087c1.47.73,2.11,1.4623,2.832,1.4394,0,0,1.1009-.08,1.87-.17,1.0849-.1265,1.5945-.8451,2.6691-2.4579C34.7568,35.9852,33.625,35.3231,32.8767,35.4346Z" style="fill:#936b55"/><path d="M35.6231,35.8909a3.3149,3.3149,0,0,1-1.2185.7062c-.0117.0029-6.0228.3252-6.0277.3228" style="fill:none;stroke:#7f5b4b;stroke-linecap:round;stroke-miterlimit:10;stroke-width:0.75px"/><path d="M23.682,32.7417a3.656,3.656,0,0,1-1.5151-3.2937V27.2522c0-.906-.3443-2.1958-1.0979-2.1958-3.3225,0-3.6313,7.782,1.0979,8.7832,0,3.3027.7952,4.1681,3.2937,6.678V37.1334A5.248,5.248,0,0,0,23.682,32.7417Z" style="fill:#a0775c"/><path d="M22.1347,33.8259a4.271,4.271,0,0,1-3.2892-3.2982c-1.09-5.4911,2.1156-5.4866,2.2034-5.4865H21.44v-.635" style="fill:none;stroke:#333;stroke-linejoin:round;stroke-width:1.5px"/><path d="M43.8763,25.2483c.8927.413,2.0592,1.6539,1.3251,5.2976a4.2706,4.2706,0,0,1-3.2982,3.2892" style="fill:none;stroke:#333;stroke-linejoin:round;stroke-width:1.5px"/><path d="M20.6477,31.2388c-.6187,0-1.12,1.0414-1.12,2.326s.5015,2.3261,1.12,2.3261,1.12-1.0414,1.12-2.3261" style="fill:none;stroke:#d09c69;stroke-linecap:round;stroke-linejoin:round"/><path d="M43.3523,31.2388c.6187,0,1.12,1.0414,1.12,2.326s-.5015,2.3261-1.12,2.3261-1.12-1.0414-1.12-2.3261" style="fill:none;stroke:#d09c69;stroke-linecap:round;stroke-linejoin:round"/><circle cx="27.3824" cy="28.0015" r="0.75" style="fill:#333"/><path d="M28.7991,28.0015c-1.4167-.1638-1.88-1.1934-3.7992-.25" style="fill:none;stroke:#333;stroke-linecap:round;stroke-miterlimit:10;stroke-width:0.75px"/><circle cx="36.6132" cy="28.0015" r="0.75" style="fill:#333"/><path d="M35.1964,28.0015c1.4168-.1638,1.88-1.1934,3.7993-.25" style="fill:none;stroke:#333;stroke-linecap:round;stroke-miterlimit:10;stroke-width:0.75px"/><path d="M29.877,26.2a3.7256,3.7256,0,0,1-1.6206.1015c-.5245-.0491-1.022-.1544-1.5094-.2329a12.0239,12.0239,0,0,0-1.4207-.2075,3.39,3.39,0,0,0-1.4508.1891,1.9344,1.9344,0,0,1,1.3774-.966,4.2645,4.2645,0,0,1,1.6717.0009,7.95,7.95,0,0,1,1.52.4621C28.9333,25.74,29.3724,25.9757,29.877,26.2Z" style="fill:#333"/><path d="M34.123,26.2c.5046-.2244.9437-.46,1.4324-.6528a7.95,7.95,0,0,1,1.52-.4621,4.2645,4.2645,0,0,1,1.6717-.0009,1.9344,1.9344,0,0,1,1.3774.966,3.39,3.39,0,0,0-1.4508-.1891,12.0209,12.0209,0,0,0-1.4207.2075c-.4874.0785-.9849.1838-1.5094.2329A3.7256,3.7256,0,0,1,34.123,26.2Z" style="fill:#333"/><path d="M42.7622,44.9111l.9966,1.0122a.345.345,0,0,0,.28.1172.39.39,0,0,0,.1611-.0374c.0352.1588.0589.2681.0589.2681a3.8877,3.8877,0,0,0,1.0032,1.8741,4.3468,4.3468,0,0,0,4.6388.8326c-.492-4.3348-3.5823-4.8962-3.5823-4.8962-.0464-.0093-.0747-.0094-.1157-.0157a.3914.3914,0,0,0,.0005-.55l-.9966-1.0122-.0082-.005a4.508,4.508,0,0,0-.2245-1.9753c-2.65-6.5119-2.4967-7.8508-2.4967-16.1741h-1.418c0,9.696-1.27,10.7333-1.9218,11.9307C37.8468,34.7127,36.27,32.19,32,33.4445c-4.2723-1.2551-5.8488,1.2717-7.14,2.8393-1.3645-2.719-1.9192-4.3906-1.9192-11.9339H21.5232c0,8.4212.1324,9.7131-2.4966,16.1741a4.8971,4.8971,0,0,0-.1889,2.2887l-.9957.9776a.4149.4149,0,0,0-.16.2914s-3.09.5614-3.5823,4.8962a4.3466,4.3466,0,0,0,4.6387-.8326,3.888,3.888,0,0,0,1.0033-1.8741.3431.3431,0,0,0,.4937-.013c.29-.2461.97-.9978.97-.9978a.42.42,0,0,0-.0261-.6422,8.85,8.85,0,0,0,2.5654-.8017c-.4948.4279-1.4639,1.6707-1.2005,4.25l-.9738,1.008a.3584.3584,0,0,0-.1151.2649s-3.22.7688-3.4389,5.07a4.3551,4.3551,0,0,0,5.6345-2.8642.3937.3937,0,0,0,.4658-.1246c.2045-.2479.7559-.8254.9549-1.0245.1678-.1676.2219-.2936-.0913-.6a4.8351,4.8351,0,0,0,3.9372-2.9977,3.6524,3.6524,0,0,0,.9793,2.4124.4874.4874,0,0,0-.07.24v1.8077a.4955.4955,0,0,0,.3351.4667h.1667l-.1667.29S28.2548,55.3273,32,57.8032c3.7453-2.4759,1.8375-5.79,1.8375-5.79l-.164-.2849h.164a.4935.4935,0,0,0,.3577-.4713V49.45a.4865.4865,0,0,0-.08-.2545,3.6447,3.6447,0,0,0,.9666-2.3978,4.8294,4.8294,0,0,0,3.9325,2.9973.3879.3879,0,0,0,.0324.4617l.9331,1.07a.3917.3917,0,0,0,.27.1341l.0117,0a.3741.3741,0,0,0,.0585-.0089c.0165.0537.029.0919.029.0919a4.3551,4.3551,0,0,0,5.6345,2.8642c-.1951-3.8288-2.7625-4.8561-3.325-5.036a.3884.3884,0,0,0-.0918-.2992l-.933-1.0705a.3924.3924,0,0,0-.2694-.134.3994.3994,0,0,0-.0888.0119c.2193-2.4768-.5351-3.6447-1.02-4.0643a8.3945,8.3945,0,0,0,2.4027.7743A.3849.3849,0,0,0,42.7622,44.9111Zm-6.7635-6.0526h0a.6668.6668,0,0,1-.6983.63,2.4189,2.4189,0,0,1-2.0758-.7629.5263.5263,0,0,0-.4018-.2129H31.1774a.526.526,0,0,0-.4017.2129,2.419,2.419,0,0,1-2.0758.7629.6667.6667,0,0,1-.6983-.63h0v-2.52a.582.582,0,0,1,.6027-.5589h1.1574A3.0924,3.0924,0,0,0,32,34.8485a3.0924,3.0924,0,0,0,2.2384.9315H35.396a.582.582,0,0,1,.6027.5589Z" style="fill:#333"/><path d="M40.7118,37.6762a1.9155,1.9155,0,0,1-1.2638-.6074,11.3775,11.3775,0,0,1-.888-.9753,8.8214,8.8214,0,0,0-1.7844-1.7541,4.2119,4.2119,0,0,0-2.26-.7617,5.7813,5.7813,0,0,0-1.2136.0613,9.3872,9.3872,0,0,1-1.3241.2149,11.8679,11.8679,0,0,1-1.3256-.2037,6.58,6.58,0,0,0-1.2106-.0525,4.2618,4.2618,0,0,0-2.2527.754,8.8047,8.8047,0,0,0-1.7932,1.7417,10.9185,10.9185,0,0,1-.8846.9787,1.9191,1.9191,0,0,1-1.267.6048.171.171,0,0,1-.0178-.341l.0178-.0019c.7463-.0836,1.2378-.9046,1.7641-1.5523A9.3328,9.3328,0,0,1,26.83,33.8461a4.8051,4.8051,0,0,1,2.5541-.9686,5.8511,5.8511,0,0,1,1.3669.0282c.441.0644.9231.1935,1.227.1979.3033-.006.7865-.1329,1.2284-.1868a6.4854,6.4854,0,0,1,1.3638-.0193,4.8547,4.8547,0,0,1,2.547.9609,9.3362,9.3362,0,0,1,1.8305,1.9232c.52.6515,1.0156,1.4729,1.764,1.553l.0173.0018a.17.17,0,0,1-.0173.34Z" style="fill:#444"/><path d="M33.26,54.3841a2.891,2.891,0,0,1-1.1129,1.2552,4.4793,4.4793,0,0,0,.6786-2.2336,1.5651,1.5651,0,0,1-1.17.8807,3.7949,3.7949,0,0,0,.5666-2.5291h-.8172A3.3375,3.3375,0,0,0,32,56.5175a3.3206,3.3206,0,0,0,1.2813-2.1907C33.2732,54.3455,33.2686,54.3656,33.26,54.3841Z" style="fill:#444"/><path d="M30.3935,46.1821c-.1714-.1523-.3447-.3061-.51-.4673-.155,1.8933.5982,2.4533,1.3385,2.8847a3.01,3.01,0,0,1,.2154-1.32A5.9456,5.9456,0,0,0,30.3935,46.1821Z" style="fill:#444"/><path d="M32.2529,48.9106c.1187-.0771.2432-.1484.3667-.2187.7861-.4487,1.6626-.9487,1.4966-2.9771-.1651.1612-.3384.3155-.51.4678C32.7583,46.936,32.0083,47.603,32.2529,48.9106Z" style="fill:#444"/><path d="M30.3935,42.918c-.1714-.1524-.3447-.3062-.51-.4673-.1565,1.9121.6132,2.4644,1.3606,2.8975a4.1631,4.1631,0,0,1,.1427-1.4028A6.3713,6.3713,0,0,0,30.3935,42.918Z" style="fill:#444"/><path d="M32.2768,45.8008c.0806-.063.1641-.125.2481-.188A3.2324,3.2324,0,0,0,34.0986,42.39c-.1577.1285-.3223.2471-.4849.3643A2.6565,2.6565,0,0,0,32.2768,45.8008Z" style="fill:#444"/><path d="M39.9927,44.8709a8.124,8.124,0,0,1-.6648,1.81,4.627,4.627,0,0,1,.9354,1.9946l.12-.1045C40.4028,47.2513,40.85,46.3966,39.9927,44.8709Z" style="fill:#444"/><path d="M36.7383,46.1787c-.1446-.0581-.2872-.1152-.4258-.1753.6338,2.0523,1.6709,2.2495,2.6025,2.4268.0938.0175.1885.0356.2827.0556A3.46,3.46,0,0,0,36.7383,46.1787Z" style="fill:#444"/><path d="M38.6509,42.1426c-.0767-.17-.1539-.3428-.2256-.5215a3.0311,3.0311,0,0,0-.286,1.7439,3.664,3.664,0,0,1,.8479,1.4552A3.5281,3.5281,0,0,0,38.6509,42.1426Z" style="fill:#444"/><path d="M35.7309,43.1509c-.2182-.0772-.44-.1558-.6552-.2461.2631,1.3906.9819,1.68,1.9174,2.0571a8.0278,8.0278,0,0,1,1.1573.543C37.7929,43.8818,36.7861,43.5249,35.7309,43.1509Z" style="fill:#444"/><path d="M43.7237,39.9479a7.5929,7.5929,0,0,1-.5719,1.6945,4.0866,4.0866,0,0,1,.8329,1.514l.1779-.1752A4.2886,4.2886,0,0,0,43.7237,39.9479Z" style="fill:#444"/><path d="M40.6567,41.2573c-.1172-.0444-.2334-.0879-.3467-.1333A2.66,2.66,0,0,0,42.77,43.2768c.0728.0122.1455.0245.2188.0376A3.2445,3.2445,0,0,0,40.6567,41.2573Z" style="fill:#444"/><path d="M42.3584,37.4c-.0664-.1387-.1333-.2793-.1968-.4243a2.7963,2.7963,0,0,0-.2041,1.5641,3.42,3.42,0,0,1,.7955,1.2568A3.3075,3.3075,0,0,0,42.3584,37.4Z" style="fill:#444"/><path d="M39.6455,38.4263c-.1919-.0635-.3858-.1275-.5762-.2007.2739,1.2417.9224,1.4863,1.8228,1.8261a7.9936,7.9936,0,0,1,1.0468.4556A2.8011,2.8011,0,0,0,39.6455,38.4263Z" style="fill:#444"/><path d="M37.082,42.9013c-.0155-.6668.6847-1.6527.4189-2.4715-.188-.5793-.65-.6986-.7059-1.2627.1169.5411-.3429,1.2393-.4377,1.8071A2.7253,2.7253,0,0,0,37.082,42.9013Z" style="fill:#444"/><rect x="39.8773" y="49.3477" width="1.8594" height="0.6346" transform="translate(-22.5864 39.0302) rotate(-41.0688)" style="fill:#b72525"/><rect x="43.5528" y="43.8964" width="1.8597" height="0.635" transform="translate(-18.235 43.9606) rotate(-44.595)" style="fill:#b72525"/><path d="M24.0073,44.8709a8.1231,8.1231,0,0,0,.6647,1.81,4.6293,4.6293,0,0,0-.9354,1.9946l-.12-.1045C23.5971,47.2513,23.15,46.3966,24.0073,44.8709Z" style="fill:#444"/><path d="M27.2617,46.1787c.1445-.0581.2871-.1152.4258-.1753-.6338,2.0523-1.6709,2.2495-2.6026,2.4268-.0937.0175-.1884.0356-.2827.0556A3.46,3.46,0,0,1,27.2617,46.1787Z" style="fill:#444"/><path d="M25.3491,42.1426c.0767-.17.1538-.3428.2256-.5215a3.032,3.032,0,0,1,.286,1.7439,3.6628,3.6628,0,0,0-.8479,1.4552A3.5281,3.5281,0,0,1,25.3491,42.1426Z" style="fill:#444"/><path d="M28.269,43.1509c.2183-.0772.44-.1558.6553-.2461-.2632,1.3906-.9819,1.68-1.9175,2.0571a8.0319,8.0319,0,0,0-1.1572.543C26.207,43.8818,27.2138,43.5249,28.269,43.1509Z" style="fill:#444"/><path d="M20.2762,39.9479a7.5938,7.5938,0,0,0,.572,1.6945,4.0881,4.0881,0,0,0-.833,1.514l-.1779-.1752A4.29,4.29,0,0,1,20.2762,39.9479Z" style="fill:#444"/><path d="M23.3432,41.2573c.1172-.0444.2334-.0879.3467-.1333a2.66,2.66,0,0,1-2.46,2.1528c-.0727.0122-.1455.0245-.2187.0376A3.2446,3.2446,0,0,1,23.3432,41.2573Z" style="fill:#444"/><path d="M21.6416,37.4c.0664-.1387.1333-.2793.1968-.4243a2.7963,2.7963,0,0,1,.2041,1.5641,3.4192,3.4192,0,0,0-.7955,1.2568A3.307,3.307,0,0,1,21.6416,37.4Z" style="fill:#444"/><path d="M24.3545,38.4263c.1919-.0635.3857-.1275.5761-.2007-.2739,1.2417-.9223,1.4863-1.8227,1.8261a7.9888,7.9888,0,0,0-1.0469.4556A2.8013,2.8013,0,0,1,24.3545,38.4263Z" style="fill:#444"/><path d="M26.918,42.9013c.0155-.6668-.6848-1.6527-.419-2.4715.1881-.5793.65-.6986.706-1.2627-.1169.5411.3428,1.2393.4377,1.8071A2.7253,2.7253,0,0,1,26.918,42.9013Z" style="fill:#444"/><rect x="23.0401" y="48.831" width="0.6346" height="1.8594" transform="translate(-29.5033 34.6793) rotate(-48.9312)" style="fill:#b72525"/><rect x="19.1998" y="43.284" width="0.635" height="1.8597" transform="translate(-25.6697 27.0698) rotate(-45.405)" style="fill:#b72525"/><path d="M33.6314,39.9488a.1426.1426,0,0,0-.2458-.0325c-.3334.4416-1.3856.7527-1.3856,1.29,0-.5371-1.0521-.8482-1.3856-1.29a.1424.1424,0,0,0-.2457.0325C29.6535,41.711,32,42.4728,32,42.9876,32,42.4728,34.3465,41.711,33.6314,39.9488Z" style="fill:#444"/><g id="tattooed-person-asian-male"><g id="_026-tattooed-person-asian-male" data-name=" 026-tattooed-person-asian-male"><g id="tattooed-person-asian-male-2"><g id="tattooed-person-asian-male-2-2"><g id="Icons"><path d="M28.7767,32.787a4.1625,4.1625,0,0,1,1.6116.3207h0a4.21,4.21,0,0,0,3.2234,0h0a4.1625,4.1625,0,0,1,1.6116-.3207" style="fill:none;stroke:#674848;stroke-linecap:round;stroke-miterlimit:10;stroke-width:0.75px"/></g></g></g></g></g><path d="M20.4141,51.1728a3.8192,3.8192,0,0,1,1.7592-.9342l.369.3218-.0213.0269a10.5307,10.5307,0,0,1-1.7329,1.6286l1.1651-.3109a3.7566,3.7566,0,0,1-2.2039,1.385,5.9641,5.9641,0,0,0,1.1788.1069c.0109-.0005.0215-.0045.0323-.0051a2.5631,2.5631,0,0,1-1.8359.21A4.0617,4.0617,0,0,1,20.4141,51.1728Z" style="fill:#444"/><path d="M20.4141,51.1728a3.8192,3.8192,0,0,1,1.7592-.9342l.369.3218-.0213.0269a10.5307,10.5307,0,0,1-1.7329,1.6286l1.1651-.3109a3.7566,3.7566,0,0,1-2.2039,1.385,5.9641,5.9641,0,0,0,1.1788.1069c.0109-.0005.0215-.0045.0323-.0051a2.5631,2.5631,0,0,1-1.8359.21A4.0617,4.0617,0,0,1,20.4141,51.1728Z" style="fill:#444"/><path d="M18.6726,44.93l.0118.0116a6.2385,6.2385,0,0,1-1.6153,1.26l1.3017-.0659a9.663,9.663,0,0,1-2.502,1.6528l1.6234.0622a2.6549,2.6549,0,0,1-2.2446.4094A3.9934,3.9934,0,0,1,18.6726,44.93Z" style="fill:#444"/><path d="M43.5859,51.1728a3.8189,3.8189,0,0,0-1.7591-.9342l-.3691.3218.0213.0269a10.5347,10.5347,0,0,0,1.7329,1.6286l-1.1651-.3109a3.7566,3.7566,0,0,0,2.2039,1.385,5.9627,5.9627,0,0,1-1.1788.1069c-.0109-.0005-.0214-.0045-.0323-.0051a2.5631,2.5631,0,0,0,1.8359.21A4.0617,4.0617,0,0,0,43.5859,51.1728Z" style="fill:#444"/><path d="M45.3274,44.93l-.0118.0116a6.2408,6.2408,0,0,0,1.6153,1.26l-1.3016-.0659a9.6624,9.6624,0,0,0,2.5019,1.6528l-1.6234.0622a2.655,2.655,0,0,0,2.2446.4094A3.9933,3.9933,0,0,0,45.3274,44.93Z" style="fill:#444"/><line x1="33.2888" y1="29.2023" x2="33.2888" y2="27.6393" style="fill:none;stroke:#936b55;stroke-linecap:round;stroke-miterlimit:10;stroke-width:0.75px"/><line x1="26.6649" y1="29.3346" x2="28.2849" y2="29.3346" style="fill:none;stroke:#936b55;stroke-linecap:round;stroke-miterlimit:10;stroke-width:0.75px"/><line x1="37.2912" y1="29.3346" x2="35.6712" y2="29.3346" style="fill:none;stroke:#936b55;stroke-linecap:round;stroke-miterlimit:10;stroke-width:0.75px"/><path d="M35.4565,2.6613C36.6024,5.5513,34.3029,7.1886,32,7.1886s-4.6024-1.6373-3.4565-4.5273C14.44,4.4842,23.8882,17.9361,3.8115,17.9361c3.52,7.5288,8.6447,11.4821,14.1348,13.5273a.69.69,0,0,0,.8983-.8558c-.7675-2.5216.1292-5.5512,2.2029-5.5512C22.8907,23.289,27.0964,22.0611,32,22.0611s9.1093,1.2279,10.9524,2.9953c2.0737,0,2.97,3.03,2.203,5.5512a.69.69,0,0,0,.8983.8558c5.49-2.0452,10.615-5.9985,14.1348-13.5273C40.1116,17.9361,49.56,4.4842,35.4565,2.6613Z" style="fill:#333"/><path d="M46.6588,31.2315c5.26-2.1077,10.1394-6.0438,13.53-13.2954" style="fill:none;stroke:#d09c69;stroke-linecap:round;stroke-linejoin:round;stroke-width:1.412203073501587px"/><path d="M3.8115,17.9361C7.2358,25.2607,12.179,29.2026,17.5,31.2945" style="fill:none;stroke:#d09c69;stroke-linecap:round;stroke-linejoin:round;stroke-width:1.412203073501587px"/><path d="M60.1885,17.9361c-20.0521,0-10.6371-13.45-24.7319-15.2744a3.7011,3.7011,0,0,1,.2676,1.3689c0,2.0569-1.6674,3.158-3.7243,3.158s-3.7242-1.1011-3.7242-3.158a3.7024,3.7024,0,0,1,.2677-1.3692C14.44,4.4842,23.8882,17.9361,3.8115,17.9361" style="fill:none;stroke:#d09c69;stroke-linecap:round;stroke-linejoin:round;stroke-width:1.412203073501587px"/><path d="M57.1872,19.2183c-16.402-.7577-10.92-11.38-19.8739-14.058-.1824,1.91-2.454,3.9381-5.3352,3.8288-2.8813.1093-5.1529-1.9185-5.3353-3.8288-8.9539,2.6777-3.4719,13.3-19.8739,14.058,4.2129.906,8.0222,1.2285,13.0181-.89-1.02,1.3713-1.8226,3.84-2.4931,7.4993,0,0,4.126-4.6735,14.6842-4.6735s14.6841,4.6735,14.6841,4.6735c-.67-3.6593-1.473-6.128-2.493-7.4993C49.1651,20.4468,52.9743,20.1243,57.1872,19.2183Z" style="fill:#444"/><path d="M32.275,23.77c6.2906,0,11.3378,1.4155,13.11,3.7192a2.7418,2.7418,0,0,0,.6284-1.6792c0-4.0256-6.274-6.11-14.0134-6.11s-14.0134,2.0846-14.0134,6.11a2.7417,2.7417,0,0,0,.6283,1.6792C20.3872,25.1852,25.9843,23.77,32.275,23.77Z" style="fill:#b72525;stroke:#333;stroke-linejoin:round;stroke-width:1.5px"/><path d="M35.9812,13.26a.1069.1069,0,0,1,.1.0061,2.2984,2.2984,0,0,0,.7033.2952.1914.1914,0,0,0,.1405-.0286,1.1036,1.1036,0,0,0,.3629-.5169.1924.1924,0,0,0-.0522-.1913,2.2181,2.2181,0,0,0-.724-.4057.0178.0178,0,0,1,.0024-.0341.9662.9662,0,0,1,.3642-.0078.0711.0711,0,0,0,.0824-.0571,2.2325,2.2325,0,0,0,.0361-.427.313.313,0,0,0-.25-.3021,1.0851,1.0851,0,0,0-.3095-.016.3136.3136,0,0,0-.24.1481,2.8022,2.8022,0,0,0-.2886.6182.1062.1062,0,0,1-.0577.0648l-.6713.3031a4.4124,4.4124,0,0,1-.2869.8881l-.0021.0052a1.1817,1.1817,0,0,1,.0265.1449Z" style="fill:#aaa"/><path d="M28.44,15.7519a.1063.1063,0,0,1-.0705.0061,2.76,2.76,0,0,0-.8217-.0732s-.1737.0368-.298.4554a.1057.1057,0,0,0,.0263.1051c.1892.1867.52.2062.7025.4312a.0179.0179,0,0,1-.0174.0288,1.1933,1.1933,0,0,0-.2457-.0225.0711.0711,0,0,0-.0652.0467,1.569,1.569,0,0,0-.0919.5347.1072.1072,0,0,0,.063.0976,1.0533,1.0533,0,0,0,.8848-.0123.1056.1056,0,0,0,.0547-.06,3.4437,3.4437,0,0,0,.1643-.6492.1073.1073,0,0,1,.0614-.0834l.9032-.4138a4.4488,4.4488,0,0,1-.2567-.5161c-.0308-.0685-.0626-.1394-.0964-.2123q-.0129-.0281-.0232-.0567Z" style="fill:#aaa"/><path d="M27.2659,13.4942a7.55,7.55,0,0,0,.7006-.329.1064.1064,0,0,1,.0931-.0021l1.234.5654a1.2748,1.2748,0,0,1,.0411-.2054l-.0214-.0512a3.7749,3.7749,0,0,1-.261-.77l-.8068-.3661a.1063.1063,0,0,1-.0625-.1018,2.0779,2.0779,0,0,0-.0967-.7848.2412.2412,0,0,0-.2564-.1632,1.84,1.84,0,0,0-.5636.169.2414.2414,0,0,0-.134.1774c-.0273.1611-.0449.2992-.0563.41a.0505.0505,0,0,0,.053.0555,2.5462,2.5462,0,0,1,.4411.0116.0238.0238,0,0,1,.001.0464,3.8325,3.8325,0,0,0-.6434.2632.3658.3658,0,0,0-.2041.2959,1.5859,1.5859,0,0,0,.0223.6353A.5558.5558,0,0,0,27.2659,13.4942Z" style="fill:#aaa"/><path d="M34.5214,16.1235l.6186.2835a.1068.1068,0,0,1,.0623.099,1.7012,1.7012,0,0,0,.0969.68.1368.1368,0,0,0,.1307.084,2.0195,2.0195,0,0,0,.7319-.1518.1375.1375,0,0,0,.0826-.1261v-.3384a.0355.0355,0,0,0-.0346-.0356,1.8336,1.8336,0,0,0-.318.0172.0178.0178,0,0,1-.0135-.0318c.4406-.3383.54-.1945.8679-.4236a.1383.1383,0,0,0,.0572-.133.8458.8458,0,0,0-.3156-.5606.14.14,0,0,0-.1038-.0336,2.459,2.459,0,0,0-.6627.2318.1061.1061,0,0,1-.0908.0012l-.7418-.3365c-.0076.0218-.0162.0434-.026.0646-.0337.0729-.0656.1437-.0963.2122A4.7333,4.7333,0,0,1,34.5214,16.1235Z" style="fill:#aaa"/><path d="M30.549,12.427c.23-.03.5747.494.833.812a.05.05,0,0,1-.0638.0752c-.2375-.14-.394-.3848-.6127-.5233a.3159.3159,0,0,0-.3748.0278,2.4732,2.4732,0,0,0-.5752.6536c-.43.9407.61,1.4633.6275,1.4739a.0468.0468,0,0,1-.0266.0878,1.5375,1.5375,0,0,1-.63-.1749.3666.3666,0,0,0-.0667.4057c.2348.5072.3715.9009.6037.9009h.2588a.1276.1276,0,0,0,.1055-.0557,1.7636,1.7636,0,0,1,.4136-.4092.0783.0783,0,0,1,.1139.1024,2.2841,2.2841,0,0,0-.251.7048.2725.2725,0,0,1,.1775.0145.4945.4945,0,0,1,.2406.3019.5432.5432,0,0,1,.3948-.2881.469.469,0,0,1,.4064.2011.5043.5043,0,0,1,.3718-.2982.5258.5258,0,0,1,.4321.25,1.5253,1.5253,0,0,1,.096-.145.4485.4485,0,0,1,.2514-.1971,1.8817,1.8817,0,0,0-.1732-.4761.0941.0941,0,0,1,.1421-.1171,1.6988,1.6988,0,0,1,.3417.3564.1278.1278,0,0,0,.1056.0558h.2454c.2321,0,.3688-.3937.6036-.9009a.3664.3664,0,0,0-.0546-.3922,1.6072,1.6072,0,0,1-.6084.1614.0468.0468,0,0,1-.0267-.0878,1.1044,1.1044,0,0,0,.5887-1.4886,2.3,2.3,0,0,0-.5489-.6389.3159.3159,0,0,0-.3748-.0278c-.2186.1385-.3752.3837-.6127.5233a.05.05,0,0,1-.0638-.0752c.2583-.318.6032-.8422.833-.812a1.8473,1.8473,0,0,1,1.008.6944l.0017.0013a1.6073,1.6073,0,0,0,.1374-.8948,2.8585,2.8585,0,0,0-5.4065,0,1.284,1.284,0,0,0,.1381.8815A1.8416,1.8416,0,0,1,30.549,12.427Zm1.8367,1.556c.3691.219.5883-.3134.9875-.6756a.4286.4286,0,0,1,.66-.0433.3059.3059,0,0,0-.2037.0273.7182.7182,0,0,1,.372.9093,1.072,1.072,0,0,0-.139-.23c.0761.8792-.94,1.2441-1.219.3533-.26.0744-.4256-.1506-.5034-.2977A.0328.0328,0,0,1,32.3857,13.983Zm-.1567.4367a1.0473,1.0473,0,0,0,.342.3308.2314.2314,0,0,1,.0668.2868l-.07.1465a.137.137,0,0,1-.1977.0753l-.1934-.1193a.1232.1232,0,0,0-.1328,0l-.1934.1194a.1371.1371,0,0,1-.1977-.0754l-.07-.1465a.2311.2311,0,0,1,.0668-.2868,1.0459,1.0459,0,0,0,.3419-.3308A.1335.1335,0,0,1,32.229,14.42Zm-.3941-.4367a.0328.0328,0,0,1,.0459.0434c-.0777.1471-.2433.3721-.5033.2977-.2793.8908-1.2951.5259-1.219-.3533a1.074,1.074,0,0,0-.1391.23.7183.7183,0,0,1,.3721-.9093.3062.3062,0,0,0-.2038-.0273.4286.4286,0,0,1,.66.0433C31.2466,13.67,31.4659,14.202,31.8349,13.983Z" style="fill:#aaa"/><path d="M33.35,16.6869a.0422.0422,0,0,0-.0332.0141c-.2152.2432-.31.6961-.2045.6892.4566-.0352.5364-.0105.5381-.0861C33.6531,17.1987,33.45,16.6909,33.35,16.6869Z" style="fill:#aaa"/><path d="M31.7216,16.8723c-.1748.2186-.3266.7649-.2.7657.48.0031.5178.0212.5131-.042C32.0023,17.164,31.8005,16.7736,31.7216,16.8723Z" style="fill:#aaa"/><path d="M32.4454,16.79c-.1754.2708-.2611.7962-.15.79.5173-.0335.5071-.0172.5285-.0427a.0418.0418,0,0,0,.01-.032C32.7878,17.1273,32.515,16.6826,32.4454,16.79Z" style="fill:#aaa"/><path d="M30.9249,16.81a1.413,1.413,0,0,0-.2841.6492.0421.0421,0,0,0,.0272.0193c.4412.087.4354.1043.4633.0813C31.2005,17.5028,31.0438,16.6813,30.9249,16.81Z" style="fill:#aaa"/><rect x="30.6819" y="50.106" width="2.6361" height="0.651" style="fill:#b72525"/></g></g></svg>