<svg xmlns="http://www.w3.org/2000/svg" viewBox="0 0 64 64">
  <g id="firefighter-black-female-coronavirus">
    <g id="b24b2137-e719-438c-911a-cd58fca89e3c">
      <g id="fdf5d278-6c07-41cb-a75b-5f847e7b6f8d">
        <g id="b90d848d-e516-46b0-bb65-095de2f87b78">
          <g id="ab342054-dbd1-4839-887e-96a6c1b7a3c4">
            <path d="M52,51.22A5.47,5.47,0,0,0,47.81,47L34.43,44.06V40.6H22.1v3.48L8.77,47a5.44,5.44,0,0,0-4.22,4.22L4,53.32c.29.23,10.17,5.27,24.24,5.27s24-5,24.24-5.27Z" fill="#ab8166"/>
            <path d="M22,44.27C22,44.27,13.39,46,8.78,47a5.44,5.44,0,0,0-4.22,4.22L4,53.32c.29.23,10.17,5.27,24.24,5.27s24-5,24.24-5.27L52,51.21A5.47,5.47,0,0,0,47.81,47C38,44.85,34.64,44.26,34.64,44.26" fill="none" stroke="#333" stroke-linejoin="round" stroke-width="1.5"/>
            <polyline points="22.1 46.19 22.1 40.63 34.44 40.63 34.44 46.19" fill="none" stroke="#333" stroke-linejoin="round" stroke-width="1.5"/>
            <path d="M35.57,44.74a17.32,17.32,0,0,1-7.07,1.32,16.33,16.33,0,0,1-7.59-1.59l7.33,8.7Z" fill="#333" stroke="#333" stroke-linejoin="round" stroke-width="1.5"/>
            <path d="M52.43,53.28,52,51.1a6,6,0,0,0-4.58-4.36l-8.44-2v-3c0,2.17-4.08,3.49-7,4.25a6,6,0,0,0-4.41,6.06v0h0c-.06-2.88-1.29-5.34-4.08-6.06s-6-2.08-6-4.25v3l-8.44,2A6,6,0,0,0,4.47,51.1L4,53.28a61,61,0,0,0,23.54,5.11h.65A61,61,0,0,0,52.43,53.28Z" fill="#d1c5a7"/>
            <path d="M28.23,58.39A61.71,61.71,0,0,0,51.94,53.5a6,6,0,0,0-4.53-4.15C44,48.55,41.1,47.68,39,47V41.67c0,4.8-11.24,1.73-11.4,10.31-.06-2.88-1.29-5.34-4.08-6.06s-6-2.08-6-4.25V47.2c-2.21.6-5.12,1.36-8.44,2.15A6,6,0,0,0,4.52,53.5a62,62,0,0,0,23,4.88h.71Z" fill="#c6bc9e"/>
            <path d="M19.08,44.34s-2.62.65-10,2.4A6,6,0,0,0,4.47,51.1L4,53.28a61.09,61.09,0,0,0,24.2,5.12,61.09,61.09,0,0,0,24.2-5.12L52,51.1a6,6,0,0,0-4.58-4.36c-7.4-1.74-10-2.4-10-2.4" fill="none" stroke="#333" stroke-linejoin="round" stroke-width="1.31"/>
            <path d="M19.84,38.8c-1.46.79-2.35,1.79-2.35,2.87,0,1.51,1.5,2.61,3.39,3.39V39.93C20.48,39.53,20.14,39.16,19.84,38.8Z" fill="#333" stroke="#333" stroke-linejoin="round" stroke-width="1.5"/>
            <path d="M36.63,38.8c-.29.36-.64.73-1,1.14v5.13c1.89-.78,3.39-1.88,3.39-3.39C39,40.58,38.09,39.59,36.63,38.8Z" fill="#333" stroke="#333" stroke-linejoin="round" stroke-width="1.5"/>
            <path d="M14.79,57.05V44.63L8,46.33v8.75A58.74,58.74,0,0,0,14.79,57.05Z" fill="#333" stroke="#333" stroke-linejoin="round" stroke-width="1.5"/>
            <path d="M48.39,55.1V46.32l-6.72-1.7V57.06A58.05,58.05,0,0,0,48.39,55.1Z" fill="#333" stroke="#333" stroke-linejoin="round" stroke-width="1.5"/>
            <path d="M27.58,52c-.06-2.88-1.29-5.34-4.08-6.06s-6-2.08-6-4.25v5.65" fill="#c6bc9e" stroke="#333" stroke-linejoin="round" stroke-width="1.5"/>
            <path d="M39,47.32V41.67c0,2.17-4.08,3.49-7,4.25A6,6,0,0,0,27.62,52v6.41" fill="#c6bc9e" stroke="#333" stroke-linejoin="round" stroke-width="1.5"/>
            <path d="M38,33.16l-.58,3.12A6.8,6.8,0,0,1,35,40.36l-2.66,2.09a6.73,6.73,0,0,1-8.32,0l-2.66-2.09a6.77,6.77,0,0,1-2.47-4.08l-.58-3.11C16.43,33.09,15.47,31,15.22,29c-.29-2.38.79-4.16,2.59-4.16V22.78c0-5.62,2-10.91,10.39-10.91S38.59,17.16,38.59,22.8v2.08c1.8,0,2.9,1.77,2.6,4.16C41,31,40,33,38.08,33.18Z" fill="#aa8064"/>
            <path d="M38.59,24.86V22.78c0-5.62-2-10.91-10.39-10.91S17.82,17.16,17.82,22.8v2.08c-1.8,0-2.88,1.77-2.59,4.16a7.38,7.38,0,0,0,.52,2h24.9a7.07,7.07,0,0,0,.54-2C41.49,26.63,40.39,24.86,38.59,24.86Z" fill="#a0775c"/>
            <path d="M38.59,24.86V22.78c0-5.62-2-10.91-10.39-10.91a15.42,15.42,0,0,0-2.88.25V22.89a4.07,4.07,0,0,1-1.32,3,.47.47,0,0,0,0,.66.43.43,0,0,0,.23.14,2.68,2.68,0,0,1,1.95,1.95.5.5,0,0,0,.58.4h0a.55.55,0,0,0,.22-.1,1.58,1.58,0,0,1,.61-.33.51.51,0,0,1,.62.36h0a.68.68,0,0,1,0,.14v2.15a1.13,1.13,0,0,0,.65,1c.6.33.17,1.46-.65,1.46h0a1.68,1.68,0,0,1-.93-.24c-.77-.38-1.48.4-1.32.7s.35,0,1.12.36a2.71,2.71,0,0,0,1.15.28v3.82a.41.41,0,0,0,.32.39c1.37.32,2.09,2.59-.32,3.08h0a1.29,1.29,0,0,0-1.07,1.25v.44a6.83,6.83,0,0,0,5.24-1.35L35,40.36a6.77,6.77,0,0,0,2.47-4.08l.58-3.12h0C40,33,41,31,41.2,29,41.49,26.63,40.39,24.86,38.59,24.86Z" fill="#a0775c"/>
            <path d="M28.21,11.87h-.08a16.37,16.37,0,0,0-2.8.24V22.88a4.07,4.07,0,0,1-1.32,3,.47.47,0,0,0,0,.66.43.43,0,0,0,.23.14,2.68,2.68,0,0,1,1.95,1.95.5.5,0,0,0,.58.4h0a.55.55,0,0,0,.22-.1,1.58,1.58,0,0,1,.61-.33.51.51,0,0,1,.62.36h0a.68.68,0,0,1,0,.14V31H40.65a6.71,6.71,0,0,0,.52-3.59,2.7,2.7,0,0,0-2.58-2.57V22.79C38.6,17.16,36.56,11.87,28.21,11.87Z" fill="#916953"/>
            <path d="M26.13,34.56c1,0,1,.53,2.08.53s1-.53,2.08-.53" fill="none" stroke="#9c6f57" stroke-linecap="round" stroke-miterlimit="10" stroke-width="0.5"/>
            <path d="M38,33.16l-.58,3.12A6.8,6.8,0,0,1,35,40.36l-2.66,2.09a6.73,6.73,0,0,1-8.32,0l-2.66-2.09a6.77,6.77,0,0,1-2.47-4.08l-.58-3.11C16.43,33.09,15.47,31,15.22,29c-.29-2.38.79-4.16,2.59-4.16V22.78c0-5.62,2-10.91,10.39-10.91S38.59,17.16,38.59,22.8v2.08c1.8,0,2.9,1.77,2.6,4.16C41,31,40,33,38.08,33.18Z" fill="none" stroke="#333" stroke-linejoin="round" stroke-width="1.5"/>
            <line x1="28.2" y1="34.78" x2="28.2" y2="35.63" fill="none" stroke="#9c6f57" stroke-linecap="round" stroke-miterlimit="10" stroke-width="0.5"/>
            <path d="M26.13,34.21c1,0,1,.52,2.08.52s1-.52,2.08-.52" fill="none" stroke="#674848" stroke-linecap="round" stroke-miterlimit="10" stroke-width="0.75"/>
            <circle cx="23.57" cy="29.17" r="0.78" fill="#333"/>
            <path d="M25.45,29.56c-.6-.34-2.15-2.34-4.16-.34a2.38,2.38,0,0,1-.69-.48,4.25,4.25,0,0,1,3.15-.29" fill="#333" stroke="#333" stroke-linecap="round" stroke-miterlimit="10" stroke-width="0.5"/>
            <path d="M31.11,29.56c.6-.34,2.15-2.34,4.16-.34a2.38,2.38,0,0,0,.69-.48,4.25,4.25,0,0,0-3.15-.29" fill="#333" stroke="#333" stroke-linecap="round" stroke-miterlimit="10" stroke-width="0.5"/>
            <circle cx="32.92" cy="29.17" r="0.78" fill="#333"/>
            <path d="M20.53,26.8a3.52,3.52,0,0,1,1.36-.55,4,4,0,0,1,1.46,0,10.66,10.66,0,0,1,1.38.33,9,9,0,0,0,1.27.3h0a.48.48,0,0,1,.39.58.51.51,0,0,1-.5.41h-.06c-.47-.15-.92-.32-1.37-.51a10,10,0,0,0-1.25-.48,3.67,3.67,0,0,0-1.27-.2,1.87,1.87,0,0,0-1.2.4.2.2,0,0,1-.25-.07.17.17,0,0,1,0-.21Z" fill="#333"/>
            <path d="M35.68,27.08a1.94,1.94,0,0,0-1.2-.39,3.93,3.93,0,0,0-1.27.21c-.43.14-.84.3-1.25.48a7.59,7.59,0,0,1-1.38.5.51.51,0,0,1-.22-1h.08a7.66,7.66,0,0,0,1.26-.28c.45-.12.9-.25,1.38-.33a4.47,4.47,0,0,1,1.46,0,3.37,3.37,0,0,1,1.36.55.19.19,0,0,1,.05.25.19.19,0,0,1-.25.05Z" fill="#333"/>
            <line x1="27.58" y1="39.7" x2="28.93" y2="39.7" fill="none" stroke="#936b50" stroke-linecap="round" stroke-miterlimit="10" stroke-width="0.75"/>
            <line x1="25.02" y1="37.18" x2="24.69" y2="37.99" fill="none" stroke="#a3775d" stroke-linecap="round" stroke-miterlimit="10" stroke-width="0.5"/>
            <line x1="31.48" y1="36.28" x2="31.8" y2="37.01" fill="none" stroke="#936b55" stroke-linecap="round" stroke-miterlimit="10" stroke-width="0.5"/>
            <path d="M29,36c-.56.12-.55.22-.9.22s-.21-.19-.78-.22c-1.23-.08-1.22,1-2.69,1.52C26,38.14,26,38.8,27.54,38.8a5.6,5.6,0,0,0,1.68-.14c.68-.17,1.08-.26,2.4-2.08C30,36.6,30,35.8,29,36Z" fill="#936b57"/>
            <path d="M31.53,36.62c-.82.89-1.67.19-3.37.74h0c-1.71-.55-2,.19-3.13.18" fill="none" stroke="#674848" stroke-linecap="round" stroke-linejoin="round" stroke-width="0.5"/>
            <path d="M29.25,8.8a10.37,10.37,0,0,0-8.36,3.66c-4.18.87-4.7,4.36-4.7,6.79,0,4.68,2.09,4.7,2.09,8.88,0-2.32-.4-6.12,3.14-9.65,3.14,8.6,16.2,5.47,16.2,9.65,0-4.18,2.61-4.18,2.61-8.88C40.23,14.32,37,8.8,29.25,8.8Z" fill="#333" stroke="#333" stroke-linecap="round" stroke-linejoin="round"/>
            <path d="M43.31,19.36a15.16,15.16,0,0,0-30.32,0h0v6H43.32v-6Z" fill="#333"/>
            <path d="M25.75,1.69,19.5,6.8a1.12,1.12,0,0,0-.41,1L21,24.35a1.13,1.13,0,0,0,1.12,1H34.43a1.13,1.13,0,0,0,1.12-1L37.45,7.8a1.13,1.13,0,0,0-.42-1L30.79,1.69A4,4,0,0,0,25.75,1.69Z" fill="#444" stroke="#333" stroke-linecap="round" stroke-linejoin="round" stroke-width="1.5"/>
            <path d="M35.5,20.56H20.78a1.12,1.12,0,0,1-1.12-1.12h0V13a1.11,1.11,0,0,1,1.07-1.16H35.5a1.11,1.11,0,0,1,1.12,1.11h0V19.4a1.12,1.12,0,0,1-1.08,1.15Z" fill="#555" stroke="#333" stroke-linecap="round" stroke-linejoin="round" stroke-width="1.5"/>
            <path d="M16.67,20.56V11.85H15a15.07,15.07,0,0,0-2,7.51v1.2Z" fill="#e3ff92"/>
            <path d="M39.62,20.56h3.69v-1.2a15.07,15.07,0,0,0-2-7.51H39.62Z" fill="#e3ff92"/>
            <path d="M43.31,19.36a15.16,15.16,0,0,0-30.32,0h0v6H43.32v-6Z" fill="none" stroke="#333" stroke-linecap="round" stroke-linejoin="round" stroke-width="1.5"/>
            <path d="M25.79,16.46H24.61V18H26l-.13,1H23.51V13.28h2.34v1H24.61V15.5h1.18Z" fill="#fff"/>
            <path d="M26.82,15v-.25c0-.67.23-1.36,1.31-1.36a1.17,1.17,0,0,1,1.3,1,1.61,1.61,0,0,1,0,.31v.21c0,.64-.25.94-.57,1.07h0a1,1,0,0,1,.68,1.11v.44c0,.94-.36,1.53-1.42,1.53a1.21,1.21,0,0,1-1.36-1,1,1,0,0,1,0-.34v-.21h1v.24c0,.27.07.5.35.5s.34-.25.34-.53v-.58c0-.45-.13-.62-.56-.62h-.3v-.89h.32c.35,0,.48-.13.48-.55V14.7c0-.27,0-.48-.29-.48s-.3.2-.3.45V15h-1Z" fill="#fff"/>
            <path d="M31.94,19V17.7H30.41v-.84l1-3.43h1.53V16.8h.37l-.07.88H33V19H32Zm0-2.8c0-.61,0-1.32,0-1.81h0c-.17.74-.38,1.69-.57,2.44H32Z" fill="#fff"/>
            <path d="M28.28,4.24a20.31,20.31,0,0,0-8.8,2l2,4.33H35l2-4.36A20.38,20.38,0,0,0,28.28,4.24Z" fill="#ccc" stroke="#333" stroke-linecap="round" stroke-linejoin="round" stroke-width="1.5"/>
            <path d="M48.43,23.8h0a33.26,33.26,0,0,1-10,1.56H18.09a33.26,33.26,0,0,1-10-1.56h0" fill="none" stroke="#333" stroke-linecap="round" stroke-linejoin="round" stroke-width="3"/>
            <path d="M22.31,6.66l2.26-.49.11.53L23.08,7l.13.63,1.49-.32.12.54-1.49.32.23,1.06-.67.14Z" fill="#333"/>
            <path d="M26.46,6l.26,2.82L26,8.86l-.26-2.8Z" fill="#333"/>
            <path d="M28.6,7.65V8.73h-.68L28,5.88l1.53.06c.65,0,1,.36,1,.84a.67.67,0,0,1-.52.65.62.62,0,0,1,.39.68v.14a2.44,2.44,0,0,0,0,.54h-.7a1.94,1.94,0,0,1,0-.59V8.11c0-.28-.09-.41-.5-.42Zm0-.51h.7c.33,0,.48-.1.49-.34s-.13-.35-.46-.37h-.71Z" fill="#333"/>
            <path d="M33.83,8.23l-1.54-.32-.13.63,1.71.35-.19.52-2.31-.48.57-2.76,2.29.47-.11.54L32.5,6.85l-.11.52,1.54.32Z" fill="#333"/>
          </g>
        </g>
      </g>
      <path d="M33.71,32.75a5.21,5.21,0,0,1,2.23,7,5.33,5.33,0,0,1-.66,1c-.82.95-6.44,9.3-14.3,0a5.2,5.2,0,0,1,.61-7.34,4.88,4.88,0,0,1,1-.66l4.33-2.24a2.75,2.75,0,0,1,2.5,0Z" fill="#fff"/>
      <path d="M20.55,34.63A21.85,21.85,0,0,1,17,25.74" fill="#fff" stroke="#333" stroke-linecap="round" stroke-linejoin="round" stroke-width="1.5"/>
      <path d="M36,34.63a21.85,21.85,0,0,0,3.58-8.89" fill="#fff" stroke="#333" stroke-linecap="round" stroke-linejoin="round" stroke-width="1.5"/>
      <line x1="19.75" y1="37.27" x2="18.18" y2="36.41" fill="none" stroke="#333" stroke-linecap="round" stroke-linejoin="round" stroke-width="1.5"/>
      <line x1="36.77" y1="37.27" x2="38.34" y2="36.41" fill="none" stroke="#333" stroke-linecap="round" stroke-linejoin="round" stroke-width="1.5"/>
      <path d="M33.71,32.75,29.4,30.52a2.69,2.69,0,0,0-2.5,0l-4.33,2.24a5.15,5.15,0,0,0-2.65,3.37A5.23,5.23,0,0,0,21,38.21c7.86,9.32,13.48,1,14.3,0a5.22,5.22,0,0,0,1.08-2.09A5.15,5.15,0,0,0,33.71,32.75Z" fill="#fff"/>
      <path d="M33.71,32.75,29.4,30.52a2.63,2.63,0,0,0-1.13-.29h0v7.63c0,2,2.1,1.54.83,3.93-2,3.68-6.77-2.76-6.77.4,0,.11,2.82,2,2.81,2.1,5.65,2.94,9.5-2.73,10.16-3.51a5.23,5.23,0,0,0-1.57-8Z" fill="#eee"/>
      <path d="M19.94,36a18.1,18.1,0,0,0,8.33,2.18A16.46,16.46,0,0,0,36.34,36" fill="none" stroke="#ddd" stroke-miterlimit="10" stroke-width="0.96"/>
      <path d="M19.94,38.16a18.23,18.23,0,0,0,8.33,2.18,16.46,16.46,0,0,0,8.07-2.18" fill="none" stroke="#ddd" stroke-miterlimit="10" stroke-width="0.96"/>
      <path d="M33.71,32.75a5.21,5.21,0,0,1,2.23,7,5.33,5.33,0,0,1-.66,1c-.82.95-6.44,9.3-14.3,0a5.2,5.2,0,0,1,.61-7.34,4.88,4.88,0,0,1,1-.66l4.33-2.24a2.75,2.75,0,0,1,2.5,0Z" fill="none" stroke="#333" stroke-linejoin="round" stroke-width="1.5"/>
    </g>
  </g>
</svg>
