<svg xmlns="http://www.w3.org/2000/svg" viewBox="0 0 64 64">
  <g id="pharmacist-asian-female-coronavirus">
    <g>
      <g id="a590126e-fafc-4df0-bf5b-9b1ced789e50">
        <g id="b93e93aa-81a5-4c3c-95b9-f67480d5881a">
          <g id="e31a6a4c-f256-4664-b14b-aed9a9adfae8">
            <g id="fd3f091d-a3a8-45a2-a889-0093f59f6ec7">
              <path d="M46.76,21.79V34.54a6,6,0,0,1-6,6h-16a6,6,0,0,1-6-6V21.79a14,14,0,0,1,28,0Z" fill="#444"/>
              <path d="M46.76,34.54V21.79A14,14,0,0,0,33.91,7.84a13.92,13.92,0,0,0-13,14v12.7a6,6,0,0,0,6,6H40.76A6,6,0,0,0,46.76,34.54Z" fill="#333"/>
              <path d="M11.17,38h0a2.12,2.12,0,0,1-2.08-2.08V31.67a2.12,2.12,0,0,1,2.08-2.08h0a2.12,2.12,0,0,1,2.08,2.08v4.24A2.12,2.12,0,0,1,11.17,38Z" fill="#c66161"/>
              <path d="M11.17,29.59a2.12,2.12,0,0,0-2.08,2.08v2.12h4.16V31.67A2.12,2.12,0,0,0,11.17,29.59Z" fill="#4ba6dd"/>
              <path d="M10.71,32.39v4.24A2,2,0,0,0,11.23,38a2.12,2.12,0,0,0,2-2.07V31.66a2,2,0,0,0-.52-1.34A2.12,2.12,0,0,0,10.71,32.39Z" fill="#b74242"/>
              <path d="M10.71,32.39v1.4h2.54V31.67a2,2,0,0,0-.52-1.34A2.11,2.11,0,0,0,10.71,32.39Z" fill="#2f8dd3"/>
              <path d="M11.17,38h0a2.12,2.12,0,0,1-2.08-2.08V31.67a2.12,2.12,0,0,1,2.08-2.08h0a2.12,2.12,0,0,1,2.08,2.08v4.24A2.12,2.12,0,0,1,11.17,38Z" fill="none" stroke="#333" stroke-linejoin="round"/>
              <circle cx="53.39" cy="33.75" r="3.04" fill="#ddd"/>
              <line x1="55.54" y1="31.6" x2="51.24" y2="35.9" fill="none" stroke="#aaa" stroke-linejoin="round"/>
              <line x1="56.03" y1="31.86" x2="51.73" y2="36.16" fill="none" stroke="#eee" stroke-linejoin="round" stroke-width="0.5"/>
              <circle cx="53.39" cy="33.75" r="3.04" fill="none" stroke="#333" stroke-linejoin="round"/>
              <path d="M56.24,49.06A5.51,5.51,0,0,0,52,44.66c-3.8-.73-7.62-1.57-13.12-2.6V37.79H26.59v4.27c-5.4,1-9.47,1.78-13.06,2.61a5.61,5.61,0,0,0-4.19,4.4L9,50.94c1.22.74,12,5.17,23.83,5a59,59,0,0,0,23.63-5Z" fill="#e6b790"/>
              <path d="M26.59,37.79V39l5,5.18a4.11,4.11,0,0,1,1.15,2.85,2.63,2.63,0,0,0,2.63,2.63h.52a3,3,0,0,0,3-3v-8.9Z" fill="#d6a787"/>
              <polyline points="26.59 43.93 26.59 37.79 38.93 37.79 38.93 43.93" fill="none" stroke="#333" stroke-linejoin="round" stroke-width="1.5"/>
              <path d="M26.59,42.06c-5.4,1-9.47,1.78-13.06,2.61a5.61,5.61,0,0,0-4.19,4.4L9,50.94c1.22.74,12,5.17,23.83,5a59,59,0,0,0,23.63-5L56.24,49A5.49,5.49,0,0,0,52,44.66c-3.8-.73-7.62-1.57-13.12-2.6" fill="none" stroke="#333" stroke-linejoin="round" stroke-width="1.5"/>
              <path d="M56.24,49.06A5.51,5.51,0,0,0,52,44.66c-3.8-.73-7.62-1.57-13.12-2.6h-.1a13.16,13.16,0,0,1-6,8.95,13.1,13.1,0,0,1-6-8.95h-.3c-5.4,1-9.47,1.78-13.06,2.61a5.61,5.61,0,0,0-4.19,4.4L9,50.94c1.22.74,12,5.17,23.83,5a59,59,0,0,0,23.63-5Z" fill="#dae4e8"/>
              <path d="M24.18,42.5C20,43.29,16.56,44,13.53,44.66a5.61,5.61,0,0,0-4.19,4.4L9,50.94a56.8,56.8,0,0,0,16.85,4.62A45,45,0,0,1,24.18,42.5Z" fill="#eee"/>
              <path d="M39.86,55.47A54.9,54.9,0,0,0,56.48,51l-.25-1.9a5.5,5.5,0,0,0-4.2-4.4c-3.17-.61-6.36-1.29-10.51-2.1A44.7,44.7,0,0,1,39.86,55.47Z" fill="#eee"/>
              <path d="M52,47.5c-10.58-2.12-14-2.61-14-2.61A13,13,0,0,1,32.9,51a13,13,0,0,1-5.17-6.11s-10,1.64-14.2,2.61a5.54,5.54,0,0,0-4,3.7A59.92,59.92,0,0,0,32.85,56,60.94,60.94,0,0,0,56,51.19,5.4,5.4,0,0,0,52,47.5Z" fill="#bcdaf7"/>
              <path d="M41.78,44.18l-3-2.12c-.73,5.39-5.82,8.84-6,8.95v.84A9.81,9.81,0,0,0,37,50.18l4.76,2.87V44.18Z" fill="#91acc1"/>
              <path d="M26.85,41.86l-2.91,2.32v8.88l6.64-3.9C29,47,27.28,45,26.85,41.86Z" fill="#91acc1"/>
              <path d="M39.87,55.47A58.85,58.85,0,0,0,56,51.19a5.4,5.4,0,0,0-4-3.69c-3.19-.61-6.41-1.3-10.6-2.12A41,41,0,0,1,39.87,55.47Z" fill="#ddd"/>
              <path d="M24.27,45.32c-4.24.8-7.69,1.47-10.74,2.18a5.54,5.54,0,0,0-4,3.7,60.19,60.19,0,0,0,16.35,4.36A39.43,39.43,0,0,1,24.27,45.32Z" fill="#ddd"/>
              <path d="M26.59,42.06c-5.4,1-9.47,1.78-13.06,2.61a5.61,5.61,0,0,0-4.19,4.4L9,50.94c1.22.74,12,5.17,23.83,5a59,59,0,0,0,23.63-5L56.24,49A5.49,5.49,0,0,0,52,44.66c-3.8-.73-7.62-1.57-13.12-2.6" fill="none" stroke="#333" stroke-linejoin="round" stroke-width="1.5"/>
              <line x1="32.86" y1="51" x2="32.86" y2="55.96" fill="none" stroke="#333" stroke-linejoin="round" stroke-width="1.5"/>
              <path d="M18.66,54l.36.34a59,59,0,0,0,6.86,1.24c-1.12-3.51-1.64-7.63-1.71-13.47l-6.68,5.71,3.86,2.72Z" fill="#ddd" stroke="#333" stroke-linejoin="round" stroke-width="1.53"/>
              <path d="M46.8,54.22l.27-.25-2.7-3.5,3.86-2.68-6.68-5.67C41.48,47.91,41,52,39.87,55.51A63,63,0,0,0,46.8,54.22Z" fill="#ddd" stroke="#333" stroke-linejoin="round" stroke-width="1.53"/>
              <path d="M39.16,40l2.62,2.09V51l-5.25-3.13C38.09,45.79,38.73,43.21,39.16,40Z" fill="#bcdaf7"/>
              <path d="M26.56,40l-2.62,2.09V51l5.25-3.13C27.63,45.79,27,43.21,26.56,40Z" fill="#bcdaf7"/>
              <path d="M29.18,47.87,23.93,51V42.12L26.55,40h0c.62,5.2,2.4,8.31,6.3,11,3.9-2.66,5.68-5.77,6.3-11h0l2.62,2.09V51l-5.25-3.13" fill="none" stroke="#333" stroke-linejoin="round" stroke-width="1.5"/>
              <path d="M43.26,23.79v-2c0-5.41-2.46-10-10.5-10s-10.5,4.59-10.5,10v2c-1.73,0-2.28,1.71-2,4,.24,1.95,1,4,3,4,0,3,1.74,6.37,5.18,8.76,2.18,1.51,3.11,1.74,4.32,1.74s2.26-.07,4.32-1.74c3-2.39,5.18-5.76,5.18-8.76,2,0,2.76-2.05,3-4C45.54,25.5,45,23.79,43.26,23.79Z" fill="#efc8a5"/>
              <path d="M43.26,23.79v-2c0-5.41-2.46-10-10.5-10a18.22,18.22,0,0,0-2.66.2v10.6a3.89,3.89,0,0,1-1.27,2.88.46.46,0,0,0,0,.64.41.41,0,0,0,.23.13,2.58,2.58,0,0,1,1.88,1.88.49.49,0,0,0,.58.38h0a.66.66,0,0,0,.19-.09,1.83,1.83,0,0,1,.58-.32.49.49,0,0,1,.59.36.5.5,0,0,1,0,.12v1.61a1.09,1.09,0,0,0,.62.94c.57.31.18,1.4-.64,1.4A1.64,1.64,0,0,1,32,32.3c-.74-.37-1.43.39-1.27.68s.34,0,1.08.35a2.62,2.62,0,0,0,1.1.27v4.13a.39.39,0,0,0,.31.38c1.31.31,2,2.49-.31,3h0a1.25,1.25,0,0,0-1,1.16,4.69,4.69,0,0,0,.92.07c1.21,0,2.26-.07,4.32-1.74,2.92-2.42,5.15-5.81,5.15-8.81,2,0,2.76-2.05,3-4C45.54,25.5,45,23.79,43.26,23.79Z" fill="#e6b790"/>
              <path d="M41.72,26.48c-2.43-.39-6.24-.38-8.15.57a2.54,2.54,0,0,0-1.59,0c-.1-.06-3.16-1.4-8.19-.6a.52.52,0,0,0-.44.51v.52a.56.56,0,0,0,.15.37l.51.51a13,13,0,0,0,.4,1.87.51.51,0,0,0,.27.32,10.05,10.05,0,0,0,4.05.79,8.45,8.45,0,0,0,2.06-.23.54.54,0,0,0,.34-.27,12.31,12.31,0,0,0,1-2.72,1.48,1.48,0,0,1,1.25-.05,12.91,12.91,0,0,0,1,2.77.49.49,0,0,0,.34.27,7.94,7.94,0,0,0,2.06.23,10.19,10.19,0,0,0,4-.79.51.51,0,0,0,.27-.32,11.73,11.73,0,0,0,.4-1.87l.51-.51a.5.5,0,0,0,.15-.37V27A.5.5,0,0,0,41.72,26.48Z" fill="#d6a787"/>
              <path d="M44.45,24.2a1.91,1.91,0,0,0-1.19-.41v-2c0-5.41-2.46-10-10.5-10s-10.5,4.59-10.5,10v2a2.08,2.08,0,0,0-.66.11,21,21,0,0,1,1.66,4.39c0,.12.4.23.53.23a.24.24,0,0,0,.24-.23c.24-4.89.29-7.28,2.24-9.75,4.1,6.26,14.46,5.06,14.46,10a.58.58,0,0,0,.63.54.59.59,0,0,0,.54-.49,3.7,3.7,0,0,1,.82-2A20.16,20.16,0,0,1,44.45,24.2Z" fill="#e6b790"/>
              <path d="M44.45,24.2h0a1.88,1.88,0,0,0-.23-.16,1.73,1.73,0,0,0-.31-.14h-.15a2.74,2.74,0,0,0-.5-.07v-2c0-5.41-2.46-10-10.5-10a12.92,12.92,0,0,0-1.39.05c-.44.05-.86.08-1.27.14h0V22c4.67,2.62,10.64,2.83,10.64,6.56a.58.58,0,0,0,.63.54.59.59,0,0,0,.54-.49,3.7,3.7,0,0,1,.82-2A20.93,20.93,0,0,1,44.45,24.2Z" fill="#d6a787"/>
              <path d="M24.68,25.79a3.87,3.87,0,0,1,1.43-.53,5.53,5.53,0,0,1,1.52,0c.5.07,1,.19,1.45.3a8.87,8.87,0,0,0,1.34.28h0a.54.54,0,0,1,.48.58.53.53,0,0,1-.58.48h-.07a10.67,10.67,0,0,1-1.44-.5,12.17,12.17,0,0,0-1.32-.47,3.12,3.12,0,0,0-2.62.18.18.18,0,0,1-.25-.09.2.2,0,0,1,0-.21Z" fill="#333"/>
              <path d="M40.63,26.09a2.2,2.2,0,0,0-1.27-.37,4.32,4.32,0,0,0-1.34.21c-.44.13-.88.3-1.33.48a9.52,9.52,0,0,1-1.45.49.53.53,0,0,1-.72-.22.54.54,0,0,1,.23-.72A.58.58,0,0,1,35,25.9h.08a8.68,8.68,0,0,0,1.33-.26c.47-.12,1-.23,1.45-.31a5.53,5.53,0,0,1,1.52,0,4.33,4.33,0,0,1,1.44.46.2.2,0,0,1,.07.26.18.18,0,0,1-.26.07A0,0,0,0,0,40.63,26.09Z" fill="#333"/>
              <line x1="32.83" y1="34.01" x2="32.83" y2="34.76" fill="none" stroke="#ddad8a" stroke-linecap="round" stroke-miterlimit="10" stroke-width="0.65"/>
              <line x1="29.88" y1="36.11" x2="29.38" y2="37.11" fill="none" stroke="#ddad8a" stroke-linecap="round" stroke-miterlimit="10" stroke-width="0.65"/>
              <line x1="35.88" y1="36.11" x2="36.38" y2="37.11" fill="none" stroke="#ddad8a" stroke-linecap="round" stroke-miterlimit="10" stroke-width="0.65"/>
              <path d="M30.88,33.17c1,0,1,.5,2,.5s1-.5,2-.5" fill="none" stroke="#c6916d" stroke-linecap="round" stroke-miterlimit="10" stroke-width="0.75"/>
              <path d="M43.26,23.79v-2c0-5.41-2.46-10-10.5-10s-10.5,4.59-10.5,10v2c-1.73,0-2.28,1.71-2,4,.24,1.95,1,4,3,4,0,3,1.74,6.37,5.18,8.76,2.18,1.51,3.11,1.74,4.32,1.74s2.26-.07,4.32-1.74c3-2.39,5.18-5.76,5.18-8.76,2,0,2.76-2.05,3-4C45.54,25.5,45,23.79,43.26,23.79Z" fill="none" stroke="#343433" stroke-linecap="round" stroke-linejoin="round" stroke-width="1.5"/>
              <path d="M41.42,28.79a5.64,5.64,0,0,1,2.11-4.7,14.43,14.43,0,0,1,1.33-1,.35.35,0,0,1,.49.09h0a.37.37,0,0,1,0,.38c-.28.49-.59,1-.89,1.4s-.56.91-.86,1.31a10.51,10.51,0,0,0-1.51,2.67h0a.36.36,0,0,1-.46.19h0A.37.37,0,0,1,41.42,28.79Z" fill="#333"/>
              <path d="M33.66,35.4a1.65,1.65,0,0,1-.78.2c-.2,0-.22,0-.68-.2-.8-.32-.85.66-2.33,1.2l.92.94a2.11,2.11,0,0,0,1.55.56h1A2.5,2.5,0,0,0,35,37.5l.86-.9C34.46,36.09,34.46,35.09,33.66,35.4Z" fill="#a56659"/>
              <path d="M35.87,36.6c-1,0-1.49-.49-3,0h0c-1.48-.5-2,0-3,0" fill="none" stroke="#743f40" stroke-linecap="round" stroke-miterlimit="10" stroke-width="0.5"/>
              <path d="M46.73,21.19a14,14,0,0,0-27.93-.06,7.18,7.18,0,0,0,.9,1.57c1.49,2,3.56,2.94,3.56,5.59v-5.5a10.4,10.4,0,0,1,3-7c3,7.3,15.5,6.28,15.5,11.5v1.5C42.31,25.24,45.08,23.79,46.73,21.19Z" fill="#444"/>
              <path d="M46.73,21.19a14,14,0,0,0-6.34-11.12A14,14,0,0,0,20.87,22.24V24c1.22,1.24,2.39,2.27,2.39,4.26v-5.5a10.4,10.4,0,0,1,3-7c3,7.3,15.5,6.28,15.5,11.5v1.5C42.31,25.24,45.08,23.79,46.73,21.19Z" fill="#333"/>
              <path d="M26.79,16.32a9.7,9.7,0,0,0-1.9,2.47,9.35,9.35,0,0,0-.93,3,55.56,55.56,0,0,0-.3,6.57h0a.38.38,0,0,1-.4.38h0a.38.38,0,0,1-.38-.35A9.64,9.64,0,0,0,22.55,27,7.86,7.86,0,0,0,22,25.6a5.7,5.7,0,0,0-2-2.11h0a.22.22,0,0,1-.08-.31h0v0a.25.25,0,0,1,.32-.08,6.32,6.32,0,0,1,2.22,2.2,9.2,9.2,0,0,1,.69,1.41,8.3,8.3,0,0,1,.43,1.53l-.79.05a57.94,57.94,0,0,1,0-6.72,10.6,10.6,0,0,1,.88-3.4,11.17,11.17,0,0,1,2-2.91.75.75,0,1,1,1.26.82h0a.73.73,0,0,1-.17.18A.11.11,0,0,1,26.79,16.32Z" fill="#333"/>
              <path d="M28,12.57a13.51,13.51,0,0,0,3.13,3,18.27,18.27,0,0,0,3.88,2,29.67,29.67,0,0,1,4.13,2,9.83,9.83,0,0,1,3.38,3.22.34.34,0,0,1-.12.47h0a.34.34,0,0,1-.44-.07,10,10,0,0,0-3.42-2.58c-1.3-.63-2.73-1.06-4.13-1.68a17.41,17.41,0,0,1-4-2.38,12.42,12.42,0,0,1-3-3.61.33.33,0,0,1,.12-.45h0a.36.36,0,0,1,.45.1Z" fill="#444"/>
              <circle cx="22.55" cy="32.33" r="0.75" fill="#dee6ea"/>
              <circle cx="22.32" cy="32.11" r="0.27" fill="#ecf3f4"/>
              <circle cx="43.18" cy="32.33" r="0.75" fill="#dee6ea"/>
              <circle cx="43.02" cy="32.11" r="0.27" fill="#ecf3f4"/>
              <path d="M25.76,14.19A7.76,7.76,0,0,0,27,17.36l1.45-1.57-1.36-2.1Z" fill="#333"/>
              <path d="M26,13.64a8.23,8.23,0,0,0,2.74,4.74,15.5,15.5,0,0,0,5,2.56,27.67,27.67,0,0,1,5.5,2.46,6.78,6.78,0,0,1,2.21,2.31A5.23,5.23,0,0,1,42,27.23l.09.79v.77h0l-.34-.34a.34.34,0,0,1,.34.34.34.34,0,0,1-.34.34c-.69-.69-.19-.19-.34-.35h0v-.32l-.06-.35-.16-.67a5.1,5.1,0,0,0-.56-1.21,5.74,5.74,0,0,0-2-1.76,48.89,48.89,0,0,0-5.39-2.1A15.83,15.83,0,0,1,28,19.3a8.42,8.42,0,0,1-1.82-2.56,10,10,0,0,1-.77-3,.35.35,0,0,1,.29-.38h0a.33.33,0,0,1,.37.27Z" fill="#444"/>
              <path d="M33.82,27.15a11.2,11.2,0,0,0,1.06,3.19,10,10,0,0,0,5.85-.55,16.39,16.39,0,0,0,.52-3.27A15.37,15.37,0,0,0,33.82,27.15Z" fill="#efc8a5"/>
              <path d="M35.8,30.5c-.46-1.12-1-2.45-1.07-2.81a20.2,20.2,0,0,1,6.44-.38,2.87,2.87,0,0,1,.07-.77,15.36,15.36,0,0,0-7.43.61,11.2,11.2,0,0,0,1.06,3.19A5.83,5.83,0,0,0,35.8,30.5Z" fill="#e6b790"/>
              <path d="M35.53,28.72c.58-.33,1.93-1.92,3.86-.33a4.22,4.22,0,0,0,.76-.25,4.9,4.9,0,0,0-3.31-.26" fill="#7f7f7f" stroke="#7f7f7f" stroke-linecap="round" stroke-miterlimit="10" stroke-width="0.54"/>
              <ellipse cx="37.46" cy="28.43" rx="0.81" ry="0.47" fill="#7f7f7f"/>
              <path d="M30,28.72c-.62-.33-2-1.93-3.9-.33a4,4,0,0,1-.76-.25,4.9,4.9,0,0,1,3.31-.26" fill="#7f7f7f" stroke="#7f7f7f" stroke-linecap="round" stroke-miterlimit="10" stroke-width="0.54"/>
              <ellipse cx="28.06" cy="28.43" rx="0.81" ry="0.47" fill="#7f7f7f"/>
              <path d="M31.7,27.15a11.2,11.2,0,0,1-1.06,3.19,10,10,0,0,1-5.85-.55,15.7,15.7,0,0,1-.52-3.27A15.37,15.37,0,0,1,31.7,27.15Z" fill="#efc8a5"/>
              <path d="M24.27,26.54a16.19,16.19,0,0,0,.52,3.25,5.18,5.18,0,0,0,.93.34,25.4,25.4,0,0,1-.55-2.89,14.87,14.87,0,0,1,6.18.62l.19.05a4,4,0,0,0,.16-.78A15.36,15.36,0,0,0,24.27,26.54Z" fill="#e6b790"/>
              <path d="M30,28.72c-.62-.33-2-1.93-3.9-.33a4,4,0,0,1-.76-.25,4.9,4.9,0,0,1,3.31-.26" fill="#7f7f7f" stroke="#7f7f7f" stroke-linecap="round" stroke-miterlimit="10" stroke-width="0.54"/>
              <ellipse cx="28.06" cy="28.43" rx="0.81" ry="0.47" fill="#7f7f7f"/>
              <path d="M31.61,27.49a2,2,0,0,1,2.4,0" fill="none" stroke="#333" stroke-miterlimit="10" stroke-width="1.06"/>
              <path d="M24.25,26.62a14.69,14.69,0,0,0,.53,3.17,10,10,0,0,0,5.85.53,10.8,10.8,0,0,0,1.06-3.19,15.42,15.42,0,0,0-8-.53v.53l.53.53" fill="none" stroke="#333" stroke-linejoin="round" stroke-width="1.06"/>
              <path d="M41.27,26.62a14.69,14.69,0,0,1-.53,3.17,10,10,0,0,1-5.85.53,10.52,10.52,0,0,1-1.06-3.19,15.42,15.42,0,0,1,8-.53v.53l-.53.53" fill="none" stroke="#333" stroke-linejoin="round" stroke-width="1.06"/>
              <path d="M26,40.54H24.76a6,6,0,0,1-6-6V21.79a14,14,0,0,1,28,0V34.54a6,6,0,0,1-6,6H40" fill="none" stroke="#333" stroke-linejoin="round" stroke-width="1.5"/>
            </g>
          </g>
        </g>
      </g>
      <g id="b33f4c37-6c2c-4a5c-81ed-6ae6f30cb00f">
        <path d="M38.26,31.71a5.21,5.21,0,0,1,2.23,7,5.33,5.33,0,0,1-.66,1c-.82,1-6.44,9.3-14.3,0a5.21,5.21,0,0,1,.62-7.34,5,5,0,0,1,1-.65l4.32-2.24a2.69,2.69,0,0,1,2.5,0Z" fill="#fff"/>
        <path d="M25.1,33.59a21.83,21.83,0,0,1-3.58-8.9" fill="#fff" stroke="#333" stroke-linecap="round" stroke-linejoin="round" stroke-width="1.5"/>
        <path d="M40.52,33.59a21.83,21.83,0,0,0,3.58-8.9" fill="#fff" stroke="#333" stroke-linecap="round" stroke-linejoin="round" stroke-width="1.5"/>
        <line x1="24.3" y1="36.23" x2="22.73" y2="35.36" fill="none" stroke="#333" stroke-linecap="round" stroke-linejoin="round" stroke-width="1.5"/>
        <line x1="41.32" y1="36.23" x2="42.89" y2="35.36" fill="none" stroke="#333" stroke-linecap="round" stroke-linejoin="round" stroke-width="1.5"/>
        <path d="M38.26,31.71,34,29.48a2.69,2.69,0,0,0-2.5,0l-4.33,2.24a5.22,5.22,0,0,0-2.66,3.37,5.23,5.23,0,0,0,1.07,2.08c7.86,9.32,13.48,1,14.3,0a5.18,5.18,0,0,0,1.09-2.09A5.18,5.18,0,0,0,38.26,31.71Z" fill="#fff"/>
        <path d="M38.26,31.71,34,29.48a2.63,2.63,0,0,0-1.13-.29h0v7.63c0,2,2.1,1.54.83,3.93-2,3.68-6.77-2.76-6.77.39,0,.12,2.82,2,2.81,2.11,5.65,2.94,9.5-2.74,10.16-3.51a5.23,5.23,0,0,0-1.57-8Z" fill="#eee"/>
        <path d="M24.49,35a18.1,18.1,0,0,0,8.33,2.18A16.46,16.46,0,0,0,40.89,35" fill="none" stroke="#ddd" stroke-miterlimit="10" stroke-width="0.96"/>
        <path d="M24.49,37.12a18.09,18.09,0,0,0,8.33,2.17,16.45,16.45,0,0,0,8.07-2.17" fill="none" stroke="#ddd" stroke-miterlimit="10" stroke-width="0.96"/>
        <path d="M38.26,31.71a5.21,5.21,0,0,1,2.23,7,5.33,5.33,0,0,1-.66,1c-.82,1-6.44,9.3-14.3,0a5.21,5.21,0,0,1,.62-7.34,5,5,0,0,1,1-.65l4.32-2.24a2.69,2.69,0,0,1,2.5,0Z" fill="none" stroke="#333" stroke-linejoin="round" stroke-width="1.5"/>
      </g>
    </g>
  </g>
</svg>
