<svg xmlns="http://www.w3.org/2000/svg" viewBox="0 0 64 64">
  <g id="surgeon-white-male-coronavirus">
    <g id="b4031584-9d45-464a-bdb9-8e6a2f5fa67c">
      <g id="fc986540-53a8-452f-8321-bfa50836dd7a">
        <g id="a49b4d36-9832-4ddc-a3da-ed3caaa0951b">
          <g id="a4ba535e-f075-4889-b749-d0c9e91c7ec2">
            <g id="bf81c210-5990-425c-b083-947fc7d5febe">
              <rect x="24.06" y="28.59" width="16" height="17" fill="#dcbcb7"/>
              <polygon points="24.06 34.6 35.03 41.58 40.06 37.58 40.06 28.59 24.06 28.59 24.06 34.6" fill="#d8b3ad"/>
              <path d="M56.79,47.3c-.31-2.29-2-3.66-4.42-4.64L40,37.59a67.57,67.57,0,0,1-8,6s-6.41-4.57-8-6L11.72,42.7c-2.4,1-4.11,2.35-4.42,4.64l-.27,2a62.31,62.31,0,0,0,50,0h0Z" fill="#489e61"/>
              <path d="M52.37,46.16l-15-6.37c-1.7,1.34-3.47,2.6-5.29,3.77,0,0-2.83-2-5.2-3.8L11.72,46.19C9.79,47,8.33,48,7.66,49.59a62.24,62.24,0,0,0,48.79,0A6.91,6.91,0,0,0,52.37,46.16Z" fill="#419356"/>
              <path d="M56.79,47.3c-.31-2.29-2-3.66-4.42-4.64L40,37.59a67.57,67.57,0,0,1-8,6s-6.41-4.57-8-6L11.72,42.7c-2.4,1-4.11,2.35-4.42,4.64l-.27,2a62.31,62.31,0,0,0,50,0h0Z" fill="none" stroke="#333" stroke-linecap="round" stroke-linejoin="round" stroke-width="1.5"/>
              <line x1="32.03" y1="49.58" x2="32.03" y2="43.58" fill="none" stroke="#333" stroke-linecap="round" stroke-linejoin="round" stroke-width="1.5"/>
              <path d="M32,36.59a8.17,8.17,0,0,1-3.39-.52C25.34,34.31,22,30.44,22,28.13v-2a4.7,4.7,0,0,1-2.77-3.65c-.46-2.18-.24-4,1.79-4V15.56c0-5,3.06-10,11-10s11,5.14,11,10.14v2.92c2,0,2.24,1.71,1.77,3.89A4.72,4.72,0,0,1,42,26.13v2c0,2.32-3.27,6.19-6.61,7.94A8.17,8.17,0,0,1,32,36.59Z" fill="#edcbc3"/>
              <path d="M43,18.62V15.7C43,10.7,40,5.56,32,5.56a16.7,16.7,0,0,0-2.74.23v8.06A3.86,3.86,0,0,1,27,17.65h.52a4,4,0,0,1,3.1,1.79.45.45,0,0,0,.51.19l.45-.12a.53.53,0,0,1,.61.41h0a.38.38,0,0,1,0,.1v2.52l1,2.08v.52l-1,.52c-.76,0-1-.39-2-.5a.53.53,0,0,0-.6.45h0v.46a2.25,2.25,0,0,1,1.05.27,3.25,3.25,0,0,0,1.55.4h0v5.12s3.38-.7,2.17,2.73c-.51,1.45-4.73-.19-5.06,1.68A7.86,7.86,0,0,0,32,36.6a8.17,8.17,0,0,0,3.39-.52C38.74,34.33,42,30.46,42,28.14v-2a4.72,4.72,0,0,0,2.79-3.62C45.29,20.33,45,18.62,43,18.62Z" fill="#e5c2ba"/>
              <path d="M21,16.58v1.75h5.65a6.11,6.11,0,0,0,10.46,0H43V16.58Z" fill="#d8b3ad"/>
              <path d="M24,19.49a4.55,4.55,0,0,1,1.46-.85,5.27,5.27,0,0,1,1.72-.25,5.35,5.35,0,0,1,1.62.4c.5.2,1,.43,1.42.64h0a.3.3,0,0,1,.14.39h0a.27.27,0,0,1-.27.17,12,12,0,0,1-1.58-.2c-.5-.08-1-.11-1.44-.17a5.31,5.31,0,0,0-1.38,0,7.52,7.52,0,0,0-1.4.34h0a.28.28,0,0,1-.37-.17h0A.3.3,0,0,1,24,19.49Z" fill="#7f523c"/>
              <circle cx="27.47" cy="21.7" r="0.6" fill="#333"/>
              <path d="M39.55,20a7.34,7.34,0,0,0-1.4-.34,5.31,5.31,0,0,0-1.38,0c-.46.06-.94.08-1.44.17a12,12,0,0,1-1.58.2.27.27,0,0,1-.3-.25h0v0a.28.28,0,0,1,.17-.27h0c.46-.21.92-.45,1.42-.64a5.54,5.54,0,0,1,1.61-.42,5,5,0,0,1,1.72.25,4.55,4.55,0,0,1,1.46.85.3.3,0,0,1,0,.41.28.28,0,0,1-.31.08Z" fill="#7f523c"/>
              <circle cx="36.43" cy="21.7" r="0.6" fill="#333"/>
              <line x1="24.06" y1="32.56" x2="24.06" y2="37.59" fill="none" stroke="#333" stroke-linecap="round" stroke-linejoin="round" stroke-width="1.5"/>
              <line x1="40.06" y1="32.59" x2="40.06" y2="37.59" fill="none" stroke="#333" stroke-linecap="round" stroke-linejoin="round" stroke-width="1.5"/>
              <path d="M32,36.59a8.17,8.17,0,0,1-3.39-.52C25.34,34.31,22,30.44,22,28.13v-2a4.7,4.7,0,0,1-2.77-3.65c-.46-2.18-.24-4,1.79-4V15.56c0-5,3.06-10,11-10s11,5.14,11,10.14v2.92c2,0,2.24,1.71,1.77,3.89A4.72,4.72,0,0,1,42,26.13v2c0,2.32-3.27,6.19-6.61,7.94A8.17,8.17,0,0,1,32,36.59Z" fill="none" stroke="#333" stroke-linecap="round" stroke-linejoin="round" stroke-width="1.5"/>
              <path d="M21.12,5.79c0,1.11-.07,10.79-.07,10.79H43s-.2-9.68-.2-10.79c0-.55-4.57-3-10.74-3S21.12,5.23,21.12,5.79Z" fill="#419356"/>
              <path d="M33.24,2.79H32.05c-6.27,0-10.93,2.43-10.93,3,0,1,0,9-.07,10.79H27.3c3.44-1.4,7-5.45,7-9.39A9.37,9.37,0,0,0,33.24,2.79Z" fill="#489e61"/>
              <path d="M21.12,5.79,21,16.58H43l-.2-10.79c0-.55-4.57-3-10.74-3S21.12,5.23,21.12,5.79Z" fill="none" stroke="#333" stroke-linecap="round" stroke-linejoin="round" stroke-width="1.5"/>
              <rect x="20.43" y="11.53" width="23.22" height="5.05" fill="#eee" stroke="#333" stroke-linejoin="round" stroke-width="1.5"/>
              <circle cx="31.93" cy="13.84" r="5.38" fill="#eee"/>
              <path d="M26.61,14.42a5.3,5.3,0,0,0,1.18,2.82L35.33,9.7a5.3,5.3,0,0,0-2.82-1.18Z" fill="#e8e8e8"/>
              <path d="M30.55,19l6.56-6.56a5.69,5.69,0,0,0-.7-1.6L29,18.31A4.85,4.85,0,0,0,30.55,19Z" fill="#e8e8e8"/>
              <circle cx="31.93" cy="13.84" r="5.38" fill="none" stroke="#333" stroke-linejoin="round" stroke-width="1.5"/>
              <circle cx="31.99" cy="13.87" r="1.59" fill="#fff"/>
            </g>
            <path d="M45.33,49.59v-11a3.83,3.83,0,0,0-3.65-4H40" fill="none" stroke="#333" stroke-linejoin="round" stroke-width="1.5"/>
            <path d="M18.11,44.09v-5.5a3.83,3.83,0,0,1,3.65-4H24" fill="none" stroke="#333" stroke-linejoin="round" stroke-width="1.5"/>
            <path d="M48.83,53.09a3.5,3.5,0,1,1-3.5-3.5h0A3.5,3.5,0,0,1,48.83,53.09Z" fill="#e0ebee"/>
            <circle cx="45.33" cy="53.09" r="1" fill="#333"/>
            <path d="M48.83,53.09a3.5,3.5,0,1,1-3.5-3.5h0A3.5,3.5,0,0,1,48.83,53.09Z" fill="none" stroke="#333" stroke-linejoin="round" stroke-width="1.5"/>
            <circle cx="16.11" cy="55.59" r="1" fill="#333"/>
            <circle cx="20.11" cy="55.59" r="1" fill="#333"/>
            <path d="M16.11,55.59c-2,0-3-.83-3-2,0-3,5-10,5-10s5,7,5,10c0,1.17-1,2-3,2" fill="none" stroke="#333" stroke-linejoin="round" stroke-width="1.5"/>
          </g>
        </g>
      </g>
      <path d="M37.63,25.1A5.44,5.44,0,0,1,40,32.44a5.52,5.52,0,0,1-.69,1c-.86,1-6.73,9.73-15,0A5.44,5.44,0,0,1,25,25.78a5.76,5.76,0,0,1,1-.68l4.53-2.34a2.82,2.82,0,0,1,2.62,0Z" fill="#fff"/>
      <path d="M23.87,27.06a23,23,0,0,1-3.75-9.3" fill="#fff" stroke="#333" stroke-linecap="round" stroke-linejoin="round" stroke-width="1.5"/>
      <path d="M40,27.06a23,23,0,0,0,3.75-9.3" fill="#fff" stroke="#333" stroke-linecap="round" stroke-linejoin="round" stroke-width="1.5"/>
      <line x1="23.03" y1="29.82" x2="21.39" y2="28.92" fill="none" stroke="#333" stroke-linecap="round" stroke-linejoin="round" stroke-width="1.5"/>
      <line x1="40.83" y1="29.82" x2="42.47" y2="28.92" fill="none" stroke="#333" stroke-linecap="round" stroke-linejoin="round" stroke-width="1.5"/>
      <path d="M37.63,25.1l-4.51-2.34a2.82,2.82,0,0,0-2.62,0L26,25.1a5.42,5.42,0,0,0-2.77,3.53,5.42,5.42,0,0,0,1.12,2.17c8.22,9.75,14.1,1,15,0a5.33,5.33,0,0,0,1.13-2.19A5.4,5.4,0,0,0,37.63,25.1Z" fill="#fff"/>
      <path d="M37.63,25.1l-4.51-2.34a2.72,2.72,0,0,0-1.18-.3h0v8c0,2.06,2.2,1.61.86,4.11-2.05,3.84-7.08-2.89-7.08.41,0,.12,3,2.1,2.95,2.2,5.9,3.08,9.92-2.86,10.62-3.67a5.45,5.45,0,0,0-.61-7.68A4.8,4.8,0,0,0,37.63,25.1Z" fill="#eee"/>
      <path d="M23.23,28.53a19.08,19.08,0,0,0,8.71,2.27,17.28,17.28,0,0,0,8.45-2.27" fill="none" stroke="#ddd" stroke-miterlimit="10"/>
      <path d="M23.23,30.75A19,19,0,0,0,31.94,33a17.29,17.29,0,0,0,8.45-2.28" fill="none" stroke="#ddd" stroke-miterlimit="10"/>
      <path d="M37.63,25.1A5.44,5.44,0,0,1,40,32.44a5.52,5.52,0,0,1-.69,1c-.86,1-6.73,9.73-15,0A5.44,5.44,0,0,1,25,25.78a5.76,5.76,0,0,1,1-.68l4.53-2.34a2.82,2.82,0,0,1,2.62,0Z" fill="none" stroke="#333" stroke-linejoin="round" stroke-width="1.5"/>
    </g>
  </g>
</svg>
