<svg xmlns="http://www.w3.org/2000/svg" viewBox="0 0 64 64">
  <g id="ems-white-male-coronavirus">
    <g id="a4f498b3-b8ee-4e86-9333-c8619c967eb9">
      <g id="a4d83d47-501e-4c88-8ff1-418f1a380de3">
        <g id="a4bfd183-8e0a-4fa5-88e9-7bdf2ed283e0">
          <g id="ac0beb5e-73e7-490a-8620-879f19440cd2">
            <path d="M59,50.61a6.85,6.85,0,0,0-5.25-5c-6.41-1.51-12.16-2.8-14.6-3.34V39.33h-15v3c-2.78.59-8.4,1.81-14.4,3.23a6.85,6.85,0,0,0-5.25,5L4,53.11A70.13,70.13,0,0,0,31.78,59a70.13,70.13,0,0,0,27.75-5.87Z" fill="#d8b3ad"/>
            <line x1="24.18" y1="39.34" x2="24.18" y2="44.43" fill="none" stroke="#333" stroke-linejoin="round" stroke-width="1.5"/>
            <line x1="39.18" y1="39.34" x2="39.18" y2="44.43" fill="none" stroke="#333" stroke-linejoin="round" stroke-width="1.5"/>
            <path d="M42.66,24.81v-2.2c0-5.95-2.09-12.08-11-12.08s-11,6.13-11,12.08v2.2c-.09,0-3.29,0-2.2,5.49a4.27,4.27,0,0,0,3.29,3.29c0,3.9,1.1,4.39,4.81,8.21,1.43,1.82,3.17,1.67,5.07,1.67s3.65.15,5.07-1.67c3.71-3.82,4.81-4.31,4.81-8.21A4.27,4.27,0,0,0,44.8,30.3C46,24.81,42.75,24.78,42.66,24.81Z" fill="#eed1c9"/>
            <path d="M23.32,32.5a3.67,3.67,0,0,1-1.52-3.29V26.52a2.44,2.44,0,0,0-1.46-1.65c-.83.17-2.72,1-1.83,5.45a4.27,4.27,0,0,0,3.29,3.29c0,3.3.8,4.17,3.29,6.68V36.91A5.23,5.23,0,0,0,23.32,32.5Z" fill="#e5c2ba"/>
            <path d="M44.86,30.3c1.1-5.49-2.11-5.52-2.2-5.49v-2.2c0-5.95-2.09-12.08-11-12.08a15,15,0,0,0-2.92.26v12a3.91,3.91,0,0,1-1.27,2.88.44.44,0,0,0,0,.63.43.43,0,0,0,.23.14c1.5.43,2.3.71,3.23.47.31-.08.86.27.86.59v1.55a1.7,1.7,0,0,0,.64,1.4A1.09,1.09,0,0,1,32.67,32a1.13,1.13,0,0,1-.91.47c-.81,0-1.1-.55-2.2-.55-.65,0-.55.85-.57.82a2.26,2.26,0,0,1,1.1.29,3.38,3.38,0,0,0,1.65.43v3.31A1.91,1.91,0,0,0,33,38.55,1.54,1.54,0,0,1,34,40.18c0,3-5.43-.3-5.43,3h0a10.19,10.19,0,0,0,3.16.29c1.9,0,3.65.15,5.07-1.67,3.71-3.82,4.81-4.31,4.81-8.21A4.31,4.31,0,0,0,44.86,30.3Z" fill="#e5c2ba"/>
            <path d="M42.69,24.81a2.18,2.18,0,0,0-1.12,1.87v2.53A3.66,3.66,0,0,1,40,32.5a5.22,5.22,0,0,0-1.78,4.39v3.38c2.5-2.51,3.29-3.38,3.29-6.68a4.27,4.27,0,0,0,3.29-3.29C45.92,25,43,24.79,42.69,24.81Z" fill="#d8b3ad"/>
            <path d="M42.66,24.81v-2.2c0-5.95-2.09-12.08-11-12.08s-11,6.13-11,12.08v2.2c-.09,0-3.29,0-2.2,5.49a4.27,4.27,0,0,0,3.29,3.29c0,3.9,1.1,4.39,4.81,8.21,1.43,1.82,3.17,1.67,5.07,1.67s3.65.15,5.07-1.67c3.71-3.82,4.81-4.31,4.81-8.21A4.27,4.27,0,0,0,44.8,30.3C46,24.81,42.75,24.78,42.66,24.81Z" fill="none" stroke="#333" stroke-linejoin="round" stroke-width="1.5"/>
            <line x1="31.66" y1="33.46" x2="31.66" y2="34.46" fill="none" stroke="#ddb7b1" stroke-linecap="round" stroke-miterlimit="10" stroke-width="0.75"/>
            <line x1="30.74" y1="38.28" x2="32.74" y2="38.28" fill="none" stroke="#ddb7b1" stroke-linecap="round" stroke-miterlimit="10" stroke-width="0.75"/>
            <line x1="31.54" y1="41.23" x2="31.79" y2="41.23" fill="none" stroke="#ddb7b1" stroke-linecap="round" stroke-miterlimit="10" stroke-width="0.75"/>
            <path d="M33,35.32a2.78,2.78,0,0,0-1.18.13.61.61,0,0,1-.42,0,2.78,2.78,0,0,0-1.18-.13c-.67.1-.74.52-2.09,1.25l1.19.73a2.29,2.29,0,0,0,1.27.41h2.07A2.31,2.31,0,0,0,34,37.3l1.23-.7C33.83,35.87,33.69,35.41,33,35.32Z" fill="#d6b3b0"/>
            <path d="M35.18,36.6c-1,0-1.26-.39-2.24-.39a6.16,6.16,0,0,0-1.29.17,7,7,0,0,0-1.29-.17c-.94,0-1.15.36-2.21.36" fill="none" stroke="#af8582" stroke-linecap="round" stroke-miterlimit="10" stroke-width="0.6"/>
            <path d="M29,32.57a2.61,2.61,0,0,1,1.31.34h0a2.75,2.75,0,0,0,2.61,0h0a2.72,2.72,0,0,1,1.31-.34" fill="none" stroke="#af8582" stroke-linecap="round" stroke-miterlimit="10" stroke-width="0.75"/>
            <path d="M24,25.92a5.78,5.78,0,0,1,1.45-.55,5.24,5.24,0,0,1,1.58-.09,9.4,9.4,0,0,1,2.82,1h0a.23.23,0,0,1,.12.3.24.24,0,0,1-.23.14,14.77,14.77,0,0,1-1.48-.26c-.47-.09-.93-.14-1.37-.21a7.07,7.07,0,0,0-2.75.06h0a.24.24,0,0,1-.27-.18A.22.22,0,0,1,24,25.92Z" fill="#333"/>
            <path d="M39,26.34a7.07,7.07,0,0,0-2.75-.06c-.45.07-.9.12-1.37.21a14.77,14.77,0,0,1-1.48.26.22.22,0,0,1-.24-.2h0v0a.22.22,0,0,1,.14-.23h0a9.4,9.4,0,0,1,2.82-1,6,6,0,0,1,1.58.09,5,5,0,0,1,1.45.55.23.23,0,0,1,.09.31.25.25,0,0,1-.26.12Z" fill="#333"/>
            <circle cx="27.14" cy="28" r="0.71" fill="#333"/>
            <circle cx="36.1" cy="28" r="0.71" fill="#333"/>
            <path d="M31.68,10.54c-8.89,0-11,6.13-11,12.08v2.82a12.54,12.54,0,0,1,1.4,4,1.24,1.24,0,0,0,1-1.19V23.92a7.76,7.76,0,0,0-.28-2.3,2.67,2.67,0,0,1,.49-2.45c1.31-1.31,4.45-1.45,6.67.32l.75.61c2.14,1.74,3.82,3.11,6.87,3.11h2.75v5.15a1.31,1.31,0,0,0,.94,1.25,8.92,8.92,0,0,1,1.39-4v-3C42.66,16.67,40.58,10.54,31.68,10.54Z" fill="#e5c2ba"/>
            <path d="M28.77,10.8h0v8c3.8,1.78,2.73,4.44,11.58,4.44v5.11a1.31,1.31,0,0,0,.94,1.25,8.92,8.92,0,0,1,1.39-4c0-2.32,1.11-12-6.66-14.48A16,16,0,0,0,28.77,10.8Z" fill="#d8b3ad"/>
            <path d="M38.84,12.7c.47,0,1.19-.24,1.64-.2C37.58,9.63,26.22,7.7,23.09,14c-7.87,2.7-1,12.5-1,15.5V23.87a7.07,7.07,0,0,0-.24-2,3.63,3.63,0,0,1,.75-3.42c1.77-1.77,5.5-1.75,8,.25s4,3.5,7,3.5h3.75v7.48c0-3.08,1.5-4,3-7.23C46.34,18.11,42.36,14.49,38.84,12.7Z" fill="#333"/>
            <path d="M23.09,14a6.25,6.25,0,0,0-2.23,1.26h0c-2.52,2.28-1.46,6.16-.31,9.37h0c-1.23-6-.41-9.56,7.65-9.56,0,0-1-.41-1.86-.72a22,22,0,0,1,6.37-.36,22.9,22.9,0,0,0-4.34-.81c3.09-.71,5.2-.44,8.37,0A22.44,22.44,0,0,0,29,12H29c3.67-.9,8.07-.16,11.49.54C37.21,9.27,26,8.05,23.09,14Z" fill="#614938"/>
            <path d="M21.83,29.45l-.06-5.59a6,6,0,0,0-.21-1.59,6.73,6.73,0,0,1-.21-.86,4.71,4.71,0,0,1,0-.92,3.68,3.68,0,0,1,.54-1.8,3.79,3.79,0,0,1,1.39-1.28,7,7,0,0,1,7,.4,12,12,0,0,1,1.39,1.07c.43.36.86.72,1.3,1.06a9,9,0,0,0,2.78,1.6,11.4,11.4,0,0,0,3.24.32l3.38.09a.26.26,0,0,1,0,.51L39,22.55a11.57,11.57,0,0,1-3.47-.23c-2.37-.64-4-2.5-5.78-3.65a6.31,6.31,0,0,0-6-.47,2.89,2.89,0,0,0-1.57,2.4,4.35,4.35,0,0,0,.16,1.56,7.47,7.47,0,0,1,.12,1.77L22.4,29.5a.29.29,0,0,1-.29.28.28.28,0,0,1-.28-.29Z" fill="#333"/>
            <path d="M41,29.68a7.08,7.08,0,0,1,.38-2.63,15.48,15.48,0,0,1,1.19-2.33,24.51,24.51,0,0,0,1.16-2.21,5.5,5.5,0,0,0,.57-2.24,6,6,0,0,0-1.86-4.14,14.06,14.06,0,0,0-3.93-2.83.65.65,0,0,1-.3-.87h0v0a.65.65,0,0,1,.6-.36h0c.22,0,.44-.06.66-.1a3.38,3.38,0,0,1,1-.12L40,13a9.79,9.79,0,0,0-4-1.86,17.82,17.82,0,0,0-4.6-.55,12.12,12.12,0,0,0-4.45.84,6.19,6.19,0,0,0-3.21,2.84h0a.69.69,0,0,1-.37.32,4.74,4.74,0,0,0-3,2.34,6.75,6.75,0,0,0-.29,4,26.16,26.16,0,0,0,1.13,4.14l.72,2.1a7.94,7.94,0,0,1,.49,2.27.35.35,0,0,1-.33.35h0a.36.36,0,0,1-.35-.32h0a7.6,7.6,0,0,0-.55-2l-.81-2.05A27.14,27.14,0,0,1,19,21.11a7.87,7.87,0,0,1,.23-4.68,5,5,0,0,1,1.52-2,7.55,7.55,0,0,1,2.12-1.16l-.38.33a7.61,7.61,0,0,1,3.83-3.55,12.61,12.61,0,0,1,5-1,18,18,0,0,1,5,.62A11.09,11.09,0,0,1,41,12.05h0a.65.65,0,0,1,0,.93.66.66,0,0,1-.59.22,2.27,2.27,0,0,0-.63.08,4.79,4.79,0,0,1-1,.11l.33-1.25a15.15,15.15,0,0,1,4.22,3.2,7,7,0,0,1,2,5A6.44,6.44,0,0,1,44.68,23a23,23,0,0,1-1.3,2.25,13,13,0,0,0-1.22,2.15,6.48,6.48,0,0,0-.47,2.35.37.37,0,0,1-.43.3.39.39,0,0,1-.3-.3Z" fill="#333"/>
            <path d="M29.27,15.4a7.6,7.6,0,0,1,4.88,1.36c.7.47,1.31,1,1.93,1.42s1.31.84,2.05,1.31a5.19,5.19,0,0,1-2.59-.27,10.24,10.24,0,0,1-2.22-1.17c-.66-.45-1.29-.86-2-1.28S30,15.92,29.27,15.4Z" fill="#614938"/>
            <path d="M37,46.74a12.25,12.25,0,0,1-5,.94,11.67,11.67,0,0,1-5.39-1.13l5.21,6.18Z" fill="#b2b2b2" stroke="#333" stroke-miterlimit="10" stroke-width="1.5"/>
            <path d="M59,50.61a6.85,6.85,0,0,0-5.25-5c-8.49-2-11.5-2.75-11.5-2.75H39.22c-1.07,2.55-3.16,4.82-7.44,9.86-4.24-4.89-6.35-7.27-7.44-9.86H21.28s-3,.75-11.5,2.75a6.85,6.85,0,0,0-5.25,5L4,53.11A70.13,70.13,0,0,0,31.78,59a70.13,70.13,0,0,0,27.75-5.87Z" fill="#5d7693"/>
            <path d="M53.78,48.61c-8.49-2-11.5-2.75-11.5-2.75H37.46c-1.25,1.71-3,3.76-5.68,6.86-2.64-3-4.45-5.11-5.7-6.86h-4.8s-3,.75-11.5,2.75a6.9,6.9,0,0,0-5.19,4.76A70.93,70.93,0,0,0,31.78,59,71,71,0,0,0,59,53.37,6.92,6.92,0,0,0,53.78,48.61Z" fill="#475b77"/>
            <path d="M39.53,41.48,35,48.85,31.8,52.73l.74.27,4.22-2.7,3.86,2.11a.82.82,0,0,0,1.09-.4.81.81,0,0,0,.08-.34V44.22Z" fill="#3a4a5e"/>
            <path d="M24.29,42.75l-1.51,1.48v8a.51.51,0,0,0,.52.51.6.6,0,0,0,.29-.08l5.19-3.46Z" fill="#3a4a5e"/>
            <path d="M42.28,42.86s3,.75,11.5,2.75a6.85,6.85,0,0,1,5.25,5l.5,2.5A70.13,70.13,0,0,1,31.78,59,70.13,70.13,0,0,1,4,53.11l.5-2.5a6.85,6.85,0,0,1,5.25-5c8.49-2,11.5-2.75,11.5-2.75" fill="none" stroke="#333" stroke-linejoin="round" stroke-width="1.5"/>
            <line x1="31.78" y1="52.74" x2="31.78" y2="59" fill="none" stroke="#333" stroke-linejoin="round" stroke-width="1.5"/>
            <path d="M21.28,42.73v8.75L28,48.23c-2.4-2.64-3.81-4.7-4.5-8.25Z" fill="#475b77"/>
            <path d="M40,40.25a16.47,16.47,0,0,1-4.51,8l6.75,3.25V42.73Z" fill="#475b77"/>
            <polyline points="23.53 39.98 21.28 42.73 21.28 51.48 28.03 48.23" fill="none" stroke="#333" stroke-linejoin="round" stroke-width="1.5"/>
            <polyline points="35.53 48.23 42.28 51.48 42.28 42.73 40.04 40.25" fill="none" stroke="#333" stroke-linejoin="round" stroke-width="1.5"/>
            <path d="M23.53,40c.69,4.12,2.54,6.16,8.25,12.74C37.48,46.05,39.3,44.2,40,40.1" fill="none" stroke="#333" stroke-linecap="round" stroke-linejoin="round" stroke-width="1.5"/>
            <circle cx="34.53" cy="54.73" r="0.75" fill="#333"/>
            <path d="M9.39,43.63l7-1.56a.5.5,0,0,1,.6.37h0l.7,3a.5.5,0,0,1-.38.6h0l-7,1.56a.49.49,0,0,1-.6-.37h0l-.7-3a.5.5,0,0,1,.38-.6Z" fill="#5d7693"/>
            <path d="M9.33,45.62l.35,1.53a.6.6,0,0,0,.71.46h0l6.79-1.51a.6.6,0,0,0,.46-.71h0l-.35-1.53Z" fill="#475b77"/>
            <path d="M9.39,43.63l7-1.56a.5.5,0,0,1,.6.37h0l.7,3a.5.5,0,0,1-.38.6h0l-7,1.56a.49.49,0,0,1-.6-.37h0l-.7-3a.5.5,0,0,1,.38-.6Z" fill="none" stroke="#333" stroke-linejoin="round" stroke-width="1.5"/>
            <line x1="9.8" y1="47.53" x2="9" y2="44.03" fill="none" stroke="#333" stroke-linejoin="round" stroke-width="1.5"/>
            <path d="M54.17,43.63l-7-1.56a.5.5,0,0,0-.6.37h0l-.7,3a.5.5,0,0,0,.37.6h0l7,1.56a.48.48,0,0,0,.59-.37h0l.7-3a.5.5,0,0,0-.38-.6Z" fill="#5d7693"/>
            <path d="M54.23,45.62l-.35,1.53a.6.6,0,0,1-.71.46h0L46.37,46.1a.6.6,0,0,1-.46-.71h0l.35-1.53Z" fill="#475b77"/>
            <path d="M54.17,43.63l-7-1.56a.5.5,0,0,0-.6.37h0l-.7,3a.5.5,0,0,0,.37.6h0l7,1.56a.48.48,0,0,0,.59-.37h0l.7-3a.5.5,0,0,0-.38-.6Z" fill="none" stroke="#333" stroke-linejoin="round" stroke-width="1.5"/>
            <line x1="53.76" y1="47.53" x2="54.56" y2="44.03" fill="none" stroke="#333" stroke-linejoin="round" stroke-width="1.5"/>
            <circle cx="47.03" cy="51.88" r="3.5" fill="#fff"/>
            <circle cx="47.03" cy="51.88" r="3.5" fill="none" stroke="#333" stroke-linejoin="round"/>
            <line x1="47.03" y1="49.54" x2="47.02" y2="54.21" fill="none" stroke="#4064a3" stroke-linejoin="round" stroke-width="1.5"/>
            <line x1="45.01" y1="50.71" x2="49.05" y2="53.05" fill="none" stroke="#4064a3" stroke-linejoin="round" stroke-width="1.5"/>
            <line x1="45.01" y1="53.04" x2="49.06" y2="50.72" fill="none" stroke="#4064a3" stroke-linejoin="round" stroke-width="1.5"/>
          </g>
        </g>
      </g>
      <path d="M37.24,32.12a5.46,5.46,0,0,1,2.34,7.35,6,6,0,0,1-.7,1c-.85,1-6.73,9.73-15,0a5.46,5.46,0,0,1,.64-7.69,5.21,5.21,0,0,1,1-.67l4.53-2.35a2.88,2.88,0,0,1,2.62,0Z" fill="#fff"/>
      <path d="M23.48,34.08a22.92,22.92,0,0,1-3.75-9.3" fill="#fff" stroke="#333" stroke-linecap="round" stroke-linejoin="round" stroke-width="1.5"/>
      <path d="M39.6,34.08a22.92,22.92,0,0,0,3.75-9.3" fill="#fff" stroke="#333" stroke-linecap="round" stroke-linejoin="round" stroke-width="1.5"/>
      <line x1="22.64" y1="36.84" x2="21" y2="35.94" fill="none" stroke="#333" stroke-linecap="round" stroke-linejoin="round" stroke-width="1.5"/>
      <line x1="40.44" y1="36.84" x2="42.08" y2="35.94" fill="none" stroke="#333" stroke-linecap="round" stroke-linejoin="round" stroke-width="1.5"/>
      <path d="M37.24,32.12l-4.51-2.34a2.88,2.88,0,0,0-2.62,0l-4.52,2.35a5.39,5.39,0,0,0-2.78,3.52,5.55,5.55,0,0,0,1.12,2.17c8.22,9.74,14.1,1,15,0A5.5,5.5,0,0,0,40,35.65,5.41,5.41,0,0,0,37.24,32.12Z" fill="#fff"/>
      <path d="M37.24,32.12l-4.51-2.34a3,3,0,0,0-1.18-.3h0v8c0,2.06,2.2,1.61.87,4.11-2,3.84-7.09-2.89-7.09.41,0,.11,3,2.09,3,2.2,5.9,3.07,9.93-2.86,10.62-3.68a5.44,5.44,0,0,0-.6-7.68A5.57,5.57,0,0,0,37.24,32.12Z" fill="#eee"/>
      <path d="M22.84,35.55a18.8,18.8,0,0,0,8.71,2.27A17.24,17.24,0,0,0,40,35.55" fill="none" stroke="#ddd" stroke-miterlimit="10"/>
      <path d="M22.84,37.78a19,19,0,0,0,8.71,2.27A17.24,17.24,0,0,0,40,37.78" fill="none" stroke="#ddd" stroke-miterlimit="10"/>
      <path d="M37.24,32.12a5.46,5.46,0,0,1,2.34,7.35,6,6,0,0,1-.7,1c-.85,1-6.73,9.73-15,0a5.46,5.46,0,0,1,.64-7.69,5.21,5.21,0,0,1,1-.67l4.53-2.35a2.88,2.88,0,0,1,2.62,0Z" fill="none" stroke="#333" stroke-linejoin="round" stroke-width="1.5"/>
    </g>
  </g>
</svg>
