<svg xmlns="http://www.w3.org/2000/svg" viewBox="0 0 64 64">
  <g id="surgeon-asian-male-coronavirus">
    <g>
      <g id="a557200b-8907-4a25-9a76-f6ef759320e6">
        <g id="b4f266ca-2ddd-434a-aaa6-d1118f458ace">
          <g id="f0beea64-79bc-489f-80a2-7b1b3a50e69a">
            <g id="e3030a79-085b-4beb-bcef-b8f2f7111907">
              <g id="f1e14663-da07-4017-bfde-28ad5fda1103">
                <rect x="24.06" y="32.59" width="16" height="17" fill="#e6b790"/>
                <polygon points="24.06 38.6 35.03 45.58 40.06 41.58 40.06 32.59 24.06 32.59 24.06 38.6" fill="#ddad8a"/>
                <path d="M56.79,51.3c-.31-2.29-2-3.66-4.42-4.64L40,41.59a67.57,67.57,0,0,1-8,6s-6.41-4.57-8-6L11.72,46.7c-2.4,1-4.11,2.35-4.42,4.64l-.27,2a62.31,62.31,0,0,0,50,0h0Z" fill="#489e61"/>
                <path d="M52.37,50.16l-15-6.37c-1.7,1.34-3.47,2.6-5.29,3.77,0,0-2.83-2-5.2-3.8L11.72,50.19C9.79,51,8.33,52,7.66,53.59a62.24,62.24,0,0,0,48.79,0A6.91,6.91,0,0,0,52.37,50.16Z" fill="#419356"/>
                <path d="M56.79,51.3c-.31-2.29-2-3.66-4.42-4.64L40,41.59a67.57,67.57,0,0,1-8,6s-6.41-4.57-8-6L11.72,46.7c-2.4,1-4.11,2.35-4.42,4.64l-.27,2a62.31,62.31,0,0,0,50,0h0Z" fill="none" stroke="#333" stroke-linecap="round" stroke-linejoin="round" stroke-width="1.5"/>
                <line x1="32.03" y1="53.58" x2="32.03" y2="47.58" fill="none" stroke="#333" stroke-linecap="round" stroke-linejoin="round" stroke-width="1.5"/>
                <path d="M32,40.59a8.17,8.17,0,0,1-3.39-.52C25.34,38.31,22,34.44,22,32.13v-2a4.7,4.7,0,0,1-2.77-3.65c-.46-2.18-.24-4,1.79-4V19.56c0-5,3.06-10,11-10s11,5.14,11,10.14v2.92c2,0,2.24,1.71,1.77,3.89A4.72,4.72,0,0,1,42,30.13v2c0,2.32-3.27,6.19-6.61,7.94A8.17,8.17,0,0,1,32,40.59Z" fill="#efc8a5"/>
                <path d="M43,22.62V19.7C43,14.7,40,9.56,32,9.56a16.7,16.7,0,0,0-2.74.23v8.06A3.86,3.86,0,0,1,27,21.65h.52a4,4,0,0,1,3.1,1.79.45.45,0,0,0,.51.19l.45-.12a.53.53,0,0,1,.61.41h0a.38.38,0,0,1,0,.1v2.52l1,2.08v.52l-1,.52c-.76,0-1-.39-2-.5a.53.53,0,0,0-.6.45h0v.46a2.25,2.25,0,0,1,1.05.27,3.25,3.25,0,0,0,1.55.4h0v5.12s3.38-.7,2.17,2.73c-.51,1.45-4.73-.19-5.06,1.68A7.86,7.86,0,0,0,32,40.6a8.17,8.17,0,0,0,3.39-.52C38.74,38.33,42,34.46,42,32.14v-2a4.72,4.72,0,0,0,2.79-3.62C45.29,24.33,45,22.62,43,22.62Z" fill="#e6b790"/>
                <path d="M21,20.58v1.75h5.65a6.11,6.11,0,0,0,10.46,0H43V20.58Z" fill="#ddad8a"/>
                <path d="M24,23.54a4.7,4.7,0,0,1,1.5-.75,5,5,0,0,1,1.68-.22,5.53,5.53,0,0,1,1.6.4l1.44.59a.23.23,0,0,1,.13.3h0a.25.25,0,0,1-.23.15,10.32,10.32,0,0,1-1.56-.24l-1.46-.19a5.45,5.45,0,0,0-2.82.4h0a.23.23,0,0,1-.28-.16h0v0A.23.23,0,0,1,24,23.54Z" fill="#333"/>
                <path d="M39.58,23.93a5.45,5.45,0,0,0-2.82-.4c-.47,0-1,.1-1.46.19a14,14,0,0,1-1.56.24.23.23,0,0,1-.25-.21.24.24,0,0,1,.15-.24l1.44-.59a5.53,5.53,0,0,1,1.6-.4,4.59,4.59,0,0,1,3.14,1,.22.22,0,0,1,0,.31h0a.23.23,0,0,1-.27.07Z" fill="#333"/>
                <line x1="24.06" y1="36.56" x2="24.06" y2="41.59" fill="none" stroke="#333" stroke-linecap="round" stroke-linejoin="round" stroke-width="1.5"/>
                <line x1="40.06" y1="36.59" x2="40.06" y2="41.59" fill="none" stroke="#333" stroke-linecap="round" stroke-linejoin="round" stroke-width="1.5"/>
                <path d="M32,40.59a8.17,8.17,0,0,1-3.39-.52C25.34,38.31,22,34.44,22,32.13v-2a4.7,4.7,0,0,1-2.77-3.65c-.46-2.18-.24-4,1.79-4V19.56c0-5,3.06-10,11-10s11,5.14,11,10.14v2.92c2,0,2.24,1.71,1.77,3.89A4.72,4.72,0,0,1,42,30.13v2c0,2.32-3.27,6.19-6.61,7.94A8.17,8.17,0,0,1,32,40.59Z" fill="none" stroke="#333" stroke-linecap="round" stroke-linejoin="round" stroke-width="1.5"/>
                <path d="M21.12,9.79c0,1.11-.07,10.79-.07,10.79H43s-.2-9.68-.2-10.79c0-.55-4.57-3-10.74-3S21.12,9.23,21.12,9.79Z" fill="#419356"/>
                <path d="M33.24,6.79H32.05c-6.27,0-10.93,2.43-10.93,3,0,1,0,9-.07,10.79H27.3c3.44-1.4,7-5.45,7-9.39A9.37,9.37,0,0,0,33.24,6.79Z" fill="#489e61"/>
                <path d="M21.12,9.79,21,20.58H43l-.2-10.79c0-.55-4.57-3-10.74-3S21.12,9.23,21.12,9.79Z" fill="none" stroke="#333" stroke-linecap="round" stroke-linejoin="round" stroke-width="1.5"/>
                <rect x="20.43" y="15.53" width="23.22" height="5.05" fill="#eee" stroke="#333" stroke-linejoin="round" stroke-width="1.5"/>
                <circle cx="31.93" cy="17.84" r="5.38" fill="#eee"/>
                <path d="M26.61,18.42a5.3,5.3,0,0,0,1.18,2.82l7.54-7.54a5.3,5.3,0,0,0-2.82-1.18Z" fill="#e8e8e8"/>
                <path d="M30.55,23l6.56-6.56a5.69,5.69,0,0,0-.7-1.6L29,22.31A4.85,4.85,0,0,0,30.55,23Z" fill="#e8e8e8"/>
                <circle cx="31.93" cy="17.84" r="5.38" fill="none" stroke="#333" stroke-linejoin="round" stroke-width="1.5"/>
                <circle cx="31.99" cy="17.87" r="1.59" fill="#fff"/>
              </g>
              <path d="M45.33,53.59v-11a3.83,3.83,0,0,0-3.65-4H40" fill="none" stroke="#333" stroke-linejoin="round" stroke-width="1.5"/>
              <path d="M18.11,48.09v-5.5a3.83,3.83,0,0,1,3.65-4H24" fill="none" stroke="#333" stroke-linejoin="round" stroke-width="1.5"/>
              <path d="M48.83,57.09a3.5,3.5,0,1,1-3.5-3.5h0A3.5,3.5,0,0,1,48.83,57.09Z" fill="#e0ebee"/>
              <circle cx="45.33" cy="57.09" r="1" fill="#333"/>
              <path d="M48.83,57.09a3.5,3.5,0,1,1-3.5-3.5h0A3.5,3.5,0,0,1,48.83,57.09Z" fill="none" stroke="#333" stroke-linejoin="round" stroke-width="1.5"/>
              <circle cx="16.11" cy="59.59" r="1" fill="#333"/>
              <circle cx="20.11" cy="59.59" r="1" fill="#333"/>
              <path d="M16.11,59.59c-2,0-3-.83-3-2,0-3,5-10,5-10s5,7,5,10c0,1.17-1,2-3,2" fill="none" stroke="#333" stroke-linejoin="round" stroke-width="1.5"/>
              <ellipse cx="27.62" cy="25.7" rx="0.91" ry="0.46" fill="#333"/>
              <ellipse cx="36.5" cy="25.7" rx="0.91" ry="0.46" fill="#333"/>
            </g>
          </g>
        </g>
      </g>
      <g id="af8ed047-c119-4e9d-b817-d0c26aa13f9f">
        <path d="M37.63,29.1A5.44,5.44,0,0,1,40,36.44a5.52,5.52,0,0,1-.69,1c-.86,1-6.73,9.73-15,0A5.44,5.44,0,0,1,25,29.78a5.76,5.76,0,0,1,1-.68l4.53-2.34a2.82,2.82,0,0,1,2.62,0Z" fill="#fff"/>
        <path d="M23.87,31.06a23,23,0,0,1-3.75-9.3" fill="#fff" stroke="#333" stroke-linecap="round" stroke-linejoin="round" stroke-width="1.5"/>
        <path d="M40,31.06a23,23,0,0,0,3.75-9.3" fill="#fff" stroke="#333" stroke-linecap="round" stroke-linejoin="round" stroke-width="1.5"/>
        <line x1="23.03" y1="33.82" x2="21.39" y2="32.92" fill="none" stroke="#333" stroke-linecap="round" stroke-linejoin="round" stroke-width="1.5"/>
        <line x1="40.83" y1="33.82" x2="42.47" y2="32.92" fill="none" stroke="#333" stroke-linecap="round" stroke-linejoin="round" stroke-width="1.5"/>
        <path d="M37.63,29.1l-4.51-2.34a2.82,2.82,0,0,0-2.62,0L26,29.1a5.42,5.42,0,0,0-2.77,3.53,5.42,5.42,0,0,0,1.12,2.17c8.22,9.75,14.1,1,15,0a5.33,5.33,0,0,0,1.13-2.19A5.4,5.4,0,0,0,37.63,29.1Z" fill="#fff"/>
        <path d="M37.63,29.1l-4.51-2.34a2.72,2.72,0,0,0-1.18-.3h0v8c0,2.06,2.2,1.61.86,4.11-2.05,3.84-7.08-2.89-7.08.41,0,.12,3,2.1,2.95,2.2,5.9,3.08,9.92-2.86,10.62-3.67a5.45,5.45,0,0,0-.61-7.68A4.8,4.8,0,0,0,37.63,29.1Z" fill="#eee"/>
        <path d="M23.23,32.53a19.08,19.08,0,0,0,8.71,2.27,17.28,17.28,0,0,0,8.45-2.27" fill="none" stroke="#ddd" stroke-miterlimit="10"/>
        <path d="M23.23,34.75A19,19,0,0,0,31.94,37a17.29,17.29,0,0,0,8.45-2.28" fill="none" stroke="#ddd" stroke-miterlimit="10"/>
        <path d="M37.63,29.1A5.44,5.44,0,0,1,40,36.44a5.52,5.52,0,0,1-.69,1c-.86,1-6.73,9.73-15,0A5.44,5.44,0,0,1,25,29.78a5.76,5.76,0,0,1,1-.68l4.53-2.34a2.82,2.82,0,0,1,2.62,0Z" fill="none" stroke="#333" stroke-linejoin="round" stroke-width="1.5"/>
      </g>
    </g>
  </g>
</svg>
