<svg xmlns="http://www.w3.org/2000/svg" viewBox="0 0 64 64">
  <g id="nurse-asian-female-coronavirus">
    <g>
      <g id="b515847e-fa50-4040-b73c-4b56743e5b63">
        <g id="b3a386c9-8501-4ebd-9718-89592c5fc790">
          <g id="b84e3fb4-8ffb-4acf-a4e4-46b68dbf7aa7">
            <g id="bb79c9e1-28dd-4fc9-8ccf-0bda5c570e5d">
              <g id="fd09d2e9-3b7e-4808-841d-a10fb3d00f9f">
                <path d="M47,30.55a6,6,0,0,1-6,6H29.5c-3.31,0-6.47-2.73-6.47-6.06V20.05c0-6.9,2.62-13,12.06-13S47,13.15,47,20.05Z" fill="#333" stroke="#333" stroke-miterlimit="10" stroke-width="1.5"/>
                <path d="M58.53,47.66a6,6,0,0,0-3.5-4l-14-4H29l-14,4a6,6,0,0,0-3.5,4c-.25,1.53-.5,3-.5,3,7.64,3.38,15.11,4,24,4s16.36-.63,24-4C59,50.66,58.78,49.19,58.53,47.66Z" fill="#d362a4"/>
                <path d="M15.13,43.64a5.53,5.53,0,0,0-3.6,4c-.25,1.52-.5,3-.5,3l.47.2v-.2a5.53,5.53,0,0,1,3.6-4l11-3.15A4,4,0,0,0,29,39.67Z" fill="#dd83bf"/>
                <path d="M58.53,47.67a5.51,5.51,0,0,0-3.6-4l-13.9-4a4,4,0,0,0,2.88,3.83l11,3.15a5.51,5.51,0,0,1,3.6,4v.2l.47-.2S58.78,49.19,58.53,47.67Z" fill="#d873b2"/>
                <polygon points="41.03 39.66 35.03 46.66 29.03 39.66 29.03 34.66 41.03 34.66 41.03 39.66" fill="#8f715c"/>
                <line x1="41.03" y1="40.66" x2="41.03" y2="34.66" fill="none" stroke="#343433" stroke-miterlimit="10" stroke-width="1.5"/>
                <line x1="29.03" y1="40.66" x2="29.03" y2="34.66" fill="none" stroke="#343433" stroke-miterlimit="10" stroke-width="1.5"/>
                <path d="M41,39.66l14,4a6,6,0,0,1,3.5,4c.25,1.53.5,3,.5,3-7.64,3.37-15.12,4-24,4s-16.36-.62-24-4c0,0,.25-1.47.5-3a6,6,0,0,1,3.5-4l14-4" fill="none" stroke="#343433" stroke-linecap="round" stroke-linejoin="round" stroke-width="1.5"/>
                <path d="M19,50.66H17v-2l5-5a8,8,0,0,1,8-8H40a8,8,0,0,1,8,8v8" fill="none" stroke="#333" stroke-linejoin="round" stroke-width="1.5"/>
                <polyline points="25.03 50.66 27.03 50.66 27.03 48.66 22.03 43.66" fill="none" stroke="#333" stroke-linejoin="round" stroke-width="1.5"/>
                <circle cx="48.03" cy="51.16" r="2.5" fill="#ccc" stroke="#333" stroke-linecap="round" stroke-linejoin="round" stroke-width="1.5"/>
                <circle cx="19.03" cy="50.66" r="1.25" fill="#333"/>
                <circle cx="25.03" cy="50.66" r="1.25" fill="#333"/>
                <polyline points="41.03 39.66 35.03 46.66 29.03 39.66" fill="none" stroke="#343433" stroke-linecap="round" stroke-linejoin="round" stroke-width="1.5"/>
                <path d="M58.53,47.66a6,6,0,0,0-3.5-4l-14-4H29l-14,4a6,6,0,0,0-3.5,4c-.25,1.53-.5,3-.5,3,7.64,3.38,15.11,4,24,4s16.36-.63,24-4C59,50.66,58.78,49.19,58.53,47.66Z" fill="#d362a4"/>
                <path d="M15.13,43.64a5.53,5.53,0,0,0-3.6,4c-.25,1.52-.5,3-.5,3l.47.2v-.2a5.53,5.53,0,0,1,3.6-4l11-3.15A4,4,0,0,0,29,39.67Z" fill="#dd83bf"/>
                <path d="M58.53,47.67a5.51,5.51,0,0,0-3.6-4l-13.9-4a4,4,0,0,0,2.88,3.83l11,3.15a5.51,5.51,0,0,1,3.6,4v.2l.47-.2S58.78,49.19,58.53,47.67Z" fill="#d873b2"/>
                <polygon points="41.03 39.66 35.03 46.66 29.03 39.66 29.03 34.66 41.03 34.66 41.03 39.66" fill="#efc8a5"/>
                <path d="M29.28,37.83,34,42.58A4.14,4.14,0,0,1,35,45.36a2.45,2.45,0,0,0,.24,1l5.5-6.42V36.76H29.28Z" fill="#e6b790"/>
                <line x1="41.03" y1="40.66" x2="41.03" y2="34.66" fill="none" stroke="#343433" stroke-miterlimit="10" stroke-width="1.5"/>
                <line x1="29.03" y1="40.66" x2="29.03" y2="34.66" fill="none" stroke="#343433" stroke-miterlimit="10" stroke-width="1.5"/>
                <path d="M41,39.66l14,4a6,6,0,0,1,3.5,4c.25,1.53.5,3,.5,3-7.64,3.37-15.12,4-24,4s-16.36-.62-24-4c0,0,.25-1.47.5-3a6,6,0,0,1,3.5-4l14-4" fill="none" stroke="#343433" stroke-linecap="round" stroke-linejoin="round" stroke-width="1.5"/>
                <path d="M19,50.66H17v-2l5-5a8,8,0,0,1,8-8H40a8,8,0,0,1,8,8v8" fill="none" stroke="#333" stroke-linejoin="round" stroke-width="1.5"/>
                <polyline points="25.03 50.66 27.03 50.66 27.03 48.66 22.03 43.66" fill="none" stroke="#333" stroke-linejoin="round" stroke-width="1.5"/>
                <circle cx="48.03" cy="51.16" r="2.5" fill="#ccc" stroke="#333" stroke-linecap="round" stroke-linejoin="round" stroke-width="1.5"/>
                <circle cx="19.03" cy="50.66" r="1.25" fill="#333"/>
                <circle cx="25.03" cy="50.66" r="1.25" fill="#333"/>
                <polyline points="41.03 39.66 35.03 46.66 29.03 39.66" fill="none" stroke="#343433" stroke-linecap="round" stroke-linejoin="round" stroke-width="1.5"/>
                <path d="M35,8.82c8,0,10.5,4.59,10.5,10v2c1.73,0,2.28,1.71,2,4-.24,1.95-1,4-3,4v1.5c0,3-2.39,4.36-5.18,7.26A4.81,4.81,0,0,1,35,39.28a4.84,4.84,0,0,1-4.32-1.74c-2.79-2.9-5.18-4.26-5.18-7.26V28.82c-2,0-2.76-2.05-3-4-.28-2.29.27-4,2-4v-2C24.53,13.37,27,8.82,35,8.82Z" fill="#efc8a5"/>
                <path d="M45.11,20.89v-2c0-5.41-2-10.51-10-10.51a14.27,14.27,0,0,0-2.77.24V19a3.89,3.89,0,0,1-1.27,2.88.46.46,0,0,0,0,.64.48.48,0,0,0,.23.13,2.57,2.57,0,0,1,1.88,1.88.49.49,0,0,0,.58.37h0a.46.46,0,0,0,.19-.08,1.83,1.83,0,0,1,.58-.32.48.48,0,0,1,.59.35.69.69,0,0,1,0,.13v2.08a1.12,1.12,0,0,0,.62.94c.57.32.16,1.4-.62,1.4h0a1.65,1.65,0,0,1-.89-.23c-.74-.37-1.43.39-1.27.68s.34,0,1.08.35a2.62,2.62,0,0,0,1.1.27v3.68a.39.39,0,0,0,.31.38c1.31.31,2,2.49-.31,3h0a1.25,1.25,0,0,0-1,1.2v.45a6.5,6.5,0,0,0,5-1.3l2.56-2a6.51,6.51,0,0,0,2.29-4l.55-3h0c1.8-.12,2.77-2.08,3-4C47.9,22.59,46.84,20.89,45.11,20.89Z" fill="#e6b790"/>
                <path d="M32.34,25.17c-.58-.33-1.93-1.92-3.86-.33a4,4,0,0,1-.76-.25A4.9,4.9,0,0,1,31,24.33" fill="#333" stroke="#333" stroke-linecap="round" stroke-miterlimit="10" stroke-width="0.5"/>
                <ellipse cx="30.54" cy="24.98" rx="0.81" ry="0.57" fill="#333"/>
                <path d="M37.72,25.17c.58-.33,1.93-1.92,3.86-.33a4.22,4.22,0,0,0,.76-.25A4.9,4.9,0,0,0,39,24.33" fill="#333" stroke="#333" stroke-linecap="round" stroke-miterlimit="10" stroke-width="0.5"/>
                <ellipse cx="39.52" cy="24.98" rx="0.81" ry="0.57" fill="#333"/>
                <path d="M27.6,22.51A3.48,3.48,0,0,1,28.91,22a4.17,4.17,0,0,1,1.41,0,12.21,12.21,0,0,1,1.33.31,8.61,8.61,0,0,0,1.22.28h0a.51.51,0,0,1,.55.46.52.52,0,0,1-.46.56h0l-.17,0h-.07a9.17,9.17,0,0,1-1.32-.5,10.29,10.29,0,0,0-1.2-.47A3.62,3.62,0,0,0,29,22.41a1.89,1.89,0,0,0-1.15.38.18.18,0,1,1-.26-.25h0l0,0Z" fill="#333"/>
                <path d="M42.18,22.8A1.84,1.84,0,0,0,41,22.43a3.85,3.85,0,0,0-1.22.2,10.29,10.29,0,0,0-1.2.47,7.85,7.85,0,0,1-1.33.49.51.51,0,0,1-.23-1h.08a8.45,8.45,0,0,0,1.21-.27,12.09,12.09,0,0,1,1.33-.28,4.17,4.17,0,0,1,1.41,0,3.66,3.66,0,0,1,1.31.53.18.18,0,0,1,.07.25.19.19,0,0,1-.25.06l0,0S42.19,22.8,42.18,22.8Z" fill="#333"/>
                <line x1="35.07" y1="30.73" x2="35.07" y2="31.48" fill="none" stroke="#ddad8a" stroke-linecap="round" stroke-miterlimit="10" stroke-width="0.65"/>
                <path d="M33,34.32a2.2,2.2,0,0,0,1.56.56h1a2.54,2.54,0,0,0,1.69-.6" fill="none" stroke="#ddad8a" stroke-linecap="round" stroke-miterlimit="10" stroke-width="0.65"/>
                <line x1="32.12" y1="32.83" x2="31.62" y2="33.83" fill="none" stroke="#ddad8a" stroke-linecap="round" stroke-miterlimit="10" stroke-width="0.65"/>
                <line x1="38.12" y1="32.83" x2="38.62" y2="33.83" fill="none" stroke="#ddad8a" stroke-linecap="round" stroke-miterlimit="10" stroke-width="0.65"/>
                <path d="M35.9,32.12a1.92,1.92,0,0,1-.78.2c-.2,0-.22,0-.68-.2-.8-.32-.85.66-2.33,1.2l.92.94a2.16,2.16,0,0,0,1.55.56h1a2.5,2.5,0,0,0,1.67-.6l.86-.9C36.7,32.81,36.7,31.81,35.9,32.12Z" fill="#a56659"/>
                <path d="M38.11,33.32c-1,0-1.49-.49-3,0h0c-1.48-.5-2,0-3,0" fill="none" stroke="#743f40" stroke-linecap="round" stroke-miterlimit="10" stroke-width="0.5"/>
                <path d="M33.12,29.89c1,0,1,.5,2,.5s1-.5,2-.5" fill="none" stroke="#c68b71" stroke-linecap="round" stroke-miterlimit="10" stroke-width="0.75"/>
                <path d="M35,8.82c8,0,10.5,4.59,10.5,10v2c1.73,0,2.28,1.71,2,4-.24,1.95-1,4-3,4v1.5c0,3-2.42,4.29-5.21,7.2A4.84,4.84,0,0,1,35,39.28a4.94,4.94,0,0,1-4.35-1.8c-2.79-2.91-5.15-4.2-5.15-7.2V28.82c-2,0-2.76-2.05-3-4-.28-2.29.27-4,2-4v-2C24.53,13.37,27,8.82,35,8.82Z" fill="none" stroke="#333" stroke-linejoin="round" stroke-width="1.5"/>
                <path d="M34.54,5.82c-3.42,0-6.7,1.29-8.5,3.5-3.51.73-5,3.61-5,6.5,0,4.53,4.25,8.15,4.25,9.5v-2.5c0-3.44,2.47-1.68,3.25-5,7.37,2.38,10.41,4.93,12,7.5a13.16,13.16,0,0,0,6,5.5A30.72,30.72,0,0,0,49,20.32,14.41,14.41,0,0,0,34.71,5.82Z" fill="#333"/>
                <path d="M21.29,17.82c.25-3.54,1.62-6.87,5.75-7.54,3.73-4.57,13.89-4.09,19.5,2C41.48,4.48,30.4,4,26,9.28,22.08,10.14,20.29,13.89,21.29,17.82Z" fill="#444"/>
                <path d="M46.23,30.69a38,38,0,0,0,1.59-5.09,22.84,22.84,0,0,0,.69-5.21A14.29,14.29,0,0,0,44.79,11a13.44,13.44,0,0,0-9-4.34,13,13,0,0,0-5,.52,8.79,8.79,0,0,0-4.18,2.6h0a.61.61,0,0,1-.37.21,5.44,5.44,0,0,0-3.57,2.3,6.85,6.85,0,0,0-1,4.3,10.21,10.21,0,0,0,1.61,4.33c.41.68.87,1.34,1.32,2,.23.35.45.69.66,1.07a3.07,3.07,0,0,1,.43,1.32.35.35,0,0,1-.34.35.32.32,0,0,1-.34-.3h0A5,5,0,0,0,24,23.39c-.48-.65-1-1.31-1.43-2a11.27,11.27,0,0,1-1.9-4.69,7.92,7.92,0,0,1,1-5.06,6.59,6.59,0,0,1,4.32-3l-.39.23a10.2,10.2,0,0,1,4.77-3.15A13.71,13.71,0,0,1,36,5.11a14.46,14.46,0,0,1,9.87,5,15.51,15.51,0,0,1,3.8,10.3,21.68,21.68,0,0,1-.93,5.41A39.14,39.14,0,0,1,46.86,31a.35.35,0,0,1-.45.18h0a.34.34,0,0,1-.19-.43Z" fill="#333"/>
                <path d="M46.4,31.13a13.94,13.94,0,0,1-2.83-1.56,13.9,13.9,0,0,1-2.36-2.24c-.7-.83-1.28-1.76-1.87-2.53-.3-.41-.65-.77-1-1.16a7.7,7.7,0,0,0-1.06-1,19.38,19.38,0,0,0-5-3.35,48,48,0,0,0-5.82-2.09.34.34,0,0,1-.22-.43h0a.35.35,0,0,1,.39-.23h0a37.12,37.12,0,0,1,6.13,1.61,15.54,15.54,0,0,1,7.63,5.9c.62.92,1.12,1.78,1.71,2.59a13.08,13.08,0,0,0,4.52,3.94.32.32,0,0,1,.24.37.31.31,0,0,1-.36.24l-.1,0Z" fill="#333"/>
                <path d="M34.73,15.68a8.5,8.5,0,0,1,3.7.92,10.44,10.44,0,0,1,3.13,2.22,10,10,0,0,1,2.14,3.23,9.39,9.39,0,0,1,.78,3.77c-.63-1.11-1.14-2.2-1.81-3.18a18.6,18.6,0,0,0-2.18-2.74A23,23,0,0,0,34.73,15.68Z" fill="#333"/>
                <path d="M27.34,11.65A6.54,6.54,0,0,1,29.8,9.82a10.39,10.39,0,0,1,3-.84A11.35,11.35,0,0,1,35.88,9,9.72,9.72,0,0,1,38.8,10h-3a23,23,0,0,0-2.87.21A22.1,22.1,0,0,0,27.34,11.65Z" fill="#333"/>
                <path d="M30.82,13.25a10.46,10.46,0,0,1,3.78-1.2,12.21,12.21,0,0,1,4,.12,12.7,12.7,0,0,1,2,.58,10.12,10.12,0,0,1,1.79,1,9.48,9.48,0,0,1,2.79,2.85,21.94,21.94,0,0,0-3.28-2,14,14,0,0,0-3.51-1.18A22.64,22.64,0,0,0,30.82,13.25Z" fill="#333"/>
                <path d="M25.29,25.32v-2.5c0-3.44,2.74-2.1,3.53-5.42" fill="none" stroke="#333" stroke-linejoin="round" stroke-width="0.75"/>
              </g>
            </g>
          </g>
        </g>
      </g>
      <g id="ba9feb82-642e-4b39-837c-a0254fb13943">
        <path d="M40.48,28.48a5.21,5.21,0,0,1,2.23,7,5,5,0,0,1-.66,1c-.82,1-6.44,9.31-14.3,0a5.21,5.21,0,0,1,.61-7.35,5.3,5.3,0,0,1,1-.65l4.33-2.24a2.75,2.75,0,0,1,2.5,0Z" fill="#fff"/>
        <path d="M27.32,30.35a21.79,21.79,0,0,1-3.58-8.89" fill="#fff" stroke="#333" stroke-linecap="round" stroke-linejoin="round" stroke-width="1.5"/>
        <path d="M42.74,30.35a21.79,21.79,0,0,0,3.58-8.89" fill="#fff" stroke="#333" stroke-linecap="round" stroke-linejoin="round" stroke-width="1.5"/>
        <line x1="26.52" y1="33" x2="24.95" y2="32.13" fill="none" stroke="#333" stroke-linecap="round" stroke-linejoin="round" stroke-width="1.5"/>
        <line x1="43.54" y1="33" x2="45.11" y2="32.13" fill="none" stroke="#333" stroke-linecap="round" stroke-linejoin="round" stroke-width="1.5"/>
        <path d="M40.48,28.48l-4.31-2.24a2.75,2.75,0,0,0-2.5,0l-4.33,2.25a5.13,5.13,0,0,0-2.65,3.37,5.13,5.13,0,0,0,1.07,2.07c7.86,9.32,13.48,1,14.3,0a5.26,5.26,0,0,0,1.08-2.1A5.16,5.16,0,0,0,40.48,28.48Z" fill="#fff"/>
        <path d="M40.48,28.48l-4.31-2.24A3,3,0,0,0,35,26h0v7.63c0,2,2.1,1.54.83,3.93-2,3.67-6.77-2.76-6.77.39,0,.11,2.82,2,2.81,2.11,5.65,2.94,9.5-2.74,10.16-3.52a5.2,5.2,0,0,0-.58-7.34A4.79,4.79,0,0,0,40.48,28.48Z" fill="#eee"/>
        <path d="M26.71,31.76A18.09,18.09,0,0,0,35,33.93a16.45,16.45,0,0,0,8.07-2.17" fill="none" stroke="#ddd" stroke-miterlimit="10" stroke-width="0.96"/>
        <path d="M26.71,33.89A18.09,18.09,0,0,0,35,36.06a16.56,16.56,0,0,0,8.07-2.17" fill="none" stroke="#ddd" stroke-miterlimit="10" stroke-width="0.96"/>
        <path d="M40.48,28.48a5.21,5.21,0,0,1,2.23,7,5,5,0,0,1-.66,1c-.82,1-6.44,9.31-14.3,0a5.21,5.21,0,0,1,.61-7.35,5.3,5.3,0,0,1,1-.65l4.33-2.24a2.75,2.75,0,0,1,2.5,0Z" fill="none" stroke="#333" stroke-linejoin="round" stroke-width="1.5"/>
      </g>
    </g>
  </g>
</svg>
