<svg xmlns="http://www.w3.org/2000/svg" viewBox="0 0 64 64">
  <g id="virologist-asian-female-coronavirus">
    <g>
      <g id="b8b146f8-6b14-43ce-a423-0a1379edea7b">
        <g id="a7805202-313d-427b-b8b8-283b4a154336">
          <g id="bf112ece-daea-48eb-8df0-1ed689e4dca0">
            <g id="b9a9e55e-56d2-453d-8d90-856814e99f80">
              <polygon points="58.79 11.54 58.79 7.42 55.22 5.36 51.65 7.42 51.65 11.54 55.22 13.6 58.79 11.54" fill="none" stroke="#000" stroke-miterlimit="10"/>
              <line x1="55.22" y1="5.36" x2="55.22" y2="3.04" fill="none" stroke="#000" stroke-miterlimit="10"/>
              <line x1="51.65" y1="7.42" x2="49.64" y2="6.26" fill="none" stroke="#000" stroke-miterlimit="10"/>
              <line x1="58.79" y1="11.54" x2="60.8" y2="12.7" fill="none" stroke="#000" stroke-miterlimit="10"/>
              <line x1="58.79" y1="7.42" x2="60.8" y2="6.26" fill="none" stroke="#000" stroke-miterlimit="10"/>
              <line x1="51.65" y1="11.54" x2="49.64" y2="12.7" fill="none" stroke="#000" stroke-miterlimit="10"/>
              <line x1="55.22" y1="13.6" x2="55.22" y2="15.92" fill="none" stroke="#000" stroke-miterlimit="10"/>
              <polyline points="15.22 13.12 13.4 16.28 15.22 19.44" fill="none" stroke="#000" stroke-miterlimit="10"/>
              <polygon points="13.4 9.96 9.75 9.96 7.93 13.12 9.75 16.28 13.4 16.28 15.22 13.12 13.4 9.96" fill="none" stroke="#000" stroke-miterlimit="10"/>
              <polyline points="7.93 19.44 9.75 16.28 7.93 13.12" fill="none" stroke="#000" stroke-miterlimit="10"/>
              <line x1="7.93" y1="6.8" x2="4.28" y2="6.8" fill="none" stroke="#000" stroke-miterlimit="10"/>
              <polyline points="9.75 3.64 7.93 6.8 9.75 9.96 13.4 9.96 15.22 6.8" fill="none" stroke="#000" stroke-miterlimit="10"/>
              <path d="M44.77,40.61c0,5.57-4.92,5.92-11,5.92s-11-.35-11-5.92,4.92-10.08,11-10.08S44.77,35,44.77,40.61Z" fill="#333" stroke="#333" stroke-linejoin="round" stroke-width="1.81"/>
              <path d="M57.22,48.51A5.5,5.5,0,0,0,53,44.11c-3.8-.73-7.62-1.57-13.12-2.6V37.24H27.57v4.27c-5.4,1-9.47,1.78-13.06,2.61a5.63,5.63,0,0,0-4.23,4.4L10,50.4c1.22.74,12,5.17,23.83,5a59,59,0,0,0,23.63-5Z" fill="#e6b790"/>
              <path d="M27.57,37.24v1.24l5,5.18a4.11,4.11,0,0,1,1.15,2.85,2.63,2.63,0,0,0,2.63,2.63h.52a3,3,0,0,0,3-3v-8.9Z" fill="#d6a787"/>
              <polyline points="27.57 43.39 27.57 37.24 39.91 37.24 39.91 43.39" fill="none" stroke="#333" stroke-linejoin="round" stroke-width="1.5"/>
              <path d="M27.57,41.51c-5.4,1-9.47,1.78-13.06,2.61a5.63,5.63,0,0,0-4.23,4.4L10,50.4c1.22.74,12,5.17,23.83,5a59,59,0,0,0,23.63-5l-.25-1.9A5.5,5.5,0,0,0,53,44.1c-3.8-.73-7.62-1.57-13.12-2.6" fill="none" stroke="#333" stroke-linejoin="round" stroke-width="1.5"/>
              <path d="M57.22,48.51A5.5,5.5,0,0,0,53,44.11c-3.8-.73-7.62-1.57-13.12-2.6h-.1a13.16,13.16,0,0,1-6,9,13.11,13.11,0,0,1-6-9h-.3c-5.4,1-9.47,1.78-13.06,2.61a5.61,5.61,0,0,0-4.19,4.4L10,50.4c1.22.74,12,5.17,23.83,5a59,59,0,0,0,23.63-5Z" fill="#dae4e8"/>
              <path d="M25.16,42c-4.23.79-7.62,1.47-10.65,2.16a5.63,5.63,0,0,0-4.23,4.4L10,50.4A57,57,0,0,0,26.86,55,45.15,45.15,0,0,1,25.16,42Z" fill="#eee"/>
              <path d="M40.84,54.93a54.9,54.9,0,0,0,16.62-4.51l-.25-1.9A5.5,5.5,0,0,0,53,44.12c-3.17-.61-6.36-1.29-10.51-2.1A45,45,0,0,1,40.84,54.93Z" fill="#eee"/>
              <path d="M53,47C42.43,44.83,39,44.34,39,44.34a13,13,0,0,1-5.13,6.11,13,13,0,0,1-5.13-6.11S18.71,46,14.51,47a5.54,5.54,0,0,0-4,3.7,59.92,59.92,0,0,0,23.32,4.76A61,61,0,0,0,57,50.64,5.44,5.44,0,0,0,53,47Z" fill="#d4f4f0"/>
              <path d="M42.76,43.63l-3-2.12c-.73,5.39-5.82,8.84-6,9v.84a9.83,9.83,0,0,0,4.16-1.67l4.76,2.87V43.63Z" fill="#a8ccc6"/>
              <path d="M27.83,41.31l-2.91,2.32v8.88l6.64-3.9C30,46.49,28.28,44.48,27.83,41.31Z" fill="#a8ccc6"/>
              <path d="M40.85,54.92A58.54,58.54,0,0,0,57,50.64,5.4,5.4,0,0,0,53,47c-3.19-.61-6.41-1.3-10.6-2.12A40.52,40.52,0,0,1,40.85,54.92Z" fill="#ddd"/>
              <path d="M25.28,44.78c-4.28.8-7.69,1.48-10.74,2.18a5.54,5.54,0,0,0-4,3.7A60.09,60.09,0,0,0,26.87,55,39.55,39.55,0,0,1,25.28,44.78Z" fill="#ddd"/>
              <path d="M27.57,41.51c-5.4,1-9.47,1.78-13.06,2.61a5.63,5.63,0,0,0-4.23,4.4L10,50.4c1.22.74,12,5.17,23.83,5a59,59,0,0,0,23.63-5l-.25-1.9A5.5,5.5,0,0,0,53,44.1c-3.8-.73-7.62-1.57-13.12-2.6" fill="none" stroke="#333" stroke-linejoin="round" stroke-width="1.5"/>
              <line x1="33.84" y1="50.46" x2="33.84" y2="55.41" fill="none" stroke="#333" stroke-linejoin="round" stroke-width="1.5"/>
              <path d="M19.64,53.42l.36.34A59.17,59.17,0,0,0,26.86,55c-1.12-3.51-1.64-7.63-1.71-13.47l-6.68,5.67L22.33,50Z" fill="#ddd" stroke="#333" stroke-linejoin="round" stroke-width="1.53"/>
              <path d="M47.78,53.67l.27-.25-2.7-3.5,3.86-2.72-6.68-5.67c-.07,5.79-.58,9.89-1.68,13.39A60.64,60.64,0,0,0,47.78,53.67Z" fill="#ddd" stroke="#333" stroke-linejoin="round" stroke-width="1.53"/>
              <path d="M40.14,39.49l2.62,2.09v8.88l-5.25-3.13C39.07,45.2,39.71,42.66,40.14,39.49Z" fill="#d4f4f0"/>
              <path d="M27.54,39.49l-2.62,2.09v8.88l5.25-3.13C28.61,45.2,28,42.66,27.54,39.49Z" fill="#d4f4f0"/>
              <path d="M30.16,47.32l-5.25,3.13V41.57l2.62-2.09h0c.62,5.2,2.4,8.31,6.3,11,3.9-2.66,5.68-5.77,6.3-11h0l2.62,2.09v8.88L37.5,47.32" fill="none" stroke="#333" stroke-linejoin="round" stroke-width="1.5"/>
              <path d="M44.28,23.25v-2c0-5.41-2.46-10-10.5-10s-10.5,4.59-10.5,10v2c-1.73,0-2.28,1.71-2,4,.24,1.95,1,4,3,4,0,3,1.74,6.37,5.18,8.76,2.18,1.51,3.11,1.74,4.32,1.74S36,41.68,38.1,40c2.9-2.39,5.18-5.76,5.18-8.76,2,0,2.76-2.05,3-4C46.52,25,46,23.25,44.28,23.25Z" fill="#efc8a5"/>
              <path d="M44.28,23.25v-2c0-5.41-2.46-10-10.5-10a18.22,18.22,0,0,0-2.66.2V22a3.89,3.89,0,0,1-1.27,2.88.46.46,0,0,0,0,.64.41.41,0,0,0,.23.13,2.58,2.58,0,0,1,1.88,1.88.49.49,0,0,0,.58.38h0a.66.66,0,0,0,.19-.09,1.83,1.83,0,0,1,.58-.32.49.49,0,0,1,.59.36.5.5,0,0,1,0,.12v1.62a1.09,1.09,0,0,0,.62.94c.57.31.18,1.4-.64,1.4a1.64,1.64,0,0,1-.89-.22c-.74-.37-1.43.39-1.27.68s.34,0,1.08.35a2.62,2.62,0,0,0,1.1.27v4.13a.39.39,0,0,0,.31.38c1.31.31,2,2.49-.31,3h0a1.25,1.25,0,0,0-1,1.16,4.69,4.69,0,0,0,.92.07c1.21,0,2.26-.07,4.32-1.74,2.87-2.42,5.15-5.79,5.15-8.79,2,0,2.76-2,3-4C46.52,25,46,23.25,44.28,23.25Z" fill="#e6b790"/>
              <path d="M43.53,25.2H24.91v4.21a3,3,0,0,0,3,3h2.6A2.89,2.89,0,0,0,32,32.05a4.26,4.26,0,0,1,2.15-.76,4.26,4.26,0,0,1,2.15.76,2.87,2.87,0,0,0,1.52.36h2.6a3,3,0,0,0,3-3Z" fill="#ddad8a"/>
              <path d="M45.43,23.65a1.92,1.92,0,0,0-1.15-.41v-2c0-5.41-2.46-10-10.5-10s-10.5,4.59-10.5,10v2a2.08,2.08,0,0,0-.66.11,21,21,0,0,1,1.66,4.39c0,.12.4.23.53.23a.25.25,0,0,0,.25-.23c.22-4.89.22-7.28,2.22-9.7,4.1,6.26,14.46,5.06,14.46,10a.59.59,0,0,0,1.17,0,3.7,3.7,0,0,1,.82-2A22,22,0,0,1,45.43,23.65Z" fill="#e6b790"/>
              <path d="M45.43,23.65h0a1.88,1.88,0,0,0-.23-.16,1.73,1.73,0,0,0-.31-.14h-.15a2.74,2.74,0,0,0-.5-.07v-2c0-5.41-2.46-10-10.5-10a12.92,12.92,0,0,0-1.39.05c-.39.05-.86.08-1.27.14h0v10C35.75,24.09,41.72,24.3,41.72,28a.58.58,0,0,0,.63.54.59.59,0,0,0,.54-.49,3.7,3.7,0,0,1,.82-2A21.75,21.75,0,0,1,45.43,23.65Z" fill="#d6a787"/>
              <line x1="33.81" y1="33.47" x2="33.81" y2="34.21" fill="none" stroke="#ddad8a" stroke-linecap="round" stroke-miterlimit="10" stroke-width="0.65"/>
              <line x1="30.86" y1="35.56" x2="30.36" y2="36.56" fill="none" stroke="#ddad8a" stroke-linecap="round" stroke-miterlimit="10" stroke-width="0.65"/>
              <line x1="36.86" y1="35.56" x2="37.36" y2="36.56" fill="none" stroke="#ddad8a" stroke-linecap="round" stroke-miterlimit="10" stroke-width="0.65"/>
              <path d="M31.86,32.62c1,0,1,.5,2,.5s1-.5,2-.5" fill="none" stroke="#c6916d" stroke-linecap="round" stroke-miterlimit="10" stroke-width="0.75"/>
              <path d="M44.28,23.25v-2c0-5.41-2.46-10-10.5-10s-10.5,4.59-10.5,10v2c-1.73,0-2.28,1.71-2,4,.24,1.95,1,4,3,4,0,3,1.74,6.37,5.18,8.76,2.18,1.51,3.11,1.74,4.32,1.74S36,41.68,38.1,40c2.9-2.39,5.18-5.76,5.18-8.76,2,0,2.76-2.05,3-4C46.52,25,46,23.25,44.28,23.25Z" fill="none" stroke="#343433" stroke-linecap="round" stroke-linejoin="round" stroke-width="1.5"/>
              <path d="M34.64,34.86a1.65,1.65,0,0,1-.78.2c-.2,0-.22,0-.68-.2-.8-.32-.85.66-2.33,1.2l.92.94a2.11,2.11,0,0,0,1.55.56h1A2.5,2.5,0,0,0,36,37l.86-.9C35.44,35.55,35.44,34.54,34.64,34.86Z" fill="#a56659"/>
              <path d="M36.85,36c-1,0-1.49-.49-3,0h0c-1.48-.5-2,0-3,0" fill="none" stroke="#743f40" stroke-linecap="round" stroke-miterlimit="10" stroke-width="0.5"/>
              <path d="M45.77,18c0-4.69-3.58-10-11-10a10,10,0,0,0-8,3.5c-4,.83-5,4.17-5,6.5,0,4.48,2.5,8.31,2.5,10.5V23a10.4,10.4,0,0,1,3-7c3,7.3,15.5,6.28,15.5,11.5V29C42.77,25.29,45.77,22.19,45.77,18Z" fill="#333"/>
              <path d="M24.28,28.53V23a10.4,10.4,0,0,1,3-7c3,7.3,15.5,6.28,15.5,11.5V29" fill="none" stroke="#333" stroke-linecap="round" stroke-miterlimit="10" stroke-width="0.75"/>
              <path d="M42.43,29a12.4,12.4,0,0,1,1-4.65,29.58,29.58,0,0,0,1.5-4.3A9.18,9.18,0,0,0,39.28,9.57,12.71,12.71,0,0,0,35,8.78,9.56,9.56,0,0,0,27.33,12l-.17.2h-.24a5.29,5.29,0,0,0-3.57,2.32,7.3,7.3,0,0,0-1,4.38,19.31,19.31,0,0,0,1,4.7l.76,2.35a8.86,8.86,0,0,1,.49,2.54.34.34,0,0,1-.34.34h0A.32.32,0,0,1,24,28.5h0a22.46,22.46,0,0,0-1.48-4.58A20,20,0,0,1,21.28,19a8.36,8.36,0,0,1,1-5.16,6.7,6.7,0,0,1,4.42-3l-.42.16a9.69,9.69,0,0,1,4-2.95,12.28,12.28,0,0,1,4.83-.84,11.6,11.6,0,0,1,8.78,3.83,10.32,10.32,0,0,1,2.23,9.23c-.84,3.19-2.84,5.73-3,8.73h0a.34.34,0,0,1-.35.33h0A.34.34,0,0,1,42.43,29Z" fill="#333"/>
              <path d="M31.85,32.55c1,0,1,.5,2,.5s1-.5,2-.5" fill="none" stroke="#ba8d86" stroke-linecap="round" stroke-miterlimit="10" stroke-width="0.75"/>
              <path d="M43.06,24.83H24.45V29a3,3,0,0,0,3,3h2.6a2.89,2.89,0,0,0,1.52-.36,4.26,4.26,0,0,1,2.15-.76,4.26,4.26,0,0,1,2.15.76,2.87,2.87,0,0,0,1.52.36H40a3,3,0,0,0,3-3V24.83Z" fill="#98a4bf"/>
              <path d="M29.79,24.86a.46.46,0,0,0,0,.64.41.41,0,0,0,.23.13,2.58,2.58,0,0,1,1.88,1.88.49.49,0,0,0,.58.38h0a.66.66,0,0,0,.19-.09,1.83,1.83,0,0,1,.58-.32.49.49,0,0,1,.59.36.5.5,0,0,1,0,.12v1.61a1.09,1.09,0,0,0,.62.94.55.55,0,0,1,.25.62,8.9,8.9,0,0,1,1.2.59,2.87,2.87,0,0,0,1.52.36H40a3,3,0,0,0,3-3V24.83H29.82Z" fill="#8f9db5"/>
              <rect x="24.45" y="24.25" width="18.61" height="1.15" fill="#6592e0" stroke="#6592e0" stroke-linejoin="round"/>
              <path d="M31,28.17c-.58-.33-1.93-1.92-3.86-.33a4,4,0,0,1-.76-.25,4.9,4.9,0,0,1,3.31-.26" fill="#77859e" stroke="#77859e" stroke-linecap="round" stroke-miterlimit="10" stroke-width="0.5"/>
              <ellipse cx="29.07" cy="27.88" rx="0.81" ry="0.47" fill="#77859e"/>
              <path d="M36.54,28.17c.58-.33,1.93-1.92,3.86-.33a4.22,4.22,0,0,0,.76-.25,4.9,4.9,0,0,0-3.31-.26" fill="#77859e" stroke="#77859e" stroke-linecap="round" stroke-miterlimit="10" stroke-width="0.5"/>
              <ellipse cx="38.47" cy="27.88" rx="0.81" ry="0.47" fill="#77859e"/>
            </g>
          </g>
        </g>
      </g>
      <g id="b435e9fb-4f0b-4263-870d-c076da4a180e">
        <path d="M39,30.58a4.89,4.89,0,0,1,2.09,6.59,4.79,4.79,0,0,1-.62.92c-.76.9-6,8.73-13.4,0a4.85,4.85,0,0,1,1.48-7.49l4.06-2.1a2.51,2.51,0,0,1,2.35,0Z" fill="#fff"/>
        <line x1="25.88" y1="34.81" x2="24.41" y2="34" fill="none" stroke="#333" stroke-linecap="round" stroke-linejoin="round" stroke-width="1.41"/>
        <line x1="41.84" y1="34.81" x2="43.31" y2="34" fill="none" stroke="#333" stroke-linecap="round" stroke-linejoin="round" stroke-width="1.41"/>
        <path d="M39,30.58l-4-2.1a2.56,2.56,0,0,0-2.35,0l-4.06,2.1A4.84,4.84,0,0,0,26,33.74a4.92,4.92,0,0,0,1,1.95c7.37,8.74,12.64.91,13.4,0a4.79,4.79,0,0,0,1-2A4.84,4.84,0,0,0,39,30.58Z" fill="#fff"/>
        <path d="M39,30.58l-4-2.1a2.45,2.45,0,0,0-1.06-.27h0v7.16c0,1.84,2,1.44.78,3.68-1.84,3.45-6.35-2.59-6.35.37,0,.1,2.65,1.88,2.64,2,5.29,2.75,8.9-2.57,9.52-3.3a4.88,4.88,0,0,0-.55-6.89A4.79,4.79,0,0,0,39,30.58Z" fill="#eee"/>
        <path d="M26.06,33.65a16.92,16.92,0,0,0,7.81,2,15.5,15.5,0,0,0,7.57-2" fill="none" stroke="#ddd" stroke-miterlimit="10" stroke-width="0.9"/>
        <path d="M26.06,35.65a16.92,16.92,0,0,0,7.81,2,15.5,15.5,0,0,0,7.57-2" fill="none" stroke="#ddd" stroke-miterlimit="10" stroke-width="0.9"/>
        <path d="M39,30.58a4.89,4.89,0,0,1,2.09,6.59,4.79,4.79,0,0,1-.62.92c-.76.9-6,8.73-13.4,0a4.85,4.85,0,0,1,1.48-7.49l4.06-2.1a2.51,2.51,0,0,1,2.35,0Z" fill="none" stroke="#333" stroke-linejoin="round" stroke-width="1.41"/>
      </g>
    </g>
  </g>
</svg>
