<svg xmlns="http://www.w3.org/2000/svg" viewBox="0 0 64 64">
  <g id="surgeon-black-male-coronavirus">
    <g>
      <g id="bbe060ed-d710-4d78-b367-60c81e52ec61">
        <g id="b39366dd-8c06-4aaf-b3e0-69206cc13628">
          <g id="ec4c991e-3cf7-4f0a-9fe6-795edc092be3">
            <g id="b92aceb8-2839-43de-8860-3e46695449ae">
              <g id="a2142db2-dbf8-4caa-a914-926cc2b777db">
                <rect x="24.06" y="33.59" width="16" height="17" fill="#ad8064"/>
                <polygon points="24.03 36.58 24.03 39.58 35.03 46.58 40.05 42.59 40.03 36.58 24.03 36.58" fill="#976f57" opacity="0.2" style="isolation: isolate"/>
                <path d="M56.79,52.3c-.31-2.29-2-3.66-4.42-4.64L40,42.59a67.57,67.57,0,0,1-8,6s-6.41-4.57-8-6L11.72,47.7c-2.4,1-4.11,2.35-4.42,4.64l-.27,2a62.31,62.31,0,0,0,50,0h0Z" fill="#419356"/>
                <path d="M24,42.59,11.72,47.7c-2.4,1-4.11,2.35-4.42,4.64l-.27,2,.49.2c.6-1.74,2.14-2.86,4.2-3.72l14.77-6.16Z" fill="#489e61"/>
                <path d="M56.79,52.3c-.31-2.29-2-3.66-4.42-4.64L40,42.59l-2.5,2.2,14.84,6c2.08.84,3.62,2,4.21,3.74l.45-.18Z" fill="#489e61"/>
                <path d="M56.79,52.3c-.31-2.29-2-3.66-4.42-4.64L40,42.59a67.57,67.57,0,0,1-8,6s-6.41-4.57-8-6L11.72,47.7c-2.4,1-4.11,2.35-4.42,4.64l-.27,2a62.31,62.31,0,0,0,50,0h0Z" fill="none" stroke="#333" stroke-linecap="round" stroke-linejoin="round" stroke-width="1.5"/>
                <line x1="32.03" y1="54.58" x2="32.03" y2="48.58" fill="none" stroke="#333" stroke-linecap="round" stroke-linejoin="round" stroke-width="1.5"/>
                <path d="M16,54.59H14v-2l5-5v-3a8,8,0,0,1,8-8H37a8,8,0,0,1,8,8v8" fill="none" stroke="#333" stroke-linejoin="round" stroke-width="1.5"/>
                <polyline points="22.03 54.59 24.03 54.59 24.03 52.59 19.03 47.59" fill="none" stroke="#333" stroke-linejoin="round" stroke-width="1.5"/>
                <circle cx="45.03" cy="52.09" r="2.5" fill="#ccc" stroke="#333" stroke-linejoin="round" stroke-width="1.5"/>
                <circle cx="16.03" cy="54.59" r="1.25" fill="#333"/>
                <circle cx="22.03" cy="54.59" r="1.25" fill="#333"/>
                <path d="M32,41.59a8.17,8.17,0,0,1-3.39-.52C25.34,39.31,22,35.44,22,33.13v-2a4.7,4.7,0,0,1-2.77-3.65c-.46-2.18-.24-4,1.79-4V20.56c0-5,3.06-10,11-10s11,5.14,11,10.14v2.92c2,0,2.24,1.71,1.77,3.89A4.72,4.72,0,0,1,42,31.13v2c0,2.32-3.27,6.19-6.61,7.94A8.17,8.17,0,0,1,32,41.59Z" fill="#ad8064"/>
                <path d="M43.34,23.32a2.38,2.38,0,0,0-.75.15h0V20.22c0-3.54-.7-6.69-3.3-8.56l-.19-.13a10.27,10.27,0,0,0-1.39-.74c-.21-.09-.42-.17-.64-.24a15.54,15.54,0,0,0-4.88-.7H30.71a10,10,0,0,0-1.34.15h0v8.8A3.86,3.86,0,0,1,27,22.6h0a4.51,4.51,0,0,1,.52,0,4,4,0,0,1,3.1,1.79.45.45,0,0,0,.51.19l.45-.12a.53.53,0,0,1,.61.41h0a.38.38,0,0,1,0,.1v2.52l1,2.08v.52l-1,.52c-.76,0-1-.39-2-.5a.54.54,0,0,0-.6.46h0V31a2.17,2.17,0,0,1,1,.27,3.25,3.25,0,0,0,1.55.4h0v5.12s3.81-.32,2.6,3.1c-.54,1.51-5.52-.71-5.52,1.54v.21a4.1,4.1,0,0,0,1.29.21h3.24A4.12,4.12,0,0,0,37,40.33l3.59-4.54a4.11,4.11,0,0,0,.89-2.57V31.79h0V31.5h0a3.46,3.46,0,0,0,3.12-2.84C45.34,24.14,44.18,23.35,43.34,23.32Z" fill="#a3765d"/>
                <path d="M43.67,23.31V22.12H43v-.07H37a6.34,6.34,0,0,1-8.85,1.44h0a5.9,5.9,0,0,1-1.06-1h0c-.12-.14-.23-.27-.34-.42H20.44v1.22h6.29a6.34,6.34,0,0,0,8.86,1.44A6.15,6.15,0,0,0,37,23.29h6.62Z" fill="#9b6f59"/>
                <path d="M24,24.49a4.55,4.55,0,0,1,1.46-.85,5.27,5.27,0,0,1,1.72-.25,5.35,5.35,0,0,1,1.62.4c.5.2,1,.43,1.42.64l-.12.56a12,12,0,0,1-1.58-.2c-.5-.08-1-.11-1.44-.16a5.31,5.31,0,0,0-1.38,0,7.34,7.34,0,0,0-1.4.34Z" fill="#333"/>
                <circle cx="27.47" cy="26.7" r="0.6" fill="#333"/>
                <path d="M39.55,25a7.34,7.34,0,0,0-1.4-.34,5.31,5.31,0,0,0-1.38,0c-.46.06-.94.08-1.44.16a12,12,0,0,1-1.58.2l-.12-.56c.46-.21.92-.45,1.42-.64a5.54,5.54,0,0,1,1.61-.42,5,5,0,0,1,1.72.25,4.55,4.55,0,0,1,1.46.85Z" fill="#333"/>
                <circle cx="36.43" cy="26.7" r="0.6" fill="#333"/>
                <line x1="24.06" y1="37.56" x2="24.06" y2="42.59" fill="none" stroke="#333" stroke-linecap="round" stroke-linejoin="round" stroke-width="1.5"/>
                <line x1="40.06" y1="37.59" x2="40.06" y2="42.59" fill="none" stroke="#333" stroke-linecap="round" stroke-linejoin="round" stroke-width="1.5"/>
                <path d="M32,41.59a8.17,8.17,0,0,1-3.39-.52C25.34,39.31,22,35.44,22,33.13v-2a4.7,4.7,0,0,1-2.77-3.65c-.46-2.18-.24-4,1.79-4V20.56c0-5,3.06-10,11-10s11,5.14,11,10.14v2.92c2,0,2.24,1.71,1.77,3.89A4.72,4.72,0,0,1,42,31.13v2c0,2.32-3.27,6.19-6.61,7.94A8.17,8.17,0,0,1,32,41.59Z" fill="none" stroke="#333" stroke-linecap="round" stroke-linejoin="round" stroke-width="1.5"/>
                <path d="M21.12,10.79c0,1.11-.52,9.9-.52,9.9H43.35s-.52-8.79-.52-9.9c0-.55-4.57-3-10.74-3S21.12,10.23,21.12,10.79Z" fill="#419356"/>
                <path d="M21.38,20.9h7.08a9.4,9.4,0,0,0,5.86-8.71,9.27,9.27,0,0,0-1.08-4.4H32.05c-6.27,0-11.15,2.48-11.15,3.05,0,1-.39,7.77-.5,9.6A5.15,5.15,0,0,0,21.38,20.9Z" fill="#489e61"/>
                <path d="M21.12,10.79c0,1.11-.52,9.9-.52,9.9H43.35s-.52-8.79-.52-9.9c0-.55-4.57-3-10.74-3S21.12,10.23,21.12,10.79Z" fill="none" stroke="#333" stroke-linecap="round" stroke-linejoin="round" stroke-width="1.5"/>
                <rect x="20.43" y="16.53" width="8.98" height="5.05" fill="#eee" stroke="#333" stroke-linejoin="round" stroke-width="1.5"/>
                <rect x="34.66" y="16.53" width="8.99" height="5.05" fill="#e2e2e2" stroke="#333" stroke-linejoin="round" stroke-width="1.5"/>
                <circle cx="31.93" cy="18.84" r="5.38" fill="#eee"/>
                <path d="M26.61,19.42a5.3,5.3,0,0,0,1.18,2.82l7.54-7.54a5.3,5.3,0,0,0-2.82-1.18Z" fill="#e8e8e8"/>
                <path d="M30.55,24l6.56-6.56a5.69,5.69,0,0,0-.7-1.6L29,23.31A4.85,4.85,0,0,0,30.55,24Z" fill="#e8e8e8"/>
                <circle cx="31.93" cy="18.84" r="5.38" fill="none" stroke="#333" stroke-linejoin="round" stroke-width="1.5"/>
                <circle cx="31.99" cy="18.87" r="1.59" fill="#fff"/>
              </g>
            </g>
          </g>
        </g>
      </g>
      <g id="f48a96cc-d9de-4390-819b-ccec58c3517a">
        <path d="M37.63,29.1A5.44,5.44,0,0,1,40,36.44a5.52,5.52,0,0,1-.69,1c-.86,1-6.73,9.73-15,0A5.44,5.44,0,0,1,25,29.78a5.76,5.76,0,0,1,1-.68l4.53-2.34a2.82,2.82,0,0,1,2.62,0Z" fill="#fff"/>
        <path d="M23.87,31.06a23,23,0,0,1-3.75-9.3" fill="#fff" stroke="#333" stroke-linecap="round" stroke-linejoin="round" stroke-width="1.5"/>
        <path d="M40,31.06a23,23,0,0,0,3.75-9.3" fill="#fff" stroke="#333" stroke-linecap="round" stroke-linejoin="round" stroke-width="1.5"/>
        <line x1="23.03" y1="33.82" x2="21.39" y2="32.92" fill="none" stroke="#333" stroke-linecap="round" stroke-linejoin="round" stroke-width="1.5"/>
        <line x1="40.83" y1="33.82" x2="42.47" y2="32.92" fill="none" stroke="#333" stroke-linecap="round" stroke-linejoin="round" stroke-width="1.5"/>
        <path d="M37.63,29.1l-4.51-2.34a2.82,2.82,0,0,0-2.62,0L26,29.1a5.42,5.42,0,0,0-2.77,3.53,5.42,5.42,0,0,0,1.12,2.17c8.22,9.75,14.1,1,15,0a5.33,5.33,0,0,0,1.13-2.19A5.4,5.4,0,0,0,37.63,29.1Z" fill="#fff"/>
        <path d="M37.63,29.1l-4.51-2.34a2.72,2.72,0,0,0-1.18-.3h0v8c0,2.06,2.2,1.61.86,4.11-2.05,3.84-7.08-2.89-7.08.41,0,.12,3,2.1,2.95,2.2,5.9,3.08,9.92-2.86,10.62-3.67a5.45,5.45,0,0,0-.61-7.68A4.8,4.8,0,0,0,37.63,29.1Z" fill="#eee"/>
        <path d="M23.23,32.53a19.08,19.08,0,0,0,8.71,2.27,17.28,17.28,0,0,0,8.45-2.27" fill="none" stroke="#ddd" stroke-miterlimit="10"/>
        <path d="M23.23,34.75A19,19,0,0,0,31.94,37a17.29,17.29,0,0,0,8.45-2.28" fill="none" stroke="#ddd" stroke-miterlimit="10"/>
        <path d="M37.63,29.1A5.44,5.44,0,0,1,40,36.44a5.52,5.52,0,0,1-.69,1c-.86,1-6.73,9.73-15,0A5.44,5.44,0,0,1,25,29.78a5.76,5.76,0,0,1,1-.68l4.53-2.34a2.82,2.82,0,0,1,2.62,0Z" fill="none" stroke="#333" stroke-linejoin="round" stroke-width="1.5"/>
      </g>
    </g>
  </g>
</svg>
