<svg xmlns="http://www.w3.org/2000/svg" viewBox="0 0 64 64">
  <g id="nurse-black-male-coronavirus">
    <g>
      <g id="e798aace-006d-486c-b93b-f0780868219a">
        <g id="b2a6b707-bb46-4fbc-94f1-8732f444bd4e">
          <g id="ab341180-d395-4096-9288-6ebc66c6e9f4">
            <g id="b05c9459-7824-4ca7-9b2b-724ef3a33a5e">
              <rect x="24.56" y="30.82" width="15" height="17" fill="#ad8064"/>
              <path d="M24.56,34.1v2.46l9.52,8a57,57,0,0,1,5.41-4.51V34.24Z" fill="#976f57" opacity="0.2" style="isolation: isolate"/>
              <line x1="24.56" y1="34.79" x2="24.56" y2="39.82" fill="none" stroke="#333" stroke-linecap="round" stroke-linejoin="round" stroke-width="1.5"/>
              <line x1="39.56" y1="34.82" x2="39.56" y2="39.82" fill="none" stroke="#333" stroke-linecap="round" stroke-linejoin="round" stroke-width="1.5"/>
              <path d="M56.79,49.53c-.31-2.29-2-3.66-4.42-4.64L40,39.82a67.62,67.62,0,0,1-8.13,5.83S25.62,41.24,24,39.82L11.72,44.93c-2.4,1-4.11,2.35-4.42,4.64l-.27,2a62.31,62.31,0,0,0,50,0h0Z" fill="#d362a4"/>
              <path d="M24,39.82,11.72,44.93c-2.4,1-4.11,2.35-4.42,4.64l-.27,2,.58.24c.65-1.62,2.14-2.68,4.11-3.5L26.24,42Z" fill="#d887bd"/>
              <path d="M40,39.82l12.31,5.11c2.4,1,4.11,2.35,4.42,4.64l.27,2-.58.24c-.65-1.62-2.14-2.68-4.11-3.5L37.78,42Z" fill="#d887bd"/>
              <path d="M56.79,49.53c-.31-2.29-2-3.66-4.42-4.64L40,39.82a67.62,67.62,0,0,1-8.13,5.83S25.62,41.24,24,39.82L11.72,44.93c-2.4,1-4.11,2.35-4.42,4.64l-.27,2a62.31,62.31,0,0,0,50,0h0Z" fill="none" stroke="#333" stroke-linecap="round" stroke-linejoin="round" stroke-width="1.5"/>
              <path d="M16,51.74H14v-2l5-5v-3a8,8,0,0,1,8-8H37a8,8,0,0,1,8,8v8" fill="none" stroke="#333" stroke-linejoin="round" stroke-width="1.5"/>
              <polyline points="22.05 51.78 24.05 51.78 24.05 49.78 19.05 44.78" fill="none" stroke="#333" stroke-linejoin="round" stroke-width="1.5"/>
              <circle cx="45.05" cy="49.28" r="2.5" fill="#ccc" stroke="#333" stroke-linecap="round" stroke-linejoin="round" stroke-width="1.5"/>
              <path d="M32,39.82c-6.35,0-10-6.75-10-8.46v-2a4.68,4.68,0,0,1-2.75-3.62c-.46-2.18-.24-4,1.79-4V18.79c0-5,3.06-10,11-10s11,5.14,11,10.14v2.92c2,0,2.24,1.71,1.77,3.89A4.72,4.72,0,0,1,42,29.36v2C42,33.06,38.43,39.82,32,39.82Z" fill="#ad8064"/>
              <path d="M43,21.85V18.93c0-5-3.06-10.14-11-10.14a15.92,15.92,0,0,0-3.08.3V19.92c0,2-2,1.93-2,2.93a8.14,8.14,0,0,0,4.5.5.45.45,0,0,1,.46.44V26.5c0,.46.26.64.63.91a1,1,0,0,1,.23,1.4,1,1,0,0,1-.74.41c-.74,0-1-.25-2-.25-.41,0-.69.05-.85.28a.22.22,0,0,0,0,.22.2.2,0,0,0,.18.12c1.65.1,1.4.71,2.65.72v5a.54.54,0,0,0,.54.51A1.48,1.48,0,0,1,34,37.3h0c0,.83-.67,1-1.5,1H31c-1,0-1.77.25-2,1.14a9.79,9.79,0,0,0,3,.37,9.32,9.32,0,0,0,3.39-.52C38.76,37.55,42,33.68,42,31.36v-2a4.72,4.72,0,0,0,2.81-3.62C45.31,23.56,45,21.85,43,21.85Z" fill="#a57a62"/>
              <line x1="31.99" y1="30.59" x2="31.99" y2="31.08" fill="none" stroke="#9e735e" stroke-linecap="round" stroke-miterlimit="10"/>
              <path d="M20.79,21.74c-1.75.17-2,1.9-1.51,4A4.68,4.68,0,0,0,22,29.36v2c0,.92,1,3.27,3,5.27V33.36a4.76,4.76,0,0,0-1.62-4c-.92-.72-1.38-2.51-1.38-4V23.25a2.23,2.23,0,0,0-1-1.51Q21,21.86,20.79,21.74Z" fill="#a57a62"/>
              <path d="M42.19,23.25v2.11c0,1.49-.46,3.28-1.38,4a4.76,4.76,0,0,0-1.62,4v3.12C41,34.51,42,32.25,42,31.36v-2a4.72,4.72,0,0,0,2.81-3.62c.47-2.18.23-3.89-1.77-3.89A1.91,1.91,0,0,0,42.19,23.25Z" fill="#9e735e"/>
              <path d="M32,7.74c-7.71,0-11,4.4-11,10.75v2.87c1,0,1.5,2,1.5,3.38V22.81a4.56,4.56,0,0,1,.81-3.07,1,1,0,0,0,.19-.6V18c0-1.5.79-3.57,2.72-3.57,1.62,0,3.05,1,5.78,1s4.13-.68,5.75-.68c1.93,0,2.75,1.75,2.75,3.25V19.1a1,1,0,0,0,.19.6,5.37,5.37,0,0,1,.81,3.36v1.68c.13-1.1.67-3.13,1.5-3V19C43,12.14,39.74,7.74,32,7.74Z" fill="#333"/>
              <path d="M21,18.49v2.82l0,.06c.74.05,1.2,1.18,1.37,2.34V20c0-7.36,3.34-10.88,12.65-11.13A10.93,10.93,0,0,1,37.78,9c-.2-.1-1.52-1.3-5.75-1.3C24.32,7.74,21,12.14,21,18.49Z" fill="#444"/>
              <path d="M21.46,21.13a4.22,4.22,0,0,1,1.18,1.68,4,4,0,0,1,.12,1.93.24.24,0,0,1-.48,0,3.56,3.56,0,0,0-.53-1.5,3.17,3.17,0,0,0-1.16-.89A.76.76,0,0,1,21.26,21h0a.71.71,0,0,1,.18.12Z" fill="#333"/>
              <path d="M43.46,22.35a3.17,3.17,0,0,0-1.16.89,3.26,3.26,0,0,0-.53,1.5.24.24,0,0,1-.48,0,4.21,4.21,0,0,1,.12-1.93,4.22,4.22,0,0,1,1.18-1.68h0a.77.77,0,0,1,1,.23.75.75,0,0,1,0,.89A.41.41,0,0,1,43.46,22.35Z" fill="#333"/>
              <circle cx="16.05" cy="51.78" r="1.25" fill="#333"/>
              <circle cx="22.05" cy="51.78" r="1.25" fill="#333"/>
              <path d="M22.19,24.74l-.07-2.11a6.77,6.77,0,0,1,.28-2.23,3,3,0,0,1,.24-.56,4.53,4.53,0,0,1,.3-.46.5.5,0,0,0,.09-.24v-.5a6.69,6.69,0,0,1,.2-2.27,3.8,3.8,0,0,1,1.36-2.06,3.1,3.1,0,0,1,1.24-.52,5.23,5.23,0,0,1,1.25,0c.71.13,1.42.29,2.12.49a12.83,12.83,0,0,0,1.95.34,15.34,15.34,0,0,0,4-.26c.71-.14,1.43-.24,2.16-.31a3.56,3.56,0,0,1,2.45.62A3.68,3.68,0,0,1,41,16.81,4.76,4.76,0,0,1,41.15,18v1.06a.42.42,0,0,0,0,.27s.18.3.25.44a7.41,7.41,0,0,1,.42,1.07A5.58,5.58,0,0,1,42,23.1h0l-.12,1.64a.35.35,0,0,1-.69,0l-.07-1.68h0a5.12,5.12,0,0,0-.27-1.9,4.87,4.87,0,0,0-.4-.87c-.09-.17-.12-.18-.29-.46A1.53,1.53,0,0,1,40,19V18a3.84,3.84,0,0,0-.14-.89,2.47,2.47,0,0,0-1-1.36c-.81-.59-2.17-.19-3.56.09a15,15,0,0,1-4.39.29,32.83,32.83,0,0,1-4.14-1,2,2,0,0,0-1.54.22,2.75,2.75,0,0,0-.95,1.4,5.35,5.35,0,0,0-.29,1.9v.55a1.63,1.63,0,0,1-.25.75,3.69,3.69,0,0,0-.29.4,2.14,2.14,0,0,0-.2.4,13.55,13.55,0,0,0-.45,4h0a.34.34,0,0,1-.39.28.32.32,0,0,1-.28-.28Z" fill="#333"/>
              <path d="M22.19,24.74l-.07-2.11a6.77,6.77,0,0,1,.28-2.23,3,3,0,0,1,.24-.56,4.53,4.53,0,0,1,.3-.46.5.5,0,0,0,.09-.24v-.5a6.69,6.69,0,0,1,.2-2.27,3.8,3.8,0,0,1,1.36-2.06,3.1,3.1,0,0,1,1.24-.52,5.23,5.23,0,0,1,1.25,0c.71.13,1.42.29,2.12.49a12.83,12.83,0,0,0,1.95.34,15.34,15.34,0,0,0,4-.26c.71-.14,1.43-.24,2.16-.31a3.56,3.56,0,0,1,2.45.62A3.68,3.68,0,0,1,41,16.81,4.76,4.76,0,0,1,41.15,18v1.06a.42.42,0,0,0,0,.27s.18.3.25.44a7.41,7.41,0,0,1,.42,1.07A5.58,5.58,0,0,1,42,23.1h0l-.12,1.64a.35.35,0,0,1-.69,0l-.07-1.68h0a5.12,5.12,0,0,0-.27-1.9,4.87,4.87,0,0,0-.4-.87c-.09-.17-.12-.18-.29-.46A1.53,1.53,0,0,1,40,19V18a3.84,3.84,0,0,0-.14-.89,2.47,2.47,0,0,0-1-1.36c-.81-.59-2.17-.19-3.56.09a15,15,0,0,1-4.39.29,32.83,32.83,0,0,1-4.14-1,2,2,0,0,0-1.54.22,2.75,2.75,0,0,0-.95,1.4,5.35,5.35,0,0,0-.29,1.9v.55a1.63,1.63,0,0,1-.25.75,3.69,3.69,0,0,0-.29.4,2.14,2.14,0,0,0-.2.4,13.55,13.55,0,0,0-.45,4h0a.34.34,0,0,1-.39.28.32.32,0,0,1-.28-.28Z" fill="#333"/>
              <path d="M29.63,29.63a2.83,2.83,0,0,1,1.25.32h0a2.58,2.58,0,0,0,2.5,0h0a2.83,2.83,0,0,1,1.25-.32" fill="none" stroke="#674848" stroke-linecap="round" stroke-miterlimit="10" stroke-width="0.75"/>
              <path d="M33,31.91c-.21,0-.24-.07-1,.34-.77-.4-.81-.34-1-.34-.94,0-1.77,1.32-3,1.32.72,0,1.73,1.88,2.87,1.91h2.24c1.15,0,2.18-1.91,2.83-1.91C35,33.23,34,31.91,33,31.91Z" fill="#916953"/>
              <path d="M36,33.45a4.29,4.29,0,0,1-1,.18H34a7.3,7.3,0,0,0-1.86.24H32A9.79,9.79,0,0,0,30,33.64H29a4.29,4.29,0,0,1-1-.18.22.22,0,0,1-.16-.25h0v0A.24.24,0,0,1,28.1,33,8.35,8.35,0,0,0,30,32.86a6,6,0,0,1,2.11.07h-.2a7,7,0,0,1,2.1-.07A8.22,8.22,0,0,0,36,33a.22.22,0,0,1,.23.19h0a.19.19,0,0,1-.16.22Z" fill="#674848"/>
              <path d="M24.22,22.88a5.89,5.89,0,0,1,3.1-.78,18,18,0,0,1,3,.62h0a.24.24,0,0,1,.18.27.21.21,0,0,1-.2.18,10.42,10.42,0,0,1-1.58,0,12.21,12.21,0,0,1-1.48-.06,9,9,0,0,0-2.88.19h0a.23.23,0,0,1-.28-.17A.25.25,0,0,1,24.22,22.88Z" fill="#333"/>
              <path d="M39.58,23.3a9,9,0,0,0-2.88-.19,12.21,12.21,0,0,0-1.48.06,10.42,10.42,0,0,1-1.58,0,.22.22,0,0,1-.2-.25h0a.22.22,0,0,1,.18-.2h0a16.15,16.15,0,0,1,3-.62,5.91,5.91,0,0,1,3.1.78.24.24,0,0,1,.08.32.26.26,0,0,1-.26.1Z" fill="#333"/>
              <circle cx="27.61" cy="25.52" r="0.71" fill="#333"/>
              <circle cx="36.45" cy="25.52" r="0.71" fill="#333"/>
              <path d="M35.42,39.3a8.17,8.17,0,0,1-3.39.52,8.17,8.17,0,0,1-3.39-.52C25.34,37.54,22,33.67,22,31.36v-2a4.68,4.68,0,0,1-2.75-3.62c-.46-2.18-.24-4,1.79-4V17.79c0-5,3.06-10,11-10s11,5.14,11,10.14v3.92c2,0,2.24,1.71,1.77,3.89A4.72,4.72,0,0,1,42,29.36v2C42,33.68,38.76,37.55,35.42,39.3Z" fill="none" stroke="#333" stroke-linecap="round" stroke-linejoin="round" stroke-width="1.5"/>
            </g>
          </g>
        </g>
      </g>
      <g id="fbbb5e39-b1f0-4d68-94f1-0918b6b49eb9">
        <path d="M37.73,29.11a5.46,5.46,0,0,1,1.64,8.38c-.86,1-6.73,9.73-14.95,0a5.44,5.44,0,0,1,.64-7.68,4.84,4.84,0,0,1,1-.68l4.53-2.35a2.88,2.88,0,0,1,2.62,0Z" fill="#fff"/>
        <path d="M24,31.07a22.92,22.92,0,0,1-3.75-9.3" fill="#fff" stroke="#333" stroke-linecap="round" stroke-linejoin="round" stroke-width="1.5"/>
        <path d="M40.09,31.07a22.92,22.92,0,0,0,3.75-9.3" fill="#fff" stroke="#333" stroke-linecap="round" stroke-linejoin="round" stroke-width="1.5"/>
        <line x1="23.13" y1="33.83" x2="21.49" y2="32.93" fill="none" stroke="#333" stroke-linecap="round" stroke-linejoin="round" stroke-width="1.5"/>
        <line x1="40.93" y1="33.83" x2="42.57" y2="32.93" fill="none" stroke="#333" stroke-linecap="round" stroke-linejoin="round" stroke-width="1.5"/>
        <path d="M37.73,29.11l-4.51-2.34a2.88,2.88,0,0,0-2.62,0l-4.53,2.35a5.4,5.4,0,0,0-2.77,3.52,5.59,5.59,0,0,0,1.12,2.18c8.22,9.74,14.1,1,14.95,0a5.48,5.48,0,0,0,1.14-2.19A5.43,5.43,0,0,0,37.73,29.11Z" fill="#fff"/>
        <path d="M37.73,29.11l-4.51-2.34a3,3,0,0,0-1.18-.3h0v8c0,2.06,2.2,1.61.86,4.11-2.05,3.84-7.08-2.89-7.08.41,0,.12,3,2.09,2.95,2.2,5.9,3.08,9.92-2.86,10.62-3.67a5.44,5.44,0,0,0-1.64-8.38Z" fill="#eee"/>
        <path d="M23.33,32.54A19,19,0,0,0,32,34.82a17.22,17.22,0,0,0,8.44-2.28" fill="none" stroke="#ddd" stroke-miterlimit="10"/>
        <path d="M23.33,34.77A19.08,19.08,0,0,0,32,37a17.24,17.24,0,0,0,8.44-2.27" fill="none" stroke="#ddd" stroke-miterlimit="10"/>
        <path d="M37.73,29.11a5.46,5.46,0,0,1,1.64,8.38c-.86,1-6.73,9.73-14.95,0a5.44,5.44,0,0,1,.64-7.68,4.84,4.84,0,0,1,1-.68l4.53-2.35a2.88,2.88,0,0,1,2.62,0Z" fill="none" stroke="#333" stroke-linejoin="round" stroke-width="1.5"/>
      </g>
    </g>
  </g>
</svg>
