<svg xmlns="http://www.w3.org/2000/svg" viewBox="0 0 64 64">
  <g id="ems-black-male-coronavirus">
    <g id="a11746b1-61e7-47f7-8e97-2ad186000e56">
      <g id="b78fdb0e-2094-4d1d-80da-dc9ccfa2b31a">
        <g id="a34f8f5c-0c74-4b26-82d7-44ab43c9e6a2">
          <g id="ab365c78-5442-4ee8-a221-4552a2b61236">
            <path d="M59,50.05a6.82,6.82,0,0,0-5.25-5c-6.41-1.51-12.16-2.8-14.6-3.34V38.8h-15v3c-2.78.59-8.4,1.81-14.4,3.23a6.85,6.85,0,0,0-5.25,5L4,52.58a70.13,70.13,0,0,0,27.75,5.87,70.31,70.31,0,0,0,27.75-5.87Z" fill="#957058"/>
            <line x1="24.18" y1="38.8" x2="24.18" y2="43.89" fill="none" stroke="#333" stroke-linejoin="round" stroke-width="1.5"/>
            <line x1="39.18" y1="38.8" x2="39.18" y2="43.89" fill="none" stroke="#333" stroke-linejoin="round" stroke-width="1.5"/>
            <path d="M37,46.2a12.25,12.25,0,0,1-5,.94,11.63,11.63,0,0,1-5.45-1.09l5.21,6.18Z" fill="#b2b2b2" stroke="#333" stroke-miterlimit="10" stroke-width="1.5"/>
            <path d="M59,50.05a6.82,6.82,0,0,0-5.25-5c-8.49-2-11.5-2.75-11.5-2.75H39.22c-1.07,2.55-3.16,4.82-7.44,9.86-4.24-4.89-6.35-7.27-7.44-9.86H21.28s-3,.75-11.5,2.75a6.82,6.82,0,0,0-5.25,5L4,52.58a70.13,70.13,0,0,0,27.75,5.87,70.31,70.31,0,0,0,27.75-5.87Z" fill="#5d7693"/>
            <path d="M53.78,48.05c-8.49-2-11.5-2.75-11.5-2.75H37.46c-1.25,1.71-3,3.76-5.68,6.86-2.64-3-4.45-5.11-5.7-6.86h-4.8s-3,.75-11.5,2.75a6.9,6.9,0,0,0-5.19,4.76,71,71,0,0,0,27.19,5.64A71,71,0,0,0,59,52.84,6.89,6.89,0,0,0,53.78,48.05Z" fill="#475b77"/>
            <path d="M39.53,41,35,48.32,31.8,52.2l.74.27,4.22-2.7,3.86,2.11a.82.82,0,0,0,1.09-.39.85.85,0,0,0,.08-.35V43.69Z" fill="#3a4a5e"/>
            <path d="M24.29,42.21l-1.51,1.48v8a.52.52,0,0,0,.52.52.62.62,0,0,0,.29-.09l5.19-3.46Z" fill="#3a4a5e"/>
            <path d="M42.28,42.33s3,.75,11.5,2.75a6.85,6.85,0,0,1,5.25,5l.5,2.5a70.13,70.13,0,0,1-27.75,5.9A70.13,70.13,0,0,1,4,52.58l.5-2.53a6.82,6.82,0,0,1,5.25-5c8.49-2,11.5-2.75,11.5-2.75" fill="none" stroke="#333" stroke-linejoin="round" stroke-width="1.5"/>
            <line x1="31.78" y1="52.21" x2="31.78" y2="58.46" fill="none" stroke="#333" stroke-linejoin="round" stroke-width="1.5"/>
            <path d="M21.28,42.2V51L28,47.7c-2.4-2.65-3.81-4.65-4.5-8.25Z" fill="#475b77"/>
            <path d="M40,39.71a16.47,16.47,0,0,1-4.51,8L42.27,51V42.19Z" fill="#475b77"/>
            <polyline points="23.53 39.45 21.28 42.2 21.28 50.95 28.03 47.7" fill="none" stroke="#333" stroke-linejoin="round" stroke-width="1.5"/>
            <polyline points="35.53 47.7 42.28 50.95 42.28 42.2 40.04 39.71" fill="none" stroke="#333" stroke-linejoin="round" stroke-width="1.5"/>
            <path d="M23.53,39.45c.69,4.12,2.54,6.16,8.25,12.74,5.7-6.72,7.52-8.52,8.21-12.62" fill="none" stroke="#333" stroke-linecap="round" stroke-linejoin="round" stroke-width="1.5"/>
            <circle cx="34.53" cy="54.2" r="0.75" fill="#333"/>
            <path d="M9.39,43.05l7-1.56a.49.49,0,0,1,.6.37h0l.7,3a.5.5,0,0,1-.38.59h0l-7,1.56a.51.51,0,0,1-.6-.38h0l-.7-3a.5.5,0,0,1,.38-.6Z" fill="#5d7693"/>
            <path d="M9.33,45.05l.35,1.53a.6.6,0,0,0,.71.46h0l6.79-1.51a.61.61,0,0,0,.46-.72h0l-.35-1.53Z" fill="#475b77"/>
            <path d="M9.39,43.05l7-1.56a.49.49,0,0,1,.6.37h0l.7,3a.5.5,0,0,1-.38.59h0l-7,1.56a.51.51,0,0,1-.6-.38h0l-.7-3a.5.5,0,0,1,.38-.6Z" fill="none" stroke="#333" stroke-linejoin="round" stroke-width="1.5"/>
            <line x1="9.8" y1="47" x2="9" y2="43.5" fill="none" stroke="#333" stroke-linejoin="round" stroke-width="1.5"/>
            <path d="M54.17,43.05l-7-1.56a.49.49,0,0,0-.6.37h0l-.7,3a.49.49,0,0,0,.37.59h0l7,1.56a.5.5,0,0,0,.59-.38h0l.7-3a.5.5,0,0,0-.38-.6Z" fill="#5d7693"/>
            <path d="M54.23,45.05l-.35,1.53a.6.6,0,0,1-.71.46h0l-6.79-1.51a.61.61,0,0,1-.46-.72h0l.35-1.53Z" fill="#475b77"/>
            <path d="M54.17,43.05l-7-1.56a.49.49,0,0,0-.6.37h0l-.7,3a.49.49,0,0,0,.37.59h0l7,1.56a.5.5,0,0,0,.59-.38h0l.7-3a.5.5,0,0,0-.38-.6Z" fill="none" stroke="#333" stroke-linejoin="round" stroke-width="1.5"/>
            <line x1="53.76" y1="47" x2="54.56" y2="43.5" fill="none" stroke="#333" stroke-linejoin="round" stroke-width="1.5"/>
            <circle cx="47.03" cy="51.34" r="3.5" fill="#fff"/>
            <circle cx="47.03" cy="51.34" r="3.5" fill="none" stroke="#333" stroke-linejoin="round"/>
            <line x1="47.03" y1="49.01" x2="47.02" y2="53.67" fill="none" stroke="#4064a3" stroke-linejoin="round" stroke-width="1.5"/>
            <line x1="45.01" y1="50.17" x2="49.05" y2="52.52" fill="none" stroke="#4064a3" stroke-linejoin="round" stroke-width="1.5"/>
            <line x1="45.01" y1="52.51" x2="49.06" y2="50.19" fill="none" stroke="#4064a3" stroke-linejoin="round" stroke-width="1.5"/>
            <path d="M42.66,24.28V22.05c0-6-2.09-12.08-11-12.08s-11,6.13-11,12.08v2.2c-.09,0-3.29,0-2.2,5.49a4.29,4.29,0,0,0,3.33,3.31c0,3.9,1.1,4.39,4.81,8.21,1.43,1.79,3.17,1.68,5.07,1.68s3.65.15,5.07-1.67c3.71-3.82,4.81-4.31,4.81-8.21a4.28,4.28,0,0,0,3.29-3.29C46,24.28,42.75,24.24,42.66,24.28Z" fill="#a68064"/>
            <path d="M23.32,32a3.68,3.68,0,0,1-1.52-3.29V26a2.44,2.44,0,0,0-1.46-1.65c-.83.17-2.72,1-1.83,5.45a4.29,4.29,0,0,0,3.29,3.27c0,3.3.8,4.17,3.29,6.68V36.37A5.23,5.23,0,0,0,23.32,32Z" fill="#9b775c"/>
            <path d="M44.86,29.77c1.1-5.49-2.11-5.52-2.2-5.49V22.05c0-6-2.09-12.08-11-12.08a15,15,0,0,0-2.92.26v12a3.91,3.91,0,0,1-1.27,2.88.44.44,0,0,0,0,.63.49.49,0,0,0,.23.14c1.5.43,2.3.71,3.23.47.31-.08.86.27.86.59v1.57a1.7,1.7,0,0,0,.64,1.4,1.09,1.09,0,0,1,.27,1.53,1.13,1.13,0,0,1-.91.47c-.81,0-1.1-.55-2.2-.55-.65,0-.55.85-.57.82a2.26,2.26,0,0,1,1.1.29,3.38,3.38,0,0,0,1.65.43v3.31A1.93,1.93,0,0,0,33,38.05,1.54,1.54,0,0,1,34,39.68c0,3-5.43-.3-5.43,3h0A10.19,10.19,0,0,0,31.7,43c1.9,0,3.65.15,5.07-1.67,3.71-3.82,4.81-4.31,4.81-8.21A4.31,4.31,0,0,0,44.86,29.77Z" fill="#9b775c"/>
            <path d="M42.69,24.27a2.18,2.18,0,0,0-1.12,1.87v2.53A3.66,3.66,0,0,1,40,32a5.22,5.22,0,0,0-1.78,4.39v3.38c2.5-2.51,3.29-3.38,3.29-6.68a4.27,4.27,0,0,0,3.29-3.29C45.92,24.45,43,24.25,42.69,24.27Z" fill="#957058"/>
            <path d="M42.66,24.28V22.05c0-6-2.09-12.08-11-12.08s-11,6.13-11,12.08v2.2c-.09,0-3.29,0-2.2,5.49a4.29,4.29,0,0,0,3.33,3.31c0,3.9,1.1,4.39,4.81,8.21,1.43,1.79,3.17,1.68,5.07,1.68s3.65.15,5.07-1.67c3.71-3.82,4.81-4.31,4.81-8.21a4.28,4.28,0,0,0,3.29-3.29C46,24.28,42.75,24.24,42.66,24.28Z" fill="none" stroke="#333" stroke-linejoin="round" stroke-width="1.5"/>
            <line x1="31.66" y1="32.93" x2="31.66" y2="33.93" fill="none" stroke="#977059" stroke-linecap="round" stroke-miterlimit="10" stroke-width="0.75"/>
            <line x1="30.74" y1="37.74" x2="32.74" y2="37.74" fill="none" stroke="#977059" stroke-linecap="round" stroke-miterlimit="10" stroke-width="0.75"/>
            <line x1="31.54" y1="40.7" x2="31.79" y2="40.7" fill="none" stroke="#977059" stroke-linecap="round" stroke-miterlimit="10" stroke-width="0.75"/>
            <path d="M33,34.78a2.78,2.78,0,0,0-1.18.13.61.61,0,0,1-.42,0,2.78,2.78,0,0,0-1.18-.13c-.67.1-.74.52-2.09,1.25l1.19.73a2.29,2.29,0,0,0,1.27.41h2.07A2.31,2.31,0,0,0,34,36.76l1.23-.7C33.83,35.33,33.69,34.88,33,34.78Z" fill="#957058"/>
            <path d="M35.18,36.05c-1,0-1.26-.39-2.24-.39a6.16,6.16,0,0,0-1.29.17,6.25,6.25,0,0,0-1.29-.17c-.94,0-1.15.36-2.21.36" fill="none" stroke="#674848" stroke-linecap="round" stroke-miterlimit="10" stroke-width="0.75"/>
            <path d="M29,32.05a2.51,2.51,0,0,1,1.31.34h0a2.8,2.8,0,0,0,2.61,0h0a2.61,2.61,0,0,1,1.31-.34" fill="none" stroke="#674848" stroke-linecap="round" stroke-miterlimit="10" stroke-width="0.75"/>
            <path d="M24,25.38a5.78,5.78,0,0,1,1.45-.55,5.24,5.24,0,0,1,1.58-.09,9.4,9.4,0,0,1,2.82,1h0A.23.23,0,0,1,30,26h0v0a.26.26,0,0,1-.23.14,14.77,14.77,0,0,1-1.48-.26c-.47-.09-.93-.14-1.37-.21a7.07,7.07,0,0,0-2.75.06h0a.25.25,0,0,1-.27-.18A.23.23,0,0,1,24,25.38Z" fill="#333"/>
            <path d="M39,25.81a7.07,7.07,0,0,0-2.75-.06c-.45.07-.9.12-1.37.21a14.77,14.77,0,0,1-1.48.26.22.22,0,0,1-.24-.2v0a.23.23,0,0,1,.14-.23h0a9.4,9.4,0,0,1,2.82-1,6,6,0,0,1,1.58.09,5,5,0,0,1,1.45.55.23.23,0,0,1,.09.31.27.27,0,0,1-.26.12Z" fill="#333"/>
            <circle cx="27.14" cy="27.47" r="0.71" fill="#333"/>
            <circle cx="36.1" cy="27.47" r="0.71" fill="#333"/>
            <path d="M41.27,27.79c0-3,1.69-3.38,1.69-3.38.43-3,.89-4.88.17-7.43-1.26-4.37-5.28-7.19-11.45-7.19S21.85,12.61,20.6,17c-.7,2.46-.31,4.15.17,7.43,0,0,1.5.35,1.5,3.38,0-2.6-.09-3.9.81-5a1,1,0,0,0,.19-.6V19.94a2.1,2.1,0,0,1,1.39-2,22.14,22.14,0,0,1,7.11-1.36,22.14,22.14,0,0,1,7.11,1.36,2.1,2.1,0,0,1,1.39,2v2.21a1,1,0,0,0,.19.6C41.46,24.34,41.27,25.48,41.27,27.79Z" fill="#333"/>
            <path d="M37.78,11a14.7,14.7,0,0,0-6.1-1.17c-6.17,0-9.83,2.82-11.08,7.19-.7,2.46-.31,4.15.17,7.43,0,0,1.2.29,1.45,2.51v-5C22.22,10.05,33.78,10.28,37.78,11Z" fill="#444"/>
            <path d="M21.92,27.79c0-.75-.07-1.49-.07-2.26a5.68,5.68,0,0,1,.39-2.38,3.81,3.81,0,0,1,.31-.56l.09-.13V22.4a.28.28,0,0,0,0-.13.38.38,0,0,0,0-.15v-2a2.83,2.83,0,0,1,.21-1.35,2.74,2.74,0,0,1,.89-1.13,3.06,3.06,0,0,1,.64-.35l.54-.2a22.23,22.23,0,0,1,6.8-1.31,19.89,19.89,0,0,1,4.6.61c.75.19,1.49.42,2.21.68l.54.2a2.35,2.35,0,0,1,.64.35,2.76,2.76,0,0,1,.9,1.13,2.83,2.83,0,0,1,.21,1.35v2.12c0,.08.31.54.44.9a5.47,5.47,0,0,1,.45,2.37c0,.77-.07,1.51-.09,2.26a.34.34,0,0,1-.4.28.34.34,0,0,1-.29-.28h0c-.08-1.5.06-3-.57-4.2-.08-.15-.16-.29-.25-.43a1.88,1.88,0,0,1-.32-.65,1.83,1.83,0,0,1,0-.4v-2a1.67,1.67,0,0,0-.16-.83,1.44,1.44,0,0,0-.55-.57,1.23,1.23,0,0,0-.35-.16l-.52-.17a19.07,19.07,0,0,0-2.1-.55,23.71,23.71,0,0,0-4.27-.51,22.82,22.82,0,0,0-4.28.49,19.11,19.11,0,0,0-2.1.56l-.52.17a1,1,0,0,0-.35.17,1.44,1.44,0,0,0-.51.58,1.73,1.73,0,0,0-.16.84v2a1.9,1.9,0,0,1-.05.4,1.61,1.61,0,0,1-.16.39l-.12.17-.08.1a1.8,1.8,0,0,0-.25.4,5,5,0,0,0-.45,2c-.05.73-.06,1.48-.09,2.23a.35.35,0,0,1-.35.33h0a.38.38,0,0,1-.4-.36Z" fill="#333"/>
            <path d="M21.92,27.79a5.2,5.2,0,0,0-.31-1.8,2.34,2.34,0,0,0-.41-.74,1.28,1.28,0,0,0-.54-.41.47.47,0,0,1-.33-.36,26,26,0,0,1-.63-5.55,10.75,10.75,0,0,1,1.89-5.41,9.93,9.93,0,0,1,4.59-3.47,15.09,15.09,0,0,1,5.64-1,15.48,15.48,0,0,1,5.63,1,10.41,10.41,0,0,1,4.64,3.46A10.1,10.1,0,0,1,44,18.93a26.67,26.67,0,0,1-.62,5.55.49.49,0,0,1-.35.38h0a1.49,1.49,0,0,0-.62.39A2.3,2.3,0,0,0,42,26a5,5,0,0,0-.36,1.83.35.35,0,0,1-.35.34.34.34,0,0,1-.34-.34,5.68,5.68,0,0,1,.31-2.13,2.79,2.79,0,0,1,.58-1,2.22,2.22,0,0,1,1.06-.7l-.35.38a26.17,26.17,0,0,0,.38-5.3,8.74,8.74,0,0,0-6-7.59,15.18,15.18,0,0,0-5.12-.87,14.89,14.89,0,0,0-5.13.76,8.7,8.7,0,0,0-4.09,2.93,9.58,9.58,0,0,0-1.8,4.77,30,30,0,0,0,.42,5.35l-.33-.35a2,2,0,0,1,1,.75,3.11,3.11,0,0,1,.49,1,6.2,6.2,0,0,1,.25,2.06.36.36,0,0,1-.35.34.38.38,0,0,1-.32-.35Z" fill="#333"/>
          </g>
        </g>
      </g>
      <path d="M37.24,32.12a5.46,5.46,0,0,1,2.34,7.35,6,6,0,0,1-.7,1c-.85,1-6.73,9.73-15,0a5.46,5.46,0,0,1,.64-7.69,5.21,5.21,0,0,1,1-.67l4.53-2.35a2.88,2.88,0,0,1,2.62,0Z" fill="#fff"/>
      <path d="M23.48,34.08a22.92,22.92,0,0,1-3.75-9.3" fill="#fff" stroke="#333" stroke-linecap="round" stroke-linejoin="round" stroke-width="1.5"/>
      <path d="M39.6,34.08a22.92,22.92,0,0,0,3.75-9.3" fill="#fff" stroke="#333" stroke-linecap="round" stroke-linejoin="round" stroke-width="1.5"/>
      <line x1="22.64" y1="36.84" x2="21" y2="35.94" fill="none" stroke="#333" stroke-linecap="round" stroke-linejoin="round" stroke-width="1.5"/>
      <line x1="40.44" y1="36.84" x2="42.08" y2="35.94" fill="none" stroke="#333" stroke-linecap="round" stroke-linejoin="round" stroke-width="1.5"/>
      <path d="M37.24,32.12l-4.51-2.34a2.88,2.88,0,0,0-2.62,0l-4.52,2.35a5.39,5.39,0,0,0-2.78,3.52,5.55,5.55,0,0,0,1.12,2.17c8.22,9.74,14.1,1,15,0A5.5,5.5,0,0,0,40,35.65,5.41,5.41,0,0,0,37.24,32.12Z" fill="#fff"/>
      <path d="M37.24,32.12l-4.51-2.34a3,3,0,0,0-1.18-.3h0v8c0,2.06,2.2,1.61.87,4.11-2,3.84-7.09-2.89-7.09.41,0,.11,3,2.09,3,2.2,5.9,3.07,9.93-2.86,10.62-3.68a5.44,5.44,0,0,0-.6-7.68A5.57,5.57,0,0,0,37.24,32.12Z" fill="#eee"/>
      <path d="M22.84,35.55a18.8,18.8,0,0,0,8.71,2.27A17.24,17.24,0,0,0,40,35.55" fill="none" stroke="#ddd" stroke-miterlimit="10"/>
      <path d="M22.84,37.78a19,19,0,0,0,8.71,2.27A17.24,17.24,0,0,0,40,37.78" fill="none" stroke="#ddd" stroke-miterlimit="10"/>
      <path d="M37.24,32.12a5.46,5.46,0,0,1,2.34,7.35,6,6,0,0,1-.7,1c-.85,1-6.73,9.73-15,0a5.46,5.46,0,0,1,.64-7.69,5.21,5.21,0,0,1,1-.67l4.53-2.35a2.88,2.88,0,0,1,2.62,0Z" fill="none" stroke="#333" stroke-linejoin="round" stroke-width="1.5"/>
    </g>
  </g>
</svg>
