<svg xmlns="http://www.w3.org/2000/svg" viewBox="0 0 64 64"><title>avatar-pirate-beard-man-african</title><g style="isolation:isolate"><g id="avatar-pirate-beard-man-asian"><path d="M15.2245,40.4556a3.1247,3.1247,0,0,1-3.39.692,4.6146,4.6146,0,0,1,1.4276-3.1567,4.0436,4.0436,0,0,1,3.1633-1.1765A3.9379,3.9379,0,0,1,15.2245,40.4556Z" style="fill:#3a3a3a;stroke:#333;stroke-linejoin:round;stroke-width:0.8451324171149394px"/><path d="M17.4783,30.7183c-2.4438,3.97-.3586,4.7264-.87,5.8048C19.3488,34.7317,17.4969,32.4332,17.4783,30.7183Z" style="fill:#3a3a3a;stroke:#333;stroke-linejoin:round;stroke-width:0.8451324171149394px"/><path d="M21.1489,32.8116c-1.3792,5.54-3.6346,2.9924-4.4957,3.7524C17.7345,33.2347,19.9068,34.1254,21.1489,32.8116Z" style="fill:#3a3a3a;stroke:#333;stroke-linejoin:round;stroke-width:0.8451324171149394px"/><path d="M18.393,27.6074c-1.8156,4.492.3342,4.9312-.0218,6.116C20.8392,31.4494,18.6707,29.3825,18.393,27.6074Z" style="fill:#3a3a3a;stroke:#333;stroke-linejoin:round;stroke-width:0.8451324171149394px"/><path d="M22.3348,29.1991c-.5466,5.9061-3.1657,3.643-3.9137,4.559C19.0278,30.1808,21.3,30.7418,22.3348,29.1991Z" style="fill:#3a3a3a;stroke:#333;stroke-linejoin:round;stroke-width:0.8451324171149394px"/><path d="M18.8056,24.3714c-1.1032,4.93,1.0586,5.0566.8705,6.3279C21.8052,27.9885,19.3547,26.1777,18.8056,24.3714Z" style="fill:#444;stroke:#333;stroke-linejoin:round;stroke-width:0.8451324171149394px"/><path d="M22.9476,25.4521c.34,6.1723-2.6034,4.2209-3.2173,5.2753C19.8346,26.96,22.154,27.1937,22.9476,25.4521Z" style="fill:#444;stroke:#333;stroke-linejoin:round;stroke-width:0.8451324171149394px"/><path d="M16.7706,38.6561a26.5609,26.5609,0,0,0-2.0139-2.0791A15.9991,15.9991,0,0,0,15.7858,35.24a26.8538,26.8538,0,0,1,2.1717,1.9234A18.36,18.36,0,0,1,16.7706,38.6561Z" style="fill:#ccc;stroke:#333;stroke-linejoin:round;stroke-width:0.8451324171149394px"/><path d="M48.5387,40.4556a3.1247,3.1247,0,0,0,3.39.692,4.6142,4.6142,0,0,0-1.4276-3.1567,4.0436,4.0436,0,0,0-3.1633-1.1765A3.9379,3.9379,0,0,0,48.5387,40.4556Z" style="fill:#3a3a3a;stroke:#333;stroke-linejoin:round;stroke-width:0.8451324171149394px"/><path d="M46.2849,30.7183c2.4438,3.97.3586,4.7264.87,5.8048C44.4144,34.7317,46.2663,32.4332,46.2849,30.7183Z" style="fill:#3a3a3a;stroke:#333;stroke-linejoin:round;stroke-width:0.8451324171149394px"/><path d="M42.6143,32.8116c1.3792,5.54,3.6346,2.9924,4.4957,3.7524C46.0287,33.2347,43.8564,34.1254,42.6143,32.8116Z" style="fill:#3a3a3a;stroke:#333;stroke-linejoin:round;stroke-width:0.8451324171149394px"/><path d="M45.37,27.6074c1.8155,4.492-.3343,4.9312.0217,6.116C42.924,31.4494,45.0925,29.3825,45.37,27.6074Z" style="fill:#3a3a3a;stroke:#333;stroke-linejoin:round;stroke-width:0.8451324171149394px"/><path d="M41.4284,29.1991c.5466,5.9061,3.1657,3.643,3.9137,4.559C44.7354,30.1808,42.463,30.7418,41.4284,29.1991Z" style="fill:#3a3a3a;stroke:#333;stroke-linejoin:round;stroke-width:0.8451324171149394px"/><path d="M44.9577,24.3714c1.1032,4.93-1.0587,5.0566-.8706,6.3279C41.958,27.9885,44.4085,26.1777,44.9577,24.3714Z" style="fill:#444;stroke:#333;stroke-linejoin:round;stroke-width:0.8451324171149394px"/><path d="M40.8156,25.4521c-.34,6.1723,2.6035,4.2209,3.2173,5.2753C43.9286,26.96,41.6092,27.1937,40.8156,25.4521Z" style="fill:#444;stroke:#333;stroke-linejoin:round;stroke-width:0.8451324171149394px"/><path d="M46.9926,38.6561a26.579,26.579,0,0,1,2.0139-2.0791A15.9991,15.9991,0,0,1,47.9774,35.24a26.8538,26.8538,0,0,0-2.1717,1.9234A18.3821,18.3821,0,0,0,46.9926,38.6561Z" style="fill:#ccc;stroke:#333;stroke-linejoin:round;stroke-width:0.8451324171149394px"/><path d="M31.9486,57.79a66.3513,66.3513,0,0,0,26.5436-5.6254l-.6673-3.4295-.001-.0036a4.2979,4.2979,0,0,0-2.9173-3.4524l-.038-.0108c-2.2933-.65-23.65-7.7481-45.785.0468l-.0023.0011a4.4,4.4,0,0,0-2.9108,3.3664c-.0028.0141-.0081.0274-.0107.0416l-.6519,3.4546h0l.0027.0011A66.3028,66.3028,0,0,0,31.9486,57.79Z" style="fill:#75402e"/><path d="M41.81,34.0854a17.7681,17.7681,0,0,1,8.8553,14.99l-6.6774,3.0133,3.0489,3.8962" style="fill:none;stroke:#d09c69;stroke-linejoin:round;stroke-width:1.18592965602875px"/><path d="M22.3166,33.9124c-7,3.9318-9.0134,11.8213-9.0938,15.2868l6.379,2.869-2.988,3.8587" style="fill:none;stroke:#d09c69;stroke-linejoin:round;stroke-width:1.18592965602875px"/><path d="M9.0836,49.4707A4.4871,4.4871,0,0,0,6.2617,52.49a66.3125,66.3125,0,0,0,25.6869,5.3,66.3693,66.3693,0,0,0,25.7745-5.308,4.4929,4.4929,0,0,0-2.8165-3.0474L52.4,48.72A74.2178,74.2178,0,0,0,9.8,49.2379C9.469,49.3417,9.2252,49.4208,9.0836,49.4707Z" style="fill:#47210d"/><path d="M47.0371,55.9845l-3.0489-3.8962,6.6774-3.0133c-.2559-7.48-5.4921-17.3093-18.5867-17.3093-17.2322,0-18.8191,15.8391-18.8561,17.4335l6.379,2.869-2.988,3.8587A76.2648,76.2648,0,0,0,31.9485,57.79,74.5387,74.5387,0,0,0,47.0371,55.9845Z" style="fill:#444"/><path d="M50.6656,49.075a18.6566,18.6566,0,0,0-4.3562-11.3128,18.7024,18.7024,0,0,0-12.0068-3.85c-15.2177,0-18.2326,12.3462-18.7552,16.3323l4.0544,1.8234-2.9881,3.8588A76.5551,76.5551,0,0,0,31.9486,57.79a74.5384,74.5384,0,0,0,15.0885-1.8055l-3.0489-3.8962Z" style="fill:#333"/><path d="M39.2,38.2685a46.1164,46.1164,0,0,1-7.2076,7.3493,46.112,46.112,0,0,1-7.2075-7.3493L22.44,41.8846a34.625,34.625,0,0,0,3.7607,15.644c2.03.178,4.0512.2614,5.7912.2614s3.7616-.0834,5.7913-.2614a34.625,34.625,0,0,0,3.7607-15.644Z" style="fill:#d1d8db"/><path d="M12.6322,44.2547s-1.3636.3593-3.5485,1.06A4.4046,4.4046,0,0,0,6.16,48.7243l-.6519,3.4546A65.5083,65.5083,0,0,0,31.9485,57.79a65.2475,65.2475,0,0,0,26.5437-5.6254l-.6673-3.4294a4.2987,4.2987,0,0,0-2.9183-3.456c-1.5848-.4523-3.3964-.9632-3.3964-.9632" style="fill:none;stroke:#333;stroke-linejoin:round;stroke-width:1.58519848007983px"/><path d="M46.442,55.224l-2.4538-3.1357,6.6774-3.0133c-.2559-7.48-5.4921-17.3093-18.5867-17.3093-17.2322,0-18.8191,15.8391-18.8561,17.4335l6.379,2.869L17.158,55.224" style="fill:none;stroke:#d09c69;stroke-linecap:round;stroke-linejoin:round;stroke-width:1.5px"/><path d="M39.2155,38.2685l2.252,3.4893C38.9742,48.3148,31.83,56.36,28.1989,60.4993a1.3366,1.3366,0,0,1-2.3393-.8872V52.4377a2.3392,2.3392,0,0,1,.6371-1.6071C31.1356,45.9553,35.5514,43.0513,39.2155,38.2685Z" style="fill:#fff;stroke:#333;stroke-linejoin:round;stroke-width:1.77889448404312px"/><path d="M24.7845,38.2685l-2.252,3.4893c2.7827,6.3314,9.64,14.6,13.2686,18.7415a1.3366,1.3366,0,0,0,2.3394-.8872V52.4377a2.3393,2.3393,0,0,0-.6372-1.6071C32.8645,45.9553,28.4486,43.0513,24.7845,38.2685Z" style="fill:#fff;stroke:#333;stroke-linejoin:round;stroke-width:1.77889448404312px"/><ellipse cx="32" cy="49.8061" rx="4.075" ry="4.871" style="fill:#aa7749;stroke:#d09c69;stroke-miterlimit:10;stroke-width:1.5px"/><path d="M34.1009,49.3794a2.1,2.1,0,0,0-4.201,0c0,1.5229-.1155,1.2394.7877,1.838v.7876h.5251V51.48h.5251v.5251h.5251V51.48h.5252v.5146h.5251v-.7876C34.248,50.5872,34.09,50.86,34.1009,49.3794Zm-3.1507,1.04a.5252.5252,0,1,1,.525-.5251A.5251.5251,0,0,1,30.95,50.4192Zm.7771.5356c0-.2836.1261-.5251.2626-.5251.1575,0,.273.231.2625.5251Zm1.3234-.5356a.5252.5252,0,1,1,.525-.5251A.5251.5251,0,0,1,33.0507,50.4192Z" style="fill:#d09c69"/><path d="M40.5927,50.3842l-.0006.002C40.59,50.3947,40.5912,50.3911,40.5927,50.3842Z" style="fill:#535c63;opacity:0.30000000000000004;mix-blend-mode:multiply"/><path d="M12.3124,47.6273a.4363.4363,0,0,0-.2892-.1112l.3164-.3449a.4447.4447,0,1,0-.6555-.6011l-.4759.5188a.4421.4421,0,0,0,.3135.7427l-.3135.3418a.442.442,0,0,0,.3135.7426l-.3135.3418A.442.442,0,0,0,11.5217,50l-.3135.3418a.4421.4421,0,0,0,.3135.7427l-.3135.3418a.4421.4421,0,0,0,.3135.7426l-.3135.3418a.4446.4446,0,1,0,.6554.601l.476-.5188a.4443.4443,0,0,0-.0272-.6283.4378.4378,0,0,0-.2889-.1115l.3161-.3446a.4443.4443,0,0,0-.0272-.6283.438.438,0,0,0-.2889-.1116l.3161-.3445a.4443.4443,0,0,0-.0272-.6283.4374.4374,0,0,0-.2889-.1116L12.34,49.34a.4443.4443,0,0,0-.0272-.6283.4378.4378,0,0,0-.2889-.1115l.3161-.3446A.4443.4443,0,0,0,12.3124,47.6273Z" style="fill:#ddaa7c"/><path d="M10.5335,46.5429a.4459.4459,0,0,0-.6283.0272l-.476.5188a.4422.4422,0,0,0,.3136.7427l-.3136.3418a.4421.4421,0,0,0,.3136.7426l-.3136.3418A.4421.4421,0,0,0,9.7428,50l-.3136.3418a.4422.4422,0,0,0,.3136.7427l-.3136.3418a.4421.4421,0,0,0,.3136.7426l-.3136.3418a.4447.4447,0,1,0,.6555.601l.4761-.5188a.4443.4443,0,0,0-.0273-.6283.4378.4378,0,0,0-.2889-.1115l.3162-.3446a.4443.4443,0,0,0-.0273-.6283.4377.4377,0,0,0-.2888-.1116l.3161-.3445a.4443.4443,0,0,0-.0273-.6283.4374.4374,0,0,0-.2889-.1116l.3162-.3446a.4443.4443,0,0,0-.0273-.6283.4378.4378,0,0,0-.2889-.1115l.3162-.3446a.4443.4443,0,0,0-.0273-.6283.436.436,0,0,0-.2891-.1112l.3164-.3449A.4443.4443,0,0,0,10.5335,46.5429Z" style="fill:#ddaa7c"/><path d="M8.7546,46.5429a.4458.4458,0,0,0-.6282.0272l-.476.5188a.4421.4421,0,0,0,.3135.7427l-.3135.3418a.442.442,0,0,0,.3136.7426l-.3136.3418A.442.442,0,0,0,7.9639,50l-.3135.3418a.4421.4421,0,0,0,.3135.7427l-.3135.3418a.4421.4421,0,0,0,.3136.7426l-.3136.3418a.4447.4447,0,1,0,.6555.601l.4759-.5188a.4443.4443,0,0,0-.0272-.6283.4378.4378,0,0,0-.2889-.1115l.3161-.3446a.4443.4443,0,0,0-.0272-.6283.438.438,0,0,0-.2889-.1116l.3161-.3445a.4443.4443,0,0,0-.0272-.6283.4385.4385,0,0,0-.2889-.1116l.3161-.3446a.4443.4443,0,0,0-.0272-.6283A.4378.4378,0,0,0,8.4657,48.6l.3161-.3446a.4443.4443,0,0,0-.0272-.6283.4368.4368,0,0,0-.2892-.1112l.3164-.3449A.4443.4443,0,0,0,8.7546,46.5429Z" style="fill:#ddaa7c"/><path d="M6.9757,46.5429a.4459.4459,0,0,0-.6283.0272l-.476.5188a.4422.4422,0,0,0,.3136.7427l-.3136.3418a.4421.4421,0,0,0,.3136.7426l-.3136.3418A.4421.4421,0,0,0,6.185,50l-.3136.3418a.4422.4422,0,0,0,.3136.7427l-.3136.3418a.4421.4421,0,0,0,.3136.7426l-.3136.3418a.4447.4447,0,1,0,.6555.601l.4761-.5188a.4443.4443,0,0,0-.0273-.6283.4378.4378,0,0,0-.2889-.1115l.3162-.3446a.4443.4443,0,0,0-.0273-.6283.4377.4377,0,0,0-.2888-.1116l.3161-.3445a.4443.4443,0,0,0-.0273-.6283.4374.4374,0,0,0-.2889-.1116L7.003,49.34a.4443.4443,0,0,0-.0273-.6283A.4378.4378,0,0,0,6.6868,48.6l.3162-.3446a.4443.4443,0,0,0-.0273-.6283.436.436,0,0,0-.2891-.1112l.3164-.3449A.4443.4443,0,0,0,6.9757,46.5429Z" style="fill:#ddaa7c"/><path d="M5.1969,46.5429a.4459.4459,0,0,0-.6283.0272l-.476.5188a.4421.4421,0,0,0,.3135.7427l-.3135.3418a.442.442,0,0,0,.3136.7426l-.3136.3418A.442.442,0,0,0,4.4061,50l-.3135.3418a.4421.4421,0,0,0,.3135.7427l-.3135.3418a.4421.4421,0,0,0,.3136.7426l-.3136.3418a.4447.4447,0,1,0,.6555.601l.476-.5188a.4444.4444,0,0,0-.0272-.6283.4383.4383,0,0,0-.289-.1115l.3162-.3446a.4444.4444,0,0,0-.0272-.6283.4381.4381,0,0,0-.2889-.1116l.3161-.3445a.4444.4444,0,0,0-.0272-.6283.4379.4379,0,0,0-.289-.1116l.3162-.3446a.4444.4444,0,0,0-.0272-.6283.4383.4383,0,0,0-.289-.1115l.3162-.3446a.4444.4444,0,0,0-.0272-.6283.4363.4363,0,0,0-.2892-.1112l.3164-.3449A.4444.4444,0,0,0,5.1969,46.5429Z" style="fill:#ddaa7c"/><path d="M5.2943,44.63h7.6377a0,0,0,0,1,0,0V47.483a0,0,0,0,1,0,0H3.148a0,0,0,0,1,0,0v-.7072A2.1463,2.1463,0,0,1,5.2943,44.63Z" transform="translate(-10.9205 3.3208) rotate(-14.0232)" style="fill:#d09c69;stroke:#d09c69;stroke-linejoin:round;stroke-width:1.5px"/><path d="M51.8454,47.6273a.436.436,0,0,1,.2891-.1112l-.3164-.3449a.4447.4447,0,0,1,.6556-.6011l.4759.5188a.4421.4421,0,0,1-.3135.7427l.3135.3418a.442.442,0,0,1-.3135.7426l.3135.3418A.442.442,0,0,1,52.6361,50l.3135.3418a.4421.4421,0,0,1-.3135.7427l.3135.3418a.4421.4421,0,0,1-.3135.7426l.3135.3418a.4447.4447,0,1,1-.6555.601l-.476-.5188a.4443.4443,0,0,1,.0273-.6283.4378.4378,0,0,1,.2889-.1115l-.3162-.3446a.4443.4443,0,0,1,.0273-.6283.4377.4377,0,0,1,.2888-.1116l-.3161-.3445a.4443.4443,0,0,1,.0273-.6283.4374.4374,0,0,1,.2889-.1116l-.3162-.3446a.4443.4443,0,0,1,.0273-.6283.4378.4378,0,0,1,.2889-.1115l-.3162-.3446A.4443.4443,0,0,1,51.8454,47.6273Z" style="fill:#ddaa7c"/><path d="M53.6242,46.5429a.4459.4459,0,0,1,.6283.0272l.476.5188a.4421.4421,0,0,1-.3135.7427l.3135.3418a.442.442,0,0,1-.3136.7426l.3136.3418A.442.442,0,0,1,54.415,50l.3135.3418a.4421.4421,0,0,1-.3135.7427l.3135.3418a.4421.4421,0,0,1-.3136.7426l.3136.3418a.4447.4447,0,1,1-.6555.601l-.476-.5188a.4444.4444,0,0,1,.0272-.6283.4383.4383,0,0,1,.289-.1115l-.3162-.3446a.4444.4444,0,0,1,.0272-.6283.4381.4381,0,0,1,.2889-.1116l-.3161-.3445a.4444.4444,0,0,1,.0272-.6283.4379.4379,0,0,1,.289-.1116L53.597,49.34a.4444.4444,0,0,1,.0272-.6283.4383.4383,0,0,1,.289-.1115l-.3162-.3446a.4444.4444,0,0,1,.0272-.6283.4363.4363,0,0,1,.2892-.1112l-.3164-.3449A.4444.4444,0,0,1,53.6242,46.5429Z" style="fill:#ddaa7c"/><path d="M55.4032,46.5429a.4458.4458,0,0,1,.6282.0272l.476.5188a.4421.4421,0,0,1-.3135.7427l.3135.3418a.442.442,0,0,1-.3136.7426l.3136.3418A.442.442,0,0,1,56.1939,50l.3135.3418a.4421.4421,0,0,1-.3135.7427l.3135.3418a.4421.4421,0,0,1-.3136.7426l.3136.3418a.4447.4447,0,1,1-.6555.601l-.476-.5188a.4443.4443,0,0,1,.0273-.6283.4376.4376,0,0,1,.2888-.1115l-.3161-.3446a.4443.4443,0,0,1,.0273-.6283.4379.4379,0,0,1,.2888-.1116l-.3161-.3445a.4443.4443,0,0,1,.0273-.6283.4382.4382,0,0,1,.2888-.1116l-.3161-.3446a.4443.4443,0,0,1,.0273-.6283A.4376.4376,0,0,1,55.692,48.6l-.3161-.3446a.4443.4443,0,0,1,.0273-.6283.4365.4365,0,0,1,.2891-.1112l-.3164-.3449A.4443.4443,0,0,1,55.4032,46.5429Z" style="fill:#ddaa7c"/><path d="M57.182,46.5429a.4459.4459,0,0,1,.6283.0272l.476.5188a.4421.4421,0,0,1-.3135.7427l.3135.3418a.442.442,0,0,1-.3136.7426l.3136.3418A.442.442,0,0,1,57.9728,50l.3135.3418a.4421.4421,0,0,1-.3135.7427l.3135.3418a.4421.4421,0,0,1-.3136.7426l.3136.3418a.4447.4447,0,1,1-.6555.601l-.476-.5188a.4444.4444,0,0,1,.0272-.6283.4383.4383,0,0,1,.289-.1115l-.3162-.3446a.4444.4444,0,0,1,.0272-.6283.4381.4381,0,0,1,.2889-.1116l-.3161-.3445a.4444.4444,0,0,1,.0272-.6283.4379.4379,0,0,1,.289-.1116l-.3162-.3446a.4444.4444,0,0,1,.0272-.6283.4383.4383,0,0,1,.289-.1115l-.3162-.3446a.4444.4444,0,0,1,.0272-.6283.4363.4363,0,0,1,.2892-.1112l-.3164-.3449A.4444.4444,0,0,1,57.182,46.5429Z" style="fill:#ddaa7c"/><path d="M58.9609,46.5429a.4459.4459,0,0,1,.6283.0272l.476.5188a.4421.4421,0,0,1-.3135.7427l.3135.3418a.442.442,0,0,1-.3136.7426l.3136.3418A.442.442,0,0,1,59.7517,50l.3135.3418a.4421.4421,0,0,1-.3135.7427l.3135.3418a.4421.4421,0,0,1-.3136.7426l.3136.3418a.4447.4447,0,1,1-.6555.601l-.476-.5188a.4444.4444,0,0,1,.0272-.6283.4378.4378,0,0,1,.2889-.1115l-.3161-.3446a.4444.4444,0,0,1,.0272-.6283.438.438,0,0,1,.2889-.1116l-.3161-.3445a.4444.4444,0,0,1,.0272-.6283.4374.4374,0,0,1,.2889-.1116l-.3161-.3446a.4444.4444,0,0,1,.0272-.6283A.4378.4378,0,0,1,59.25,48.6l-.3161-.3446a.4444.4444,0,0,1,.0272-.6283.4363.4363,0,0,1,.2892-.1112l-.3164-.3449A.4444.4444,0,0,1,58.9609,46.5429Z" style="fill:#ddaa7c"/><path d="M51.2258,44.63H61.01a0,0,0,0,1,0,0V47.483a0,0,0,0,1,0,0H53.3721a2.1463,2.1463,0,0,1-2.1463-2.1463V44.63A0,0,0,0,1,51.2258,44.63Z" transform="translate(99.403 104.3382) rotate(-165.9768)" style="fill:#d09c69;stroke:#d09c69;stroke-linejoin:round;stroke-width:1.5px"/><path d="M42.8606,21.5294V19.3336c0-5.9506-2.086-12.0769-10.979-12.0769s-10.979,6.1263-10.979,12.0769v2.1958c-3.3225,0-3.6313,7.7821,1.0979,8.7833,0,3.8975,1.0979,4.3916,4.8088,8.2123,1.4273,1.8225,3.1729,1.6688,5.0723,1.6688s3.645.1537,5.0723-1.6688c3.7109-3.8207,4.8088-4.3148,4.8088-8.2123a4.2707,4.2707,0,0,0,3.2937-3.2937C46.1544,21.5294,42.9485,21.4965,42.8606,21.5294Z" style="fill:#ac8164"/><path d="M27.7982,28.0094l-1.1847.8975a1.5,1.5,0,0,0-.5942,1.1957v1.6485" style="fill:none;stroke:#a0775c;stroke-linecap:round;stroke-miterlimit:10;stroke-width:0.75px"/><path d="M42.8606,21.5294V19.3336c0-5.9506-2.086-12.0769-10.979-12.0769a17.574,17.574,0,0,0-3.2937.2854V18.2357a2.3605,2.3605,0,0,1-1.27,1.9372.2373.2373,0,0,0,.0433.447,5.927,5.927,0,0,1,3.0878,1.5417.499.499,0,0,0,.5843.152l.1061-.0444a.5354.5354,0,0,1,.7419.4939v2.8012c0,1.4852,1.1006,1.2656,1.0979,2.2971a1.0979,1.0979,0,0,1-1.0979,1.0979c-.8124,0-1.0684-.4417-2.1663-.4417-.6477,0-.5785.7381-.6.7161a2.3932,2.3932,0,0,1,1.0979.2855,3.3811,3.3811,0,0,0,1.6468.4282v3.5435a1.9031,1.9031,0,0,0,1.2519,1.758,1.5493,1.5493,0,0,1,.9439,1.6292c0,3.0193-5.4346-.2964-5.4346,2.9863a9.4619,9.4619,0,0,0,3.2388.3074c1.8994,0,3.6451.1538,5.0724-1.6688,3.7328-3.7987,4.8307-4.2928,4.8307-8.19C47.0237,29.1989,45.8284,21.5142,42.8606,21.5294Z" style="fill:#a0775c"/><path d="M35.9211,28.0094l1.1847.8975A1.5,1.5,0,0,1,37.7,30.1026v1.6485" style="fill:none;stroke:#ac8164;stroke-linecap:round;stroke-miterlimit:10;stroke-width:0.75px"/><path d="M40.2476,29.2147a3.656,3.656,0,0,0,1.5152-3.2937V23.7252c0-.9059.3442-2.1958,1.0979-2.1958,3.3224,0,3.6313,7.7821-1.0979,8.7832,0,3.3027-.7953,4.1681-3.2937,6.678V33.6064A5.248,5.248,0,0,1,40.2476,29.2147Z" style="fill:#936b55"/><path d="M42.8606,21.5294V19.3336c0-5.9506-2.086-12.0769-10.979-12.0769s-10.979,6.1263-10.979,12.0769v2.1958c-3.3225,0-3.6313,7.7821,1.0979,8.7833,0,3.8975,1.0979,4.3916,4.8088,8.2123,1.4273,1.8225,3.1729,1.6688,5.0723,1.6688s3.645.1537,5.0723-1.6688c3.7109-3.8207,4.8088-4.3148,4.8088-8.2123a4.2707,4.2707,0,0,0,3.2937-3.2937C46.1544,21.5294,42.9485,21.4965,42.8606,21.5294Z" style="fill:none;stroke:#333;stroke-linejoin:round;stroke-width:1.5px"/><path d="M32.7461,31.9077a2.61,2.61,0,0,0-.9093.4646,2.2949,2.2949,0,0,0-1.0816-.2763,9.4864,9.4864,0,0,0-2.5715,1.3087c1.47.73,2.11,1.4623,2.832,1.4394,0,0,1.1009-.08,1.87-.17,1.0849-.1266,1.5944-.8451,2.6691-2.4579C34.6262,32.4583,33.4944,31.7962,32.7461,31.9077Z" style="fill:#936b55"/><path d="M35.4221,32.3639a3.3155,3.3155,0,0,1-1.2185.7063c-.0117.0029-6.0228.3251-6.0277.3227" style="fill:none;stroke:#7f5b4b;stroke-linecap:round;stroke-miterlimit:10;stroke-width:0.75px"/><path d="M17.3933,22.1111c-6.2315-.3981-4.7018,4.4483-7.1257,6.4835C12.9367,29.3573,18.6538,27.4678,17.3933,22.1111Z" style="fill:#b72525"/><path d="M10.8308,27.9874c2.6957-.029,6.4094-1.8537,5.9145-5.8991C11.7757,22.0637,12.4143,25.825,10.8308,27.9874Z" style="fill:#961717"/><path d="M17.7889,22.7842a5.3643,5.3643,0,0,0-1.1522.73,4.6258,4.6258,0,0,0-.8921,1.08,8.5131,8.5131,0,0,1-.95,1.3463,4.0862,4.0862,0,0,1-1.4012.9441.2517.2517,0,0,1-.2334-.4439l.0048-.003a3.4414,3.4414,0,0,0,1.0334-.9793,7.9114,7.9114,0,0,0,.6317-1.3423,5.8188,5.8188,0,0,1,.8638-1.4921,6.75,6.75,0,0,1,1.3036-1.1862.7841.7841,0,1,1,.8089,1.3376Z" style="fill:#333"/><path d="M17.3933,22.1111c-6.2315-.3981-4.7018,4.4483-7.1257,6.4835C12.9367,29.3573,18.6538,27.4678,17.3933,22.1111Z" style="fill:none;stroke:#333;stroke-linejoin:round;stroke-width:1.56146985479486px"/><path d="M17.57,20.8853c-5.2937-3.4508-6.1679,1.5693-9.2295,2.1515C10.337,25.0352,16.2259,26.22,17.57,20.8853Z" style="fill:#961717"/><path d="M9.146,22.7683c2.3925,1.2537,6.3634,1.4279,7.7644-2.2824C12.6569,18.1153,11.4871,21.6473,9.146,22.7683Z" style="fill:#b72525"/><path d="M17.6364,21.6632a7.52,7.52,0,0,0-2.5149.3506,14.452,14.452,0,0,1-2.6657.8863.2518.2518,0,0,1-.28-.22.2557.2557,0,0,1,.1783-.2711,14.6518,14.6518,0,0,0,2.3488-1.3379,8.8219,8.8219,0,0,1,2.8009-.9632l.0065-.0012a.7846.7846,0,1,1,.2738,1.5451A.8375.8375,0,0,1,17.6364,21.6632Z" style="fill:#333"/><path d="M17.57,20.8853c-5.2937-3.4508-6.1679,1.5693-9.2295,2.1515C10.337,25.0352,16.2259,26.22,17.57,20.8853Z" style="fill:none;stroke:#333;stroke-linejoin:round;stroke-width:1.56146985479486px"/><path d="M45.2891,20.6128c.0717-1.2-.1286-4.7118-1.215-6.246a.8723.8723,0,0,0-.7679-.3733,3.5449,3.5449,0,0,0-.3754.07A19.2913,19.2913,0,0,0,41.0433,9.24a1.288,1.288,0,0,0-1.4614-.56l-2.59-2.0853a3.6593,3.6593,0,0,0-1.9688-.8c-4.4943-.4027-9.7573-.8006-14.8223,5.7488a3.9755,3.9755,0,0,0-.7176,1.5019l-1.3262,5.513,2.2829,2.39s13.0419-1.4643,23.831.5158A.889.889,0,0,0,45.2891,20.6128Z" style="fill:#b72525"/><path d="M38.355,9.0577,36.38,7.6637a.6784.6784,0,0,0-.6414-.08C28.7278,10.336,19.6227,17.626,19.6227,17.626l-.2433,1.0279A76.707,76.707,0,0,1,38.355,9.0577Z" style="fill:#961717"/><path d="M29.17,8.2085c-1.4453-.8015-9.9169,5.7053-10.6465,10.5137C23.09,12.2482,29.77,8.9274,29.17,8.2085Z" style="fill:#961717"/><path d="M40.5189,11.161a.28.28,0,0,0-.4841-.0294q-.205.3017-.4229.61a.2846.2846,0,0,1-.1886.1178c-10.2712,1.5833-19.8092,7.45-19.8092,7.45l.5392.8541c5.7719-2.851,8.8366-4.5848,21.6144-6.0189A12.1022,12.1022,0,0,0,40.5189,11.161Z" style="fill:#961717"/><polygon points="19.359 17.685 21.426 18.625 19.374 19.616 19.023 18.316 19.359 17.685" style="fill:#961717"/><polygon points="22.2 18.824 25.304 19.623 21.17 20.781 19.574 20.345 22.2 18.824" style="fill:#961717"/><path d="M43.4914,15.662a.4907.4907,0,0,0-.5144-.3209l-6.7153.9079a1.6733,1.6733,0,0,0-.9084.4285c-.4248.3908-.8643.7661-1.3178,1.12a1.675,1.675,0,0,1-.9138.3539,64.0293,64.0293,0,0,0-13.27,2.5533l.588.7445s13.0419-2.4643,23.831-.4842A15.1027,15.1027,0,0,0,43.4914,15.662Z" style="fill:#961717"/><path d="M42.0957,13.8571a19.0952,19.0952,0,0,0-.8317-2.6419,12.1157,12.1157,0,0,0-.5724-1.2433c-.2518-.4688-.3337-.5922-.59-.6823a.6359.6359,0,0,0-.3566-.0078l-.6867.205-1.3695.4312q-1.3662.4449-2.7184.9372a69.8138,69.8138,0,0,0-10.474,4.756.2511.2511,0,0,1-.2584-.4305A70.5952,70.5952,0,0,1,34.5976,9.8983q1.3432-.5627,2.7087-1.0735l1.37-.5007.69-.2406a1.9157,1.9157,0,0,1,1.0705-.0392,1.9654,1.9654,0,0,1,.9248.536,4.2784,4.2784,0,0,1,.5079.72,13.478,13.478,0,0,1,.7032,1.3526,20.4837,20.4837,0,0,1,1.0387,2.83.7811.7811,0,1,1-1.5017.4306l-.0088-.0334Z" style="fill:#333"/><path d="M18.5682,17.9524a14.2349,14.2349,0,0,1,2.08-2.85,26.5486,26.5486,0,0,1,2.4479-2.3477c.85-.7377,1.753-1.4027,2.6611-2.0527.9159-.64,1.8578-1.2362,2.81-1.81a.2511.2511,0,0,1,.3447.0855.2559.2559,0,0,1-.0719.336c-.8949.6416-1.7734,1.3013-2.6188,1.9989-.837.7067-1.6636,1.4236-2.4258,2.2006a25.4077,25.4077,0,0,0-2.1544,2.4231,13.28,13.28,0,0,0-1.6357,2.6254l-.0271.0635a.7821.7821,0,1,1-1.4386-.6141C18.5486,17.9915,18.5585,17.971,18.5682,17.9524Z" style="fill:#333"/><path d="M39.5819,8.68,37.175,6.7428a4.4223,4.4223,0,0,0-2.3834-.968c-4.4274-.3923-9.5763-.6662-14.5385,5.7015a4.1494,4.1494,0,0,0-.7738,1.6626l-1.342,6.1173" style="fill:none;stroke:#333;stroke-linejoin:round;stroke-width:1.56146985479486px"/><path d="M20.874,21.3823a2.3969,2.3969,0,0,0-1.3-1.0374,2.8831,2.8831,0,0,0-.2361-1.9114c-.701-1.33-2.4237-.7747-2.9467.24-.8865,1.7207,1.0029,5.0316,2.69,5.1628C20.1326,23.9184,21.5723,22.7278,20.874,21.3823Z" style="fill:#961717"/><path d="M17.4252,17.778a1.2,1.2,0,0,0-1.0343.8959,3.2141,3.2141,0,0,0,.3547,3.0239C16.98,21.5912,19.88,20.4571,17.4252,17.778Z" style="fill:#b72525"/><path d="M19.5737,20.3449a2.8831,2.8831,0,0,0-.2361-1.9114c-.701-1.33-2.4237-.7747-2.9467.24-.8865,1.7207,1.0029,5.0316,2.69,5.1628,1.0517.0817,2.4914-1.1089,1.7931-2.4544a3.2372,3.2372,0,0,0-2.2578-1.29" style="fill:none;stroke:#333;stroke-linecap:round;stroke-linejoin:round;stroke-width:1.56146985479486px"/><circle cx="27.2518" cy="24.4745" r="0.75" style="fill:#333"/><path d="M28.6685,24.4745c-1.4167-.1638-1.88-1.1933-3.7993-.25" style="fill:none;stroke:#333;stroke-linecap:round;stroke-miterlimit:10;stroke-width:0.75px"/><circle cx="36.4825" cy="24.4745" r="0.75" style="fill:#333"/><path d="M35.0658,24.4745c1.4167-.1638,1.88-1.1933,3.7993-.25" style="fill:none;stroke:#333;stroke-linecap:round;stroke-miterlimit:10;stroke-width:0.75px"/><path d="M29.7464,22.6731a3.7241,3.7241,0,0,1-1.6206.1015c-.5245-.049-1.0221-.1544-1.5094-.2329a12.0239,12.0239,0,0,0-1.4207-.2075,3.3912,3.3912,0,0,0-1.4508.1891,1.935,1.935,0,0,1,1.3774-.966,4.2664,4.2664,0,0,1,1.6717.0009,7.95,7.95,0,0,1,1.52.4622C28.8027,22.2129,29.2418,22.4488,29.7464,22.6731Z" style="fill:#333"/><path d="M33.9923,22.6731c.5047-.2243.9438-.46,1.4325-.6527a7.95,7.95,0,0,1,1.52-.4622,4.2663,4.2663,0,0,1,1.6717-.0009,1.935,1.935,0,0,1,1.3774.966,3.3914,3.3914,0,0,0-1.4508-.1891,12.0255,12.0255,0,0,0-1.4208.2075c-.4873.0785-.9848.1839-1.5094.2329A3.7243,3.7243,0,0,1,33.9923,22.6731Z" style="fill:#333"/><path d="M23.5156,29.2147A3.656,3.656,0,0,1,22,25.921V23.7252c0-.9059-.3442-2.1958-1.0979-2.1958-3.3224,0-3.6312,7.7821,1.0979,8.7832,0,3.3027.7953,4.1681,3.2937,6.678V33.6064A5.2477,5.2477,0,0,0,23.5156,29.2147Z" style="fill:#a0775c"/><path d="M22.0142,30.299a4.271,4.271,0,0,1-3.2892-3.2983c-1.09-5.491,2.1156-5.4866,2.2034-5.4865H21.32v-.6349" style="fill:none;stroke:#333;stroke-linejoin:round;stroke-width:1.5px"/><path d="M43.75,21.74c.8926.4129,2.0591,1.6539,1.3251,5.2976a4.2707,4.2707,0,0,1-3.2982,3.2892" style="fill:none;stroke:#333;stroke-linejoin:round;stroke-width:1.5px"/><path d="M26.48,17.0157a50.0716,50.0716,0,0,1,12.23-2.9681q1.56-.2093,3.1284-.3612l.7846-.0722.393-.0329a3.2214,3.2214,0,0,1,.4593-.02,1.32,1.32,0,0,1,.9746.5688,5.855,5.855,0,0,1,.4352.7353,9.0316,9.0316,0,0,1,.81,3.1875,14.1575,14.1575,0,0,1,.047,1.6224c-.0088.27-.0233.5409-.0469.8119l-.0433.4076-.0263.2046a1.173,1.173,0,0,1-.1057.3373,1.0915,1.0915,0,0,1-.518.5125.9781.9781,0,0,1-.4036.0915,1.4719,1.4719,0,0,1-.3238-.0474l-.751-.1658c-.4975-.12-1.0069-.2-1.5137-.2881-1.0144-.1712-2.04-.2985-3.0687-.3935-2.0579-.1941-4.1305-.2745-6.2029-.2795a69.3416,69.3416,0,0,0-12.3356.9878l-.0244.0045a.7808.7808,0,0,1-.2837-1.5356l.0168-.0029a70.58,70.58,0,0,1,12.6429-.7484c2.1056.05,4.2112.1762,6.3094.4192,1.049.12,2.0964.272,3.138.4706.5206.1016,1.042.1951,1.558.3311l.7754.1889c.0935.0228.0834.0185.0614.0184a.08.08,0,0,0-.0244.0057c-.005.0042.0171-.0063.0272-.0287a.1417.1417,0,0,0,.0133-.0343l.0272-.1835.0469-.3707c.0268-.2489.0452-.5.0585-.7515a13.1657,13.1657,0,0,0-.0134-1.5092,8.1279,8.1279,0,0,0-.66-2.8686,4.9855,4.9855,0,0,0-.3491-.62.4365.4365,0,0,0-.3245-.2107,3.1531,3.1531,0,0,0-.3227.0126l-.3885.0241-.7773.0548q-1.5544.1184-3.1057.2914a49.5,49.5,0,0,0-12.1312,2.667l-.0066.0026a.251.251,0,0,1-.1864-.466Z" style="fill:#333"/><path d="M20.45,27.7119c-.6186,0-1.12,1.0414-1.12,2.326s.5015,2.326,1.12,2.326,1.12-1.0414,1.12-2.326" style="fill:none;stroke:#d09c69;stroke-linecap:round;stroke-linejoin:round"/><path d="M43.155,27.7119c.6187,0,1.12,1.0414,1.12,2.326s-.5015,2.326-1.12,2.326-1.12-1.0414-1.12-2.326" style="fill:none;stroke:#d09c69;stroke-linecap:round;stroke-linejoin:round"/><path d="M42.2736,25.28V20.9169H40.8557c0,5.7838-.2277,8.2109-1.5976,11.226A3.6324,3.6324,0,0,0,40.53,33.9705c-2.0459,0-2.7261-5.7239-8.7337-3.959-6.0076-1.7649-6.6877,3.959-8.7337,3.959a3.6318,3.6318,0,0,0,1.2723-1.8276c-1.37-3.0151-1.5976-5.4422-1.5976-11.226H21.32V25.28c0,7.5206-5.6541,17.2764,10.4769,20.2011C47.9277,42.5567,42.2736,32.8009,42.2736,25.28ZM35.7953,35.4254v0a.6669.6669,0,0,1-.6984.63,2.4191,2.4191,0,0,1-2.0758-.7629.5261.5261,0,0,0-.4017-.213H30.974a.5261.5261,0,0,0-.4017.213,2.419,2.419,0,0,1-2.0758.7629.6667.6667,0,0,1-.6983-.63v-2.52a.582.582,0,0,1,.6026-.5589h1.1575a3.0921,3.0921,0,0,0,2.2384-.9316,3.0921,3.0921,0,0,0,2.2384.9316h1.1575a.582.582,0,0,1,.6027.5589Z" style="fill:#333"/><path d="M29.9593,50.0842a3.8508,3.8508,0,0,0,1.8374,3.2769,3.8409,3.8409,0,0,0,0-6.5538A3.8508,3.8508,0,0,0,29.9593,50.0842Z" style="fill:#444;stroke:#333;stroke-linejoin:round"/><path d="M34.2317,41.0527c1.0019,4.7857-2.1252,4.2651-2.4,5.4136C30.5185,43.2692,33.4918,42.6345,34.2317,41.0527Z" style="fill:#444;stroke:#333;stroke-linejoin:round"/><path d="M29.3617,41.0527c-1.0019,4.7857,2.1252,4.2651,2.4,5.4136C33.0749,43.2692,30.1016,42.6345,29.3617,41.0527Z" style="fill:#444;stroke:#333;stroke-linejoin:round"/><path d="M34.2317,37.7884c1.0019,4.7857-2.1252,4.2651-2.4,5.4136C30.5185,40.0049,33.4918,39.37,34.2317,37.7884Z" style="fill:#444;stroke:#333;stroke-linejoin:round"/><path d="M29.3617,37.7884c-1.0019,4.7857,2.1252,4.2651,2.4,5.4136C33.0749,40.0049,30.1016,39.37,29.3617,37.7884Z" style="fill:#444;stroke:#333;stroke-linejoin:round"/><rect x="30.1245" y="46.0164" width="3.3674" height="1.808" style="fill:#b72525;stroke:#333;stroke-linejoin:round"/><path d="M17.5073,43.8956a2.7269,2.7269,0,0,1-2.9968.3693,4.027,4.027,0,0,1,1.4586-2.6483,3.5289,3.5289,0,0,1,2.8328-.8065A3.4368,3.4368,0,0,1,17.5073,43.8956Z" style="fill:#444;stroke:#333;stroke-linejoin:round;stroke-width:0.7375408119433335px"/><path d="M20.3165,34.8017c-2.7483,3.7651-.7292,4.6836-1.3234,5.7185C21.8656,38.95,20.2,36.5128,20.3165,34.8017Z" style="fill:#444;stroke:#333;stroke-linejoin:round;stroke-width:0.8451324171149394px"/><path d="M23.8111,37.1772c-1.8106,5.4144-3.8586,2.6973-4.7769,3.3873C20.3741,37.3305,22.47,38.3893,23.8111,37.1772Z" style="fill:#444;stroke:#333;stroke-linejoin:round;stroke-width:0.8451324171149394px"/><path d="M21.473,31.7724c-2.1632,4.3354-.0546,4.9422-.5027,6.0954C23.61,35.7949,21.61,33.5639,21.473,31.7724Z" style="fill:#444;stroke:#333;stroke-linejoin:round;stroke-width:0.8451324171149394px"/><path d="M25.2775,33.6691c-1.0094,5.8449-3.4424,3.3829-4.26,4.2372C21.9035,34.3878,24.1247,35.1258,25.2775,33.6691Z" style="fill:#444;stroke:#333;stroke-linejoin:round;stroke-width:0.8451324171149394px"/><rect x="18.1187" y="39.4383" width="1.4202" height="2.645" transform="translate(-22.8413 24.0404) rotate(-43.3428)" style="fill:#b72525;stroke:#333;stroke-linejoin:round;stroke-width:0.7854918837547302px"/><path d="M21.85,49.4509a3.1248,3.1248,0,0,1-3.3946.6695,4.614,4.614,0,0,1,1.4485-3.1471,4.0437,4.0437,0,0,1,3.1711-1.1556A3.9379,3.9379,0,0,1,21.85,49.4509Z" style="fill:#444;stroke:#333;stroke-linejoin:round;stroke-width:0.8451324171149394px"/><path d="M24.1681,39.7287c-2.47,3.9533-.39,4.7239-.9081,5.7989C26.0119,43.7545,24.1753,41.4438,24.1681,39.7287Z" style="fill:#444;stroke:#333;stroke-linejoin:round;stroke-width:0.8451324171149394px"/><path d="M27.8247,41.8464c-1.4159,5.5307-3.6544,2.9682-4.52,3.7225C24.4076,42.2468,26.5739,43.1519,27.8247,41.8464Z" style="fill:#444;stroke:#333;stroke-linejoin:round;stroke-width:0.8451324171149394px"/><path d="M25.1034,36.624c-1.8453,4.48.3015,4.9333-.0623,6.1157C27.5241,40.4822,25.3694,38.401,25.1034,36.624Z" style="fill:#444;stroke:#333;stroke-linejoin:round;stroke-width:0.8451324171149394px"/><path d="M29.0346,38.2418c-.5858,5.9024-3.19,3.622-3.9439,4.5329C25.7211,39.2016,27.99,39.7777,29.0346,38.2418Z" style="fill:#444;stroke:#333;stroke-linejoin:round;stroke-width:0.8451324171149394px"/><rect x="22.4146" y="44.6135" width="1.4202" height="2.645" transform="translate(-26.3591 31.928) rotate(-47.4729)" style="fill:#b72525;stroke:#333;stroke-linejoin:round;stroke-width:0.7854918837547302px"/><path d="M46.2559,43.8956a2.7269,2.7269,0,0,0,2.9968.3693,4.027,4.027,0,0,0-1.4586-2.6483,3.5289,3.5289,0,0,0-2.8328-.8065A3.4368,3.4368,0,0,0,46.2559,43.8956Z" style="fill:#444;stroke:#333;stroke-linejoin:round;stroke-width:0.7375408119433335px"/><path d="M43.4467,34.8017c2.7484,3.7651.7292,4.6836,1.3234,5.7185C41.8976,38.95,43.563,36.5128,43.4467,34.8017Z" style="fill:#444;stroke:#333;stroke-linejoin:round;stroke-width:0.8451324171149394px"/><path d="M39.9521,37.1772c1.8106,5.4144,3.8587,2.6973,4.7769,3.3873C43.3892,37.3305,41.2937,38.3893,39.9521,37.1772Z" style="fill:#444;stroke:#333;stroke-linejoin:round;stroke-width:0.8451324171149394px"/><path d="M42.29,31.7724c2.1632,4.3354.0546,4.9422.5027,6.0954C40.1537,35.7949,42.1529,33.5639,42.29,31.7724Z" style="fill:#444;stroke:#333;stroke-linejoin:round;stroke-width:0.8451324171149394px"/><path d="M38.4857,33.6691c1.0094,5.8449,3.4424,3.3829,4.26,4.2372C41.86,34.3878,39.6385,35.1258,38.4857,33.6691Z" style="fill:#444;stroke:#333;stroke-linejoin:round;stroke-width:0.8451324171149394px"/><rect x="43.6119" y="40.0507" width="2.645" height="1.4202" transform="translate(-15.5506 45.4632) rotate(-46.6572)" style="fill:#b72525;stroke:#333;stroke-linejoin:round;stroke-width:0.7854918837547302px"/><path d="M41.9135,49.4509a3.1248,3.1248,0,0,0,3.3946.6695A4.614,4.614,0,0,0,43.86,46.9733a4.0437,4.0437,0,0,0-3.1711-1.1556A3.9382,3.9382,0,0,0,41.9135,49.4509Z" style="fill:#444;stroke:#333;stroke-linejoin:round;stroke-width:0.8451324171149394px"/><path d="M39.5951,39.7287c2.47,3.9533.39,4.7239.9081,5.7989C37.7513,43.7545,39.5879,41.4438,39.5951,39.7287Z" style="fill:#444;stroke:#333;stroke-linejoin:round;stroke-width:0.8451324171149394px"/><path d="M35.9385,41.8464c1.4159,5.5307,3.6544,2.9682,4.5205,3.7225C39.3556,42.2468,37.1893,43.1519,35.9385,41.8464Z" style="fill:#444;stroke:#333;stroke-linejoin:round;stroke-width:0.8451324171149394px"/><path d="M38.66,36.624c1.8453,4.48-.3015,4.9333.0624,6.1157C36.2392,40.4822,38.3938,38.401,38.66,36.624Z" style="fill:#444;stroke:#333;stroke-linejoin:round;stroke-width:0.8451324171149394px"/><path d="M34.7286,38.2418c.5858,5.9024,3.19,3.622,3.9439,4.5329C38.0421,39.2016,35.7735,39.7777,34.7286,38.2418Z" style="fill:#444;stroke:#333;stroke-linejoin:round;stroke-width:0.8451324171149394px"/><rect x="39.316" y="45.2259" width="2.645" height="1.4202" transform="translate(-20.3603 39.5523) rotate(-42.5271)" style="fill:#b72525;stroke:#333;stroke-linejoin:round;stroke-width:0.7854918837547302px"/><g id="_026-tattooed-person-asian-male" data-name=" 026-tattooed-person-asian-male"><g id="tattooed-person-asian-male-2"><g id="tattooed-person-asian-male-2-2"><g id="Icons"><path d="M28.5047,29.26a4.1626,4.1626,0,0,1,1.6117.3207h0a4.209,4.209,0,0,0,3.2233,0h0a4.1626,4.1626,0,0,1,1.6117-.3207" style="fill:none;stroke:#674848;stroke-linecap:round;stroke-miterlimit:10;stroke-width:0.75px"/></g></g></g></g></g></g></svg>