<svg xmlns="http://www.w3.org/2000/svg" viewBox="0 0 64 64">
  <g id="surgeon-white-female-coronavirus">
    <g id="e464e77c-c3ef-41bb-b9e8-e6c77964a7f2">
      <g id="ba22e0ae-a3cb-4179-a07c-9f83acd67daf">
        <g id="bcfee202-e950-4b4b-9032-a166a89e7bfa">
          <g id="acb87fcc-09bd-4ee0-8c2e-aa00ee29f251">
            <path d="M44.3,39.58c0,5-5.13,5.31-11.45,5.31s-11.44-.32-11.44-5.31,5.12-9,11.44-9S44.3,34.58,44.3,39.58Z" fill="#333"/>
            <path d="M35.1,30.74c-6.25.08-11.38,4.08-11.38,9.08,0,3.44,2.41,4.66,6,5.09h3.13c6.33,0,11.45-.32,11.45-5.31C44.3,35.19,40.34,31.53,35.1,30.74Z" fill="#333"/>
            <path d="M44.3,39.58c0,5-5.13,5.31-11.45,5.31s-11.44-.32-11.44-5.31,5.12-9,11.44-9S44.3,34.58,44.3,39.58Z" fill="none" stroke="#333" stroke-linejoin="round" stroke-width="1.75"/>
            <path d="M52,45.64,39,43h-.1V36.89H26.59v6.16h-.08l-13,2.58c-3.9,1-4.21,4.53-4.5,6.27L9.1,52a59.18,59.18,0,0,0,47.32,0h0C56.27,50.3,56.1,46.65,52,45.64Z" fill="#edccc3"/>
            <path d="M26.59,36.88V40l5,5.18A4.11,4.11,0,0,1,32.74,48a2.63,2.63,0,0,0,2.63,2.63h.52a3,3,0,0,0,3-3V36.88Z" fill="#e5c2ba"/>
            <path d="M56.24,50A5.72,5.72,0,0,0,52,45.63c-4.6-1.15-7.73-1.73-13-2.6a24.23,24.23,0,0,1-6.29,6.24A22.18,22.18,0,0,1,26.58,43c-5.26.86-8.38,1.52-13.06,2.6A5.67,5.67,0,0,0,9.34,50L9,51.91l.09.06a58.42,58.42,0,0,0,23.66,5,58.41,58.41,0,0,0,23.65-5h0Z" fill="#3b8c50"/>
            <path d="M26.59,43a22.25,22.25,0,0,0,6.17,6.25A21.89,21.89,0,0,0,38.9,43" fill="none" stroke="#333" stroke-linecap="round" stroke-linejoin="round" stroke-width="1.42"/>
            <path d="M26.65,43c-5.3.86-8.42,1.52-13.12,2.61A5.67,5.67,0,0,0,9.35,50L9,51.91l.09.06a58.42,58.42,0,0,0,23.66,5,58.41,58.41,0,0,0,23.65-5h0l-.25-1.9A5.72,5.72,0,0,0,52,45.64c-4.6-1.15-7.73-1.73-13-2.6" fill="none" stroke="#333" stroke-linejoin="round" stroke-width="1.5"/>
            <polyline points="26.59 43.04 26.59 36.88 38.93 36.88 38.93 43.04" fill="none" stroke="#333" stroke-linejoin="round" stroke-width="1.5"/>
            <path d="M32.76,10.31c8.38,0,10.85,4.89,10.85,10.53,0,.33-.09,1.66-.13,2,1.8,0,2.45,1.85,2.16,4.24-.25,2-1,4.26-3,4.32a6.72,6.72,0,0,1-.1,1.1c-.2,3.13-2.41,5-5.32,8a5,5,0,0,1-4.5,1.82,5,5,0,0,1-4.5-1.82c-2.91-3-5.12-4.87-5.32-8a5.85,5.85,0,0,0-.1-1.1c-1.94-.06-2.71-2.28-3-4.32-.29-2.39.35-4.24,2.16-4.24,0-.33-.13-1.66-.13-2C21.91,15.2,24.38,10.31,32.76,10.31Z" fill="#edccc3"/>
            <path d="M43.41,22.85c0-.34.13-1.66.13-2h0c0-5.64-2.47-10.53-10.85-10.53a17.68,17.68,0,0,0-2.82.22h0v11a4.07,4.07,0,0,1-1.32,3,.46.46,0,0,0-.16.34.47.47,0,0,0,.36.46,2.7,2.7,0,0,1,2,2,.49.49,0,0,0,.58.4h0a.44.44,0,0,0,.22-.1,1.81,1.81,0,0,1,.61-.33.51.51,0,0,1,.62.37.59.59,0,0,1,0,.13V29.6c0,1,1.36.87.81,1.91a.79.79,0,0,1-.81.47c-.9,0-.86-.29-1.54-.4-.34-.06-.55.22-.55.57,1,0,1,.52,2.09.52v4.61h0a.41.41,0,0,0,.32.39,1.7,1.7,0,0,1,1.26,1.48c0,.67-.37,1.36-1.58,1.6s-2.68-1-3.2,0a.66.66,0,0,0-.06.27c0,.44.34,1.28,3.26,1.28a4.82,4.82,0,0,0,4.43-1.8c2.91-3,5.12-4.87,5.32-8a5.85,5.85,0,0,1,.1-1.1c1.94-.06,2.71-2.28,3-4.32,0-.3.06-.59.07-.87C45.68,24.26,45,22.85,43.41,22.85Z" fill="#e5c2ba"/>
            <path d="M43.48,22.83c0-.33.13-1.66.13-2,0-5.64-2.47-10.53-10.85-10.53S21.91,15.2,21.91,20.84c0,.33.09,1.66.13,2-1.81,0-2.45,1.85-2.16,4.24.25,2,1,4.26,3,4.32,0,.12.05.44.1,1.1.2,3.13,2.26,4.82,5.17,7.85a6.23,6.23,0,0,0,4.65,2,6.13,6.13,0,0,0,4.63-2c2.91-3,5-4.74,5.19-7.87a5.85,5.85,0,0,1,.1-1.1c1.94-.06,2.71-2.28,3-4.32C45.93,24.68,45.29,22.83,43.48,22.83Z" fill="none" stroke="#333" stroke-linejoin="round" stroke-width="1.5"/>
            <path d="M32.79,8c-9.45,0-12,5.56-12,9.68V23.3c1,0,2,1.46,2,3.72,0-6.53,9.44-3.47,14-8,2.6,4.64,6,1.83,6,8a4.41,4.41,0,0,1,2.11-3.66V18C44.9,13.89,42.24,8,32.79,8Z" fill="#333"/>
            <path d="M21,23.09a3.76,3.76,0,0,1,1.65,1.65A5.27,5.27,0,0,1,23.12,27h-.66l.1-1.14a7.85,7.85,0,0,1,.37-1.13,4.26,4.26,0,0,1,1.61-1.68,13.92,13.92,0,0,1,4.21-1.4,37.06,37.06,0,0,0,4.13-1,8.77,8.77,0,0,0,3.52-2,.51.51,0,0,1,.71,0h0l.08.1a7.06,7.06,0,0,0,1.53,2,12.06,12.06,0,0,0,2.19,1.35,3.82,3.82,0,0,1,1.86,2.2,9.84,9.84,0,0,1,.3,2.75h-.66a4.31,4.31,0,0,1,.73-2.22,5.56,5.56,0,0,1,1.6-1.64.23.23,0,0,1,.32.07h0a.22.22,0,0,1-.06.31h0a4.82,4.82,0,0,0-1.36,1.55A4,4,0,0,0,43,27a.32.32,0,0,1-.38.26.33.33,0,0,1-.27-.26h0A8.85,8.85,0,0,0,42,24.5a3,3,0,0,0-1.55-1.7,12.75,12.75,0,0,1-2.37-1.38,8.58,8.58,0,0,1-1.81-2.17l.79.11a9.73,9.73,0,0,1-3.92,2.24,36.52,36.52,0,0,1-4.27.94,12.48,12.48,0,0,0-4,1.19,3.58,3.58,0,0,0-1.38,1.35c-.12.3-.23.6-.33.92l-.11,1h0a.32.32,0,0,1-.38.26.33.33,0,0,1-.27-.26,4.71,4.71,0,0,0-.36-2,3.11,3.11,0,0,0-1.35-1.49.23.23,0,0,1-.09-.31.19.19,0,0,1,.22-.16A.14.14,0,0,1,21,23.09Z" fill="#333"/>
            <path d="M20.85,10.79v10h24v-10c0-.55-5.13-3-12-3S20.85,10.23,20.85,10.79Z" fill="#3b8c50"/>
            <path d="M21.49,20.85h7.08a9.4,9.4,0,0,0,5.86-8.71,9.27,9.27,0,0,0-1.08-4.4H32.16c-6.27,0-11.13,2.48-11.13,3,0,1-.39,7.77-.5,9.6A8.46,8.46,0,0,0,21.49,20.85Z" fill="#489e61"/>
            <path d="M20.85,10.79v10h24v-10c0-.55-5.13-3-12-3S20.85,10.23,20.85,10.79Z" fill="none" stroke="#333" stroke-linecap="round" stroke-linejoin="round" stroke-width="1.5"/>
            <rect x="19.85" y="16.79" width="26" height="5" fill="#eee" stroke="#333" stroke-linejoin="round" stroke-width="1.5"/>
            <circle cx="32.85" cy="18.81" r="4.98" fill="#ddd" stroke="#333" stroke-linejoin="round" stroke-width="1.5"/>
            <circle cx="32.85" cy="18.81" r="1.5" fill="#fff"/>
            <path d="M24,25.08a4.75,4.75,0,0,1,3.2-.51c.54.07,1.06.17,1.58.29a12.68,12.68,0,0,0,1.49.3h0a.51.51,0,0,1,.35.63.5.5,0,0,1-.48.37h-.06c-.57-.15-1-.34-1.54-.51s-1-.33-1.47-.45A6.3,6.3,0,0,0,25.61,25a2.21,2.21,0,0,0-1.39.39.18.18,0,0,1-.26,0,.18.18,0,0,1,0-.25.08.08,0,0,1,0,0Z" fill="#333"/>
            <circle cx="27.99" cy="27.37" r="0.75" fill="#333"/>
            <path d="M29.8,27.74c-.58-.33-2.07-2.25-4-.33a2.35,2.35,0,0,1-.67-.46,4.11,4.11,0,0,1,3-.28" fill="#333" stroke="#333" stroke-linecap="round" stroke-miterlimit="10" stroke-width="0.5"/>
            <path d="M35.25,27.74c.58-.33,2.07-2.25,4-.33a2.35,2.35,0,0,0,.67-.46,4.11,4.11,0,0,0-3-.28" fill="#333" stroke="#333" stroke-linecap="round" stroke-miterlimit="10" stroke-width="0.5"/>
            <circle cx="37" cy="27.37" r="0.75" fill="#333"/>
            <path d="M40.65,25.37A2.22,2.22,0,0,0,39.26,25a7.55,7.55,0,0,0-1.49.22q-.75.2-1.47.45a12.26,12.26,0,0,1-1.56.49.52.52,0,0,1-.62-.38.52.52,0,0,1,.39-.62h.08a12.48,12.48,0,0,0,1.48-.29c.52-.12,1-.22,1.58-.29a4.69,4.69,0,0,1,3.2.5.19.19,0,0,1,0,.25A.17.17,0,0,1,40.65,25.37Z" fill="#333"/>
            <line x1="32.76" y1="49.28" x2="32.76" y2="53.32" fill="none" stroke="#333" stroke-linecap="round" stroke-linejoin="round" stroke-width="1.42"/>
            <path d="M47.32,52.08v-10a3.83,3.83,0,0,0-3.65-4H39.55" fill="none" stroke="#333" stroke-linejoin="round" stroke-width="1.5"/>
            <path d="M20.09,46.57V42.08a3.83,3.83,0,0,1,3.65-4h2.18" fill="none" stroke="#333" stroke-linejoin="round" stroke-width="1.5"/>
            <path d="M50.82,55.58a3.5,3.5,0,1,1-3.5-3.5h0A3.5,3.5,0,0,1,50.82,55.58Z" fill="#e0ebee"/>
            <circle cx="47.32" cy="55.58" r="1" fill="#333"/>
            <path d="M50.82,55.58a3.5,3.5,0,1,1-3.5-3.5h0A3.5,3.5,0,0,1,50.82,55.58Z" fill="none" stroke="#333" stroke-linejoin="round" stroke-width="1.5"/>
            <circle cx="18.09" cy="58.08" r="1" fill="#333"/>
            <circle cx="22.09" cy="58.08" r="1" fill="#333"/>
            <path d="M18.09,58.08c-2,0-3-.83-3-2,0-3,5-10,5-10s5,7,5,10c0,1.17-1,2-3,2" fill="none" stroke="#333" stroke-linejoin="round" stroke-width="1.5"/>
          </g>
        </g>
      </g>
      <path d="M38.16,30.69a5.23,5.23,0,0,1,2.23,7,5.48,5.48,0,0,1-.67,1c-.81,1-6.43,9.31-14.3,0A5.2,5.2,0,0,1,26,31.35a5.3,5.3,0,0,1,1-.65l4.33-2.24a2.69,2.69,0,0,1,2.5,0Z" fill="#fff"/>
      <path d="M25,32.56a21.75,21.75,0,0,1-3.58-8.88" fill="#fff" stroke="#333" stroke-linecap="round" stroke-linejoin="round" stroke-width="1.5"/>
      <path d="M40.41,32.56A21.89,21.89,0,0,0,44,23.68" fill="#fff" stroke="#333" stroke-linecap="round" stroke-linejoin="round" stroke-width="1.5"/>
      <line x1="24.19" y1="35.21" x2="22.62" y2="34.34" fill="none" stroke="#333" stroke-linecap="round" stroke-linejoin="round" stroke-width="1.5"/>
      <line x1="41.21" y1="35.21" x2="42.78" y2="34.34" fill="none" stroke="#333" stroke-linecap="round" stroke-linejoin="round" stroke-width="1.5"/>
      <path d="M38.16,30.69l-4.32-2.23a2.69,2.69,0,0,0-2.5,0L27,30.7a5.13,5.13,0,0,0-2.65,3.37,5.13,5.13,0,0,0,1.07,2.07c7.86,9.32,13.48,1,14.3,0a5.29,5.29,0,0,0,1.08-2.09A5.2,5.2,0,0,0,38.16,30.69Z" fill="#fff"/>
      <path d="M38.16,30.69l-4.32-2.23a2.63,2.63,0,0,0-1.13-.29h0v7.63c0,2,2.1,1.54.83,3.93-2,3.67-6.77-2.76-6.77.39,0,.12,2.82,2,2.82,2.1,5.64,2.94,9.49-2.73,10.15-3.51a5.21,5.21,0,0,0-.58-7.35A5.8,5.8,0,0,0,38.16,30.69Z" fill="#eee"/>
      <path d="M24.38,34a18.09,18.09,0,0,0,8.33,2.17A16.45,16.45,0,0,0,40.78,34" fill="none" stroke="#ddd" stroke-miterlimit="10" stroke-width="0.96"/>
      <path d="M24.38,36.1a18.09,18.09,0,0,0,8.33,2.17,16.35,16.35,0,0,0,8.07-2.17" fill="none" stroke="#ddd" stroke-miterlimit="10" stroke-width="0.96"/>
      <path d="M38.16,30.69a5.23,5.23,0,0,1,2.23,7,5.48,5.48,0,0,1-.67,1c-.81,1-6.43,9.31-14.3,0A5.2,5.2,0,0,1,26,31.35a5.3,5.3,0,0,1,1-.65l4.33-2.24a2.69,2.69,0,0,1,2.5,0Z" fill="none" stroke="#333" stroke-linejoin="round" stroke-width="1.5"/>
    </g>
  </g>
</svg>
