<svg xmlns="http://www.w3.org/2000/svg" viewBox="0 0 64 64">
  <g id="doctor-white-male-coronavirus">
    <g>
      <g id="ae0261e7-e536-4a5d-8064-747271ff8f22">
        <g id="a9a29015-9638-4ce6-ac25-f2401cfa6bb5">
          <g id="b56f9025-ecfc-4ec7-9bee-65ab503a64ea">
            <g id="a5f7c93c-39bb-458d-bba5-efbba9ca2e53">
              <path d="M54.34,43.27,42,39.43H24L11.72,43.28a6,6,0,0,0-4.16,5L7,52.43c7.89,3.5,17.36,5,26,5s18.11-1.49,26-5l-.52-4.17A6,6,0,0,0,54.34,43.27Z" fill="#e0ebee"/>
              <path d="M59,52.43l-.29-2.38a6.11,6.11,0,0,0-3.57-2.81L42.38,43.43H23.68L10.9,47.27a6.13,6.13,0,0,0-3.57,2.78L7,52.43c7.89,3.5,17.36,5,26,5S51.14,55.93,59,52.43Z" fill="#cedde1"/>
              <path d="M29,57.3C28.39,56.23,24,47.83,24,39.43h0l-3.83,1.2L17,47.05l5,3-2.24,6.24A72.39,72.39,0,0,0,29,57.3Z" fill="#eaf2f3"/>
              <polyline points="20.2 40.62 17.03 47 22.03 50 19.8 56.25" fill="none" stroke="#c5d5d8" stroke-linejoin="round"/>
              <path d="M37.09,57.3C37.67,56.23,42,47.83,42,39.43h0l3.83,1.2L49,47.05l-5,3,2.24,6.24A72.59,72.59,0,0,1,37.09,57.3Z" fill="#eaf2f3"/>
              <polyline points="45.86 40.62 49.03 47 44.03 50 46.26 56.25" fill="none" stroke="#c5d5d8" stroke-linejoin="round"/>
              <path d="M37,57.42s5-9,5-18H24c0,9,5,18,5,18" fill="#6d797d" stroke="#343433" stroke-linejoin="round" stroke-width="1.5"/>
              <polygon points="39 42.44 33 47.43 27 42.44 27 35.44 39 35.44 39 42.44" fill="#e5c2ba"/>
              <path d="M33,57.43c1.21,0,2.44,0,3.67-.1-1-3.28-2.67-8.91-2.67-8.91H32l-2.67,8.91C30.59,57.39,31.82,57.43,33,57.43Z" fill="#4994c4" stroke="#343433" stroke-linejoin="round" stroke-width="1.5"/>
              <path d="M36.7,57.33c-1-3.28-2.67-8.91-2.67-8.91H32l-2.67,8.91" fill="none" stroke="#343433" stroke-miterlimit="10" stroke-width="1.5"/>
              <path d="M33.32,48.42l.21,3a.5.5,0,0,1-.45.53h0a.51.51,0,0,1-.53-.47v-.07l.21-3a.29.29,0,0,1,.31-.27h0A.3.3,0,0,1,33.32,48.42Z" fill="#343433"/>
              <polygon points="33.03 43.42 30.36 46.76 32.03 48.42 34.03 48.42 35.61 46.64 33.03 43.42" fill="#4994c4" stroke="#343433" stroke-linejoin="round" stroke-width="1.5"/>
              <path d="M26,36.42s1.53,3.51,7,7l-4,5c-3-3-5-7-5-9Z" fill="#6d797d" stroke="#343433" stroke-linejoin="round" stroke-width="1.5"/>
              <path d="M40,36.42s-1.53,3.51-7,7l4,5c3-3,5-7,5-9Z" fill="#6d797d" stroke="#343433" stroke-linejoin="round" stroke-width="1.5"/>
              <path d="M42,39.43l12.31,3.85a6,6,0,0,1,4.16,5L59,52.43c-7.89,3.5-17.36,5-26,5s-18.11-1.49-26-5l.52-4.17a6,6,0,0,1,4.16-5L24,39.43" fill="none" stroke="#343433" stroke-linejoin="round" stroke-width="1.5"/>
              <path d="M19,45.43s5,7,5,10c0,1.17-1,2-3,2" fill="none" stroke="#333" stroke-linejoin="round" stroke-width="1.5"/>
              <path d="M17,57.43c-2,0-3-.83-3-2,0-3,5-10,5-10" fill="none" stroke="#333" stroke-linejoin="round" stroke-width="1.5"/>
              <path d="M46.25,51.43v-11a3.83,3.83,0,0,0-3.65-4H40.25" fill="none" stroke="#333" stroke-linejoin="round" stroke-width="1.5"/>
              <path d="M19,46.43v-6a3.83,3.83,0,0,1,3.65-4H26" fill="none" stroke="#333" stroke-linejoin="round" stroke-width="1.5"/>
              <path d="M49.75,54.93a3.5,3.5,0,1,1-3.5-3.5A3.5,3.5,0,0,1,49.75,54.93Z" fill="#e0ebee"/>
              <circle cx="46.25" cy="54.93" r="1" fill="#333"/>
              <path d="M49.75,54.93a3.5,3.5,0,1,1-3.5-3.5A3.5,3.5,0,0,1,49.75,54.93Z" fill="none" stroke="#333" stroke-linejoin="round" stroke-width="1.5"/>
              <circle cx="17.03" cy="57.43" r="1" fill="#333"/>
              <circle cx="21.03" cy="57.43" r="1" fill="#333"/>
              <polyline points="27 38 27 35.44 39 35.44 39 38.07" fill="none" stroke="#333" stroke-linejoin="round" stroke-width="1.5"/>
              <path d="M33,40.25a8.51,8.51,0,0,1-3.5-.54c-3.41-1.82-6.82-5.81-6.82-8.2V29.45a4.85,4.85,0,0,1-2.86-3.77c-.47-2.25-.25-4.13,1.85-4.13v-3c0-5.16,3.16-10.32,11.36-10.32S44.4,13.54,44.4,18.7v3c2.07,0,2.31,1.77,1.83,4a4.9,4.9,0,0,1-2.86,3.74V31.5c0,2.4-3.38,6.39-6.82,8.2A8.79,8.79,0,0,1,33,40.25Z" fill="#edccc3"/>
              <path d="M44.39,21.7v-3c0-5.16-3.14-10.47-11.34-10.47a16.32,16.32,0,0,0-3.12.29V18.93c0,2.06-2.07,2.06-2.07,3.1A3.67,3.67,0,0,1,31,24.1h1.55a.52.52,0,0,1,.52.52V26.4a1.48,1.48,0,0,0,.61,1.21A1,1,0,0,1,33,29.48c-.76,0-.64-.52-1.68-.52a1.08,1.08,0,0,0-.88.47.2.2,0,0,0,0,.23.26.26,0,0,0,.19.13c1.65.06,1,.62,2.38.64v4.51a.52.52,0,0,0,.52.52h0a1.55,1.55,0,0,1,0,3.1H32a2,2,0,0,0-1.91,1.34,8.68,8.68,0,0,0,2.91.35,8.54,8.54,0,0,0,3.5-.54c3.45-1.81,6.82-5.8,6.82-8.2V29.44a4.9,4.9,0,0,0,2.86-3.74C46.7,23.46,46.45,21.7,44.39,21.7Z" fill="#e5c2ba"/>
              <path d="M42.36,23.69V26a2,2,0,0,1-.65,1.47l-1.38,1.29A4,4,0,0,0,39,31.65v6.4c2.42-2,4.34-4.72,4.34-6.52V29.45a4.9,4.9,0,0,0,2.86-3.74c.49-2.25.24-4-1.83-4A2.1,2.1,0,0,0,42.36,23.69Z" fill="#ddbbb6"/>
              <path d="M44.71,21.74h-.32v-3c0-5.16-3.14-10.47-11.34-10.47s-11.36,5.1-11.36,10.26v3a1.58,1.58,0,0,0-.38,0,11.69,11.69,0,0,1,1.21,2.92c.08.38,1,.58,1,.18,0-1.27.08-4.85.08-4.85,11.12,0,10.59-3.6,13.82-4.35.93,3.2,4.52,3.43,4.75,4,0-.1.36,4.26.37,4.37a.72.72,0,0,0,.65.65,15.2,15.2,0,0,1,1.52-2.77Z" fill="#e5c2ba"/>
              <path d="M44.71,21.74h-.32v-3c0-5.16-3.14-10.47-11.34-10.47a16.33,16.33,0,0,0-2.71.22V18.76a1.67,1.67,0,0,1-.06.44c4.4-1.07,4.75-3.15,7.12-3.69.93,3.2,4.52,3.43,4.75,4,.05-.1,0,4.51,0,4.61,0,.34.63.38,1,.4a15.2,15.2,0,0,1,1.52-2.77Z" fill="#d8b3ad"/>
              <path d="M25.64,28.79,24.3,27.48A2.09,2.09,0,0,1,23.67,26V24.23c0-.29-.5-2.69-2-2.69-2.1,0-2.32,1.88-1.85,4.13a4.85,4.85,0,0,0,2.86,3.77v2.07c0,1.76,1.85,4.38,4.19,6.37V31.75A4.14,4.14,0,0,0,25.64,28.79Z" fill="#e5c2ba"/>
              <path d="M34.44,32.4a2.81,2.81,0,0,0-1.22.14.64.64,0,0,1-.43,0,3,3,0,0,0-1.22-.14c-.69.1-.76.54-2.16,1.3l1.23.76a2.34,2.34,0,0,0,1.31.42h2.13a2.37,2.37,0,0,0,1.31-.42l1.27-.73C35.27,33,35.13,32.5,34.44,32.4Z" fill="#ddbab6"/>
              <path d="M36.66,33.86a3.72,3.72,0,0,1-1-.07,5.34,5.34,0,0,0-.88-.2,5.32,5.32,0,0,0-1.73.19h-.13a5.86,5.86,0,0,0-1.72-.18,6.54,6.54,0,0,0-.88.18,3.73,3.73,0,0,1-1,0,.14.14,0,0,1-.13-.15h0a.13.13,0,0,1,.13-.13,5,5,0,0,0,.86-.16,6.72,6.72,0,0,1,.9-.28A4.78,4.78,0,0,1,33,33.2h-.12a5,5,0,0,1,1.93-.07,9.8,9.8,0,0,0,1.77.46.13.13,0,0,1,.13.13h0A.13.13,0,0,1,36.66,33.86Z" fill="#af8582"/>
              <path d="M30.5,29.9a2.27,2.27,0,0,1,1.26.38h0a2.28,2.28,0,0,0,2.53,0h0a2.25,2.25,0,0,1,1.26-.38" fill="none" stroke="#af8582" stroke-linecap="round" stroke-miterlimit="10" stroke-width="0.75"/>
              <path d="M21.5,18.23v3.38a1.29,1.29,0,0,1,1.29.71v-2.8c0-7.59,3.45-11.23,13.06-11.49a11.68,11.68,0,0,1,2.77.19,13.85,13.85,0,0,0-5.76-1C24.9,7.13,21.5,11.67,21.5,18.23Z" fill="#545250"/>
              <path d="M33,40.25a8.51,8.51,0,0,1-3.5-.54c-3.41-1.82-6.82-5.81-6.82-8.2V29.45a4.85,4.85,0,0,1-2.86-3.77c-.47-2.25-.25-4.13,1.85-4.13v-3c0-5.16,3.16-10.32,11.36-10.32S44.4,13.54,44.4,18.7v3c2.07,0,2.31,1.77,1.83,4a4.9,4.9,0,0,1-2.86,3.74V31.5c0,2.4-3.38,6.39-6.82,8.2A8.79,8.79,0,0,1,33,40.25Z" fill="none" stroke="#333" stroke-linecap="round" stroke-linejoin="round" stroke-width="1.5"/>
              <path d="M41.42,9.47c0-5.16-15.06-4.25-18.06-1.29h2.07a9.83,9.83,0,0,0-4.9,11.87c.54,1.58,2.07,2.58,2.07,5.68v-7c12.54-.07,10.32-4.89,16-4.89,0,4.39,4.65,3.55,4.65,5.68v6.19c0-3.1,1.52-3.59,2.07-5.38C46.08,17.41,46.33,9.47,41.42,9.47Z" fill="#e2b074"/>
              <path d="M41.42,9.47c-2.08-1.26-7.27-1.42-10.62.45a14.46,14.46,0,0,1,8.29.36c-4.67-.8-8.62,2.68-12.36,3.79,2.91-.58,7.49-.83,10.18-2.09-3.08,1.35-9.18,6.21-13.81,6.24,10.27.29,10.26-3.47,15.48-4.36,0,4.39,4.65,3.55,4.65,5.68v6.19c0-3.1,1.52-3.59,2.07-5.38C46.08,17.41,46.33,9.47,41.42,9.47Z" fill="#cc9a64"/>
              <path d="M23.36,8.18h2.07a9.83,9.83,0,0,0-4.9,11.87,10.51,10.51,0,0,0,1,1.87,11.75,11.75,0,0,1,6-12.45H26.22c2.42-2.42,10.27-3.1,15.11-.74C39.91,4.41,26.2,5.38,23.36,8.18Z" fill="#efc08e"/>
              <path d="M41.28,11.33A1.75,1.75,0,0,1,41,12.59a1.7,1.7,0,0,1-1.12.68A1.66,1.66,0,0,1,40.18,12,1.69,1.69,0,0,1,41.28,11.33Z" fill="#e2b074"/>
              <path d="M22.24,25.74c-.08-2.33-.16-4.65-.21-7a.53.53,0,0,1,.51-.55h0l2.15-.14c.69-.08,1.39-.14,2.08-.24a16.27,16.27,0,0,0,4-1,15.5,15.5,0,0,0,3.43-2.22,6.65,6.65,0,0,1,2-1.09,7.43,7.43,0,0,1,2.34-.32.69.69,0,0,1,.72.68h0a3.07,3.07,0,0,0,1.06,2.58,8.12,8.12,0,0,0,1.38.85,4.87,4.87,0,0,1,1.64,1.13,1.83,1.83,0,0,1,.3.55,3.78,3.78,0,0,1,.08.6v.88l0,1.76-.12,3.52a.35.35,0,0,1-.35.33h0a.35.35,0,0,1-.33-.33l-.12-3.52V19.53a.7.7,0,0,0-.18-.46,4.19,4.19,0,0,0-1.29-.75,7.9,7.9,0,0,1-1.66-.92,3.92,3.92,0,0,1-1.29-1.62,5.54,5.54,0,0,1-.41-2l.72.72A5.48,5.48,0,0,0,35,15.77c-.54.4-1.11.88-1.75,1.29a11.32,11.32,0,0,1-2,1,17.92,17.92,0,0,1-4.33,1c-.73.08-1.45.12-2.18.16H22.6l.55-.55c0,2.33-.13,4.65-.21,7a.35.35,0,0,1-.35.33h0A.33.33,0,0,1,22.24,25.74Z" fill="#bc8957"/>
              <path d="M42.88,25.74a6.68,6.68,0,0,1,.37-2.47,11.89,11.89,0,0,1,1.19-2.12,4,4,0,0,0,.41-1c.08-.36.15-.73.2-1.11a17.65,17.65,0,0,0,.15-2.3,11.73,11.73,0,0,0-.74-4.43,4.39,4.39,0,0,0-1.21-1.65,3.11,3.11,0,0,0-1.84-.57h0a.63.63,0,0,1-.6-.63c0-1.29-1.51-2.11-3-2.48A18,18,0,0,0,33,6.52a25.61,25.61,0,0,0-4.86.5,16.92,16.92,0,0,0-2.32.63,5.82,5.82,0,0,0-1.93,1l-.5-1.22h2.06a.69.69,0,0,1,.3,1.31,9.29,9.29,0,0,0-5.14,7.43,8.55,8.55,0,0,0,.08,2.37A9.25,9.25,0,0,0,21,19.7a4.73,4.73,0,0,0,.46,1.06,13.14,13.14,0,0,1,1.16,2.31A7.44,7.44,0,0,1,23,25.68a.35.35,0,0,1-.35.34.34.34,0,0,1-.34-.34,6.83,6.83,0,0,0-.44-2.33,11.94,11.94,0,0,0-1.2-2.12A5.92,5.92,0,0,1,20,20.05a9.62,9.62,0,0,1-.33-1.28,9.69,9.69,0,0,1-.17-2.63,10.23,10.23,0,0,1,1.66-5,10.38,10.38,0,0,1,3.93-3.57l.31,1.3H23.37a.7.7,0,0,1-.71-.69h0a.71.71,0,0,1,.22-.52,7,7,0,0,1,2.43-1.41,14.83,14.83,0,0,1,2.53-.7A27.31,27.31,0,0,1,33,5.05a19.24,19.24,0,0,1,5.18.62,7.53,7.53,0,0,1,2.5,1.17A3.31,3.31,0,0,1,42,9.49l-.63-.63A4.46,4.46,0,0,1,44,9.75a5.8,5.8,0,0,1,1.53,2.16,12.84,12.84,0,0,1,.72,4.88A16.69,16.69,0,0,1,46,19.22c-.07.4-.16.8-.27,1.21a5.27,5.27,0,0,1-.55,1.18,12.28,12.28,0,0,0-1.22,2,6,6,0,0,0-.42,2.18.35.35,0,0,1-.35.34A.37.37,0,0,1,42.88,25.74Z" fill="#333"/>
              <path d="M31.34,24.66a2.42,2.42,0,0,1,2.91,0" fill="none" stroke="#333" stroke-miterlimit="10" stroke-width="1.02"/>
              <path d="M25,23.15h4.83a1.37,1.37,0,0,1,1,.41,1.52,1.52,0,0,1,.2,1.92l-1.12,1.68a2,2,0,0,1-1.6.86H26.23a2.72,2.72,0,0,1-2.72-2.69v-.65a1.5,1.5,0,0,1,1.5-1.5h0Z" fill="#dbd4d7"/>
              <path d="M40.54,23.15h-4.8a1.34,1.34,0,0,0-1,.41,1.52,1.52,0,0,0-.2,1.92l1.13,1.69a2,2,0,0,0,1.6.85h2.11A2.72,2.72,0,0,0,42.1,25.3h0v-.64a1.49,1.49,0,0,0-1.49-1.49h0Z" fill="#dbd4d7"/>
              <path d="M25,23.15h4.83a1.37,1.37,0,0,1,1,.41,1.52,1.52,0,0,1,.2,1.92l-1.12,1.68a2,2,0,0,1-1.6.86H26.23a2.72,2.72,0,0,1-2.72-2.69v-.65a1.5,1.5,0,0,1,1.5-1.5h0Z" fill="none" stroke="#333" stroke-linejoin="round" stroke-width="1.02"/>
              <path d="M40.54,23.15h-4.8a1.34,1.34,0,0,0-1,.41,1.52,1.52,0,0,0-.2,1.92l1.13,1.69a2,2,0,0,0,1.6.85h2.11A2.72,2.72,0,0,0,42.1,25.3h0v-.64a1.49,1.49,0,0,0-1.49-1.49h0Z" fill="none" stroke="#333" stroke-linejoin="round" stroke-width="1.02"/>
              <circle cx="28.15" cy="25.23" r="0.75" fill="#6c7881"/>
              <circle cx="37.44" cy="25.23" r="0.75" fill="#6c7881"/>
            </g>
          </g>
        </g>
      </g>
      <g id="a9322e53-a6b4-406b-a8ee-27c244e2f832">
        <path d="M38.59,29.25a5.44,5.44,0,0,1,2.34,7.34,5.57,5.57,0,0,1-.7,1c-.85,1-6.73,9.73-14.95,0a5.45,5.45,0,0,1,.64-7.68,5.76,5.76,0,0,1,1-.68l4.53-2.34a2.82,2.82,0,0,1,2.62,0Z" fill="#fff"/>
        <path d="M24.83,31.21a23,23,0,0,1-3.75-9.3" fill="#fff" stroke="#333" stroke-linecap="round" stroke-linejoin="round" stroke-width="1.5"/>
        <path d="M41,31.21a23,23,0,0,0,3.75-9.3" fill="#fff" stroke="#333" stroke-linecap="round" stroke-linejoin="round" stroke-width="1.5"/>
        <line x1="23.99" y1="33.97" x2="22.35" y2="33.07" fill="none" stroke="#333" stroke-linecap="round" stroke-linejoin="round" stroke-width="1.5"/>
        <line x1="41.79" y1="33.97" x2="43.43" y2="33.07" fill="none" stroke="#333" stroke-linecap="round" stroke-linejoin="round" stroke-width="1.5"/>
        <path d="M38.59,29.25l-4.51-2.34a2.82,2.82,0,0,0-2.62,0l-4.53,2.34a5.4,5.4,0,0,0-2.77,3.52A5.59,5.59,0,0,0,25.28,35c8.22,9.74,14.1,1,14.95,0a5.48,5.48,0,0,0,1.14-2.19A5.39,5.39,0,0,0,38.59,29.25Z" fill="#fff"/>
        <path d="M38.59,29.25l-4.51-2.34a2.72,2.72,0,0,0-1.18-.3h0v8c0,2.06,2.2,1.61.86,4.11-2,3.84-7.08-2.89-7.08.41,0,.12,3,2.09,2.95,2.2,5.9,3.07,9.93-2.86,10.62-3.68a5.44,5.44,0,0,0-.6-7.68A5.52,5.52,0,0,0,38.59,29.25Z" fill="#eee"/>
        <path d="M24.19,32.68A19,19,0,0,0,32.9,35a17.24,17.24,0,0,0,8.44-2.27" fill="none" stroke="#ddd" stroke-miterlimit="10"/>
        <path d="M24.19,34.9a18.93,18.93,0,0,0,8.71,2.28,17.25,17.25,0,0,0,8.44-2.28" fill="none" stroke="#ddd" stroke-miterlimit="10"/>
        <path d="M38.59,29.25a5.44,5.44,0,0,1,2.34,7.34,5.57,5.57,0,0,1-.7,1c-.85,1-6.73,9.73-14.95,0a5.45,5.45,0,0,1,.64-7.68,5.76,5.76,0,0,1,1-.68l4.53-2.34a2.82,2.82,0,0,1,2.62,0Z" fill="none" stroke="#333" stroke-linejoin="round" stroke-width="1.5"/>
      </g>
    </g>
  </g>
</svg>
