<svg xmlns="http://www.w3.org/2000/svg" viewBox="0 0 64 64">
  <g id="nurse-white-male-coronavirus">
    <g>
      <g id="b7baac30-2215-48df-953a-763bd05a7cbe">
        <g id="bb704753-8089-4824-a59d-182af937f861">
          <g id="a93e6c96-dbf9-4f98-b420-edf474f264b3">
            <g id="f2025ec5-99fb-43ee-ab65-cbe2c9fee4ca">
              <rect x="25.56" y="35.72" width="15" height="10.31" fill="#e5c2ba"/>
              <path d="M57.79,49.91c-.31-2.29-2-3.66-4.42-4.64L41,40.2a66.07,66.07,0,0,1-8.13,5.87S26.6,41.66,25,40.24L12.72,45.31c-2.4,1-4.11,2.35-4.42,4.64l-.27,2a62.31,62.31,0,0,0,50,0h0Z" fill="#d362a4"/>
              <polygon points="25.56 35.72 25.56 37.66 34.46 45.05 40.56 40.6 40.56 35.72 25.56 35.72" fill="#d8b3ad"/>
              <path d="M41,43.78l12.34,5.06a7,7,0,0,1,4,3.35l.61-.25-.24-2c-.31-2.29-2-3.66-4.42-4.64L41,40.2c-.82.69-1.66,1.34-2.5,2A14.07,14.07,0,0,0,41,43.78Z" fill="#e87cbf"/>
              <path d="M12.72,48.89,25,43.78a11.91,11.91,0,0,0,2.34-1.71c-1-.75-1.88-1.43-2.34-1.85L12.72,45.31c-2.4,1-4.11,2.35-4.42,4.64l-.27,2,.66.27A7,7,0,0,1,12.72,48.89Z" fill="#e87cbf"/>
              <path d="M57.79,49.91c-.31-2.29-2-3.66-4.42-4.64L41,40.2a66.07,66.07,0,0,1-8.13,5.87S26.6,41.66,25,40.24L12.72,45.31c-2.4,1-4.11,2.35-4.42,4.64l-.27,2a62.31,62.31,0,0,0,50,0h0Z" fill="none" stroke="#333" stroke-linecap="round" stroke-linejoin="round" stroke-width="1.5"/>
              <line x1="25.56" y1="36.42" x2="25.56" y2="40.64" fill="none" stroke="#333" stroke-linecap="round" stroke-linejoin="round" stroke-width="1.5"/>
              <line x1="40.56" y1="36.42" x2="40.56" y2="40.61" fill="none" stroke="#333" stroke-linecap="round" stroke-linejoin="round" stroke-width="1.5"/>
              <path d="M33,40.2a8.34,8.34,0,0,1-3.39-.52C26.34,37.92,23,34.07,23,31.74v-2a4.72,4.72,0,0,1-2.77-3.67c-.46-2.18-.24-4,1.79-4v-2.9c0-5,3.06-10,11-10s11,5.14,11,10.14v2.92c2,0,2.24,1.71,1.77,3.89A4.75,4.75,0,0,1,43,29.74v2c0,2.32-3.27,6.19-6.61,7.94A8.34,8.34,0,0,1,33,40.2Z" fill="#edccc3"/>
              <path d="M44,22.23V19.31c0-5-3-10.14-11-10.14a14.48,14.48,0,0,0-2.46.19v10c0,2-2,2-2,3a3.53,3.53,0,0,1,3,2h1.5a.5.5,0,0,1,.5.5v1.72a1.47,1.47,0,0,0,.59,1.17,1,1,0,0,1,.22,1.39,1,1,0,0,1-.81.42c-.74,0-.62-.5-1.62-.5a1,1,0,0,0-.85.45.22.22,0,0,0,0,.22.25.25,0,0,0,.19.12c1.6.06,1,.61,2.3.62v4.4a.5.5,0,0,0,.5.5,1.5,1.5,0,0,1,0,3h-1.5A2,2,0,0,0,30.65,40a8.29,8.29,0,0,0,2.38.22,8.34,8.34,0,0,0,3.39-.52c3.34-1.75,6.61-5.6,6.61-7.94v-2a4.76,4.76,0,0,0,2.77-3.66C46.27,23.94,46,22.23,44,22.23Z" fill="#e5c2ba"/>
              <path d="M44,22.23V19.31c0-5-3-10.14-11-10.14s-11,5-11,10v2.9a.74.74,0,0,0-.21,0A11.49,11.49,0,0,1,23,25c.08.37,1,.56.94.18,0-1.23.08-4.7.08-4.7,10.77,0,10.26-3.49,13.38-4.21.9,3.09,4.38,3.32,4.6,3.87,0-.1.35,4.13.35,4.23A.69.69,0,0,0,43,25a13.93,13.93,0,0,1,1.47-2.68A2.3,2.3,0,0,0,44,22.23Z" fill="#e5c2ba"/>
              <path d="M30.59,9.36h0v10a1.65,1.65,0,0,1-.06.43c4.26-1,4.6-3.05,6.89-3.58.9,3.09,4.38,3.32,4.6,3.87v4.46c0,.33.61.36.95.39a14.55,14.55,0,0,1,1.47-2.68,3.53,3.53,0,0,0-.46,0V19.3c0-5-3-10.14-11-10.14a11.13,11.13,0,0,0-1.29.05Z" fill="#d8b3ad"/>
              <path d="M25.87,29.07l-1.29-1.26A2,2,0,0,1,24,26.37v-1.7c0-.28-.48-2.6-1.91-2.6-2,0-2.25,1.82-1.79,4A4.74,4.74,0,0,0,23,29.74v2c0,1.7,1.8,4.24,4.06,6.17V32A4,4,0,0,0,25.87,29.07Z" fill="#e5c2ba"/>
              <path d="M42,24.14v2.19a2,2,0,0,1-.63,1.42L40.06,29a3.92,3.92,0,0,0-1.26,2.85v6.21c2.38-2,4.23-4.59,4.23-6.34v-2a4.73,4.73,0,0,0,2.77-3.66c.47-2.18.23-3.89-1.77-3.89A2.06,2.06,0,0,0,42,24.14Z" fill="#d8b3ad"/>
              <path d="M34.9,32.59a2.63,2.63,0,0,0-1.18.13.75.75,0,0,1-.42,0,2.78,2.78,0,0,0-1.18-.13c-.67.1-.74.52-2.09,1.25l1.19.73a2.37,2.37,0,0,0,1.27.41h2.07a2.31,2.31,0,0,0,1.27-.41l1.2-.7C35.7,33.14,35.57,32.69,34.9,32.59Z" fill="#ddbab6"/>
              <path d="M37,33.87c-1,0-1.26-.39-2.24-.39a6.16,6.16,0,0,0-1.29.17,6.25,6.25,0,0,0-1.29-.17c-.94,0-1.15.36-2.21.36" fill="none" stroke="#af8582" stroke-linecap="round" stroke-miterlimit="10" stroke-width="0.6"/>
              <path d="M31,30.17a2.21,2.21,0,0,1,1.22.37h0a2.26,2.26,0,0,0,2.45,0h0a2.21,2.21,0,0,1,1.22-.37" fill="none" stroke="#af8582" stroke-linecap="round" stroke-miterlimit="10" stroke-width="0.75"/>
              <path d="M22,18.87v3.27a1.26,1.26,0,0,1,1.25.69V20.12c0-7.35,3.34-10.88,12.65-11.13a11.44,11.44,0,0,1,2.68.18,13.67,13.67,0,0,0-5.58-1C25.32,8.12,22,12.52,22,18.87Z" fill="#545250"/>
              <path d="M33,40.2a8.34,8.34,0,0,1-3.39-.52C26.34,37.92,23,34.07,23,31.74v-2a4.72,4.72,0,0,1-2.77-3.67c-.46-2.18-.24-4,1.79-4v-2.9c0-5,3.06-10,11-10s11,5.14,11,10.14v2.92c2,0,2.24,1.71,1.77,3.89A4.75,4.75,0,0,1,43,29.74v2c0,2.32-3.27,6.19-6.61,7.94A8.34,8.34,0,0,1,33,40.2Z" fill="none" stroke="#333" stroke-linecap="round" stroke-linejoin="round" stroke-width="1.5"/>
              <path d="M41.32,10.39c0-5-14.59-4.12-17.49-1.25h2a9.53,9.53,0,0,0-4.75,11.5c.52,1.53,2,2.5,2,5.5V19.38c12.15-.07,10-4.74,15.49-4.74,0,4.25,4.5,3.44,4.5,5.5v6c0-3,1.47-3.48,2-5.21C45.84,18.07,46.08,10.39,41.32,10.39Z" fill="#a8774a"/>
              <path d="M41.32,10.39c-2-1.22-7-1.41-10.28.44a13.9,13.9,0,0,1,8,.35c-4.53-.77-8.35,2.59-12,3.67,2.82-.56,7.25-.81,9.86-2-3,1.31-8.89,6-13.37,6,10,.28,9.93-3.36,15-4.22,0,4.25,4.5,3.44,4.5,5.5v6c0-3,1.47-3.48,2-5.21C45.84,18.07,46.08,10.39,41.32,10.39Z" fill="#875f3e"/>
              <path d="M23.83,9.14h2a9.53,9.53,0,0,0-4.75,11.5,10,10,0,0,0,1,1.81,11.4,11.4,0,0,1,5.76-12.06H26.59c2.34-2.31,10-3,14.63-.72C39.86,5.49,26.58,6.42,23.83,9.14Z" fill="#bc885e"/>
              <path d="M41.19,12.19a1.65,1.65,0,0,1-.25,1.22,1.69,1.69,0,0,1-1.08.66,1.6,1.6,0,0,1,.26-1.24A1.51,1.51,0,0,1,41.19,12.19Z" fill="#a8774a"/>
              <path d="M25.5,23.44A6.19,6.19,0,0,1,27,22.89a6,6,0,0,1,1.58-.09,10,10,0,0,1,2.82,1h0a.24.24,0,0,1,.12.3.23.23,0,0,1-.23.14,11.88,11.88,0,0,1-1.46-.18c-.47-.09-.93-.14-1.37-.21a7.48,7.48,0,0,0-2.75.06h0a.24.24,0,0,1-.27-.18A.22.22,0,0,1,25.5,23.44Z" fill="#333"/>
              <path d="M40.44,23.87a7.07,7.07,0,0,0-2.75-.06c-.45.07-.9.12-1.37.21a14.77,14.77,0,0,1-1.48.26.22.22,0,0,1-.24-.2h0v0a.24.24,0,0,1,.14-.23h0a10,10,0,0,1,2.82-1,7,7,0,0,1,1.58.09,5.3,5.3,0,0,1,1.45.55.23.23,0,0,1,.13.3.23.23,0,0,1-.3.13h0Z" fill="#333"/>
              <circle cx="28.57" cy="25.53" r="0.71" fill="#333"/>
              <circle cx="37.53" cy="25.53" r="0.71" fill="#333"/>
              <path d="M22.74,26.14c-.08-2.25-.16-4.51-.21-6.76a.53.53,0,0,1,.51-.55h0l2-.11c.67-.08,1.35-.14,2-.23a16.8,16.8,0,0,0,3.82-1,15.11,15.11,0,0,0,3.32-2.15,6.41,6.41,0,0,1,2-1.1,7.34,7.34,0,0,1,2.28-.31.69.69,0,0,1,.72.67v0h0a3,3,0,0,0,1,2.49,8.19,8.19,0,0,0,1.33.82,4.51,4.51,0,0,1,1.72,1.14,1.57,1.57,0,0,1,.29.54,3.81,3.81,0,0,1,.08.59v2.54l-.12,3.4a.35.35,0,0,1-.69,0l-.12-3.4V20.19a.67.67,0,0,0-.17-.44,4.31,4.31,0,0,0-1.39-.69,7.67,7.67,0,0,1-1.61-.89,3.8,3.8,0,0,1-1.26-1.57,5.09,5.09,0,0,1-.4-1.93l.72.72a5.38,5.38,0,0,0-3.4,1.17c-.53.39-1.08.85-1.7,1.25a10.1,10.1,0,0,1-2,1,16.39,16.39,0,0,1-4.2,1c-.7.08-1.41.11-2.11.15h-2.1l.55-.55c-.05,2.25-.13,4.51-.21,6.76a.34.34,0,0,1-.35.33h0a.31.31,0,0,1-.31-.31A.43.43,0,0,1,22.74,26.14Z" fill="#875f3e"/>
              <path d="M42.73,26.14a6.51,6.51,0,0,1,.36-2.4,12.6,12.6,0,0,1,1.15-2.06,4.29,4.29,0,0,0,.4-.94c.08-.35.14-.71.19-1.08a18.49,18.49,0,0,0,.2-2.22,11.34,11.34,0,0,0-.72-4.28,4.28,4.28,0,0,0-1.16-1.59,3,3,0,0,0-1.82-.5h0a.63.63,0,0,1-.6-.63c0-1.23-1.45-2-2.9-2.38a18.1,18.1,0,0,0-4.64-.45,24.73,24.73,0,0,0-4.7.48,17.78,17.78,0,0,0-2.25.6,5.64,5.64,0,0,0-1.87,1l-.5-1.22h2a.69.69,0,0,1,.3,1.31,9.08,9.08,0,0,0-3.44,2.89,8.78,8.78,0,0,0-1.56,4.25,8.45,8.45,0,0,0,.07,2.3,9.15,9.15,0,0,0,.25,1.13,4.23,4.23,0,0,0,.44,1A12.43,12.43,0,0,1,23,23.61a7.22,7.22,0,0,1,.36,2.53.35.35,0,0,1-.35.34.34.34,0,0,1-.34-.34,6.61,6.61,0,0,0-.43-2.25,12.15,12.15,0,0,0-1.16-2.05,4.79,4.79,0,0,1-.56-1.19,9,9,0,0,1-.32-1.24,9.2,9.2,0,0,1-.16-2.56,10.13,10.13,0,0,1,5.42-8.32l.31,1.3h-2a.7.7,0,0,1-.71-.69h0a.71.71,0,0,1,.22-.52,6.68,6.68,0,0,1,2.36-1.37,15.1,15.1,0,0,1,2.45-.68,25.47,25.47,0,0,1,5-.51,18.32,18.32,0,0,1,5,.61,7.05,7.05,0,0,1,2.42,1.13,3.23,3.23,0,0,1,1.37,2.58l-.63-.63a4.26,4.26,0,0,1,2.52.86,5.47,5.47,0,0,1,1.48,2.1A12.41,12.41,0,0,1,46,17.46a17.12,17.12,0,0,1-.22,2.36c-.07.39-.15.78-.26,1.18A4.7,4.7,0,0,1,45,22.14a13.89,13.89,0,0,0-1.23,1.92,5.65,5.65,0,0,0-.4,2.11.33.33,0,0,1-.33.33h0A.34.34,0,0,1,42.73,26.14Z" fill="#333"/>
              <path d="M46.62,52.46v-11a3.82,3.82,0,0,0-3.65-4H40.62" fill="none" stroke="#333" stroke-linejoin="round" stroke-width="1.5"/>
              <path d="M19.4,47V41.47a3.82,3.82,0,0,1,3.65-4h2.51" fill="none" stroke="#333" stroke-linejoin="round" stroke-width="1.5"/>
              <path d="M50.12,56a3.5,3.5,0,1,1-3.5-3.5h0A3.5,3.5,0,0,1,50.12,56Z" fill="#e0ebee"/>
              <circle cx="46.62" cy="55.96" r="1" fill="#333"/>
              <path d="M50.12,56a3.5,3.5,0,1,1-3.5-3.5h0A3.5,3.5,0,0,1,50.12,56Z" fill="none" stroke="#333" stroke-linejoin="round" stroke-width="1.5"/>
              <circle cx="17.4" cy="58.46" r="1" fill="#333"/>
              <circle cx="21.4" cy="58.46" r="1" fill="#333"/>
              <path d="M17.4,58.46c-2,0-3-.83-3-2,0-3,5-10,5-10s5,7,5,10c0,1.17-1,2-3,2" fill="none" stroke="#333" stroke-linejoin="round" stroke-width="1.5"/>
            </g>
          </g>
        </g>
      </g>
      <g id="a64310cf-a5b4-4797-b39f-f73cf32fe4b3">
        <path d="M38.73,28.79a5.45,5.45,0,0,1,2.33,7.35,5.15,5.15,0,0,1-.69,1c-.86,1-6.73,9.74-14.95,0a5.44,5.44,0,0,1,.64-7.68,5.26,5.26,0,0,1,1-.68l4.53-2.34a2.82,2.82,0,0,1,2.62,0Z" fill="#fff"/>
        <path d="M25,30.75a22.94,22.94,0,0,1-3.75-9.29" fill="#fff" stroke="#333" stroke-linecap="round" stroke-linejoin="round" stroke-width="1.5"/>
        <path d="M41.09,30.75a22.94,22.94,0,0,0,3.75-9.29" fill="#fff" stroke="#333" stroke-linecap="round" stroke-linejoin="round" stroke-width="1.5"/>
        <line x1="24.13" y1="33.52" x2="22.49" y2="32.61" fill="none" stroke="#333" stroke-linecap="round" stroke-linejoin="round" stroke-width="1.5"/>
        <line x1="41.93" y1="33.52" x2="43.57" y2="32.61" fill="none" stroke="#333" stroke-linecap="round" stroke-linejoin="round" stroke-width="1.5"/>
        <path d="M38.73,28.79l-4.51-2.33a2.82,2.82,0,0,0-2.62,0L27.07,28.8a5.4,5.4,0,0,0-2.77,3.52,5.46,5.46,0,0,0,1.12,2.18c8.22,9.74,14.1,1,14.95,0a5.33,5.33,0,0,0,1.13-2.19A5.42,5.42,0,0,0,38.73,28.79Z" fill="#fff"/>
        <path d="M38.73,28.79l-4.51-2.33a2.72,2.72,0,0,0-1.18-.3h0v8c0,2.06,2.2,1.61.86,4.11-2.05,3.84-7.08-2.89-7.08.41,0,.12,3,2.09,2.95,2.2,5.9,3.07,9.92-2.86,10.62-3.67a5.47,5.47,0,0,0-.6-7.69A6.11,6.11,0,0,0,38.73,28.79Z" fill="#eee"/>
        <path d="M24.33,32.22A19,19,0,0,0,33,34.5a17.29,17.29,0,0,0,8.45-2.28" fill="none" stroke="#ddd" stroke-miterlimit="10"/>
        <path d="M24.33,34.45A18.83,18.83,0,0,0,33,36.72a17.28,17.28,0,0,0,8.45-2.27" fill="none" stroke="#ddd" stroke-miterlimit="10"/>
        <path d="M38.73,28.79a5.45,5.45,0,0,1,2.33,7.35,5.15,5.15,0,0,1-.69,1c-.86,1-6.73,9.74-14.95,0a5.44,5.44,0,0,1,.64-7.68,5.26,5.26,0,0,1,1-.68l4.53-2.34a2.82,2.82,0,0,1,2.62,0Z" fill="none" stroke="#333" stroke-linejoin="round" stroke-width="1.5"/>
      </g>
    </g>
  </g>
</svg>
