<svg xmlns="http://www.w3.org/2000/svg" viewBox="0 0 64 64">
  <g id="pharmacist-white-male-coronavirus">
    <g>
      <g id="b4db5e4a-bdb8-4791-9517-5ecce9391611">
        <g id="b9813081-34ab-4e18-91c3-2d791393ef84">
          <g id="b0fca442-d738-490a-b3aa-decf7ac1b195">
            <g id="f545a93d-833d-46a8-8108-0da00f70eeaa">
              <path d="M10.24,37h0a2.12,2.12,0,0,1-2.08-2.08V30.63a2.12,2.12,0,0,1,2.08-2.08h0a2.12,2.12,0,0,1,2.08,2.08v4.24A2.12,2.12,0,0,1,10.24,37Z" fill="#c66161"/>
              <path d="M10.24,28.55a2.12,2.12,0,0,0-2.08,2.08v2.12h4.16V30.63A2.12,2.12,0,0,0,10.24,28.55Z" fill="#4ba6dd"/>
              <path d="M9.78,31.36V35.6a2,2,0,0,0,.52,1.34,2.13,2.13,0,0,0,2-2.07V30.63a2,2,0,0,0-.52-1.34A2.09,2.09,0,0,0,9.78,31.36Z" fill="#b74242"/>
              <path d="M9.78,31.36v1.39h2.54V30.63a2,2,0,0,0-.52-1.34A2.09,2.09,0,0,0,9.78,31.36Z" fill="#2f8dd3"/>
              <path d="M57.53,47.5A5.63,5.63,0,0,0,53,43.05c-1.33-.33-4.71-1.16-8.5-2-1.84-.41-3.7-.72-5.56-1V35.48H24v4.57a43.08,43.08,0,0,0-5.42,1l-8.52,2a5.63,5.63,0,0,0-4.5,4.5L5,50.05a65.46,65.46,0,0,0,26.53,5.5A65.51,65.51,0,0,0,58,50.05Z" fill="#d8b3ad"/>
              <line x1="23.97" y1="35.48" x2="23.97" y2="41.43" fill="none" stroke="#333" stroke-linejoin="round" stroke-width="1.5"/>
              <line x1="38.97" y1="35.48" x2="38.97" y2="41.43" fill="none" stroke="#333" stroke-linejoin="round" stroke-width="1.5"/>
              <path d="M57.53,47.5A5.63,5.63,0,0,0,53,43.05c-9.5-2.38-12.44-2.82-15.67-3.15a15.2,15.2,0,0,1-4.76,3.15H30.41a15.24,15.24,0,0,1-4.75-3.26c-2.39.26-4.86.51-15.63,3.26a5.63,5.63,0,0,0-4.5,4.5L5,50.05a65.46,65.46,0,0,0,26.53,5.5A65.51,65.51,0,0,0,58,50.05Z" fill="#eee"/>
              <path d="M53,46.59c-19.23-4.81-25.16-4.47-43,0a6.67,6.67,0,0,0-4.7,3.55A66.25,66.25,0,0,0,31.56,55.5a66.69,66.69,0,0,0,26.17-5.35A6.59,6.59,0,0,0,53,46.59Z" fill="#ddd"/>
              <path d="M37.4,39.82a15.14,15.14,0,0,1-4.79,3.28H30.42a15.24,15.24,0,0,1-4.75-3.26c-1.12.1-2.23.21-3.34.36.2,6.71,1.08,11,2.93,15h0c2,.19,4.23.3,6.31.3h0c2,0,4.12-.1,6.24-.3h0c1.84-3.94,2.73-8.28,2.93-15C39.52,40.05,38.4,39.9,37.4,39.82Z" fill="#bcdaf7"/>
              <path d="M31.56,55.5q2.44,0,4.83-.18C33.54,46.63,34,48,33.59,46.79l1.57-2.07a1.22,1.22,0,0,0,0-1.43,1.29,1.29,0,0,0-1.07-.53H30.85a1.23,1.23,0,0,0-1.14.78,1.29,1.29,0,0,0,.21,1.24l1.5,2-3,8.64C29.46,55.47,30.51,55.5,31.56,55.5Z" fill="#91acc1"/>
              <path d="M37.37,48.87l.64.85a.52.52,0,0,0,.19.14.5.5,0,0,0,.65-.28h0L41,40.82Z" fill="#91acc1"/>
              <path id="e5146203-309b-4731-b9f7-d718e40f5d9f" d="M30.41,43.05,25.88,49s.19.32.41.72c.34.63.73.17.74.16.56-.74,4.51-6.31,4.51-6.31Z" fill="#91acc1"/>
              <path id="e8f7489d-d3d1-4bce-a4cb-4a3bcdee6ccb" d="M29,44.42l1.82,2.42a.81.81,0,0,0,1.13.24l.05,0a1.21,1.21,0,0,0,.16-.16L34,44.42a.83.83,0,0,0-.17-1.16h0a.72.72,0,0,0-.49-.16H29.71a.83.83,0,0,0-.85.81h0A.87.87,0,0,0,29,44.42Z" fill="#5e748e"/>
              <path d="M29.71,43.05h-.08l1.23,1.63a.84.84,0,0,0,1.15.17h0a1.21,1.21,0,0,0,.16-.16l1.23-1.63Z" fill="#475b77"/>
              <path id="a0333c1a-0532-4664-af6d-440318db50d3" d="M29,44.42l1.82,2.42a.81.81,0,0,0,1.13.24l.05,0a1.21,1.21,0,0,0,.16-.16L34,44.42a.83.83,0,0,0-.17-1.16h0a.72.72,0,0,0-.49-.16H29.71a.83.83,0,0,0-.85.81h0A.87.87,0,0,0,29,44.42Z" fill="none" stroke="#333" stroke-linejoin="round"/>
              <path d="M28,55.4c1.18.06,2.37.1,3.57.1s2.37,0,3.54-.09l-3-8.52H30.92Z" fill="#5e748e"/>
              <path d="M29.48,55.46h2.05c1.15,0,2.44,0,3.57-.09l-3-8.52H30.91l-.33,1h0a.93.93,0,0,1,1,.91h0v0Z" fill="#475b77"/>
              <path d="M28,55.4c1.12.06,2.43.1,3.57.1s2.44,0,3.54-.09l-3-8.52H30.92Z" fill="none" stroke="#333" stroke-linejoin="round"/>
              <path id="ee34a60c-16ba-4a33-bcee-ba12830e690a" d="M23.43,36.93,22,40.84l3.75,8.26,4.66-6A15,15,0,0,1,23.43,36.93Z" fill="#bcdaf7"/>
              <path id="a5a09b1e-f771-46e6-b936-956ccd3ff765" d="M30.41,43.05a14.83,14.83,0,0,1-7-6.16l-1.38,4,3.75,8.26,4.65-6" fill="none" stroke="#333" stroke-linecap="round" stroke-linejoin="round" stroke-width="1.5"/>
              <path id="f496c81b-77b4-436b-b889-a170c2583dba" d="M39.64,36.93,41,40.81l-3.76,8.24-4.66-6A15.12,15.12,0,0,0,39.64,36.93Z" fill="#bcdaf7"/>
              <path id="e6abcb6a-0639-4831-b300-aa306f56f0f6" d="M32.6,43.05a15,15,0,0,0,7-6.15L41,40.82l-3.77,8.23-4.66-6" fill="none" stroke="#333" stroke-linecap="round" stroke-linejoin="round" stroke-width="1.5"/>
              <path d="M22.28,38.5,15.6,44.17l3.86,2.72-2.7,3.5,4.57,4.3c1.25.2,2.55.36,3.91.5C23.25,50.92,22.37,46.21,22.28,38.5Z" fill="#ddd" stroke="#333" stroke-linejoin="round" stroke-width="1.53"/>
              <path d="M40.65,38.5l6.68,5.67-3.86,2.72,2.7,3.5-4.57,4.3c-1.25.2-2.55.36-3.91.5C39.68,50.92,40.56,46.21,40.65,38.5Z" fill="#ddd" stroke="#333" stroke-linejoin="round" stroke-width="1.53"/>
              <path d="M19.64,40.74C16,41.59,11.51,42.62,10,43a5.64,5.64,0,0,0-4.5,4.5L5,50.05a65.46,65.46,0,0,0,26.53,5.5A65.51,65.51,0,0,0,58,50.05l-.5-2.5a5.63,5.63,0,0,0-4.5-4.5c-1.33-.33-6-1.42-9.75-2.26" fill="none" stroke="#333" stroke-linecap="round" stroke-linejoin="round" stroke-width="1.5"/>
              <path d="M42.45,20.81v-2.2c0-5.95-2.09-12.08-11-12.08s-11,6.13-11,12.08v2.2c-.09,0-3.29,0-2.2,5.49a4.27,4.27,0,0,0,3.29,3.29c0,3.9,1.1,4.39,4.81,8.21,1.43,1.82,3.17,1.67,5.07,1.67s3.65.15,5.07-1.67C40.2,34,41.3,33.49,41.3,29.59a4.27,4.27,0,0,0,3.29-3.29C45.74,20.81,42.54,20.78,42.45,20.81Z" fill="#eed1c9"/>
              <path d="M23.1,28.5a3.67,3.67,0,0,1-1.52-3.29V22.52a2.44,2.44,0,0,0-1.46-1.65c-.83.17-2.72,1-1.83,5.45a4.27,4.27,0,0,0,3.29,3.29c0,3.3.8,4.17,3.29,6.68V32.91A5.23,5.23,0,0,0,23.1,28.5Z" fill="#e5c2ba"/>
              <path d="M44.64,26.3c1.1-5.49-2.11-5.52-2.2-5.49v-2.2c0-5.95-2.09-12.08-11-12.08a15,15,0,0,0-2.92.26v12a3.91,3.91,0,0,1-1.27,2.88.44.44,0,0,0,0,.63.43.43,0,0,0,.23.14c1.5.43,2.3.71,3.23.47.31-.08.86.27.86.59v1.55a1.7,1.7,0,0,0,.64,1.4A1.09,1.09,0,0,1,32.45,28a1.13,1.13,0,0,1-.91.47c-.81,0-1.1-.55-2.2-.55-.65,0-.55.85-.57.82a2.26,2.26,0,0,1,1.1.29,3.38,3.38,0,0,0,1.65.43v3.31a1.92,1.92,0,0,0,1.25,1.76,1.54,1.54,0,0,1,.94,1.63c0,3-5.43-.3-5.43,3h0a10.19,10.19,0,0,0,3.16.29c1.9,0,3.65.15,5.07-1.67,3.71-3.82,4.81-4.31,4.81-8.21A4.3,4.3,0,0,0,44.64,26.3Z" fill="#e5c2ba"/>
              <path d="M42.47,20.81a2.18,2.18,0,0,0-1.12,1.87v2.53a3.66,3.66,0,0,1-1.52,3.29A5.21,5.21,0,0,0,38,32.89v3.38c2.5-2.51,3.29-3.38,3.29-6.68a4.27,4.27,0,0,0,3.29-3.29C45.71,21,42.75,20.79,42.47,20.81Z" fill="#d8b3ad"/>
              <path d="M42.45,20.81v-2.2c0-5.95-2.09-12.08-11-12.08s-11,6.13-11,12.08v2.2c-.09,0-3.29,0-2.2,5.49a4.27,4.27,0,0,0,3.29,3.29c0,3.9,1.1,4.39,4.81,8.21,1.43,1.82,3.17,1.67,5.07,1.67s3.65.15,5.07-1.67C40.2,34,41.3,33.49,41.3,29.59a4.27,4.27,0,0,0,3.29-3.29C45.74,20.81,42.54,20.78,42.45,20.81Z" fill="none" stroke="#333" stroke-linejoin="round" stroke-width="1.5"/>
              <line x1="31.45" y1="29.46" x2="31.45" y2="30.46" fill="none" stroke="#ddb7b1" stroke-linecap="round" stroke-miterlimit="10" stroke-width="0.75"/>
              <line x1="30.53" y1="34.28" x2="32.53" y2="34.28" fill="none" stroke="#ddb7b1" stroke-linecap="round" stroke-miterlimit="10" stroke-width="0.75"/>
              <line x1="31.32" y1="37.23" x2="31.57" y2="37.23" fill="none" stroke="#ddb7b1" stroke-linecap="round" stroke-miterlimit="10" stroke-width="0.75"/>
              <path d="M32.81,31.32a2.78,2.78,0,0,0-1.18.13.61.61,0,0,1-.42,0A2.78,2.78,0,0,0,30,31.32c-.67.1-.74.52-2.09,1.25l1.19.73a2.29,2.29,0,0,0,1.27.41h2.07a2.31,2.31,0,0,0,1.27-.41L35,32.6C33.61,31.87,33.48,31.41,32.81,31.32Z" fill="#d6b3b0"/>
              <path d="M35,32.6c-1,0-1.26-.39-2.24-.39a6.16,6.16,0,0,0-1.29.17,7,7,0,0,0-1.29-.17c-.94,0-1.15.36-2.21.36" fill="none" stroke="#af8582" stroke-linecap="round" stroke-miterlimit="10" stroke-width="0.6"/>
              <path d="M28.75,28.57a2.61,2.61,0,0,1,1.31.34h0a2.75,2.75,0,0,0,2.61,0h0A2.69,2.69,0,0,1,34,28.57" fill="none" stroke="#af8582" stroke-linecap="round" stroke-miterlimit="10" stroke-width="0.75"/>
              <path d="M23.81,21.81a4.94,4.94,0,0,1,1.47-.64,5.56,5.56,0,0,1,1.63-.12,4.34,4.34,0,0,1,1.52.47c.47.21.9.48,1.29.69h0a.34.34,0,0,1,.13.46h0a.35.35,0,0,1-.31.18A12.92,12.92,0,0,1,28,22.69c-.47-.07-.92-.09-1.34-.16a7,7,0,0,0-1.3-.15,8.86,8.86,0,0,0-1.36.07h0a.36.36,0,0,1-.38-.32A.39.39,0,0,1,23.81,21.81Z" fill="#9f8b6b"/>
              <path d="M38.75,22.45a10.63,10.63,0,0,0-1.38-.07,7.1,7.1,0,0,0-1.3.15c-.43.07-.87.08-1.34.16a12.85,12.85,0,0,1-1.52.17.36.36,0,0,1-.35-.36.34.34,0,0,1,.18-.3h0c.38-.21.82-.48,1.29-.69a4.53,4.53,0,0,1,1.56-.46,5.25,5.25,0,0,1,1.63.14,4.7,4.7,0,0,1,1.47.64.33.33,0,0,1,.11.46h0v0a.39.39,0,0,1-.32.16Z" fill="#9f8b6b"/>
              <circle cx="26.92" cy="24" r="0.71" fill="#333"/>
              <circle cx="35.88" cy="24" r="0.71" fill="#333"/>
              <path d="M31.47,6.54c-8.89,0-11,6.13-11,12.08v2.82a12.54,12.54,0,0,1,1.4,4,1.24,1.24,0,0,0,1-1.19V19.92a7.76,7.76,0,0,0-.28-2.3A2.66,2.66,0,0,1,23,15.17c1.31-1.31,4.45-1.45,6.67.32l.75.61c2.14,1.74,3.82,3.11,6.87,3.11h2.75v5.15a1.31,1.31,0,0,0,1,1.25,8.92,8.92,0,0,1,1.39-4v-3C42.45,12.67,40.36,6.54,31.47,6.54Z" fill="#e5c2ba"/>
              <path d="M28.55,6.8h0v8c3.8,1.78,2.73,4.44,11.58,4.44v5.11A1.32,1.32,0,0,0,41,25.6a8.92,8.92,0,0,1,1.39-4c0-2.32,1.11-12-6.66-14.48A15.83,15.83,0,0,0,28.55,6.8Z" fill="#d8b3ad"/>
              <path d="M40.88,22.28a21.59,21.59,0,0,0-4.47-.23,14.15,14.15,0,0,0-4.18.71h-.07a2.41,2.41,0,0,0-1,0h-.09a14,14,0,0,0-4.21-.71,21,21,0,0,0-4.48.26.51.51,0,0,0-.42.5v.67a.52.52,0,0,0,.22.42l.27.18a9.25,9.25,0,0,0,.36,2.08.61.61,0,0,0,.23.3,9.32,9.32,0,0,0,3.07.78,10.71,10.71,0,0,0,1.39.12A8.93,8.93,0,0,0,29.8,27a.49.49,0,0,0,.31-.27s.24-.5.57-1.4c.27-.72.43-1.22.54-1.54a1.4,1.4,0,0,1,.81,0c.1.32.27.83.54,1.56.33.89.56,1.37.57,1.39a.55.55,0,0,0,.31.27,8.59,8.59,0,0,0,2.31.32,10.39,10.39,0,0,0,1.36-.11,9.44,9.44,0,0,0,3.09-.78.52.52,0,0,0,.23-.3,9.69,9.69,0,0,0,.36-2.13l.28-.19a.52.52,0,0,0,.22-.42v-.67A.5.5,0,0,0,40.88,22.28Z" fill="#d8b3ad"/>
              <path d="M38.62,8.7c.47,0,1.19-.24,1.64-.2C37.36,5.63,26,3.7,22.87,10c-7.87,2.7-1,12.5-1,15.5V19.87a7.07,7.07,0,0,0-.24-2,3.63,3.63,0,0,1,.75-3.42c1.77-1.77,5.5-1.75,8,.25s4,3.5,7,3.5h3.75v7.48c0-3.08,1.5-4,3-7.23C46.12,14.11,42.14,10.49,38.62,8.7Z" fill="#ad9a76"/>
              <path d="M22.87,10a6.25,6.25,0,0,0-2.23,1.26h0c-2.52,2.28-1.46,6.16-.31,9.37h0c-1.23-6-.41-9.53,7.7-9.53,0,0-1-.41-1.86-.72A22,22,0,0,1,32.54,10a22.9,22.9,0,0,0-4.34-.81c3.09-.71,5.2-.44,8.37,0A22.4,22.4,0,0,0,28.87,8H28.8c3.66-.92,8.09-.16,11.48.54C37,5.27,25.81,4.05,22.87,10Z" fill="#bead87"/>
              <path d="M21.62,25.45l-.06-5.59a6,6,0,0,0-.21-1.59,6.73,6.73,0,0,1-.21-.86,4.71,4.71,0,0,1,0-.92,3.68,3.68,0,0,1,.54-1.8A3.94,3.94,0,0,1,23,13.41a7,7,0,0,1,7,.4,12,12,0,0,1,1.39,1.07c.43.36.86.72,1.3,1.06a8.77,8.77,0,0,0,2.78,1.6,11.4,11.4,0,0,0,3.24.32L42,18a.26.26,0,0,1,0,.51l-3.38.09a11.57,11.57,0,0,1-3.47-.23c-2.37-.64-4-2.5-5.78-3.65a6.31,6.31,0,0,0-6-.47,2.89,2.89,0,0,0-1.57,2.4,4.55,4.55,0,0,0,.2,1.51,7.47,7.47,0,0,1,.12,1.77v5.57a.26.26,0,0,1-.26.25.26.26,0,0,1-.27-.23Z" fill="#9f8b6b"/>
              <path d="M40.78,25.68a7.11,7.11,0,0,1,.41-2.63,15.48,15.48,0,0,1,1.19-2.33c.43-.73.82-1.46,1.17-2.21a5.5,5.5,0,0,0,.57-2.24,6,6,0,0,0-1.86-4.14A14.06,14.06,0,0,0,38.33,9.3a.67.67,0,0,1-.3-.89.64.64,0,0,1,.6-.36h0c.22,0,.44-.06.66-.1a3.38,3.38,0,0,1,1-.12L39.75,9a9.79,9.79,0,0,0-4-1.86,17.4,17.4,0,0,0-4.6-.55,12.12,12.12,0,0,0-4.45.84,6.19,6.19,0,0,0-3.21,2.84h0a.69.69,0,0,1-.37.32,4.71,4.71,0,0,0-3,2.34,6.75,6.75,0,0,0-.29,4A27.42,27.42,0,0,0,21,21.05l.72,2.1a7.94,7.94,0,0,1,.49,2.27.35.35,0,0,1-.33.35h0a.36.36,0,0,1-.35-.32h0a7.6,7.6,0,0,0-.55-2L20.2,21.4a27,27,0,0,1-1.37-4.28,7.9,7.9,0,0,1,.2-4.69,4.93,4.93,0,0,1,1.52-2,7.55,7.55,0,0,1,2.12-1.16l-.38.33a7.59,7.59,0,0,1,3.84-3.55,12.61,12.61,0,0,1,5-1,18,18,0,0,1,5,.62,11.11,11.11,0,0,1,4.64,2.38h0a.68.68,0,0,1,0,1,.72.72,0,0,1-.56.18,2.27,2.27,0,0,0-.63.08,4.79,4.79,0,0,1-1,.11l.33-1.25a15.15,15.15,0,0,1,4.22,3.2,7,7,0,0,1,2,5A6.44,6.44,0,0,1,44.37,19a23,23,0,0,1-1.3,2.25,13,13,0,0,0-1.22,2.15,6.48,6.48,0,0,0-.47,2.35.31.31,0,0,1-.27.34.32.32,0,0,1-.34-.27.24.24,0,0,1,0-.12Z" fill="#333"/>
              <path d="M29,11.4a7.53,7.53,0,0,1,4.88,1.37c.7.47,1.31,1,1.93,1.42s1.31.84,2,1.31a5.19,5.19,0,0,1-2.59-.27,10.13,10.13,0,0,1-2.2-1.18c-.66-.45-1.29-.86-2-1.28S29.76,11.92,29,11.4Z" fill="#9f8b6b"/>
              <path d="M10.24,37h0a2.12,2.12,0,0,1-2.08-2.08V30.63a2.12,2.12,0,0,1,2.08-2.08h0a2.12,2.12,0,0,1,2.08,2.08v4.24A2.12,2.12,0,0,1,10.24,37Z" fill="none" stroke="#333" stroke-linejoin="round"/>
              <circle cx="52.46" cy="32.71" r="3.04" fill="#ddd"/>
              <line x1="54.61" y1="30.56" x2="50.31" y2="34.86" fill="none" stroke="#aaa" stroke-linejoin="round"/>
              <line x1="55.1" y1="30.83" x2="50.8" y2="35.13" fill="none" stroke="#eee" stroke-linejoin="round" stroke-width="0.5"/>
              <circle cx="52.46" cy="32.71" r="3.04" fill="none" stroke="#333" stroke-linejoin="round"/>
              <path d="M29,28.57a2.58,2.58,0,0,1,1.25.32h0a2.58,2.58,0,0,0,2.5,0h0A2.58,2.58,0,0,1,34,28.57" fill="none" stroke="#af8582" stroke-linecap="round" stroke-miterlimit="10" stroke-width="0.75"/>
              <path d="M40.1,22.32a19.19,19.19,0,0,0-7.87.51,30.34,30.34,0,0,0,1.21,3.3,10.81,10.81,0,0,0,6.36-.52A9.15,9.15,0,0,0,40.1,22.32Z" fill="#fce0da"/>
              <path d="M33.44,26.13a7.65,7.65,0,0,0,1.08.22,21.71,21.71,0,0,1-1.2-2.91,23.55,23.55,0,0,1,6.81-.12v-1a19.19,19.19,0,0,0-7.87.51A30.16,30.16,0,0,0,33.44,26.13Z" fill="#edccc3"/>
              <path d="M22.78,22.33a8.89,8.89,0,0,0,.32,3.28,10.84,10.84,0,0,0,6.37.52,28.39,28.39,0,0,0,1.21-3.3A19.33,19.33,0,0,0,22.78,22.33Z" fill="#fce0da"/>
              <path d="M30.21,23.65l.28-.86a19.1,19.1,0,0,0-7.71-.45,8.89,8.89,0,0,0,.32,3.28,5.66,5.66,0,0,0,1,.36,9.65,9.65,0,0,1-.54-2.9A17.77,17.77,0,0,1,30.21,23.65Z" fill="#edccc3"/>
              <circle cx="27.1" cy="24.46" r="0.65" fill="#6c7881"/>
              <circle cx="36.06" cy="24.46" r="0.65" fill="#6c7881"/>
              <path d="M22.78,22.33a8.89,8.89,0,0,0,.32,3.28,10.84,10.84,0,0,0,6.37.52,28.39,28.39,0,0,0,1.21-3.3A19.66,19.66,0,0,0,22,22.45v.68l.8.2" fill="none" stroke="#333" stroke-linejoin="round" stroke-width="1.02"/>
              <path d="M30.68,22.84a.9.9,0,0,1,.77-.3c.61,0,.77.29.77.29" fill="none" stroke="#333" stroke-linejoin="round" stroke-width="1.02"/>
              <path d="M40.13,22.33a8.89,8.89,0,0,1-.32,3.28,10.84,10.84,0,0,1-6.37.52,28.39,28.39,0,0,1-1.21-3.3A19.65,19.65,0,0,1,41,22.45v.68l-.8.2" fill="none" stroke="#333" stroke-linejoin="round" stroke-width="1.02"/>
            </g>
          </g>
        </g>
      </g>
      <g id="a492d804-4566-4095-8ecd-d06c30dbf050">
        <path d="M37,27.85a5.45,5.45,0,0,1,2.34,7.34,6.11,6.11,0,0,1-.7,1c-.85,1-6.73,9.73-14.95,0a5.46,5.46,0,0,1,.64-7.69,5.21,5.21,0,0,1,1-.67l4.53-2.35a2.88,2.88,0,0,1,2.62,0Z" fill="#fff"/>
        <path d="M23.26,29.81a23,23,0,0,1-3.75-9.3" fill="#fff" stroke="#333" stroke-linecap="round" stroke-linejoin="round" stroke-width="1.5"/>
        <path d="M39.38,29.81a23,23,0,0,0,3.75-9.3" fill="#fff" stroke="#333" stroke-linecap="round" stroke-linejoin="round" stroke-width="1.5"/>
        <line x1="22.42" y1="32.57" x2="20.78" y2="31.67" fill="none" stroke="#333" stroke-linecap="round" stroke-linejoin="round" stroke-width="1.5"/>
        <line x1="40.22" y1="32.57" x2="41.86" y2="31.67" fill="none" stroke="#333" stroke-linecap="round" stroke-linejoin="round" stroke-width="1.5"/>
        <path d="M37,27.85l-4.51-2.34a2.88,2.88,0,0,0-2.62,0l-4.53,2.35a5.38,5.38,0,0,0-2.77,3.52,5.55,5.55,0,0,0,1.12,2.17c8.22,9.75,14.1,1,14.95,0a5.5,5.5,0,0,0,1.14-2.18A5.41,5.41,0,0,0,37,27.85Z" fill="#fff"/>
        <path d="M37,27.85l-4.51-2.34a2.86,2.86,0,0,0-1.18-.3h0v8c0,2.06,2.2,1.6.86,4.11-2,3.84-7.08-2.89-7.08.41,0,.11,3,2.09,2.95,2.2C33.94,43,38,37,38.66,36.23a5.44,5.44,0,0,0-.6-7.68A5.57,5.57,0,0,0,37,27.85Z" fill="#eee"/>
        <path d="M22.62,31.28a19,19,0,0,0,8.71,2.27,17.24,17.24,0,0,0,8.44-2.27" fill="none" stroke="#ddd" stroke-miterlimit="10"/>
        <path d="M22.62,33.51a19,19,0,0,0,8.71,2.27,17.24,17.24,0,0,0,8.44-2.27" fill="none" stroke="#ddd" stroke-miterlimit="10"/>
        <path d="M37,27.85a5.45,5.45,0,0,1,2.34,7.34,6.11,6.11,0,0,1-.7,1c-.85,1-6.73,9.73-14.95,0a5.46,5.46,0,0,1,.64-7.69,5.21,5.21,0,0,1,1-.67l4.53-2.35a2.88,2.88,0,0,1,2.62,0Z" fill="none" stroke="#333" stroke-linejoin="round" stroke-width="1.5"/>
      </g>
    </g>
  </g>
</svg>
