<svg xmlns="http://www.w3.org/2000/svg" viewBox="0 0 64 64">
  <g id="virologist-asian-male-coronavirus">
    <g>
      <g id="b8a138d6-19f0-4af6-9b90-7bee50b47363">
        <g id="ba55597e-b137-4822-995d-34d264ac5d2a">
          <g id="a328bc56-9007-4908-b899-57d5d4274a5c">
            <g id="b1bbc2bc-eda4-4c2f-a39f-2e7d7f4fe713">
              <path d="M59,48.72a5.65,5.65,0,0,0-4.5-4.5c-1.33-.33-4.71-1.16-8.5-2-1.84-.41-3.7-.72-5.56-1V37.58h-15v3.67a47,47,0,0,0-5.42,1l-8.52,2A5.65,5.65,0,0,0,7,48.75l-.5,2.5A65.13,65.13,0,0,0,33,56.75a65.18,65.18,0,0,0,26.47-5.5Z" fill="#e6b790"/>
              <path d="M25.45,37.58v1.79l6.11,6.31A5,5,0,0,1,33,49.15a3.21,3.21,0,0,0,3.21,3.21h.63a3.61,3.61,0,0,0,3.63-3.59V37.58Z" fill="#d6a787"/>
              <line x1="25.44" y1="37.58" x2="25.44" y2="42.64" fill="none" stroke="#333" stroke-linejoin="round" stroke-width="1.5"/>
              <line x1="40.44" y1="37.58" x2="40.44" y2="42.64" fill="none" stroke="#333" stroke-linejoin="round" stroke-width="1.5"/>
              <path d="M40.44,41.26s12.5,2.64,14,2.94a5.39,5.39,0,0,1,4.5,4.5l.5,2.5a65.68,65.68,0,0,1-26.5,5.5,65.68,65.68,0,0,1-26.5-5.5l.5-2.5a5.39,5.39,0,0,1,4.5-4.5c1.5-.3,14-3,14-3" fill="none" stroke="#333" stroke-linecap="round" stroke-linejoin="round" stroke-width="1.5"/>
              <path d="M43.91,23v-2.2c0-5.95-2.09-12.08-11-12.08s-11,6.13-11,12.09V23c-.09,0-3.29,0-2.2,5.49A4.27,4.27,0,0,0,23,31.82c0,3.9,1.1,4.39,4.81,8.21,1.43,1.82,3.17,1.67,5.07,1.67S36.53,41.85,38,40c3.71-3.82,4.81-4.31,4.81-8.21a4.27,4.27,0,0,0,3.29-3.29C47.21,23,44,23,43.91,23Z" fill="#efc8a5"/>
              <path d="M24.57,30.72a3.66,3.66,0,0,1-1.52-3.29V24.74a2.46,2.46,0,0,0-1.46-1.65c-.83.17-2.72,1-1.83,5.45a4.27,4.27,0,0,0,3.29,3.29c0,3.3.8,4.17,3.29,6.68V35.13A5.21,5.21,0,0,0,24.57,30.72Z" fill="#e6b790"/>
              <path d="M46.11,28.52C47.21,23,44,23,43.91,23v-2.2c0-5.95-2.09-12.08-11-12.08A15.86,15.86,0,0,0,30,9V21a3.89,3.89,0,0,1-1.27,2.88.46.46,0,0,0,0,.64.41.41,0,0,0,.23.13c1.5.43,2.3.71,3.23.47.31-.08.86.27.86.59v1.57a1.67,1.67,0,0,0,.64,1.4,1.1,1.1,0,0,1-.64,2c-.81,0-1.1-.55-2.2-.55-.65,0-.55.85-.57.82a2.5,2.5,0,0,1,1.1.29,3.28,3.28,0,0,0,1.65.43V35a1.89,1.89,0,0,0,1.29,1.73,1.56,1.56,0,0,1,.94,1.63c0,3-5.43-.3-5.43,3h0a9.62,9.62,0,0,0,3.16.29c1.9,0,3.65.15,5.07-1.67,3.71-3.82,4.81-4.31,4.81-8.21A4.29,4.29,0,0,0,46.11,28.52Z" fill="#e6b790"/>
              <path d="M43.94,23a2.18,2.18,0,0,0-1.12,1.87v2.53a3.63,3.63,0,0,1-1.54,3.28,5.24,5.24,0,0,0-1.78,4.39v3.38c2.5-2.51,3.29-3.38,3.29-6.68a4.27,4.27,0,0,0,3.29-3.29C47.17,23.21,44.21,23,43.94,23Z" fill="#d6a787"/>
              <path d="M43.83,22.43h-21v4.74a3.42,3.42,0,0,0,3.43,3.43H29.2a3.2,3.2,0,0,0,1.71-.4,4.78,4.78,0,0,1,2.42-.86,4.78,4.78,0,0,1,2.42.86,3.18,3.18,0,0,0,1.71.4h2.92a3.43,3.43,0,0,0,3.43-3.43h0V22.43Z" fill="#d6a787"/>
              <path d="M43.91,23v-2.2c0-5.95-2.09-12.08-11-12.08s-11,6.13-11,12.09V23c-.09,0-3.29,0-2.2,5.49A4.27,4.27,0,0,0,23,31.82c0,3.9,1.1,4.39,4.81,8.21,1.43,1.82,3.17,1.67,5.07,1.67S36.53,41.85,38,40c3.71-3.82,4.81-4.31,4.81-8.21a4.27,4.27,0,0,0,3.29-3.29C47.21,23,44,23,43.91,23Z" fill="none" stroke="#333" stroke-linejoin="round" stroke-width="1.5"/>
              <line x1="32.91" y1="31.68" x2="32.91" y2="32.68" fill="none" stroke="#ddad8a" stroke-linecap="round" stroke-miterlimit="10" stroke-width="0.65"/>
              <line x1="31.99" y1="36.5" x2="33.99" y2="36.5" fill="none" stroke="#ddad8a" stroke-linecap="round" stroke-miterlimit="10" stroke-width="0.65"/>
              <line x1="32.79" y1="39.45" x2="33.04" y2="39.45" fill="none" stroke="#ddad8a" stroke-linecap="round" stroke-miterlimit="10" stroke-width="0.65"/>
              <path d="M34.28,33.54a2.94,2.94,0,0,0-1.18.13.61.61,0,0,1-.42,0,2.94,2.94,0,0,0-1.18-.13c-.67.1-.74.52-2.09,1.25l1.19.73a2.21,2.21,0,0,0,1.27.41h2.07a2.16,2.16,0,0,0,1.27-.41l1.23-.7C35.08,34.09,34.94,33.63,34.28,33.54Z" fill="#ddab85"/>
              <path d="M36.43,34.82c-1,0-1.26-.39-2.24-.39a7.85,7.85,0,0,0-1.29.17,8,8,0,0,0-1.29-.17c-.94,0-1.15.36-2.21.36" fill="none" stroke="#c6916d" stroke-linecap="round" stroke-miterlimit="10" stroke-width="0.75"/>
              <path d="M30.38,30.81a2.83,2.83,0,0,1,1.25.32h0a2.58,2.58,0,0,0,2.5,0h0a2.83,2.83,0,0,1,1.25-.32" fill="none" stroke="#c6916d" stroke-linecap="round" stroke-miterlimit="10" stroke-width="0.75"/>
              <path d="M32.94,8.76c-8.89,0-11,6.13-11,12.08v2.82a12.71,12.71,0,0,1,1.4,4,1.22,1.22,0,0,0,1-1.19V22.14a7.8,7.8,0,0,0-.28-2.3,2.68,2.68,0,0,1,.49-2.45c1.31-1.31,4.45-1.45,6.67.32l.75.61c2.14,1.74,3.82,3.11,6.87,3.11h2.74v5.15a1.3,1.3,0,0,0,.94,1.25,9,9,0,0,1,1.39-4v-3C43.91,14.88,41.83,8.76,32.94,8.76Z" fill="#e6b790"/>
              <path d="M30,9h0v8c3.8,1.78,2.73,4.44,11.58,4.44v5.15a1.3,1.3,0,0,0,.94,1.25,9,9,0,0,1,1.39-4c0-2.32,1.11-12-6.66-14.48A15.88,15.88,0,0,0,30,9Z" fill="#d6a787"/>
              <path d="M40.09,10.92c.47,0,1.19-.24,1.64-.2-2.9-2.87-14.26-4.8-17.39,1.45-7.87,2.7-1,12.5-1,15.5V22.09a7.16,7.16,0,0,0-.24-2,3.64,3.64,0,0,1,.75-3.42c1.77-1.77,5.5-1.75,8,.25s4,3.5,7,3.5H42.6V27.9c0-3.08,1.5-4,3-7.23C47.59,16.33,43.61,12.71,40.09,10.92Z" fill="#333"/>
              <path d="M22.62,12.39a20.17,20.17,0,0,1,3.74-1.58,17.49,17.49,0,0,1,4-.65,18.48,18.48,0,0,1,3.93.27c1.27.25,2.53.56,3.77.93a37.83,37.83,0,0,0-3.82-.43,17.62,17.62,0,0,0-3.77.23,16.87,16.87,0,0,0-3.55,1.06A17.23,17.23,0,0,0,23.71,14h0a1,1,0,0,1-1.16-1.64h.07Z" fill="#444"/>
              <path d="M23.52,11.88a13.57,13.57,0,0,1,5.37-.6,24.33,24.33,0,0,1,5.08.87,22.6,22.6,0,0,0-5,.13,12.31,12.31,0,0,0-4.54,1.4A1,1,0,0,1,23.38,12Z" fill="#444"/>
              <path d="M24.34,12.17c-5.19,1.78-4,6.65-2.53,10.62-1.23-6-.41-9.56,7.65-9.56a19.11,19.11,0,0,0-3.12-1.06C30.22,8.63,37,9.73,41.73,10.72,38.83,7.85,27.47,5.92,24.34,12.17Z" fill="#444"/>
              <path d="M43.09,20.58l-.15,7.32a.35.35,0,0,1-.36.34h0a.34.34,0,0,1-.34-.34h0l-.15-7.32a.5.5,0,0,1,1,0Z" fill="#333"/>
              <path d="M23.08,27.67,23,22a6.15,6.15,0,0,0-.21-1.59,6.34,6.34,0,0,1-.21-.86,4.71,4.71,0,0,1,0-.92,3.74,3.74,0,0,1,.54-1.8,4,4,0,0,1,1.39-1.28,7,7,0,0,1,7,.4,14.64,14.64,0,0,1,1.39,1.07c.43.36.86.72,1.3,1.06A8.77,8.77,0,0,0,37,19.72a10.73,10.73,0,0,0,3.24.32l3.38.09a.26.26,0,0,1,.25.26.25.25,0,0,1-.25.25l-3.38.09a11.25,11.25,0,0,1-3.47-.23c-2.37-.64-4-2.5-5.78-3.65a6.37,6.37,0,0,0-6-.47,3.08,3.08,0,0,0-1.11.95,2.94,2.94,0,0,0-.46,1.4,4.3,4.3,0,0,0,.16,1.56,7.54,7.54,0,0,1,.12,1.77l-.05,5.57a.29.29,0,0,1-.33.25.31.31,0,0,1-.24-.2Z" fill="#333"/>
              <path d="M42.28,27.9a7,7,0,0,1,.41-2.64,15.48,15.48,0,0,1,1.19-2.33A22.09,22.09,0,0,0,45,20.72a5.42,5.42,0,0,0,.57-2.24,6,6,0,0,0-1.86-4.14,14.47,14.47,0,0,0-3.93-2.83.66.66,0,0,1-.3-.88.68.68,0,0,1,.61-.37h0a3.76,3.76,0,0,0,.66-.1,4.21,4.21,0,0,1,1-.12l-.51,1.16a9.92,9.92,0,0,0-4-1.86,18.27,18.27,0,0,0-4.6-.55,12.33,12.33,0,0,0-4.45.84A6.28,6.28,0,0,0,25,12.47h0a.61.61,0,0,1-.37.32,4.77,4.77,0,0,0-3,2.34,6.76,6.76,0,0,0-.29,4,26,26,0,0,0,1.19,4.16l.72,2.1a8.09,8.09,0,0,1,.49,2.27.34.34,0,0,1-.33.35h0a.36.36,0,0,1-.35-.32h0a7.82,7.82,0,0,0-.55-2l-.81-2.05a26.92,26.92,0,0,1-1.44-4.31,7.88,7.88,0,0,1,.23-4.68,5.06,5.06,0,0,1,1.52-2,8.1,8.1,0,0,1,2.12-1.16l-.38.33a7.65,7.65,0,0,1,3.82-3.58,13,13,0,0,1,5-1,18.72,18.72,0,0,1,5,.62,11.32,11.32,0,0,1,4.69,2.36h0a.67.67,0,0,1,0,.94.63.63,0,0,1-.59.21,2.72,2.72,0,0,0-.63.08,3.74,3.74,0,0,1-1,.11l.33-1.25a15.54,15.54,0,0,1,4.22,3.2,7.08,7.08,0,0,1,2,5,6.35,6.35,0,0,1-.73,2.64,20.87,20.87,0,0,1-1.3,2.25,13.83,13.83,0,0,0-1.22,2.15,6.56,6.56,0,0,0-.47,2.35.36.36,0,1,1-.72,0Z" fill="#333"/>
              <path d="M30.52,13.62A7.61,7.61,0,0,1,35.4,15c.7.47,1.31,1,1.93,1.42s1.31.84,2.05,1.31a5,5,0,0,1-2.59-.27,10,10,0,0,1-2.22-1.21c-.66-.45-1.29-.86-2-1.28S31.28,14.14,30.52,13.62Z" fill="#444"/>
              <path d="M59,48.72a5.65,5.65,0,0,0-4.5-4.5C45,41.84,42.06,41.4,38.83,41a14.9,14.9,0,0,1-4.76,3.24H31.88A14.86,14.86,0,0,1,27.13,41c-2.39.24-4.86.47-15.63,3.17A5.65,5.65,0,0,0,7,48.71l-.5,2.5A65.13,65.13,0,0,0,33,56.71a65.18,65.18,0,0,0,26.47-5.5Z" fill="#eee"/>
              <path d="M54.5,47.81c-19.23-4.81-25.16-4.47-43,0a6.67,6.67,0,0,0-4.7,3.55A66.08,66.08,0,0,0,33,56.72,66.34,66.34,0,0,0,59.2,51.37,6.66,6.66,0,0,0,54.5,47.81Z" fill="#ddd"/>
              <path d="M38.86,41a15,15,0,0,1-4.79,3.28H31.88A15.14,15.14,0,0,1,27.13,41c-1.12.1-2.23.21-3.34.36.2,6.71,1.08,11.05,2.93,15h0c2,.19,4.23.3,6.31.3h0c2,0,4.12-.1,6.24-.3h0c1.84-3.94,2.73-8.28,2.93-15C41,41.24,39.87,41.12,38.86,41Z" fill="#d4f4f0"/>
              <path d="M33,56.72q2.44,0,4.83-.18C35,47.85,35.45,49.18,35.06,48l1.57-2.07a1.22,1.22,0,0,0,0-1.43A1.29,1.29,0,0,0,35.56,44H32.28a1.24,1.24,0,0,0-1.14.78A1.27,1.27,0,0,0,31.39,46l1.5,2-3,8.64C30.93,56.69,32,56.72,33,56.72Z" fill="#a8ccc6"/>
              <path d="M38.83,50.09l.64.85a.52.52,0,0,0,.19.14.49.49,0,0,0,.65-.28h0L42.51,42Z" fill="#a8ccc6"/>
              <path id="bb676744-d4ee-4473-ac7d-bc448305f200" d="M31.88,44.31l-4.53,5.86s.19.32.41.72c.34.63.73.17.74.16.56-.74,4.51-6.31,4.51-6.31Z" fill="#a8ccc6"/>
              <path id="be3e6193-2191-4703-8cf4-67a469a9c062" d="M30.5,45.64,32.28,48a.82.82,0,0,0,1.15.17h0A.81.81,0,0,0,33.6,48l1.85-2.42a.84.84,0,0,0-.17-1.14.84.84,0,0,0-.49-.16H31.18a.83.83,0,0,0-.85.81h0A.82.82,0,0,0,30.5,45.64Z" fill="#5e748e"/>
              <path d="M31.18,44.31H31.1l1.23,1.63a.82.82,0,0,0,1.15.17h0a.81.81,0,0,0,.16-.16l1.23-1.63Z" fill="#475b77"/>
              <path id="f4b7fbf7-99d1-4149-b4d5-9854348bf8c2" d="M30.5,45.64,32.28,48a.82.82,0,0,0,1.15.17h0A.81.81,0,0,0,33.6,48l1.85-2.42a.84.84,0,0,0-.17-1.14.84.84,0,0,0-.49-.16H31.18a.83.83,0,0,0-.85.81h0A.82.82,0,0,0,30.5,45.64Z" fill="none" stroke="#333" stroke-linejoin="round"/>
              <path d="M29.46,56.62c1.18.06,2.37.1,3.57.1s2.37,0,3.54-.09l-3-8.52H32.38Z" fill="#5e748e"/>
              <path d="M30.94,56.68H33c1.15,0,2.44,0,3.57-.09l-3-8.52H32.38l-.33,1h0A.93.93,0,0,1,33,50h0v0Z" fill="#475b77"/>
              <path d="M29.46,56.62c1.12.06,2.43.1,3.57.1s2.44,0,3.54-.09l-3-8.52H32.38Z" fill="none" stroke="#333" stroke-linejoin="round"/>
              <path id="f1871d46-1f79-48b2-ace7-e4fac101ff81" d="M24.9,38.15,23.48,42l3.8,8.28,4.66-6A14.84,14.84,0,0,1,24.9,38.15Z" fill="#d4f4f0"/>
              <path id="a84ef747-87f2-4e81-a7ad-35cc3d11e096" d="M31.88,44.31a14.73,14.73,0,0,1-7-6.16L23.48,42l3.8,8.28,4.65-6" fill="none" stroke="#333" stroke-linecap="round" stroke-linejoin="round" stroke-width="1.5"/>
              <path id="aec0ef2a-7fe8-46bf-8c3d-d967585c7baa" d="M41.11,38.15,42.53,42l-3.79,8.27-4.66-6A15,15,0,0,0,41.11,38.15Z" fill="#d4f4f0"/>
              <path id="abde858d-eee2-4a36-9a02-9343214b5000" d="M34.07,44.31a15,15,0,0,0,7-6.15L42.52,42l-3.79,8.27-4.66-6" fill="none" stroke="#333" stroke-linecap="round" stroke-linejoin="round" stroke-width="1.5"/>
              <path d="M23.75,39.72l-6.68,5.67,3.86,2.72-2.65,3.5,4.57,4.3c1.25.2,2.55.36,3.91.5C24.72,52.14,23.84,47.43,23.75,39.72Z" fill="#ddd" stroke="#333" stroke-linejoin="round" stroke-width="1.53"/>
              <path d="M42.12,39.72l6.68,5.67-3.86,2.72,2.7,3.5-4.57,4.3c-1.25.2-2.55.36-3.91.5C41.15,52.14,42,47.43,42.12,39.72Z" fill="#ddd" stroke="#333" stroke-linejoin="round" stroke-width="1.53"/>
              <path d="M21.11,42c-3.65.85-8.13,1.88-9.61,2.25A5.65,5.65,0,0,0,7,48.71l-.5,2.5A65.13,65.13,0,0,0,33,56.71a65.18,65.18,0,0,0,26.47-5.5l-.5-2.5a5.65,5.65,0,0,0-4.5-4.5c-1.33-.33-6-1.42-9.75-2.26" fill="none" stroke="#333" stroke-linecap="round" stroke-linejoin="round" stroke-width="1.5"/>
              <path d="M30.38,30.81a2.83,2.83,0,0,1,1.25.32h0a2.58,2.58,0,0,0,2.5,0h0a2.83,2.83,0,0,1,1.25-.32" fill="none" stroke="#c6916d" stroke-linecap="round" stroke-miterlimit="10" stroke-width="0.75"/>
              <polygon points="58.79 13.54 58.79 9.42 55.22 7.36 51.65 9.42 51.65 13.54 55.22 15.6 58.79 13.54" fill="none" stroke="#000" stroke-miterlimit="10"/>
              <line x1="55.22" y1="7.36" x2="55.22" y2="5.04" fill="none" stroke="#000" stroke-miterlimit="10"/>
              <line x1="51.65" y1="9.42" x2="49.64" y2="8.26" fill="none" stroke="#000" stroke-miterlimit="10"/>
              <line x1="58.79" y1="13.54" x2="60.8" y2="14.7" fill="none" stroke="#000" stroke-miterlimit="10"/>
              <line x1="58.79" y1="9.42" x2="60.8" y2="8.26" fill="none" stroke="#000" stroke-miterlimit="10"/>
              <line x1="51.65" y1="13.54" x2="49.64" y2="14.7" fill="none" stroke="#000" stroke-miterlimit="10"/>
              <line x1="55.22" y1="15.6" x2="55.22" y2="17.92" fill="none" stroke="#000" stroke-miterlimit="10"/>
              <polyline points="15.22 15.12 13.4 18.28 15.22 21.44" fill="none" stroke="#000" stroke-miterlimit="10"/>
              <polygon points="13.4 11.96 9.75 11.96 7.93 15.12 9.75 18.28 13.4 18.28 15.22 15.12 13.4 11.96" fill="none" stroke="#000" stroke-miterlimit="10"/>
              <polyline points="7.93 21.44 9.75 18.28 7.93 15.12" fill="none" stroke="#000" stroke-miterlimit="10"/>
              <line x1="7.93" y1="8.8" x2="4.28" y2="8.8" fill="none" stroke="#000" stroke-miterlimit="10"/>
              <polyline points="9.75 5.64 7.93 8.8 9.75 11.96 13.4 11.96 15.22 8.8" fill="none" stroke="#000" stroke-miterlimit="10"/>
              <path d="M24.82,31.84a22.88,22.88,0,0,1-3.75-9.29" fill="#fff" stroke="#333" stroke-linecap="round" stroke-linejoin="round" stroke-width="1.5"/>
              <path d="M40.94,31.84a22.88,22.88,0,0,0,3.75-9.29" fill="#fff" stroke="#333" stroke-linecap="round" stroke-linejoin="round" stroke-width="1.5"/>
              <path d="M43.28,22.13h-21v4.74a3.42,3.42,0,0,0,3.43,3.43h2.92a3.2,3.2,0,0,0,1.71-.4A4.71,4.71,0,0,1,32.79,29a4.78,4.78,0,0,1,2.42.86,3.18,3.18,0,0,0,1.71.4h2.92a3.43,3.43,0,0,0,3.44-3.42h0Z" fill="#98a4bf"/>
              <path d="M43.28,22.13H29.73a3.85,3.85,0,0,1-1.2,2.19.46.46,0,0,0,0,.64.41.41,0,0,0,.23.13c1.5.43,2.3.71,3.23.47.31-.08.86.27.86.59v1.57a1.68,1.68,0,0,0,.62,1.38,6.27,6.27,0,0,1,1.77.79,3.18,3.18,0,0,0,1.71.4h2.92a3.43,3.43,0,0,0,3.44-3.42h0Z" fill="#8f9db5"/>
              <circle cx="28.42" cy="26.3" r="0.65" fill="#77859e"/>
              <circle cx="37.38" cy="26.3" r="0.65" fill="#77859e"/>
              <path d="M25.47,23.8a6.19,6.19,0,0,1,1.45-.55,6,6,0,0,1,1.58-.09,10,10,0,0,1,2.82,1h0a.24.24,0,0,1,.12.3.23.23,0,0,1-.23.14,10.66,10.66,0,0,1-1.48-.26c-.47-.09-.93-.14-1.37-.21a7.48,7.48,0,0,0-2.75.06h0a.24.24,0,0,1-.27-.18A.23.23,0,0,1,25.47,23.8Z" fill="#77859e"/>
              <path d="M40.41,24.22a7.48,7.48,0,0,0-2.75-.06c-.45.07-.9.12-1.37.21a10.66,10.66,0,0,1-1.48.26.22.22,0,0,1-.24-.2h0v0a.23.23,0,0,1,.14-.23h0a10,10,0,0,1,2.82-1,7,7,0,0,1,1.58.09,5.3,5.3,0,0,1,1.45.55.23.23,0,0,1-.17.43h0Z" fill="#77859e"/>
              <rect x="22.31" y="21.49" width="20.97" height="1.3" fill="#6592e0" stroke="#6592e0" stroke-linejoin="round" stroke-width="1.13"/>
            </g>
          </g>
        </g>
      </g>
      <g id="e7af2ff4-bd5a-4440-9b11-ba81907b2258">
        <path d="M38.58,29.89a5.44,5.44,0,0,1,2.33,7.34,5.15,5.15,0,0,1-.69,1c-.86,1-6.73,9.74-14.95,0a5.44,5.44,0,0,1,.64-7.68,5.76,5.76,0,0,1,1-.68l4.53-2.35a2.88,2.88,0,0,1,2.62,0Z" fill="#fff"/>
        <line x1="23.98" y1="34.61" x2="22.34" y2="33.7" fill="none" stroke="#333" stroke-linecap="round" stroke-linejoin="round" stroke-width="1.5"/>
        <line x1="41.78" y1="34.61" x2="43.42" y2="33.7" fill="none" stroke="#333" stroke-linecap="round" stroke-linejoin="round" stroke-width="1.5"/>
        <path d="M38.58,29.89l-4.51-2.35a2.88,2.88,0,0,0-2.62,0l-4.53,2.35a5.4,5.4,0,0,0-2.77,3.52,5.59,5.59,0,0,0,1.12,2.18c8.22,9.74,14.1,1,15,0a5.54,5.54,0,0,0,1.14-2.19A5.39,5.39,0,0,0,38.58,29.89Z" fill="#fff"/>
        <path d="M38.58,29.89l-4.51-2.35a3,3,0,0,0-1.18-.3h0v8c0,2.06,2.2,1.61.86,4.11-2,3.84-7.08-2.89-7.08.41,0,.11,3,2.09,3,2.2,5.9,3.07,9.93-2.86,10.62-3.68a5.45,5.45,0,0,0-.61-7.68A5.15,5.15,0,0,0,38.58,29.89Z" fill="#eee"/>
        <path d="M24.18,33.32a19.08,19.08,0,0,0,8.71,2.27,17.28,17.28,0,0,0,8.45-2.27" fill="none" stroke="#ddd" stroke-miterlimit="10"/>
        <path d="M24.18,35.54a19,19,0,0,0,8.71,2.28,17.22,17.22,0,0,0,8.44-2.28" fill="none" stroke="#ddd" stroke-miterlimit="10"/>
        <path d="M38.58,29.89a5.44,5.44,0,0,1,2.33,7.34,5.15,5.15,0,0,1-.69,1c-.86,1-6.73,9.74-14.95,0a5.44,5.44,0,0,1,.64-7.68,5.76,5.76,0,0,1,1-.68l4.53-2.35a2.88,2.88,0,0,1,2.62,0Z" fill="none" stroke="#333" stroke-linejoin="round" stroke-width="1.5"/>
      </g>
    </g>
  </g>
</svg>
