<svg xmlns="http://www.w3.org/2000/svg" viewBox="0 0 64 64">
  <g id="pulmonologist-asian-female-coronavirus">
    <g id="e9c027f0-eb5b-4a80-8c63-a5fda501a2e4">
      <g id="f902d3c8-865d-4e9e-8dc3-2fdee3226226">
        <g id="e1252798-c762-4e98-a3b9-58c9f0a350d5">
          <g id="bcf9b1f9-9590-4975-a148-f10e5b25ed47">
            <path d="M48.24,48.09A5.48,5.48,0,0,0,44,43.69c-3.8-.73-7.62-1.57-13.12-2.6V36.82H18.59v4.27c-5.4,1-9.47,1.78-13.06,2.61a5.6,5.6,0,0,0-4.19,4.4L1,50c1.22.74,12,5.17,23.83,5a59.15,59.15,0,0,0,23.63-5Z" fill="#e6b790"/>
            <path d="M18.59,36.81v1.24l5,5.18a4.07,4.07,0,0,1,1.15,2.85,2.64,2.64,0,0,0,2.63,2.63h.52a3,3,0,0,0,3-3V36.8Z" fill="#d6a787"/>
            <path d="M18.59,41.08c-5.4,1-9.47,1.78-13.06,2.61a5.6,5.6,0,0,0-4.19,4.4L1,50c1.22.74,12,5.17,23.83,5a59.15,59.15,0,0,0,23.63-5l-.25-1.9A5.46,5.46,0,0,0,44,43.68c-3.8-.73-7.62-1.57-13.12-2.6" fill="none" stroke="#333" stroke-linejoin="round" stroke-width="1.5"/>
            <path d="M48.24,48.09A5.48,5.48,0,0,0,44,43.69c-3.8-.73-7.62-1.57-13.12-2.6h-.1a13.2,13.2,0,0,1-6,8.95,13.15,13.15,0,0,1-6-8.95h-.3c-5.4,1-9.47,1.78-13.06,2.61a5.6,5.6,0,0,0-4.19,4.4L1,50c1.22.74,12,5.17,23.83,5a59.15,59.15,0,0,0,23.63-5Z" fill="#dae4e8"/>
            <path d="M16.18,41.53C12,42.32,8.56,43,5.53,43.69a5.6,5.6,0,0,0-4.19,4.4L1,50a57.4,57.4,0,0,0,16.85,4.62A45,45,0,0,1,16.18,41.53Z" fill="#eee"/>
            <path d="M31.86,54.53A55.48,55.48,0,0,0,48.48,50l-.25-1.9A5.47,5.47,0,0,0,44,43.69c-3.17-.61-6.36-1.29-10.51-2.1A44.91,44.91,0,0,1,31.86,54.53Z" fill="#eee"/>
            <path d="M44,46.53c-10.58-2.13-14-2.62-14-2.62A13.14,13.14,0,0,1,24.9,50a13.08,13.08,0,0,1-5.13-6.11s-10,1.62-14.24,2.62a5.52,5.52,0,0,0-4,3.7A60.28,60.28,0,0,0,24.85,55,61.14,61.14,0,0,0,48,50.21,5.42,5.42,0,0,0,44,46.53Z" fill="#bcdaf7"/>
            <path d="M33.78,43.2l-3-2.12c-.73,5.39-5.82,8.84-6,9v.84A10.09,10.09,0,0,0,29,49.2l4.76,2.87V43.2Z" fill="#91acc1"/>
            <path d="M18.85,40.88,15.94,43.2v8.88l6.64-3.9C21,46.06,19.28,44.05,18.85,40.88Z" fill="#91acc1"/>
            <path d="M31.87,54.53A59.16,59.16,0,0,0,48,50.22a5.37,5.37,0,0,0-4-3.69c-3.19-.61-6.41-1.3-10.6-2.12A40.88,40.88,0,0,1,31.87,54.53Z" fill="#ddd"/>
            <path d="M16.27,44.35c-4.24.8-7.69,1.48-10.74,2.18a5.52,5.52,0,0,0-4,3.7,60.55,60.55,0,0,0,16.35,4.36A39.56,39.56,0,0,1,16.27,44.35Z" fill="#ddd"/>
            <path d="M10.66,53l.36.34a66,66,0,0,0,6.86,1.2C16.76,51,16.24,46.9,16.17,41.06L9.49,46.73l3.86,2.8Z" fill="#fff"/>
            <path d="M38.8,53.24l.27-.25-2.7-3.46,3.86-2.72-6.68-5.67C33.48,46.93,33,51,31.87,54.53A62.61,62.61,0,0,0,38.8,53.24Z" fill="#fff"/>
            <path d="M18.59,41.08c-5.4,1-9.47,1.78-13.06,2.61a5.6,5.6,0,0,0-4.19,4.4L1,50c1.22.74,12,5.17,23.83,5a59.15,59.15,0,0,0,23.63-5l-.25-1.9A5.46,5.46,0,0,0,44,43.68c-3.8-.73-7.62-1.57-13.12-2.6" fill="none" stroke="#333" stroke-linejoin="round" stroke-width="1.5"/>
            <line x1="24.86" y1="50.03" x2="24.86" y2="54.99" fill="none" stroke="#333" stroke-linejoin="round" stroke-width="1.5"/>
            <path d="M31.16,39.06l2.62,2.09V50L28.53,46.9C30.09,44.77,30.73,42.23,31.16,39.06Z" fill="#bcdaf7"/>
            <path d="M18.56,39.06l-2.62,2.09V50l5.25-3.13C19.63,44.77,19,42.23,18.56,39.06Z" fill="#bcdaf7"/>
            <path d="M21.18,46.9,15.93,50V41.15l2.62-2.09h0c.62,5.2,2.4,8.31,6.3,11,3.9-2.66,5.68-5.77,6.3-11h0l2.62,2.09V50L28.52,46.9" fill="none" stroke="#333" stroke-linejoin="round" stroke-width="1.5"/>
            <line x1="18.56" y1="36.81" x2="18.56" y2="40.17" fill="none" stroke="#333" stroke-linejoin="round" stroke-width="1.5"/>
            <line x1="30.93" y1="36.81" x2="30.93" y2="40.72" fill="none" stroke="#333" stroke-linejoin="round" stroke-width="1.5"/>
            <path d="M24.51,7.53c-7.9,0-12,4.92-12,12.24,0,9,4,11.77,4,16H33.25c0-4.33,4.59-7.43,4.59-16.42C37.83,12,32.63,7.53,24.51,7.53Z" fill="#333" stroke="#333" stroke-linecap="round" stroke-linejoin="round" stroke-width="0.95"/>
            <path d="M34.66,30.15l-.58,3.12a6.8,6.8,0,0,1-2.47,4.08L29,39.44a6.73,6.73,0,0,1-8.32,0L18,37.35a6.8,6.8,0,0,1-2.47-4.08l-.58-3.11C13,30.08,12,28,11.8,26c-.29-2.38.79-4.16,2.59-4.16V19.77c0-5.62,2-10.91,10.39-10.91s10.39,5.29,10.39,10.91v2.08c1.8,0,2.9,1.77,2.6,4.16C37.54,28,36.53,30,34.66,30.15Z" fill="#efc8a5"/>
            <path d="M35.18,21.85V19.77c0-5.62-2-10.91-10.39-10.91a14.62,14.62,0,0,0-2.88.25V19.88a4.09,4.09,0,0,1-1.32,3,.47.47,0,0,0,0,.66.49.49,0,0,0,.23.14,2.67,2.67,0,0,1,1.95,2,.5.5,0,0,0,.58.4h0a.55.55,0,0,0,.22-.1,1.52,1.52,0,0,1,.61-.33.5.5,0,0,1,.62.36.59.59,0,0,1,0,.14V28.3a1.15,1.15,0,0,0,.65,1c.6.33.17,1.46-.65,1.46h0a1.77,1.77,0,0,1-.93-.24c-.77-.38-1.23.25-1.07.55s.09-.06.87.32a2.86,2.86,0,0,0,1.15.28v4a.42.42,0,0,0,.32.39c1.37.32,2.09,2.59-.32,3.08h0a1.29,1.29,0,0,0-1.07,1.25v.47A6.83,6.83,0,0,0,29,39.51l2.66-2.09a6.8,6.8,0,0,0,2.47-4.08l.58-3.12h0c1.87-.13,2.88-2.16,3.12-4.15C38.08,23.62,37,21.85,35.18,21.85Z" fill="#e6b790"/>
            <line x1="24.93" y1="31.82" x2="24.93" y2="32.57" fill="none" stroke="#ddad8a" stroke-linecap="round" stroke-miterlimit="10" stroke-width="0.65"/>
            <path d="M23,31c1,0,1,.5,2,.5s1-.5,2-.5" fill="none" stroke="#c6916d" stroke-linecap="round" stroke-miterlimit="10" stroke-width="0.65"/>
            <path d="M17.08,23.77a3.65,3.65,0,0,1,1.37-.56,4.53,4.53,0,0,1,1.47,0c.48.08.94.2,1.39.32a10.64,10.64,0,0,0,1.27.29h0a.52.52,0,0,1,.52.53.53.53,0,0,1-.54.53h-.17A10.55,10.55,0,0,1,21,24.36a12,12,0,0,0-1.25-.49,3.73,3.73,0,0,0-1.28-.2,1.94,1.94,0,0,0-1.2.39.19.19,0,0,1-.25-.1.17.17,0,0,1,0-.19S17,23.78,17.08,23.77Z" fill="#333"/>
            <path d="M32.28,24.07a1.88,1.88,0,0,0-1.2-.39,3.93,3.93,0,0,0-1.27.21c-.42.13-.83.31-1.26.49a9.62,9.62,0,0,1-1.39.51.54.54,0,0,1-.68-.29.52.52,0,0,1,.29-.68.4.4,0,0,1,.15,0H27a8.84,8.84,0,0,0,1.26-.28c.45-.12.91-.25,1.39-.33a4.53,4.53,0,0,1,1.47,0,3.63,3.63,0,0,1,1.37.55.19.19,0,0,1,0,.26.2.2,0,0,1-.23.06Z" fill="#333"/>
            <path d="M22.2,26.53c-.58-.33-1.93-1.92-3.86-.33a4.83,4.83,0,0,1-.76-.25,4.84,4.84,0,0,1,3.31-.26" fill="#333" stroke="#333" stroke-linecap="round" stroke-miterlimit="10" stroke-width="0.5"/>
            <ellipse cx="20.27" cy="26.21" rx="0.81" ry="0.47" fill="#333"/>
            <path d="M27.74,26.53c.58-.33,1.93-1.92,3.86-.33a5.2,5.2,0,0,0,.76-.25A4.84,4.84,0,0,0,29,25.66" fill="#333" stroke="#333" stroke-linecap="round" stroke-miterlimit="10" stroke-width="0.5"/>
            <ellipse cx="29.67" cy="26.21" rx="0.81" ry="0.47" fill="#333"/>
            <path d="M34.66,30.15l-.58,3.12a6.8,6.8,0,0,1-2.47,4.08L29,39.44a6.73,6.73,0,0,1-8.32,0L18,37.35a6.8,6.8,0,0,1-2.47-4.08l-.58-3.11C13,30.08,12,28,11.8,26c-.29-2.38.79-4.16,2.59-4.16V19.77c0-5.62,2-10.91,10.39-10.91s10.39,5.29,10.39,10.91v2.08c1.8,0,2.9,1.77,2.6,4.16C37.54,28,36.53,30,34.66,30.15Z" fill="none" stroke="#333" stroke-linejoin="round" stroke-width="1.5"/>
            <circle cx="28.55" cy="29.71" r="0.29" fill="#d8a884"/>
            <circle cx="29.74" cy="30.62" r="0.29" fill="#d8a884"/>
            <circle cx="30.03" cy="29.42" r="0.29" fill="#d8a884"/>
            <circle cx="31.07" cy="30.28" r="0.29" fill="#d8a884"/>
            <circle cx="21.13" cy="29.71" r="0.29" fill="#d8a884"/>
            <circle cx="19.94" cy="30.62" r="0.29" fill="#d8a884"/>
            <circle cx="19.65" cy="29.42" r="0.29" fill="#d8a884"/>
            <circle cx="18.62" cy="30.28" r="0.29" fill="#d8a884"/>
            <path d="M24.85,7.53c-8.6,0-12,6.73-12,10.56,0,4.35,2.43,6.24,2.43,9.18,0-7.9,10.31-5.45,13.7-10.8,0,5.72,5.41,5.52,5.41,10.8,0-2.65,3-3,3-9.18C37.49,14.26,33.45,7.53,24.85,7.53Z" fill="#333" stroke="#333" stroke-linecap="round" stroke-linejoin="round" stroke-width="0.96"/>
            <path d="M30.45,15.08a7,7,0,0,0,.31,2.35,7.85,7.85,0,0,0,1.16,2.1c.5.68,1.08,1.32,1.59,2a4.78,4.78,0,0,1,1,2.51.2.2,0,0,1-.19.21.19.19,0,0,1-.21-.18A4.06,4.06,0,0,0,33,22c-.53-.64-1.16-1.23-1.75-1.9a8.54,8.54,0,0,1-1.49-2.28,8.25,8.25,0,0,1-.6-2.72A.63.63,0,0,1,30.44,15h0Z" fill="#555"/>
            <path d="M16.75,26.91h7l-1,1.76a1.46,1.46,0,0,1-1.25.74H19.36a2,2,0,0,1-1.73-1Z" fill="#f7d8bf"/>
            <path d="M21.4,29.41a1.42,1.42,0,0,0,.22-.74,1.33,1.33,0,0,0-.09-.49A.25.25,0,0,0,21.3,28H19.18a.23.23,0,0,0-.23.16,1.33,1.33,0,0,0-.09.49,1.35,1.35,0,0,0,.2.7h.32Z" fill="#f9e2d2"/>
            <path d="M32.84,26.91h-7l1,1.76a1.46,1.46,0,0,0,1.25.74h2.14a2,2,0,0,0,1.73-1Z" fill="#f7d8bf"/>
            <path d="M30.54,29.41a1.42,1.42,0,0,0,.22-.74,1.33,1.33,0,0,0-.09-.49.25.25,0,0,0-.23-.16H28.32a.23.23,0,0,0-.23.16,1.33,1.33,0,0,0-.09.49,1.35,1.35,0,0,0,.2.7h.32Z" fill="#f9e2d2"/>
            <path d="M23.71,26.91h-7l.88,1.51a2,2,0,0,0,1.73,1h2.13a1.44,1.44,0,0,0,1.25-.74l1-1.76a1.14,1.14,0,0,1,2.18,0l1,1.76a1.46,1.46,0,0,0,1.25.74h2.13a2,2,0,0,0,1.73-1l.88-1.51h-7" fill="none" stroke="#333" stroke-linecap="round" stroke-linejoin="round" stroke-width="0.75"/>
            <line x1="21.93" y1="33.8" x2="21.43" y2="34.8" fill="none" stroke="#ddad8a" stroke-linecap="round" stroke-miterlimit="10" stroke-width="0.65"/>
            <line x1="27.93" y1="33.8" x2="28.43" y2="34.8" fill="none" stroke="#ddad8a" stroke-linecap="round" stroke-miterlimit="10" stroke-width="0.65"/>
            <path d="M25.71,33.1a1.92,1.92,0,0,1-.78.2c-.2,0-.22,0-.68-.2-.8-.32-.85.66-2.33,1.2l.92.94a2.2,2.2,0,0,0,1.55.56h1a2.56,2.56,0,0,0,1.67-.6l.86-.9C26.51,33.79,26.51,32.78,25.71,33.1Z" fill="#a56659"/>
            <path d="M27.92,34.3c-1,0-1.49-.49-3,0h0c-1.48-.5-2,0-3,0" fill="none" stroke="#743f40" stroke-linecap="round" stroke-miterlimit="10" stroke-width="0.61"/>
            <path d="M19,24.16A8.22,8.22,0,0,1,22.18,21c1.21-.79,2.39-1.53,3.45-2.38a18.43,18.43,0,0,0,2.93-2.79,18.51,18.51,0,0,0,2.15-3.53h0a.34.34,0,0,1,.63.25,15.61,15.61,0,0,1-1.79,4,12.63,12.63,0,0,1-3,3.27,32.58,32.58,0,0,1-3.74,2.22,8.58,8.58,0,0,0-3.16,2.48h0a.36.36,0,0,1-.48.08A.34.34,0,0,1,19,24.16Z" fill="#555"/>
            <path d="M15.45,22.63a5.62,5.62,0,0,1,1.35-2.1l.46-.44.5-.37a7.42,7.42,0,0,1,1-.69,36.42,36.42,0,0,1,4.3-2.11c1.44-.62,2.9-1.14,4.25-1.83a9.37,9.37,0,0,0,3.45-2.79h0a.33.33,0,0,1,.47-.09h0a.34.34,0,0,1,.11.43,9.18,9.18,0,0,1-3.42,3.52,25.72,25.72,0,0,1-4.29,2.16c-1.46.58-2.93,1.1-4.28,1.78a6.82,6.82,0,0,0-3.28,2.81h0a.34.34,0,0,1-.64-.24v0Z" fill="#555"/>
            <path d="M57.58,27.89l-4.09-.65a1,1,0,0,1-.85-1V24.92l2.59-.81a12.49,12.49,0,0,0,.19-4.6c-.45-1.79-.69-3.76-4.32-3.76s-3.25,3.7-3.25,3.7v6.82a1,1,0,0,1-.82,1l-3.34.61a1.39,1.39,0,0,0-1.09,1v7.61a1.13,1.13,0,0,0,1.12,1.12H57.5a1.13,1.13,0,0,0,1.12-1.08l.08-7.6A1.41,1.41,0,0,0,57.58,27.89Z" fill="#c4d9df"/>
            <path d="M48.09,36H46a1.24,1.24,0,0,1-1.2-1.2V32.19A3.12,3.12,0,0,1,48,29.07H48a1.22,1.22,0,0,1,1.2,1.2v4.56A1.09,1.09,0,0,1,48.17,36Z" fill="#dd9292"/>
            <path d="M48.09,36H46a1.24,1.24,0,0,1-1.2-1.2V32.19A3.12,3.12,0,0,1,48,29.07H48a1.22,1.22,0,0,1,1.2,1.2v4.56A1.09,1.09,0,0,1,48.17,36Z" fill="none" stroke="#333" stroke-linejoin="round" stroke-width="1.2"/>
            <path d="M53.21,36h2.08a1.24,1.24,0,0,0,1.2-1.2V32.19a3.12,3.12,0,0,0-3.12-3.12h-.08a1.22,1.22,0,0,0-1.2,1.2v4.56A1.09,1.09,0,0,0,53.15,36Z" fill="#dd9292"/>
            <path d="M53.21,36h2.08a1.24,1.24,0,0,0,1.2-1.2V32.19a3.12,3.12,0,0,0-3.12-3.12h-.08a1.22,1.22,0,0,0-1.2,1.2v4.56A1.09,1.09,0,0,0,53.15,36Z" fill="none" stroke="#333" stroke-linejoin="round" stroke-width="1.2"/>
            <polyline points="49.37 31.23 50.65 29.95 51.93 31.23" fill="none" stroke="#333" stroke-linejoin="round" stroke-width="1.2"/>
            <line x1="50.65" y1="26.11" x2="50.65" y2="29.95" fill="none" stroke="#333" stroke-linejoin="round" stroke-width="1.2"/>
            <line x1="50.65" y1="24.11" x2="50.65" y2="25.31" fill="none" stroke="#333" stroke-linejoin="round" stroke-width="1.2"/>
            <polyline points="50.65 23.3 50.65 22.11 52.47 22.11" fill="none" stroke="#333" stroke-linejoin="round" stroke-width="1.2"/>
            <line x1="53.63" y1="22.01" x2="55.23" y2="22.01" fill="none" stroke="#333" stroke-linejoin="round" stroke-width="1.2"/>
            <path d="M10.85,56.84a1.79,1.79,0,0,1-1.76-1.76v-3.2a1.78,1.78,0,0,1,1.76-1.76h2.48a1.78,1.78,0,0,1,1.76,1.76v3.2a1.79,1.79,0,0,1-1.76,1.76" fill="none" stroke="#333" stroke-linejoin="round" stroke-width="1.2"/>
            <line x1="10.85" y1="56.36" x2="10.85" y2="57.32" fill="none" stroke="#333" stroke-linecap="round" stroke-linejoin="round" stroke-width="1.2"/>
            <line x1="13.33" y1="56.36" x2="13.33" y2="57.32" fill="none" stroke="#333" stroke-linecap="round" stroke-linejoin="round" stroke-width="1.2"/>
            <path d="M34.53,38.68a3.59,3.59,0,0,1,3.6,3.58h0V52a3.6,3.6,0,0,1-3.58,3.6h0" fill="none" stroke="#333" stroke-linejoin="round" stroke-width="1.2"/>
            <path d="M12.13,50V42.28a3.58,3.58,0,0,1,3.58-3.6h0" fill="none" stroke="#333" stroke-linejoin="round" stroke-width="1.2"/>
            <circle cx="33.25" cy="55.64" r="3.12" fill="#9cbbbc"/>
            <circle cx="33.25" cy="55.64" r="0.88" fill="#e6f3f4"/>
            <circle cx="33.25" cy="55.64" r="3.12" fill="none" stroke="#333" stroke-linejoin="round" stroke-width="1.2"/>
          </g>
        </g>
      </g>
      <path d="M30.3,30.85a5.21,5.21,0,0,1,2.23,7,5,5,0,0,1-.66,1c-.82,1-6.44,9.31-14.3,0a5.18,5.18,0,0,1,1.58-8l4.33-2.25a2.75,2.75,0,0,1,2.5,0Z" fill="#fff"/>
      <path d="M17.14,32.73a21.85,21.85,0,0,1-3.58-8.89" fill="#fff" stroke="#333" stroke-linecap="round" stroke-linejoin="round" stroke-width="1.5"/>
      <path d="M32.56,32.73a21.85,21.85,0,0,0,3.58-8.89" fill="#fff" stroke="#333" stroke-linecap="round" stroke-linejoin="round" stroke-width="1.5"/>
      <line x1="16.34" y1="35.37" x2="14.77" y2="34.5" fill="none" stroke="#333" stroke-linecap="round" stroke-linejoin="round" stroke-width="1.5"/>
      <line x1="33.36" y1="35.37" x2="34.93" y2="34.5" fill="none" stroke="#333" stroke-linecap="round" stroke-linejoin="round" stroke-width="1.5"/>
      <path d="M30.3,30.85,26,28.61a2.75,2.75,0,0,0-2.5,0l-4.33,2.25a5.17,5.17,0,0,0-2.66,3.37,5.25,5.25,0,0,0,1.07,2.07c7.86,9.32,13.48,1,14.3,0A5.21,5.21,0,0,0,33,34.23,5.21,5.21,0,0,0,30.3,30.85Z" fill="#fff"/>
      <path d="M30.3,30.85,26,28.61a3,3,0,0,0-1.13-.29h0V36c0,2,2.1,1.54.83,3.93-2,3.67-6.77-2.76-6.77.39,0,.11,2.82,2,2.81,2.11,5.65,2.94,9.5-2.74,10.16-3.52a5.19,5.19,0,0,0-1.57-8Z" fill="#eee"/>
      <path d="M16.53,34.13a18.22,18.22,0,0,0,8.33,2.17,16.56,16.56,0,0,0,8.07-2.17" fill="none" stroke="#ddd" stroke-miterlimit="10" stroke-width="0.96"/>
      <path d="M16.53,36.26a18.09,18.09,0,0,0,8.33,2.17,16.56,16.56,0,0,0,8.07-2.17" fill="none" stroke="#ddd" stroke-miterlimit="10" stroke-width="0.96"/>
      <path d="M30.3,30.85a5.21,5.21,0,0,1,2.23,7,5,5,0,0,1-.66,1c-.82,1-6.44,9.31-14.3,0a5.18,5.18,0,0,1,1.58-8l4.33-2.25a2.75,2.75,0,0,1,2.5,0Z" fill="none" stroke="#333" stroke-linejoin="round" stroke-width="1.5"/>
    </g>
  </g>
</svg>
