<svg xmlns="http://www.w3.org/2000/svg" viewBox="0 0 64 64">
  <g id="pulmonologist-african-female-coronavirus">
    <g id="aefd3f5f-1030-4c72-8603-fac9a22ec8f5">
      <g id="b4cc8e8f-5edf-47c2-bdb6-c265c559f9e8">
        <g id="aefa137a-55eb-4b43-b4a5-0df278b7ec93">
          <g id="f8b06342-d51c-4473-b48c-c8d68fae9521">
            <path d="M46.24,46.56A5.5,5.5,0,0,0,42,42.16c-3.8-.73-7.62-1.57-13.12-2.6V35.29H16.59v4.27c-5.4,1-9.47,1.78-13.06,2.61a5.61,5.61,0,0,0-4.19,4.4L-1,48.44c1.22.74,12,5.17,23.83,5a59.15,59.15,0,0,0,23.63-5Z" fill="#b48b6f"/>
            <path d="M16.59,35.29v1.24l5,5.18a4.07,4.07,0,0,1,1.15,2.85,2.63,2.63,0,0,0,2.63,2.63h.52a3,3,0,0,0,3-3v-8.9Z" fill="#a47b64"/>
            <path d="M16.59,39.55c-5.4,1-9.47,1.78-13.06,2.61a5.61,5.61,0,0,0-4.19,4.4L-1,48.44c1.22.74,12,5.17,23.83,5a59.15,59.15,0,0,0,23.63-5l-.25-1.9A5.47,5.47,0,0,0,42,42.16c-3.8-.73-7.62-1.57-13.12-2.6" fill="none" stroke="#333" stroke-linejoin="round" stroke-width="1.5"/>
            <path d="M46.24,46.56A5.5,5.5,0,0,0,42,42.16c-3.8-.73-7.62-1.57-13.12-2.6h-.1a13.18,13.18,0,0,1-6,8.95,13.15,13.15,0,0,1-6-8.95h-.3c-5.4,1-9.47,1.78-13.06,2.61a5.61,5.61,0,0,0-4.19,4.4L-1,48.44c1.22.74,12,5.17,23.83,5a59.15,59.15,0,0,0,23.63-5Z" fill="#dae4e8"/>
            <path d="M14.18,40c-4.23.79-7.62,1.47-10.65,2.16a5.61,5.61,0,0,0-4.19,4.4L-1,48.44a57.4,57.4,0,0,0,16.85,4.62A44.75,44.75,0,0,1,14.18,40Z" fill="#eee"/>
            <path d="M29.86,53a55.48,55.48,0,0,0,16.62-4.51l-.25-1.9a5.49,5.49,0,0,0-4.2-4.4c-3.17-.61-6.36-1.29-10.51-2.1A44.7,44.7,0,0,1,29.86,53Z" fill="#eee"/>
            <path d="M42,45c-10.58-2.12-14-2.61-14-2.61a13.09,13.09,0,0,1-5.13,6.11,13,13,0,0,1-5.17-6.11S7.73,44,3.53,45a5.54,5.54,0,0,0-4,3.7,59.92,59.92,0,0,0,23.32,4.76A61.12,61.12,0,0,0,46,48.69,5.4,5.4,0,0,0,42,45Z" fill="#bcdaf7"/>
            <path d="M31.78,41.67l-3-2.12c-.73,5.39-5.82,8.84-6,9v.84A10.09,10.09,0,0,0,27,47.67l4.76,2.87V41.67Z" fill="#91acc1"/>
            <path d="M16.85,39.36l-2.91,2.32v8.88l6.64-3.9C19,44.53,17.28,42.52,16.85,39.36Z" fill="#91acc1"/>
            <path d="M29.87,53A58.85,58.85,0,0,0,46,48.69,5.4,5.4,0,0,0,42,45c-3.19-.61-6.41-1.3-10.6-2.12A41.11,41.11,0,0,1,29.87,53Z" fill="#ddd"/>
            <path d="M14.27,42.79C10,43.59,6.58,44.27,3.53,45a5.52,5.52,0,0,0-4,3.7A60.55,60.55,0,0,0,15.88,53,39.49,39.49,0,0,1,14.27,42.79Z" fill="#ddd"/>
            <path d="M8.66,51.47l.37.32A63.6,63.6,0,0,0,15.89,53c-1.12-3.51-1.64-7.63-1.71-13.47L7.5,45.23,11.36,48Z" fill="#fff"/>
            <path d="M36.8,51.72l.27-.25L34.37,48l3.86-2.72-6.68-5.67C31.48,45.37,31,49.47,29.87,53A65.35,65.35,0,0,0,36.8,51.72Z" fill="#fff"/>
            <path d="M16.59,39.55c-5.4,1-9.47,1.78-13.06,2.61a5.61,5.61,0,0,0-4.19,4.4L-1,48.44c1.22.74,12,5.17,23.83,5a59.15,59.15,0,0,0,23.63-5l-.25-1.9A5.47,5.47,0,0,0,42,42.16c-3.8-.73-7.62-1.57-13.12-2.6" fill="none" stroke="#333" stroke-linejoin="round" stroke-width="1.5"/>
            <line x1="22.86" y1="48.5" x2="22.86" y2="53.46" fill="none" stroke="#333" stroke-linejoin="round" stroke-width="1.5"/>
            <path d="M29.16,37.54l2.62,2.09v8.88l-5.25-3.13C28.09,43.25,28.73,40.69,29.16,37.54Z" fill="#bcdaf7"/>
            <path d="M16.56,37.54l-2.62,2.09v8.88l5.25-3.13C17.63,43.25,17,40.69,16.56,37.54Z" fill="#bcdaf7"/>
            <path d="M19.18,45.37l-5.25,3.12V39.61l2.62-2.09h0c.62,5.2,2.4,8.31,6.3,11,3.9-2.66,5.68-5.77,6.3-11h0l2.62,2.09v8.88l-5.25-3.13" fill="none" stroke="#333" stroke-linejoin="round" stroke-width="1.5"/>
            <path d="M28.16,35.33a4.73,4.73,0,0,0,2.36,1.18c2-3.32,8-4.52,10.29-13.19-4.18-5.73-.54-17.82-11.57-17" fill="#333"/>
            <path d="M28.34,35.17a4.57,4.57,0,0,0,2.26,1.07l-.31.12a12,12,0,0,1,3.08-3.08,27.89,27.89,0,0,0,3.15-2.8,16.06,16.06,0,0,0,3.83-7.29l.08.4a14.82,14.82,0,0,1-2.2-5.49c-.43-1.89-.72-3.79-1.23-5.58a7.91,7.91,0,0,0-2.67-4.46,7.49,7.49,0,0,0-5-1l-.11-1.5a12.48,12.48,0,0,1,3.05.16A6.88,6.88,0,0,1,35.17,7a9,9,0,0,1,3,5.24c.49,1.91.73,3.82,1.11,5.67A13.7,13.7,0,0,0,41.18,23h0a.48.48,0,0,1,.07.39,19.19,19.19,0,0,1-1.61,4.06A16.26,16.26,0,0,1,37,31a27.2,27.2,0,0,1-3.26,2.8,11.62,11.62,0,0,0-3,2.85h0a.27.27,0,0,1-.31.11q-.66-.2-1.29-.45A3.17,3.17,0,0,1,28,35.47Z" fill="#333"/>
            <path d="M32.36,29.46l-.55,3a6.56,6.56,0,0,1-2.38,3.93l-2.56,2a6.49,6.49,0,0,1-8,0l-2.56-2a6.47,6.47,0,0,1-2.37-3.92l-.55-3c-1.84-.08-2.77-2.06-3-4-.28-2.29.76-4,2.49-4v-2c0-5.41,2-10.51,10-10.51s10,5.09,10,10.51v2c1.73,0,2.79,1.71,2.51,4-.25,1.9-1.23,3.86-3,4Z" fill="#a88064"/>
            <path d="M22.86,8.23c8.38,0,11,5.27,11,10.92v1.56c1.81,0,2.22,1.89,1.93,4.28-.25,2-1,4.53-3,4.58v1c0,3.13-2.5,4.76-5.4,7.79-1.92,2-3.23,1.6-4.5,1.6s-2.59.4-4.51-1.6c-2.91-3-5.4-4.65-5.4-7.79v-1C11,29.51,10.25,27,10,25c-.29-2.39.13-4.28,1.93-4.28V19.15C11.91,13.49,14.48,8.23,22.86,8.23Z" fill="#a88064"/>
            <path d="M33.81,20.71V19.15c0-5.64-2.57-10.92-11-10.92a15.52,15.52,0,0,0-2.89.24V19.19a4.09,4.09,0,0,1-1.32,3,.46.46,0,0,0,.2.8,2.68,2.68,0,0,1,2,2,.5.5,0,0,0,.58.4h0a.55.55,0,0,0,.22-.1,1.65,1.65,0,0,1,.61-.33.51.51,0,0,1,.62.36h0a.59.59,0,0,1,0,.14v2.15a1.14,1.14,0,0,0,.65,1c.6.33.17,1.46-.65,1.46h0a1.87,1.87,0,0,1-.93-.24c-.77-.39-1.49.4-1.33.71s.35,0,1.13.36a2.21,2.21,0,0,0,1.13.28h0V35a.41.41,0,0,0,.32.39c1.37.32,2.1,2.6-.32,3.09h0a1.27,1.27,0,0,0-1.07,1.26v.32h1.08c1.27,0,2.58.4,4.5-1.6,2.91-3,5.4-4.66,5.4-7.79v-1c1.94-.06,2.72-2.55,3-4.58C36,22.59,35.62,20.71,33.81,20.71Z" fill="#a0775c"/>
            <path d="M24.32,11.36c7.43.46,8.34,5.78,8.44,10.77a.23.23,0,0,0,.23.21.27.27,0,0,0,.18-.11,7.73,7.73,0,0,1,1.1-1.44" fill="none" stroke="#936b55" stroke-linecap="round" stroke-linejoin="round" stroke-width="2.09"/>
            <path d="M22.86,8.23c8.38,0,11,5.27,11,10.92v1.56c1.81,0,2.22,1.89,1.93,4.28-.25,2-1,4.53-3,4.58v1c0,3.13-2.5,4.76-5.4,7.79-1.92,2-3.23,1.6-4.5,1.6s-2.59.4-4.51-1.6c-2.91-3-5.4-4.65-5.4-7.79v-1C11,29.51,10.25,27,10,25c-.29-2.39.13-4.28,1.93-4.28V19.15C11.91,13.49,14.48,8.23,22.86,8.23Z" fill="none" stroke="#333" stroke-linejoin="round" stroke-width="1.5"/>
            <path d="M15.12,23.17a7.4,7.4,0,0,1,2.79-.49,6.87,6.87,0,0,1,2.82.67.5.5,0,0,1-.43.91h-.06a6.29,6.29,0,0,0-2.39-.92,4.89,4.89,0,0,0-2.6.2.18.18,0,0,1-.24-.08.17.17,0,0,1,.08-.23h0Z" fill="#333"/>
            <path d="M30.32,23.49a5.1,5.1,0,0,0-2.6-.2,6.4,6.4,0,0,0-2.39.92.49.49,0,0,1-.68-.18.5.5,0,0,1,.14-.66h.06a7.2,7.2,0,0,1,2.82-.67,7.81,7.81,0,0,1,2.79.49.19.19,0,0,1,.11.23.17.17,0,0,1-.23.11h0Z" fill="#333"/>
            <circle cx="27.44" cy="25.65" r="0.75" fill="#333"/>
            <circle cx="18.13" cy="25.65" r="0.75" fill="#333"/>
            <path d="M21.82,26.18a1.14,1.14,0,0,1,2.18,0" fill="none" stroke="#333" stroke-linecap="round" stroke-linejoin="round" stroke-width="0.75"/>
            <path d="M14.86,26.18h7l-1,1.76a1.46,1.46,0,0,1-1.25.74H17.47a2,2,0,0,1-1.73-1Z" fill="#bf9882"/>
            <path d="M19.51,28.68a1.39,1.39,0,0,0,.22-.74,1.33,1.33,0,0,0-.09-.49.25.25,0,0,0-.23-.16H17.29a.23.23,0,0,0-.23.16,1.33,1.33,0,0,0-.09.49,1.35,1.35,0,0,0,.2.7h.32Z" fill="#c49e8c"/>
            <path d="M31,26.18H24l1,1.76a1.46,1.46,0,0,0,1.25.74h2.13a2,2,0,0,0,1.73-1Z" fill="#bf9882"/>
            <path d="M28.65,28.68a1.39,1.39,0,0,0,.22-.74,1.33,1.33,0,0,0-.09-.49.25.25,0,0,0-.23-.16H26.43a.23.23,0,0,0-.23.16,1.33,1.33,0,0,0-.09.49,1.35,1.35,0,0,0,.2.7h.32Z" fill="#c49e8c"/>
            <path d="M14.86,26.18h7l-1,1.76a1.46,1.46,0,0,1-1.25.74H17.47a2,2,0,0,1-1.73-1Z" fill="none" stroke="#333" stroke-linecap="round" stroke-linejoin="round" stroke-width="0.75"/>
            <path d="M31,26.18H24l1,1.76a1.46,1.46,0,0,0,1.25.74h2.13a2,2,0,0,0,1.73-1Z" fill="none" stroke="#333" stroke-linecap="round" stroke-linejoin="round" stroke-width="0.75"/>
            <path d="M20.7,30.89c1,0,1,.82,2.09.82s1-.82,2.09-.82" fill="none" stroke="#9c6f57" stroke-linecap="round" stroke-miterlimit="10" stroke-width="0.38"/>
            <line x1="22.79" y1="31.72" x2="22.79" y2="32.23" fill="none" stroke="#9c6f57" stroke-linecap="round" stroke-miterlimit="10" stroke-width="0.52"/>
            <path d="M20.62,35.12a2.32,2.32,0,0,0,1.63.58H23.3A2.67,2.67,0,0,0,25,35.07" fill="none" stroke="#a3775d" stroke-linecap="round" stroke-miterlimit="10" stroke-width="0.75"/>
            <path d="M20.7,30.63c1,0,1,.52,2.09.52s1-.52,2.09-.52" fill="none" stroke="#674848" stroke-linecap="round" stroke-miterlimit="10" stroke-width="0.75"/>
            <line x1="19.79" y1="33.67" x2="19.29" y2="34.67" fill="none" stroke="#936b55" stroke-linecap="round" stroke-miterlimit="10" stroke-width="0.5"/>
            <line x1="25.79" y1="33.67" x2="26.29" y2="34.67" fill="none" stroke="#936b55" stroke-linecap="round" stroke-miterlimit="10" stroke-width="0.5"/>
            <path d="M23.57,33a1.92,1.92,0,0,1-.78.2c-.2,0-.22,0-.68-.2-.8-.32-.85.66-2.33,1.2l.92.94a2.2,2.2,0,0,0,1.55.56h1a2.56,2.56,0,0,0,1.67-.6l.86-.9C24.38,33.66,24.37,32.65,23.57,33Z" fill="#925140"/>
            <path d="M25.79,34.17c-1,0-1.49-.49-3,0h0c-1.48-.5-2,0-3,0" fill="none" stroke="#743f40" stroke-linecap="round" stroke-miterlimit="10" stroke-width="0.5"/>
            <path d="M12.9,28.54a19.62,19.62,0,0,0,.37,7.16" fill="none" stroke="#3f3f3f" stroke-linecap="round" stroke-miterlimit="10" stroke-dasharray="1.75 1.17"/>
            <circle cx="27.44" cy="25.65" r="0.75" fill="#333"/>
            <circle cx="18.13" cy="25.65" r="0.75" fill="#333"/>
            <path d="M16.62,18.35a7,7,0,0,1,3.46,0,8,8,0,0,0,3.52,0,6,6,0,0,1,3.52,0" fill="none" stroke="#a88064" stroke-linecap="round" stroke-miterlimit="10" stroke-width="0.46"/>
            <path d="M18.77,15.58h0a17.77,17.77,0,0,0,6,0h.07" fill="none" stroke="#a88064" stroke-linecap="round" stroke-miterlimit="10" stroke-width="0.54"/>
            <path d="M27.74,5c-1.57,3.84-11.1,6.22-15.06,21.17" fill="none" stroke="#3f3f3f" stroke-linecap="round" stroke-miterlimit="10" stroke-dasharray="1.75 1.17"/>
            <path d="M28.36,30.16a5.2,5.2,0,0,1,2.23,7,5,5,0,0,1-.66,1c-.82,1-6.44,9.31-14.3,0a5.22,5.22,0,0,1,.62-7.35,5,5,0,0,1,1-.65l4.32-2.24a2.69,2.69,0,0,1,2.5,0Z" fill="#fff"/>
            <path d="M15.2,32a21.79,21.79,0,0,1-3.58-8.89" fill="#fff" stroke="#333" stroke-linecap="round" stroke-linejoin="round" stroke-width="1.5"/>
            <path d="M30.62,32a21.79,21.79,0,0,0,3.58-8.89" fill="#fff" stroke="#333" stroke-linecap="round" stroke-linejoin="round" stroke-width="1.5"/>
            <line x1="14.4" y1="34.67" x2="12.83" y2="33.81" fill="none" stroke="#333" stroke-linecap="round" stroke-linejoin="round" stroke-width="1.5"/>
            <line x1="31.42" y1="34.67" x2="32.99" y2="33.81" fill="none" stroke="#333" stroke-linecap="round" stroke-linejoin="round" stroke-width="1.5"/>
            <path d="M28.36,30.16l-4.31-2.24a2.69,2.69,0,0,0-2.5,0l-4.33,2.24a5.17,5.17,0,0,0-2.65,3.37,5.1,5.1,0,0,0,1.07,2.08c7.86,9.32,13.48,1,14.29,0A5.18,5.18,0,0,0,31,33.53,5.14,5.14,0,0,0,28.36,30.16Z" fill="#fff"/>
            <path d="M28.36,30.16l-4.31-2.24a2.63,2.63,0,0,0-1.13-.29h0v7.64c0,2,2.1,1.53.83,3.93-2,3.67-6.77-2.77-6.77.39,0,.11,2.82,2,2.81,2.1,5.65,2.94,9.5-2.73,10.16-3.51a5.21,5.21,0,0,0-.58-7.35A4.74,4.74,0,0,0,28.36,30.16Z" fill="#eee"/>
            <path d="M14.59,33.44a18.22,18.22,0,0,0,8.33,2.17A16.56,16.56,0,0,0,31,33.44" fill="none" stroke="#ddd" stroke-miterlimit="10" stroke-width="0.96"/>
            <path d="M14.59,35.57a18.22,18.22,0,0,0,8.33,2.17A16.56,16.56,0,0,0,31,35.57" fill="none" stroke="#ddd" stroke-miterlimit="10" stroke-width="0.96"/>
            <path d="M28.36,30.16a5.2,5.2,0,0,1,2.23,7,5,5,0,0,1-.66,1c-.82,1-6.44,9.31-14.3,0a5.22,5.22,0,0,1,.62-7.35,5,5,0,0,1,1-.65l4.32-2.24a2.69,2.69,0,0,1,2.5,0Z" fill="none" stroke="#333" stroke-linejoin="round" stroke-width="1.5"/>
            <path d="M11.66,3.79l2.74,1a15.58,15.58,0,0,0-7.69,6.9l4.6-.95C3,16.67,8,30.65,6.15,35.07A28.09,28.09,0,0,0,8.71,32a63,63,0,0,1-1,6.82A11.41,11.41,0,0,0,11,36.31s.72,4.6.16,7.08c8.15-8.73,1.71-21.92,13.18-32,8.37,0,8.45,7.43,8.45,12.77.11-1.34,1.25-2.5,2.15-3.5C40.81,14,34.25-4.21,11.66,3.79Z" fill="#333" stroke="#333" stroke-linejoin="round" stroke-width="1.5"/>
            <path d="M8.26,9.59l1.45-1a.46.46,0,0,1,.65.12h0a.47.47,0,0,1-.11.65h0l-1.4,1h0a.5.5,0,0,1-.7-.1.51.51,0,0,1,.1-.7h0Z" fill="#3f3f3f"/>
            <path d="M10.7,8,12.22,7a.44.44,0,0,1,.59.15.41.41,0,0,1-.14.57h0l-1.46.93h0a.47.47,0,0,1-.61-.22.46.46,0,0,1,.12-.55Z" fill="#3f3f3f"/>
            <path d="M13.27,6.48l1.61-.76a.37.37,0,0,1,.51.17h0a.39.39,0,0,1-.17.5h0l-1.54.78h0A.41.41,0,0,1,13.12,7a.4.4,0,0,1,.14-.54l.05,0Z" fill="#3f3f3f"/>
            <path d="M16,5.29l1.66-.5a.33.33,0,0,1,.42.2h0a.34.34,0,0,1-.21.42h0L16.28,6h0a.36.36,0,0,1-.44-.28A.37.37,0,0,1,16,5.29Z" fill="#3f3f3f"/>
            <path d="M18.84,4.47,20.6,4.2a.29.29,0,0,1,.34.24.3.3,0,0,1-.24.33h0L19,5.09h0a.32.32,0,1,1-.14-.63h0Z" fill="#3f3f3f"/>
            <path d="M21.78,4.09h1.77a.25.25,0,0,1,.25.25.23.23,0,0,1-.24.25h0l-1.73.06h0a.27.27,0,0,1-.29-.27h0a.29.29,0,0,1,.28-.28Z" fill="#3f3f3f"/>
            <path d="M24.72,4.16l1.75.18a.2.2,0,0,1,0,.4h0l-1.73-.13h0a.24.24,0,0,1-.28-.18.24.24,0,0,1,.18-.27h.08Z" fill="#3f3f3f"/>
            <path d="M27.63,4.49l1.69.29a.17.17,0,0,1,.13.19h0a.16.16,0,0,1-.18.13l-1.69-.23h0a.19.19,0,0,1-.16-.21.22.22,0,0,1,.22-.17Z" fill="#3f3f3f"/>
            <path d="M28.87,6l-1.73.13h0A.19.19,0,0,1,26.92,6a.17.17,0,0,1,.13-.22h.09l1.76-.1a.15.15,0,0,1,.13.15A.17.17,0,0,1,28.87,6Z" fill="#3f3f3f"/>
            <path d="M26,6.23l-1.71.3h0a.21.21,0,0,1-.27-.11.2.2,0,0,1,.11-.27h0l1.74-.28a.2.2,0,0,1,.19.19.19.19,0,0,1-.13.18Z" fill="#3f3f3f"/>
            <path d="M23.15,6.79l-1.67.48h0a.25.25,0,0,1-.3-.19.26.26,0,0,1,.17-.29h0L23,6.37a.22.22,0,0,1,.26.15.2.2,0,0,1-.15.25h0Z" fill="#3f3f3f"/>
            <path d="M20.4,7.66l-1.59.68h0a.26.26,0,0,1-.33-.13h0a.26.26,0,0,1,.13-.33h0l1.64-.66a.23.23,0,0,1,.33.06.24.24,0,0,1-.06.34h0l-.06,0Z" fill="#3f3f3f"/>
            <path d="M17.78,8.86l-1.48.93h0A.28.28,0,0,1,16,9.34h0l.06,0h0l1.54-.88a.26.26,0,0,1,.36.09h0a.27.27,0,0,1-.09.36Z" fill="#3f3f3f"/>
            <path d="M15.36,10.41,14,11.51h0a.31.31,0,0,1-.44,0,.29.29,0,0,1,0-.4.27.27,0,0,1,.08-.07h0L15,10a.3.3,0,0,1,.41,0h0a.3.3,0,0,1,0,.4Z" fill="#3f3f3f"/>
            <path d="M13.21,12.31l-1.12,1.3h0a.33.33,0,0,1-.5-.44h0l1.19-1.33a.32.32,0,0,1,.45,0,.33.33,0,0,1,0,.42Z" fill="#3f3f3f"/>
            <path d="M11.42,14.53,10.53,16h0a.36.36,0,0,1-.66-.28h0a.41.41,0,0,1,.05-.09h0l1-1.51a.34.34,0,1,1,.58.36Z" fill="#3f3f3f"/>
            <path d="M10,17l-.64,1.59h0a.39.39,0,0,1-.5.21.38.38,0,0,1-.21-.5h0l.7-1.64a.36.36,0,0,1,.47-.2h0a.37.37,0,0,1,.2.48Z" fill="#3f3f3f"/>
            <path d="M9,19.69l-.41,1.67h0a.41.41,0,0,1-.5.3h0a.42.42,0,0,1-.3-.5h0l.45-1.72a.4.4,0,0,1,.49-.26.39.39,0,0,1,.27.45Z" fill="#3f3f3f"/>
            <path d="M8.42,22.49l-.2,1.71h0a.43.43,0,0,1-.86-.08v0h0l.24-1.76a.42.42,0,0,1,.83.1Z" fill="#3f3f3f"/>
            <path d="M8.15,25.35v1.73h0a.47.47,0,0,1-.41.52.46.46,0,0,1-.52-.39.29.29,0,0,1,0-.13h0l0-1.78a.45.45,0,0,1,.89,0Z" fill="#3f3f3f"/>
            <path d="M8.18,28.22l.13,1.72h0a.5.5,0,0,1-1,.07h0L7.2,28.24a.47.47,0,0,1,.94-.08v0Z" fill="#3f3f3f"/>
            <path d="M8.44,31.09v.16a.49.49,0,1,1-1,.11h0v-.17a.5.5,0,0,1,.44-.55.48.48,0,0,1,.53.43Z" fill="#3f3f3f"/>
            <path d="M28.35,6.94l-1.67.49h0a.18.18,0,0,1-.2-.16.17.17,0,0,1,.1-.18h0l1.7-.47a.16.16,0,0,1,.2.12h0a.17.17,0,0,1-.12.2Z" fill="#3f3f3f"/>
            <path d="M25.59,7.79,24,8.46h0a.21.21,0,0,1-.27-.1.19.19,0,0,1,.1-.26h0l1.64-.65a.18.18,0,0,1,.24.09h0a.2.2,0,0,1-.1.24Z" fill="#3f3f3f"/>
            <path d="M22.94,9l-1.5.87h0a.24.24,0,0,1-.33,0,.22.22,0,0,1,0-.32l.07,0h0l1.55-.87a.22.22,0,0,1,.29.09A.23.23,0,0,1,23,9Z" fill="#3f3f3f"/>
            <path d="M20.5,10.52l-1.34,1.1h0a.25.25,0,0,1-.35-.11.24.24,0,0,1,0-.29h0l1.4-1.1a.22.22,0,0,1,.31,0,.23.23,0,0,1,0,.32l-.05,0h0Z" fill="#3f3f3f"/>
            <path d="M18.33,12.42,17.2,13.73h0a.29.29,0,0,1-.4,0,.31.31,0,0,1,0-.33h0L18,12a.26.26,0,0,1,.39.35h0Z" fill="#3f3f3f"/>
            <path d="M16.53,14.66l-.9,1.47h0a.31.31,0,1,1-.58-.22h0a.35.35,0,0,1,.06-.09h0l.95-1.5a.3.3,0,0,1,.4-.09.29.29,0,0,1,.09.39Z" fill="#3f3f3f"/>
            <path d="M15.11,17.16l-.69,1.63h0a.33.33,0,1,1-.62-.24,0,0,0,0,1,0,0h0l.74-1.61a.32.32,0,0,1,.42-.16.3.3,0,0,1,.16.4h0Z" fill="#3f3f3f"/>
            <path d="M14,19.79l-.53,1.65h0a.36.36,0,0,1-.68-.22h0l.57-1.67a.33.33,0,0,1,.41-.22h0a.34.34,0,0,1,.21.44Z" fill="#3f3f3f"/>
            <path d="M13.17,22.59l-.43,1.69h0a.39.39,0,0,1-.46.28A.39.39,0,0,1,12,24.1h0l.46-1.7a.37.37,0,0,1,.43-.27h0A.38.38,0,0,1,13.17,22.59Z" fill="#3f3f3f"/>
            <path d="M12.48,25.41l-.38,1.71a.41.41,0,1,1-.8-.18h0l.41-1.7a.4.4,0,0,1,.52-.23.42.42,0,0,1,.25.41Z" fill="#3f3f3f"/>
            <path d="M11.84,28.26,11.44,30a.45.45,0,0,1-.52.33.43.43,0,0,1-.32-.52h0L11,28.07h0a.42.42,0,0,1,.51-.3A.41.41,0,0,1,11.84,28.26Z" fill="#3f3f3f"/>
            <path d="M11.16,31.11l-.48,1.68a.46.46,0,0,1-.89-.25h0l.5-1.66h0a.43.43,0,0,1,.54-.3h0A.48.48,0,0,1,11.16,31.11Z" fill="#3f3f3f"/>
            <path d="M10.32,33.94l-.63,1.67a.49.49,0,0,1-.91-.35h0l.64-1.6h0a.47.47,0,0,1,.9.28Z" fill="#3f3f3f"/>
            <path d="M9.19,36.69,9,37.08a.5.5,0,0,1-.92-.38l0-.07h0l.19-.36h0A.5.5,0,0,1,9,36a.49.49,0,0,1,.23.66v0Z" fill="#3f3f3f"/>
            <path d="M28.31,7.29c-16.4,11.85-10.46,33.5-17.17,36.1" fill="none" stroke="#333" stroke-linecap="round" stroke-linejoin="round" stroke-width="2"/>
            <path d="M11.46,42.34l.42-1.7h0a.51.51,0,0,1,.61-.39.52.52,0,0,1,.39.62l-.4,1.72a.53.53,0,0,1-.61.4.51.51,0,0,1-.39-.61h0Z" fill="#3f3f3f"/>
            <path d="M12.15,39.51l.38-1.72a.46.46,0,0,1,.91.15v0l-.35,1.72a.47.47,0,0,1-.55.37h0a.49.49,0,0,1-.38-.56Z" fill="#3f3f3f"/>
            <path d="M12.77,36.66,13.13,35a.44.44,0,0,1,.52-.34h0a.44.44,0,0,1,.34.51l-.33,1.72a.46.46,0,0,1-.54.35.45.45,0,0,1-.35-.53Z" fill="#3f3f3f"/>
            <path d="M13.36,33.79l.36-1.72a.41.41,0,1,1,.81.13v0L14.2,34a.43.43,0,0,1-.52.31A.42.42,0,0,1,13.36,33.79Z" fill="#3f3f3f"/>
            <path d="M14,31l.38-1.71a.4.4,0,0,1,.44-.32.4.4,0,0,1,.32.45s0,0,0,0l-.35,1.71A.4.4,0,0,1,14,31Z" fill="#3f3f3f"/>
            <path d="M14.61,28.09,15,26.38a.38.38,0,0,1,.44-.27.36.36,0,0,1,.27.43h0l-.39,1.7h0a.38.38,0,0,1-.45.28.38.38,0,0,1-.29-.44h0Z" fill="#3f3f3f"/>
            <path d="M15.33,25.25l.48-1.69a.34.34,0,0,1,.42-.23.33.33,0,0,1,.23.4h0L16,25.43h0a.36.36,0,0,1-.43.25h0a.36.36,0,0,1-.25-.44Z" fill="#3f3f3f"/>
            <path d="M16.16,22.43l.57-1.64a.33.33,0,0,1,.4-.2.31.31,0,0,1,.2.39h0l-.54,1.66h0a.33.33,0,0,1-.64-.19h0Z" fill="#3f3f3f"/>
            <path d="M17.15,19.66,17.84,18a.27.27,0,0,1,.36-.16h0a.3.3,0,0,1,.16.37h0l-.65,1.61h0a.32.32,0,0,1-.4.17.3.3,0,0,1-.17-.38h0Z" fill="#3f3f3f"/>
            <path d="M18.34,17l.83-1.56a.27.27,0,0,1,.36-.11.25.25,0,0,1,.11.35h0l-.79,1.54h0a.29.29,0,0,1-.38.12h0a.31.31,0,0,1-.11-.38Z" fill="#3f3f3f"/>
            <path d="M19.8,14.39l1-1.45a.25.25,0,0,1,.32-.07h0a.24.24,0,0,1,.06.33h0l-1,1.44h0a.26.26,0,0,1-.35.08h0a.28.28,0,0,1-.06-.37Z" fill="#3f3f3f"/>
            <path d="M21.55,12l1.21-1.24a.21.21,0,0,1,.3,0,.22.22,0,0,1,0,.3h0l-1.16,1.28h0a.24.24,0,0,1-.32,0,.25.25,0,0,1,0-.34h0Z" fill="#3f3f3f"/>
            <path d="M23.64,10,25,8.88a.18.18,0,0,1,.27,0h0a.2.2,0,0,1,0,.27h0l-1.36,1.07h0a.23.23,0,0,1-.29,0,.22.22,0,0,1,0-.3Z" fill="#3f3f3f"/>
            <path d="M26,8.24l1.57-.82a.16.16,0,1,1,.15.29h0l-1.53.83h0a.19.19,0,0,1-.25,0A.18.18,0,0,1,26,8.24h0l0,0Z" fill="#3f3f3f"/>
            <path d="M34,9.71A5.8,5.8,0,0,1,37,14a26.93,26.93,0,0,1,.29,4.92c.07,1.82,1,4.41,2.17,5.21" fill="none" stroke="#3f3f3f" stroke-linecap="round" stroke-miterlimit="10" stroke-dasharray="1.75 1.17"/>
            <path d="M13.12,3.28,14.86,3a.46.46,0,1,1,.22.9h0l-1.69.39h0a.51.51,0,0,1-.22-1Z" fill="#3f3f3f"/>
            <path d="M16,2.79l1.76-.2a.4.4,0,0,1,.45.34V3a.42.42,0,0,1-.34.45h0l-1.71.27h0a.45.45,0,0,1-.52-.36A.43.43,0,0,1,16,2.79Z" fill="#3f3f3f"/>
            <path d="M19,2.48l1.77,0a.35.35,0,0,1,.36.34h0a.37.37,0,0,1-.32.36h0L19,3.24h0a.4.4,0,0,1-.41-.36.38.38,0,0,1,.36-.4h0Z" fill="#3f3f3f"/>
            <path d="M21.92,2.47l1.77.14a.28.28,0,0,1,.27.3h0a.31.31,0,0,1-.3.27h0l-1.73-.07h0a.34.34,0,0,1-.27-.39.33.33,0,0,1,.27-.26Z" fill="#3f3f3f"/>
            <path d="M24.85,2.79l1.74.34a.22.22,0,0,1,.18.25h0v0a.23.23,0,0,1-.26.18h0l-1.73-.29h0a.27.27,0,0,1-.12-.53h0A.31.31,0,0,1,24.85,2.79Z" fill="#3f3f3f"/>
            <path d="M27.73,3.39l1.68.54a.18.18,0,0,1,.11.22.16.16,0,0,1-.2.12h0l-1.68-.48h0a.23.23,0,0,1-.15-.26.21.21,0,0,1,.25-.15h0Z" fill="#3f3f3f"/>
            <path d="M57.58,30.26l-4.09-.65a1,1,0,0,1-.85-1V27.29l2.59-.81a12.49,12.49,0,0,0,.19-4.6c-.45-1.79-.69-3.76-4.32-3.76s-3.25,3.67-3.25,3.67v6.82a1,1,0,0,1-.82,1l-3.34.61a1.39,1.39,0,0,0-1.09,1v7.61A1.12,1.12,0,0,0,43.72,40H57.5a1.13,1.13,0,0,0,1.12-1.11l.08-7.6A1.38,1.38,0,0,0,57.58,30.26Z" fill="#c4d9df"/>
            <path d="M48.09,38.32H46a1.24,1.24,0,0,1-1.2-1.2V34.56A3.12,3.12,0,0,1,48,31.44H48a1.22,1.22,0,0,1,1.2,1.2v4.55a1.09,1.09,0,0,1-1.06,1.12Z" fill="#dd9292"/>
            <path d="M48.09,38.32H46a1.24,1.24,0,0,1-1.2-1.2V34.56A3.12,3.12,0,0,1,48,31.44H48a1.22,1.22,0,0,1,1.2,1.2v4.55a1.09,1.09,0,0,1-1.06,1.12Z" fill="none" stroke="#333" stroke-linejoin="round" stroke-width="1.2"/>
            <path d="M53.21,38.32h2.08a1.24,1.24,0,0,0,1.2-1.2V34.56a3.12,3.12,0,0,0-3.12-3.12h-.08a1.22,1.22,0,0,0-1.2,1.2v4.55a1.09,1.09,0,0,0,1.06,1.12Z" fill="#dd9292"/>
            <path d="M53.21,38.32h2.08a1.24,1.24,0,0,0,1.2-1.2V34.56a3.12,3.12,0,0,0-3.12-3.12h-.08a1.22,1.22,0,0,0-1.2,1.2v4.55a1.09,1.09,0,0,0,1.06,1.12Z" fill="none" stroke="#333" stroke-linejoin="round" stroke-width="1.2"/>
            <polyline points="49.37 33.6 50.65 32.32 51.93 33.6" fill="none" stroke="#333" stroke-linejoin="round" stroke-width="1.2"/>
            <line x1="50.65" y1="28.48" x2="50.65" y2="32.32" fill="none" stroke="#333" stroke-linejoin="round" stroke-width="1.2"/>
            <line x1="50.65" y1="26.48" x2="50.65" y2="27.68" fill="none" stroke="#333" stroke-linejoin="round" stroke-width="1.2"/>
            <polyline points="50.65 25.68 50.65 24.48 52.47 24.48" fill="none" stroke="#333" stroke-linejoin="round" stroke-width="1.2"/>
            <line x1="53.63" y1="24.37" x2="55.23" y2="24.37" fill="none" stroke="#333" stroke-linejoin="round" stroke-width="1.2"/>
            <path d="M7.45,55.31a1.78,1.78,0,0,1-1.76-1.76v-3.2a1.78,1.78,0,0,1,1.76-1.76H9.93a1.78,1.78,0,0,1,1.76,1.76v3.2a1.78,1.78,0,0,1-1.76,1.76" fill="none" stroke="#333" stroke-linejoin="round" stroke-width="1.2"/>
            <line x1="7.45" y1="54.83" x2="7.45" y2="55.79" fill="none" stroke="#333" stroke-linecap="round" stroke-linejoin="round" stroke-width="1.2"/>
            <line x1="9.93" y1="54.83" x2="9.93" y2="55.79" fill="none" stroke="#333" stroke-linecap="round" stroke-linejoin="round" stroke-width="1.2"/>
            <path d="M31.13,37.15a3.59,3.59,0,0,1,3.6,3.58h0v9.82a3.6,3.6,0,0,1-3.58,3.6h0" fill="none" stroke="#333" stroke-linejoin="round" stroke-width="1.2"/>
            <path d="M8.73,48.51V40.79a3.58,3.58,0,0,1,3.58-3.6h0" fill="none" stroke="#333" stroke-linejoin="round" stroke-width="1.2"/>
            <circle cx="29.85" cy="54.11" r="3.12" fill="#9cbbbc"/>
            <circle cx="29.85" cy="54.11" r="0.88" fill="#e6f3f4"/>
            <circle cx="29.85" cy="54.11" r="3.12" fill="none" stroke="#333" stroke-linejoin="round" stroke-width="1.2"/>
          </g>
        </g>
      </g>
    </g>
  </g>
</svg>
