<svg xmlns="http://www.w3.org/2000/svg" viewBox="0 0 64 64">
  <g id="doctor-asian-male-coronavirus">
    <g>
      <g id="a195d3ec-73a1-40cb-8878-e0dab29d44c3">
        <g id="ef9ab402-ac90-457f-8653-07d77b166159">
          <g id="eb2e25b5-9535-4f64-a2f0-c0ced4e162b3">
            <g id="e74a0506-3efc-4210-a15c-0a9cdde205b1">
              <path d="M54.34,43.23,42,39.38H24L11.72,43.23a6,6,0,0,0-4.16,5L7,52.38c7.89,3.5,17.36,5,26,5s18.11-1.49,26-5l-.52-4.17A6,6,0,0,0,54.34,43.23Z" fill="#e0ebee"/>
              <path d="M59,52.38,58.74,50a6.19,6.19,0,0,0-3.57-2.81L42.38,43.37H23.68L10.9,47.23A6.15,6.15,0,0,0,7.33,50L7,52.38c7.89,3.5,17.36,5,26,5S51.14,55.89,59,52.38Z" fill="#cedde1"/>
              <path d="M29,57.26C28.39,56.19,24,47.79,24,39.38h0l-3.83,1.2L17,47l5,3L19.79,56.2A72.47,72.47,0,0,0,29,57.26Z" fill="#eaf2f3"/>
              <polyline points="20.2 40.58 17.03 46.96 22.03 49.96 19.8 56.2" fill="none" stroke="#c5d5d8" stroke-linejoin="round"/>
              <path d="M37.09,57.26C37.67,56.19,42,47.79,42,39.38h0l3.83,1.2L49,47l-5,3,2.24,6.24A72.47,72.47,0,0,1,37.09,57.26Z" fill="#eaf2f3"/>
              <polyline points="45.86 40.58 49.03 46.96 44.03 49.96 46.26 56.2" fill="none" stroke="#c5d5d8" stroke-linejoin="round"/>
              <path d="M37,57.38s5-9,5-18H24c0,9,5,18,5,18" fill="#6d797d" stroke="#343433" stroke-linejoin="round" stroke-width="1.5"/>
              <polygon points="39 42.39 33 47.38 27 42.39 27 35.39 39 35.39 39 42.39" fill="#e6b790"/>
              <path d="M33,57.38c1.21,0,2.44,0,3.67-.1L34,48.38H32l-2.67,8.91C30.59,57.34,31.82,57.38,33,57.38Z" fill="#4994c4" stroke="#343433" stroke-linejoin="round" stroke-width="1.5"/>
              <path d="M36.7,57.29C35.73,54,34,48.38,34,48.38H32l-2.67,8.91" fill="none" stroke="#343433" stroke-miterlimit="10" stroke-width="1.5"/>
              <path d="M33.32,48.38l.21,3a.5.5,0,0,1-.47.53.51.51,0,0,1-.53-.47v-.07l.21-3a.29.29,0,0,1,.31-.27h0A.29.29,0,0,1,33.32,48.38Z" fill="#343433"/>
              <polygon points="33.03 43.38 30.36 46.71 32.03 48.38 34.03 48.38 35.61 46.6 33.03 43.38" fill="#4994c4" stroke="#343433" stroke-linejoin="round" stroke-width="1.5"/>
              <path d="M26,36.38s1.53,3.51,7,7l-4,5c-3-3-5-7-5-9Z" fill="#6d797d" stroke="#343433" stroke-linejoin="round" stroke-width="1.5"/>
              <path d="M40,36.38s-1.53,3.51-7,7l4,5c3-3,5-7,5-9Z" fill="#6d797d" stroke="#343433" stroke-linejoin="round" stroke-width="1.5"/>
              <path d="M42,39.38l12.31,3.85a6,6,0,0,1,4.16,5L59,52.38c-7.89,3.5-17.36,5-26,5s-18.11-1.49-26-5l.52-4.17a6,6,0,0,1,4.16-5L24,39.38" fill="none" stroke="#343433" stroke-linejoin="round" stroke-width="1.5"/>
              <path d="M19,45.38s5,7,5,10c0,1.17-1,2-3,2" fill="none" stroke="#333" stroke-linejoin="round" stroke-width="1.5"/>
              <path d="M17,57.38c-2,0-3-.83-3-2,0-3,5-10,5-10" fill="none" stroke="#333" stroke-linejoin="round" stroke-width="1.5"/>
              <path d="M46.25,51.38v-11a3.83,3.83,0,0,0-3.65-4H40.25" fill="none" stroke="#333" stroke-linejoin="round" stroke-width="1.5"/>
              <path d="M19,46.38v-6a3.82,3.82,0,0,1,3.65-4H26" fill="none" stroke="#333" stroke-linejoin="round" stroke-width="1.5"/>
              <path d="M49.75,54.88a3.5,3.5,0,1,1-3.5-3.5A3.5,3.5,0,0,1,49.75,54.88Z" fill="#e0ebee"/>
              <circle cx="46.25" cy="54.88" r="1" fill="#333"/>
              <path d="M49.75,54.88a3.5,3.5,0,1,1-3.5-3.5A3.5,3.5,0,0,1,49.75,54.88Z" fill="none" stroke="#333" stroke-linejoin="round" stroke-width="1.5"/>
              <circle cx="17.03" cy="57.38" r="1" fill="#333"/>
              <circle cx="21.03" cy="57.38" r="1" fill="#333"/>
              <polyline points="27 37.95 27 35.39 39 35.39 39 38.02" fill="none" stroke="#333" stroke-linejoin="round" stroke-width="1.5"/>
              <path d="M43.85,20.81V18.64c0-5.87-2-11.9-10.82-11.9s-10.82,6-10.82,11.9V20.8c-.09,0-3.25,0-2.16,5.41a4.22,4.22,0,0,0,3.25,3.25c0,3.84,1.08,4.33,4.74,8.09,1.41,1.8,3.13,1.64,5,1.64s3.59.15,5-1.64c3.66-3.77,4.74-4.25,4.74-8.09A4.2,4.2,0,0,0,46,26.22C47.1,20.81,43.94,20.78,43.85,20.81Z" fill="#efc8a5"/>
              <path d="M22.21,20.81V19.73a3.56,3.56,0,0,1,1.08,2.16v3.25a3.64,3.64,0,0,0,1.49,3.25,5.12,5.12,0,0,1,1.75,4.33v3L24.37,34a3.58,3.58,0,0,1-1.08-2.33V29.47A4.07,4.07,0,0,1,20,26.22C19,19.34,22.12,20.78,22.21,20.81Z" fill="#e8be9c"/>
              <path d="M43.85,20.81V18.64c0-5.87-2-11.9-10.82-11.9a19.64,19.64,0,0,0-3.25.3V17.56a2.34,2.34,0,0,1-2.16,2.16s3.25,0,4.33,2.16H33v3.25a1.56,1.56,0,0,0,.64,1.27A1.09,1.09,0,0,1,34,27.89a1.07,1.07,0,0,1-1,.51h0c-.8,0-1.08-.54-2.16-.54-.64,0-.54.82-.56.81A2.51,2.51,0,0,1,31.4,29a3.3,3.3,0,0,0,1.63.39h0V34a1,1,0,0,0,.74.94c.62.14,1.4.43,1.42,1,.13,3.63-4.87,1.15-5.36,3a9.28,9.28,0,0,0,3.19.29c1.87,0,3.59.16,5-1.63,3.68-3.78,4.76-4.25,4.76-8.09A4.22,4.22,0,0,0,46,26.23C47.1,20.81,43.94,20.77,43.85,20.81Z" fill="#e6b790"/>
              <path d="M43.85,18.64c0-5.87-2-11.9-10.82-11.9s-10.82,6-10.82,11.9V20.8a.81.81,0,0,0-.31,0l1.4,1.53V24c1.16-1.16.13-1.69,2.16-3.81,0-.49.17-3,.16-2.88,0-.11-.87-2.52,1.23-2.4,0,0,7.71,3.58,9.82,4.38a13,13,0,0,0,5,.52c.08,1,.14,2,.22,2.93a1.37,1.37,0,0,0,.83,1.16A6.06,6.06,0,0,1,43.8,20.4Z" fill="#e6b790"/>
              <path d="M43.85,20.42V18.64c0-5.87-2-11.9-10.82-11.9a14.79,14.79,0,0,0-3.25.3v9.24c2.41,1.08,5.61,2.55,6.86,3a13,13,0,0,0,5,.52c.08,1,.14,2,.22,2.93a1.36,1.36,0,0,0,.85,1.16A6.17,6.17,0,0,1,43.85,20.42Z" fill="#ddad8a"/>
              <path d="M43.85,20.81V19.73a3.56,3.56,0,0,0-1.08,2.16v3.25a3.64,3.64,0,0,1-1.49,3.25,5.09,5.09,0,0,0-1.75,4.33v3L41.69,34a3.58,3.58,0,0,0,1.08-2.33V29.47A4.08,4.08,0,0,0,46,26.22C47,19.34,43.94,20.78,43.85,20.81Z" fill="#ddad8a"/>
              <path d="M43.85,20.81V18.64c0-5.87-2-11.9-10.82-11.9s-10.82,6-10.82,11.9V20.8c-.09,0-3.25,0-2.16,5.41a4.22,4.22,0,0,0,3.25,3.25c0,3.84,1.08,4.33,4.74,8.09,1.41,1.8,3.13,1.64,5,1.64s3.59.15,5-1.64c3.66-3.77,4.74-4.25,4.74-8.09A4.2,4.2,0,0,0,46,26.22C47.1,20.81,43.94,20.78,43.85,20.81Z" fill="none" stroke="#333" stroke-linejoin="round" stroke-width="1.62"/>
              <path d="M25.46,8.91c-7.18,2.66-3.89,10.82-3.25,11.9A5.84,5.84,0,0,1,23.29,24V22.33a3.73,3.73,0,0,1,1.08-2.61V17.56a2.81,2.81,0,0,1,2.34-4.07,4.18,4.18,0,0,1,2.16.51l6.8,3.48a11.71,11.71,0,0,0,4.93,1.17h2.16V24c-.17-3.8,2.16-2.94,2.16-7.93C44.93,3.86,28.49,1.91,25.46,8.91Z" fill="#444"/>
              <path d="M35.31,15.56a10.25,10.25,0,0,1,6.56-5.33c-3.34,0-6.19,1.73-8.84,4.08a10,10,0,0,1,6-4.88c-2.39,0-5.45,1.28-8.14,3.8a9.38,9.38,0,0,1,7-4.91c-3.38-.36-5,.26-8.85,3.44.79-2.15,3.05-3.58,5.46-4.35-3.57-.2-6.74,1-7.92,3.66-2.92,1.08-4.58,3.12-4.33,6.49v3.3a4.87,4.87,0,0,1,1,3.18c0-2-.14-3.11,1.08-4.33V17.55c-1.22-2.39,1.34-5.31,4.5-3.56,7.94,4.35,9.23,4.75,13.9,4.64V24a4.82,4.82,0,0,1,1.08-3.25c1-.95,1.08-2.16,1.08-4.69v-.74a9.14,9.14,0,0,0-.7-3.49C41,11.61,37.91,13,35.31,15.56Z" fill="#333"/>
              <path d="M31.58,23.14a2.45,2.45,0,0,1,2.91,0" fill="none" stroke="#333" stroke-miterlimit="10" stroke-width="1.02"/>
              <path d="M25.27,21.63H30.1a1.37,1.37,0,0,1,1,.41A1.52,1.52,0,0,1,31.3,24l-1.12,1.68a2,2,0,0,1-1.6.86H26.46a2.72,2.72,0,0,1-2.72-2.69v-.64a1.5,1.5,0,0,1,1.5-1.5h0Z" fill="#dbd4d7"/>
              <path d="M40.78,21.63H36A1.34,1.34,0,0,0,35,22a1.52,1.52,0,0,0-.2,1.92L36,25.65a1.94,1.94,0,0,0,1.6.85h2.11a2.72,2.72,0,0,0,2.72-2.72h0v-.64a1.5,1.5,0,0,0-1.49-1.5h-.12Z" fill="#dbd4d7"/>
              <path d="M25.27,21.63H30.1a1.37,1.37,0,0,1,1,.41A1.52,1.52,0,0,1,31.3,24l-1.12,1.68a2,2,0,0,1-1.6.86H26.46a2.72,2.72,0,0,1-2.72-2.69v-.64a1.5,1.5,0,0,1,1.5-1.5h0Z" fill="none" stroke="#333" stroke-linejoin="round" stroke-width="1.02"/>
              <path d="M40.78,21.63H36A1.34,1.34,0,0,0,35,22a1.52,1.52,0,0,0-.2,1.92L36,25.65a1.94,1.94,0,0,0,1.6.85h2.11a2.72,2.72,0,0,0,2.72-2.72h0v-.64a1.5,1.5,0,0,0-1.49-1.5h-.12Z" fill="none" stroke="#333" stroke-linejoin="round" stroke-width="1.02"/>
              <ellipse cx="27.97" cy="23.72" rx="0.77" ry="0.53" fill="#6c7881"/>
              <ellipse cx="38.1" cy="23.72" rx="0.77" ry="0.53" fill="#6c7881"/>
              <path d="M30.58,28.66a2.15,2.15,0,0,1,1.18.35h0a2.25,2.25,0,0,0,2.37,0h0a2.15,2.15,0,0,1,1.18-.35" fill="none" stroke="#c6916d" stroke-linecap="round" stroke-miterlimit="10" stroke-width="0.75"/>
              <path d="M34.5,31.53a2.93,2.93,0,0,0-1.28.14.69.69,0,0,1-.45,0,2.93,2.93,0,0,0-1.28-.14c-.72.11-.8.56-2.26,1.36l1.29.79a2.48,2.48,0,0,0,1.37.44h2.23a2.4,2.4,0,0,0,1.37-.44l1.33-.76C35.37,32.12,35.22,31.63,34.5,31.53Z" fill="#ddab85"/>
              <path d="M36.83,32.92c-1.1,0-1.36-.42-2.42-.42a6.54,6.54,0,0,0-1.39.18,8.25,8.25,0,0,0-1.4-.18c-1,0-1.24.39-2.39.39" fill="none" stroke="#c6916d" stroke-linecap="round" stroke-miterlimit="10" stroke-width="0.75"/>
              <path d="M42.4,24a6,6,0,0,1,.26-2.37,18.36,18.36,0,0,1,1.07-2,8,8,0,0,0,.6-4.1,10.64,10.64,0,0,0-1-4.06,9.9,9.9,0,0,0-2.58-3.24A12.23,12.23,0,0,0,33,5.67a9.86,9.86,0,0,0-4,.87,5.5,5.5,0,0,0-2.78,2.64h0a.76.76,0,0,1-.42.39,6.68,6.68,0,0,0-3.16,2.27,6.36,6.36,0,0,0-1.06,3.8,12.24,12.24,0,0,0,.79,4.11,5.28,5.28,0,0,0,.42.94c.18.34.35.67.51,1A5,5,0,0,1,23.67,24a.37.37,0,0,1-.38.35h0a.36.36,0,0,1-.34-.35,4.23,4.23,0,0,0-.5-1.93c-.15-.31-.33-.61-.52-.92a6,6,0,0,1-.53-1,13.09,13.09,0,0,1-1-4.45,7.51,7.51,0,0,1,1.11-4.57,7.89,7.89,0,0,1,3.76-2.93l-.43.4A7.1,7.1,0,0,1,28.24,5a11.4,11.4,0,0,1,4.67-1,13.4,13.4,0,0,1,8.76,3.12,11,11,0,0,1,2.85,3.78,12.09,12.09,0,0,1,1,4.58,8.62,8.62,0,0,1-.91,4.6A18.47,18.47,0,0,0,43.49,22a5.06,5.06,0,0,0-.32,2h0a.37.37,0,0,1-.37.37.34.34,0,0,1-.4-.26h0A.17.17,0,0,1,42.4,24Z" fill="#333"/>
              <path d="M22.92,24a18.74,18.74,0,0,1,0-2.37A3.79,3.79,0,0,1,24,19.36l-.16.39-.06-2.16.07.28a3.62,3.62,0,0,1-.41-1.67A3.48,3.48,0,0,1,24,14.53a3.55,3.55,0,0,1,2.91-1.75,4.07,4.07,0,0,1,1.69.25c.26.09.51.22.76.33l.63.33L32.4,15a41.61,41.61,0,0,0,5,2.38,15.06,15.06,0,0,0,5.37.75h0a.55.55,0,0,1,.55.55h0c0,1.8-.11,3.61-.2,5.41a.37.37,0,0,1-.37.37.36.36,0,0,1-.37-.37c-.09-1.8-.15-3.61-.2-5.41l.58.57a16,16,0,0,1-5.85-.48,30.61,30.61,0,0,1-5.32-2.32c-.84-.45-1.67-.9-2.5-1.38l-.62-.35-.44-.3a3.4,3.4,0,0,0-1.09-.21,2.18,2.18,0,0,0-1.8,1,2.45,2.45,0,0,0-.35,1,2.58,2.58,0,0,0,.2,1.07v.07a.74.74,0,0,1,0,.21l-.06,2.16h0a.5.5,0,0,1-.16.35,2.93,2.93,0,0,0-1,1.7,17,17,0,0,0-.15,2.24.37.37,0,0,1-.38.36A.45.45,0,0,1,22.92,24Z" fill="#333"/>
            </g>
          </g>
        </g>
      </g>
      <g id="aaa0f679-a654-4c67-bd1c-093f3fd8a082">
        <path d="M38.73,27.13a5.44,5.44,0,0,1,2.33,7.34,5.52,5.52,0,0,1-.69,1c-.86,1-6.73,9.73-14.95,0a5.45,5.45,0,0,1,.64-7.69,5.76,5.76,0,0,1,1-.68l4.53-2.34a2.82,2.82,0,0,1,2.62,0Z" fill="#fff"/>
        <path d="M25,29.09a23,23,0,0,1-3.75-9.3" fill="#fff" stroke="#333" stroke-linecap="round" stroke-linejoin="round" stroke-width="1.5"/>
        <path d="M41.09,29.09a23,23,0,0,0,3.75-9.3" fill="#fff" stroke="#333" stroke-linecap="round" stroke-linejoin="round" stroke-width="1.5"/>
        <line x1="24.13" y1="31.85" x2="22.49" y2="30.95" fill="none" stroke="#333" stroke-linecap="round" stroke-linejoin="round" stroke-width="1.5"/>
        <line x1="41.93" y1="31.85" x2="43.57" y2="30.95" fill="none" stroke="#333" stroke-linecap="round" stroke-linejoin="round" stroke-width="1.5"/>
        <path d="M38.73,27.13l-4.51-2.34a2.82,2.82,0,0,0-2.62,0l-4.53,2.34a5.42,5.42,0,0,0-2.77,3.53,5.42,5.42,0,0,0,1.12,2.17c8.22,9.75,14.1,1,14.95,0a5.48,5.48,0,0,0,1.14-2.19A5.42,5.42,0,0,0,38.73,27.13Z" fill="#fff"/>
        <path d="M38.73,27.13l-4.51-2.34a2.86,2.86,0,0,0-1.18-.3h0v8c0,2.05,2.2,1.6.86,4.11-2.05,3.84-7.08-2.89-7.08.41,0,.11,3,2.09,2.95,2.2,5.9,3.07,9.92-2.87,10.62-3.68a5.46,5.46,0,0,0-.6-7.68A5.13,5.13,0,0,0,38.73,27.13Z" fill="#eee"/>
        <path d="M24.33,30.56A19.08,19.08,0,0,0,33,32.83a17.28,17.28,0,0,0,8.45-2.27" fill="none" stroke="#ddd" stroke-miterlimit="10"/>
        <path d="M24.33,32.78A19,19,0,0,0,33,35.06a17.29,17.29,0,0,0,8.45-2.28" fill="none" stroke="#ddd" stroke-miterlimit="10"/>
        <path d="M38.73,27.13a5.44,5.44,0,0,1,2.33,7.34,5.52,5.52,0,0,1-.69,1c-.86,1-6.73,9.73-14.95,0a5.45,5.45,0,0,1,.64-7.69,5.76,5.76,0,0,1,1-.68l4.53-2.34a2.82,2.82,0,0,1,2.62,0Z" fill="none" stroke="#333" stroke-linejoin="round" stroke-width="1.5"/>
      </g>
    </g>
  </g>
</svg>
