<svg xmlns="http://www.w3.org/2000/svg" viewBox="0 0 64 64">
  <g id="pulmonologist-white-male-coronavirus">
    <g id="ec7c36c5-e4dd-4d1c-a8bc-729f054c2773">
      <g id="b54e35c0-bcf1-4d0c-8ddd-17b13f6df96f">
        <g id="a275b7b4-5dbf-4e5e-ae02-e55c02da8ef4">
          <g id="a3cf28ef-468d-4eee-aaa9-669d8f7dfb69">
            <path d="M51.53,46.74a5.65,5.65,0,0,0-4.5-4.5c-1.33-.33-4.71-1.16-8.5-2-1.84-.41-3.7-.72-5.56-1v-4.5H18v4.55a47,47,0,0,0-5.42,1L4,42.29a5.66,5.66,0,0,0-4.5,4.45L-1,49.23a65.14,65.14,0,0,0,26.53,5.51A65.18,65.18,0,0,0,52,49.23Z" fill="#d8b3ad"/>
            <line x1="17.97" y1="34.71" x2="17.97" y2="40.66" fill="none" stroke="#333" stroke-linejoin="round" stroke-width="1.5"/>
            <line x1="32.97" y1="34.71" x2="32.97" y2="40.66" fill="none" stroke="#333" stroke-linejoin="round" stroke-width="1.5"/>
            <path d="M51.53,46.74a5.65,5.65,0,0,0-4.5-4.5c-9.5-2.38-12.44-2.82-15.67-3.15a14.9,14.9,0,0,1-4.76,3.24H24.41a14.91,14.91,0,0,1-4.75-3.26c-2.39.25-4.86.49-15.63,3.18a5.64,5.64,0,0,0-4.5,4.49L-1,49.23a65.14,65.14,0,0,0,26.53,5.51A65.18,65.18,0,0,0,52,49.23Z" fill="#eee"/>
            <path d="M47,45.82C27.8,41,21.87,41.35,4,45.82a6.67,6.67,0,0,0-4.7,3.55,66.09,66.09,0,0,0,26.23,5.37,66.31,66.31,0,0,0,26.17-5.36A6.68,6.68,0,0,0,47,45.82Z" fill="#ddd"/>
            <path d="M16.28,37.74,9.6,43.41l3.86,2.72-2.7,3.5,4.57,4.3c1.25.2,2.55.36,3.91.5C17.25,50.15,16.37,45.44,16.28,37.74Z" fill="#fff"/>
            <path d="M34.65,37.74l6.68,5.67-3.86,2.72,2.7,3.5-4.57,4.3c-1.25.2-2.55.36-3.91.5C33.68,50.15,34.56,45.44,34.65,37.74Z" fill="#fff"/>
            <path d="M31.4,39.05a15,15,0,0,1-4.79,3.28H24.42a15.08,15.08,0,0,1-4.75-3.26c-1.12.1-2.23.21-3.34.36.2,6.71,1.08,11,2.93,15h0c2,.19,4.23.3,6.31.3h0c2,0,4.12-.1,6.24-.3h0c1.84-3.94,2.73-8.28,2.93-15C33.52,39.25,32.4,39.14,31.4,39.05Z" fill="#bcdaf7"/>
            <path d="M25.56,54.74q2.45,0,4.83-.18C27.54,45.87,28,47.2,27.59,46L29.16,44a1.22,1.22,0,0,0,0-1.43A1.29,1.29,0,0,0,28.09,42H24.85a1.24,1.24,0,0,0-1.14.78A1.29,1.29,0,0,0,23.92,44l1.5,2-3,8.64C23.46,54.74,24.51,54.74,25.56,54.74Z" fill="#91acc1"/>
            <path d="M31.37,48.1,32,49a.52.52,0,0,0,.19.14.49.49,0,0,0,.65-.28h0L35,40.05Z" fill="#91acc1"/>
            <path id="aa9cdec2-aa85-4fda-b656-63acb54768e5" d="M24.41,42.32l-4.53,5.86s.19.32.41.72c.34.63.73.17.74.16.56-.74,4.51-6.31,4.51-6.31Z" fill="#91acc1"/>
            <path id="abd7311f-8e0e-4151-b9be-bc2f194cb212" d="M23,43.65l1.82,2.42a.82.82,0,0,0,1.15.17h0a.81.81,0,0,0,.16-.16L28,43.65a.83.83,0,0,0-.17-1.16.84.84,0,0,0-.49-.16H23.71a.83.83,0,0,0-.85.81h0A.82.82,0,0,0,23,43.65Z" fill="#5e748e"/>
            <path d="M23.71,42.33h-.08L24.86,44a.82.82,0,0,0,1.15.17h0a.81.81,0,0,0,.16-.16l1.23-1.63Z" fill="#475b77"/>
            <path id="be63f5d6-7a9e-4dfe-8e4a-daf78e0791f6" d="M23,43.65l1.82,2.42a.82.82,0,0,0,1.15.17h0a.81.81,0,0,0,.16-.16L28,43.65a.83.83,0,0,0-.17-1.16.84.84,0,0,0-.49-.16H23.71a.83.83,0,0,0-.85.81h0A.82.82,0,0,0,23,43.65Z" fill="none" stroke="#333" stroke-linejoin="round"/>
            <path d="M22,54.64c1.18.06,2.37.1,3.57.1s2.37,0,3.54-.09l-2.95-8.52H24.92Z" fill="#5e748e"/>
            <path d="M23.48,54.74h2.05c1.15,0,2.44,0,3.57-.09l-3-8.52H24.91l-.33,1h0a.93.93,0,0,1,1,.91h0v0Z" fill="#475b77"/>
            <path d="M22,54.64c1.12.06,2.43.1,3.57.1s2.44,0,3.54-.09l-2.95-8.52H24.92Z" fill="none" stroke="#333" stroke-linejoin="round"/>
            <path id="ed534c79-ba48-4947-8aec-26bb32829df8" d="M17.43,36.17,16,40.08l3.75,8.26,4.66-6A15,15,0,0,1,17.43,36.17Z" fill="#bcdaf7"/>
            <path id="fdd2ef7b-4f72-4e16-b3c5-f4cbb20fef93" d="M24.41,42.32a14.68,14.68,0,0,1-7-6.16L16,40.07l3.75,8.26,4.65-6" fill="none" stroke="#333" stroke-linecap="round" stroke-linejoin="round" stroke-width="1.5"/>
            <path id="ae047405-5322-4404-a78d-d451b6dbfc7d" d="M33.64,36.17,35,40.05l-3.79,8.27-4.66-6A15,15,0,0,0,33.64,36.17Z" fill="#bcdaf7"/>
            <path id="b4303f26-2eb3-48fe-9e3e-f672208638d7" d="M26.6,42.33a15,15,0,0,0,7-6.15L35,40.06l-3.79,8.27-4.66-6" fill="none" stroke="#333" stroke-linecap="round" stroke-linejoin="round" stroke-width="1.5"/>
            <path d="M16,40.07S5.51,41.86,4,42.23a5.65,5.65,0,0,0-4.5,4.51L-1,49.23a65.14,65.14,0,0,0,26.53,5.51A65.18,65.18,0,0,0,52,49.23l-.5-2.49a5.65,5.65,0,0,0-4.5-4.5c-1.33-.33-12-2.18-12-2.18" fill="none" stroke="#333" stroke-linecap="round" stroke-linejoin="round" stroke-width="1.5"/>
            <path d="M10,56a1.78,1.78,0,0,1-1.76-1.76v-3.2A1.78,1.78,0,0,1,10,49.3h2.48a1.78,1.78,0,0,1,1.76,1.76v3.2A1.78,1.78,0,0,1,12.51,56" fill="none" stroke="#333" stroke-linejoin="round" stroke-width="1.2"/>
            <line x1="10.06" y1="55.54" x2="10.06" y2="56.5" fill="none" stroke="#333" stroke-linecap="round" stroke-linejoin="round" stroke-width="1.2"/>
            <line x1="12.54" y1="55.54" x2="12.54" y2="56.5" fill="none" stroke="#333" stroke-linecap="round" stroke-linejoin="round" stroke-width="1.2"/>
            <path d="M36.39,36.86A3.6,3.6,0,0,1,40,40.44v9.78a3.58,3.58,0,0,1-3.58,3.6h0" fill="none" stroke="#333" stroke-linejoin="round" stroke-width="1.2"/>
            <path d="M11.34,49.23V40.46a3.59,3.59,0,0,1,3.58-3.6h0" fill="none" stroke="#333" stroke-linejoin="round" stroke-width="1.2"/>
            <circle cx="35.11" cy="53.82" r="3.12" fill="#9cbbbc"/>
            <circle cx="35.11" cy="53.82" r="0.88" fill="#e6f3f4"/>
            <circle cx="35.11" cy="53.82" r="3.12" fill="none" stroke="#333" stroke-linejoin="round" stroke-width="1.2"/>
            <path d="M36.45,20.05v-2.2c0-6-2.09-11.11-11-11.11s-11,5.16-11,11.11v2.2c-.09,0-3.29,0-2.2,5.49a4.27,4.27,0,0,0,3.29,3.29c0,3.9,1.1,4.39,4.81,8.21,1.47,1.82,3.21,1.7,5.11,1.7s3.65.15,5.07-1.67c3.71-3.82,4.81-4.31,4.81-8.21a4.25,4.25,0,0,0,3.29-3.32C39.74,20.05,36.54,20,36.45,20.05Z" fill="#eed1c9"/>
            <path d="M17.1,27.74a3.66,3.66,0,0,1-1.52-3.29V21.74a2.46,2.46,0,0,0-1.46-1.65c-.83.17-2.72,1-1.83,5.45a4.27,4.27,0,0,0,3.29,3.29c0,3.3.8,4.17,3.29,6.68V32.13A5.24,5.24,0,0,0,17.1,27.74Z" fill="#e5c2ba"/>
            <path d="M38.64,25.54c1.1-5.49-2.11-5.52-2.2-5.49v-2.2c0-6-2.08-11.11-11-11.11A15.86,15.86,0,0,0,22.52,7V18a3.89,3.89,0,0,1-1.27,2.88.46.46,0,0,0,0,.64h0a.41.41,0,0,0,.23.13c1.5.43,2.3.71,3.23.47.31-.08.86.27.86.59v1.57a1.67,1.67,0,0,0,.64,1.4,1.1,1.1,0,0,1-.64,2c-.81,0-1.1-.55-2.2-.55-.65,0-.55.85-.57.82a2.5,2.5,0,0,1,1.1.29,3.28,3.28,0,0,0,1.65.43V32a1.9,1.9,0,0,0,1.25,1.76,1.56,1.56,0,0,1,.94,1.63c0,3-5.43-.3-5.43,3h0a9.62,9.62,0,0,0,3.16.29c1.9,0,3.65.15,5.07-1.67,3.71-3.82,4.81-4.31,4.81-8.21A4.3,4.3,0,0,0,38.64,25.54Z" fill="#e5c2ba"/>
            <path d="M18.29,21.22a4.3,4.3,0,0,1,1.13-.95,4.77,4.77,0,0,1,1.42-.53,3.15,3.15,0,0,1,1.55.18,3.38,3.38,0,0,1,1.29.8.36.36,0,0,1,0,.49.32.32,0,0,1-.32.1h0a6.7,6.7,0,0,0-1.18-.16c-.37,0-.74.05-1.1.1a6.15,6.15,0,0,0-1.14.17c-.4.09-.79.2-1.18.32h0a.34.34,0,0,1-.44-.2h0A.34.34,0,0,1,18.29,21.22Z" fill="#929292"/>
            <path d="M32.29,21.74a12.33,12.33,0,0,0-1.18-.36A6.28,6.28,0,0,0,30,21.21c-.37-.05-.73-.08-1.1-.1a6.7,6.7,0,0,0-1.18.16h-.05a.34.34,0,0,1-.41-.27h0a.37.37,0,0,1,.1-.32,3.54,3.54,0,0,1,1.29-.8,3.15,3.15,0,0,1,1.55-.14,5.08,5.08,0,0,1,1.42.54,4.3,4.3,0,0,1,1.13.95.36.36,0,0,1,0,.49.33.33,0,0,1-.33.06Z" fill="#929292"/>
            <path d="M34.82,21.53a23.09,23.09,0,0,0-4.47-.26,14.48,14.48,0,0,0-4.18.71H26.1a2.41,2.41,0,0,0-1,0L25,21.93a14.42,14.42,0,0,0-4.17-.71,22.38,22.38,0,0,0-4.48.26.52.52,0,0,0-.42.5v.76a.5.5,0,0,0,.22.42l.27.18a9.06,9.06,0,0,0,.36,2.08.52.52,0,0,0,.24.32,9.08,9.08,0,0,0,3.07.78,8.3,8.3,0,0,0,3.69-.2.49.49,0,0,0,.31-.27s.24-.5.57-1.4c.27-.72.43-1.22.54-1.54a1.59,1.59,0,0,1,.81,0c.1.32.27.83.54,1.56.33.89.56,1.37.57,1.39a.49.49,0,0,0,.31.27,7.86,7.86,0,0,0,2.31.32A6.92,6.92,0,0,0,31,26.47a9.11,9.11,0,0,0,3.12-.73.47.47,0,0,0,.23-.3,9.06,9.06,0,0,0,.36-2.08l.28-.19a.5.5,0,0,0,.22-.42v-.67A.5.5,0,0,0,34.82,21.53Z" fill="#d8b3ad"/>
            <path d="M36.47,20a2.18,2.18,0,0,0-1.12,1.87v2.53a3.62,3.62,0,0,1-1.52,3.3A5.26,5.26,0,0,0,32,32.12V35.5c2.5-2.51,3.29-3.38,3.29-6.68a4.27,4.27,0,0,0,3.29-3.29C39.71,20.22,36.75,20,36.47,20Z" fill="#d8b3ad"/>
            <path d="M34,21.57a19.36,19.36,0,0,0-7.87.51,28.88,28.88,0,0,0,1.21,3.3,10.81,10.81,0,0,0,6.36-.52A8.68,8.68,0,0,0,34,21.57Z" fill="#fce0da"/>
            <path d="M27.38,25.38a6.46,6.46,0,0,0,1.08.22,21.08,21.08,0,0,1-1.2-2.86A24.38,24.38,0,0,1,34,22.57v-1a19.36,19.36,0,0,0-7.87.51A28.93,28.93,0,0,0,27.38,25.38Z" fill="#edccc3"/>
            <path d="M16.73,21.58a8.84,8.84,0,0,0,.3,3.28,10.68,10.68,0,0,0,6.37.52,27.1,27.1,0,0,0,1.21-3.3A19.23,19.23,0,0,0,16.73,21.58Z" fill="#fce0da"/>
            <path d="M24.16,22.9l.28-.86a19.28,19.28,0,0,0-7.71-.45,8.84,8.84,0,0,0,.3,3.28,4.42,4.42,0,0,0,1,.36,9.54,9.54,0,0,1-.54-2.9A18.31,18.31,0,0,1,24.16,22.9Z" fill="#edccc3"/>
            <path d="M16.73,21.58a8.84,8.84,0,0,0,.3,3.28,10.68,10.68,0,0,0,6.37.52,27.1,27.1,0,0,0,1.21-3.3,19.86,19.86,0,0,0-8.71-.34v.68l.8.2" fill="none" stroke="#333" stroke-linejoin="round" stroke-width="1.02"/>
            <path d="M24.63,22.09a.92.92,0,0,1,.77-.3c.61,0,.77.29.77.29" fill="none" stroke="#333" stroke-linejoin="round" stroke-width="1.02"/>
            <path d="M34,21.58a8.84,8.84,0,0,1-.32,3.28,10.68,10.68,0,0,1-6.37.52,27.1,27.1,0,0,1-1.21-3.3,19.83,19.83,0,0,1,8.77-.34v.68l-.8.2" fill="none" stroke="#333" stroke-linejoin="round" stroke-width="1.02"/>
            <circle cx="21.05" cy="23.71" r="0.65" fill="#6c7881"/>
            <circle cx="30.01" cy="23.71" r="0.65" fill="#6c7881"/>
            <path d="M25.47,38.74c1.26,0,3.62.44,5.22-1.72,2.24-3,4.47-2.29,4.57-8.47a3.52,3.52,0,0,0,3.31-3.12c.28-1.88.47-3.55-.52-4.43-.78-.73-1.15-.78-1.77-.52,0,0,.1-2.39.1-3.69,0-5.48-2.72-10-10.91-10s-11,4.54-10.9,10c0,1.3.1,3.69.1,3.69-.63-.26-1-.21-1.77.52-1,.89-.8,2.56-.52,4.43a3.52,3.52,0,0,0,3.31,3.12C15.79,34.72,18,34,20.26,37,21.85,39.15,24.2,38.74,25.47,38.74Z" fill="none" stroke="#333" stroke-linejoin="round" stroke-width="1.5"/>
            <path d="M15.65,11.49c-3.5,0-4.24,3.55-4.24,5,0,2,1,2.91,1,5,1.64,0,3.23,1.2,3.23,2v-4C15.65,18.08,13.5,15.49,15.65,11.49Z" fill="#ad9a76"/>
            <path d="M15.65,11.49c-3.5,0-4.24,3.55-4.24,5,0,2,1,2.91,1,5" fill="none" stroke="#333" stroke-linecap="round" stroke-linejoin="round" stroke-width="1.55"/>
            <path d="M15.31,23.49c-.12-1-.2-2-.27-3.07v-.77a1.5,1.5,0,0,0,0-.3c0-.09,0-.19-.08-.29-.14-.43-.36-.9-.52-1.42a7,7,0,0,1-.26-3.31,7.2,7.2,0,0,1,1.24-3,.35.35,0,0,1,.47-.1h0a.36.36,0,0,1,.13.41h0a8.22,8.22,0,0,0-.6,2.81,8.87,8.87,0,0,0,.47,2.75c.14.47.28.95.41,1.51a3.54,3.54,0,0,1,.07.47,3.69,3.69,0,0,1,0,.47v.77c-.07,1-.15,2.05-.27,3.07a.34.34,0,0,1-.38.3h0a.35.35,0,0,1-.41-.27h0S15.31,23.51,15.31,23.49Z" fill="#333"/>
            <path d="M12.67,20.74a3.7,3.7,0,0,1,2.06.9,4.39,4.39,0,0,1,1.12,1.73.23.23,0,0,1-.12.3h0a.27.27,0,0,1-.29-.08,3.72,3.72,0,0,0-1.28-1.15,2.39,2.39,0,0,0-1.49-.21.76.76,0,0,1-.24-1.5Z" fill="#333"/>
            <path d="M35.48,11.49c3.5,0,4.24,3.55,4.24,5,0,2-1,2.91-1,5-1.64,0-3.23,1.2-3.23,2v-4C35.48,18.08,37.63,15.49,35.48,11.49Z" fill="#ad9a76"/>
            <path d="M35.48,11.49c3.5,0,4.24,3.55,4.24,5,0,2-1,2.91-1,5" fill="none" stroke="#333" stroke-linecap="round" stroke-linejoin="round" stroke-width="1.55"/>
            <path d="M35.14,23.49c-.12-1-.2-2-.27-3.07v-.77a3.68,3.68,0,0,1,0-.47,1.08,1.08,0,0,1,.07-.47c.13-.56.27-1,.41-1.51a8.82,8.82,0,0,0,.47-2.75,8.52,8.52,0,0,0-.6-2.81h0a.35.35,0,0,1,.23-.44.36.36,0,0,1,.38.12,7.2,7.2,0,0,1,1.24,3,7,7,0,0,1-.26,3.31c-.16.51-.38,1-.52,1.42a1.38,1.38,0,0,1-.08.29,1.5,1.5,0,0,0,0,.3v.77c-.07,1-.15,2.05-.27,3.07a.34.34,0,0,1-.38.3h0a.35.35,0,0,1-.41-.26Z" fill="#333"/>
            <path d="M38.46,22.25a2.39,2.39,0,0,0-1.49.21,3.93,3.93,0,0,0-1.28,1.15.23.23,0,0,1-.33.08.25.25,0,0,1-.09-.31,4.7,4.7,0,0,1,1.12-1.73,3.67,3.67,0,0,1,2.06-.9h0a.76.76,0,0,1,.21,1.51h-.2Z" fill="#333"/>
            <line x1="24.53" y1="33.51" x2="26.53" y2="33.51" fill="none" stroke="#ba8d86" stroke-linecap="round" stroke-miterlimit="10" stroke-width="0.75"/>
            <line x1="25.32" y1="36.46" x2="25.57" y2="36.46" fill="none" stroke="#ba8d86" stroke-linecap="round" stroke-miterlimit="10" stroke-width="0.75"/>
            <path d="M26.81,30.55a2.94,2.94,0,0,0-1.18.13.61.61,0,0,1-.42,0A2.94,2.94,0,0,0,24,30.55c-.67.1-.74.52-2.09,1.25l1.19.73a2.21,2.21,0,0,0,1.27.41h2.07a2.16,2.16,0,0,0,1.27-.41l1.23-.7C27.61,31.1,27.48,30.65,26.81,30.55Z" fill="#d6b3b0"/>
            <path d="M29,31.83c-1,0-1.26-.39-2.24-.39a7.85,7.85,0,0,0-1.29.17,8.14,8.14,0,0,0-1.29-.17c-.94,0-1.15.36-2.21.36" fill="none" stroke="#af8582" stroke-linecap="round" stroke-miterlimit="10" stroke-width="0.6"/>
            <line x1="25.45" y1="28.7" x2="25.45" y2="29.7" fill="none" stroke="#ddb7b1" stroke-linecap="round" stroke-miterlimit="10" stroke-width="0.75"/>
            <path d="M22.91,27.82a2.83,2.83,0,0,1,1.25.32h0a2.58,2.58,0,0,0,2.5,0h0a2.83,2.83,0,0,1,1.25-.32" fill="none" stroke="#af8582" stroke-linecap="round" stroke-miterlimit="10" stroke-width="0.75"/>
            <path d="M18,16.29l.5-.27a6.47,6.47,0,0,1,5.08-.42h0a6.47,6.47,0,0,0,4.08,0h.05a6.51,6.51,0,0,1,5.11.46l.43.23" fill="none" stroke="#eed1c9" stroke-linecap="round" stroke-miterlimit="10" stroke-width="0.5"/>
            <path d="M19.48,13.55a6.38,6.38,0,0,1,4.05,0h0a6.47,6.47,0,0,0,4.08,0h.05a6.49,6.49,0,0,1,4.13,0" fill="none" stroke="#eed1c9" stroke-linecap="round" stroke-miterlimit="10" stroke-width="0.5"/>
            <path d="M18,16.81l.5-.27a6.47,6.47,0,0,1,5.08-.42h0a6.47,6.47,0,0,0,4.08,0h.05a6.51,6.51,0,0,1,5.11.46l.43.23" fill="none" stroke="#e5c2ba" stroke-linecap="round" stroke-miterlimit="10" stroke-width="0.5"/>
            <path d="M19.48,14.08a6.38,6.38,0,0,1,4.05,0h0a6.47,6.47,0,0,0,4.08,0h.05a6.49,6.49,0,0,1,4.13,0" fill="none" stroke="#e5c2ba" stroke-linecap="round" stroke-miterlimit="10" stroke-width="0.5"/>
            <path d="M23.54,11.81h0a6.35,6.35,0,0,0,4.13,0" fill="none" stroke="#e5c2ba" stroke-linecap="round" stroke-miterlimit="10" stroke-width="0.5"/>
            <path d="M23.53,11.31h0a6.35,6.35,0,0,0,4.13,0" fill="none" stroke="#eed1c9" stroke-linecap="round" stroke-miterlimit="10" stroke-width="0.5"/>
            <path d="M58.2,27.74l-4.09-.65a1,1,0,0,1-.85-1V24.8L55.85,24a12.48,12.48,0,0,0,.19-4.6c-.45-1.79-.69-3.76-4.32-3.76s-3.25,3.7-3.25,3.7v6.82a1,1,0,0,1-.82,1l-3.34.59a1.41,1.41,0,0,0-1.09,1v7.61a1.12,1.12,0,0,0,1.12,1.12H58.13a1.12,1.12,0,0,0,1.12-1.11l.08-7.62A1.42,1.42,0,0,0,58.2,27.74Z" fill="#c4d9df"/>
            <path d="M48.71,35.83H46.63a1.22,1.22,0,0,1-1.2-1.2V32.07A3.12,3.12,0,0,1,48.55,29h.08a1.24,1.24,0,0,1,1.2,1.2v4.59a1.09,1.09,0,0,1-1.09,1.09Z" fill="#dd9292"/>
            <path d="M48.71,35.83H46.63a1.22,1.22,0,0,1-1.2-1.2V32.07A3.12,3.12,0,0,1,48.55,29h.08a1.24,1.24,0,0,1,1.2,1.2v4.59a1.09,1.09,0,0,1-1.09,1.09Z" fill="none" stroke="#333" stroke-linejoin="round" stroke-width="1.2"/>
            <path d="M53.83,35.83h2.08a1.22,1.22,0,0,0,1.2-1.2V32.07A3.13,3.13,0,0,0,54,29H54a1.24,1.24,0,0,0-1.2,1.2v4.59A1.08,1.08,0,0,0,53.83,35.83Z" fill="#dd9292"/>
            <path d="M53.83,35.83h2.08a1.22,1.22,0,0,0,1.2-1.2V32.07A3.13,3.13,0,0,0,54,29H54a1.24,1.24,0,0,0-1.2,1.2v4.59A1.08,1.08,0,0,0,53.83,35.83Z" fill="none" stroke="#333" stroke-linejoin="round" stroke-width="1.2"/>
            <polyline points="49.99 31.11 51.27 29.83 52.55 31.11" fill="none" stroke="#333" stroke-linejoin="round" stroke-width="1.2"/>
            <line x1="51.27" y1="25.99" x2="51.27" y2="29.83" fill="none" stroke="#333" stroke-linejoin="round" stroke-width="1.2"/>
            <line x1="51.27" y1="23.99" x2="51.27" y2="25.19" fill="none" stroke="#333" stroke-linejoin="round" stroke-width="1.2"/>
            <polyline points="51.27 23.19 51.27 21.99 53.1 21.99" fill="none" stroke="#333" stroke-linejoin="round" stroke-width="1.2"/>
            <line x1="54.25" y1="21.89" x2="55.85" y2="21.89" fill="none" stroke="#333" stroke-linejoin="round" stroke-width="1.2"/>
          </g>
        </g>
      </g>
      <path d="M31.34,27.61A5.46,5.46,0,0,1,33,36c-.86,1-6.73,9.73-14.95,0a5.44,5.44,0,0,1,.64-7.68,4.84,4.84,0,0,1,1-.68l4.53-2.35a2.86,2.86,0,0,1,2.61,0Z" fill="#fff"/>
      <path d="M17.57,29.57a22.82,22.82,0,0,1-3.74-9.3" fill="#fff" stroke="#333" stroke-linecap="round" stroke-linejoin="round" stroke-width="1.5"/>
      <path d="M33.7,29.57a22.82,22.82,0,0,0,3.74-9.3" fill="#fff" stroke="#333" stroke-linecap="round" stroke-linejoin="round" stroke-width="1.5"/>
      <line x1="16.74" y1="32.33" x2="15.09" y2="31.43" fill="none" stroke="#333" stroke-linecap="round" stroke-linejoin="round" stroke-width="1.5"/>
      <line x1="34.53" y1="32.33" x2="36.17" y2="31.43" fill="none" stroke="#333" stroke-linecap="round" stroke-linejoin="round" stroke-width="1.5"/>
      <path d="M31.34,27.61l-4.52-2.34a2.86,2.86,0,0,0-2.61,0l-4.53,2.35a5.4,5.4,0,0,0-2.77,3.52A5.42,5.42,0,0,0,18,33.31c8.22,9.75,14.1,1,14.95,0a5.61,5.61,0,0,0,1.14-2.19A5.44,5.44,0,0,0,31.34,27.61Z" fill="#fff"/>
      <path d="M31.34,27.61l-4.52-2.34a2.82,2.82,0,0,0-1.18-.3h0v8c0,2.06,2.2,1.61.87,4.11-2,3.84-7.08-2.89-7.08.41,0,.12,2.95,2.1,2.94,2.2C28.26,42.74,32.28,36.8,33,36a5.47,5.47,0,0,0-1.64-8.38Z" fill="#eee"/>
      <path d="M16.93,31a19,19,0,0,0,8.71,2.28A17.26,17.26,0,0,0,34.09,31" fill="none" stroke="#ddd" stroke-miterlimit="10"/>
      <path d="M16.93,33.27a19.08,19.08,0,0,0,8.71,2.27,17.25,17.25,0,0,0,8.45-2.27" fill="none" stroke="#ddd" stroke-miterlimit="10"/>
      <path d="M31.34,27.61A5.46,5.46,0,0,1,33,36c-.86,1-6.73,9.73-14.95,0a5.44,5.44,0,0,1,.64-7.68,4.84,4.84,0,0,1,1-.68l4.53-2.35a2.86,2.86,0,0,1,2.61,0Z" fill="none" stroke="#333" stroke-linejoin="round" stroke-width="1.5"/>
    </g>
  </g>
</svg>
