<svg xmlns="http://www.w3.org/2000/svg" viewBox="0 0 64 64"><title>avatar-pirate-woman-asian</title><g id="avatar-pirate-beard-man-asian"><path d="M21.2315,51.6493A55.9476,55.9476,0,0,0,32.57,52.8344a55.9953,55.9953,0,0,0,11.4426-1.21L41.93,48.4585l6.29-1.82c-2.71-5.1258-4.4854-17.0025-15.59-17.0025S19.75,41.5129,17.04,46.6387l6.29,1.82Z" style="fill:#333"/><polyline points="26.57 41.334 26.57 35.364 38.57 35.364 38.57 41.334" style="fill:none;stroke:#333;stroke-linejoin:round;stroke-width:1.4999971369023px"/><path d="M54.6918,46.1047a4.4878,4.4878,0,0,0-3.2959-3.4641A75.3754,75.3754,0,0,0,39.7174,40.225,1.29,1.29,0,0,1,38.57,38.95V35.3344h-12v3.6319a1.29,1.29,0,0,1-1.145,1.2746,75.596,75.596,0,0,0-11.5409,2.4,4.4877,4.4877,0,0,0-3.2958,3.4641c-.1439.7181-.1356.7106-.4036,2.3136,1.0642.65,10.6028,4.734,22.4555,4.734s21.3913-4.084,22.4556-4.734C54.8273,46.8153,54.8357,46.8228,54.6918,46.1047Z" style="fill:#efc8a5"/><path d="M51.3959,45.1372c-1.48-.3742-6.0132,2.052-10.962,4.748a15.5823,15.5823,0,0,1-14.8385.0307c-4.99-2.6852-10.238-5.1514-11.7117-4.7787a4.4878,4.4878,0,0,0-3.2958,3.4642l-.005.025A56.3439,56.3439,0,0,0,32.64,53.1523a56.3439,56.3439,0,0,0,22.0569-4.5259l-.0049-.025A4.4879,4.4879,0,0,0,51.3959,45.1372Z" style="fill:#e6b790"/><path d="M26.57,35.3344v.8221L42.8967,52.1831a47.76,47.76,0,0,0,12.1987-3.7648c-.2681-1.603-.26-1.5955-.4036-2.3136a4.4878,4.4878,0,0,0-3.2959-3.4641A75.3754,75.3754,0,0,0,39.7174,40.225,1.29,1.29,0,0,1,38.57,38.95V35.3344Z" style="fill:#e6b790"/><path d="M51.3959,45.1372c-1.4718-.3722-5.9655,2.0266-10.8836,4.7054l2.38,2.336a51.4755,51.4755,0,0,0,11.8045-3.5522A4.7123,4.7123,0,0,0,51.3959,45.1372Z" style="fill:#ddb9b3"/><path d="M42.73,40.651c-.9465-.1567-1.9526-.3018-3.0129-.426A1.29,1.29,0,0,1,38.57,38.95V35.3344h-12v3.6319a1.29,1.29,0,0,1-1.145,1.2746c-1.1149.1331-2.1692.289-3.1564.4569" style="fill:none;stroke:#333;stroke-linecap:round;stroke-linejoin:round;stroke-width:1.28061247640505px"/><path d="M36.5565,52.6783A53.5264,53.5264,0,0,0,55.0251,48.1c-.268-1.603-.26-1.5955-.4036-2.3136a4.4877,4.4877,0,0,0-3.2958-3.4641,78.337,78.337,0,0,0-10.27-2.2357L41.02,40.41A25.4906,25.4906,0,0,1,36.5565,52.6783Z" style="fill:#75402e"/><line x1="48.5058" y1="41.6055" x2="45.7957" y2="40.9577" style="fill:none;stroke:#ce9b69;stroke-miterlimit:10;stroke-width:1.5px"/><path d="M24.1033,40.7368l-.044-.3219a78.3771,78.3771,0,0,0-10.2458,2.2326,4.4876,4.4876,0,0,0-3.2959,3.4641c-.1439.718-.1355.71-.4036,2.3136a53.52,53.52,0,0,0,18.45,4.5768V53A25.49,25.49,0,0,1,24.1033,40.7368Z" style="fill:#75402e"/><line x1="16.4931" y1="41.6055" x2="20.0779" y2="40.7487" style="fill:none;stroke:#ce9b69;stroke-miterlimit:10;stroke-width:1.5px"/><path d="M36.5533,52.6833a55.41,55.41,0,0,0,18.1141-4.3942c-.0137-.0694-.0286-.1442-.0459-.23a4.4878,4.4878,0,0,0-3.2958-3.4642,77.5472,77.5472,0,0,0-10.5444-2.2761A25.9253,25.9253,0,0,1,36.5533,52.6833Z" style="fill:#462312"/><path d="M34.5975,52.7947c.2391-.0092.4706-.0277.7074-.04C35.0682,52.767,34.8365,52.7855,34.5975,52.7947Z" style="fill:#462312"/><path d="M29.829,52.7545c.2357.0122.4661.0308.7041.04C30.2952,52.7853,30.0647,52.7667,29.829,52.7545Z" style="fill:#462312"/><path d="M28.5643,52.6755a25.9243,25.9243,0,0,1-4.2218-10.3548,77.5819,77.5819,0,0,0-10.529,2.2738,4.4879,4.4879,0,0,0-3.2959,3.4642c-.0172.0862-.0321.161-.0458.23a55.4023,55.4023,0,0,0,18.092,4.393Z" style="fill:#462312"/><path d="M17.4441,46.7556l5.4292,1.5707a.3508.3508,0,0,1,.1956.53l-1.8374,2.7932a56.99,56.99,0,0,0,7.3325,1.0264,29.8336,29.8336,0,0,1-4.4834-12.5523l1.2049-.0185a1.0126,1.0126,0,0,0,.997-1.0125V31.1492c-5.6906,3.2641-7.0294,11.0043-9.0538,15.1192A.3444.3444,0,0,0,17.4441,46.7556Z" style="fill:#bcbcbe"/><path d="M26.57,31.1492c-5.691,3.2643-7.3166,11.0052-9.3412,15.12a.3442.3442,0,0,0,.2157.4865l5.4292,1.5707a.3507.3507,0,0,1,.1956.53l-1.8374,2.7932" style="fill:none;stroke:#333;stroke-linecap:round;stroke-linejoin:round;stroke-width:1.28061247640505px"/><path d="M36.5165,52.6791a57.1165,57.1165,0,0,0,7.34-1.0214l-1.843-2.8016a.3507.3507,0,0,1,.1956-.53l5.4292-1.5707a.3442.3442,0,0,0,.2157-.4865c-2.0246-4.1147-3.33-11.8556-9.0211-15.12v8.6519l2.289.61C40.8431,45.2157,38.7159,49.3567,36.5165,52.6791Z" style="fill:#bcbcbe"/><path d="M43.857,51.6577l-1.843-2.8016a.3507.3507,0,0,1,.1956-.53l5.4292-1.5707a.3442.3442,0,0,0,.2157-.4865c-2.0246-4.1147-3.65-11.8556-9.3412-15.12" style="fill:none;stroke:#333;stroke-linecap:round;stroke-linejoin:round;stroke-width:1.28061247640505px"/><path d="M41.1224,37.9966a25.3622,25.3622,0,0,1-4.5781,14.7009" style="fill:none;stroke:#333;stroke-linecap:round;stroke-linejoin:round;stroke-width:1.28061247640505px"/><path d="M24.0008,37.9966a25.3534,25.3534,0,0,0,4.5635,14.6789" style="fill:none;stroke:#333;stroke-linecap:round;stroke-linejoin:round;stroke-width:1.28061247640505px"/><path d="M13.8837,42.6406a4.4877,4.4877,0,0,0-3.2958,3.4641c-.1439.7181-.1356.7106-.4036,2.3136,1.0642.65,10.6028,4.734,22.4555,4.734s21.3913-4.084,22.4556-4.734c-.2681-1.603-.26-1.5955-.4036-2.3136a4.4878,4.4878,0,0,0-3.2959-3.4641" style="fill:none;stroke:#333;stroke-linecap:round;stroke-linejoin:round;stroke-width:1.28061247640505px"/><path d="M49.735,44.88a.375.375,0,0,0,.2764-.6284l-.4014-.4375a.375.375,0,1,0-.5527.5069l.4013.4375A.3754.3754,0,0,0,49.735,44.88Z" style="fill:#dcaa7b"/><path d="M49.735,43.9652a.375.375,0,0,0,.2764-.6284l-.4014-.4375a.3749.3749,0,0,0-.5527.5068l.4013.4375A.3751.3751,0,0,0,49.735,43.9652Z" style="fill:#dcaa7b"/><path d="M49.735,45.794a.375.375,0,0,0,.2764-.6284l-.4014-.4375a.375.375,0,1,0-.5527.5069l.4013.4375A.3754.3754,0,0,0,49.735,45.794Z" style="fill:#dcaa7b"/><path d="M49.735,46.7085a.3751.3751,0,0,0,.2764-.6285l-.4014-.4375a.375.375,0,0,0-.5527.5069l.4013.4375A.3755.3755,0,0,0,49.735,46.7085Z" style="fill:#dcaa7b"/><path d="M49.735,47.6229a.3751.3751,0,0,0,.2764-.6284L49.61,46.557a.3749.3749,0,1,0-.5527.5068l.4013.4375A.3751.3751,0,0,0,49.735,47.6229Z" style="fill:#dcaa7b"/><path d="M49.735,48.5373a.375.375,0,0,0,.2764-.6284l-.4014-.4375a.3749.3749,0,1,0-.5527.5068l.4013.4375A.3751.3751,0,0,0,49.735,48.5373Z" style="fill:#dcaa7b"/><path d="M51.235,44.88a.375.375,0,0,0,.2764-.6284l-.4014-.4375a.375.375,0,1,0-.5527.5069l.4013.4375A.3754.3754,0,0,0,51.235,44.88Z" style="fill:#dcaa7b"/><path d="M51.235,43.9652a.375.375,0,0,0,.2764-.6284l-.4014-.4375a.3749.3749,0,0,0-.5527.5068l.4013.4375A.3751.3751,0,0,0,51.235,43.9652Z" style="fill:#dcaa7b"/><path d="M51.235,45.794a.375.375,0,0,0,.2764-.6284l-.4014-.4375a.375.375,0,1,0-.5527.5069l.4013.4375A.3754.3754,0,0,0,51.235,45.794Z" style="fill:#dcaa7b"/><path d="M51.235,46.7085a.3751.3751,0,0,0,.2764-.6285l-.4014-.4375a.375.375,0,0,0-.5527.5069l.4013.4375A.3755.3755,0,0,0,51.235,46.7085Z" style="fill:#dcaa7b"/><path d="M51.235,47.6229a.3751.3751,0,0,0,.2764-.6284L51.11,46.557a.3749.3749,0,1,0-.5527.5068l.4013.4375A.3751.3751,0,0,0,51.235,47.6229Z" style="fill:#dcaa7b"/><path d="M51.235,48.5373a.375.375,0,0,0,.2764-.6284l-.4014-.4375a.3749.3749,0,1,0-.5527.5068l.4013.4375A.3751.3751,0,0,0,51.235,48.5373Z" style="fill:#dcaa7b"/><path d="M52.735,44.88a.375.375,0,0,0,.2764-.6284l-.4014-.4375a.375.375,0,0,0-.5527.5069l.4013.4375A.3754.3754,0,0,0,52.735,44.88Z" style="fill:#dcaa7b"/><path d="M52.735,43.9652a.375.375,0,0,0,.2764-.6284l-.4014-.4375a.3749.3749,0,0,0-.5527.5068l.4013.4375A.3751.3751,0,0,0,52.735,43.9652Z" style="fill:#dcaa7b"/><path d="M52.735,45.794a.375.375,0,0,0,.2764-.6284l-.4014-.4375a.375.375,0,0,0-.5527.5069l.4013.4375A.3754.3754,0,0,0,52.735,45.794Z" style="fill:#dcaa7b"/><path d="M52.735,46.7085a.3751.3751,0,0,0,.2764-.6285l-.4014-.4375a.375.375,0,1,0-.5527.5069l.4013.4375A.3755.3755,0,0,0,52.735,46.7085Z" style="fill:#dcaa7b"/><path d="M52.735,47.6229a.3751.3751,0,0,0,.2764-.6284L52.61,46.557a.3749.3749,0,1,0-.5527.5068l.4013.4375A.3751.3751,0,0,0,52.735,47.6229Z" style="fill:#dcaa7b"/><path d="M52.735,48.5373a.375.375,0,0,0,.2764-.6284l-.4014-.4375a.3749.3749,0,1,0-.5527.5068l.4013.4375A.3751.3751,0,0,0,52.735,48.5373Z" style="fill:#dcaa7b"/><path d="M54.235,44.88a.375.375,0,0,0,.2764-.6284l-.4014-.4375a.375.375,0,0,0-.5527.5069l.4013.4375A.3754.3754,0,0,0,54.235,44.88Z" style="fill:#dcaa7b"/><path d="M54.235,43.9652a.375.375,0,0,0,.2764-.6284l-.4014-.4375a.3749.3749,0,0,0-.5527.5068l.4013.4375A.3751.3751,0,0,0,54.235,43.9652Z" style="fill:#dcaa7b"/><path d="M54.235,45.794a.375.375,0,0,0,.2764-.6284l-.4014-.4375a.375.375,0,0,0-.5527.5069l.4013.4375A.3754.3754,0,0,0,54.235,45.794Z" style="fill:#dcaa7b"/><path d="M54.235,46.7085a.3751.3751,0,0,0,.2764-.6285l-.4014-.4375a.375.375,0,1,0-.5527.5069l.4013.4375A.3755.3755,0,0,0,54.235,46.7085Z" style="fill:#dcaa7b"/><path d="M54.235,47.6229a.3751.3751,0,0,0,.2764-.6284L54.11,46.557a.3749.3749,0,1,0-.5527.5068l.4013.4375A.3751.3751,0,0,0,54.235,47.6229Z" style="fill:#dcaa7b"/><path d="M54.235,48.5373a.375.375,0,0,0,.2764-.6284l-.4014-.4375a.3749.3749,0,1,0-.5527.5068l.4013.4375A.3751.3751,0,0,0,54.235,48.5373Z" style="fill:#dcaa7b"/><path d="M55.735,44.88a.375.375,0,0,0,.2764-.6284l-.4014-.4375a.375.375,0,0,0-.5527.5069l.4013.4375A.3754.3754,0,0,0,55.735,44.88Z" style="fill:#dcaa7b"/><path d="M55.735,43.9652a.375.375,0,0,0,.2764-.6284l-.4014-.4375a.3749.3749,0,0,0-.5527.5068l.4013.4375A.3751.3751,0,0,0,55.735,43.9652Z" style="fill:#dcaa7b"/><path d="M55.735,45.794a.375.375,0,0,0,.2764-.6284l-.4014-.4375a.375.375,0,0,0-.5527.5069l.4013.4375A.3754.3754,0,0,0,55.735,45.794Z" style="fill:#dcaa7b"/><path d="M55.735,46.7085a.3751.3751,0,0,0,.2764-.6285l-.4014-.4375a.375.375,0,1,0-.5527.5069l.4013.4375A.3755.3755,0,0,0,55.735,46.7085Z" style="fill:#dcaa7b"/><path d="M55.735,47.6229a.3751.3751,0,0,0,.2764-.6284L55.61,46.557a.3749.3749,0,1,0-.5527.5068l.4013.4375A.3751.3751,0,0,0,55.735,47.6229Z" style="fill:#dcaa7b"/><path d="M55.735,48.5373a.375.375,0,0,0,.2764-.6284l-.4014-.4375a.3749.3749,0,1,0-.5527.5068l.4013.4375A.3751.3751,0,0,0,55.735,48.5373Z" style="fill:#dcaa7b"/><path d="M48.5579,41.263h8.25a0,0,0,0,1,0,0v2.4062a0,0,0,0,1,0,0h-6.44a1.81,1.81,0,0,1-1.81-1.81V41.263A0,0,0,0,1,48.5579,41.263Z" transform="translate(93.5055 96.4324) rotate(-165.9768)" style="fill:#ce9b69;stroke:#ce9b69;stroke-linejoin:round"/><path d="M26.57,35.3344v3.6319a1.29,1.29,0,0,1-1.145,1.2746q-.6693.08-1.3091.17" style="fill:none;stroke:#333;stroke-linecap:round;stroke-linejoin:round;stroke-width:1.28061247640505px"/><path d="M38.5768,35.3344v3.6319a1.29,1.29,0,0,0,1.1449,1.2746q.6693.08,1.3091.17" style="fill:none;stroke:#333;stroke-linecap:round;stroke-linejoin:round;stroke-width:1.28061247640505px"/><path d="M15.4041,44.88a.3749.3749,0,0,1-.2763-.6284l.4013-.4375a.375.375,0,0,1,.5528.5069l-.4014.4375A.3752.3752,0,0,1,15.4041,44.88Z" style="fill:#dcaa7b"/><path d="M15.4041,43.9652a.3749.3749,0,0,1-.2763-.6284l.4013-.4375a.375.375,0,0,1,.5528.5068l-.4014.4375A.375.375,0,0,1,15.4041,43.9652Z" style="fill:#dcaa7b"/><path d="M15.4041,45.794a.3749.3749,0,0,1-.2763-.6284l.4013-.4375a.375.375,0,0,1,.5528.5069l-.4014.4375A.3752.3752,0,0,1,15.4041,45.794Z" style="fill:#dcaa7b"/><path d="M15.4041,46.7085a.3751.3751,0,0,1-.2763-.6285l.4013-.4375a.375.375,0,0,1,.5528.5069l-.4014.4375A.3753.3753,0,0,1,15.4041,46.7085Z" style="fill:#dcaa7b"/><path d="M15.4041,47.6229a.375.375,0,0,1-.2763-.6284l.4013-.4375a.375.375,0,0,1,.5528.5068l-.4014.4375A.375.375,0,0,1,15.4041,47.6229Z" style="fill:#dcaa7b"/><path d="M15.4041,48.5373a.3749.3749,0,0,1-.2763-.6284l.4013-.4375a.375.375,0,0,1,.5528.5068l-.4014.4375A.375.375,0,0,1,15.4041,48.5373Z" style="fill:#dcaa7b"/><path d="M13.9041,44.88a.3749.3749,0,0,1-.2763-.6284l.4013-.4375a.375.375,0,0,1,.5528.5069l-.4014.4375A.3752.3752,0,0,1,13.9041,44.88Z" style="fill:#dcaa7b"/><path d="M13.9041,43.9652a.3749.3749,0,0,1-.2763-.6284l.4013-.4375a.375.375,0,0,1,.5528.5068l-.4014.4375A.375.375,0,0,1,13.9041,43.9652Z" style="fill:#dcaa7b"/><path d="M13.9041,45.794a.3749.3749,0,0,1-.2763-.6284l.4013-.4375a.375.375,0,0,1,.5528.5069l-.4014.4375A.3752.3752,0,0,1,13.9041,45.794Z" style="fill:#dcaa7b"/><path d="M13.9041,46.7085a.3751.3751,0,0,1-.2763-.6285l.4013-.4375a.375.375,0,0,1,.5528.5069l-.4014.4375A.3753.3753,0,0,1,13.9041,46.7085Z" style="fill:#dcaa7b"/><path d="M13.9041,47.6229a.375.375,0,0,1-.2763-.6284l.4013-.4375a.375.375,0,0,1,.5528.5068l-.4014.4375A.375.375,0,0,1,13.9041,47.6229Z" style="fill:#dcaa7b"/><path d="M13.9041,48.5373a.3749.3749,0,0,1-.2763-.6284l.4013-.4375a.375.375,0,0,1,.5528.5068l-.4014.4375A.375.375,0,0,1,13.9041,48.5373Z" style="fill:#dcaa7b"/><path d="M12.4041,44.88a.3749.3749,0,0,1-.2763-.6284l.4013-.4375a.375.375,0,0,1,.5528.5069l-.4014.4375A.3752.3752,0,0,1,12.4041,44.88Z" style="fill:#dcaa7b"/><path d="M12.4041,43.9652a.3749.3749,0,0,1-.2763-.6284l.4013-.4375a.375.375,0,0,1,.5528.5068l-.4014.4375A.375.375,0,0,1,12.4041,43.9652Z" style="fill:#dcaa7b"/><path d="M12.4041,45.794a.3749.3749,0,0,1-.2763-.6284l.4013-.4375a.375.375,0,0,1,.5528.5069l-.4014.4375A.3752.3752,0,0,1,12.4041,45.794Z" style="fill:#dcaa7b"/><path d="M12.4041,46.7085a.3751.3751,0,0,1-.2763-.6285l.4013-.4375a.375.375,0,0,1,.5528.5069l-.4014.4375A.3753.3753,0,0,1,12.4041,46.7085Z" style="fill:#dcaa7b"/><path d="M12.4041,47.6229a.375.375,0,0,1-.2763-.6284l.4013-.4375a.375.375,0,0,1,.5528.5068l-.4014.4375A.375.375,0,0,1,12.4041,47.6229Z" style="fill:#dcaa7b"/><path d="M12.4041,48.5373a.3749.3749,0,0,1-.2763-.6284l.4013-.4375a.375.375,0,0,1,.5528.5068l-.4014.4375A.375.375,0,0,1,12.4041,48.5373Z" style="fill:#dcaa7b"/><path d="M10.9041,44.88a.3749.3749,0,0,1-.2763-.6284l.4013-.4375a.375.375,0,0,1,.5528.5069l-.4014.4375A.3752.3752,0,0,1,10.9041,44.88Z" style="fill:#dcaa7b"/><path d="M10.9041,43.9652a.3749.3749,0,0,1-.2763-.6284l.4013-.4375a.375.375,0,0,1,.5528.5068l-.4014.4375A.375.375,0,0,1,10.9041,43.9652Z" style="fill:#dcaa7b"/><path d="M10.9041,45.794a.3749.3749,0,0,1-.2763-.6284l.4013-.4375a.375.375,0,0,1,.5528.5069l-.4014.4375A.3752.3752,0,0,1,10.9041,45.794Z" style="fill:#dcaa7b"/><path d="M10.9041,46.7085a.3751.3751,0,0,1-.2763-.6285l.4013-.4375a.375.375,0,0,1,.5528.5069l-.4014.4375A.3753.3753,0,0,1,10.9041,46.7085Z" style="fill:#dcaa7b"/><path d="M10.9041,47.6229a.375.375,0,0,1-.2763-.6284l.4013-.4375a.375.375,0,0,1,.5528.5068l-.4014.4375A.375.375,0,0,1,10.9041,47.6229Z" style="fill:#dcaa7b"/><path d="M10.9041,48.5373a.3749.3749,0,0,1-.2763-.6284l.4013-.4375a.375.375,0,0,1,.5528.5068l-.4014.4375A.375.375,0,0,1,10.9041,48.5373Z" style="fill:#dcaa7b"/><path d="M9.4041,44.88a.3749.3749,0,0,1-.2763-.6284l.4013-.4375a.375.375,0,0,1,.5528.5069l-.4014.4375A.3752.3752,0,0,1,9.4041,44.88Z" style="fill:#dcaa7b"/><path d="M9.4041,43.9652a.3749.3749,0,0,1-.2763-.6284l.4013-.4375a.375.375,0,0,1,.5528.5068l-.4014.4375A.375.375,0,0,1,9.4041,43.9652Z" style="fill:#dcaa7b"/><path d="M9.4041,45.794a.3749.3749,0,0,1-.2763-.6284l.4013-.4375a.375.375,0,0,1,.5528.5069l-.4014.4375A.3752.3752,0,0,1,9.4041,45.794Z" style="fill:#dcaa7b"/><path d="M9.4041,46.7085a.3751.3751,0,0,1-.2763-.6285l.4013-.4375a.375.375,0,0,1,.5528.5069l-.4014.4375A.3753.3753,0,0,1,9.4041,46.7085Z" style="fill:#dcaa7b"/><path d="M9.4041,47.6229a.375.375,0,0,1-.2763-.6284l.4013-.4375a.375.375,0,0,1,.5528.5068l-.4014.4375A.375.375,0,0,1,9.4041,47.6229Z" style="fill:#dcaa7b"/><path d="M9.4041,48.5373a.3749.3749,0,0,1-.2763-.6284l.4013-.4375a.375.375,0,0,1,.5528.5068l-.4014.4375A.375.375,0,0,1,9.4041,48.5373Z" style="fill:#dcaa7b"/><path d="M10.1411,41.263h6.44a0,0,0,0,1,0,0v2.4062a0,0,0,0,1,0,0h-8.25a0,0,0,0,1,0,0v-.5964A1.81,1.81,0,0,1,10.1411,41.263Z" transform="translate(-9.919 4.2839) rotate(-14.0232)" style="fill:#ce9b69;stroke:#ce9b69;stroke-linejoin:round"/><path d="M34.5481,18.1028l-11.8352.93c-3.8807,5.2239-2.2143,12.5069-.99,16.0266h15.825C37.5482,28.6663,42.9423,20.96,34.5481,18.1028Z" style="fill:#444;stroke:#333;stroke-linejoin:round;stroke-width:1.5px"/><path d="M42.1032,27.86l-.56,3a6.5206,6.5206,0,0,1-2.37,3.93l-2.56,2a6.52,6.52,0,0,1-8,0l-2.56-2a6.47,6.47,0,0,1-2.37-3.93l-.56-3c-1.84-.08-2.76-2.06-3-4-.28-2.29.76-4,2.49-4v-2c0-5.41,2-10.51,10-10.51s10,5.1,10,10.51v2c1.73,0,2.79,1.71,2.51,4-.23,1.91-1.21,3.87-3,4Z" style="fill:#efc8a5"/><path d="M42.6032,19.87v-2c0-5.41-2-10.51-10-10.51s-10,5.1-10,10.51v2c-1.73,0-2.77,1.71-2.49,4,.24,1.94,1.16,3.92,3,4l.56,3a6.47,6.47,0,0,0,2.37,3.93l.24.18c-4.85-15.93,7.88-16.62,10-20,.91,2.73,7.13,5.13,8.53,10.06a7.8637,7.8637,0,0,0,.25-1.17C45.3832,21.58,44.3232,19.87,42.6032,19.87Z" style="fill:#e6b790"/><path d="M42.6032,19.87v-2c0-5.41-2-10.51-10-10.51a15.524,15.524,0,0,0-2.77.24V17.97a3.9,3.9,0,0,1-1.23,2.88.45.45,0,0,0,.2.77,2.57,2.57,0,0,1,1.8,1.9.49.49,0,0,0,.77.29,1.7914,1.7914,0,0,1,.59-.32.49.49,0,0,1,.61.48v2.05a1.09,1.09,0,0,0,.62.93c.58.32.17,1.41-.62,1.41h0a1.6888,1.6888,0,0,1-.89-.23c-.74-.37-1.43.39-1.28.68s.34,0,1.09.34a2.3381,2.3381,0,0,0,1.1.27V33.1a.38.38,0,0,0,.31.37c1.31.31,2,2.49-.31,3h0a1.24,1.24,0,0,0-1,1.21v.45a6.51,6.51,0,0,0,5-1.3l2.56-2a6.5206,6.5206,0,0,0,2.37-3.93l.56-3h0c1.79-.12,2.77-2.08,3-4C45.3832,21.58,44.3232,19.87,42.6032,19.87Z" style="fill:#e6b790"/><path d="M43.5113,21.7291a1.0016,1.0016,0,0,1-.957-.7114c-.2256-.7476-3.4321-2.2124-9.8232-2.2124-5.978,0-9.3765,1.3261-9.791,2.2226a1,1,0,1,1-1.8154-.84c1.1552-2.4971,6.9741-3.3828,11.6064-3.3828,4.9087,0,10.9287.9516,11.7382,3.6342a1.0006,1.0006,0,0,1-.6684,1.2466A1.0133,1.0133,0,0,1,43.5113,21.7291Z" style="fill:#ddad8a"/><path d="M26.255,24.0986s1.1972-.8624,2.0383-.5168a8.29,8.29,0,0,1,1.31.6563s-.25.4472-1.7085.4472C26.4891,24.6853,26.255,24.0986,26.255,24.0986Z" style="fill:#eee"/><path d="M38.8913,24.0986s-1.1971-.8624-2.0382-.5168a8.29,8.29,0,0,0-1.31.6563s.25.4472,1.7085.4472C38.6573,24.6853,38.8913,24.0986,38.8913,24.0986Z" style="fill:#eee"/><line x1="32.5697" y1="29.5942" x2="32.5697" y2="30.3378" style="fill:none;stroke:#ddad8a;stroke-linecap:round;stroke-miterlimit:10;stroke-width:0.75px"/><path d="M42.1032,27.86l-.56,3a6.5206,6.5206,0,0,1-2.37,3.93l-2.56,2a6.52,6.52,0,0,1-8,0l-2.56-2a6.47,6.47,0,0,1-2.37-3.93l-.56-3c-1.84-.08-2.76-2.06-3-4-.28-2.29.76-4,2.49-4v-2c0-5.41,2-10.51,10-10.51s10,5.1,10,10.51v2c1.73,0,2.79,1.71,2.51,4-.23,1.91-1.21,3.87-3,4Z" style="fill:none;stroke:#333;stroke-linejoin:round;stroke-width:1.4999971369023px"/><path d="M25.2132,21.73a3.3713,3.3713,0,0,1,1.31-.54,4.44,4.44,0,0,1,1.41,0c.46.08.9.2,1.33.31a8.4665,8.4665,0,0,0,1.22.29h0a.503.503,0,1,1-.11,1h-.07a9.1057,9.1057,0,0,1-1.32-.5,11.91,11.91,0,0,0-1.2-.47,4.0045,4.0045,0,0,0-1.18-.18,1.8106,1.8106,0,0,0-1.15.38.18.18,0,1,1-.2616-.2473.1832.1832,0,0,1,.0416-.0327Z" style="fill:#333"/><path d="M39.7932,22.02a1.85,1.85,0,0,0-1.19-.38,4.0042,4.0042,0,0,0-1.22.2c-.41.13-.8.3-1.21.47a7.097,7.097,0,0,1-1.33.49.51.51,0,0,1-.61-.38.5.5,0,0,1,.3757-.599l.0043-.001h.08a6.7623,6.7623,0,0,0,1.25-.3,11.2367,11.2367,0,0,1,1.33-.31,4.1719,4.1719,0,0,1,1.41,0,3.2719,3.2719,0,0,1,1.31.53.17.17,0,0,1,.0651.2315l-.0051.0085a.18.18,0,0,1-.247.0619l-.003-.0019Z" style="fill:#333"/><path d="M28.75,17.3089c-3.6066,2.62-6.7331,7.0083-7.0264,17.7509-1.2246-3.52-2.094-11.2185.99-16.0266A17.506,17.506,0,0,1,28.75,17.3089Z" style="fill:#5b442d"/><path d="M22.7129,19.0332c-3.8808,5.2238-2.2143,12.5066-.99,16.0266h0c-.1563-11.79,4.51-14.5173,8.88-17.7175C30.6029,17.3423,27.7221,16.8662,22.7129,19.0332Z" style="fill:#444"/><path d="M22.7129,19.0332c-3.8808,5.2238-2.2143,12.5066-.99,16.0266.1533-12.6348,4.8089-14.7287,9.1787-17.9289A21.5959,21.5959,0,0,0,22.7129,19.0332Z" style="fill:none;stroke:#333;stroke-linecap:round;stroke-linejoin:round;stroke-width:1.42900504871362px"/><line x1="29.6032" y1="31.8101" x2="29.1032" y2="32.8101" style="fill:none;stroke:#ddad8a;stroke-linecap:round;stroke-miterlimit:10;stroke-width:0.75px"/><line x1="35.6497" y1="31.0892" x2="36.1497" y2="32.0892" style="fill:none;stroke:#ddad8a;stroke-linecap:round;stroke-miterlimit:10;stroke-width:0.75px"/><path d="M33.4171,31.0913c-.46.1588-.6092.2853-.8139.2853s-.2192-.0213-.6758-.1789c-.8018-.2772-.8452.5808-2.332,1.0522l.92.8259a2.3547,2.3547,0,0,0,1.5511.49h.999a2.436,2.436,0,0,0,1.5844-.6587l1.07-1.2855C34.6962,31.4586,34.2153,30.8153,33.4171,31.0913Z" style="fill:#a56659"/><path d="M35.8125,31.5659c-.5582.6512-1.7675.0465-3.2093.7442h-.0156c-1.4844-.5-1.9844,0-2.9922-.005" style="fill:none;stroke:#743f40;stroke-linecap:round;stroke-miterlimit:10;stroke-width:0.75px"/><path d="M30.6032,28.87c1,0,1,.5,2,.5s1-.5,2-.5" style="fill:none;stroke:#c6916d;stroke-linecap:round;stroke-miterlimit:10;stroke-width:0.75px"/><path d="M25.6624,28.1054a.781.781,0,0,1,.0155-.0772l-.07.07c.0152.0018.0293.0048.0446.0065Z" style="fill:#dce9ec"/><path d="M35.3225,24.3723c.5792-.332,1.9281-1.6765,3.8583-.0891a10.3381,10.3381,0,0,0,1.2616-.3018c-1.319.0137-2.5572-.9683-3.9259-.2967" style="fill:#333;stroke:#333;stroke-linecap:round;stroke-miterlimit:10;stroke-width:0.499999045634099px"/><ellipse cx="37.1158" cy="24.1595" rx="0.811" ry="0.4507" style="fill:#333"/><path d="M29.8238,24.3723c-.5792-.332-1.928-1.6765-3.8583-.0891a10.3424,10.3424,0,0,1-1.2616-.3018c1.319.0137,2.5573-.9683,3.926-.2967" style="fill:#333;stroke:#333;stroke-linecap:round;stroke-miterlimit:10;stroke-width:0.499999045634099px"/><ellipse cx="28.0305" cy="24.1595" rx="0.811" ry="0.4507" style="fill:#333"/><path d="M46.6858,21.0833c6.1125-.3745,4.612,4.1849,6.99,6.0995C51.0573,27.9,45.4493,26.1228,46.6858,21.0833Z" style="fill:#b72525"/><path d="M53.1229,26.6117c-2.6442-.0273-6.2869-1.744-5.8015-5.55C52.1961,21.0388,51.57,24.5772,53.1229,26.6117Z" style="fill:#961717"/><path d="M47.0541,20.43a6.6179,6.6179,0,0,1,1.2717,1.1091,5.4753,5.4753,0,0,1,.86,1.4163,7.2252,7.2252,0,0,0,.6291,1.2731,3.3675,3.3675,0,0,0,1.0126.9191l.0049.0031a.2417.2417,0,0,1-.2173.43,3.9883,3.9883,0,0,1-1.362-.8756,7.8255,7.8255,0,0,1-.9374-1.275,4.3292,4.3292,0,0,0-.875-1.0149,5.2953,5.2953,0,0,0-1.1229-.6784l-.0143-.0068a.7532.7532,0,0,1,.6419-1.3629A.8119.8119,0,0,1,47.0541,20.43Z" style="fill:#333"/><path d="M46.6858,21.0833c6.1125-.3745,4.612,4.1849,6.99,6.0995C51.0573,27.9,45.4493,26.1228,46.6858,21.0833Z" style="fill:none;stroke:#333;stroke-linejoin:round;stroke-width:1.5px"/><path d="M46.5122,19.93c5.1927-3.2464,6.05,1.4764,9.0533,2.0241C53.6073,23.8343,47.8309,24.9487,46.5122,19.93Z" style="fill:#961717"/><path d="M54.7755,21.7016c-2.3468,1.18-6.2418,1.3433-7.6161-2.1473C51.3317,17.3241,52.4791,20.6469,54.7755,21.7016Z" style="fill:#b72525"/><path d="M46.5732,19.1826a8.929,8.929,0,0,1,2.7347.9072,14.7253,14.7253,0,0,0,2.3176,1.268.2421.2421,0,0,1,.1654.3.2451.2451,0,0,1-.259.1734,14.5375,14.5375,0,0,1-2.6113-.8288,7.6774,7.6774,0,0,0-2.4693-.3245.7535.7535,0,1,1-.0236-1.5069.7637.7637,0,0,1,.136.01Z" style="fill:#333"/><path d="M46.5122,19.93c5.1927-3.2464,6.05,1.4764,9.0533,2.0241C53.6073,23.8343,47.8309,24.9487,46.5122,19.93Z" style="fill:none;stroke:#333;stroke-linejoin:round;stroke-width:1.5px"/><path d="M19.3228,19.2033c-.07-1.1288.1261-3.9624,1.1917-5.4057a.8691.8691,0,0,1,.7533-.3512,3.6185,3.6185,0,0,1,.3682.0661,17.6939,17.6939,0,0,1,1.8515-4.5378,1.2843,1.2843,0,0,1,1.4335-.5269L27.4619,6.486a3.6737,3.6737,0,0,1,1.9312-.7522c4.4085-.3789,9.571-.7533,14.5392,5.4084a3.6767,3.6767,0,0,1,.7039,1.4129l1.3008,5.1866-2.2393,2.7191S30.905,18.1424,20.322,20.0052A.8623.8623,0,0,1,19.3228,19.2033Z" style="fill:#b72525"/><path d="M26.1244,8.8029l1.9371-1.3115a.6893.6893,0,0,1,.6291-.0752c6.8772,2.5892,15.8084,9.4475,15.8084,9.4475l.2387.9671A76.5915,76.5915,0,0,0,26.1244,8.8029Z" style="fill:#961717"/><path d="M35.1343,8.004c1.4177-.7541,9.7275,5.3674,10.4432,9.891C41.0976,11.8045,34.5452,8.68,35.1343,8.004Z" style="fill:#961717"/><path d="M24.0018,10.7816a.2807.2807,0,0,1,.4749-.0276q.2011.2838.4149.5737a.2809.2809,0,0,0,.185.1109c10.0749,1.49,19.4308,7.0085,19.4308,7.0085l-.529.8036c-5.6616-2.6822-8.6677-4.3134-21.2015-5.6625A11.1445,11.1445,0,0,1,24.0018,10.7816Z" style="fill:#961717"/><polygon points="44.758 16.919 42.73 17.804 44.743 18.736 45.087 17.513 44.758 16.919" style="fill:#961717"/><polygon points="41.971 17.991 38.926 18.742 42.981 19.832 43.623 18.4 41.971 17.991" style="fill:#961717"/><path d="M21.0861,15.0161a.4832.4832,0,0,1,.5046-.3019l6.587.8542a1.6707,1.6707,0,0,1,.8911.4031c.4166.3676.8478.7207,1.2926,1.0539a1.6852,1.6852,0,0,0,.8963.3329A65.1591,65.1591,0,0,1,44.2745,19.76l-.5768.7S30.905,18.1424,20.322,20.0052A13.66,13.66,0,0,1,21.0861,15.0161Z" style="fill:#961717"/><path d="M20.9853,12.9553a18.6856,18.6856,0,0,1,1.05-2.73A12.649,12.649,0,0,1,22.75,8.9274L22.96,8.611a1.9653,1.9653,0,0,1,.3515-.3827,1.9185,1.9185,0,0,1,.9334-.4234,1.9739,1.9739,0,0,1,.97.0985l.67.2253,1.332.4692c.8843.3215,1.7639.6536,2.6357,1.0053a70.4891,70.4891,0,0,1,10.1116,4.9536.2412.2412,0,0,1-.2406.418,69.7694,69.7694,0,0,0-10.2163-4.45c-.8762-.3088-1.7592-.5976-2.6446-.8755l-1.3316-.403-.6675-.1916a.7214.7214,0,0,0-.4094-.0329.67.67,0,0,0-.3182.167.69.69,0,0,0-.1136.1385l-.1644.2755a11.322,11.322,0,0,0-.58,1.1862,17.3571,17.3571,0,0,0-.8406,2.54l-.0052.021a.75.75,0,0,1-1.4571-.36Z" style="fill:#333"/><path d="M44.1422,17.7606A12.4678,12.4678,0,0,0,42.52,15.2733a24.1353,24.1353,0,0,0-2.1224-2.2841c-.7494-.7309-1.5586-1.4036-2.3773-2.0668-.8271-.6536-1.6841-1.2717-2.5564-1.8721a.2413.2413,0,0,1-.067-.3346.2457.2457,0,0,1,.3213-.0752c.9264.5342,1.8427,1.09,2.736,1.6866.8857.607,1.767,1.2282,2.6,1.9193a25.2179,25.2179,0,0,1,2.4027,2.2055,13.37,13.37,0,0,1,2.0579,2.7025.7513.7513,0,0,1-1.3158.7255c-.01-.0179-.019-.0361-.0273-.0544Z" style="fill:#333"/><path d="M24.921,8.4478,27.2819,6.625A4.4413,4.4413,0,0,1,29.62,5.7144c4.3429-.3691,9.3935-.6268,14.2609,5.3639a3.8335,3.8335,0,0,1,.759,1.5641l1.3164,5.755" style="fill:none;stroke:#333;stroke-linejoin:round;stroke-width:1.5px"/><path d="M43.2715,20.3977a2.3365,2.3365,0,0,1,1.2755-.976,2.6105,2.6105,0,0,1,.2316-1.7982c.6876-1.2516,2.3774-.7288,2.89.2262.87,1.6188-.9837,4.7336-2.6386,4.857C43.9987,22.7836,42.5866,21.6635,43.2715,20.3977Z" style="fill:#961717"/><path d="M46.6545,17.0068a1.1622,1.1622,0,0,1,1.0145.8429,2.92,2.92,0,0,1-.3479,2.8448C47.091,20.5942,44.2464,19.5272,46.6545,17.0068Z" style="fill:#b72525"/><path d="M44.547,19.4217a2.6105,2.6105,0,0,1,.2316-1.7982c.6876-1.2516,2.3774-.7288,2.89.2262.87,1.6188-.9837,4.7336-2.6386,4.857-1.0316.0769-2.4438-1.0432-1.7589-2.309.554-1.024,2.2147-1.2132,2.2147-1.2132" style="fill:none;stroke:#333;stroke-linecap:round;stroke-linejoin:round;stroke-width:1.5px"/><path d="M37.589,16.7316a49.2009,49.2009,0,0,0-11.4-2.45q-1.4546-.1659-2.914-.2816l-1.4593-.1033-.3646-.0212a1.88,1.88,0,0,0-.29-.0076.4423.4423,0,0,0-.3147.2023,7.4465,7.4465,0,0,0-.8891,5.3239c.0241.16.021.1209.03.1369a.0468.0468,0,0,0,.03.0164c-.0721.0171.3013-.0395.5185-.0674l1.4685-.195q1.4709-.1755,2.9469-.2956c1.9681-.157,3.9409-.2429,5.9135-.27,3.9433-.0611,7.8945.1471,11.8.3915l.0083.0005a.75.75,0,1,1-.0937,1.4972l-.0165-.0012c-3.9131-.3317-7.7946-.6217-11.695-.6479-1.948-.0164-3.8958.0254-5.8394.1372q-1.4575.0858-2.91.2271l-1.4505.16-.3625.0415a1.3051,1.3051,0,0,1-.5763-.0241,1.0383,1.0383,0,0,1-.5539-.4069,1.1787,1.1787,0,0,1-.1873-.5562,8.3208,8.3208,0,0,1,1.168-5.9734,1.2965,1.2965,0,0,1,.9079-.5322,2.3976,2.3976,0,0,1,.4433.0115l.3688.0293,1.4716.1355q1.47.1465,2.9331.3464a49.75,49.75,0,0,1,11.4883,2.7277.2411.2411,0,0,1-.1723.45Z" style="fill:#333"/><path d="M42.6032,19.87c0-.1-.41-.11-1-.1.41,6.73-.56,8.27-.56,11.28l1.06-3.19h0c1.79-.12,2.77-2.08,3-4C45.3832,21.58,44.3232,19.87,42.6032,19.87Z" style="fill:#ddad8a"/><path d="M40.8431,19.6474l.23,4.4524v.0008a.53.53,0,0,0,.55.5092h.0007a.53.53,0,0,0,.5093-.55c.1271-3.3178.8011-3.75,1.47-3.75l-1.38-.7954Z" style="fill:#333"/><path d="M42.6132,19.86c1.73,0,2.79,1.71,2.51,4-.23,1.91-1.21,3.87-3,4" style="fill:none;stroke:#333;stroke-linecap:round;stroke-linejoin:round;stroke-width:1.4999971369023px"/><path d="M42.1032,27.86l-.56,3a6.5206,6.5206,0,0,1-2.37,3.93" style="fill:none;stroke:#333;stroke-linecap:round;stroke-linejoin:round;stroke-width:1.4999971369023px"/><line x1="26.3532" y1="26.6849" x2="29.3532" y2="26.6849" style="fill:none;stroke:#333;stroke-linecap:round;stroke-linejoin:round;stroke-width:1.4999971369023px"/></g></svg>