<svg xmlns="http://www.w3.org/2000/svg" viewBox="0 0 64 64">
  <g id="pharmacist-white-female-coronavirus">
    <g>
      <g id="f8ffa928-9215-4f9c-b6c1-416d03c34056">
        <g id="b69d8c8e-0bba-44c7-87b3-411c305c5e02">
          <g id="b2621900-e973-4de6-8150-402599461ef9">
            <g id="b84e72a7-9c73-410e-bf3b-fd145aed449f">
              <path d="M45.76,19.79V32.54a6,6,0,0,1-6,6h-16a6,6,0,0,1-6-6V19.79a14,14,0,1,1,28,0Z" fill="#c1ad8b"/>
              <path d="M45.76,32.54V19.79A14,14,0,0,0,32.91,5.84a13.92,13.92,0,0,0-13,14v12.7a6,6,0,0,0,6,6H39.76A6,6,0,0,0,45.76,32.54Z" fill="#ad9a76"/>
              <path d="M10.17,36h0a2.12,2.12,0,0,1-2.08-2.08V29.67a2.12,2.12,0,0,1,2.08-2.08h0a2.12,2.12,0,0,1,2.08,2.08v4.24A2.12,2.12,0,0,1,10.17,36Z" fill="#c66161"/>
              <path d="M10.17,27.59a2.12,2.12,0,0,0-2.08,2.08v2.12h4.16V29.67A2.12,2.12,0,0,0,10.17,27.59Z" fill="#4ba6dd"/>
              <path d="M9.71,30.39v4.24A2,2,0,0,0,10.23,36a2.12,2.12,0,0,0,2-2.07V29.66a2,2,0,0,0-.52-1.34A2.12,2.12,0,0,0,9.71,30.39Z" fill="#b74242"/>
              <path d="M9.71,30.39v1.4h2.54V29.67a2,2,0,0,0-.52-1.34A2.11,2.11,0,0,0,9.71,30.39Z" fill="#2f8dd3"/>
              <path d="M10.17,36h0a2.12,2.12,0,0,1-2.08-2.08V29.67a2.12,2.12,0,0,1,2.08-2.08h0a2.12,2.12,0,0,1,2.08,2.08v4.24A2.12,2.12,0,0,1,10.17,36Z" fill="none" stroke="#333" stroke-linejoin="round"/>
              <circle cx="52.39" cy="31.75" r="3.04" fill="#ddd"/>
              <line x1="54.54" y1="29.6" x2="50.24" y2="33.9" fill="none" stroke="#aaa" stroke-linejoin="round"/>
              <line x1="55.03" y1="29.86" x2="50.73" y2="34.16" fill="none" stroke="#eee" stroke-linejoin="round" stroke-width="0.5"/>
              <circle cx="52.39" cy="31.75" r="3.04" fill="none" stroke="#333" stroke-linejoin="round"/>
              <path d="M55.24,47.06A5.51,5.51,0,0,0,51,42.66c-3.8-.73-7.62-1.57-13.12-2.6V35.79H25.59v4.27c-5.4,1-9.47,1.78-13.06,2.61a5.61,5.61,0,0,0-4.19,4.4L8,48.94c1.22.74,12,5.17,23.83,5a59,59,0,0,0,23.63-5Z" fill="#e5c2ba"/>
              <path d="M25.59,35.79V37l5,5.18a4.11,4.11,0,0,1,1.15,2.85,2.63,2.63,0,0,0,2.63,2.63h.52a3,3,0,0,0,3-3v-8.9Z" fill="#d8b3ad"/>
              <polyline points="25.59 41.93 25.59 35.79 37.93 35.79 37.93 41.93" fill="none" stroke="#333" stroke-linejoin="round" stroke-width="1.5"/>
              <path d="M25.59,40.06c-5.4,1-9.47,1.78-13.06,2.61a5.61,5.61,0,0,0-4.19,4.4L8,48.94c1.22.74,12,5.17,23.83,5a59,59,0,0,0,23.63-5L55.24,47A5.49,5.49,0,0,0,51,42.66c-3.8-.73-7.62-1.57-13.12-2.6" fill="none" stroke="#333" stroke-linejoin="round" stroke-width="1.5"/>
              <path d="M55.24,47.06A5.51,5.51,0,0,0,51,42.66c-3.8-.73-7.62-1.57-13.12-2.6h-.1a13.16,13.16,0,0,1-6,8.95,13.1,13.1,0,0,1-6-8.95h-.3c-5.4,1-9.47,1.78-13.06,2.61a5.61,5.61,0,0,0-4.19,4.4L8,48.94c1.22.74,12,5.17,23.83,5a59,59,0,0,0,23.63-5Z" fill="#dae4e8"/>
              <path d="M23.18,40.5C19,41.29,15.56,42,12.53,42.66a5.61,5.61,0,0,0-4.19,4.4L8,48.94a56.8,56.8,0,0,0,16.85,4.62A45,45,0,0,1,23.18,40.5Z" fill="#eee"/>
              <path d="M38.86,53.47A54.9,54.9,0,0,0,55.48,49l-.25-1.9a5.5,5.5,0,0,0-4.2-4.4c-3.17-.61-6.36-1.29-10.51-2.1A44.7,44.7,0,0,1,38.86,53.47Z" fill="#eee"/>
              <path d="M51,45.5c-10.58-2.12-14-2.61-14-2.61A13,13,0,0,1,31.9,49a13,13,0,0,1-5.17-6.11s-10,1.64-14.2,2.61a5.54,5.54,0,0,0-4,3.7A59.92,59.92,0,0,0,31.85,54,60.94,60.94,0,0,0,55,49.19,5.4,5.4,0,0,0,51,45.5Z" fill="#bcdaf7"/>
              <path d="M40.78,42.18l-3-2.12c-.73,5.39-5.82,8.84-6,8.95v.84A9.81,9.81,0,0,0,36,48.18l4.76,2.87V42.18Z" fill="#91acc1"/>
              <path d="M25.85,39.86l-2.91,2.32v8.88l6.64-3.9C28,45,26.28,43,25.85,39.86Z" fill="#91acc1"/>
              <path d="M38.87,53.47A58.85,58.85,0,0,0,55,49.19a5.4,5.4,0,0,0-4-3.69c-3.19-.61-6.41-1.3-10.6-2.12A41,41,0,0,1,38.87,53.47Z" fill="#ddd"/>
              <path d="M23.27,43.32c-4.24.8-7.69,1.47-10.74,2.18a5.54,5.54,0,0,0-4,3.7,60.19,60.19,0,0,0,16.35,4.36A39.43,39.43,0,0,1,23.27,43.32Z" fill="#ddd"/>
              <path d="M25.59,40.06c-5.4,1-9.47,1.78-13.06,2.61a5.61,5.61,0,0,0-4.19,4.4L8,48.94c1.22.74,12,5.17,23.83,5a59,59,0,0,0,23.63-5L55.24,47A5.49,5.49,0,0,0,51,42.66c-3.8-.73-7.62-1.57-13.12-2.6" fill="none" stroke="#333" stroke-linejoin="round" stroke-width="1.5"/>
              <line x1="31.86" y1="49" x2="31.86" y2="53.96" fill="none" stroke="#333" stroke-linejoin="round" stroke-width="1.5"/>
              <path d="M17.66,52l.36.34a59,59,0,0,0,6.86,1.24c-1.12-3.51-1.64-7.63-1.71-13.47l-6.68,5.71,3.86,2.72Z" fill="#ddd" stroke="#333" stroke-linejoin="round" stroke-width="1.53"/>
              <path d="M45.8,52.22l.27-.25-2.7-3.5,3.86-2.68-6.68-5.67C40.48,45.91,40,50,38.87,53.51A63,63,0,0,0,45.8,52.22Z" fill="#ddd" stroke="#333" stroke-linejoin="round" stroke-width="1.53"/>
              <path d="M38.16,38l2.62,2.09V49l-5.25-3.13C37.09,43.79,37.73,41.21,38.16,38Z" fill="#bcdaf7"/>
              <path d="M25.56,38l-2.62,2.09V49l5.25-3.13C26.63,43.79,26,41.21,25.56,38Z" fill="#bcdaf7"/>
              <path d="M28.18,45.87,22.93,49V40.12L25.55,38h0c.62,5.2,2.4,8.31,6.3,11,3.9-2.66,5.68-5.77,6.3-11h0l2.62,2.09V49l-5.25-3.13" fill="none" stroke="#333" stroke-linejoin="round" stroke-width="1.5"/>
              <path d="M42.26,21.79v-2c0-5.41-2.46-10-10.5-10s-10.5,4.59-10.5,10v2c-1.73,0-2.28,1.71-2,4,.24,1.95,1,4,3,4,0,3,1.74,6.37,5.18,8.76,2.18,1.51,3.11,1.74,4.32,1.74s2.26-.07,4.32-1.74c3-2.39,5.18-5.76,5.18-8.76,2,0,2.76-2.05,3-4C44.54,23.5,44,21.79,42.26,21.79Z" fill="#edccc3"/>
              <path d="M42.26,21.79v-2c0-5.41-2.46-10-10.5-10a18.22,18.22,0,0,0-2.66.2v10.6a3.89,3.89,0,0,1-1.27,2.88.46.46,0,0,0,0,.64.41.41,0,0,0,.23.13,2.58,2.58,0,0,1,1.88,1.88.49.49,0,0,0,.58.38h0a.66.66,0,0,0,.19-.09,1.83,1.83,0,0,1,.58-.32.49.49,0,0,1,.59.36.5.5,0,0,1,0,.12v1.61a1.09,1.09,0,0,0,.62.94c.57.31.18,1.4-.64,1.4A1.64,1.64,0,0,1,31,30.3c-.74-.37-1.43.39-1.27.68s.34,0,1.08.35a2.62,2.62,0,0,0,1.1.27v4.13a.39.39,0,0,0,.31.38c1.31.31,2,2.49-.31,3h0a1.25,1.25,0,0,0-1,1.16,4.69,4.69,0,0,0,.92.07c1.21,0,2.26-.07,4.32-1.74,2.92-2.42,5.15-5.81,5.15-8.81,2,0,2.76-2.05,3-4C44.54,23.5,44,21.79,42.26,21.79Z" fill="#e5c2ba"/>
              <path d="M40.72,24.48c-2.43-.39-6.24-.38-8.15.57a2.54,2.54,0,0,0-1.59,0c-.1-.06-3.16-1.4-8.19-.6a.52.52,0,0,0-.44.51v.52a.56.56,0,0,0,.15.37l.51.51a13,13,0,0,0,.4,1.87.51.51,0,0,0,.27.32,10.05,10.05,0,0,0,4.05.79,8.45,8.45,0,0,0,2.06-.23.54.54,0,0,0,.34-.27,12.31,12.31,0,0,0,1-2.72,1.48,1.48,0,0,1,1.25-.05,12.91,12.91,0,0,0,1,2.77.49.49,0,0,0,.34.27,7.94,7.94,0,0,0,2.06.23,10.19,10.19,0,0,0,4-.79.51.51,0,0,0,.27-.32,11.73,11.73,0,0,0,.4-1.87l.51-.51a.5.5,0,0,0,.15-.37V25A.5.5,0,0,0,40.72,24.48Z" fill="#ddb7af"/>
              <path d="M43.45,22.2a1.91,1.91,0,0,0-1.19-.41v-2c0-5.41-2.46-10-10.5-10s-10.5,4.59-10.5,10v2a2.08,2.08,0,0,0-.66.11,21,21,0,0,1,1.66,4.39c0,.12.4.23.53.23a.24.24,0,0,0,.24-.23c.24-4.89.29-7.28,2.24-9.75,4.1,6.26,14.46,5.06,14.46,10a.58.58,0,0,0,.63.54.59.59,0,0,0,.54-.49,3.7,3.7,0,0,1,.82-2A20.16,20.16,0,0,1,43.45,22.2Z" fill="#e5c2ba"/>
              <path d="M43.45,22.2h0a1.88,1.88,0,0,0-.23-.16,1.73,1.73,0,0,0-.31-.14h-.15a2.74,2.74,0,0,0-.5-.07v-2c0-5.41-2.46-10-10.5-10a12.92,12.92,0,0,0-1.39.05c-.44.05-.86.08-1.27.14h0V20c4.67,2.62,10.64,2.83,10.64,6.56a.58.58,0,0,0,.63.54.59.59,0,0,0,.54-.49,3.7,3.7,0,0,1,.82-2A20.93,20.93,0,0,1,43.45,22.2Z" fill="#d8b5af"/>
              <path d="M23.68,23.79a3.87,3.87,0,0,1,1.43-.53,5.53,5.53,0,0,1,1.52,0c.5.07,1,.19,1.45.3a8.87,8.87,0,0,0,1.34.28h0a.54.54,0,0,1,.48.58.53.53,0,0,1-.58.48h-.07a10.67,10.67,0,0,1-1.44-.5,12.17,12.17,0,0,0-1.32-.47,3.12,3.12,0,0,0-2.62.18.18.18,0,0,1-.25-.09.2.2,0,0,1,0-.21Z" fill="#333"/>
              <path d="M39.63,24.09a2.2,2.2,0,0,0-1.27-.37,4.32,4.32,0,0,0-1.34.21c-.44.13-.88.3-1.33.48a9.52,9.52,0,0,1-1.45.49.53.53,0,0,1-.72-.22.54.54,0,0,1,.23-.72A.58.58,0,0,1,34,23.9h.08a8.68,8.68,0,0,0,1.33-.26c.47-.12,1-.23,1.45-.31a5.53,5.53,0,0,1,1.52,0,4.33,4.33,0,0,1,1.44.46.2.2,0,0,1,.07.26.18.18,0,0,1-.26.07A0,0,0,0,0,39.63,24.09Z" fill="#333"/>
              <path d="M29.83,31.66c1,0,1,.51,2,.51s1-.51,2-.51" fill="none" stroke="#d8b5af" stroke-linecap="round" stroke-miterlimit="10" stroke-width="0.5"/>
              <line x1="31.83" y1="32.01" x2="31.83" y2="32.76" fill="none" stroke="#d8b5af" stroke-linecap="round" stroke-miterlimit="10" stroke-width="0.5"/>
              <line x1="28.88" y1="34.11" x2="28.38" y2="35.11" fill="none" stroke="#d8b5af" stroke-linecap="round" stroke-miterlimit="10" stroke-width="0.5"/>
              <line x1="34.88" y1="34.11" x2="35.38" y2="35.11" fill="none" stroke="#d8b5af" stroke-linecap="round" stroke-miterlimit="10" stroke-width="0.5"/>
              <path d="M29.88,31.17c1,0,1,.5,2,.5s1-.5,2-.5" fill="none" stroke="#ba8d86" stroke-linecap="round" stroke-miterlimit="10" stroke-width="0.75"/>
              <path d="M42.26,21.79v-2c0-5.41-2.46-10-10.5-10s-10.5,4.59-10.5,10v2c-1.73,0-2.28,1.71-2,4,.24,1.95,1,4,3,4,0,3,1.74,6.37,5.18,8.76,2.18,1.51,3.11,1.74,4.32,1.74s2.26-.07,4.32-1.74c3-2.39,5.18-5.76,5.18-8.76,2,0,2.76-2.05,3-4C44.54,23.5,44,21.79,42.26,21.79Z" fill="none" stroke="#343433" stroke-linecap="round" stroke-linejoin="round" stroke-width="1.5"/>
              <path d="M32.66,33.4a1.65,1.65,0,0,1-.78.2c-.2,0-.22,0-.68-.2-.8-.32-.85.66-2.33,1.2l.92.94a2.11,2.11,0,0,0,1.55.56h1A2.5,2.5,0,0,0,34,35.5l.86-.9C33.46,34.09,33.46,33.09,32.66,33.4Z" fill="#a56659"/>
              <path d="M34.87,34.6c-1,0-1.49-.49-3,0h0c-1.48-.5-2,0-3,0" fill="none" stroke="#743f40" stroke-linecap="round" stroke-miterlimit="10" stroke-width="0.5"/>
              <path d="M45.73,19.19a14,14,0,0,0-27.93-.06,7.18,7.18,0,0,0,.9,1.57c1.49,2,3.56,2.94,3.56,5.59v-5.5a10.4,10.4,0,0,1,3-7c3,7.3,15.5,6.28,15.5,11.5v1.5C41.31,23.24,44.08,21.79,45.73,19.19Z" fill="#c1ad8b"/>
              <path d="M45.73,19.19A14,14,0,0,0,39.39,8.07,14,14,0,0,0,19.87,20.24V22c1.22,1.24,2.39,2.27,2.39,4.26v-5.5a10.4,10.4,0,0,1,3-7c3,7.3,15.5,6.28,15.5,11.5v1.5C41.31,23.24,44.08,21.79,45.73,19.19Z" fill="#ad9a76"/>
              <path d="M25.79,14.32a9.7,9.7,0,0,0-1.9,2.47,9.35,9.35,0,0,0-.93,3,55.56,55.56,0,0,0-.3,6.57h0a.38.38,0,0,1-.4.38h0a.38.38,0,0,1-.38-.35A9.64,9.64,0,0,0,21.55,25,7.86,7.86,0,0,0,21,23.6a5.7,5.7,0,0,0-2-2.11h0a.22.22,0,0,1-.08-.31h0v0a.25.25,0,0,1,.32-.08,6.32,6.32,0,0,1,2.22,2.2,9.2,9.2,0,0,1,.69,1.41,8.3,8.3,0,0,1,.43,1.53l-.79.05a57.94,57.94,0,0,1,0-6.72,10.6,10.6,0,0,1,.88-3.4,11.17,11.17,0,0,1,2-2.91.75.75,0,1,1,1.26.82h0a.73.73,0,0,1-.17.18A.11.11,0,0,1,25.79,14.32Z" fill="#937e60"/>
              <path d="M27,10.57a13.51,13.51,0,0,0,3.13,3,18.27,18.27,0,0,0,3.88,2,29.67,29.67,0,0,1,4.13,2,9.83,9.83,0,0,1,3.38,3.22.34.34,0,0,1-.12.47h0a.34.34,0,0,1-.44-.07,10,10,0,0,0-3.42-2.58c-1.3-.63-2.73-1.06-4.13-1.68a17.41,17.41,0,0,1-4-2.38,12.42,12.42,0,0,1-3-3.61.33.33,0,0,1,.12-.45h0a.36.36,0,0,1,.45.1Z" fill="#937e60"/>
              <circle cx="21.55" cy="30.33" r="0.75" fill="#dee6ea"/>
              <circle cx="21.32" cy="30.11" r="0.27" fill="#ecf3f4"/>
              <circle cx="42.18" cy="30.33" r="0.75" fill="#dee6ea"/>
              <circle cx="42.02" cy="30.11" r="0.27" fill="#ecf3f4"/>
              <path d="M24.76,12.19A7.76,7.76,0,0,0,26,15.36l1.45-1.57-1.36-2.1Z" fill="#ad9a76"/>
              <path d="M25,11.64a8.14,8.14,0,0,0,2.7,4.77,16,16,0,0,0,5,2.58,29,29,0,0,1,5.59,2.3,6.93,6.93,0,0,1,2.3,2.33,6,6,0,0,1,.73,3.17l-.59-.59-.58.5a8,8,0,0,1,1.4-3.22A19,19,0,0,1,43.85,21a.36.36,0,0,1,.49,0,.34.34,0,0,1,0,.46,25.9,25.9,0,0,0-2,2.56,6.85,6.85,0,0,0-1,2.86.59.59,0,0,1-1.17-.05h0a4.85,4.85,0,0,0-.71-2.48,5.69,5.69,0,0,0-1.91-1.74,44.87,44.87,0,0,0-5.3-2.26A15.7,15.7,0,0,1,27,17.26a8.21,8.21,0,0,1-1.82-2.54,10,10,0,0,1-.8-3,.35.35,0,0,1,.3-.38h0a.34.34,0,0,1,.36.27Z" fill="#937e60"/>
              <path d="M32.82,25.15a11.2,11.2,0,0,0,1.06,3.19,10,10,0,0,0,5.85-.55,16.39,16.39,0,0,0,.52-3.27A15.37,15.37,0,0,0,32.82,25.15Z" fill="#f2dbd7"/>
              <path d="M34.8,28.5c-.46-1.12-1-2.45-1.07-2.81a20.2,20.2,0,0,1,6.44-.38,2.87,2.87,0,0,1,.07-.77,15.36,15.36,0,0,0-7.43.61,11.2,11.2,0,0,0,1.06,3.19A5.83,5.83,0,0,0,34.8,28.5Z" fill="#edccc3"/>
              <path d="M30.7,25.15a11.2,11.2,0,0,1-1.06,3.19,10,10,0,0,1-5.85-.55,15.7,15.7,0,0,1-.52-3.27A15.37,15.37,0,0,1,30.7,25.15Z" fill="#f2dbd7"/>
              <path d="M23.27,24.54a16.19,16.19,0,0,0,.52,3.25,5.18,5.18,0,0,0,.93.34,25.4,25.4,0,0,1-.55-2.89,14.87,14.87,0,0,1,6.18.62l.19.05a4,4,0,0,0,.16-.78A15.36,15.36,0,0,0,23.27,24.54Z" fill="#edccc3"/>
              <path d="M30.61,25.49a2,2,0,0,1,2.4,0" fill="none" stroke="#333" stroke-miterlimit="10" stroke-width="1.06"/>
              <path d="M23.25,24.62a14.69,14.69,0,0,0,.53,3.17,10,10,0,0,0,5.85.53,10.8,10.8,0,0,0,1.06-3.19,15.42,15.42,0,0,0-8-.53v.53l.53.53" fill="none" stroke="#333" stroke-linejoin="round" stroke-width="1.06"/>
              <path d="M40.27,24.62a14.69,14.69,0,0,1-.53,3.17,10,10,0,0,1-5.85.53,10.52,10.52,0,0,1-1.06-3.19,15.42,15.42,0,0,1,8-.53v.53l-.53.53" fill="none" stroke="#333" stroke-linejoin="round" stroke-width="1.06"/>
              <path d="M34.49,26.79c.58-.33,2.07-2.25,4-.33a2.35,2.35,0,0,0,.67-.46,4.11,4.11,0,0,0-3-.28" fill="#7f7f7f" stroke="#7f7f7f" stroke-linecap="round" stroke-miterlimit="10" stroke-width="0.54"/>
              <circle cx="36.23" cy="26.41" r="0.75" fill="#7f7f7f"/>
              <circle cx="27.22" cy="26.41" r="0.75" fill="#7f7f7f"/>
              <path d="M29,26.79c-.58-.33-2.07-2.25-4-.33a2.35,2.35,0,0,1-.67-.46,4.11,4.11,0,0,1,3-.28" fill="#7f7f7f" stroke="#7f7f7f" stroke-linecap="round" stroke-miterlimit="10" stroke-width="0.54"/>
              <path d="M25,38.54H23.76a6,6,0,0,1-6-6V19.79a14,14,0,1,1,28,0V32.54a6,6,0,0,1-6,6H39" fill="none" stroke="#333" stroke-linejoin="round" stroke-width="1.5"/>
            </g>
          </g>
        </g>
      </g>
      <g id="b48a406b-b7ac-4072-bf64-2fb0294f5ac1">
        <path d="M37.26,29.71a5.21,5.21,0,0,1,2.23,7,5.33,5.33,0,0,1-.66,1c-.82,1-6.44,9.3-14.3,0a5.21,5.21,0,0,1,.62-7.34,5,5,0,0,1,1-.65l4.32-2.24a2.69,2.69,0,0,1,2.5,0Z" fill="#fff"/>
        <path d="M24.1,31.59a21.83,21.83,0,0,1-3.58-8.9" fill="#fff" stroke="#333" stroke-linecap="round" stroke-linejoin="round" stroke-width="1.5"/>
        <path d="M39.52,31.59a21.83,21.83,0,0,0,3.58-8.9" fill="#fff" stroke="#333" stroke-linecap="round" stroke-linejoin="round" stroke-width="1.5"/>
        <line x1="23.3" y1="34.23" x2="21.73" y2="33.36" fill="none" stroke="#333" stroke-linecap="round" stroke-linejoin="round" stroke-width="1.5"/>
        <line x1="40.32" y1="34.23" x2="41.89" y2="33.36" fill="none" stroke="#333" stroke-linecap="round" stroke-linejoin="round" stroke-width="1.5"/>
        <path d="M37.26,29.71,33,27.48a2.69,2.69,0,0,0-2.5,0l-4.33,2.24a5.22,5.22,0,0,0-2.66,3.37,5.23,5.23,0,0,0,1.07,2.08c7.86,9.32,13.48,1,14.3,0a5.18,5.18,0,0,0,1.09-2.09A5.18,5.18,0,0,0,37.26,29.71Z" fill="#fff"/>
        <path d="M37.26,29.71,33,27.48a2.63,2.63,0,0,0-1.13-.29h0v7.63c0,2,2.1,1.54.83,3.93-2,3.68-6.77-2.76-6.77.39,0,.12,2.82,2,2.81,2.11,5.65,2.94,9.5-2.74,10.16-3.51a5.23,5.23,0,0,0-1.57-8Z" fill="#eee"/>
        <path d="M23.49,33a18.1,18.1,0,0,0,8.33,2.18A16.46,16.46,0,0,0,39.89,33" fill="none" stroke="#ddd" stroke-miterlimit="10" stroke-width="0.96"/>
        <path d="M23.49,35.12a18.09,18.09,0,0,0,8.33,2.17,16.45,16.45,0,0,0,8.07-2.17" fill="none" stroke="#ddd" stroke-miterlimit="10" stroke-width="0.96"/>
        <path d="M37.26,29.71a5.21,5.21,0,0,1,2.23,7,5.33,5.33,0,0,1-.66,1c-.82,1-6.44,9.3-14.3,0a5.21,5.21,0,0,1,.62-7.34,5,5,0,0,1,1-.65l4.32-2.24a2.69,2.69,0,0,1,2.5,0Z" fill="none" stroke="#333" stroke-linejoin="round" stroke-width="1.5"/>
      </g>
    </g>
  </g>
</svg>
