<svg xmlns="http://www.w3.org/2000/svg" viewBox="0 0 64 64">
  <g id="firefighter-asian-female-coronavirus">
    <g id="fff717d3-85f3-4270-9c6d-6945ac754d95">
      <g id="b6948e3b-a548-421b-a223-9aee7f439103">
        <g id="e02f2705-5cbf-49c2-979e-01f64c3c7ff2">
          <g id="a1a79fd7-6569-47fc-ab5c-3dd1522bf66d">
            <path d="M55,55.22A5.47,5.47,0,0,0,50.81,51L37.43,48.06V44.6H25.1v3.48L11.77,51a5.44,5.44,0,0,0-4.22,4.22L7,57.32c.29.23,10.17,5.27,24.24,5.27s24-5,24.24-5.27Z" fill="#ddad8a"/>
            <path d="M25,48.27C25,48.27,16.39,50,11.78,51a5.44,5.44,0,0,0-4.22,4.22L7,57.32c.29.23,10.17,5.27,24.24,5.27s24-5,24.24-5.27L55,55.21A5.47,5.47,0,0,0,50.81,51C41,48.85,37.64,48.26,37.64,48.26" fill="none" stroke="#333" stroke-linejoin="round" stroke-width="1.5"/>
            <polyline points="25.1 50.19 25.1 44.63 37.44 44.63 37.44 50.19" fill="none" stroke="#333" stroke-linejoin="round" stroke-width="1.5"/>
            <path d="M38.57,48.74a17.32,17.32,0,0,1-7.07,1.32,16.33,16.33,0,0,1-7.59-1.59l7.33,8.7Z" fill="#333" stroke="#333" stroke-linejoin="round" stroke-width="1.5"/>
            <path d="M55.43,57.28,55,55.1a6,6,0,0,0-4.58-4.36l-8.44-2v-3c0,2.17-4.08,3.49-7,4.25a6,6,0,0,0-4.41,6.06v0h0c-.06-2.88-1.29-5.34-4.08-6.06s-6-2.08-6-4.25v3l-8.44,2A6,6,0,0,0,7.47,55.1L7,57.28a61,61,0,0,0,23.54,5.11h.65A61,61,0,0,0,55.43,57.28Z" fill="#d1c5a7"/>
            <path d="M31.23,62.39A61.71,61.71,0,0,0,54.94,57.5a6,6,0,0,0-4.53-4.15C47,52.55,44.1,51.68,42,51V45.67c0,4.8-11.24,1.73-11.4,10.31-.06-2.88-1.29-5.34-4.08-6.06s-6-2.08-6-4.25V51.2c-2.21.6-5.12,1.36-8.44,2.15A6,6,0,0,0,7.52,57.5a62,62,0,0,0,23,4.88h.71Z" fill="#c6bc9e"/>
            <path d="M22.08,48.34s-2.62.65-10,2.4A6,6,0,0,0,7.47,55.1L7,57.28a61.09,61.09,0,0,0,24.2,5.12,61.09,61.09,0,0,0,24.2-5.12L55,55.1a6,6,0,0,0-4.58-4.36c-7.4-1.74-10-2.4-10-2.4" fill="none" stroke="#333" stroke-linejoin="round" stroke-width="1.31"/>
            <path d="M22.84,42.8c-1.46.79-2.35,1.79-2.35,2.87,0,1.51,1.5,2.61,3.39,3.39V43.93C23.48,43.53,23.14,43.16,22.84,42.8Z" fill="#333" stroke="#333" stroke-linejoin="round" stroke-width="1.5"/>
            <path d="M39.63,42.8c-.29.36-.64.73-1,1.14v5.13c1.89-.78,3.39-1.88,3.39-3.39C42,44.58,41.09,43.59,39.63,42.8Z" fill="#333" stroke="#333" stroke-linejoin="round" stroke-width="1.5"/>
            <path d="M17.79,61.05V48.63L11,50.33v8.75A58.74,58.74,0,0,0,17.79,61.05Z" fill="#333" stroke="#333" stroke-linejoin="round" stroke-width="1.5"/>
            <path d="M51.39,59.1V50.32l-6.72-1.7V61.06A58.05,58.05,0,0,0,51.39,59.1Z" fill="#333" stroke="#333" stroke-linejoin="round" stroke-width="1.5"/>
            <path d="M30.58,56c-.06-2.88-1.29-5.34-4.08-6.06s-6-2.08-6-4.25v5.65" fill="#c6bc9e" stroke="#333" stroke-linejoin="round" stroke-width="1.5"/>
            <path d="M42,51.32V45.67c0,2.17-4.08,3.49-7,4.25A6,6,0,0,0,30.62,56v6.41" fill="#c6bc9e" stroke="#333" stroke-linejoin="round" stroke-width="1.5"/>
            <path d="M41,37.16l-.58,3.12A6.8,6.8,0,0,1,38,44.36l-2.66,2.09a6.73,6.73,0,0,1-8.32,0l-2.66-2.09a6.77,6.77,0,0,1-2.47-4.08l-.58-3.11C19.43,37.09,18.47,35,18.22,33c-.29-2.38.79-4.16,2.59-4.16V26.78c0-5.62,2-10.91,10.39-10.91S41.59,21.16,41.59,26.8v2.08c1.8,0,2.9,1.77,2.6,4.16C44,35,43,37,41.08,37.18Z" fill="#efc8a5"/>
            <path d="M41.59,28.86V26.78c0-5.62-2-10.91-10.39-10.91S20.82,21.16,20.82,26.8v2.08c-1.8,0-2.88,1.77-2.59,4.16a7.38,7.38,0,0,0,.52,2h24.9a7.07,7.07,0,0,0,.54-2C44.49,30.63,43.39,28.86,41.59,28.86Z" fill="#e6b790"/>
            <path d="M41.59,28.86V26.78c0-5.62-2-10.91-10.39-10.91a15.42,15.42,0,0,0-2.88.25V26.89a4.07,4.07,0,0,1-1.32,3,.47.47,0,0,0,0,.66.43.43,0,0,0,.23.14,2.68,2.68,0,0,1,1.95,1.95.5.5,0,0,0,.58.4h0a.55.55,0,0,0,.22-.1,1.58,1.58,0,0,1,.61-.33.51.51,0,0,1,.62.36h0a.68.68,0,0,1,0,.14v2.15a1.13,1.13,0,0,0,.65,1c.6.33.17,1.46-.65,1.46h0a1.68,1.68,0,0,1-.93-.24c-.77-.38-1.48.4-1.32.7s.35,0,1.12.36a2.71,2.71,0,0,0,1.15.28v3.82a.41.41,0,0,0,.32.39c1.37.32,2.09,2.59-.32,3.08h0a1.29,1.29,0,0,0-1.07,1.25v.44a6.83,6.83,0,0,0,5.24-1.35L38,44.36a6.77,6.77,0,0,0,2.47-4.08l.58-3.12h0C43,37,44,35,44.2,33,44.49,30.63,43.39,28.86,41.59,28.86Z" fill="#e6b790"/>
            <path d="M31.21,15.87h-.08a16.37,16.37,0,0,0-2.8.24V26.88a4.07,4.07,0,0,1-1.32,3,.47.47,0,0,0,0,.66.43.43,0,0,0,.23.14,2.68,2.68,0,0,1,1.95,2,.5.5,0,0,0,.58.4h0a.55.55,0,0,0,.22-.1,1.58,1.58,0,0,1,.61-.33.51.51,0,0,1,.62.36h0a.68.68,0,0,1,0,.14V35H43.65a6.71,6.71,0,0,0,.52-3.59,2.7,2.7,0,0,0-2.58-2.57V26.79C41.6,21.16,39.56,15.87,31.21,15.87Z" fill="#ddad8a"/>
            <path d="M41,37.16l-.58,3.12A6.8,6.8,0,0,1,38,44.36l-2.66,2.09a6.73,6.73,0,0,1-8.32,0l-2.66-2.09a6.77,6.77,0,0,1-2.47-4.08l-.58-3.11C19.43,37.09,18.47,35,18.22,33c-.29-2.38.79-4.16,2.59-4.16V26.78c0-5.62,2-10.91,10.39-10.91S41.59,21.16,41.59,26.8v2.08c1.8,0,2.9,1.77,2.6,4.16C44,35,43,37,41.08,37.18Z" fill="none" stroke="#333" stroke-linejoin="round" stroke-width="1.5"/>
            <path d="M23.53,30.8a3.52,3.52,0,0,1,1.36-.55,4,4,0,0,1,1.46,0,10.66,10.66,0,0,1,1.38.33,9,9,0,0,0,1.27.3h0a.48.48,0,0,1,.39.58.51.51,0,0,1-.5.41h-.06c-.47-.15-.92-.32-1.37-.51a10,10,0,0,0-1.25-.48,3.67,3.67,0,0,0-1.27-.2,1.87,1.87,0,0,0-1.2.4.2.2,0,0,1-.25-.07.17.17,0,0,1,0-.21Z" fill="#333"/>
            <path d="M38.68,31.08a1.94,1.94,0,0,0-1.2-.39,3.93,3.93,0,0,0-1.27.21c-.43.14-.84.3-1.25.48a7.59,7.59,0,0,1-1.38.5.51.51,0,0,1-.22-1h.08a7.66,7.66,0,0,0,1.26-.28c.45-.12.9-.25,1.38-.33a4.47,4.47,0,0,1,1.46,0,3.37,3.37,0,0,1,1.36.55.19.19,0,0,1,.05.25.19.19,0,0,1-.25.05Z" fill="#333"/>
            <line x1="30.58" y1="43.7" x2="31.93" y2="43.7" fill="none" stroke="#ddad8a" stroke-linecap="round" stroke-miterlimit="10" stroke-width="0.75"/>
            <path d="M32.25,12.8a10.37,10.37,0,0,0-8.36,3.66c-4.18.87-4.7,4.36-4.7,6.79,0,4.68,2.09,4.7,2.09,8.88,0-2.32-.4-6.12,3.14-9.65,3.14,8.6,16.2,5.47,16.2,9.65,0-4.18,2.61-4.18,2.61-8.88C43.23,18.32,40,12.8,32.25,12.8Z" fill="#333" stroke="#333" stroke-linecap="round" stroke-linejoin="round"/>
            <path d="M46.31,23.36a15.16,15.16,0,0,0-30.32,0h0v6H46.32v-6Z" fill="#333"/>
            <path d="M28.75,5.69,22.5,10.8a1.12,1.12,0,0,0-.41,1L24,28.35a1.13,1.13,0,0,0,1.12,1H37.43a1.13,1.13,0,0,0,1.12-1l1.9-16.55a1.13,1.13,0,0,0-.42-1L33.79,5.69A4,4,0,0,0,28.75,5.69Z" fill="#444" stroke="#333" stroke-linecap="round" stroke-linejoin="round" stroke-width="1.5"/>
            <path d="M38.5,24.56H23.78a1.12,1.12,0,0,1-1.12-1.12h0V17a1.11,1.11,0,0,1,1.07-1.16H38.5a1.11,1.11,0,0,1,1.12,1.11h0V23.4a1.12,1.12,0,0,1-1.08,1.15Z" fill="#555" stroke="#333" stroke-linecap="round" stroke-linejoin="round" stroke-width="1.5"/>
            <path d="M19.67,24.56V15.85H18a15.07,15.07,0,0,0-2,7.51v1.2Z" fill="#e3ff92"/>
            <path d="M42.62,24.56h3.69v-1.2a15.07,15.07,0,0,0-2-7.51H42.62Z" fill="#e3ff92"/>
            <path d="M46.31,23.36a15.16,15.16,0,0,0-30.32,0h0v6H46.32v-6Z" fill="none" stroke="#333" stroke-linecap="round" stroke-linejoin="round" stroke-width="1.5"/>
            <path d="M28.79,20.46H27.61V22H29l-.13,1H26.51V17.28h2.34v1H27.61V19.5h1.18Z" fill="#fff"/>
            <path d="M29.82,19v-.25c0-.67.23-1.36,1.31-1.36a1.17,1.17,0,0,1,1.3,1,1.61,1.61,0,0,1,0,.31v.21c0,.64-.25.94-.57,1.07h0a1,1,0,0,1,.68,1.11v.44c0,.94-.36,1.53-1.42,1.53a1.21,1.21,0,0,1-1.36-1,1,1,0,0,1,0-.34v-.21h1v.24c0,.27.07.5.35.5s.34-.25.34-.53v-.58c0-.45-.13-.62-.56-.62h-.3v-.89h.32c.35,0,.48-.13.48-.55V18.7c0-.27,0-.48-.29-.48s-.3.2-.3.45V19h-1Z" fill="#fff"/>
            <path d="M34.94,23V21.7H33.41v-.84l1-3.43h1.53V20.8h.37l-.07.88H36V23H35Zm0-2.8c0-.61,0-1.32.05-1.81h0c-.17.74-.38,1.69-.57,2.44H35Z" fill="#fff"/>
            <path d="M31.28,8.24a20.31,20.31,0,0,0-8.8,2l2,4.33H38l2-4.36A20.38,20.38,0,0,0,31.28,8.24Z" fill="#ccc" stroke="#333" stroke-linecap="round" stroke-linejoin="round" stroke-width="1.5"/>
            <path d="M51.43,27.8h0a33.26,33.26,0,0,1-10,1.56H21.09a33.26,33.26,0,0,1-10-1.56h0" fill="none" stroke="#333" stroke-linecap="round" stroke-linejoin="round" stroke-width="3"/>
            <path d="M25.31,10.66l2.26-.49.11.53-1.6.34.13.63,1.49-.32.12.54-1.49.32.23,1.06-.67.14Z" fill="#333"/>
            <path d="M29.46,10l.26,2.82-.68.06-.26-2.8Z" fill="#333"/>
            <path d="M31.6,11.65v1.08h-.68L31,9.88l1.53.06c.65,0,1,.36,1,.84a.67.67,0,0,1-.52.65.62.62,0,0,1,.39.68v.14a2.44,2.44,0,0,0,0,.54h-.7a1.94,1.94,0,0,1,0-.59v-.09c0-.28-.09-.41-.5-.42Zm0-.51h.7c.33,0,.48-.1.49-.34s-.13-.35-.46-.37h-.71Z" fill="#333"/>
            <path d="M36.83,12.23l-1.54-.32-.13.63,1.71.35-.19.52-2.31-.48.57-2.76,2.29.47-.11.54-1.62-.33-.11.52,1.54.32Z" fill="#333"/>
            <line x1="31.24" y1="39.06" x2="31.24" y2="39.8" fill="none" stroke="#ddad8a" stroke-linecap="round" stroke-miterlimit="10" stroke-width="0.65"/>
            <line x1="28.29" y1="41.15" x2="27.79" y2="42.15" fill="none" stroke="#ddad8a" stroke-linecap="round" stroke-miterlimit="10" stroke-width="0.65"/>
            <line x1="34.33" y1="40.43" x2="34.83" y2="41.43" fill="none" stroke="#ddad8a" stroke-linecap="round" stroke-miterlimit="10" stroke-width="0.65"/>
            <path d="M32.1,40.43c-.46.16-.61.29-.81.29s-.22,0-.68-.18c-.8-.28-.85.58-2.33,1l.92.83a2.34,2.34,0,0,0,1.55.49h1a2.4,2.4,0,0,0,1.58-.66l1.07-1.29C33.38,40.8,32.9,40.16,32.1,40.43Z" fill="#ddab85"/>
            <path d="M34.49,40.91c-.56.65-1.77,0-3.21.74h0c-1.48-.5-2,0-3,0" fill="none" stroke="#c6916d" stroke-linecap="round" stroke-miterlimit="10" stroke-width="0.65"/>
            <path d="M29.29,38.21c1,0,1,.5,2,.5s1-.5,2-.5" fill="none" stroke="#c6916d" stroke-linecap="round" stroke-miterlimit="10" stroke-width="0.65"/>
            <path d="M28.51,33.73c-.58-.33-1.93-1.92-3.86-.33a4,4,0,0,1-.76-.25,4.9,4.9,0,0,1,3.31-.26" fill="#333" stroke="#333" stroke-linecap="round" stroke-miterlimit="10" stroke-width="0.5"/>
            <ellipse cx="26.58" cy="33.44" rx="0.81" ry="0.47" fill="#333"/>
            <path d="M34,33.73c.6-.33,2-1.93,3.88-.33a4.22,4.22,0,0,0,.76-.25,4.9,4.9,0,0,0-3.31-.26" fill="#333" stroke="#333" stroke-linecap="round" stroke-miterlimit="10" stroke-width="0.5"/>
            <ellipse cx="35.97" cy="33.44" rx="0.81" ry="0.47" fill="#333"/>
          </g>
        </g>
      </g>
      <path d="M36.71,36.75a5.21,5.21,0,0,1,2.23,7,5.33,5.33,0,0,1-.66,1c-.82.95-6.44,9.3-14.3,0a5.2,5.2,0,0,1,.61-7.34,4.88,4.88,0,0,1,1-.66l4.33-2.24a2.75,2.75,0,0,1,2.5,0Z" fill="#fff"/>
      <path d="M23.55,38.63A21.85,21.85,0,0,1,20,29.74" fill="#fff" stroke="#333" stroke-linecap="round" stroke-linejoin="round" stroke-width="1.5"/>
      <path d="M39,38.63a21.85,21.85,0,0,0,3.58-8.89" fill="#fff" stroke="#333" stroke-linecap="round" stroke-linejoin="round" stroke-width="1.5"/>
      <line x1="22.75" y1="41.27" x2="21.18" y2="40.41" fill="none" stroke="#333" stroke-linecap="round" stroke-linejoin="round" stroke-width="1.5"/>
      <line x1="39.77" y1="41.27" x2="41.34" y2="40.41" fill="none" stroke="#333" stroke-linecap="round" stroke-linejoin="round" stroke-width="1.5"/>
      <path d="M36.71,36.75,32.4,34.52a2.69,2.69,0,0,0-2.5,0l-4.33,2.24a5.15,5.15,0,0,0-2.65,3.37A5.23,5.23,0,0,0,24,42.21c7.86,9.32,13.48,1,14.3,0a5.22,5.22,0,0,0,1.08-2.09A5.15,5.15,0,0,0,36.71,36.75Z" fill="#fff"/>
      <path d="M36.71,36.75,32.4,34.52a2.63,2.63,0,0,0-1.13-.29h0v7.63c0,2,2.1,1.54.83,3.93-2,3.68-6.77-2.76-6.77.4,0,.11,2.82,2,2.81,2.1,5.65,2.94,9.5-2.73,10.16-3.51a5.23,5.23,0,0,0-1.57-8Z" fill="#eee"/>
      <path d="M22.94,40a18.1,18.1,0,0,0,8.33,2.18A16.46,16.46,0,0,0,39.34,40" fill="none" stroke="#ddd" stroke-miterlimit="10" stroke-width="0.96"/>
      <path d="M22.94,42.16a18.23,18.23,0,0,0,8.33,2.18,16.46,16.46,0,0,0,8.07-2.18" fill="none" stroke="#ddd" stroke-miterlimit="10" stroke-width="0.96"/>
      <path d="M36.71,36.75a5.21,5.21,0,0,1,2.23,7,5.33,5.33,0,0,1-.66,1c-.82.95-6.44,9.3-14.3,0a5.2,5.2,0,0,1,.61-7.34,4.88,4.88,0,0,1,1-.66l4.33-2.24a2.75,2.75,0,0,1,2.5,0Z" fill="none" stroke="#333" stroke-linejoin="round" stroke-width="1.5"/>
    </g>
  </g>
</svg>
