<svg xmlns="http://www.w3.org/2000/svg" viewBox="0 0 64 64">
  <g id="pharmacist-asian-male-coronavirus">
    <g>
      <g id="ac68a5df-1e31-45fd-886a-d0f6b456fa8c">
        <g id="bee9808c-67cd-4087-9dd8-ebf0025aa8f8">
          <g id="a515a986-fbbc-4186-9126-41878d742b42">
            <g id="b1e071cf-82e0-4553-83cc-a0c13502cba9">
              <path d="M11.3,38.94h0a2.12,2.12,0,0,1-2.08-2.08V32.62a2.12,2.12,0,0,1,2.08-2.08h0a2.12,2.12,0,0,1,2.08,2.08v4.24A2.12,2.12,0,0,1,11.3,38.94Z" fill="#c66161"/>
              <path d="M11.3,30.54a2.12,2.12,0,0,0-2.08,2.08v2.12h4.16V32.62A2.12,2.12,0,0,0,11.3,30.54Z" fill="#4ba6dd"/>
              <path d="M10.84,33.35v4.24a2,2,0,0,0,.52,1.34,2.14,2.14,0,0,0,2-2.07V32.62a2,2,0,0,0-.52-1.34A2.1,2.1,0,0,0,10.84,33.35Z" fill="#b74242"/>
              <path d="M10.84,33.35v1.39h2.54V32.62a2,2,0,0,0-.52-1.34A2.1,2.1,0,0,0,10.84,33.35Z" fill="#2f8dd3"/>
              <path d="M11.3,38.94h0a2.12,2.12,0,0,1-2.08-2.08V32.62a2.12,2.12,0,0,1,2.08-2.08h0a2.12,2.12,0,0,1,2.08,2.08v4.24A2.12,2.12,0,0,1,11.3,38.94Z" fill="none" stroke="#333" stroke-linejoin="round"/>
              <circle cx="53.52" cy="34.7" r="3.04" fill="#ddd"/>
              <line x1="55.67" y1="32.55" x2="51.37" y2="36.85" fill="none" stroke="#aaa" stroke-linejoin="round"/>
              <line x1="56.16" y1="32.82" x2="51.86" y2="37.12" fill="none" stroke="#eee" stroke-linejoin="round" stroke-width="0.5"/>
              <circle cx="53.52" cy="34.7" r="3.04" fill="none" stroke="#333" stroke-linejoin="round"/>
              <path d="M58.59,49.49a5.64,5.64,0,0,0-4.5-4.5c-1.33-.33-4.71-1.16-8.5-2-1.84-.41-3.7-.72-5.56-1V38.35H25v3.7a43.08,43.08,0,0,0-5.42,1l-8.52,2a5.63,5.63,0,0,0-4.5,4.5l-.5,2.5a65.46,65.46,0,0,0,26.53,5.5,65.51,65.51,0,0,0,26.47-5.5Z" fill="#e6b790"/>
              <path d="M25,38.35v1.79l6.11,6.31a5,5,0,0,1,1.4,3.47,3.21,3.21,0,0,0,3.21,3.21h.63A3.62,3.62,0,0,0,40,49.56V38.35Z" fill="#d6a787"/>
              <line x1="25.03" y1="38.35" x2="25.03" y2="43.42" fill="none" stroke="#333" stroke-linejoin="round" stroke-width="1.5"/>
              <line x1="40.03" y1="38.35" x2="40.03" y2="43.42" fill="none" stroke="#333" stroke-linejoin="round" stroke-width="1.5"/>
              <path d="M40,42.05S52.53,44.69,54,45a5.37,5.37,0,0,1,4.5,4.5L59,52a66,66,0,0,1-26.5,5.5A66,66,0,0,1,6,52l.5-2.5A5.38,5.38,0,0,1,11,45c1.5-.3,14-3,14-3" fill="none" stroke="#333" stroke-linecap="round" stroke-linejoin="round" stroke-width="1.5"/>
              <path d="M43.51,23.8V21.6c0-6-2.09-12.08-11-12.08s-11,6.13-11,12.08v2.2c-.09,0-3.29,0-2.2,5.49a4.27,4.27,0,0,0,3.29,3.29c0,3.9,1.1,4.39,4.81,8.21,1.43,1.82,3.17,1.67,5.07,1.67s3.65.15,5.07-1.67c3.71-3.82,4.81-4.31,4.81-8.21a4.27,4.27,0,0,0,3.29-3.29C46.8,23.8,43.6,23.77,43.51,23.8Z" fill="#efc8a5"/>
              <path d="M24.16,31.49a3.67,3.67,0,0,1-1.52-3.29V25.51a2.44,2.44,0,0,0-1.46-1.65c-.83.17-2.72,1-1.83,5.45a4.27,4.27,0,0,0,3.29,3.29c0,3.3.8,4.17,3.29,6.68V35.9A5.23,5.23,0,0,0,24.16,31.49Z" fill="#e6b790"/>
              <path d="M45.7,29.29c1.1-5.49-2.11-5.52-2.2-5.49V21.6c0-6-2.09-12.08-11-12.08a15,15,0,0,0-2.92.26v12a3.91,3.91,0,0,1-1.27,2.88.44.44,0,0,0,0,.63.43.43,0,0,0,.23.14c1.5.43,2.3.71,3.23.47.31-.08.86.27.86.59v1.56a1.7,1.7,0,0,0,.64,1.4A1.09,1.09,0,0,1,33.51,31a1.13,1.13,0,0,1-.91.47c-.81,0-1.1-.55-2.2-.55-.65,0-.55.85-.57.82a2.26,2.26,0,0,1,1.1.29,3.38,3.38,0,0,0,1.65.43v3.31a1.92,1.92,0,0,0,1.25,1.76,1.54,1.54,0,0,1,.94,1.63c0,3-5.43-.3-5.43,3h0a10.19,10.19,0,0,0,3.16.29c1.9,0,3.65.15,5.07-1.67,3.71-3.82,4.81-4.31,4.81-8.21A4.3,4.3,0,0,0,45.7,29.29Z" fill="#e6b790"/>
              <path d="M43.54,23.8a2.18,2.18,0,0,0-1.12,1.87V28.2a3.66,3.66,0,0,1-1.52,3.29,5.22,5.22,0,0,0-1.78,4.39v3.38c2.5-2.51,3.29-3.38,3.29-6.68a4.27,4.27,0,0,0,3.29-3.29C46.77,24,43.81,23.78,43.54,23.8Z" fill="#d6a787"/>
              <path d="M43.51,23.8V21.6c0-6-2.09-12.08-11-12.08s-11,6.13-11,12.08v2.2c-.09,0-3.29,0-2.2,5.49a4.27,4.27,0,0,0,3.29,3.29c0,3.9,1.1,4.39,4.81,8.21,1.43,1.82,3.17,1.67,5.07,1.67s3.65.15,5.07-1.67c3.71-3.82,4.81-4.31,4.81-8.21a4.27,4.27,0,0,0,3.29-3.29C46.8,23.8,43.6,23.77,43.51,23.8Z" fill="none" stroke="#333" stroke-linejoin="round" stroke-width="1.5"/>
              <line x1="32.51" y1="32.45" x2="32.51" y2="33.45" fill="none" stroke="#ddad8a" stroke-linecap="round" stroke-miterlimit="10" stroke-width="0.65"/>
              <line x1="31.59" y1="37.27" x2="33.59" y2="37.27" fill="none" stroke="#ddad8a" stroke-linecap="round" stroke-miterlimit="10" stroke-width="0.65"/>
              <line x1="32.38" y1="40.22" x2="32.63" y2="40.22" fill="none" stroke="#ddad8a" stroke-linecap="round" stroke-miterlimit="10" stroke-width="0.65"/>
              <path d="M33.87,34.31a2.78,2.78,0,0,0-1.18.13.61.61,0,0,1-.42,0,2.78,2.78,0,0,0-1.18-.13c-.67.1-.74.52-2.09,1.25l1.19.73a2.29,2.29,0,0,0,1.27.41h2.07a2.31,2.31,0,0,0,1.27-.41l1.23-.7C34.67,34.86,34.54,34.4,33.87,34.31Z" fill="#ddab85"/>
              <path d="M36,35.59c-1,0-1.26-.39-2.24-.39a6.16,6.16,0,0,0-1.29.17,7,7,0,0,0-1.29-.17c-.94,0-1.15.36-2.21.36" fill="none" stroke="#c6916d" stroke-linecap="round" stroke-miterlimit="10" stroke-width="0.75"/>
              <path d="M30,31.58a2.58,2.58,0,0,1,1.25.32h0a2.58,2.58,0,0,0,2.5,0h0A2.58,2.58,0,0,1,35,31.58" fill="none" stroke="#c6916d" stroke-linecap="round" stroke-miterlimit="10" stroke-width="0.75"/>
              <path d="M25,24.57a5.67,5.67,0,0,1,1.48-.52A5.24,5.24,0,0,1,28.09,24a9.4,9.4,0,0,1,2.82,1h0a.23.23,0,0,1,.12.3.26.26,0,0,1-.23.14,14.77,14.77,0,0,1-1.48-.26c-.47-.09-.93-.14-1.37-.21A7.07,7.07,0,0,0,25.2,25h0a.22.22,0,0,1-.28-.14.22.22,0,0,1,.13-.28Z" fill="#333"/>
              <path d="M40,25a7.07,7.07,0,0,0-2.75-.06c-.45.07-.9.12-1.37.21a14.77,14.77,0,0,1-1.48.26.22.22,0,0,1-.24-.2h0v0a.22.22,0,0,1,.14-.23h0a9.4,9.4,0,0,1,2.82-1,5.9,5.9,0,0,1,1.57.09,5,5,0,0,1,1.45.55A.23.23,0,0,1,40,25Z" fill="#333"/>
              <path d="M32.53,9.53c-8.89,0-11,6.13-11,12.08v2.82a12.54,12.54,0,0,1,1.4,4,1.24,1.24,0,0,0,1-1.19V22.91a7.76,7.76,0,0,0-.28-2.3,2.67,2.67,0,0,1,.49-2.45c1.31-1.31,4.45-1.45,6.67.32l.75.61c2.14,1.74,3.82,3.11,6.87,3.11h2.75v5.15a1.31,1.31,0,0,0,.94,1.25,8.92,8.92,0,0,1,1.39-4v-3C43.51,15.66,41.42,9.53,32.53,9.53Z" fill="#e6b790"/>
              <path d="M29.61,9.79h0v8c3.8,1.78,2.73,4.44,11.58,4.44v5.15a1.31,1.31,0,0,0,.94,1.25,8.92,8.92,0,0,1,1.39-4c0-2.32,1.11-12-6.66-14.48A15.88,15.88,0,0,0,29.61,9.79Z" fill="#d6a787"/>
              <path d="M39.68,11.69c.47,0,1.19-.24,1.64-.2C38.42,8.62,27,6.69,23.93,12.94c-7.87,2.7-1,12.5-1,15.5V22.86a7.07,7.07,0,0,0-.24-2,3.63,3.63,0,0,1,.75-3.42c1.77-1.77,5.5-1.75,8,.25s4,3.5,7,3.5h3.75v7.48c0-3.08,1.5-4,3-7.23C47.19,17.1,43.2,13.48,39.68,11.69Z" fill="#333"/>
              <path d="M22.22,13.16A18.9,18.9,0,0,1,26,11.58a17.07,17.07,0,0,1,3.95-.65,17.26,17.26,0,0,1,3.93.27,35.15,35.15,0,0,1,3.77.93,35.15,35.15,0,0,0-3.82-.43A16.36,16.36,0,0,0,26.47,13a16.65,16.65,0,0,0-3.16,1.85h0a1,1,0,0,1-1.16-1.64Z" fill="#444"/>
              <path d="M23.12,12.65a13.22,13.22,0,0,1,5.37-.6,23.09,23.09,0,0,1,5.08.87,21.88,21.88,0,0,0-5.05.13A11.89,11.89,0,0,0,24,14.45,1,1,0,1,1,23,12.74h0A.42.42,0,0,1,23.12,12.65Z" fill="#444"/>
              <path d="M23.93,12.94c-5.19,1.78-4,6.65-2.53,10.62-1.23-6-.37-9.51,7.63-9.51A18.21,18.21,0,0,0,25.91,13c3.88-3.54,10.64-2.44,15.39-1.45C38.42,8.62,27,6.69,23.93,12.94Z" fill="#444"/>
              <path d="M42.68,21.35l-.15,7.32a.36.36,0,0,1-.36.34h0a.34.34,0,0,1-.34-.34h0l-.15-7.32a.5.5,0,0,1,1,0Z" fill="#333"/>
              <path d="M22.68,28.44l-.06-5.59a6.09,6.09,0,0,0-.21-1.59,6.34,6.34,0,0,1-.21-.86,4.71,4.71,0,0,1,0-.92,3.68,3.68,0,0,1,.54-1.8,4,4,0,0,1,1.39-1.28,7,7,0,0,1,7,.4,12,12,0,0,1,1.39,1.07c.43.36.86.72,1.3,1.06a8.77,8.77,0,0,0,2.78,1.6,11.4,11.4,0,0,0,3.24.32l3.38.09a.26.26,0,0,1,.25.26.25.25,0,0,1-.25.25l-3.38.09a11.57,11.57,0,0,1-3.47-.23c-2.37-.64-4-2.5-5.78-3.65a6.34,6.34,0,0,0-6-.47A2.72,2.72,0,0,0,23,19.54a4.35,4.35,0,0,0,.16,1.56,7.47,7.47,0,0,1,.12,1.77l-.05,5.57a.26.26,0,0,1-.26.25.25.25,0,0,1-.3-.19A.13.13,0,0,1,22.68,28.44Z" fill="#333"/>
              <path d="M41.84,28.67a7.09,7.09,0,0,1,.41-2.62,15.48,15.48,0,0,1,1.19-2.33,24.51,24.51,0,0,0,1.16-2.21,5.5,5.5,0,0,0,.57-2.24,6,6,0,0,0-1.86-4.14,14.06,14.06,0,0,0-3.93-2.83.67.67,0,0,1-.3-.89.65.65,0,0,1,.61-.36h0c.22,0,.44-.06.66-.1a3.38,3.38,0,0,1,1-.12L40.81,12a9.79,9.79,0,0,0-4-1.86,17.4,17.4,0,0,0-4.6-.55,12.12,12.12,0,0,0-4.45.84,6.19,6.19,0,0,0-3.21,2.84h0a.69.69,0,0,1-.37.32,4.71,4.71,0,0,0-3,2.34,6.75,6.75,0,0,0-.29,4,26.26,26.26,0,0,0,1.19,4.13l.72,2.1a7.94,7.94,0,0,1,.49,2.27.35.35,0,0,1-.33.35h0a.36.36,0,0,1-.35-.32h0a7.6,7.6,0,0,0-.55-2l-.83-2a27,27,0,0,1-1.37-4.28,7.87,7.87,0,0,1,.23-4.68,4.93,4.93,0,0,1,1.52-2,7.55,7.55,0,0,1,2.12-1.16l-.38.33a7.63,7.63,0,0,1,3.82-3.61,12.61,12.61,0,0,1,5-1,18,18,0,0,1,5,.62,11.11,11.11,0,0,1,4.64,2.38h0a.65.65,0,0,1,0,.93.66.66,0,0,1-.59.22,2.27,2.27,0,0,0-.63.08,4.79,4.79,0,0,1-1,.11L40,11.1a15.15,15.15,0,0,1,4.22,3.2,7,7,0,0,1,2,5,6.44,6.44,0,0,1-.73,2.64,23,23,0,0,1-1.3,2.25A13,13,0,0,0,43,26.32a6.52,6.52,0,0,0-.47,2.35.35.35,0,0,1-.35.34A.38.38,0,0,1,41.84,28.67Z" fill="#333"/>
              <path d="M30.12,14.39A7.55,7.55,0,0,1,35,15.76c.7.47,1.31,1,1.93,1.42s1.28.87,2.07,1.31a5.19,5.19,0,0,1-2.59-.27,10.6,10.6,0,0,1-2.27-1.17c-.66-.45-1.29-.86-2-1.28S30.78,14.88,30.12,14.39Z" fill="#444"/>
              <path d="M58.59,49.49a5.64,5.64,0,0,0-4.5-4.5c-9.5-2.38-12.44-2.82-15.67-3.15a15.26,15.26,0,0,1-4.76,3.21H31.47a15.24,15.24,0,0,1-4.75-3.26c-2.39.24-4.86.47-15.63,3.17a5.63,5.63,0,0,0-4.5,4.5L6.09,52a65.46,65.46,0,0,0,26.53,5.5A65.51,65.51,0,0,0,59.09,52Z" fill="#eee"/>
              <path d="M54.09,48.58c-19.23-4.81-25.16-4.47-43,0a6.67,6.67,0,0,0-4.7,3.55,66.25,66.25,0,0,0,26.23,5.36,66.69,66.69,0,0,0,26.17-5.35A6.59,6.59,0,0,0,54.09,48.58Z" fill="#ddd"/>
              <path d="M38.46,41.81a15,15,0,0,1-4.79,3.24H31.48a15.41,15.41,0,0,1-4.75-3.26c-1.12.1-2.23.21-3.34.36.2,6.71,1.08,11,2.93,15h0c2,.19,4.23.3,6.31.3h0c2,0,4.12-.1,6.24-.3h0c1.84-3.94,2.73-8.28,2.93-15C40.58,42.05,39.46,41.89,38.46,41.81Z" fill="#bcdaf7"/>
              <path d="M32.63,57.49q2.44,0,4.83-.18c-2.85-8.69-2.41-7.36-2.8-8.53l1.57-2.07a1.22,1.22,0,0,0,0-1.43,1.29,1.29,0,0,0-1.07-.53H31.92a1.23,1.23,0,0,0-1.14.78A1.3,1.3,0,0,0,31,46.77l1.5,2-3,8.64C30.52,57.46,31.57,57.49,32.63,57.49Z" fill="#91acc1"/>
              <path d="M38.43,50.86l.64.85a.52.52,0,0,0,.19.14.5.5,0,0,0,.65-.28h0l2.2-8.76Z" fill="#91acc1"/>
              <path id="a2845b87-6776-4437-ae5e-99160ba6a08d" d="M31.47,45.05l-4.53,5.86s.19.32.41.72c.34.63.73.17.74.16.56-.74,4.51-6.31,4.51-6.31Z" fill="#91acc1"/>
              <path id="b253b907-a8b1-4054-bfa3-ace0262f2d29" d="M30.09,46.41l1.82,2.42a.83.83,0,0,0,1.15.17h0a1.21,1.21,0,0,0,.16-.16l1.85-2.42a.83.83,0,0,0-.17-1.16h0a.72.72,0,0,0-.49-.16H30.76a.83.83,0,0,0-.85.81h0A1,1,0,0,0,30.09,46.41Z" fill="#5e748e"/>
              <path d="M30.78,45.05H30.7l1.23,1.63a.84.84,0,0,0,1.15.17h0a1.21,1.21,0,0,0,.16-.16l1.23-1.63Z" fill="#475b77"/>
              <path id="a1d3e58f-5077-4b69-9fb3-545e95af18d5" d="M30.09,46.41l1.82,2.42a.83.83,0,0,0,1.15.17h0a1.21,1.21,0,0,0,.16-.16l1.85-2.42a.83.83,0,0,0-.17-1.16h0a.72.72,0,0,0-.49-.16H30.76a.83.83,0,0,0-.85.81h0A1,1,0,0,0,30.09,46.41Z" fill="none" stroke="#333" stroke-linejoin="round"/>
              <path d="M29,57.39c1.18.06,2.37.1,3.57.1s2.37,0,3.54-.09l-3-8.52H32Z" fill="#5e748e"/>
              <path d="M30.54,57.45h2c1.15,0,2.44,0,3.57-.09l-3-8.52H32l-.33,1h0a.92.92,0,0,1,1,.9h0v0Z" fill="#475b77"/>
              <path d="M29,57.39c1.12.06,2.43.1,3.57.1s2.44,0,3.54-.09l-3-8.52H32Z" fill="none" stroke="#333" stroke-linejoin="round"/>
              <path id="b914e725-7f81-439f-bc82-17a773b83fd3" d="M24.49,38.92,23,42.83l3.79,8.22,4.66-6A15.05,15.05,0,0,1,24.49,38.92Z" fill="#bcdaf7"/>
              <path id="ae34e849-aab4-491b-a680-ca644aeb6413" d="M31.47,45.05a14.83,14.83,0,0,1-7-6.16L23,42.83l3.79,8.22,4.65-6" fill="none" stroke="#333" stroke-linecap="round" stroke-linejoin="round" stroke-width="1.5"/>
              <path id="b2b5b1e3-14d8-43ef-9de6-79d5b4751f48" d="M40.7,38.92l1.42,3.88-3.79,8.25-4.66-6A15.09,15.09,0,0,0,40.7,38.92Z" fill="#bcdaf7"/>
              <path id="b2e9200f-874b-4760-b660-536127d755bb" d="M33.67,45.05a15,15,0,0,0,7-6.15l1.42,3.88-3.76,8.27-4.66-6" fill="none" stroke="#333" stroke-linecap="round" stroke-linejoin="round" stroke-width="1.5"/>
              <path d="M23.34,40.49l-6.68,5.67,3.86,2.72-2.7,3.5,4.57,4.3c1.25.2,2.55.36,3.91.5C24.32,52.91,23.44,48.2,23.34,40.49Z" fill="#ddd" stroke="#333" stroke-linejoin="round" stroke-width="1.53"/>
              <path d="M41.72,40.49l6.68,5.67-3.86,2.72,2.7,3.5-4.57,4.3c-1.25.2-2.55.36-3.91.5C40.74,52.91,41.62,48.2,41.72,40.49Z" fill="#ddd" stroke="#333" stroke-linejoin="round" stroke-width="1.53"/>
              <path d="M20.7,42.73c-3.65.85-8.13,1.88-9.61,2.25a5.64,5.64,0,0,0-4.5,4.5L6.09,52a65.29,65.29,0,0,0,26.53,5.5A65.34,65.34,0,0,0,59.09,52l-.5-2.5a5.64,5.64,0,0,0-4.5-4.5c-1.33-.33-6-1.42-9.75-2.26" fill="none" stroke="#333" stroke-linecap="round" stroke-linejoin="round" stroke-width="1.5"/>
              <path d="M30,31.58a2.58,2.58,0,0,1,1.25.32h0a2.58,2.58,0,0,0,2.5,0h0A2.58,2.58,0,0,1,35,31.58" fill="none" stroke="#c6916d" stroke-linecap="round" stroke-miterlimit="10" stroke-width="0.75"/>
              <path d="M41.88,25.29a22.31,22.31,0,0,0-4.47-.24,14.15,14.15,0,0,0-4.18.71h-.07a2.41,2.41,0,0,0-1,0H32a13.76,13.76,0,0,0-4.17-.7,21,21,0,0,0-4.48.26.51.51,0,0,0-.42.5v.67a.52.52,0,0,0,.22.42l.27.18a9.25,9.25,0,0,0,.36,2.08.61.61,0,0,0,.23.3,9.32,9.32,0,0,0,3.07.78,10.71,10.71,0,0,0,1.39.12A8.93,8.93,0,0,0,30.8,30a.49.49,0,0,0,.31-.27s.24-.5.57-1.4c.27-.72.43-1.22.54-1.54a1.4,1.4,0,0,1,.81,0c.1.32.27.83.54,1.56.33.89.56,1.37.57,1.39a.55.55,0,0,0,.31.27,8.59,8.59,0,0,0,2.31.32,10.39,10.39,0,0,0,1.36-.11,9.44,9.44,0,0,0,3.09-.78.52.52,0,0,0,.23-.3,9.69,9.69,0,0,0,.36-2.13l.28-.19a.52.52,0,0,0,.22-.42v-.67A.48.48,0,0,0,41.88,25.29Z" fill="#d6a787"/>
              <path d="M41.1,25.33a19.19,19.19,0,0,0-7.87.51,30.34,30.34,0,0,0,1.21,3.3,10.81,10.81,0,0,0,6.36-.52A8.72,8.72,0,0,0,41.1,25.33Z" fill="#f4d3b8"/>
              <path d="M34.44,29.13a7.65,7.65,0,0,0,1.08.22,21.71,21.71,0,0,1-1.2-2.91,23.55,23.55,0,0,1,6.81-.12v-1a19.19,19.19,0,0,0-7.87.51A30.16,30.16,0,0,0,34.44,29.13Z" fill="#efc8a5"/>
              <path d="M23.79,25.33a8.89,8.89,0,0,0,.32,3.28,10.84,10.84,0,0,0,6.37.52,28.39,28.39,0,0,0,1.21-3.3A19.33,19.33,0,0,0,23.79,25.33Z" fill="#f4d3b8"/>
              <path d="M31.22,26.65l.28-.86a19.1,19.1,0,0,0-7.71-.45,8.89,8.89,0,0,0,.32,3.28,5.66,5.66,0,0,0,1,.36,9.65,9.65,0,0,1-.54-2.9A17.77,17.77,0,0,1,31.22,26.65Z" fill="#efc8a5"/>
              <path d="M23.79,25.33a8.89,8.89,0,0,0,.32,3.28,10.84,10.84,0,0,0,6.37.52,28.39,28.39,0,0,0,1.21-3.3A19.66,19.66,0,0,0,23,25.45v.68l.8.2" fill="none" stroke="#333" stroke-linejoin="round" stroke-width="1.02"/>
              <path d="M41.13,25.33a8.89,8.89,0,0,1-.32,3.28,10.84,10.84,0,0,1-6.37.52,28.39,28.39,0,0,1-1.21-3.3A19.65,19.65,0,0,1,42,25.45v.68l-.8.2" fill="none" stroke="#333" stroke-linejoin="round" stroke-width="1.02"/>
              <path d="M31.69,25.84a.9.9,0,0,1,.77-.3c.61,0,.77.29.77.29" fill="none" stroke="#333" stroke-linejoin="round" stroke-width="1.02"/>
              <ellipse cx="28.2" cy="27.46" rx="0.91" ry="0.46" fill="#6c7881"/>
              <ellipse cx="37.07" cy="27.46" rx="0.91" ry="0.46" fill="#6c7881"/>
            </g>
          </g>
        </g>
      </g>
      <g id="b5d9472c-246e-47f7-af11-dc0a10976ccf">
        <path d="M38.33,32a5.44,5.44,0,0,1,2.33,7.34,5.15,5.15,0,0,1-.69,1c-.86,1-6.73,9.74-14.95,0a5.44,5.44,0,0,1,.64-7.68,4.84,4.84,0,0,1,1-.68L31.2,29.6a2.88,2.88,0,0,1,2.62,0Z" fill="#fff"/>
        <path d="M24.57,33.9a23,23,0,0,1-3.75-9.3" fill="#fff" stroke="#333" stroke-linecap="round" stroke-linejoin="round" stroke-width="1.5"/>
        <path d="M40.69,33.9a23,23,0,0,0,3.75-9.3" fill="#fff" stroke="#333" stroke-linecap="round" stroke-linejoin="round" stroke-width="1.5"/>
        <line x1="23.73" y1="36.66" x2="22.09" y2="35.76" fill="none" stroke="#333" stroke-linecap="round" stroke-linejoin="round" stroke-width="1.5"/>
        <line x1="41.53" y1="36.66" x2="43.17" y2="35.76" fill="none" stroke="#333" stroke-linecap="round" stroke-linejoin="round" stroke-width="1.5"/>
        <path d="M38.33,32l-4.51-2.34a2.82,2.82,0,0,0-2.62,0L26.67,32a5.38,5.38,0,0,0-2.77,3.52A5.55,5.55,0,0,0,25,37.64c8.22,9.75,14.1,1,15,0a5.5,5.5,0,0,0,1.14-2.18A5.42,5.42,0,0,0,38.33,32Z" fill="#fff"/>
        <path d="M38.33,32l-4.51-2.34a2.72,2.72,0,0,0-1.18-.3h0v8c0,2.06,2.2,1.61.86,4.11-2,3.84-7.08-2.89-7.08.41,0,.12,3,2.09,3,2.2,5.9,3.07,9.92-2.86,10.62-3.68a5.45,5.45,0,0,0-.61-7.68A5.15,5.15,0,0,0,38.33,32Z" fill="#eee"/>
        <path d="M23.93,35.37a19.09,19.09,0,0,0,8.71,2.28,17.25,17.25,0,0,0,8.44-2.28" fill="none" stroke="#ddd" stroke-miterlimit="10"/>
        <path d="M23.93,37.6a19.08,19.08,0,0,0,8.71,2.27,17.28,17.28,0,0,0,8.45-2.27" fill="none" stroke="#ddd" stroke-miterlimit="10"/>
        <path d="M38.33,32a5.44,5.44,0,0,1,2.33,7.34,5.15,5.15,0,0,1-.69,1c-.86,1-6.73,9.74-14.95,0a5.44,5.44,0,0,1,.64-7.68,4.84,4.84,0,0,1,1-.68L31.2,29.6a2.88,2.88,0,0,1,2.62,0Z" fill="none" stroke="#333" stroke-linejoin="round" stroke-width="1.5"/>
      </g>
    </g>
  </g>
</svg>
