<svg xmlns="http://www.w3.org/2000/svg" viewBox="0 0 64 64">
  <g id="pulmonologist-asian-male-coronavirus">
    <g id="a8726716-fad7-4ba6-90d2-58c9b2294a88">
      <g id="b69a3404-e853-42e9-9405-e36180fc248f">
        <g id="e6e634f2-3253-4053-8a83-f2d019d7130a">
          <g id="abedcd8a-5328-4b7d-9977-9acdffb8230b">
            <path d="M51.53,47.16a5.65,5.65,0,0,0-4.5-4.5c-1.33-.33-4.71-1.16-8.5-2-1.84-.41-3.7-.72-5.56-1V35.14H18v4.55a47,47,0,0,0-5.42,1c-3.66.84-7,1.64-8.52,2a5.65,5.65,0,0,0-4.5,4.5L-1,49.66a65.13,65.13,0,0,0,26.53,5.5A65.18,65.18,0,0,0,52,49.66Z" fill="#d6a787"/>
            <line x1="17.97" y1="35.14" x2="17.97" y2="41.09" fill="none" stroke="#333" stroke-linejoin="round" stroke-width="1.5"/>
            <line x1="32.97" y1="35.14" x2="32.97" y2="41.09" fill="none" stroke="#333" stroke-linejoin="round" stroke-width="1.5"/>
            <path d="M51.53,47.16a5.65,5.65,0,0,0-4.5-4.5c-9.5-2.38-12.44-2.82-15.67-3.15a14.85,14.85,0,0,1-4.76,3.28H24.41a14.91,14.91,0,0,1-4.75-3.26C17.27,39.77,14.8,40,4,42.7a5.65,5.65,0,0,0-4.5,4.5L-1,49.66a65.13,65.13,0,0,0,26.53,5.5A65.18,65.18,0,0,0,52,49.66Z" fill="#eee"/>
            <path d="M47,46.25c-19.23-4.81-25.16-4.47-43,0a6.68,6.68,0,0,0-4.7,3.54,66.08,66.08,0,0,0,26.23,5.36,66.31,66.31,0,0,0,26.17-5.36A6.68,6.68,0,0,0,47,46.25Z" fill="#ddd"/>
            <path d="M16.28,38.16,9.6,43.79l3.86,2.72L10.76,50l4.57,4.3c1.25.2,2.55.36,3.91.5C17.25,50.58,16.37,45.87,16.28,38.16Z" fill="#fff"/>
            <path d="M34.65,38.16l6.68,5.63-3.86,2.72,2.7,3.5-4.57,4.3c-1.25.2-2.55.36-3.91.5C33.68,50.58,34.56,45.87,34.65,38.16Z" fill="#fff"/>
            <path d="M31.4,39.48a15,15,0,0,1-4.79,3.31H24.42a15.08,15.08,0,0,1-4.75-3.26c-1.12.1-2.23.21-3.34.36.2,6.71,1.08,11,2.93,15h0c2,.19,4.23.3,6.31.3h0c2,0,4.12-.1,6.24-.3h0c1.84-3.94,2.73-8.28,2.93-15C33.52,39.68,32.4,39.56,31.4,39.48Z" fill="#bcdaf7"/>
            <path d="M25.56,55.16q2.45,0,4.83-.18c-2.85-8.69-2.41-7.36-2.8-8.53l1.57-2.07a1.22,1.22,0,0,0,0-1.43,1.29,1.29,0,0,0-1.07-.53H24.85a1.24,1.24,0,0,0-1.14.78,1.29,1.29,0,0,0,.21,1.24l1.5,2-3,8.64C23.46,55.13,24.51,55.16,25.56,55.16Z" fill="#91acc1"/>
            <path d="M31.37,48.53l.64.85a.52.52,0,0,0,.19.14.49.49,0,0,0,.65-.28h0L35,40.48Z" fill="#91acc1"/>
            <path id="a1d4302b-75e3-4bbd-9f7a-8e5281d44c99" d="M24.41,42.79l-4.53,5.86s.19.32.41.72c.34.63.73.17.74.16.56-.74,4.51-6.31,4.51-6.31Z" fill="#91acc1"/>
            <path id="bd44c54b-20f8-47af-a2a4-729adb27f546" d="M23,44.08l1.82,2.42a.82.82,0,0,0,1.15.17h0a.81.81,0,0,0,.16-.16L28,44.08a.83.83,0,0,0-.17-1.16.84.84,0,0,0-.49-.16H23.71a.83.83,0,0,0-.85.81h0A.82.82,0,0,0,23,44.08Z" fill="#5e748e"/>
            <path d="M23.71,42.79h-.08l1.23,1.63a.82.82,0,0,0,1.15.17h0a.81.81,0,0,0,.16-.16l1.23-1.63Z" fill="#475b77"/>
            <path id="f0073aaa-72ee-43cd-b92e-f1225a70fa1c" d="M23,44.08l1.82,2.42a.82.82,0,0,0,1.15.17h0a.81.81,0,0,0,.16-.16L28,44.08a.83.83,0,0,0-.17-1.16.84.84,0,0,0-.49-.16H23.71a.83.83,0,0,0-.85.81h0A.82.82,0,0,0,23,44.08Z" fill="none" stroke="#333" stroke-linejoin="round"/>
            <path d="M22,55.06c1.18.06,2.37.1,3.57.1s2.37,0,3.54-.09l-2.95-8.52H24.92Z" fill="#5e748e"/>
            <path d="M23.48,55.12h2.05c1.15,0,2.44,0,3.57-.09l-3-8.52H24.91l-.33,1h0a.93.93,0,0,1,1,.91h0v0Z" fill="#475b77"/>
            <path d="M22,55.06c1.12.06,2.43.1,3.57.1s2.44,0,3.54-.09l-2.95-8.52H24.92Z" fill="none" stroke="#333" stroke-linejoin="round"/>
            <path id="e1bed4cb-0332-4238-8677-27650a74a0c3" d="M17.43,36.59,16,40.5l3.73,8.29,4.66-6A14.84,14.84,0,0,1,17.43,36.59Z" fill="#bcdaf7"/>
            <path id="e77af027-6308-43da-a572-75a0de1fe1fd" d="M24.41,42.79a14.73,14.73,0,0,1-7-6.16L16,40.5l3.73,8.29,4.65-6" fill="none" stroke="#333" stroke-linecap="round" stroke-linejoin="round" stroke-width="1.5"/>
            <path id="b168905c-85ba-43f7-85ca-ca6a039a1fb1" d="M33.64,36.59,35,40.47l-3.76,8.32-4.66-6A15,15,0,0,0,33.64,36.59Z" fill="#bcdaf7"/>
            <path id="a069e96b-e00f-49da-85dc-16efdd780603" d="M26.6,42.79a15,15,0,0,0,7-6.15L35,40.48l-3.77,8.31-4.66-6" fill="none" stroke="#333" stroke-linecap="round" stroke-linejoin="round" stroke-width="1.5"/>
            <path d="M16,40.5S5.51,42.29,4,42.66a5.65,5.65,0,0,0-4.5,4.5l-.5,2.5a65.13,65.13,0,0,0,26.53,5.5A65.18,65.18,0,0,0,52,49.66l-.5-2.5a5.65,5.65,0,0,0-4.5-4.5c-1.33-.33-12-2.18-12-2.18" fill="none" stroke="#333" stroke-linecap="round" stroke-linejoin="round" stroke-width="1.5"/>
            <path d="M35.92,21.37V19.28c0-5.66-2-11.49-10.45-11.49S15,13.62,15,19.28v2.09c-.08,0-3.14,0-2.09,5.23A4.19,4.19,0,0,0,16,29.79c0,3.71,1,4.18,4.57,7.82,1.36,1.74,3,1.58,4.83,1.58s3.47.15,4.83-1.58c3.53-3.64,4.57-4.11,4.57-7.82.45.12,2.7-1,3.13-3.14C39,21.38,36,21.34,35.92,21.37Z" fill="#efc8a5"/>
            <path d="M15,21.38v-1a3.59,3.59,0,0,1,1,2.05v3.14a3.51,3.51,0,0,0,1.44,3.14,5,5,0,0,1,1.69,4.18v2.9l-2.08-1.7a3.46,3.46,0,0,1-1-2.25V29.79a3.91,3.91,0,0,1-3.14-3.14C12,20,14.94,21.34,15,21.38Z" fill="#e8be9c"/>
            <path d="M35.92,21.37V19.28c0-5.66-2-11.49-10.45-11.49a18.41,18.41,0,0,0-3.14.27V18.24a2.18,2.18,0,0,1-1,1.75.25.25,0,0,0-.08.35.23.23,0,0,0,.17.11,4.21,4.21,0,0,1,3,2h1v3.16a1.5,1.5,0,0,0,.63,1.18,1,1,0,0,1,.5,1.33,1,1,0,0,1-1.12.56h0c-.77,0-1-.52-2.09-.52-.62,0-.53.8-.54.79a2.32,2.32,0,0,1,1.06.27,3.15,3.15,0,0,0,1.56.4h0v4.73s2.09-.43,2.09,1.64c0,2.88-5.18-.27-5.18,2.84a9.21,9.21,0,0,0,3.09.29c1.8,0,3.47.15,4.83-1.58,3.53-3.64,4.57-4.11,4.57-7.82.45.12,2.7-1,3.13-3.14C39,21.37,36,21.34,35.92,21.37Z" fill="#e6b790"/>
            <path d="M35.92,21.38v-1a3.55,3.55,0,0,0-1,2.09v3.14a3.51,3.51,0,0,1-1.44,3.14,5,5,0,0,0-1.69,4.18v2.86l2.12-1.65a3.46,3.46,0,0,0,1-2.25v-2.1A3.91,3.91,0,0,0,38,26.61C39,20,36,21.34,35.92,21.38Z" fill="#d6a787"/>
            <path d="M35.92,21.37V19.28c0-5.66-2-11.49-10.45-11.49S15,13.62,15,19.28v2.09c-.08,0-3.14,0-2.09,5.23A4.19,4.19,0,0,0,16,29.79c0,3.71,1,4.18,4.57,7.82,1.36,1.74,3,1.58,4.83,1.58s3.47.15,4.83-1.58c3.53-3.64,4.57-4.11,4.57-7.82.45.12,2.7-1,3.13-3.14C39,21.38,36,21.34,35.92,21.37Z" fill="none" stroke="#333" stroke-linejoin="round" stroke-width="1.5"/>
            <line x1="24.81" y1="34.59" x2="25.97" y2="34.59" fill="none" stroke="#ddad8a" stroke-linecap="round" stroke-miterlimit="10" stroke-width="0.65"/>
            <line x1="25.47" y1="30.82" x2="25.47" y2="30.58" fill="none" stroke="#ddad8a" stroke-linecap="round" stroke-miterlimit="10" stroke-width="0.65"/>
            <path d="M22.75,28.88a2.72,2.72,0,0,1,1.31.34h0a2.69,2.69,0,0,0,2.61,0h0A2.8,2.8,0,0,1,28,28.88" fill="none" stroke="#c6916d" stroke-linecap="round" stroke-miterlimit="10" stroke-width="0.75"/>
            <path d="M26.18,31.32l-.77.31-.85-.19a1.69,1.69,0,0,0-1.15.15l-1.86.95c1.28.48,1.55,1.55,3.09,1.55,0,0,1.15-.07,1.95-.16,1-.1,1.54-.76,2.45-2a.25.25,0,0,0-.05-.36.23.23,0,0,0-.16-.06,10,10,0,0,1-1.89-.27A1.17,1.17,0,0,0,26.18,31.32Z" fill="#ddab85"/>
            <line x1="21.68" y1="32.17" x2="21.31" y2="33.12" fill="none" stroke="#ddad8a" stroke-linecap="round" stroke-miterlimit="10" stroke-width="0.65"/>
            <line x1="28.99" y1="31.22" x2="29.37" y2="32.32" fill="none" stroke="#ddad8a" stroke-linecap="round" stroke-miterlimit="10" stroke-width="0.65"/>
            <path d="M29,31.94a3.16,3.16,0,0,1-.83.53,5.94,5.94,0,0,1-.93.13c-.62.06-1.25.13-1.89.17s-1.27,0-1.88,0-1.23,0-1.82,0a.15.15,0,0,1-.14-.15.14.14,0,0,1,.12-.13h.16l1.83-.24c.6-.08,1.18-.15,1.76-.17s1.16,0,1.76,0a6.46,6.46,0,0,0,.88,0,2.24,2.24,0,0,0,.78-.33.17.17,0,0,1,.22.05h0A.15.15,0,0,1,29,31.94Z" fill="#c6916d"/>
            <path d="M17.92,21.65a6.19,6.19,0,0,1,1.45-.55A5.9,5.9,0,0,1,20.94,21a10,10,0,0,1,2.82,1h0a.24.24,0,0,1,.12.3.23.23,0,0,1-.23.14,10.66,10.66,0,0,1-1.48-.26c-.47-.09-.93-.14-1.37-.21a7.48,7.48,0,0,0-2.75.06h0a.21.21,0,0,1-.13-.39Z" fill="#333"/>
            <path d="M32.86,22.07A7.48,7.48,0,0,0,30.11,22c-.45.07-.9.12-1.37.21a10.66,10.66,0,0,1-1.48.26.22.22,0,0,1-.24-.2h0v0a.23.23,0,0,1,.14-.23h0A10,10,0,0,1,30,21a7,7,0,0,1,1.58.09,5.3,5.3,0,0,1,1.45.55.23.23,0,0,1,.09.31.22.22,0,0,1-.24.12Z" fill="#333"/>
            <ellipse cx="20.96" cy="23.73" rx="0.91" ry="0.46" fill="#333"/>
            <ellipse cx="29.83" cy="23.73" rx="0.91" ry="0.46" fill="#333"/>
            <path d="M16.43,12.1c-3.5,0-4.24,3.55-4.24,5,0,2,1,2.91,1,5,1.64,0,3.23,1.2,3.23,2v-4C16.43,18.69,14.28,16.1,16.43,12.1Z" fill="#666"/>
            <path d="M16.43,12.1c-3.5,0-4.24,3.55-4.24,5,0,2,1,2.91,1,5" fill="none" stroke="#333" stroke-linecap="round" stroke-linejoin="round" stroke-width="1.55"/>
            <path d="M34.68,12.1c3.5,0,4.24,3.55,4.24,5,0,2-1,2.91-1,5-1.64,0-3.23,1.2-3.23,2v-4C34.68,18.69,36.83,16.1,34.68,12.1Z" fill="#666"/>
            <path d="M34.68,12.1c3.5,0,4.24,3.55,4.24,5,0,2-1,2.91-1,5" fill="none" stroke="#333" stroke-linecap="round" stroke-linejoin="round" stroke-width="1.55"/>
            <path d="M16.09,24.1c-.12-1-.2-2-.27-3.07v-.77a1.5,1.5,0,0,0,0-.3c0-.09-.05-.19-.08-.29-.14-.43-.36-.9-.52-1.42A7,7,0,0,1,15,14.94a7.2,7.2,0,0,1,1.24-3,.35.35,0,0,1,.47-.1h0a.36.36,0,0,1,.13.41h0a8.22,8.22,0,0,0-.6,2.81,8.66,8.66,0,0,0,.4,2.72c.14.47.28.95.41,1.51a3.54,3.54,0,0,1,.07.47,3.69,3.69,0,0,1,0,.47V21c-.07,1-.15,2-.27,3.07a.34.34,0,0,1-.38.3h0A.33.33,0,0,1,16.09,24.1Z" fill="#333"/>
            <path d="M13.45,21.35a3.7,3.7,0,0,1,2.06.9A4.39,4.39,0,0,1,16.63,24a.23.23,0,0,1-.12.3h0a.27.27,0,0,1-.29-.08,3.72,3.72,0,0,0-1.28-1.15,2.39,2.39,0,0,0-1.49-.21.76.76,0,0,1-.24-1.5Z" fill="#333"/>
            <path d="M34.34,23.88c-.12-1-.2-2.05-.27-3.07V20a3.68,3.68,0,0,1,0-.47,1.08,1.08,0,0,1,.07-.47c.13-.56.27-1,.41-1.51A9.13,9.13,0,0,0,35,14.84a8.52,8.52,0,0,0-.6-2.81h0a.35.35,0,0,1,.23-.44.36.36,0,0,1,.38.12,7.2,7.2,0,0,1,1.24,3A7,7,0,0,1,36,18c-.16.51-.38,1-.52,1.42a1.38,1.38,0,0,1-.08.29,1.5,1.5,0,0,0,0,.3v.77c-.07,1-.15,2.05-.27,3.07a.35.35,0,0,1-.69,0Z" fill="#333"/>
            <path d="M37.66,22.64a2.39,2.39,0,0,0-1.49.21A3.93,3.93,0,0,0,34.89,24a.23.23,0,0,1-.33.08.25.25,0,0,1-.09-.31A4.7,4.7,0,0,1,35.59,22a3.67,3.67,0,0,1,2.06-.9h0a.76.76,0,0,1,.21,1.51h-.2Z" fill="#333"/>
            <path d="M17.9,17.06l.5-.27a6.47,6.47,0,0,1,5.08-.42h0a6.47,6.47,0,0,0,4.08,0h0a6.51,6.51,0,0,1,5.11.46l.43.23" fill="none" stroke="#efc8a5" stroke-linecap="round" stroke-miterlimit="10" stroke-width="0.5"/>
            <path d="M19.43,14.32a6.38,6.38,0,0,1,4.05,0h0a6.47,6.47,0,0,0,4.08,0h0a6.49,6.49,0,0,1,4.13,0" fill="none" stroke="#efc8a5" stroke-linecap="round" stroke-miterlimit="10" stroke-width="0.5"/>
            <path d="M17.9,17.58l.5-.27a6.47,6.47,0,0,1,5.08-.42h0a6.47,6.47,0,0,0,4.08,0h0a6.51,6.51,0,0,1,5.11.46l.43.23" fill="none" stroke="#e6b790" stroke-linecap="round" stroke-miterlimit="10" stroke-width="0.5"/>
            <path d="M19.43,14.85a6.38,6.38,0,0,1,4.05,0h0a6.47,6.47,0,0,0,4.08,0h0a6.49,6.49,0,0,1,4.13,0" fill="none" stroke="#e6b790" stroke-linecap="round" stroke-miterlimit="10" stroke-width="0.5"/>
            <path d="M23.48,12.08h0a6.33,6.33,0,0,0,4.08,0h0" fill="none" stroke="#efc8a5" stroke-linecap="round" stroke-miterlimit="10" stroke-width="0.5"/>
            <path d="M58.2,28l-4.09-.65a1,1,0,0,1-.85-1V25l2.59-.81a12.48,12.48,0,0,0,.19-4.6c-.45-1.79-.69-3.76-4.32-3.76s-3.25,3.7-3.25,3.7v6.82a1,1,0,0,1-.82,1L44.31,28a1.41,1.41,0,0,0-1.09,1v7.59a1.12,1.12,0,0,0,1.12,1.12H58.13a1.12,1.12,0,0,0,1.12-1.11l.08-7.6A1.45,1.45,0,0,0,58.2,28Z" fill="#c4d9df"/>
            <path d="M48.71,36.07H46.63a1.22,1.22,0,0,1-1.2-1.2V32.31a3.12,3.12,0,0,1,3.12-3.12h.08a1.24,1.24,0,0,1,1.2,1.2V35a1.08,1.08,0,0,1-1.06,1.12Z" fill="#dd9292"/>
            <path d="M48.71,36.07H46.63a1.22,1.22,0,0,1-1.2-1.2V32.31a3.12,3.12,0,0,1,3.12-3.12h.08a1.24,1.24,0,0,1,1.2,1.2V35a1.08,1.08,0,0,1-1.06,1.12Z" fill="none" stroke="#333" stroke-linejoin="round" stroke-width="1.2"/>
            <path d="M53.83,36.07h2.08a1.22,1.22,0,0,0,1.2-1.2V32.31A3.13,3.13,0,0,0,54,29.19H54a1.24,1.24,0,0,0-1.2,1.2V35a1.08,1.08,0,0,0,1.06,1.12h0Z" fill="#dd9292"/>
            <path d="M53.83,36.07h2.08a1.22,1.22,0,0,0,1.2-1.2V32.31A3.13,3.13,0,0,0,54,29.19H54a1.24,1.24,0,0,0-1.2,1.2V35a1.08,1.08,0,0,0,1.06,1.12h0Z" fill="none" stroke="#333" stroke-linejoin="round" stroke-width="1.2"/>
            <polyline points="49.99 31.35 51.27 30.07 52.55 31.35" fill="none" stroke="#333" stroke-linejoin="round" stroke-width="1.2"/>
            <line x1="51.27" y1="26.23" x2="51.27" y2="30.07" fill="none" stroke="#333" stroke-linejoin="round" stroke-width="1.2"/>
            <line x1="51.27" y1="24.23" x2="51.27" y2="25.43" fill="none" stroke="#333" stroke-linejoin="round" stroke-width="1.2"/>
            <polyline points="51.27 23.43 51.27 22.23 53.1 22.23" fill="none" stroke="#333" stroke-linejoin="round" stroke-width="1.2"/>
            <line x1="54.25" y1="22.12" x2="55.85" y2="22.12" fill="none" stroke="#333" stroke-linejoin="round" stroke-width="1.2"/>
            <path d="M10,56.44a1.78,1.78,0,0,1-1.76-1.76v-3.2A1.78,1.78,0,0,1,10,49.72h2.48a1.78,1.78,0,0,1,1.76,1.76v3.2a1.78,1.78,0,0,1-1.76,1.76" fill="none" stroke="#333" stroke-linejoin="round" stroke-width="1.2"/>
            <line x1="10.06" y1="55.96" x2="10.06" y2="56.92" fill="none" stroke="#333" stroke-linecap="round" stroke-linejoin="round" stroke-width="1.2"/>
            <line x1="12.54" y1="55.96" x2="12.54" y2="56.92" fill="none" stroke="#333" stroke-linecap="round" stroke-linejoin="round" stroke-width="1.2"/>
            <path d="M36.39,37.28A3.6,3.6,0,0,1,40,40.86h0v9.78a3.58,3.58,0,0,1-3.58,3.6h0" fill="none" stroke="#333" stroke-linejoin="round" stroke-width="1.2"/>
            <path d="M11.34,49.66V40.89a3.59,3.59,0,0,1,3.58-3.6h0" fill="none" stroke="#333" stroke-linejoin="round" stroke-width="1.2"/>
            <circle cx="35.11" cy="54.24" r="3.12" fill="#9cbbbc"/>
            <circle cx="35.11" cy="54.24" r="0.88" fill="#e6f3f4"/>
            <circle cx="35.11" cy="54.24" r="3.12" fill="none" stroke="#333" stroke-linejoin="round" stroke-width="1.2"/>
          </g>
        </g>
      </g>
      <path d="M31.09,26.76a5.45,5.45,0,0,1,2.33,7.35,5.15,5.15,0,0,1-.69,1c-.85,1-6.73,9.74-14.95,0a5.45,5.45,0,0,1,.64-7.68,5.76,5.76,0,0,1,1-.68L24,24.42a2.88,2.88,0,0,1,2.62,0Z" fill="#fff"/>
      <path d="M17.33,28.72a22.92,22.92,0,0,1-3.75-9.3" fill="#fff" stroke="#333" stroke-linecap="round" stroke-linejoin="round" stroke-width="1.5"/>
      <path d="M33.45,28.72a22.92,22.92,0,0,0,3.75-9.3" fill="#fff" stroke="#333" stroke-linecap="round" stroke-linejoin="round" stroke-width="1.5"/>
      <line x1="16.49" y1="31.49" x2="14.85" y2="30.58" fill="none" stroke="#333" stroke-linecap="round" stroke-linejoin="round" stroke-width="1.5"/>
      <line x1="34.29" y1="31.49" x2="35.93" y2="30.58" fill="none" stroke="#333" stroke-linecap="round" stroke-linejoin="round" stroke-width="1.5"/>
      <path d="M31.09,26.76l-4.51-2.34a2.88,2.88,0,0,0-2.62,0l-4.53,2.35a5.4,5.4,0,0,0-2.77,3.52,5.59,5.59,0,0,0,1.12,2.18c8.22,9.74,14.1,1,14.95,0a5.48,5.48,0,0,0,1.14-2.19A5.4,5.4,0,0,0,31.09,26.76Z" fill="#fff"/>
      <path d="M31.09,26.76l-4.51-2.34a3,3,0,0,0-1.18-.3h0v8c0,2.06,2.2,1.61.86,4.11-2,3.84-7.08-2.89-7.08.41,0,.12,3,2.1,2.95,2.2C28,41.89,32,36,32.73,35.14a5.45,5.45,0,0,0-.61-7.68A6,6,0,0,0,31.09,26.76Z" fill="#eee"/>
      <path d="M16.69,30.19a18.93,18.93,0,0,0,8.71,2.28,17.25,17.25,0,0,0,8.44-2.28" fill="none" stroke="#ddd" stroke-miterlimit="10"/>
      <path d="M16.69,32.42a18.8,18.8,0,0,0,8.71,2.27,17.24,17.24,0,0,0,8.44-2.27" fill="none" stroke="#ddd" stroke-miterlimit="10"/>
      <path d="M31.09,26.76a5.45,5.45,0,0,1,2.33,7.35,5.15,5.15,0,0,1-.69,1c-.85,1-6.73,9.74-14.95,0a5.45,5.45,0,0,1,.64-7.68,5.76,5.76,0,0,1,1-.68L24,24.42a2.88,2.88,0,0,1,2.62,0Z" fill="none" stroke="#333" stroke-linejoin="round" stroke-width="1.5"/>
    </g>
  </g>
</svg>
