<svg xmlns="http://www.w3.org/2000/svg" viewBox="0 0 64 64">
  <g id="nurse-asian-male-coronavirus">
    <g>
      <g id="b493dad6-22b6-4881-9805-037a164afb01">
        <g id="b626f12a-5879-4eb1-9b36-fdf71532beb3">
          <g id="a481de97-0f69-42e6-bed1-988ab36ec0e4">
            <g id="bbc6801c-e916-4935-9336-dc5ca7b83d34">
              <rect x="27.56" y="32.72" width="15" height="10.31" fill="#e6b790"/>
              <path d="M59.79,46.91c-.31-2.29-2-3.66-4.42-4.64L43,37.2a66.07,66.07,0,0,1-8.13,5.87S28.6,38.66,27,37.24L14.72,42.31c-2.4,1-4.11,2.35-4.42,4.64l-.27,2a62.31,62.31,0,0,0,50,0h0Z" fill="#d362a4"/>
              <polygon points="27.56 32.72 27.56 34.66 36.46 42.05 42.56 37.6 42.56 32.72 27.56 32.72" fill="#ddad8a"/>
              <path d="M43,40.78l12.34,5.06a7,7,0,0,1,4,3.35l.61-.25-.24-2c-.31-2.29-2-3.66-4.42-4.64L43,37.2c-.82.69-1.66,1.34-2.5,2A14.07,14.07,0,0,0,43,40.78Z" fill="#e87cbf"/>
              <path d="M14.72,45.89,27,40.78a11.91,11.91,0,0,0,2.34-1.71c-1-.75-1.88-1.43-2.34-1.85L14.72,42.31c-2.4,1-4.11,2.35-4.42,4.64l-.27,2,.66.27A7,7,0,0,1,14.72,45.89Z" fill="#e87cbf"/>
              <path d="M59.79,46.91c-.31-2.29-2-3.66-4.42-4.64L43,37.2a66.07,66.07,0,0,1-8.13,5.87S28.6,38.66,27,37.24L14.72,42.31c-2.4,1-4.11,2.35-4.42,4.64l-.27,2a62.31,62.31,0,0,0,50,0h0Z" fill="none" stroke="#333" stroke-linecap="round" stroke-linejoin="round" stroke-width="1.5"/>
              <line x1="27.56" y1="33.42" x2="27.56" y2="37.64" fill="none" stroke="#333" stroke-linecap="round" stroke-linejoin="round" stroke-width="1.5"/>
              <line x1="42.56" y1="33.42" x2="42.56" y2="37.61" fill="none" stroke="#333" stroke-linecap="round" stroke-linejoin="round" stroke-width="1.5"/>
              <path d="M35,37.2a8.34,8.34,0,0,1-3.39-.52C28.34,34.92,25,31.07,25,28.74v-2a4.72,4.72,0,0,1-2.77-3.67c-.46-2.18-.24-4,1.79-4v-2.9c0-5,3.06-10,11-10s11,5.14,11,10.14v2.92c2,0,2.24,1.71,1.77,3.89A4.75,4.75,0,0,1,45,26.74v2c0,2.32-3.27,6.19-6.61,7.94A8.34,8.34,0,0,1,35,37.2Z" fill="#efc8a5"/>
              <path d="M45.38,19.23V16.31c0-5-3-10.14-11-10.14a14.48,14.48,0,0,0-2.46.19v10c0,2-2,2-2,3a3.53,3.53,0,0,1,3,2h1.5a.5.5,0,0,1,.5.5v1.72a1.47,1.47,0,0,0,.59,1.17,1,1,0,0,1,.22,1.39,1,1,0,0,1-.81.42c-.74,0-.62-.5-1.62-.5a1,1,0,0,0-.85.45.22.22,0,0,0,0,.22.25.25,0,0,0,.19.12c1.6.06,1,.61,2.3.62v4.4a.5.5,0,0,0,.5.5,1.5,1.5,0,0,1,0,3h-1.5A2,2,0,0,0,32,37a8.29,8.29,0,0,0,2.38.22,8.34,8.34,0,0,0,3.39-.52c3.34-1.75,6.61-5.62,6.61-7.94v-2a4.76,4.76,0,0,0,2.74-3.66C47.62,20.94,47.38,19.23,45.38,19.23Z" fill="#e6b790"/>
              <path d="M46,19.23V16.31c0-5-3-10.14-11-10.14s-11,5-11,10v2.9a.74.74,0,0,0-.21,0A11.49,11.49,0,0,1,25,22c.08.37,1,.56.94.18,0-1.23.08-4.7.08-4.7,10.77,0,10.26-3.49,13.38-4.21.9,3.09,4.38,3.32,4.6,3.87,0-.1.35,4.13.35,4.23A.69.69,0,0,0,45,22a13.93,13.93,0,0,1,1.47-2.68A2.3,2.3,0,0,0,46,19.23Z" fill="#e6b790"/>
              <path d="M32.59,6.36h0v10a1.65,1.65,0,0,1-.06.43c4.26-1,4.6-3,6.89-3.58.9,3.09,4.38,3.32,4.6,3.87v4.46c0,.33.61.36.95.39a14.55,14.55,0,0,1,1.47-2.68,3.53,3.53,0,0,0-.46,0V16.3c0-5-3-10.14-11-10.14a11.13,11.13,0,0,0-1.29,0Z" fill="#d6a987"/>
              <path d="M27.87,26.07l-1.29-1.26A2,2,0,0,1,26,23.37v-1.7c0-.28-.48-2.6-1.91-2.6-2,0-2.25,1.82-1.79,4A4.74,4.74,0,0,0,25,26.74v2c0,1.7,1.8,4.24,4.06,6.17V29A4,4,0,0,0,27.87,26.07Z" fill="#e6b790"/>
              <path d="M44,21.14v2.19a2,2,0,0,1-.63,1.42L42.06,26a3.92,3.92,0,0,0-1.26,2.85v6.21c2.38-2,4.23-4.59,4.23-6.34v-2a4.73,4.73,0,0,0,2.77-3.66c.47-2.18.23-3.89-1.77-3.89A2.06,2.06,0,0,0,44,21.14Z" fill="#ddad8a"/>
              <path d="M36.39,29.59a2.63,2.63,0,0,0-1.18.13.75.75,0,0,1-.42,0,2.78,2.78,0,0,0-1.18-.13c-.67.1-.74.52-2.09,1.25l1.19.73A2.37,2.37,0,0,0,34,32H36a2.31,2.31,0,0,0,1.27-.41l1.23-.7C37.19,30.14,37,29.69,36.39,29.59Z" fill="#ddad8a"/>
              <path d="M38.54,30.87c-1,0-1.26-.39-2.24-.39a6.16,6.16,0,0,0-1.29.17,6.25,6.25,0,0,0-1.29-.17c-.94,0-1.15.36-2.21.36" fill="none" stroke="#c6916d" stroke-linecap="round" stroke-miterlimit="10" stroke-width="0.75"/>
              <path d="M32.55,27.17a2.21,2.21,0,0,1,1.22.37h0a2.26,2.26,0,0,0,2.45,0h0a2.21,2.21,0,0,1,1.22-.37" fill="none" stroke="#c6916d" stroke-linecap="round" stroke-miterlimit="10" stroke-width="0.75"/>
              <path d="M24,15.87v3.27a1.26,1.26,0,0,1,1.25.69V17.12C25.28,9.77,28.62,6.24,37.93,6a11.44,11.44,0,0,1,2.68.18,13.67,13.67,0,0,0-5.58-1C27.32,5.12,24,9.52,24,15.87Z" fill="#545250"/>
              <path d="M35,37.2a8.34,8.34,0,0,1-3.39-.52C28.34,34.92,25,31.07,25,28.74v-2a4.72,4.72,0,0,1-2.77-3.67c-.46-2.18-.24-4,1.79-4v-2.9c0-5,3.06-10,11-10s11,5.14,11,10.14v2.92c2,0,2.24,1.71,1.77,3.89A4.75,4.75,0,0,1,45,26.74v2c0,2.32-3.27,6.19-6.61,7.94A8.34,8.34,0,0,1,35,37.2Z" fill="none" stroke="#333" stroke-linecap="round" stroke-linejoin="round" stroke-width="1.5"/>
              <path d="M43.32,7.39c0-5-14.59-4.12-17.49-1.25h2a9.53,9.53,0,0,0-4.75,11.5c.52,1.53,2,2.5,2,5.5V16.38c12.15-.07,10-4.74,15.49-4.74,0,4.25,4.5,3.44,4.5,5.5v6c0-3,1.47-3.48,2-5.21C47.84,15.07,48.08,7.39,43.32,7.39Z" fill="#444"/>
              <path d="M43.32,7.39c-2-1.22-7-1.41-10.28.44a13.9,13.9,0,0,1,8,.35c-4.53-.77-8.35,2.59-12,3.67,2.82-.56,7.25-.81,9.86-2-3,1.31-8.89,6-13.37,6.05,10,.28,9.93-3.36,15-4.22,0,4.25,4.5,3.44,4.5,5.5v6c0-3,1.47-3.48,2-5.21C47.84,15.07,48.08,7.39,43.32,7.39Z" fill="#333"/>
              <path d="M25.83,6.14h2a9.53,9.53,0,0,0-4.75,11.5,10,10,0,0,0,1,1.81A11.4,11.4,0,0,1,29.84,7.39H28.59c2.34-2.31,10-3,14.63-.72C41.86,2.49,28.58,3.42,25.83,6.14Z" fill="#4c4c4c"/>
              <path d="M43.19,9.19a1.65,1.65,0,0,1-.25,1.22,1.69,1.69,0,0,1-1.08.66,1.6,1.6,0,0,1,.26-1.24A1.51,1.51,0,0,1,43.19,9.19Z" fill="#444"/>
              <path d="M24.74,23.14c-.08-2.25-.16-4.51-.21-6.76a.53.53,0,0,1,.51-.55h0l2-.11c.67-.08,1.35-.14,2-.23a16.8,16.8,0,0,0,3.82-1,15.11,15.11,0,0,0,3.32-2.15,6.41,6.41,0,0,1,2-1.1,7.34,7.34,0,0,1,2.28-.31.69.69,0,0,1,.72.67v0h0a3,3,0,0,0,1,2.49,8.19,8.19,0,0,0,1.33.82,4.51,4.51,0,0,1,1.72,1.14,1.57,1.57,0,0,1,.29.54,3.81,3.81,0,0,1,.08.59v2.54l-.12,3.4a.35.35,0,0,1-.69,0l-.12-3.4V17.19a.67.67,0,0,0-.17-.44,4.31,4.31,0,0,0-1.39-.69,7.67,7.67,0,0,1-1.61-.89,3.8,3.8,0,0,1-1.26-1.57,5.09,5.09,0,0,1-.4-1.93l.72.72a5.38,5.38,0,0,0-3.4,1.17c-.53.39-1.08.85-1.7,1.25a10.1,10.1,0,0,1-2,1,16.39,16.39,0,0,1-4.2,1c-.7.08-1.41.11-2.11.15h-2.1l.55-.55c-.05,2.25-.13,4.51-.21,6.76a.34.34,0,0,1-.35.33h0a.31.31,0,0,1-.31-.31A.43.43,0,0,1,24.74,23.14Z" fill="#333"/>
              <path d="M44.73,23.14a6.51,6.51,0,0,1,.36-2.4,12.6,12.6,0,0,1,1.15-2.06,4.29,4.29,0,0,0,.4-.94c.08-.35.14-.71.19-1.08a18.49,18.49,0,0,0,.2-2.22,11.34,11.34,0,0,0-.72-4.28,4.28,4.28,0,0,0-1.16-1.59,3,3,0,0,0-1.82-.5h0a.63.63,0,0,1-.6-.63c0-1.23-1.45-2-2.9-2.38a18.1,18.1,0,0,0-4.64-.45,24.73,24.73,0,0,0-4.7.48,17.78,17.78,0,0,0-2.25.6,5.64,5.64,0,0,0-1.87,1l-.5-1.22h2a.69.69,0,0,1,.3,1.31,9.08,9.08,0,0,0-3.44,2.89,8.78,8.78,0,0,0-1.56,4.25,8.45,8.45,0,0,0,.07,2.3,9.15,9.15,0,0,0,.25,1.13,4.23,4.23,0,0,0,.44,1A12.43,12.43,0,0,1,25,20.61a7.22,7.22,0,0,1,.36,2.53.35.35,0,0,1-.35.34.34.34,0,0,1-.34-.34,6.61,6.61,0,0,0-.43-2.25,12.15,12.15,0,0,0-1.16-2.05,4.79,4.79,0,0,1-.56-1.19,9,9,0,0,1-.32-1.24,9.2,9.2,0,0,1-.16-2.56,10.13,10.13,0,0,1,5.42-8.32l.31,1.3h-2a.7.7,0,0,1-.71-.69h0a.71.71,0,0,1,.22-.52,6.68,6.68,0,0,1,2.36-1.37,15.1,15.1,0,0,1,2.45-.68,25.47,25.47,0,0,1,5-.51,18.32,18.32,0,0,1,5,.61,7.05,7.05,0,0,1,2.42,1.13,3.23,3.23,0,0,1,1.37,2.58l-.63-.63a4.26,4.26,0,0,1,2.52.86,5.47,5.47,0,0,1,1.48,2.1A12.41,12.41,0,0,1,48,14.46a17.12,17.12,0,0,1-.22,2.36c-.07.39-.15.78-.26,1.18A4.7,4.7,0,0,1,47,19.14a13.89,13.89,0,0,0-1.23,1.92,5.65,5.65,0,0,0-.4,2.11.33.33,0,0,1-.33.33h0A.34.34,0,0,1,44.73,23.14Z" fill="#333"/>
              <path d="M48.62,49.46v-11a3.82,3.82,0,0,0-3.65-4H42.62" fill="none" stroke="#333" stroke-linejoin="round" stroke-width="1.5"/>
              <path d="M21.4,44V38.47a3.82,3.82,0,0,1,3.65-4h2.51" fill="none" stroke="#333" stroke-linejoin="round" stroke-width="1.5"/>
              <path d="M52.12,53a3.5,3.5,0,1,1-3.5-3.5h0A3.5,3.5,0,0,1,52.12,53Z" fill="#e0ebee"/>
              <circle cx="48.62" cy="52.96" r="1" fill="#333"/>
              <path d="M52.12,53a3.5,3.5,0,1,1-3.5-3.5h0A3.5,3.5,0,0,1,52.12,53Z" fill="none" stroke="#333" stroke-linejoin="round" stroke-width="1.5"/>
              <circle cx="19.4" cy="55.46" r="1" fill="#333"/>
              <circle cx="23.4" cy="55.46" r="1" fill="#333"/>
              <path d="M19.4,55.46c-2,0-3-.83-3-2,0-3,5-10,5-10s5,7,5,10c0,1.17-1,2-3,2" fill="none" stroke="#333" stroke-linejoin="round" stroke-width="1.5"/>
              <path d="M28.19,22.77A4.69,4.69,0,0,1,32,22.42" fill="none" stroke="#e8be9c" stroke-linecap="round" stroke-miterlimit="10" stroke-width="0.75"/>
              <path d="M27.49,20.59a5.85,5.85,0,0,1,1.45-.52A5.24,5.24,0,0,1,30.52,20a9.4,9.4,0,0,1,2.82,1h0a.23.23,0,0,1,.12.3.26.26,0,0,1-.23.14,14.77,14.77,0,0,1-1.48-.26c-.47-.09-.93-.14-1.37-.21a7.07,7.07,0,0,0-2.75.06h0a.25.25,0,0,1-.27-.18A.23.23,0,0,1,27.49,20.59Z" fill="#333"/>
              <path d="M42.43,21.07A7.07,7.07,0,0,0,39.68,21c-.45.07-.9.12-1.37.21a14.77,14.77,0,0,1-1.48.26.22.22,0,0,1-.24-.2h0v0a.24.24,0,0,1,.14-.23h0a10,10,0,0,1,2.82-1,7,7,0,0,1,1.58.09,5.3,5.3,0,0,1,1.45.55.23.23,0,0,1,.13.3.23.23,0,0,1-.3.13h0Z" fill="#333"/>
              <ellipse cx="30.56" cy="22.75" rx="0.91" ry="0.46" fill="#333"/>
              <path d="M41.81,22.77A4.72,4.72,0,0,0,38,22.42" fill="none" stroke="#ddad8a" stroke-linecap="round" stroke-miterlimit="10" stroke-width="0.75"/>
              <ellipse cx="39.44" cy="22.75" rx="0.91" ry="0.46" fill="#333"/>
            </g>
          </g>
        </g>
      </g>
      <g id="f32448e4-e4ce-4d34-88fd-1ebd33d82bb0">
        <path d="M40.61,25.74a5.45,5.45,0,0,1,2.33,7.34,5.52,5.52,0,0,1-.69,1c-.86,1-6.73,9.73-14.95,0a5.44,5.44,0,0,1,.64-7.68,5.76,5.76,0,0,1,1-.68l4.53-2.34a2.8,2.8,0,0,1,2.61,0Z" fill="#fff"/>
        <path d="M26.84,27.69A22.73,22.73,0,0,1,23.1,18.4" fill="#fff" stroke="#333" stroke-linecap="round" stroke-linejoin="round" stroke-width="1.5"/>
        <path d="M43,27.69a22.73,22.73,0,0,0,3.74-9.29" fill="#fff" stroke="#333" stroke-linecap="round" stroke-linejoin="round" stroke-width="1.5"/>
        <line x1="26.01" y1="30.46" x2="24.36" y2="29.56" fill="none" stroke="#333" stroke-linecap="round" stroke-linejoin="round" stroke-width="1.5"/>
        <line x1="43.8" y1="30.46" x2="45.44" y2="29.56" fill="none" stroke="#333" stroke-linecap="round" stroke-linejoin="round" stroke-width="1.5"/>
        <path d="M40.61,25.74,36.09,23.4a2.8,2.8,0,0,0-2.61,0L29,25.74a5.42,5.42,0,0,0-2.77,3.53,5.3,5.3,0,0,0,1.12,2.17c8.22,9.75,14.1,1,15,0a5.33,5.33,0,0,0,1.13-2.19A5.4,5.4,0,0,0,40.61,25.74Z" fill="#fff"/>
        <path d="M40.61,25.74,36.09,23.4a2.68,2.68,0,0,0-1.18-.3h0v8c0,2.06,2.2,1.61.87,4.11-2,3.84-7.08-2.89-7.08.41,0,.12,2.95,2.09,2.94,2.2,5.9,3.08,9.93-2.86,10.63-3.67a5.46,5.46,0,0,0-.61-7.69A5.15,5.15,0,0,0,40.61,25.74Z" fill="#eee"/>
        <path d="M26.2,29.17a19.08,19.08,0,0,0,8.71,2.27,17.25,17.25,0,0,0,8.45-2.27" fill="none" stroke="#ddd" stroke-miterlimit="10"/>
        <path d="M26.2,31.39a19,19,0,0,0,8.71,2.28,17.29,17.29,0,0,0,8.45-2.28" fill="none" stroke="#ddd" stroke-miterlimit="10"/>
        <path d="M40.61,25.74a5.45,5.45,0,0,1,2.33,7.34,5.52,5.52,0,0,1-.69,1c-.86,1-6.73,9.73-14.95,0a5.44,5.44,0,0,1,.64-7.68,5.76,5.76,0,0,1,1-.68l4.53-2.34a2.8,2.8,0,0,1,2.61,0Z" fill="none" stroke="#333" stroke-linejoin="round" stroke-width="1.5"/>
      </g>
    </g>
  </g>
</svg>
