<svg xmlns="http://www.w3.org/2000/svg" viewBox="0 0 64 64">
  <g id="ems-white-female-coronavirus">
    <g id="b7fbecf7-9d0c-4bfa-b455-eac2ff04493b">
      <g id="b629966d-206e-467c-bef2-4c2f83e9a381">
        <g id="e4f7d4cd-b7a8-428c-b52e-f94958ea788c">
          <g id="ae3ff754-6ce1-4e61-a5b9-237ba9aed164">
            <path d="M51.16,46.36C48,45.66,38.28,43.8,38.28,43.8V39.05h-12v4.78s-9.39,1.7-12.82,2.56c-3.83,1-4.4,4.47-4.68,6.16a62.91,62.91,0,0,0,23.5,5,62.1,62.1,0,0,0,23.5-5C55.57,51,55.17,47.25,51.16,46.36Z" fill="#eed1c9"/>
            <path d="M51.16,46.36a81,81,0,0,0-13-2.57c-.5,3.5-2.64,6.2-5.89,8.41C29,50,26.88,47.28,26.38,43.79a82.41,82.41,0,0,0-12.93,2.57c-3.83,1-4.4,4.48-4.68,6.17a62.71,62.71,0,0,0,23.5,5,61.72,61.72,0,0,0,23.5-5C55.57,51,55.14,47.36,51.16,46.36Z" fill="#5d7691"/>
            <path d="M51.16,48.94l-4.28-1.07a60.2,60.2,0,0,0-9.43-1.54,13.83,13.83,0,0,1-5.17,5.88,13.68,13.68,0,0,1-5.17-5.87,59.93,59.93,0,0,0-9.33,1.54L13.46,49a5.54,5.54,0,0,0-4,3.78,57.21,57.21,0,0,0,22.77,4.81,57.67,57.67,0,0,0,22.83-4.81A5.55,5.55,0,0,0,51.16,48.94Z" fill="#475b77"/>
            <circle cx="46.3" cy="52.2" r="2.92" fill="#fff"/>
            <circle cx="46.3" cy="52.2" r="2.92" fill="none" stroke="#333" stroke-linejoin="round" stroke-width="0.83"/>
            <line x1="46.3" y1="50.26" x2="46.29" y2="54.15" fill="none" stroke="#4064a1" stroke-linejoin="round" stroke-width="1.25"/>
            <line x1="44.62" y1="51.23" x2="47.98" y2="53.19" fill="none" stroke="#4064a1" stroke-linejoin="round" stroke-width="1.25"/>
            <line x1="44.62" y1="53.18" x2="47.99" y2="51.24" fill="none" stroke="#4064a1" stroke-linejoin="round" stroke-width="1.25"/>
            <path d="M35.78,49.53l4,2.09v1a.49.49,0,0,1-.49.49A.45.45,0,0,1,39,53l-3.13-1.88-3.63,1.36Z" fill="#3a4a5e"/>
            <path d="M28.78,49.53l-4,2.09v1a.49.49,0,0,0,.49.49.45.45,0,0,0,.25-.07l3.13-1.88,3.63,1.32Z" fill="#3a4a5e"/>
            <circle cx="35.28" cy="54.03" r="0.75" fill="#333"/>
            <path d="M38.28,39.05h-12v2.57l4.83,5.07a4.07,4.07,0,0,1,1.17,2.86v2.5c3.72-2.54,6-5.72,6-10Z" fill="#d8b3ad"/>
            <line x1="32.28" y1="52.2" x2="32.28" y2="57.53" fill="none" stroke="#333" stroke-linecap="round" stroke-linejoin="round" stroke-width="1.5"/>
            <path d="M23.78,43.92c-1,.24-9.13,2.13-10.35,2.44-3.86,1-4.14,4.54-4.4,6.14l.09.06a56.94,56.94,0,0,0,23.13,5,59.58,59.58,0,0,0,23.23-5c-.12-.91-.08-5.34-4.34-6.17-.93-.18-9.1-2.18-10.35-2.44" fill="none" stroke="#333" stroke-linejoin="round" stroke-width="1.5"/>
            <path d="M38.31,41.92l2.5,2v8.5l-5-3C37.29,47.39,37.9,45,38.31,41.92Z" fill="#475b77"/>
            <polyline points="35.81 49.42 40.81 52.42 40.81 43.92 38.31 41.92" fill="none" stroke="#333" stroke-linejoin="round" stroke-width="1.5"/>
            <path d="M26.31,41.92l-2.5,2v8.5l5-3C27.33,47.39,26.72,45,26.31,41.92Z" fill="#475b77"/>
            <polyline points="28.81 49.42 23.81 52.42 23.81 43.92 26.31 41.92" fill="none" stroke="#333" stroke-linejoin="round" stroke-width="1.5"/>
            <path d="M38.28,40v2.22c0,4.28-2.28,7.46-6,10-3.72-2.54-6-5.72-6-10V40.05" fill="none" stroke="#333" stroke-linejoin="round" stroke-width="1.4"/>
            <path d="M23.56,36.18a4.28,4.28,0,0,0,.19-6.05,4.23,4.23,0,0,0-1.31-.95,4.28,4.28,0,0,0-2.07,5.69h0a4.33,4.33,0,0,0,.94,1.3,4.28,4.28,0,0,0-.17,6l.17.17a4.3,4.3,0,0,0-1,4.67,2.33,2.33,0,0,0,3,1.32h0a2.37,2.37,0,0,0,1.29-1.29,4.27,4.27,0,0,0-1-4.69,4.28,4.28,0,0,0,.17-6l-.17-.17Z" fill="#333"/>
            <path d="M22.07,47.46a4.25,4.25,0,0,1,.41-3.94,1.36,1.36,0,0,0,0-1.5,4.27,4.27,0,0,1,0-4.7,1.36,1.36,0,0,0,0-1.5,4.21,4.21,0,0,1-.7-2.36,4.3,4.3,0,0,1,1.8-3.5,4.33,4.33,0,0,0-1.12-.78,4.28,4.28,0,0,0-2.07,5.69h0a4.33,4.33,0,0,0,.94,1.3,4.28,4.28,0,0,0-.17,6l.17.17a4.3,4.3,0,0,0-1,4.67,2.28,2.28,0,0,0,2.58,1.42A2.23,2.23,0,0,1,22.07,47.46Z" fill="#614938"/>
            <path d="M23.56,36.18a4.28,4.28,0,0,0,.19-6.05,4.23,4.23,0,0,0-1.31-.95,4.28,4.28,0,0,0-2.07,5.69h0a4.33,4.33,0,0,0,.94,1.3,4.28,4.28,0,0,0-.17,6l.17.17a4.3,4.3,0,0,0-1,4.67,2.33,2.33,0,0,0,3,1.32h0a2.37,2.37,0,0,0,1.29-1.29,4.27,4.27,0,0,0-1-4.69,4.28,4.28,0,0,0,.17-6l-.17-.17Z" fill="none" stroke="#333" stroke-linecap="round" stroke-linejoin="round" stroke-width="1.5"/>
            <path d="M22.12,42.05a1.23,1.23,0,0,0-.88.4" fill="none" stroke="#333" stroke-linejoin="round" stroke-width="1.5"/>
            <path d="M22.12,35.87a1.23,1.23,0,0,0-.88.4" fill="none" stroke="#333" stroke-linejoin="round" stroke-width="1.5"/>
            <path d="M22.44,48.89a7,7,0,0,0-3.3,3.31A2,2,0,0,0,21,55.11h2.94a2,2,0,0,0,2-2,2.22,2.22,0,0,0-.15-.8A6.86,6.86,0,0,0,22.44,48.89Z" fill="#333"/>
            <path d="M20.91,53.93a6.93,6.93,0,0,1,3.3-3.31,6.62,6.62,0,0,1,.9.5,6.83,6.83,0,0,0-2.67-2.24,7,7,0,0,0-3.3,3.31A2,2,0,0,0,20,54.88l.06,0a2,2,0,0,0,.67.19A2,2,0,0,1,20.91,53.93Z" fill="#614938"/>
            <path d="M22.44,48.89a7,7,0,0,0-3.3,3.31A2,2,0,0,0,21,55.11h2.94a2,2,0,0,0,2-2,2.22,2.22,0,0,0-.15-.8A6.86,6.86,0,0,0,22.44,48.89Z" fill="none" stroke="#333" stroke-linecap="round" stroke-linejoin="round" stroke-width="1.5"/>
            <path d="M21.13,48.05h2.65a.5.5,0,0,1,.5.5v.37a.5.5,0,0,1-.5.5H21.13a.5.5,0,0,1-.5-.5v-.37A.5.5,0,0,1,21.13,48.05Z" fill="none" stroke="#333" stroke-linecap="round" stroke-linejoin="round" stroke-width="1.5"/>
            <path d="M40.94,36.18a4.28,4.28,0,0,1-.19-6.05,4.23,4.23,0,0,1,1.31-.95,4.28,4.28,0,0,1,2.06,5.69h0a4.16,4.16,0,0,1-.94,1.3,4.28,4.28,0,0,1,.17,6l-.17.17a4.26,4.26,0,0,1,1,4.67,2.31,2.31,0,0,1-3,1.32h0a2.38,2.38,0,0,1-1.28-1.29,4.27,4.27,0,0,1,1-4.69,4.28,4.28,0,0,1-.17-6l.17-.17Z" fill="#614938"/>
            <path d="M42.44,47.46a4.28,4.28,0,0,0-.4-3.94A1.36,1.36,0,0,1,42,42a4.27,4.27,0,0,0,0-4.7,1.36,1.36,0,0,1,0-1.5,4.23,4.23,0,0,0,.74-2.36A4.3,4.3,0,0,0,41,30a4.33,4.33,0,0,1,1.12-.78,4.28,4.28,0,0,1,2.06,5.69h0a4.33,4.33,0,0,1-.94,1.3,4.28,4.28,0,0,1,.17,6l-.17.17a4.28,4.28,0,0,1,1,4.67,2.28,2.28,0,0,1-2.58,1.42A2.46,2.46,0,0,0,42.44,47.46Z" fill="#333"/>
            <path d="M40.94,36.18a4.28,4.28,0,0,1-.19-6.05,4.23,4.23,0,0,1,1.31-.95,4.28,4.28,0,0,1,2.06,5.69h0a4.16,4.16,0,0,1-.94,1.3,4.28,4.28,0,0,1,.17,6l-.17.17a4.26,4.26,0,0,1,1,4.67,2.31,2.31,0,0,1-3,1.32h0a2.38,2.38,0,0,1-1.28-1.29,4.27,4.27,0,0,1,1-4.69,4.28,4.28,0,0,1-.17-6l.17-.17Z" fill="none" stroke="#333" stroke-linecap="round" stroke-linejoin="round" stroke-width="1.5"/>
            <path d="M42.38,42.05a1.25,1.25,0,0,1,.88.4" fill="none" stroke="#333" stroke-linejoin="round" stroke-width="1.5"/>
            <path d="M42.38,35.87a1.25,1.25,0,0,1,.88.4" fill="none" stroke="#333" stroke-linejoin="round" stroke-width="1.5"/>
            <path d="M42.06,48.89a7,7,0,0,1,3.3,3.31,2,2,0,0,1-1.83,2.91h-3a2,2,0,0,1-2-2,2.22,2.22,0,0,1,.15-.8A6.9,6.9,0,0,1,42.06,48.89Z" fill="#614938"/>
            <path d="M43.59,53.93a6.93,6.93,0,0,0-3.3-3.31,6.62,6.62,0,0,0-.9.5,6.83,6.83,0,0,1,2.67-2.24,6.91,6.91,0,0,1,3.29,3.31,2,2,0,0,1-.88,2.69l-.06,0a2,2,0,0,1-.67.19A2,2,0,0,0,43.59,53.93Z" fill="#333"/>
            <path d="M42.06,48.89a7,7,0,0,1,3.3,3.31,2,2,0,0,1-1.83,2.91h-3a2,2,0,0,1-2-2,2.22,2.22,0,0,1,.15-.8A6.9,6.9,0,0,1,42.06,48.89Z" fill="none" stroke="#333" stroke-linecap="round" stroke-linejoin="round" stroke-width="1.5"/>
            <path d="M43.37,49.37H40.72a.5.5,0,0,1-.5-.5V48.5a.5.5,0,0,1,.5-.5h2.65a.5.5,0,0,1,.5.5v.37A.5.5,0,0,1,43.37,49.37Z" fill="none" stroke="#333" stroke-linecap="round" stroke-linejoin="round" stroke-width="1.5"/>
            <path d="M32.27,11.51c8.38,0,10.85,4.89,10.85,10.53,0,.33-.09,1.66-.13,2,1.8,0,2.45,1.85,2.16,4.24-.25,2-1,4.26-3,4.32a6.72,6.72,0,0,1-.1,1.1c-.2,3.13-2.41,5-5.32,8a5,5,0,0,1-4.5,1.82,5,5,0,0,1-4.45-1.83c-2.91-3-5.12-4.87-5.32-8a5.77,5.77,0,0,0-.1-1.1c-1.94-.06-2.71-2.28-3-4.32-.26-2.39.42-4.22,2.19-4.22,0-.33-.13-1.66-.13-2C21.42,16.4,23.88,11.51,32.27,11.51Z" fill="#eed1c9"/>
            <path d="M42.92,24.05c0-.34.13-1.66.13-2h0c0-5.64-2.47-10.53-10.85-10.53a16.59,16.59,0,0,0-2.82.22h0v11a4.09,4.09,0,0,1-1.32,3,.44.44,0,0,0-.16.34.47.47,0,0,0,.36.46,2.68,2.68,0,0,1,2,2,.5.5,0,0,0,.58.4h0a.55.55,0,0,0,.22-.1,1.81,1.81,0,0,1,.61-.33.51.51,0,0,1,.62.36.68.68,0,0,1,0,.14v1.84c0,1,1.36.87.81,1.91a.79.79,0,0,1-.81.47c-.9,0-.86-.29-1.54-.4-.34-.06-.55.22-.55.57,1,0,1,.52,2.09.52v4.61h0a.41.41,0,0,0,.32.39,1.7,1.7,0,0,1,1.26,1.48c0,.67-.37,1.36-1.58,1.6s-2.68-1-3.2,0a.6.6,0,0,0-.06.27c0,.44.34,1.28,3.26,1.28a4.85,4.85,0,0,0,4.43-1.8c2.91-3,5.12-4.87,5.32-8a5.77,5.77,0,0,1,.1-1.1c1.94-.06,2.71-2.28,3-4.32,0-.3.06-.59.07-.87C45.19,25.47,44.5,24.05,42.92,24.05Z" fill="#e5c2ba"/>
            <path d="M43,24.05c0-.33.13-1.66.13-2,0-5.64-2.47-10.53-10.85-10.53S21.42,16.41,21.42,22.05c0,.33.09,1.66.13,2-1.81,0-2.45,1.85-2.16,4.24.25,2,1,4.26,3,4.32,0,.12.05.44.1,1.1.2,3.13,2.26,4.82,5.17,7.85a6.26,6.26,0,0,0,4.65,2,6.15,6.15,0,0,0,4.63-2c2.91-3,5-4.74,5.19-7.87a5.77,5.77,0,0,1,.1-1.1c1.94-.06,2.71-2.28,3-4.32C45.44,25.88,44.78,24.05,43,24.05Z" fill="none" stroke="#333" stroke-linejoin="round" stroke-width="1.5"/>
            <line x1="32.27" y1="34.12" x2="32.27" y2="34.89" fill="none" stroke="#ddb7b1" stroke-linecap="round" stroke-miterlimit="10" stroke-width="0.75"/>
            <path d="M30.18,33.6c1,0,1,.52,2.09.52s1-.52,2.09-.52" fill="none" stroke="#af8582" stroke-linecap="round" stroke-miterlimit="10" stroke-width="0.75"/>
            <circle cx="27.61" cy="28.54" r="0.78" fill="#333"/>
            <path d="M29.49,28.93c-.6-.35-2.16-2.35-4.17-.35a2.42,2.42,0,0,1-.7-.48,4.33,4.33,0,0,1,3.16-.29" fill="#3a3a3a" stroke="#333" stroke-linecap="round" stroke-miterlimit="10" stroke-width="0.52"/>
            <path d="M35.18,28.93c.6-.35,2.16-2.35,4.17-.35a2.42,2.42,0,0,0,.7-.48,4.36,4.36,0,0,0-3.17-.29" fill="#3a3a3a" stroke="#333" stroke-linecap="round" stroke-miterlimit="10" stroke-width="0.52"/>
            <circle cx="37" cy="28.54" r="0.78" fill="#333"/>
            <path d="M24.56,26.15a3.65,3.65,0,0,1,1.37-.56,4.53,4.53,0,0,1,1.47,0c.48.08.94.2,1.39.32a9,9,0,0,0,1.27.29h0a.52.52,0,0,1,.26.7.56.56,0,0,1-.37.3h-.07a9.42,9.42,0,0,1-1.37-.52,12,12,0,0,0-1.25-.49A4,4,0,0,0,26,26.05a1.94,1.94,0,0,0-1.2.39.2.2,0,0,1-.27,0,.19.19,0,0,1,0-.27h0a.18.18,0,0,1,.07-.05Z" fill="#333"/>
            <path d="M39.78,26.45a1.94,1.94,0,0,0-1.2-.39,3.93,3.93,0,0,0-1.27.21c-.42.13-.83.31-1.26.49a8.57,8.57,0,0,1-1.39.51.53.53,0,0,1-.63-.38h0a.53.53,0,0,1,.39-.63h.09A7.79,7.79,0,0,0,35.78,26c.45-.12.91-.25,1.39-.33a4.53,4.53,0,0,1,1.47,0,3.8,3.8,0,0,1,1.37.55.19.19,0,0,1,.08.25.19.19,0,0,1-.26.08h0Z" fill="#333"/>
            <line x1="29.08" y1="36.77" x2="28.74" y2="37.47" fill="none" stroke="#ddb7b1" stroke-linecap="round" stroke-miterlimit="10" stroke-width="0.75"/>
            <line x1="35.45" y1="36.77" x2="35.86" y2="37.6" fill="none" stroke="#ddb7b1" stroke-linecap="round" stroke-miterlimit="10" stroke-width="0.75"/>
            <path d="M33.08,35.93a1.91,1.91,0,0,1-.81.21c-.21,0-.23,0-.7-.21-.84-.33-.88.69-2.43,1.25l1,1a2.24,2.24,0,0,0,1.62.58h1a2.53,2.53,0,0,0,1.74-.63l.89-.94C33.92,36.65,33.91,35.6,33.08,35.93Z" fill="#925140"/>
            <path d="M35.39,37.18c-1,0-1.56-.52-3.12,0h0c-1.55-.52-2.07,0-3.12,0" fill="none" stroke="#743f40" stroke-linecap="round" stroke-miterlimit="10" stroke-width="0.52"/>
            <path d="M32.18,9.84c-8.94,0-12.4,6.86-12.4,11,0,3.58,2.53,5,2.53,7.76V25.37c8.87-.05,11.26-1.52,13.47-4.68A9.57,9.57,0,0,0,41,24.84a1.74,1.74,0,0,1,1.1,1.61v2.11c0-2.28,2.53-4.18,2.53-7.76C44.58,16.7,41.13,9.84,32.18,9.84Z" fill="#614938"/>
            <path d="M22,28.55l-.18-3.21a.47.47,0,0,1,.46-.5h.06a25.15,25.15,0,0,0,7.06-1,12.27,12.27,0,0,0,3.12-1.49c1-.65,1.81-1.44,2.81-2.24h0a.72.72,0,0,1,1,.11.41.41,0,0,1,.07.11,8.67,8.67,0,0,0,3.58,3.47c.19.1.38.21.58.3a6.77,6.77,0,0,1,.66.33,2.67,2.67,0,0,1,1.07,1.25,3.18,3.18,0,0,1,.17,1.53l-.07,1.36a.36.36,0,0,1-.71,0l-.07-1.36a2.41,2.41,0,0,0-.16-1.16,1.69,1.69,0,0,0-.72-.73c-.13-.07-.35-.14-.57-.24l-.65-.28A11.27,11.27,0,0,1,37,23.28a9.22,9.22,0,0,1-1.9-2.23l1.13.19a23.76,23.76,0,0,1-2.9,2.39,13,13,0,0,1-3.57,1.58,23.37,23.37,0,0,1-7.5.61l.51-.5-.15,3.21a.37.37,0,0,1-.37.34A.33.33,0,0,1,22,28.55Z" fill="#333"/>
            <path d="M41.69,29.05a8.33,8.33,0,0,1,1-3.38,17.11,17.11,0,0,0,1.14-3.09,8.72,8.72,0,0,0-1-6.16,10.7,10.7,0,0,0-4.47-4.37,13.16,13.16,0,0,0-6.19-1.38A13.33,13.33,0,0,0,26,12.05a10.77,10.77,0,0,0-4.45,4.42,8.66,8.66,0,0,0-1,6.14,16.68,16.68,0,0,0,1.23,3,7.88,7.88,0,0,1,.89,3.4.37.37,0,0,1-.36.35.35.35,0,0,1-.35-.34h0c-.07-2.12-1.8-3.87-2.41-6.21a9.89,9.89,0,0,1,.88-7,11.85,11.85,0,0,1,4.86-5.15,13.78,13.78,0,0,1,6.89-1.65,13.86,13.86,0,0,1,6.87,1.7,12,12,0,0,1,4.86,5.12A11.45,11.45,0,0,1,45,19.25a8.65,8.65,0,0,1-.18,3.58,18.13,18.13,0,0,1-1.35,3.22,8.06,8.06,0,0,0-1.07,3h0a.36.36,0,0,1-.36.34h0a.32.32,0,0,1-.35-.29Z" fill="#333"/>
            <path d="M42.37,14.57A11.79,11.79,0,0,0,35,12.36a15.45,15.45,0,0,0-3.18,1c-3.23,1-11.11,7.5-11.11,11,.72,1.41,1.6,2.58,1.6,4.19V25.37c8.87-.05,11.26-1.52,13.47-4.68A9.57,9.57,0,0,0,41,24.84a1.74,1.74,0,0,1,1.1,1.61v2.11c0-2.28,2.53-4.18,2.53-7.76A10.91,10.91,0,0,0,42.37,14.57Z" fill="#333"/>
            <path d="M39.87,16.14a22.79,22.79,0,0,0-7.5-3.38.8.8,0,0,1-.48-1,.82.82,0,0,1,.89-.52h.14A23.67,23.67,0,0,1,39.87,16.14Z" fill="#614938"/>
            <path d="M19.86,23.39a14.53,14.53,0,0,1,1-2.72,15.56,15.56,0,0,1,1.45-2.41,13.93,13.93,0,0,1,1.81-2.1,16,16,0,0,1,2.13-1.71,13.79,13.79,0,0,0-3.08,4.29,15.34,15.34,0,0,0-.91,2.45,12.35,12.35,0,0,0-.46,2.47Z" fill="#333"/>
            <path d="M40.05,20.05a14.16,14.16,0,0,0-3.87-3.92,19.87,19.87,0,0,0-2.35-1.39,20.68,20.68,0,0,0-2.5-1h0a.8.8,0,0,1,.55-1.51l.1,0a27.14,27.14,0,0,1,2.48,1.49,20.39,20.39,0,0,1,2.25,1.8A14.28,14.28,0,0,1,40.05,20.05Z" fill="#614938"/>
            <path d="M25.78,24.1c1.59-1.23,3.18-2.2,4.76-3.23l2.38-1.51c.8-.5,1.58-1,2.47-1.54a8.36,8.36,0,0,1-1.72,2.44,12.27,12.27,0,0,1-2.32,1.87,13.45,13.45,0,0,1-2.66,1.32A9.38,9.38,0,0,1,25.78,24.1Z" fill="#614938"/>
          </g>
        </g>
      </g>
      <path d="M37.76,32.22a5.2,5.2,0,0,1,2.23,7,4.74,4.74,0,0,1-.66,1c-.82,1-6.44,9.31-14.3,0a5.21,5.21,0,0,1,.61-7.35,5.3,5.3,0,0,1,1-.65L30.94,30a2.75,2.75,0,0,1,2.5,0Z" fill="#fff"/>
      <path d="M24.6,34.09A21.79,21.79,0,0,1,21,25.2" fill="#fff" stroke="#333" stroke-linecap="round" stroke-linejoin="round" stroke-width="1.5"/>
      <path d="M40,34.09A21.79,21.79,0,0,0,43.6,25.2" fill="#fff" stroke="#333" stroke-linecap="round" stroke-linejoin="round" stroke-width="1.5"/>
      <line x1="23.8" y1="36.73" x2="22.23" y2="35.87" fill="none" stroke="#333" stroke-linecap="round" stroke-linejoin="round" stroke-width="1.5"/>
      <line x1="40.82" y1="36.73" x2="42.39" y2="35.87" fill="none" stroke="#333" stroke-linecap="round" stroke-linejoin="round" stroke-width="1.5"/>
      <path d="M37.76,32.22,33.45,30A2.69,2.69,0,0,0,31,30l-4.33,2.24A5.17,5.17,0,0,0,24,35.59,5.1,5.1,0,0,0,25,37.67c7.86,9.32,13.48,1,14.3,0a5.16,5.16,0,0,0,1.08-2.09A5.11,5.11,0,0,0,37.76,32.22Z" fill="#fff"/>
      <path d="M37.76,32.22,33.45,30a2.63,2.63,0,0,0-1.13-.29h0v7.64c0,2,2.1,1.53.83,3.93-2,3.67-6.77-2.77-6.77.39,0,.11,2.82,2,2.81,2.1,5.65,2.94,9.5-2.73,10.16-3.51a5.21,5.21,0,0,0-.58-7.35A4.74,4.74,0,0,0,37.76,32.22Z" fill="#eee"/>
      <path d="M24,35.5a18.22,18.22,0,0,0,8.33,2.17,16.56,16.56,0,0,0,8.07-2.17" fill="none" stroke="#ddd" stroke-miterlimit="10" stroke-width="0.96"/>
      <path d="M24,37.63a18.22,18.22,0,0,0,8.33,2.17,16.56,16.56,0,0,0,8.07-2.17" fill="none" stroke="#ddd" stroke-miterlimit="10" stroke-width="0.96"/>
      <path d="M37.76,32.22a5.2,5.2,0,0,1,2.23,7,4.74,4.74,0,0,1-.66,1c-.82,1-6.44,9.31-14.3,0a5.21,5.21,0,0,1,.61-7.35,5.3,5.3,0,0,1,1-.65L30.94,30a2.75,2.75,0,0,1,2.5,0Z" fill="none" stroke="#333" stroke-linejoin="round" stroke-width="1.5"/>
    </g>
  </g>
</svg>
