<svg xmlns="http://www.w3.org/2000/svg" viewBox="0 0 64 64"><title>avatar-pirate-woman-african</title><g id="avatar-pirate-beard-man-asian"><path d="M24.2125,52.0311a55.9471,55.9471,0,0,0,11.3381,1.1852,55.9953,55.9953,0,0,0,11.4426-1.21L44.9106,48.84l6.29-1.82c-2.71-5.1258-4.4854-17.0025-15.59-17.0025s-12.88,11.8767-15.59,17.0025l6.29,1.82Z" style="fill:#333"/><polyline points="29.551 41.716 29.551 35.746 41.551 35.746 41.551 41.716" style="fill:none;stroke:#333;stroke-linejoin:round;stroke-width:1.4999971369023px"/><path d="M57.6728,46.4866a4.4876,4.4876,0,0,0-3.2959-3.4641,75.3754,75.3754,0,0,0-11.6785-2.4156,1.29,1.29,0,0,1-1.1478-1.2748V35.7163h-12v3.6318a1.29,1.29,0,0,1-1.145,1.2747,75.596,75.596,0,0,0-11.5409,2.4,4.4875,4.4875,0,0,0-3.2958,3.4641c-.1439.7181-.1356.7106-.4036,2.3136,1.0642.65,10.6027,4.734,22.4555,4.734S57.0121,49.45,58.0764,48.8C57.8083,47.1972,57.8167,47.2047,57.6728,46.4866Z" style="fill:#aa8064"/><path d="M54.3769,45.5191c-1.48-.3743-6.0132,2.052-10.962,4.748a15.5823,15.5823,0,0,1-14.8385.0307c-4.99-2.6852-10.238-5.1514-11.7117-4.7787a4.4877,4.4877,0,0,0-3.2958,3.4641l-.005.0251a56.3439,56.3439,0,0,0,22.0569,4.5259,56.3439,56.3439,0,0,0,22.0569-4.5259l-.0049-.0251A4.4878,4.4878,0,0,0,54.3769,45.5191Z" style="fill:#966d56"/><path d="M29.5506,35.7163v.822L45.8777,52.565A47.76,47.76,0,0,0,58.0764,48.8c-.2681-1.603-.26-1.5955-.4036-2.3136a4.4876,4.4876,0,0,0-3.2959-3.4641,75.35,75.35,0,0,0-11.6785-2.4156,1.29,1.29,0,0,1-1.1478-1.2749V35.7163Z" style="fill:#a0775c"/><path d="M54.3769,45.5191c-1.4718-.3722-5.9655,2.0266-10.8836,4.7053l2.38,2.3361a51.4771,51.4771,0,0,0,11.8045-3.5522A4.7125,4.7125,0,0,0,54.3769,45.5191Z" style="fill:#ddb9b3"/><path d="M45.7113,41.0329c-.9465-.1567-1.9526-.3018-3.0129-.426a1.29,1.29,0,0,1-1.1478-1.2748V35.7163h-12v3.6318a1.29,1.29,0,0,1-1.145,1.2747c-1.1149.1331-2.1692.289-3.1564.4569" style="fill:none;stroke:#333;stroke-linecap:round;stroke-linejoin:round;stroke-width:1.28061247640505px"/><path d="M39.5374,53.06a53.5265,53.5265,0,0,0,18.4687-4.578c-.268-1.603-.26-1.5955-.4036-2.3136a4.4877,4.4877,0,0,0-3.2958-3.4641,78.3528,78.3528,0,0,0-10.27-2.2358l-.0359.3232A25.4907,25.4907,0,0,1,39.5374,53.06Z" style="fill:#75402e"/><line x1="51.4867" y1="41.9874" x2="48.7766" y2="41.3396" style="fill:none;stroke:#ce9b69;stroke-miterlimit:10;stroke-width:1.5px"/><path d="M27.0843,41.1187l-.0441-.3219a78.4014,78.4014,0,0,0-10.2457,2.2325,4.4878,4.4878,0,0,0-3.2959,3.4641c-.1439.7181-.1355.7106-.4036,2.3136a53.5157,53.5157,0,0,0,18.45,4.5769v-.0017A25.49,25.49,0,0,1,27.0843,41.1187Z" style="fill:#75402e"/><line x1="19.4741" y1="41.9874" x2="23.0589" y2="41.1305" style="fill:none;stroke:#ce9b69;stroke-miterlimit:10;stroke-width:1.5px"/><path d="M39.5343,53.0652a55.4111,55.4111,0,0,0,18.114-4.3942c-.0136-.0694-.0285-.1442-.0458-.23a4.4877,4.4877,0,0,0-3.2958-3.4641A77.5472,77.5472,0,0,0,43.7623,42.7,25.9259,25.9259,0,0,1,39.5343,53.0652Z" style="fill:#462312"/><path d="M37.5785,53.1766c.2391-.0093.4706-.0277.7074-.04C38.0492,53.1489,37.8175,53.1673,37.5785,53.1766Z" style="fill:#462312"/><path d="M32.81,53.1363c.2357.0122.4661.0309.7041.04C33.2761,53.1672,33.0457,53.1486,32.81,53.1363Z" style="fill:#462312"/><path d="M31.5453,53.0574a25.9228,25.9228,0,0,1-4.2218-10.3548,77.5781,77.5781,0,0,0-10.529,2.2738,4.4878,4.4878,0,0,0-3.2959,3.4641c-.0173.0863-.0321.1611-.0458.23a55.4,55.4,0,0,0,18.092,4.3929Z" style="fill:#462312"/><path d="M20.4251,47.1375l5.4292,1.5706a.3509.3509,0,0,1,.1956.53l-1.8375,2.7931a56.9758,56.9758,0,0,0,7.3326,1.0265,29.8341,29.8341,0,0,1-4.4834-12.5523l1.2049-.0185a1.0127,1.0127,0,0,0,.997-1.0126V31.5311C23.5728,34.7952,22.2341,42.5354,20.21,46.65A.3444.3444,0,0,0,20.4251,47.1375Z" style="fill:#bcbcbe"/><path d="M29.5506,31.5311c-5.6911,3.2643-7.3167,11.0052-9.3413,15.12a.3443.3443,0,0,0,.2158.4865l5.4292,1.5706a.3509.3509,0,0,1,.1956.53l-1.8375,2.7931" style="fill:none;stroke:#333;stroke-linecap:round;stroke-linejoin:round;stroke-width:1.28061247640505px"/><path d="M39.4975,53.061a57.1165,57.1165,0,0,0,7.34-1.0214L44.9949,49.238a.3509.3509,0,0,1,.1957-.53L50.62,47.1375a.3442.3442,0,0,0,.2158-.4865c-2.0246-4.1147-3.33-11.8556-9.0211-15.12V40.183l2.289.61C43.8241,45.5976,41.6968,49.7386,39.4975,53.061Z" style="fill:#bcbcbe"/><path d="M46.838,52.04,44.9949,49.238a.3509.3509,0,0,1,.1957-.53L50.62,47.1375a.3442.3442,0,0,0,.2158-.4865c-2.0246-4.1147-3.65-11.8556-9.3412-15.12" style="fill:none;stroke:#333;stroke-linecap:round;stroke-linejoin:round;stroke-width:1.28061247640505px"/><path d="M44.1034,38.3784a25.3625,25.3625,0,0,1-4.5781,14.701" style="fill:none;stroke:#333;stroke-linecap:round;stroke-linejoin:round;stroke-width:1.28061247640505px"/><path d="M26.9818,38.3784a25.3537,25.3537,0,0,0,4.5635,14.679" style="fill:none;stroke:#333;stroke-linecap:round;stroke-linejoin:round;stroke-width:1.28061247640505px"/><path d="M16.8647,43.0225a4.4875,4.4875,0,0,0-3.2958,3.4641c-.1439.7181-.1356.7106-.4036,2.3136,1.0642.65,10.6027,4.734,22.4555,4.734S57.0121,49.45,58.0764,48.8c-.2681-1.603-.26-1.5955-.4036-2.3136a4.4876,4.4876,0,0,0-3.2959-3.4641" style="fill:none;stroke:#333;stroke-linecap:round;stroke-linejoin:round;stroke-width:1.28061247640505px"/><path d="M52.716,45.2615a.375.375,0,0,0,.2764-.6284l-.4014-.4375a.3749.3749,0,1,0-.5527.5068l.4013.4375A.3751.3751,0,0,0,52.716,45.2615Z" style="fill:#dcaa7b"/><path d="M52.716,44.3471a.375.375,0,0,0,.2764-.6284l-.4014-.4375a.3749.3749,0,1,0-.5527.5068l.4013.4375A.3751.3751,0,0,0,52.716,44.3471Z" style="fill:#dcaa7b"/><path d="M52.716,46.1759a.375.375,0,0,0,.2764-.6284L52.591,45.11a.3749.3749,0,0,0-.5527.5068l.4013.4375A.3751.3751,0,0,0,52.716,46.1759Z" style="fill:#dcaa7b"/><path d="M52.716,47.09a.375.375,0,0,0,.2764-.6284l-.4014-.4375a.375.375,0,1,0-.5527.5069l.4013.4375A.3754.3754,0,0,0,52.716,47.09Z" style="fill:#dcaa7b"/><path d="M52.716,48.0048a.3751.3751,0,0,0,.2764-.6285l-.4014-.4375a.375.375,0,0,0-.5527.5069l.4013.4375A.3755.3755,0,0,0,52.716,48.0048Z" style="fill:#dcaa7b"/><path d="M52.716,48.9192a.3751.3751,0,0,0,.2764-.6285l-.4014-.4374a.3749.3749,0,1,0-.5527.5068l.4013.4375A.3751.3751,0,0,0,52.716,48.9192Z" style="fill:#dcaa7b"/><path d="M54.216,45.2615a.375.375,0,0,0,.2764-.6284l-.4014-.4375a.3749.3749,0,1,0-.5527.5068l.4013.4375A.375.375,0,0,0,54.216,45.2615Z" style="fill:#dcaa7b"/><path d="M54.216,44.3471a.375.375,0,0,0,.2764-.6284l-.4014-.4375a.3749.3749,0,1,0-.5527.5068l.4013.4375A.375.375,0,0,0,54.216,44.3471Z" style="fill:#dcaa7b"/><path d="M54.216,46.1759a.375.375,0,0,0,.2764-.6284L54.091,45.11a.3749.3749,0,0,0-.5527.5068l.4013.4375A.375.375,0,0,0,54.216,46.1759Z" style="fill:#dcaa7b"/><path d="M54.216,47.09a.375.375,0,0,0,.2764-.6284l-.4014-.4375a.375.375,0,1,0-.5527.5069l.4013.4375A.3752.3752,0,0,0,54.216,47.09Z" style="fill:#dcaa7b"/><path d="M54.216,48.0048a.3751.3751,0,0,0,.2764-.6285l-.4014-.4375a.375.375,0,0,0-.5527.5069l.4013.4375A.3753.3753,0,0,0,54.216,48.0048Z" style="fill:#dcaa7b"/><path d="M54.216,48.9192a.3751.3751,0,0,0,.2764-.6285l-.4014-.4374a.3749.3749,0,1,0-.5527.5068l.4013.4375A.375.375,0,0,0,54.216,48.9192Z" style="fill:#dcaa7b"/><path d="M55.716,45.2615a.375.375,0,0,0,.2764-.6284l-.4014-.4375a.3749.3749,0,1,0-.5527.5068l.4013.4375A.375.375,0,0,0,55.716,45.2615Z" style="fill:#dcaa7b"/><path d="M55.716,44.3471a.375.375,0,0,0,.2764-.6284l-.4014-.4375a.3749.3749,0,1,0-.5527.5068l.4013.4375A.375.375,0,0,0,55.716,44.3471Z" style="fill:#dcaa7b"/><path d="M55.716,46.1759a.375.375,0,0,0,.2764-.6284L55.591,45.11a.3749.3749,0,0,0-.5527.5068l.4013.4375A.375.375,0,0,0,55.716,46.1759Z" style="fill:#dcaa7b"/><path d="M55.716,47.09a.375.375,0,0,0,.2764-.6284l-.4014-.4375a.375.375,0,1,0-.5527.5069l.4013.4375A.3752.3752,0,0,0,55.716,47.09Z" style="fill:#dcaa7b"/><path d="M55.716,48.0048a.3751.3751,0,0,0,.2764-.6285l-.4014-.4375a.375.375,0,0,0-.5527.5069l.4013.4375A.3753.3753,0,0,0,55.716,48.0048Z" style="fill:#dcaa7b"/><path d="M55.716,48.9192a.3751.3751,0,0,0,.2764-.6285l-.4014-.4374a.3749.3749,0,1,0-.5527.5068l.4013.4375A.375.375,0,0,0,55.716,48.9192Z" style="fill:#dcaa7b"/><path d="M57.216,45.2615a.375.375,0,0,0,.2764-.6284l-.4014-.4375a.3749.3749,0,1,0-.5527.5068l.4013.4375A.375.375,0,0,0,57.216,45.2615Z" style="fill:#dcaa7b"/><path d="M57.216,44.3471a.375.375,0,0,0,.2764-.6284l-.4014-.4375a.3749.3749,0,1,0-.5527.5068l.4013.4375A.375.375,0,0,0,57.216,44.3471Z" style="fill:#dcaa7b"/><path d="M57.216,46.1759a.375.375,0,0,0,.2764-.6284L57.091,45.11a.3749.3749,0,0,0-.5527.5068l.4013.4375A.375.375,0,0,0,57.216,46.1759Z" style="fill:#dcaa7b"/><path d="M57.216,47.09a.375.375,0,0,0,.2764-.6284l-.4014-.4375a.375.375,0,1,0-.5527.5069l.4013.4375A.3752.3752,0,0,0,57.216,47.09Z" style="fill:#dcaa7b"/><path d="M57.216,48.0048a.3751.3751,0,0,0,.2764-.6285l-.4014-.4375a.375.375,0,0,0-.5527.5069l.4013.4375A.3753.3753,0,0,0,57.216,48.0048Z" style="fill:#dcaa7b"/><path d="M57.216,48.9192a.3751.3751,0,0,0,.2764-.6285l-.4014-.4374a.3749.3749,0,1,0-.5527.5068l.4013.4375A.375.375,0,0,0,57.216,48.9192Z" style="fill:#dcaa7b"/><path d="M58.716,45.2615a.375.375,0,0,0,.2764-.6284l-.4014-.4375a.3749.3749,0,1,0-.5527.5068l.4013.4375A.375.375,0,0,0,58.716,45.2615Z" style="fill:#dcaa7b"/><path d="M58.716,44.3471a.375.375,0,0,0,.2764-.6284l-.4014-.4375a.3749.3749,0,1,0-.5527.5068l.4013.4375A.375.375,0,0,0,58.716,44.3471Z" style="fill:#dcaa7b"/><path d="M58.716,46.1759a.375.375,0,0,0,.2764-.6284L58.591,45.11a.3749.3749,0,0,0-.5527.5068l.4013.4375A.375.375,0,0,0,58.716,46.1759Z" style="fill:#dcaa7b"/><path d="M58.716,47.09a.375.375,0,0,0,.2764-.6284l-.4014-.4375a.375.375,0,0,0-.5527.5069l.4013.4375A.3752.3752,0,0,0,58.716,47.09Z" style="fill:#dcaa7b"/><path d="M58.716,48.0048a.3751.3751,0,0,0,.2764-.6285l-.4014-.4375a.375.375,0,1,0-.5527.5069l.4013.4375A.3753.3753,0,0,0,58.716,48.0048Z" style="fill:#dcaa7b"/><path d="M58.716,48.9192a.3751.3751,0,0,0,.2764-.6285l-.4014-.4374a.3749.3749,0,1,0-.5527.5068l.4013.4375A.375.375,0,0,0,58.716,48.9192Z" style="fill:#dcaa7b"/><path d="M51.5388,41.6448h8.25a0,0,0,0,1,0,0V44.051a0,0,0,0,1,0,0h-6.44a1.81,1.81,0,0,1-1.81-1.81v-.5964A0,0,0,0,1,51.5388,41.6448Z" transform="translate(99.286 97.9071) rotate(-165.9768)" style="fill:#ce9b69;stroke:#ce9b69;stroke-linejoin:round"/><path d="M29.5506,35.7163v3.6318a1.29,1.29,0,0,1-1.145,1.2747q-.6693.08-1.3091.17" style="fill:none;stroke:#333;stroke-linecap:round;stroke-linejoin:round;stroke-width:1.28061247640505px"/><path d="M41.5578,35.7163v3.6318a1.29,1.29,0,0,0,1.1449,1.2747q.6693.08,1.3091.17" style="fill:none;stroke:#333;stroke-linecap:round;stroke-linejoin:round;stroke-width:1.28061247640505px"/><path d="M18.3851,45.2615a.3749.3749,0,0,1-.2763-.6284l.4013-.4375a.375.375,0,0,1,.5528.5068l-.4014.4375A.375.375,0,0,1,18.3851,45.2615Z" style="fill:#dcaa7b"/><path d="M18.3851,44.3471a.3749.3749,0,0,1-.2763-.6284l.4013-.4375a.375.375,0,0,1,.5528.5068l-.4014.4375A.375.375,0,0,1,18.3851,44.3471Z" style="fill:#dcaa7b"/><path d="M18.3851,46.1759a.3749.3749,0,0,1-.2763-.6284L18.51,45.11a.375.375,0,0,1,.5528.5068l-.4014.4375A.375.375,0,0,1,18.3851,46.1759Z" style="fill:#dcaa7b"/><path d="M18.3851,47.09a.3749.3749,0,0,1-.2763-.6284l.4013-.4375a.375.375,0,0,1,.5528.5069l-.4014.4375A.3752.3752,0,0,1,18.3851,47.09Z" style="fill:#dcaa7b"/><path d="M18.3851,48.0048a.3751.3751,0,0,1-.2763-.6285l.4013-.4375a.375.375,0,0,1,.5528.5069l-.4014.4375A.3753.3753,0,0,1,18.3851,48.0048Z" style="fill:#dcaa7b"/><path d="M18.3851,48.9192a.3751.3751,0,0,1-.2763-.6285l.4013-.4374a.375.375,0,0,1,.5528.5068l-.4014.4375A.375.375,0,0,1,18.3851,48.9192Z" style="fill:#dcaa7b"/><path d="M16.8851,45.2615a.3749.3749,0,0,1-.2763-.6284l.4013-.4375a.375.375,0,0,1,.5528.5068l-.4014.4375A.375.375,0,0,1,16.8851,45.2615Z" style="fill:#dcaa7b"/><path d="M16.8851,44.3471a.3749.3749,0,0,1-.2763-.6284l.4013-.4375a.375.375,0,0,1,.5528.5068l-.4014.4375A.375.375,0,0,1,16.8851,44.3471Z" style="fill:#dcaa7b"/><path d="M16.8851,46.1759a.3749.3749,0,0,1-.2763-.6284L17.01,45.11a.375.375,0,0,1,.5528.5068l-.4014.4375A.375.375,0,0,1,16.8851,46.1759Z" style="fill:#dcaa7b"/><path d="M16.8851,47.09a.3749.3749,0,0,1-.2763-.6284l.4013-.4375a.375.375,0,0,1,.5528.5069l-.4014.4375A.3752.3752,0,0,1,16.8851,47.09Z" style="fill:#dcaa7b"/><path d="M16.8851,48.0048a.3751.3751,0,0,1-.2763-.6285l.4013-.4375a.375.375,0,0,1,.5528.5069l-.4014.4375A.3753.3753,0,0,1,16.8851,48.0048Z" style="fill:#dcaa7b"/><path d="M16.8851,48.9192a.3751.3751,0,0,1-.2763-.6285l.4013-.4374a.375.375,0,0,1,.5528.5068l-.4014.4375A.375.375,0,0,1,16.8851,48.9192Z" style="fill:#dcaa7b"/><path d="M15.3851,45.2615a.3749.3749,0,0,1-.2763-.6284l.4013-.4375a.375.375,0,0,1,.5528.5068l-.4014.4375A.375.375,0,0,1,15.3851,45.2615Z" style="fill:#dcaa7b"/><path d="M15.3851,44.3471a.3749.3749,0,0,1-.2763-.6284l.4013-.4375a.375.375,0,0,1,.5528.5068l-.4014.4375A.375.375,0,0,1,15.3851,44.3471Z" style="fill:#dcaa7b"/><path d="M15.3851,46.1759a.3749.3749,0,0,1-.2763-.6284L15.51,45.11a.375.375,0,0,1,.5528.5068l-.4014.4375A.375.375,0,0,1,15.3851,46.1759Z" style="fill:#dcaa7b"/><path d="M15.3851,47.09a.3749.3749,0,0,1-.2763-.6284l.4013-.4375a.375.375,0,0,1,.5528.5069l-.4014.4375A.3752.3752,0,0,1,15.3851,47.09Z" style="fill:#dcaa7b"/><path d="M15.3851,48.0048a.3751.3751,0,0,1-.2763-.6285l.4013-.4375a.375.375,0,0,1,.5528.5069l-.4014.4375A.3753.3753,0,0,1,15.3851,48.0048Z" style="fill:#dcaa7b"/><path d="M15.3851,48.9192a.3751.3751,0,0,1-.2763-.6285l.4013-.4374a.375.375,0,0,1,.5528.5068l-.4014.4375A.375.375,0,0,1,15.3851,48.9192Z" style="fill:#dcaa7b"/><path d="M13.8851,45.2615a.3749.3749,0,0,1-.2763-.6284l.4013-.4375a.375.375,0,1,1,.5528.5068l-.4014.4375A.375.375,0,0,1,13.8851,45.2615Z" style="fill:#dcaa7b"/><path d="M13.8851,44.3471a.3749.3749,0,0,1-.2763-.6284l.4013-.4375a.375.375,0,1,1,.5528.5068l-.4014.4375A.375.375,0,0,1,13.8851,44.3471Z" style="fill:#dcaa7b"/><path d="M13.8851,46.1759a.3749.3749,0,0,1-.2763-.6284L14.01,45.11a.375.375,0,0,1,.5528.5068l-.4014.4375A.375.375,0,0,1,13.8851,46.1759Z" style="fill:#dcaa7b"/><path d="M13.8851,47.09a.3749.3749,0,0,1-.2763-.6284l.4013-.4375a.375.375,0,0,1,.5528.5069l-.4014.4375A.3752.3752,0,0,1,13.8851,47.09Z" style="fill:#dcaa7b"/><path d="M13.8851,48.0048a.3751.3751,0,0,1-.2763-.6285l.4013-.4375a.375.375,0,0,1,.5528.5069l-.4014.4375A.3753.3753,0,0,1,13.8851,48.0048Z" style="fill:#dcaa7b"/><path d="M13.8851,48.9192a.3751.3751,0,0,1-.2763-.6285l.4013-.4374a.375.375,0,1,1,.5528.5068l-.4014.4375A.375.375,0,0,1,13.8851,48.9192Z" style="fill:#dcaa7b"/><path d="M12.3851,45.2615a.3749.3749,0,0,1-.2763-.6284l.4013-.4375a.375.375,0,1,1,.5528.5068l-.4014.4375A.375.375,0,0,1,12.3851,45.2615Z" style="fill:#dcaa7b"/><path d="M12.3851,44.3471a.3749.3749,0,0,1-.2763-.6284l.4013-.4375a.375.375,0,1,1,.5528.5068l-.4014.4375A.375.375,0,0,1,12.3851,44.3471Z" style="fill:#dcaa7b"/><path d="M12.3851,46.1759a.3749.3749,0,0,1-.2763-.6284L12.51,45.11a.375.375,0,0,1,.5528.5068l-.4014.4375A.375.375,0,0,1,12.3851,46.1759Z" style="fill:#dcaa7b"/><path d="M12.3851,47.09a.3749.3749,0,0,1-.2763-.6284l.4013-.4375a.375.375,0,0,1,.5528.5069l-.4014.4375A.3752.3752,0,0,1,12.3851,47.09Z" style="fill:#dcaa7b"/><path d="M12.3851,48.0048a.3751.3751,0,0,1-.2763-.6285l.4013-.4375a.375.375,0,0,1,.5528.5069l-.4014.4375A.3753.3753,0,0,1,12.3851,48.0048Z" style="fill:#dcaa7b"/><path d="M12.3851,48.9192a.3751.3751,0,0,1-.2763-.6285l.4013-.4374a.375.375,0,1,1,.5528.5068l-.4014.4375A.375.375,0,0,1,12.3851,48.9192Z" style="fill:#dcaa7b"/><path d="M13.1221,41.6448h6.44a0,0,0,0,1,0,0V44.051a0,0,0,0,1,0,0h-8.25a0,0,0,0,1,0,0v-.5964A1.81,1.81,0,0,1,13.1221,41.6448Z" transform="translate(-9.9226 5.0177) rotate(-14.0232)" style="fill:#ce9b69;stroke:#ce9b69;stroke-linejoin:round"/><path d="M37.5291,18.4847l-11.8352.93c-3.8807,5.2239-2.2143,12.5068-.99,16.0266h15.825C40.5292,29.0482,45.9233,21.3416,37.5291,18.4847Z" style="fill:#444;stroke:#333;stroke-linejoin:round;stroke-width:1.5px"/><path d="M45.0841,28.2417l-.56,3a6.52,6.52,0,0,1-2.37,3.93l-2.56,2a6.52,6.52,0,0,1-8,0l-2.56-2a6.47,6.47,0,0,1-2.37-3.93l-.56-3c-1.84-.08-2.76-2.06-3-4-.28-2.29.76-4,2.49-4v-2c0-5.41,2-10.51,10-10.51s10,5.1,10,10.51v2c1.73,0,2.79,1.71,2.51,4-.23,1.91-1.21,3.87-3,4Z" style="fill:#aa8064"/><path d="M45.5841,20.2517v-2c0-5.41-2-10.51-10-10.51s-10,5.1-10,10.51v2c-1.73,0-2.77,1.71-2.49,4,.24,1.94,1.16,3.92,3,4l.56,3a6.47,6.47,0,0,0,2.37,3.93l.24.18c-4.85-15.93,7.88-16.62,10-20,.91,2.73,7.13,5.13,8.53,10.06a7.8538,7.8538,0,0,0,.25-1.17C48.3641,21.9617,47.3041,20.2517,45.5841,20.2517Z" style="fill:#a0775c"/><path d="M45.5841,20.2517v-2c0-5.41-2-10.51-10-10.51a15.524,15.524,0,0,0-2.77.24v10.37a3.9,3.9,0,0,1-1.23,2.88.45.45,0,0,0,.2.77,2.57,2.57,0,0,1,1.8,1.9.49.49,0,0,0,.77.29,1.79,1.79,0,0,1,.59-.32.49.49,0,0,1,.61.48v2.05a1.09,1.09,0,0,0,.62.93c.58.32.17,1.41-.62,1.41h0a1.6894,1.6894,0,0,1-.89-.23c-.74-.37-1.43.39-1.28.68s.34,0,1.09.34a2.3393,2.3393,0,0,0,1.1.27v3.68a.38.38,0,0,0,.31.37c1.31.31,2,2.49-.31,3h0a1.24,1.24,0,0,0-1,1.21v.45a6.51,6.51,0,0,0,5-1.3l2.56-2a6.52,6.52,0,0,0,2.37-3.93l.56-3h0c1.79-.12,2.77-2.08,3-4C48.3641,21.9617,47.3041,20.2517,45.5841,20.2517Z" style="fill:#a0775c"/><path d="M41.9038,24.4908s-1.2286-.8727-2.07-.5272a3.57,3.57,0,0,0-1.31.9209s.2933.4738,1.75.4A2.2862,2.2862,0,0,0,41.9038,24.4908Z" style="fill:#eee"/><circle cx="40.0323" cy="24.7368" r="0.75" style="fill:#333"/><path d="M38.2223,25.1068c.58-.33,2.07-2.25,4-.33a2.4719,2.4719,0,0,0,.67-.46,4.12,4.12,0,0,0-3-.28" style="fill:#333;stroke:#333;stroke-linecap:round;stroke-miterlimit:10;stroke-width:0.499999045634099px"/><path d="M29.2046,24.4908s1.2285-.8727,2.07-.5272a3.5712,3.5712,0,0,1,1.31.9209s-.2934.4738-1.75.4A2.2859,2.2859,0,0,1,29.2046,24.4908Z" style="fill:#eee"/><circle cx="31.076" cy="24.7368" r="0.75" style="fill:#333"/><path d="M32.886,25.1068c-.58-.33-2.07-2.25-4-.33a2.4719,2.4719,0,0,1-.67-.46,4.12,4.12,0,0,1,3-.28" style="fill:#333;stroke:#333;stroke-linecap:round;stroke-miterlimit:10;stroke-width:0.499999045634099px"/><path d="M28.156,22.4468a3.37,3.37,0,0,1,1.31-.54,4.44,4.44,0,0,1,1.41,0c.46.08.9.2,1.33.31a8.5,8.5,0,0,0,1.22.29h0a.503.503,0,0,1-.11,1h-.07a9.1262,9.1262,0,0,1-1.32-.5,11.8629,11.8629,0,0,0-1.2-.47,3.9974,3.9974,0,0,0-1.18-.18,1.81,1.81,0,0,0-1.15.38.18.18,0,1,1-.22-.28Z" style="fill:#333"/><path d="M42.736,22.7368a1.85,1.85,0,0,0-1.19-.38,3.9986,3.9986,0,0,0-1.22.2c-.41.13-.8.3-1.21.47a7.1015,7.1015,0,0,1-1.33.49.51.51,0,0,1-.61-.38.5.5,0,0,1,.3757-.5991l.0043-.0009h.08a6.7764,6.7764,0,0,0,1.25-.3,11.202,11.202,0,0,1,1.33-.31,4.1667,4.1667,0,0,1,1.41,0,3.2678,3.2678,0,0,1,1.31.53.17.17,0,0,1,.0652.2314l-.0052.0086a.18.18,0,0,1-.2469.0619l-.0031-.0019Z" style="fill:#333"/><path d="M46.4923,22.111a1.0014,1.0014,0,0,1-.957-.7115c-.2256-.7475-3.4321-2.2124-9.8232-2.2124-5.9781,0-9.3765,1.3262-9.791,2.2227a1,1,0,0,1-1.8155-.84c1.1553-2.497,6.9741-3.3828,11.6065-3.3828,4.9086,0,10.9286.9517,11.7382,3.6343a1.0006,1.0006,0,0,1-.6684,1.2466A1.0133,1.0133,0,0,1,46.4923,22.111Z" style="fill:#ddad8a"/><line x1="35.5507" y1="29.9761" x2="35.5507" y2="30.7197" style="fill:none;stroke:#936b55;stroke-linecap:round;stroke-miterlimit:10;stroke-width:0.75px"/><path d="M45.0841,28.2417l-.56,3a6.52,6.52,0,0,1-2.37,3.93l-2.56,2a6.52,6.52,0,0,1-8,0l-2.56-2a6.47,6.47,0,0,1-2.37-3.93l-.56-3c-1.84-.08-2.76-2.06-3-4-.28-2.29.76-4,2.49-4v-2c0-5.41,2-10.51,10-10.51s10,5.1,10,10.51v2c1.73,0,2.79,1.71,2.51,4-.23,1.91-1.21,3.87-3,4Z" style="fill:none;stroke:#333;stroke-linejoin:round;stroke-width:1.4999971369023px"/><path d="M31.7306,17.6908c-3.6066,2.62-6.7331,7.0083-7.0264,17.7509-1.2246-3.52-2.094-11.2185.99-16.0266A17.5054,17.5054,0,0,1,31.7306,17.6908Z" style="fill:#5b442d"/><path d="M25.6939,19.4151c-3.8808,5.2237-2.2143,12.5066-.99,16.0266h0c-.1564-11.79,4.51-14.5173,8.88-17.7175C33.5839,17.7242,30.703,17.2481,25.6939,19.4151Z" style="fill:#444"/><path d="M25.6939,19.4151c-3.8808,5.2238-2.2143,12.5066-.99,16.0266.1532-12.6348,4.8089-14.7287,9.1787-17.9289A21.5938,21.5938,0,0,0,25.6939,19.4151Z" style="fill:none;stroke:#333;stroke-linecap:round;stroke-linejoin:round;stroke-width:1.42900504871362px"/><line x1="32.5842" y1="32.192" x2="32.0842" y2="33.192" style="fill:none;stroke:#936b55;stroke-linecap:round;stroke-miterlimit:10;stroke-width:0.75px"/><line x1="38.6307" y1="31.471" x2="39.1307" y2="32.471" style="fill:none;stroke:#936b55;stroke-linecap:round;stroke-miterlimit:10;stroke-width:0.75px"/><path d="M36.3981,31.4732c-.46.1588-.6092.2852-.814.2852-.2033,0-.2191-.0213-.6757-.1788-.8018-.2772-.8452.5808-2.3321,1.0522l.92.8259a2.3552,2.3552,0,0,0,1.5512.49h.999a2.4362,2.4362,0,0,0,1.5844-.6587l1.07-1.2855C37.6772,31.8405,37.1963,31.1972,36.3981,31.4732Z" style="fill:#a56659"/><path d="M38.7934,31.9478c-.5581.6511-1.7674.0465-3.2092.7442h-.0156c-1.4844-.5-1.9844,0-2.9922-.0051" style="fill:none;stroke:#743f40;stroke-linecap:round;stroke-miterlimit:10;stroke-width:0.75px"/><path d="M33.5842,29.2517c1,0,1,.5,2,.5s1-.5,2-.5" style="fill:none;stroke:#674848;stroke-linecap:round;stroke-miterlimit:10;stroke-width:0.779111087322235px"/><path d="M49.6667,21.4652c6.1126-.3746,4.6121,4.1849,6.99,6.0995C54.0383,28.2823,48.43,26.5047,49.6667,21.4652Z" style="fill:#b72525"/><path d="M56.1039,26.9935c-2.6442-.0272-6.287-1.7439-5.8015-5.55C55.1771,21.4206,54.5507,24.9591,56.1039,26.9935Z" style="fill:#961717"/><path d="M50.035,20.8118a6.619,6.619,0,0,1,1.2718,1.1092,5.4721,5.4721,0,0,1,.86,1.4163,7.2391,7.2391,0,0,0,.6292,1.2731,3.37,3.37,0,0,0,1.0125.9191l.005.0031a.2418.2418,0,0,1-.2174.43,3.9917,3.9917,0,0,1-1.362-.8756,7.8357,7.8357,0,0,1-.9374-1.275,4.3268,4.3268,0,0,0-.8749-1.0149,5.3005,5.3005,0,0,0-1.123-.6785l-.0142-.0067a.7532.7532,0,1,1,.6419-1.3629A.8085.8085,0,0,1,50.035,20.8118Z" style="fill:#333"/><path d="M49.6667,21.4652c6.1126-.3746,4.6121,4.1849,6.99,6.0995C54.0383,28.2823,48.43,26.5047,49.6667,21.4652Z" style="fill:none;stroke:#333;stroke-linejoin:round;stroke-width:1.5px"/><path d="M49.4932,20.312c5.1927-3.2465,6.05,1.4763,9.0533,2.0241C56.5883,24.2162,50.8118,25.3306,49.4932,20.312Z" style="fill:#961717"/><path d="M57.7565,22.0835c-2.3468,1.18-6.2418,1.3433-7.6161-2.1473C54.3127,17.706,55.46,21.0288,57.7565,22.0835Z" style="fill:#b72525"/><path d="M49.5541,19.5644a8.9341,8.9341,0,0,1,2.7348.9072A14.7181,14.7181,0,0,0,54.6065,21.74a.242.242,0,0,1,.1653.3.245.245,0,0,1-.2589.1734,14.5493,14.5493,0,0,1-2.6114-.8288,7.6767,7.6767,0,0,0-2.4693-.3245.7535.7535,0,1,1,.1125-1.4968Z" style="fill:#333"/><path d="M49.4932,20.312c5.1927-3.2465,6.05,1.4763,9.0533,2.0241C56.5883,24.2162,50.8118,25.3306,49.4932,20.312Z" style="fill:none;stroke:#333;stroke-linejoin:round;stroke-width:1.5px"/><path d="M22.3038,19.5852c-.07-1.1288.1261-3.9624,1.1917-5.4057a.8687.8687,0,0,1,.7533-.3512,3.59,3.59,0,0,1,.3682.0661,17.69,17.69,0,0,1,1.8515-4.5378A1.2841,1.2841,0,0,1,27.902,8.83l2.5408-1.9618a3.6745,3.6745,0,0,1,1.9313-.7523c4.4085-.3788,9.571-.7532,14.5392,5.4084a3.6771,3.6771,0,0,1,.7039,1.413l1.3008,5.1866-2.2393,2.7191s-12.7927-2.3184-23.3758-.4556A.8623.8623,0,0,1,22.3038,19.5852Z" style="fill:#b72525"/><path d="M29.1054,9.1848l1.937-1.3115a.69.69,0,0,1,.6292-.0752C38.5487,10.3873,47.48,17.2456,47.48,17.2456l.2386.9671A76.59,76.59,0,0,0,29.1054,9.1848Z" style="fill:#961717"/><path d="M38.1153,8.3859c1.4177-.7541,9.7275,5.3674,10.4432,9.891C44.0785,12.1864,37.5262,9.0621,38.1153,8.3859Z" style="fill:#961717"/><path d="M26.9828,11.1635a.2806.2806,0,0,1,.4749-.0276q.2012.2836.4149.5737a.2809.2809,0,0,0,.1849.1109c10.075,1.49,19.4309,7.0085,19.4309,7.0085l-.529.8036C41.2978,16.95,38.2917,15.3192,25.7579,13.97A11.14,11.14,0,0,1,26.9828,11.1635Z" style="fill:#961717"/><polygon points="47.739 17.301 45.711 18.185 47.724 19.118 48.068 17.895 47.739 17.301" style="fill:#961717"/><polygon points="44.952 18.373 41.907 19.124 45.962 20.214 46.604 18.782 44.952 18.373" style="fill:#961717"/><path d="M24.0671,15.3979a.4833.4833,0,0,1,.5046-.3018l6.587.8541a1.6712,1.6712,0,0,1,.891.4032c.4167.3676.8479.7207,1.2927,1.0538a1.6843,1.6843,0,0,0,.8963.3329,65.1645,65.1645,0,0,1,13.0168,2.4022l-.5768.7s-12.7927-2.3184-23.3758-.4556A13.6634,13.6634,0,0,1,24.0671,15.3979Z" style="fill:#961717"/><path d="M23.9662,13.3371a18.7061,18.7061,0,0,1,1.05-2.73,12.6285,12.6285,0,0,1,.7148-1.2973l.2106-.3165a1.9616,1.9616,0,0,1,.3515-.3826,1.92,1.92,0,0,1,.9334-.4235,1.9744,1.9744,0,0,1,.97.0986l.67.2253,1.3321.4692c.8842.3215,1.7639.6536,2.6356,1.0053a70.488,70.488,0,0,1,10.1115,4.9536.2412.2412,0,0,1-.2406.4179,69.7642,69.7642,0,0,0-10.2163-4.45c-.8761-.3088-1.7591-.5977-2.6446-.8755l-1.3315-.403-.6675-.1916a.7208.7208,0,0,0-.41-.0329.6688.6688,0,0,0-.3181.167.6939.6939,0,0,0-.1136.1385l-.1644.2754a11.3333,11.3333,0,0,0-.58,1.1863,17.37,17.37,0,0,0-.8407,2.54l-.0052.021a.75.75,0,0,1-1.4571-.36Z" style="fill:#333"/><path d="M47.1232,18.1425a12.46,12.46,0,0,0-1.6224-2.4874,24.12,24.12,0,0,0-2.1223-2.284c-.75-.7309-1.5586-1.4037-2.3774-2.0668-.827-.6536-1.684-1.2717-2.5564-1.8722a.2411.2411,0,0,1-.0669-.3345.2457.2457,0,0,1,.3213-.0752c.9264.5342,1.8427,1.09,2.7359,1.6866.8857.607,1.7671,1.2282,2.6,1.9193a25.2278,25.2278,0,0,1,2.4025,2.2055,13.3674,13.3674,0,0,1,2.058,2.7025.7513.7513,0,1,1-1.3158.7254q-.0149-.0268-.0273-.0544Z" style="fill:#333"/><path d="M27.902,8.83l2.3608-1.8228a4.4408,4.4408,0,0,1,2.3379-.9106c4.3429-.3691,9.3935-.6268,14.2608,5.3638a3.8347,3.8347,0,0,1,.7591,1.5642l1.3164,5.755" style="fill:none;stroke:#333;stroke-linejoin:round;stroke-width:1.5px"/><path d="M46.2525,20.78a2.3365,2.3365,0,0,1,1.2755-.976,2.61,2.61,0,0,1,.2316-1.7983c.6876-1.2515,2.3774-.7287,2.89.2263.87,1.6187-.9837,4.7336-2.6386,4.857C46.98,23.1655,45.5676,22.0454,46.2525,20.78Z" style="fill:#961717"/><path d="M49.6355,17.3886a1.1626,1.1626,0,0,1,1.0145.843,2.92,2.92,0,0,1-.3479,2.8448C50.072,20.9761,47.2274,19.9091,49.6355,17.3886Z" style="fill:#b72525"/><path d="M47.528,19.8036a2.6108,2.6108,0,0,1,.2316-1.7983c.6876-1.2515,2.3774-.7287,2.89.2263.87,1.6187-.9837,4.7336-2.6386,4.857-1.0317.0769-2.4438-1.0432-1.7589-2.309.554-1.024,2.2147-1.2132,2.2147-1.2132" style="fill:none;stroke:#333;stroke-linecap:round;stroke-linejoin:round;stroke-width:1.5px"/><path d="M40.57,17.1134a49.2059,49.2059,0,0,0-11.4-2.4494q-1.4544-.1659-2.914-.2816l-1.4593-.1033-.3646-.0212a1.8681,1.8681,0,0,0-.29-.0076.4423.4423,0,0,0-.3147.2023,7.4469,7.4469,0,0,0-.8891,5.3239c.0242.16.0211.1209.03.1369a.0468.0468,0,0,0,.03.0164c-.0721.0171.3013-.04.5185-.0674l1.4684-.195q1.4709-.1755,2.9471-.2956c1.968-.157,3.9408-.2429,5.9134-.27,3.9433-.061,7.8944.1472,11.8.3916l.0083,0a.75.75,0,0,1-.0937,1.4972l-.0165-.0012c-3.9132-.3317-7.7947-.6217-11.695-.6479-1.948-.0164-3.8959.0254-5.8394.1372q-1.4577.0857-2.9105.2271l-1.45.16-.3626.0414a1.3027,1.3027,0,0,1-.5762-.024,1.0379,1.0379,0,0,1-.5538-.407,1.1777,1.1777,0,0,1-.1874-.5562,8.3211,8.3211,0,0,1,1.1679-5.9733,1.2969,1.2969,0,0,1,.9079-.5322,2.4016,2.4016,0,0,1,.4435.0114l.3687.0293,1.4716.1356q1.47.1465,2.9331.3464a49.75,49.75,0,0,1,11.4883,2.7277.2411.2411,0,0,1-.1723.45Z" style="fill:#333"/><path d="M45.5841,20.2517c0-.1-.41-.11-1-.1.41,6.73-.56,8.27-.56,11.28l1.06-3.19h0c1.79-.12,2.77-2.08,3-4C48.3641,21.9617,47.3041,20.2517,45.5841,20.2517Z" style="fill:#966d56"/><path d="M43.8241,20.0293l.23,4.4524v.0008a.53.53,0,0,0,.55.5092h.0007a.53.53,0,0,0,.5093-.55c.1271-3.3179.801-3.75,1.47-3.75l-1.38-.7954Z" style="fill:#333"/><path d="M45.5941,20.2417c1.73,0,2.79,1.71,2.51,4-.23,1.91-1.21,3.87-3,4" style="fill:none;stroke:#333;stroke-linecap:round;stroke-linejoin:round;stroke-width:1.4999971369023px"/><path d="M45.0841,28.2417l-.56,3a6.52,6.52,0,0,1-2.37,3.93" style="fill:none;stroke:#333;stroke-linecap:round;stroke-linejoin:round;stroke-width:1.4999971369023px"/><line x1="29.3342" y1="27.0668" x2="32.3342" y2="27.0668" style="fill:none;stroke:#333;stroke-linecap:round;stroke-linejoin:round;stroke-width:1.4999971369023px"/></g></svg>