<svg xmlns="http://www.w3.org/2000/svg" viewBox="0 0 64 64">
  <g id="doctor-asian-female-coronavirus">
    <g>
      <g id="e03429da-d39d-4fd9-ad19-a9dcef14be47">
        <g id="f2d18364-efda-4328-b285-27c684f22317">
          <g id="ed5528e3-2148-443f-806a-8a98366446ea">
            <g id="acf94ac8-1f50-466c-a82c-6ebb853abcab">
              <path d="M51,42.86l-10.9-3.42h-16L13.12,42.86a5.33,5.33,0,0,0-3.7,4.43L9,51c7,3.11,15.43,4.44,23.1,4.44S48.14,54.1,55.15,51l-.46-3.7A5.35,5.35,0,0,0,51,42.86Z" fill="#e0ebee"/>
              <path d="M55.16,51,55,48.91a5.56,5.56,0,0,0-3.17-2.5L40.37,43H23.75L12.39,46.41a5.46,5.46,0,0,0-3.17,2.5L9,51c7,3.11,15.43,4.44,23.1,4.44S48.14,54.11,55.16,51Z" fill="#cedde1"/>
              <path d="M28.44,55.33c-.51-1-4.38-8.42-4.39-15.88h0l-3.41,1.06-2.81,5.67,4.44,2.67-2,5.55A70,70,0,0,0,28.44,55.33Z" fill="#eaf2f3"/>
              <polyline points="20.65 40.51 17.84 46.17 22.28 48.84 20.29 54.39" fill="none" stroke="#c5d5d8" stroke-linejoin="round" stroke-width="0.89"/>
              <path d="M35.66,55.33c.51-1,4.38-8.42,4.39-15.88h0l3.41,1.06,2.81,5.67-4.44,2.67,2,5.55A70.2,70.2,0,0,1,35.66,55.33Z" fill="#eaf2f3"/>
              <polyline points="43.46 40.51 46.27 46.17 41.83 48.84 43.81 54.39" fill="none" stroke="#c5d5d8" stroke-linejoin="round" stroke-width="0.89"/>
              <path d="M24.06,39.44c0,8,4.44,16,4.44,16h7.11s4.44-8,4.44-16Z" fill="#96c8e2" stroke="#343433" stroke-linejoin="round" stroke-width="1.5"/>
              <path d="M40.05,39.44,51,42.86a5.36,5.36,0,0,1,3.7,4.43l.46,3.7c-7,3.11-15.43,4.44-23.1,4.44S16,54.11,9,51l.46-3.7a5.34,5.34,0,0,1,3.7-4.43l10.94-3.42" fill="none" stroke="#343433" stroke-linejoin="round" stroke-width="1.33"/>
              <circle cx="32.05" cy="48.13" r="0.75" fill="#333"/>
              <circle cx="32.05" cy="51.63" r="0.75" fill="#333"/>
              <path d="M45.2,19.05a7.49,7.49,0,0,1,.85,3.22A12,12,0,0,1,46,24a8.55,8.55,0,0,0-.74-5.67v.76Z" fill="#333"/>
              <rect x="25.75" y="31.25" width="12.78" height="11.52" fill="#e6b790"/>
              <path d="M25.75,34.67,31.8,40.4A4.35,4.35,0,0,1,33,43.31a2.46,2.46,0,0,0,.11.72h5.5V31.25H25.75Z" fill="#ddad8a"/>
              <rect x="25.75" y="31.25" width="12.78" height="11.52" fill="none" stroke="#333" stroke-linejoin="round" stroke-width="1.5"/>
              <path d="M41.59,27.56l-.55,3a6.53,6.53,0,0,1-2.38,3.93l-2.56,2a6.46,6.46,0,0,1-8,0l-2.56-2a6.4,6.4,0,0,1-2.37-3.92l-.55-3c-1.84-.08-2.77-2.06-3-4-.28-2.29.76-4,2.49-4v-2c0-5.41,2-10.51,10-10.51s10,5.09,10,10.51v2c1.73,0,2.79,1.71,2.51,4-.26,1.91-1.23,3.86-3,4Z" fill="#efc8a5"/>
              <path d="M42.2,19.4v-2c0-5.41-2-10.51-10-10.51s-10,5.1-10,10.51v2c-1.73,0-2.77,1.71-2.49,4,.24,1.94,1.16,3.92,3,4l.56,3a6.4,6.4,0,0,0,2.37,3.93l.24.18c-4.85-15.93,7.88-16.62,10-20,.91,2.73,7.13,5.13,8.53,10.06a9,9,0,0,0,.25-1.17C45,21.11,44,19.4,42.2,19.4Z" fill="#e6b790"/>
              <circle cx="27.12" cy="23.97" r="3.5" fill="#ddad8a"/>
              <path d="M24.66,24.87A3.45,3.45,0,0,0,25.39,27a3.48,3.48,0,0,0,4.5-5.14,3.47,3.47,0,0,0-4.75,1.23,3.37,3.37,0,0,0-.48,1.77Z" fill="#e6b790"/>
              <path d="M42.08,19.57v-2c0-5.41-2-10.51-10-10.51a14.27,14.27,0,0,0-2.77.24V17.67a3.94,3.94,0,0,1-1.26,2.88.44.44,0,0,0,0,.63.43.43,0,0,0,.23.14,2.6,2.6,0,0,1,1.88,1.88.48.48,0,0,0,.58.37h0a.46.46,0,0,0,.19-.08,1.73,1.73,0,0,1,.58-.32.48.48,0,0,1,.59.35.59.59,0,0,1,0,.13v2.07a1.1,1.1,0,0,0,.62.94c.57.32.16,1.4-.62,1.4h0a1.62,1.62,0,0,1-.89-.23c-.74-.37-1.43.39-1.27.68s.34,0,1.08.35a2.59,2.59,0,0,0,1.1.27v3.68a.39.39,0,0,0,.31.38c1.31.31,2,2.49-.31,3h0a1.22,1.22,0,0,0-1,1.2v.45a6.56,6.56,0,0,0,5-1.3l2.56-2a6.61,6.61,0,0,0,2.38-3.93l.55-3h0c1.8-.12,2.77-2.08,3-4C44.87,21.28,43.81,19.57,42.08,19.57Z" fill="#e6b790"/>
              <path d="M42.15,19.4c0-.1-.41-.11-1-.1.41,6.73-.56,8.27-.56,11.28l1.06-3.19h0c1.79-.12,2.77-2.08,3-4C45,21.11,43.87,19.4,42.15,19.4Z" fill="#ddad8a"/>
              <path d="M44.15,20.54a2.32,2.32,0,0,0-2-1.14.43.43,0,0,0,0-.16V17.4a15.19,15.19,0,0,0-.7-4.83c-1-3-3.3-5.23-7.86-5.62q-.65-.06-1.44-.06A11.64,11.64,0,0,0,30.7,7h-.23a6.38,6.38,0,0,0-1.08.15h0V17.5A3.94,3.94,0,0,1,29,19.12c2.7-2.1,5.86-3.08,6.85-4.61.91,2.73,7.13,5.13,8.53,10.06q.09-.29.15-.57c0-.2.08-.4.1-.6A4.39,4.39,0,0,0,44.15,20.54Z" fill="#ddad8a"/>
              <circle cx="37.06" cy="23.97" r="3.5" fill="#ddad8a"/>
              <path d="M34.59,24.87A3.45,3.45,0,0,0,35.32,27a3.48,3.48,0,0,0,4.5-5.14,3.47,3.47,0,0,0-4.75,1.23,3.37,3.37,0,0,0-.48,1.77Z" fill="#e6b790"/>
              <path d="M30,29.05c1,0,1,.51,2,.51s1-.51,2-.51" fill="none" stroke="#ddad8a" stroke-linecap="round" stroke-miterlimit="10" stroke-width="0.65"/>
              <line x1="32.04" y1="29.42" x2="32.04" y2="30.16" fill="none" stroke="#ddad8a" stroke-linecap="round" stroke-miterlimit="10" stroke-width="0.65"/>
              <path d="M41.59,27.56l-.55,3a6.53,6.53,0,0,1-2.38,3.93l-2.56,2a6.46,6.46,0,0,1-8,0l-2.56-2a6.4,6.4,0,0,1-2.37-3.92l-.55-3c-1.84-.08-2.77-2.06-3-4-.28-2.29.76-4,2.49-4v-2c0-5.41,2-10.51,10-10.51s10,5.09,10,10.51v2c1.73,0,2.79,1.71,2.51,4-.26,1.91-1.23,3.86-3,4Z" fill="none" stroke="#333" stroke-linejoin="round" stroke-width="1.5"/>
              <path d="M29.43,24.05c-.58-.33-2.07-2.25-4-.33a2.42,2.42,0,0,1-.67-.46,4.1,4.1,0,0,1,3-.28" fill="#333" stroke="#333" stroke-linecap="round" stroke-miterlimit="10" stroke-width="0.5"/>
              <path d="M34.88,24.05c.58-.33,2.07-2.25,4-.33a2.76,2.76,0,0,0,.67-.46,4.11,4.11,0,0,0-3-.28" fill="#333" stroke="#333" stroke-linecap="round" stroke-miterlimit="10" stroke-width="0.5"/>
              <circle cx="27.12" cy="23.97" r="3.5" fill="none" stroke="#333" stroke-linejoin="round" stroke-width="1.17"/>
              <circle cx="37.06" cy="23.97" r="3.5" fill="none" stroke="#333" stroke-linejoin="round" stroke-width="1.17"/>
              <path d="M33.59,23.48a4.84,4.84,0,0,0-1.54-.34,4.82,4.82,0,0,0-1.46.31" fill="none" stroke="#333" stroke-linejoin="round"/>
              <circle cx="27.9" cy="25.5" r="0.62" fill="#efc8a5"/>
              <circle cx="38.31" cy="25.5" r="0.62" fill="#efc8a5"/>
              <path d="M46.57,22.31A10.84,10.84,0,0,0,45.16,18a13.39,13.39,0,0,0-13-12.23c-6.78,0-12.28,4.29-12.62,11.79-1.83,4.15.78,10.16,1.65,17h3c-5-16.61,9.25-18.78,12.07-22,.17,4.49,9.49,4.86,8.93,14A8.19,8.19,0,0,0,46.57,22.31Z" fill="#444"/>
              <path d="M45.51,17.42a13.12,13.12,0,0,0-3.94-8.25,13.55,13.55,0,0,0-9.5-4.12A13,13,0,0,0,22.43,9a12.7,12.7,0,0,0-3.57,8.87,13.71,13.71,0,0,0-.33,2.21,17.11,17.11,0,0,0,.69,7c.08.32.15.63.25.95a26.15,26.15,0,0,1,1.24,6.63h0a.61.61,0,0,0,.6.63h0l4.88.11c-8.64-14,5.38-18.35,9.9-22.13.59,2,2.24,3,4.3,4.63l.22,5.8h0a.53.53,0,0,0,.54.51h0a.52.52,0,0,0,.51-.55h0c0-.34-.11-3,1-3.63,1.22.51,2.08,2.53,1.74,4.41-.3,1.64-1.31,3.08-2.86,3.19h0l-.55,3a8.46,8.46,0,0,1-3.23,4.77l5.41-.11h0a.63.63,0,0,0,.62-.64h0a27.69,27.69,0,0,1,.41-3.15c.35-.88.73-1.75,1.17-2.6C47.81,23.94,47.63,20.28,45.51,17.42Zm-9-4.69a9.39,9.39,0,0,0,1.2-2c-1.19,2-4.71,3.45-6.25,4.1a18.93,18.93,0,0,0-6.7,4.46A14.94,14.94,0,0,0,21.26,27c.24-10.26,6.86-11.31,12-16.7-3.27,2.13-13,5.22-12.87,14.06-.84-5.61-.69-8.46,6.19-14.37-2.91,1.44-4.83,2.75-6.06,4.31A12.62,12.62,0,0,1,23.44,10a13.42,13.42,0,0,1,8.71-3.46A12.41,12.41,0,0,1,40.88,10a12.59,12.59,0,0,1,3.68,6.41,17.46,17.46,0,0,0-4.9-3.3,8.18,8.18,0,0,0,1.19,1c1.84,1.37,5.09,4.83,5.19,8.19a11.55,11.55,0,0,1-.35,2.8C45.55,17.43,38.2,17.32,36.51,12.73Z" fill="#333"/>
              <path d="M25.83,36.77s1.36,3.12,6.22,6.22L28.5,47.43c-2.67-2.67-4.44-6.22-4.44-8Z" fill="#96c8e2" stroke="#343433" stroke-linejoin="round" stroke-width="1.5"/>
              <path d="M38.27,36.77S37,39.89,32.05,43l3.55,4.44c2.67-2.67,4.44-6.22,4.44-8Z" fill="#96c8e2" stroke="#343433" stroke-linejoin="round" stroke-width="1.5"/>
              <path d="M45.28,51.78v-11a3.84,3.84,0,0,0-3.65-4H39.28" fill="none" stroke="#333" stroke-linejoin="round" stroke-width="1.5"/>
              <path d="M18.05,46.27V40.78a3.83,3.83,0,0,1,3.65-4h3.35" fill="none" stroke="#333" stroke-linejoin="round" stroke-width="1.5"/>
              <path d="M48.78,55.28a3.5,3.5,0,1,1-3.5-3.5h0A3.5,3.5,0,0,1,48.78,55.28Z" fill="#e0ebee"/>
              <circle cx="45.28" cy="55.28" r="1" fill="#333"/>
              <path d="M48.78,55.28a3.5,3.5,0,1,1-3.5-3.5h0A3.5,3.5,0,0,1,48.78,55.28Z" fill="none" stroke="#333" stroke-linejoin="round" stroke-width="1.5"/>
              <circle cx="16.05" cy="57.78" r="1" fill="#333"/>
              <circle cx="20.05" cy="57.78" r="1" fill="#333"/>
              <path d="M16.05,57.78c-2,0-3-.83-3-2,0-3,5-10,5-10s5,7,5,10c0,1.17-1,2-3,2" fill="none" stroke="#333" stroke-linejoin="round" stroke-width="1.5"/>
              <path d="M33,30.44a2.42,2.42,0,0,1-.91.21c-.24,0-.26,0-.79-.21-.94-.33-1,.82-2.73,1.38l1.08.86a2.08,2.08,0,0,0,1.59.58h1.64a2.41,2.41,0,0,0,1.71-.63l1-.81C34,31.29,34,30.11,33,30.44Z" fill="#925140"/>
              <line x1="28.76" y1="31.57" x2="28.48" y2="32.14" fill="none" stroke="#ddad8a" stroke-linecap="round" stroke-miterlimit="10" stroke-width="0.65"/>
              <line x1="35.4" y1="31.57" x2="35.69" y2="32.14" fill="none" stroke="#ddad8a" stroke-linecap="round" stroke-miterlimit="10" stroke-width="0.65"/>
              <path d="M30.09,28.57c1,0,1,.5,2,.5s1-.5,2-.5" fill="none" stroke="#674848" stroke-linecap="round" stroke-miterlimit="10" stroke-width="0.75"/>
              <path d="M28.76,31.84c.87,0,.72-.31,2-.36a5.79,5.79,0,0,1,1.31.15,4.84,4.84,0,0,1,1.42-.15c1.33.07,1.1.45,1.9.37" fill="none" stroke="#753f3f" stroke-linecap="round" stroke-miterlimit="10" stroke-width="0.5"/>
              <ellipse cx="27.6" cy="23.72" rx="0.81" ry="0.57" fill="#333"/>
              <ellipse cx="36.57" cy="23.72" rx="0.81" ry="0.57" fill="#333"/>
            </g>
          </g>
        </g>
      </g>
      <g id="b340344e-7272-4129-9ef0-e125a941a8a1">
        <path d="M37.64,28.9a5.21,5.21,0,0,1,2.23,7,5.56,5.56,0,0,1-.67,1c-.81,1-6.43,9.31-14.29,0a5.22,5.22,0,0,1,.6-7.35,5.38,5.38,0,0,1,1-.65l4.33-2.25a2.75,2.75,0,0,1,2.5,0Z" fill="#fff"/>
        <path d="M24.47,30.77a21.93,21.93,0,0,1-3.58-8.89" fill="#fff" stroke="#333" stroke-linecap="round" stroke-linejoin="round" stroke-width="1.5"/>
        <path d="M39.89,30.77a21.79,21.79,0,0,0,3.58-8.89" fill="#fff" stroke="#333" stroke-linecap="round" stroke-linejoin="round" stroke-width="1.5"/>
        <line x1="23.67" y1="33.41" x2="22.1" y2="32.55" fill="none" stroke="#333" stroke-linecap="round" stroke-linejoin="round" stroke-width="1.5"/>
        <line x1="40.69" y1="33.41" x2="42.26" y2="32.55" fill="none" stroke="#333" stroke-linecap="round" stroke-linejoin="round" stroke-width="1.5"/>
        <path d="M37.64,28.9l-4.32-2.24a2.69,2.69,0,0,0-2.5,0L26.49,28.9a5.17,5.17,0,0,0-2.65,3.37,5.1,5.1,0,0,0,1.07,2.08c7.86,9.32,13.48,1,14.29,0a5.24,5.24,0,0,0,1.09-2.09A5.16,5.16,0,0,0,37.64,28.9Z" fill="#fff"/>
        <path d="M37.64,28.9l-4.32-2.24a2.59,2.59,0,0,0-1.13-.29h0V34c0,2,2.1,1.53.83,3.93-2,3.67-6.77-2.77-6.77.39,0,.11,2.83,2,2.82,2.1,5.64,2.94,9.49-2.74,10.15-3.52a5.2,5.2,0,0,0-.58-7.34A5,5,0,0,0,37.64,28.9Z" fill="#eee"/>
        <path d="M23.86,32.18a18.22,18.22,0,0,0,8.33,2.17,16.47,16.47,0,0,0,8.08-2.18" fill="none" stroke="#ddd" stroke-miterlimit="10" stroke-width="0.96"/>
        <path d="M23.86,34.31a18.22,18.22,0,0,0,8.33,2.17,16.57,16.57,0,0,0,8.08-2.17" fill="none" stroke="#ddd" stroke-miterlimit="10" stroke-width="0.96"/>
        <path d="M37.64,28.9a5.21,5.21,0,0,1,2.23,7,5.56,5.56,0,0,1-.67,1c-.81,1-6.43,9.31-14.29,0a5.22,5.22,0,0,1,.6-7.35,5.38,5.38,0,0,1,1-.65l4.33-2.25a2.75,2.75,0,0,1,2.5,0Z" fill="none" stroke="#333" stroke-linejoin="round" stroke-width="1.5"/>
      </g>
    </g>
  </g>
</svg>
