<svg xmlns="http://www.w3.org/2000/svg" viewBox="0 0 64 64">
  <g id="firefighter-asian-male-coronavirus">
    <g id="f0ac05f0-039b-4a40-bfbb-625990fcf192">
      <g id="aae3f69a-75ed-493a-a3d1-e0e64dbb0187">
        <g id="a6deff29-0892-4486-90b1-78e636cb5d77">
          <g id="a7a768d9-a773-4a21-b284-3a50cfd2f7fe">
            <path d="M59,54.73a6.85,6.85,0,0,0-5.25-5c-6.41-1.51-12.16-2.8-14.6-3.34V43.45h-15v3c-2.78.59-8.4,1.81-14.4,3.23a6.85,6.85,0,0,0-5.25,5L4,57.23A70,70,0,0,0,31.78,63.1a70,70,0,0,0,27.75-5.87Z" fill="#cc9e7f"/>
            <path d="M42.76,28.92v-2.2c0-5.95-2.09-12.08-11-12.08s-11,6.13-11,12.08v2.2c-.09,0-3.29,0-2.2,5.49a4.27,4.27,0,0,0,3.29,3.29c0,3.9,1.1,4.39,4.81,8.21,1.43,1.82,3.17,1.67,5.07,1.67s3.65.15,5.07-1.67c3.71-3.82,4.81-4.31,4.81-8.21a4.27,4.27,0,0,0,3.29-3.29C46,28.92,42.85,28.89,42.76,28.92Z" fill="#efc8a5"/>
            <path d="M42,34C43,34,44,34,45,33.88c.78-4.94-2.2-5-2.28-5v-2.2c0-6-2.09-12.08-11-12.08s-11,6.13-11,12.08v2.2c-.08,0-3.06,0-2.28,5,1,.09,2.05.14,3.08.14Z" fill="#e6b790"/>
            <path d="M23.41,36.61a3.66,3.66,0,0,1-1.52-3.29V30.63A2.46,2.46,0,0,0,20.43,29c-.83.17-2.72,1-1.83,5.45a4.27,4.27,0,0,0,3.29,3.29c0,3.3.8,4.17,3.29,6.68V41A5.23,5.23,0,0,0,23.41,36.61Z" fill="#e6b790"/>
            <path d="M45,34.41c1.1-5.49-2.11-5.52-2.2-5.49v-2.2c0-5.95-2.09-12.08-11-12.08a15.86,15.86,0,0,0-2.92.26v12a3.89,3.89,0,0,1-1.25,2.89.46.46,0,0,0,0,.64.41.41,0,0,0,.23.13c1.5.43,2.3.71,3.23.47.31-.08.86.27.86.59v1.57a1.67,1.67,0,0,0,.64,1.4,1.1,1.1,0,0,1-.64,2c-.81,0-1.1-.55-2.2-.55-.65,0-.55.85-.57.82a2.5,2.5,0,0,1,1.1.29,3.28,3.28,0,0,0,1.65.43v3.31a1.9,1.9,0,0,0,1.25,1.76A1.56,1.56,0,0,1,34,44.29c0,3-5.43-.3-5.43,3h0a9.62,9.62,0,0,0,3.16.29c1.9,0,3.65.15,5.07-1.67,3.71-3.82,4.81-4.31,4.81-8.21A4.25,4.25,0,0,0,45,34.41Z" fill="#e6b790"/>
            <path d="M28.86,14.91v12a3.89,3.89,0,0,1-1.27,2.88.46.46,0,0,0,0,.64.41.41,0,0,0,.23.13c1.5.43,2.3.71,3.23.47.31-.08.86.27.86.59A5.58,5.58,0,0,0,32.05,34c9.48,0,10.17.1,13-.14.73-4.63-1.84-5-2.23-5h0c-.27-1.13,2-14.27-11-14.27A15.46,15.46,0,0,0,28.86,14.91Z" fill="#ddad8a"/>
            <path d="M42.79,28.92a2.18,2.18,0,0,0-1.12,1.87v2.53a3.66,3.66,0,0,1-1.52,3.29A5.24,5.24,0,0,0,38.37,41v3.38c2.5-2.51,3.29-3.38,3.29-6.68A4.27,4.27,0,0,0,45,34.41C46,29.1,43,28.9,42.79,28.92Z" fill="#ddad8a"/>
            <path d="M42.76,28.92v-2.2c0-5.95-2.09-12.08-11-12.08s-11,6.13-11,12.08v2.2c-.09,0-3.29,0-2.2,5.49a4.27,4.27,0,0,0,3.29,3.29c0,3.9,1.1,4.39,4.81,8.21,1.43,1.82,3.17,1.67,5.07,1.67s3.65.15,5.07-1.67c3.71-3.82,4.81-4.31,4.81-8.21a4.27,4.27,0,0,0,3.29-3.29C46,28.92,42.85,28.89,42.76,28.92Z" fill="none" stroke="#333" stroke-linejoin="round" stroke-width="1.5"/>
            <line x1="31.76" y1="37.57" x2="31.76" y2="38.57" fill="none" stroke="#ddad8a" stroke-linecap="round" stroke-miterlimit="10" stroke-width="0.75"/>
            <line x1="30.84" y1="42.39" x2="32.84" y2="42.39" fill="none" stroke="#ddad8a" stroke-linecap="round" stroke-miterlimit="10" stroke-width="0.75"/>
            <line x1="31.63" y1="45.34" x2="31.88" y2="45.34" fill="none" stroke="#ddad8a" stroke-linecap="round" stroke-miterlimit="10" stroke-width="0.75"/>
            <path d="M33.12,39.43a2.94,2.94,0,0,0-1.18.13.61.61,0,0,1-.42,0,2.94,2.94,0,0,0-1.18-.13c-.67.1-.74.52-2.09,1.25l1.19.73a2.29,2.29,0,0,0,1.27.41h2.07A2.17,2.17,0,0,0,34,41.41l1.23-.7C33.92,40,33.79,39.53,33.12,39.43Z" fill="#ddab85"/>
            <path d="M35.27,40.71c-1,0-1.26-.39-2.24-.39a6.9,6.9,0,0,0-1.29.17,8,8,0,0,0-1.29-.17c-.94,0-1.15.36-2.21.36" fill="none" stroke="#c6916d" stroke-linecap="round" stroke-miterlimit="10" stroke-width="0.75"/>
            <path d="M29,36.69a2.72,2.72,0,0,1,1.31.34h0A2.75,2.75,0,0,0,33,37h0a2.84,2.84,0,0,1,1.31-.34" fill="none" stroke="#c6916d" stroke-linecap="round" stroke-miterlimit="10" stroke-width="0.75"/>
            <path d="M24.16,30a6.19,6.19,0,0,1,1.45-.55,6,6,0,0,1,1.58-.09,10,10,0,0,1,2.82,1h0a.24.24,0,0,1,.12.3.23.23,0,0,1-.23.14,10.66,10.66,0,0,1-1.48-.26c-.47-.09-.93-.14-1.37-.21a7.48,7.48,0,0,0-2.75.06h0a.22.22,0,0,1-.29-.13.23.23,0,0,1,.14-.29h0Z" fill="#333"/>
            <path d="M39.1,30.45a7.48,7.48,0,0,0-2.75-.06c-.45.07-.9.12-1.37.21a10.66,10.66,0,0,1-1.48.26.22.22,0,0,1-.24-.2v0a.23.23,0,0,1,.14-.23h0a10,10,0,0,1,2.82-1,7,7,0,0,1,1.58.09,5.3,5.3,0,0,1,1.45.55.23.23,0,0,1-.17.43h0Z" fill="#333"/>
            <path d="M31.78,14.65c-8.89,0-11,6.13-11,12.08v2.82a12.71,12.71,0,0,1,1.4,4,1.22,1.22,0,0,0,1-1.19V28a7.8,7.8,0,0,0-.28-2.3,2.68,2.68,0,0,1,.49-2.45c1.31-1.31,4.45-1.45,6.67.32l.75.61C33,26,34.63,27.32,37.68,27.32h2.75v5.15a1.3,1.3,0,0,0,.94,1.25,9,9,0,0,1,1.39-4V26.79C42.76,20.79,40.67,14.65,31.78,14.65Z" fill="#ddad8a"/>
            <path d="M28.86,14.91h0v8c3.8,1.78,2.73,4.44,11.58,4.44V32.5a1.3,1.3,0,0,0,.94,1.25,9,9,0,0,1,1.39-4c0-2.32,1.11-12-6.66-14.48A16,16,0,0,0,28.86,14.91Z" fill="#cc9e7f"/>
            <path d="M38.93,16.79c.47,0,1.19-.24,1.64-.2-2.9-2.8-14.26-4.8-17.39,1.47-7.87,2.7-1,12.5-1,15.5V28a7.12,7.12,0,0,0-.24-2,3.64,3.64,0,0,1,.75-3.42c1.77-1.77,5.5-1.75,8,.25s4,3.5,7,3.5h3.74v7.48c0-3.08,1.5-4,3-7.23C46.44,22.22,42.45,18.6,38.93,16.79Z" fill="#333"/>
            <path d="M23.18,18.06A6.25,6.25,0,0,0,21,19.32h0c-2.52,2.28-1.46,6.16-.31,9.37h0c-1.23-6-.41-9.56,7.65-9.56,0,0-1-.41-1.86-.72a22.31,22.31,0,0,1,6.37-.36,23.71,23.71,0,0,0-4.34-.81c3.09-.71,5.2-.44,8.37,0a22.64,22.64,0,0,0-7.7-1.2H29c3.66-.92,8.09-.16,11.48.54C37.31,13.38,26.12,12.2,23.18,18.06Z" fill="#614938"/>
            <path d="M21.93,33.56,21.87,28a6.15,6.15,0,0,0-.21-1.59,6.34,6.34,0,0,1-.21-.86,4.71,4.71,0,0,1,0-.92A3.74,3.74,0,0,1,22,22.8a4,4,0,0,1,1.39-1.28,7,7,0,0,1,7,.4A14.64,14.64,0,0,1,31.77,23c.43.36.86.72,1.3,1.06a8.77,8.77,0,0,0,2.78,1.6,10.73,10.73,0,0,0,3.24.32l3.38.09a.26.26,0,0,1,.25.26.25.25,0,0,1-.25.25L39,26.66a11.25,11.25,0,0,1-3.47-.23c-2.37-.64-4-2.5-5.78-3.65a6.37,6.37,0,0,0-6-.47,3,3,0,0,0-1.11,1,2.91,2.91,0,0,0-.46,1.4,4.3,4.3,0,0,0,.16,1.56A7.54,7.54,0,0,1,22.49,28l0,5.57a.26.26,0,0,1-.26.25A.25.25,0,0,1,21.93,33.56Z" fill="#333"/>
            <path d="M41.09,33.79a7,7,0,0,1,.41-2.64,14.91,14.91,0,0,1,1.19-2.36,24.38,24.38,0,0,0,1.16-2.21,5.42,5.42,0,0,0,.57-2.24,6,6,0,0,0-1.86-4.14,14.26,14.26,0,0,0-3.93-2.83.66.66,0,0,1-.3-.88.68.68,0,0,1,.61-.37h0a5,5,0,0,0,.66-.1,4.21,4.21,0,0,1,1-.12l-.54,1.16a9.92,9.92,0,0,0-4-1.86,18.27,18.27,0,0,0-4.6-.55,12.33,12.33,0,0,0-4.45.84,6.28,6.28,0,0,0-3.21,2.84h0a.65.65,0,0,1-.37.32,4.77,4.77,0,0,0-3,2.34,6.76,6.76,0,0,0-.29,4,26.47,26.47,0,0,0,1.19,4.2l.7,2.1a8.09,8.09,0,0,1,.49,2.27.34.34,0,0,1-.33.35h0a.36.36,0,0,1-.35-.32h0a7.71,7.71,0,0,0-.55-2l-.81-2.05a26.34,26.34,0,0,1-1.37-4.28,7.88,7.88,0,0,1,.23-4.68,5.06,5.06,0,0,1,1.52-2A7.83,7.83,0,0,1,23,17.42l-.38.33a7.65,7.65,0,0,1,3.82-3.58,13,13,0,0,1,5-1,18.72,18.72,0,0,1,5,.62,11.36,11.36,0,0,1,4.62,2.33h0a.69.69,0,0,1-.59,1.15,2.72,2.72,0,0,0-.63.08,3.74,3.74,0,0,1-1,.11l.33-1.25a15.54,15.54,0,0,1,4.22,3.2,7.08,7.08,0,0,1,2,5,6.44,6.44,0,0,1-.73,2.64,20.87,20.87,0,0,1-1.3,2.25,13.83,13.83,0,0,0-1.22,2.15,6.69,6.69,0,0,0-.36,2.34.36.36,0,0,1-.72,0Z" fill="#333"/>
            <path d="M29.37,19.51a7.65,7.65,0,0,1,4.88,1.37c.7.47,1.31,1,1.93,1.42s1.31.84,2,1.31a5,5,0,0,1-2.59-.27,10,10,0,0,1-2.22-1.21c-.66-.45-1.29-.86-2-1.28A23.28,23.28,0,0,1,29.37,19.51Z" fill="#614938"/>
            <path d="M46.82,22.35a15.17,15.17,0,0,0-30.33,0v6H46.82Z" fill="#333"/>
            <path d="M29.26,4.68,23,9.79a1.14,1.14,0,0,0-.41,1l1.9,16.6a1.13,1.13,0,0,0,1.12,1H37.93a1.13,1.13,0,0,0,1.12-1L41,10.79a1.14,1.14,0,0,0-.41-1L34.29,4.68A4,4,0,0,0,29.26,4.68Z" fill="#444" stroke="#333" stroke-linecap="round" stroke-linejoin="round" stroke-width="1.5"/>
            <path d="M39,23.55H24.29a1.12,1.12,0,0,1-1.12-1.12h0V16a1.13,1.13,0,0,1,1.08-1.16H39a1.12,1.12,0,0,1,1.12,1.12h0v6.48a1.12,1.12,0,0,1-1.08,1.16Z" fill="#555" stroke="#333" stroke-linecap="round" stroke-linejoin="round" stroke-width="1.5"/>
            <path d="M20.18,23.55V14.84H18.49a15.13,15.13,0,0,0-2,7.51v1.2Z" fill="#e3ff92"/>
            <path d="M43.13,23.55h3.69v-1.2a15.13,15.13,0,0,0-2-7.51H43.13Z" fill="#e3ff92"/>
            <path d="M46.82,22.35a15.17,15.17,0,0,0-30.33,0v6H46.82Z" fill="none" stroke="#333" stroke-linecap="round" stroke-linejoin="round" stroke-width="1.5"/>
            <path d="M29.3,19.45H28.13V21h1.38l-.13,1H27V16.27h2.34v1H28.13v1.22h1.18v1Z" fill="#fff"/>
            <path d="M30.33,18V17.7c0-.67.23-1.36,1.31-1.36a1.18,1.18,0,0,1,1.3,1,1.6,1.6,0,0,1,0,.31v.21c0,.64-.25.94-.57,1.07h0A1,1,0,0,1,33,20.07v.44c0,.94-.36,1.53-1.42,1.53a1.21,1.21,0,0,1-1.36-1,1,1,0,0,1,0-.35v-.21h1v.24c0,.27.07.5.35.5s.34-.25.34-.53v-.58c0-.45-.13-.62-.56-.62h-.3v-.89h.32c.35,0,.48-.13.48-.55v-.33c0-.27,0-.48-.29-.48s-.3.2-.3.45V18h-1Z" fill="#fff"/>
            <path d="M35.45,22V20.69H33.92v-.84l1-3.43h1.53v3.37h.37l-.07.88h-.29V22h-1Zm0-2.8V17.36h0c-.17.74-.38,1.69-.57,2.44h.55Z" fill="#fff"/>
            <path d="M51.94,26.79h0a32.65,32.65,0,0,1-10,1.56H21.6a32.65,32.65,0,0,1-10-1.56h0" fill="none" stroke="#333" stroke-linecap="round" stroke-linejoin="round" stroke-width="3"/>
            <ellipse cx="27.23" cy="32.11" rx="0.91" ry="0.46" fill="#333"/>
            <ellipse cx="36.19" cy="32.11" rx="0.91" ry="0.46" fill="#333"/>
            <path d="M31.81,7.15a20.45,20.45,0,0,0-8.8,2l2,4.33h13.5l2.05-4.35A20.36,20.36,0,0,0,31.81,7.15Z" fill="#ccc" stroke="#333" stroke-linecap="round" stroke-linejoin="round" stroke-width="1.5"/>
            <path d="M25.84,9.58l2.26-.49.11.53-1.6.34.13.63,1.49-.32.12.54-1.49.32.23,1.06-.67.14Z" fill="#333"/>
            <path d="M30,8.9l.26,2.81-.68.06L29.35,9Z" fill="#333"/>
            <path d="M32.12,10.56v1.08h-.68l.07-2.85L33,8.85c.65,0,1,.36,1,.84a.66.66,0,0,1-.52.65.63.63,0,0,1,.39.68v.14a2.44,2.44,0,0,0,0,.54h-.7a1.94,1.94,0,0,1,0-.59V11c0-.28-.09-.41-.5-.42Zm0-.51h.7c.33,0,.48-.1.49-.34s-.13-.35-.46-.37h-.71Z" fill="#333"/>
            <path d="M37.36,11.14l-1.54-.35-.13.63,1.71.35-.19.52-2.31-.48.57-2.76,2.29.47-.11.54L36,9.79l-.1.53,1.54.32Z" fill="#333"/>
            <path d="M39.11,48.41A17.34,17.34,0,0,1,32,49.73a16.33,16.33,0,0,1-7.59-1.59l7.33,8.7Z" fill="#333" stroke="#333" stroke-linejoin="round" stroke-width="1.5"/>
            <path d="M59,54.73a6.85,6.85,0,0,0-5.25-5c-8.49-2-11.5-2.75-11.5-2.75h-.62c-1.35,1.23-4,2.07-6.13,2.62a5.88,5.88,0,0,0-4.43,5.76C31,52.61,29.73,50.3,27,49.6,25,49.06,22.77,48.22,21.7,47h-.42s-3,.75-11.5,2.75a6.85,6.85,0,0,0-5.25,5L4,57.23A70,70,0,0,0,31.78,63.1a70,70,0,0,0,27.75-5.87Z" fill="#d1c5a7"/>
            <path d="M53.78,52.72C49,51.58,45,50.34,42.52,49.48V45.34c0,2.17-4.08,4-7,4.72a5.38,5.38,0,0,0-4.43,5.29C31,52.6,29.73,50.29,27,49.59c-2.91-.76-6-2.08-6-4.25v4.45c-2.3.65-6.18,1.69-11.26,2.89a6.93,6.93,0,0,0-5.19,4.76A70.78,70.78,0,0,0,31.11,63h.66A70.82,70.82,0,0,0,59,57.43,6.94,6.94,0,0,0,53.78,52.72Z" fill="#c6bc9e"/>
            <path d="M21.28,47s-3,.75-11.5,2.75a6.85,6.85,0,0,0-5.25,5L4,57.23A70,70,0,0,0,31.78,63.1a70,70,0,0,0,27.75-5.87l-.5-2.5a6.85,6.85,0,0,0-5.25-5c-8.49-2-11.5-2.75-11.5-2.75" fill="none" stroke="#333" stroke-linejoin="round" stroke-width="1.5"/>
            <path d="M23.39,42.47c-1.46.79-2.36,1.79-2.36,2.87,0,1.51,1.5,2.61,3.39,3.39V43.6C24,43.19,23.68,42.79,23.39,42.47Z" fill="#333" stroke="#333" stroke-linejoin="round" stroke-width="1.5"/>
            <path d="M40.17,42.47c-.29.36-.64.73-1,1.14v5.18c1.89-.78,3.39-1.88,3.39-3.39C42.52,44.25,41.63,43.26,40.17,42.47Z" fill="#333" stroke="#333" stroke-linejoin="round" stroke-width="1.5"/>
            <path d="M18.34,61.72V46l-6.72,1.7V60C13.57,60.62,15.83,61.21,18.34,61.72Z" fill="#333" stroke="#333" stroke-linejoin="round" stroke-width="1.5"/>
            <path d="M51.94,60V47.69L45.22,46V61.72C47.73,61.21,50,60.62,51.94,60Z" fill="#333" stroke="#333" stroke-linejoin="round" stroke-width="1.5"/>
            <path d="M31.12,55.65C31,52.79,29.83,50.31,27,49.59s-6-2.08-6-4.25V51" fill="none" stroke="#333" stroke-linejoin="round" stroke-width="1.5"/>
            <path d="M42.52,51V45.34c0,2.17-4.08,4-7,4.72a5.51,5.51,0,0,0-4.41,5.59v7.44" fill="none" stroke="#333" stroke-linejoin="round" stroke-width="1.5"/>
          </g>
        </g>
      </g>
      <path d="M37.58,36.83a5.44,5.44,0,0,1,2.34,7.34,6.11,6.11,0,0,1-.7,1c-.85,1-6.73,9.73-14.95,0a5.46,5.46,0,0,1,.65-7.69,5.21,5.21,0,0,1,1-.67l4.52-2.35a2.88,2.88,0,0,1,2.62,0Z" fill="#fff"/>
      <path d="M23.82,38.79a23,23,0,0,1-3.75-9.3" fill="#fff" stroke="#333" stroke-linecap="round" stroke-linejoin="round" stroke-width="1.5"/>
      <path d="M39.94,38.79a23,23,0,0,0,3.75-9.3" fill="#fff" stroke="#333" stroke-linecap="round" stroke-linejoin="round" stroke-width="1.5"/>
      <line x1="22.98" y1="41.55" x2="21.34" y2="40.65" fill="none" stroke="#333" stroke-linecap="round" stroke-linejoin="round" stroke-width="1.5"/>
      <line x1="40.78" y1="41.55" x2="42.42" y2="40.65" fill="none" stroke="#333" stroke-linecap="round" stroke-linejoin="round" stroke-width="1.5"/>
      <path d="M37.58,36.83l-4.51-2.34a2.88,2.88,0,0,0-2.62,0l-4.52,2.35a5.38,5.38,0,0,0-2.77,3.52,5.3,5.3,0,0,0,1.12,2.17c8.22,9.75,14.1,1,14.95,0a5.36,5.36,0,0,0,1.13-2.18A5.38,5.38,0,0,0,37.58,36.83Z" fill="#fff"/>
      <path d="M37.58,36.83l-4.51-2.34a3,3,0,0,0-1.18-.3h0v8c0,2.06,2.2,1.61.86,4.11-2,3.84-7.08-2.89-7.08.41,0,.12,3,2.09,3,2.2C34.5,52,38.53,46,39.22,45.21a5.44,5.44,0,0,0-.6-7.68A5.57,5.57,0,0,0,37.58,36.83Z" fill="#eee"/>
      <path d="M23.18,40.26a19,19,0,0,0,8.71,2.27,17.24,17.24,0,0,0,8.44-2.27" fill="none" stroke="#ddd" stroke-miterlimit="10"/>
      <path d="M23.18,42.49a19,19,0,0,0,8.71,2.27,17.35,17.35,0,0,0,8.44-2.27" fill="none" stroke="#ddd" stroke-miterlimit="10"/>
      <path d="M37.58,36.83a5.44,5.44,0,0,1,2.34,7.34,6.11,6.11,0,0,1-.7,1c-.85,1-6.73,9.73-14.95,0a5.46,5.46,0,0,1,.65-7.69,5.21,5.21,0,0,1,1-.67l4.52-2.35a2.88,2.88,0,0,1,2.62,0Z" fill="none" stroke="#333" stroke-linejoin="round" stroke-width="1.5"/>
    </g>
  </g>
</svg>
