<svg xmlns="http://www.w3.org/2000/svg" viewBox="0 0 64 64">
  <g id="pulmonologist-white-female-coronavirus">
    <g>
      <g id="a609c9de-564c-4598-a62c-c8aea9facc83">
        <g id="ffd151de-1413-4598-ad43-49a357244363">
          <g id="e365af69-84a8-404e-af9f-071971a17377">
            <g id="b7512f38-5685-4073-8cd3-cade0dafd761">
              <path d="M47.24,50.32A5.5,5.5,0,0,0,43,45.92c-3.8-.73-7.62-1.57-13.12-2.6V39.06H17.59v4.27c-5.4,1-9.47,1.78-13.06,2.61a5.61,5.61,0,0,0-4.19,4.4L0,52.19c1.22.74,12,5.17,23.83,5a59,59,0,0,0,23.63-5Z" fill="#edccc3"/>
              <path d="M17.59,39.06V40.3l5,5.18a4.07,4.07,0,0,1,1.15,2.85A2.63,2.63,0,0,0,26.37,51h.52a3,3,0,0,0,3-3v-8.9Z" fill="#e5c2ba"/>
              <path d="M17.59,43.31c-5.4,1-9.47,1.78-13.06,2.61a5.61,5.61,0,0,0-4.19,4.4L0,52.19c1.22.74,12,5.17,23.83,5a59,59,0,0,0,23.63-5l-.25-1.9A5.47,5.47,0,0,0,43,45.91c-3.8-.73-7.62-1.57-13.12-2.6" fill="none" stroke="#333" stroke-linejoin="round" stroke-width="1.5"/>
              <path d="M47.24,50.32A5.5,5.5,0,0,0,43,45.92c-3.8-.73-7.62-1.57-13.12-2.6h-.1a13.16,13.16,0,0,1-6,9,13.13,13.13,0,0,1-6-9h-.3c-5.4,1-9.47,1.78-13.06,2.61a5.61,5.61,0,0,0-4.19,4.4L0,52.19c1.22.74,12,5.17,23.83,5a59,59,0,0,0,23.63-5Z" fill="#dae4e8"/>
              <path d="M15.18,43.76c-4.23.79-7.62,1.47-10.65,2.16a5.61,5.61,0,0,0-4.19,4.4L0,52.19a57.4,57.4,0,0,0,16.85,4.62A45,45,0,0,1,15.18,43.76Z" fill="#eee"/>
              <path d="M30.86,56.73a55.48,55.48,0,0,0,16.62-4.51l-.25-1.9a5.49,5.49,0,0,0-4.2-4.4c-3.17-.61-6.36-1.29-10.51-2.1A44.7,44.7,0,0,1,30.86,56.73Z" fill="#eee"/>
              <path d="M43,48.76c-10.58-2.12-14-2.61-14-2.61a13.09,13.09,0,0,1-5.13,6.11,13,13,0,0,1-5.13-6.11s-10,1.64-14.2,2.61a5.52,5.52,0,0,0-4,3.7,60.1,60.1,0,0,0,23.32,4.76A61.12,61.12,0,0,0,47,52.45,5.4,5.4,0,0,0,43,48.76Z" fill="#bcdaf7"/>
              <path d="M32.78,45.43l-3-2.12c-.73,5.39-5.82,8.84-6,9v.75A10,10,0,0,0,28,51.43l4.76,2.87V45.43Z" fill="#91acc1"/>
              <path d="M17.85,43.11l-2.91,2.32v8.88l6.64-3.9C20,48.29,18.28,46.28,17.85,43.11Z" fill="#91acc1"/>
              <path d="M30.87,56.73A58.85,58.85,0,0,0,47,52.45a5.37,5.37,0,0,0-4-3.69c-3.19-.61-6.41-1.3-10.6-2.12A41.11,41.11,0,0,1,30.87,56.73Z" fill="#ddd"/>
              <path d="M15.27,46.58c-4.24.8-7.69,1.48-10.74,2.18a5.52,5.52,0,0,0-4,3.7,60.55,60.55,0,0,0,16.35,4.36A39.49,39.49,0,0,1,15.27,46.58Z" fill="#ddd"/>
              <path d="M9.66,55.22l.36.34a63.6,63.6,0,0,0,6.86,1.24c-1.12-3.51-1.64-7.63-1.71-13.47L8.49,49l3.86,2.72Z" fill="#fff"/>
              <path d="M37.8,55.47l.27-.25-2.7-3.5L39.23,49l-6.68-5.67c-.07,5.79-.58,9.89-1.68,13.39A65.35,65.35,0,0,0,37.8,55.47Z" fill="#fff"/>
              <path d="M17.59,43.31c-5.4,1-9.47,1.78-13.06,2.61a5.61,5.61,0,0,0-4.19,4.4L0,52.19c1.22.74,12,5.17,23.83,5a59,59,0,0,0,23.63-5l-.25-1.9A5.47,5.47,0,0,0,43,45.91c-3.8-.73-7.62-1.57-13.12-2.6" fill="none" stroke="#333" stroke-linejoin="round" stroke-width="1.5"/>
              <line x1="23.86" y1="52.26" x2="23.86" y2="57.22" fill="none" stroke="#333" stroke-linejoin="round" stroke-width="1.5"/>
              <path d="M30.16,41.29l2.62,2.09v8.88l-5.25-3.13C29.09,47.06,29.73,44.46,30.16,41.29Z" fill="#bcdaf7"/>
              <path d="M17.56,41.29l-2.62,2.09v8.88l5.25-3.13C18.63,47.06,18,44.46,17.56,41.29Z" fill="#bcdaf7"/>
              <path d="M20.18,49.13l-5.25,3.13V43.38l2.62-2.09h0c.62,5.2,2.4,8.31,6.3,11,3.9-2.66,5.68-5.77,6.3-11h0l2.62,2.09v8.88l-5.25-3.13" fill="none" stroke="#333" stroke-linejoin="round" stroke-width="1.5"/>
              <path d="M43.71,29.19l-.59-.77a.81.81,0,0,1-.12-.75l.46-1.29a.79.79,0,0,0-.32-.93l-1.9-1.22A.79.79,0,0,1,41,23.14l.31-.48a.78.78,0,0,0-.13-1l-1.11-1a.77.77,0,0,1-.21-.81l.38-1.22A.79.79,0,0,0,40.2,18L39,15.91a.78.78,0,0,1,.24-1.06l.19-.13a.8.8,0,0,0,.22-1.1.77.77,0,0,0-.42-.31L37,12.62a.84.84,0,0,1-.51-.48l-.59-1.6a.79.79,0,0,0-.61-.51l-2.39-.38a.78.78,0,0,1-.58-.43l-.67-1.38a.76.76,0,0,0-.72-.44H28.74a.82.82,0,0,1-.61-.28L27.13,6a.79.79,0,0,0-.84-.24l-2.63.84a.86.86,0,0,1-.32,0l-2.41-.22a.77.77,0,0,0-.68.27l-1.5,1.75a.84.84,0,0,1-.3.22l-1.17.45a.76.76,0,0,0-.49.73v2.13l-2.16-.61a.77.77,0,0,0-.88.33l-1.5,1.92a.82.82,0,0,1-.72.36l-1.87.14a.78.78,0,0,0-.82.59l-.32,1.23a.85.85,0,0,1-.39.5l-.6.32a.8.8,0,0,0-.41.84l.34,1.83a.8.8,0,0,1-.56.9.78.78,0,0,0-.55,1v0l.22.68a.81.81,0,0,1-.36.93l-.35.2a.78.78,0,0,0-.35,1L6,25.26a.79.79,0,0,1-.2.85l-.69.64a.78.78,0,0,0-.21.83l.43,1.27a.81.81,0,0,1,0,.61l-.5,1a.79.79,0,0,0,.35,1.06h0l0,0,.93.41a.79.79,0,0,1,.44.93h0a.78.78,0,0,0,.54,1h0l.13,0,.6.07a.8.8,0,0,1,.68.6L8.91,36a.78.78,0,0,0,.93.59l.07,0,.2-.06a.78.78,0,0,1,.92.56l.31,1a.79.79,0,0,0,1,.51h0l.06,0,.15-.06a.79.79,0,0,1,1,.34l.56,1a.79.79,0,0,0,1,.33L17.49,39H30.6l1.64.88a.8.8,0,0,0,1-.18l1.31-1.53a.79.79,0,0,1,.83-.24l.33.1a.78.78,0,0,0,.9-.33l1-1.57a.79.79,0,0,1,.67-.37h1.4a.79.79,0,0,0,.78-.69L40.59,34a.77.77,0,0,1,.78-.69h.22a.79.79,0,0,0,.79-.8.45.45,0,0,0,0-.11l-.14-.88a.77.77,0,0,1,.57-.88l.48-.13a.8.8,0,0,0,.6-1A.84.84,0,0,0,43.71,29.19Z" fill="#728084"/>
              <path d="M34.83,22.71v-2.1c0-5.68-2.59-10.5-11-10.5s-11,4.82-11,10.5v2c-1.82,0-2.29,1.6-2,4,.25,2.05.9,4,3,4v2.08c0,3.15,2.41,5,5.25,7.87a6.14,6.14,0,0,0,4.75,1.81,6,6,0,0,0,4.7-1.81c2.93-3,5.25-4.72,5.25-7.87V31.11c2.1,0,2.9-2.15,3.15-4.2C37.22,24.5,36.64,22.71,34.83,22.71Z" fill="#edccc3"/>
              <path d="M12.74,34.59a1,1,0,0,1,.42-.58,1.92,1.92,0,0,1,.55-.24c.36-.11.71-.16,1-.25a1.49,1.49,0,0,0,.75-.35c.1-.13,0-.32-.19-.56-.42-.47-1-.81-1.57-1.44a1.21,1.21,0,0,1-.28-.67,1.23,1.23,0,0,1,.23-.72,1.43,1.43,0,0,1,1.23-.56A8,8,0,0,1,16,29.3c.32,0,.64,0,.65-.08s.07-.16.05-.18a.36.36,0,0,0-.13-.22,4.23,4.23,0,0,0-.74-.6,8.56,8.56,0,0,1-.89-.7,1.45,1.45,0,0,1-.4-.64,1,1,0,0,1,.18-.92,2.05,2.05,0,0,1,1.23-.6,8.45,8.45,0,0,0,1-.21,1.09,1.09,0,0,0,.31-.14l.05-.05h0a.06.06,0,0,0,0,.06c0,.09,0,0-.1-.1a3.17,3.17,0,0,0-.34-.3,5.64,5.64,0,0,1-.88-.81,1.05,1.05,0,0,1-.21-.47.9.9,0,0,1,.15-.68,1.14,1.14,0,0,1,.88-.46,5.25,5.25,0,0,1,1.19.07,5.62,5.62,0,0,0,.92.07c.11,0,.14-.06,0,0a.31.31,0,0,0-.07.21h0a4.47,4.47,0,0,0-.61-.62c-.13-.12-.27-.25-.42-.41a1.66,1.66,0,0,1-.43-.76A1,1,0,0,1,17.5,20a1.16,1.16,0,0,1,.51-.42,2,2,0,0,1,.8-.13,8.49,8.49,0,0,1,1.12.11,3,3,0,0,0,.73,0,.23.23,0,0,0-.1.07.4.4,0,0,0-.1.26c0,.1,0,0-.09-.13l-.57-.85a3.74,3.74,0,0,1-.55-1.18,2.13,2.13,0,0,1,.22-1.6.78.78,0,0,1,1.34.81h0a.5.5,0,0,0-.06.43,2.53,2.53,0,0,0,.33.73c.17.27.37.54.58.92a1.81,1.81,0,0,1,.27.85,1.14,1.14,0,0,1-.28.74,1.31,1.31,0,0,1-.55.34,3.46,3.46,0,0,1-1.36,0,6.85,6.85,0,0,0-1-.13h-.23a.32.32,0,0,0,.1-.1.42.42,0,0,0,.05-.24c0-.08,0,.05.11.14l.32.34a5.52,5.52,0,0,1,.81.93,1.14,1.14,0,0,1,.17.52,1,1,0,0,1-.22.7,1.33,1.33,0,0,1-.92.41,6.64,6.64,0,0,1-1.18-.11,4.61,4.61,0,0,0-.91-.1c-.12,0-.13.05-.05,0a.19.19,0,0,0,0-.18h0a4.92,4.92,0,0,0,.66.63,4.26,4.26,0,0,1,.43.42,1.26,1.26,0,0,1,.36.82.87.87,0,0,1-.06.32c0,.08-.07.15-.11.22a1.34,1.34,0,0,1-.31.32,2.23,2.23,0,0,1-.65.29,10.18,10.18,0,0,1-1.08.19,1.19,1.19,0,0,0-.66.22.11.11,0,0,0,0,.08.63.63,0,0,0,.16.24,7.36,7.36,0,0,0,.74.62,5.21,5.21,0,0,1,.87.76,1.28,1.28,0,0,1,.31.71,1.05,1.05,0,0,1-1,1.13h0a3.11,3.11,0,0,1-.61,0c-.37,0-.71-.1-1-.1a.74.74,0,0,0-.63.22c-.11.16-.16.27,0,.54.35.48,1,.86,1.49,1.45a1.64,1.64,0,0,1,.33.57.88.88,0,0,1-.13.77,1.84,1.84,0,0,1-1.11.55c-.36.08-.7.12-1,.21s-.6.22-.62.4a.25.25,0,0,1-.28.21.24.24,0,0,1-.21-.28h0Z" fill="#e5c2ba"/>
              <path d="M34.83,22.71v-2.1c0-5.68-2.59-10.5-11-10.5a16.42,16.42,0,0,0-2.8.21v12a3.91,3.91,0,0,1-1.27,2.88.44.44,0,0,0,0,.63A.43.43,0,0,0,20,26a2.57,2.57,0,0,1,1.88,1.88.49.49,0,0,0,.58.37h0a.46.46,0,0,0,.19-.08,1.65,1.65,0,0,1,.58-.32.48.48,0,0,1,.59.35.59.59,0,0,1,0,.13v2.07a1.12,1.12,0,0,0,.62.94c.57.32.16,1.4-.62,1.4h0a1.84,1.84,0,0,1-.89-.23c-.74-.37-1.43.39-1.27.68s.34,0,1.08.35a2.62,2.62,0,0,0,1.1.27v3.68a.39.39,0,0,0,.31.38c1.31.31,2,2.49-.31,3h0a1.23,1.23,0,0,0-1,1.2v.3a8.39,8.39,0,0,0,1,.06,6,6,0,0,0,4.73-1.81c2.93-3,5.25-4.72,5.25-7.87v-1.6c2.1,0,2.9-2.15,3.15-4.2C37.22,24.5,36.64,22.71,34.83,22.71Z" fill="#e5c2ba"/>
              <path d="M32.32,29.16A.36.36,0,0,0,32,29H25.24A1.53,1.53,0,0,0,24,28.15h0a1.55,1.55,0,0,0-1.31.82H15.89a.37.37,0,0,0-.33.19.37.37,0,0,0,0,.38l.88,1.52a2.36,2.36,0,0,0,2,1.18h2.13a1.83,1.83,0,0,0,1.58-.93l1-1.76h0c.19-.39.47-.65.79-.61a.86.86,0,0,1,.71.6h0l1,1.76a1.83,1.83,0,0,0,1.58.93h2.13a2.39,2.39,0,0,0,2-1.18l.88-1.51A.37.37,0,0,0,32.32,29.16Z" fill="#d8b5af"/>
              <path d="M20.2,16.81a2.61,2.61,0,0,0,.14,1,.9.9,0,0,0,.48.5,4.31,4.31,0,0,0,2.14,0,12.5,12.5,0,0,1,2.73-.25,1.7,1.7,0,0,1,1.56,1.24,3.22,3.22,0,0,1,0,.76.66.66,0,0,0,.07.3,1.13,1.13,0,0,0,.1.13h0a1.13,1.13,0,0,0,.32,0c.34-.1.72-.29,1.18-.45a1.94,1.94,0,0,1,.92-.14,1,1,0,0,1,.65.35,1.2,1.2,0,0,1,.27.58,1.6,1.6,0,0,1-.19,1c-.13.24-.27.43-.39.61a1.87,1.87,0,0,0-.4.73h0a1.48,1.48,0,0,0,.42,0c.37,0,.8-.11,1.27-.15a2.52,2.52,0,0,1,.82.05,1.09,1.09,0,0,1,.82.82,1.36,1.36,0,0,1-.22,1,4.83,4.83,0,0,1-.43.58,8.47,8.47,0,0,0-.75.93.38.38,0,0,0-.09.25.29.29,0,0,0,.16.15,6.38,6.38,0,0,0,1.15.17c.44,0,1.5.61.88,1.55a3.36,3.36,0,0,1-1.29.72,3.13,3.13,0,0,0-1,.5h0a1.63,1.63,0,0,0,.43.18,6.09,6.09,0,0,1,1.32.4.9.9,0,0,1,.37.4.8.8,0,0,1,0,.57,1.46,1.46,0,0,1-.57.61c-.4.24-.75.47-.68.57,0,.26.3.45.7.56a11.22,11.22,0,0,1,1.26.35,1.16,1.16,0,0,1,.64.53.89.89,0,0,1-.09.89,3.92,3.92,0,0,1-1.1.84c-.35.21-.73.48-.76.71a.25.25,0,0,1-.31.17.26.26,0,0,1-.18-.22h0a1.14,1.14,0,0,1,.42-.7,4.29,4.29,0,0,1,.55-.4,3.82,3.82,0,0,0,.93-.71c.15-.22,0-.45-.32-.57s-.79-.18-1.23-.31a2.46,2.46,0,0,1-.68-.31,1.3,1.3,0,0,1-.3-.32,1.32,1.32,0,0,1-.17-.41.9.9,0,0,1,.38-.86c.2-.16.39-.27.55-.38A1,1,0,0,0,33,31h0l-.07,0a7.91,7.91,0,0,0-1.16-.3A1.82,1.82,0,0,1,31,30.3a.78.78,0,0,1-.27-.58.79.79,0,0,1,.22-.53,3.6,3.6,0,0,1,1.25-.74,3.63,3.63,0,0,0,1-.51h0v-.08a.5.5,0,0,0-.31-.1,5.89,5.89,0,0,1-1.39-.19,1.24,1.24,0,0,1-.7-.75,1.3,1.3,0,0,1,.16-1,8.06,8.06,0,0,1,.82-1.1,1.78,1.78,0,0,0,.41-.7h-.07a1.77,1.77,0,0,0-.46,0c-.38,0-.8.14-1.28.18a2.08,2.08,0,0,1-.86-.07,1.13,1.13,0,0,1-.52-.34,1.27,1.27,0,0,1-.26-.55,1.51,1.51,0,0,1,.18-1,4.72,4.72,0,0,1,.37-.61c.25-.33.41-.72.36-.72h0l.09.06a1,1,0,0,0-.34.09c-.35.13-.73.34-1.21.5a2,2,0,0,1-.95.1,1.36,1.36,0,0,1-.61-.31,1.74,1.74,0,0,1-.3-.37A3.28,3.28,0,0,1,26,19.54a.46.46,0,0,0-.39-.17,12.66,12.66,0,0,0-2.37.34,5.57,5.57,0,0,1-3-.07A2.41,2.41,0,0,1,19,18.36a4,4,0,0,1-.29-1.56.77.77,0,0,1,1.54,0h0v.05Z" fill="#d8b5af"/>
              <path d="M16,25.93a7.4,7.4,0,0,1,2.79-.49,6.87,6.87,0,0,1,2.82.67.5.5,0,0,1-.43.91h-.06a6.23,6.23,0,0,0-2.41-1,4.89,4.89,0,0,0-2.6.2.18.18,0,0,1-.22-.11.17.17,0,0,1,.08-.21Z" fill="#333"/>
              <path d="M31.21,26.26a4.89,4.89,0,0,0-2.6-.2,6.23,6.23,0,0,0-2.39.92.5.5,0,0,1-.68-.19.49.49,0,0,1,.14-.65h.06a6.87,6.87,0,0,1,2.82-.67,7.6,7.6,0,0,1,2.79.49.18.18,0,0,1,.11.23.19.19,0,0,1-.23.11h0Z" fill="#333"/>
              <circle cx="28.33" cy="28.41" r="0.75" fill="#333"/>
              <circle cx="19.01" cy="28.41" r="0.75" fill="#333"/>
              <path d="M22.71,28.94a1.14,1.14,0,0,1,2.18,0" fill="none" stroke="#333" stroke-linecap="round" stroke-linejoin="round" stroke-width="0.75"/>
              <path d="M15.75,28.94h7l-1,1.76a1.46,1.46,0,0,1-1.25.74H18.36a2,2,0,0,1-1.73-1Z" fill="#edccc3"/>
              <path d="M20.4,31.44a1.39,1.39,0,0,0,.22-.74,1.33,1.33,0,0,0-.09-.49.25.25,0,0,0-.23-.16H18.18a.24.24,0,0,0-.23.16,1.35,1.35,0,0,0,.11,1.19,1.71,1.71,0,0,0,.32,0Z" fill="#f9e8e5"/>
              <path d="M31.84,28.94h-7l1,1.76a1.46,1.46,0,0,0,1.25.74h2.14a2,2,0,0,0,1.73-1Z" fill="#edccc3"/>
              <path d="M22.34,29.61H17.27a.22.22,0,0,0-.21.12.28.28,0,0,0,0,.25l.66,1.13a2.47,2.47,0,0,0,.21.27,3,3,0,0,0,.43.06h2.13a1.44,1.44,0,0,0,1.25-.74Z" fill="#fce0da"/>
              <path d="M26.37,29.61a.24.24,0,0,0-.24.24h0a.23.23,0,0,0,0,.11l.78,1.41v.05h2.29a2,2,0,0,0,1.73-1l.49-.84Z" fill="#fce0da"/>
              <path d="M29.53,31.44a1.39,1.39,0,0,0,.22-.74,1.33,1.33,0,0,0-.09-.49.25.25,0,0,0-.23-.15H27.31a.24.24,0,0,0-.23.16,1.35,1.35,0,0,0,.11,1.19,1.71,1.71,0,0,0,.32,0Z" fill="#f9e8e5"/>
              <path d="M20.59,31.44a1.39,1.39,0,0,0,.22-.74,1.33,1.33,0,0,0-.09-.49.25.25,0,0,0-.23-.16H18.37a.24.24,0,0,0-.23.16,1.17,1.17,0,0,0-.11.49,1.32,1.32,0,0,0,.2.7,1.71,1.71,0,0,0,.32,0Z" fill="#f9e8e5"/>
              <path d="M15.75,28.94h7l-1,1.76a1.46,1.46,0,0,1-1.25.74H18.36a2,2,0,0,1-1.73-1Z" fill="none" stroke="#333" stroke-linecap="round" stroke-linejoin="round" stroke-width="0.75"/>
              <path d="M31.84,28.94h-7l1,1.76a1.46,1.46,0,0,0,1.25.74h2.14a2,2,0,0,0,1.73-1Z" fill="none" stroke="#333" stroke-linecap="round" stroke-linejoin="round" stroke-width="0.75"/>
              <path d="M21.6,15.86a1.54,1.54,0,0,0,.23,1,2.33,2.33,0,0,0,1.07.63,3.64,3.64,0,0,1,.88.39,1.6,1.6,0,0,1,.47.5,1.29,1.29,0,0,1,.15.72,3.81,3.81,0,0,1-.27.93,1.19,1.19,0,0,0-.13.49c0,.06.05.15.23.26s.43.22.68.35a2.46,2.46,0,0,1,1.37,1.3,1.24,1.24,0,0,1-.08,1.07,6.84,6.84,0,0,1-.47.72,2.7,2.7,0,0,0-.65,1.28h0a.25.25,0,0,1-.26.23.24.24,0,0,1-.23-.25,3.14,3.14,0,0,1,.62-1.64,4.22,4.22,0,0,0,.36-.66.53.53,0,0,0,0-.49,1.75,1.75,0,0,0-1-.73c-.24-.1-.49-.17-.79-.32a1.41,1.41,0,0,1-.78-.92,2,2,0,0,1,0-1,2.31,2.31,0,0,0,.2-.63c0-.1,0,0-.11-.12a2.18,2.18,0,0,0-.61-.2,3.73,3.73,0,0,1-1.72-.91,3,3,0,0,1-.72-2,.78.78,0,0,1,1.55-.06A.29.29,0,0,0,21.6,15.86Z" fill="#d8b5af"/>
              <path d="M34.83,22.71v-2.1c0-5.68-2.59-10.5-11-10.5s-11,4.82-11,10.5v2c-1.82,0-2.29,1.6-2,4,.25,2.05.9,4,3,4v2.08c0,3.15,2.41,5,5.25,7.87a6.14,6.14,0,0,0,4.75,1.81,6,6,0,0,0,4.7-1.81c2.93-3,5.25-4.72,5.25-7.87V31.11c2.1,0,2.9-2.15,3.15-4.2C37.22,24.5,36.64,22.71,34.83,22.71Z" fill="none" stroke="#333" stroke-linejoin="round" stroke-width="1.5"/>
              <path d="M31,19.61c.54,1-1.45,2.11-.91,3.08s3.15-.48,3.7.5-2.06,2.43-1.52,3.41,2.41.09,2.67,1.18c.21.88-1.86.79-1.95,1.68-.08.7,1.7.88,1.67,1.82-.26.94,0,.48-1,.78a7.88,7.88,0,0,1-4,6.69V39h.9l1.64.88a.8.8,0,0,0,1-.18l1.31-1.53a.79.79,0,0,1,.83-.24l.33.1a.78.78,0,0,0,.9-.33l1-1.57a.79.79,0,0,1,.67-.37h1.4a.79.79,0,0,0,.78-.69l.13-1.12a.77.77,0,0,1,.78-.69h.22a.79.79,0,0,0,.79-.8.45.45,0,0,0,0-.11l-.14-.88a.77.77,0,0,1,.57-.88l.48-.13a.79.79,0,0,0,.55-1,.68.68,0,0,0-.13-.27l-.59-.77a.8.8,0,0,1-.07-.75l.46-1.29a.79.79,0,0,0-.32-.93l-1.9-1.22A.79.79,0,0,1,41,23.13l.31-.48a.78.78,0,0,0-.13-1l-1.11-1a.77.77,0,0,1-.21-.81l.38-1.22A.79.79,0,0,0,40.2,18l-1.26-2.12a.78.78,0,0,1,.24-1.06l.19-.13a.8.8,0,0,0,.22-1.1.77.77,0,0,0-.42-.31L37,12.57a.84.84,0,0,1-.51-.48l-.59-1.6a.79.79,0,0,0-.61-.51L32.85,9.6a.78.78,0,0,1-.58-.43L31.7,8c-.67.24-1,.33-1.35.19-1.7-.51-2.25-1.09-3-.64-1.73,1-1.93,1.31-2.55,1.26-1.62,0-3.86-.46-4.74,0-3,1.38-2.21,2-5.73,3-1.27.54.21,1.25-.76,1.94-3.89,3.34-.46,3.87-2.1,4-.28.09-1.57-.14-1.77,1-.12.46,0,1.18-.67,1.58-.29.26-1.51.56-1.24,1.69.1.69.51,1.29,0,1.93S6.58,25.23,7,26.13c.22.65.87,1.32.39,2.09-.29.62-1.08,1.25-.64,2.1.25.65,1,1.3.49,2.1a11.18,11.18,0,0,1-.61,1.06.79.79,0,0,0,.57.36l.6.07a.8.8,0,0,1,.68.6L8.85,36a.78.78,0,0,0,.93.59l.07,0,.2-.06a.79.79,0,0,1,1,.5h0v0l.31,1a.79.79,0,0,0,1,.51h0l.06,0,.15-.06a.79.79,0,0,1,1,.34l.56,1a.79.79,0,0,0,1,.33L17.51,39h.24v-.09c-2.2-1.82-4.52-3.58-4-9,.8,0,1.62.19,1.68-.77.07-1.22-2.41-1.44-2.32-2.66s2.92-.34,3.18-1.54c.2-.91-2-1.57-1.6-2.43s3.1.57,3.46-.3-1.86-1.76-1.5-2.62,2.88.43,3.47-.3c.32-.41-.16-1.56-.53-2,1.95,1.59,5.94-.28,7,.29s.12,1.48,1,2.35S30.51,18.63,31,19.61Z" fill="#444e51"/>
              <line x1="20.8" y1="36.3" x2="20.3" y2="37.3" fill="none" stroke="#d8b5af" stroke-linecap="round" stroke-miterlimit="10" stroke-width="0.5"/>
              <line x1="26.8" y1="36.3" x2="27.3" y2="37.3" fill="none" stroke="#d8b5af" stroke-linecap="round" stroke-miterlimit="10" stroke-width="0.5"/>
              <path d="M24.58,35.6a1.92,1.92,0,0,1-.78.2c-.2,0-.22,0-.68-.2-.8-.32-.85.66-2.33,1.2l.92.94a2.2,2.2,0,0,0,1.55.56h1a2.56,2.56,0,0,0,1.67-.6l.86-.9C25.38,36.29,25.38,35.28,24.58,35.6Z" fill="#a56659"/>
              <path d="M26.79,36.8c-1,0-1.49-.49-3,0h0c-1.48-.5-2,0-3,0" fill="none" stroke="#743f40" stroke-linecap="round" stroke-miterlimit="10" stroke-width="0.5"/>
              <path d="M21.8,33.36c1,0,1,.5,2,.5s1-.5,2-.5" fill="none" stroke="#674848" stroke-linecap="round" stroke-miterlimit="10" stroke-width="0.75"/>
              <path d="M9,34.17a1,1,0,0,1,.27-.85c.18-.21.37-.38.53-.56.35-.33.37-.75,0-.92a3.41,3.41,0,0,0-.68-.23A1.16,1.16,0,0,1,8.41,31a.8.8,0,0,1,0-.57A.94.94,0,0,1,8.73,30a3.4,3.4,0,0,1,.71-.42c.22-.1.43-.22.64-.34s.32-.27.31-.35c0-.29-.34-.57-.77-.86A1.76,1.76,0,0,1,9,27.41a.86.86,0,0,1-.06-.59,1.31,1.31,0,0,1,.2-.47,1.17,1.17,0,0,1,.9-.47,2.13,2.13,0,0,0,.61-.12.34.34,0,0,0,.12-.12.86.86,0,0,0,.07-.21.68.68,0,0,0-.19-.43,1.65,1.65,0,0,1-.4-.89,1.06,1.06,0,0,1,.16-.58,1.29,1.29,0,0,1,.36-.41,1,1,0,0,1,.61-.2,1.38,1.38,0,0,1,.49.1c.27.09.37.09.38.06.19-.17.21-.27,0-.72a6.17,6.17,0,0,1-.38-.72,1.29,1.29,0,0,1,0-1.15,1.44,1.44,0,0,1,.38-.43,1.19,1.19,0,0,1,.58-.2,3.11,3.11,0,0,1,.91.07,7.08,7.08,0,0,0,2.78.31.58.58,0,0,1,.69.45.59.59,0,0,1-.45.69h0a7.89,7.89,0,0,1-3.2-.43,2.47,2.47,0,0,0-.6-.08c-.16,0-.13,0-.23.13s-.05.12,0,.3a5.2,5.2,0,0,0,.32.62,1.85,1.85,0,0,1,.26,1,1.24,1.24,0,0,1-.63,1,1.3,1.3,0,0,1-1.09,0c-.25-.09-.28-.08-.34,0-.23.25-.3.27,0,.75a1.43,1.43,0,0,1,.3,1,1.58,1.58,0,0,1-.18.5,1.15,1.15,0,0,1-.42.4,2.6,2.6,0,0,1-.87.18.47.47,0,0,0-.42.16.55.55,0,0,0-.1.22v.15a1.6,1.6,0,0,0,.41.41,5.11,5.11,0,0,1,.63.52,1.21,1.21,0,0,1,.36.92,1.12,1.12,0,0,1-.61.79c-.23.13-.47.25-.71.36-.45.2-.92.46-.76.68s.65.34,1.16.6a.89.89,0,0,1,.48.83,1.31,1.31,0,0,1-.42.8c-.37.37-.81.67-.74,1.05a.19.19,0,0,1-.15.22A.18.18,0,0,1,9,34.17Z" fill="#566266"/>
              <path d="M37.61,32.79a1,1,0,0,1,.33-.78,2.26,2.26,0,0,1,.59-.42c.39-.22.79-.38,1.1-.59s.43-.45.32-.65a1.84,1.84,0,0,0-.88-.54,4.77,4.77,0,0,1-1.24-.61,1.13,1.13,0,0,1-.44-.79,1.31,1.31,0,0,1,.24-.84,5.27,5.27,0,0,1,1-.89.58.58,0,0,0,.25-.67,1.77,1.77,0,0,0-.78-.6,4.86,4.86,0,0,1-1.18-.76,1.28,1.28,0,0,1-.38-.86,1.52,1.52,0,0,1,.23-.86,8.24,8.24,0,0,1,.86-1c.08-.12.09-.17.07-.25s-.06-.18-.09-.18a2.13,2.13,0,0,0-.94,0,2.42,2.42,0,0,1-1.59-.18,1.27,1.27,0,0,1-.4-.4,1,1,0,0,1-.11-.68,2,2,0,0,1,.4-.8c.3-.38.62-.68.89-1,.12-.14.24-.28.35-.43s.1-.25.09-.14h0a.77.77,0,0,0-.37,0c-.34.08-.73.25-1.2.38a2.65,2.65,0,0,1-.84.1,1.36,1.36,0,0,1-1-.55,1.56,1.56,0,0,1-.3-1,3.32,3.32,0,0,1,.1-.77,3.1,3.1,0,0,0,.14-1,.33.33,0,0,0-.07-.13h-.09a5.36,5.36,0,0,0-1,.47,5.05,5.05,0,0,1-.74.27,1.64,1.64,0,0,1-1-.08,2.52,2.52,0,0,1-1.2-1.23,6.23,6.23,0,0,0-.49-.92h.06l-.2.07-.32.12a7,7,0,0,1-1.41.36,2.74,2.74,0,0,1-1.75-.35,3.6,3.6,0,0,1-1.13-1.26h0A.87.87,0,0,1,25,11.49v.06a1.85,1.85,0,0,0,.5.68,1.05,1.05,0,0,0,.71.17,4.92,4.92,0,0,0,1.08-.21l.29-.09c.08,0,.22-.08.41-.12a1.37,1.37,0,0,1,1.23.37A5,5,0,0,1,30,13.66a1.3,1.3,0,0,0,.5.61,1.13,1.13,0,0,0,.67-.16,6.28,6.28,0,0,1,1.32-.53,1.38,1.38,0,0,1,1.13.21,1.53,1.53,0,0,1,.58.94A3.8,3.8,0,0,1,34,16.26c-.1.4-.11.66,0,.73l.09.06a2,2,0,0,0,.42-.05c.36-.09.76-.25,1.25-.36a1.91,1.91,0,0,1,.89,0,1.18,1.18,0,0,1,.89.83,1.29,1.29,0,0,1-.27,1,5,5,0,0,1-.47.56c-.31.32-.62.61-.85.9a1,1,0,0,0-.2.32v-.06h0a1.54,1.54,0,0,0,.9.06,2.57,2.57,0,0,0,.68-.06,1.54,1.54,0,0,1,.89.2,1.2,1.2,0,0,1,.54.88,1.34,1.34,0,0,1-.26,1c-.35.44-.7.65-.85.91a.64.64,0,0,0-.11.36.39.39,0,0,0,.13.28,4.29,4.29,0,0,0,1,.62,2.55,2.55,0,0,1,1.13,1,1.32,1.32,0,0,1,0,.92,1.57,1.57,0,0,1-.51.66,5.86,5.86,0,0,0-.93.73.58.58,0,0,0-.12.36.39.39,0,0,0,.17.29,4.13,4.13,0,0,0,1,.52,2.36,2.36,0,0,1,1.2.86,1,1,0,0,1,0,.91,1.46,1.46,0,0,1-.56.57c-.4.25-.81.4-1.16.59s-.66.42-.64.66a.29.29,0,0,1-.26.3h0a.27.27,0,0,1-.3-.24h0v0h-.06Z" fill="#566266"/>
              <path d="M13.8,29.61v3.08c0,3.15,2.41,5,5.25,7.87a6.14,6.14,0,0,0,4.75,1.81,6,6,0,0,0,4.73-1.81c2.93-3,5.25-4.72,5.25-7.87V30.3" fill="none" stroke="#333" stroke-linejoin="round" stroke-width="1.5"/>
              <path d="M10.58,35.64a1,1,0,0,1,.47-.64,2.29,2.29,0,0,1,.62-.27c.4-.12.8-.19,1.16-.28a1.7,1.7,0,0,0,.86-.39c.12-.15.05-.35-.18-.63-.47-.53-1.16-.92-1.75-1.6a1.49,1.49,0,0,1-.35-.71,1,1,0,0,1,0-.48,2.17,2.17,0,0,1,.15-.35,1.69,1.69,0,0,1,1.27-.79,8.57,8.57,0,0,1,1.24-.05,1.29,1.29,0,0,0,.79-.17.46.46,0,0,0,.17-.22.32.32,0,0,0-.1-.19,3.27,3.27,0,0,0-.84-.59A5.47,5.47,0,0,1,13,27.5a1.29,1.29,0,0,1-.38-.88,1.2,1.2,0,0,1,.45-.93,2.88,2.88,0,0,1,1.35-.5A6.5,6.5,0,0,0,15.51,25a1,1,0,0,0,.28-.16v-.05a.2.2,0,0,0,0,.11,2.71,2.71,0,0,0-.6-.57,4,4,0,0,1-1-1,1.16,1.16,0,0,1-.13-.68,1,1,0,0,1,.37-.65,1.55,1.55,0,0,1,1-.32,8,8,0,0,1,1.29.1,5.54,5.54,0,0,0,1,.06c.12,0,.06-.06,0,.09a.28.28,0,0,0,0,.22h0a5.51,5.51,0,0,0-.73-.72,5.32,5.32,0,0,1-.47-.48,1.63,1.63,0,0,1-.44-1,1.22,1.22,0,0,1,.86-1.19,2.51,2.51,0,0,1,.86-.1,10.43,10.43,0,0,1,1.24.13,2.62,2.62,0,0,0,.79,0,.41.41,0,0,0-.13.1.47.47,0,0,0-.09.28c0,.09,0-.07-.11-.18-.16-.27-.41-.6-.65-1A4.36,4.36,0,0,1,18,16.67a2.34,2.34,0,0,1,.25-1.79.86.86,0,0,1,1.2-.27.88.88,0,0,1,.29,1.18.56.56,0,0,0-.07.49,3.12,3.12,0,0,0,.37.81c.18.31.41.61.65,1a2.18,2.18,0,0,1,.31,1,1.24,1.24,0,0,1-.25.83,1.31,1.31,0,0,1-.61.43,3.42,3.42,0,0,1-1.56,0c-.41-.06-.79-.13-1.1-.16a.81.81,0,0,0-.31,0,.4.4,0,0,0,.17-.34c0-.16,0,0,.08.08s.21.24.34.37a7.14,7.14,0,0,1,.9,1,1.61,1.61,0,0,1,.22.48,1.11,1.11,0,0,1-.58,1.31,1.78,1.78,0,0,1-.5.14,5.17,5.17,0,0,1-1.36-.1,7.53,7.53,0,0,0-1-.13h-.17a.35.35,0,0,0,.08-.16.2.2,0,0,0,0-.11,3.69,3.69,0,0,0,.66.65c.16.14.32.28.47.44a1.83,1.83,0,0,1,.48.74,1,1,0,0,1,0,.68,1.6,1.6,0,0,1-.29.44,1.9,1.9,0,0,1-.74.43,7.69,7.69,0,0,1-1.25.25,2.22,2.22,0,0,0-.87.24s-.06.06-.06.09,0,.07.09.17a4.6,4.6,0,0,0,.83.62,4.38,4.38,0,0,1,1,.82,1.18,1.18,0,0,1,.31.88,1.39,1.39,0,0,1-.38.83,2,2,0,0,1-1.44.4,10.46,10.46,0,0,0-1.12,0,.87.87,0,0,0-.69.36l-.09.19a.2.2,0,0,0,0,.11.69.69,0,0,0,.17.34c.42.54,1.12,1,1.68,1.63a1.78,1.78,0,0,1,.35.65,1,1,0,0,1-.19.85,2.24,2.24,0,0,1-1.22.55c-.4.08-.79.14-1.14.23s-.67.24-.7.45a.29.29,0,0,1-.31.25.28.28,0,0,1-.25-.31v0h0Z" fill="#333"/>
              <path d="M19.89,15.32A2.92,2.92,0,0,0,20,16.38a1,1,0,0,0,.5.57,4.6,4.6,0,0,0,2.3.08,20.45,20.45,0,0,1,2.92-.37,2.63,2.63,0,0,1,1,.17,2.27,2.27,0,0,1,.48.27,1.88,1.88,0,0,1,.43.46,2,2,0,0,1,.25,1.08,2.09,2.09,0,0,0,0,.5.63.63,0,0,0,.16.27c-.05-.05-.09,0,.06,0a5.8,5.8,0,0,0,1.15-.4,4.36,4.36,0,0,1,.77-.26,1.45,1.45,0,0,1,1.26.18,1.27,1.27,0,0,1,.43.61,1.48,1.48,0,0,1,.06.66,2.38,2.38,0,0,1-.36.91,9.82,9.82,0,0,0-.71,1.1.34.34,0,0,0,0,.2h.07A4.31,4.31,0,0,0,32,22.34a3.92,3.92,0,0,1,1.67,0,1.24,1.24,0,0,1,.85,1,1.63,1.63,0,0,1-.27,1.05,11.74,11.74,0,0,1-.94,1.17,1.91,1.91,0,0,0-.5.8c0,.06.18.25.62.29A3.46,3.46,0,0,1,35,27a1.17,1.17,0,0,1,.37.48,1,1,0,0,1,.07.64,1.25,1.25,0,0,1-.76.78,5.41,5.41,0,0,0-1.15.52c-.12.13-.15.19.24.45l.62.35a1.41,1.41,0,0,1,.65.71,1,1,0,0,1-.24,1,3.46,3.46,0,0,1-.65.49,2,2,0,0,0-.48.34c-.08.1-.08.11,0,.27a1.73,1.73,0,0,0,.9.57A9.89,9.89,0,0,1,36,34a1.11,1.11,0,0,1,.65.69,1,1,0,0,1-.22.94,5.55,5.55,0,0,1-1.21.89c-.38.23-.79.53-.82.78a.28.28,0,0,1-.3.26.27.27,0,0,1-.26-.29v0h0a1.19,1.19,0,0,1,.46-.77,3.84,3.84,0,0,1,.61-.45,5.72,5.72,0,0,0,1-.78.36.36,0,0,0,.09-.37c0-.11-.14-.2-.32-.28a8.7,8.7,0,0,0-1.31-.34,3.65,3.65,0,0,1-.8-.22,1.46,1.46,0,0,1-.6-.7,1,1,0,0,1-.11-.52.82.82,0,0,1,.22-.52,2.61,2.61,0,0,1,.64-.51,4.17,4.17,0,0,0,.47-.36.26.26,0,0,0,.07-.26c0-.15-.51-.37-1-.6a1.47,1.47,0,0,1-.68-.69A1,1,0,0,1,33,28.79a5.22,5.22,0,0,1,1.33-.73,1.14,1.14,0,0,0,.23-.15v-.05a.11.11,0,0,0-.06-.07,3.4,3.4,0,0,0-1.14-.14,2.71,2.71,0,0,1-.88-.22,1.32,1.32,0,0,1-.71-.92,1.6,1.6,0,0,1,.24-1,5.06,5.06,0,0,1,.46-.65,10,10,0,0,0,.8-1.05.53.53,0,0,0,.1-.29h0a3.31,3.31,0,0,0-1.13.08,5.13,5.13,0,0,1-1.61.1,1.43,1.43,0,0,1-.57-.23,1.16,1.16,0,0,1-.44-.54,1.51,1.51,0,0,1,0-1.18,9,9,0,0,1,.77-1.31,1.11,1.11,0,0,0,.16-.39h0s.07,0-.1.07a5.37,5.37,0,0,0-.56.21,6.72,6.72,0,0,1-1.5.54,1.53,1.53,0,0,1-1.31-.4,2.1,2.1,0,0,1-.57-.92,3.07,3.07,0,0,1-.1-.9.66.66,0,0,0,0-.28.52.52,0,0,0-.19-.11,1.21,1.21,0,0,0-.42-.05,19.89,19.89,0,0,0-2.66.42,5.87,5.87,0,0,1-3.27-.15,2.72,2.72,0,0,1-1.41-1.42,4.58,4.58,0,0,1-.31-1.71.87.87,0,0,1,1.74,0h0Z" fill="#333"/>
              <path d="M30.8,38.67a4.13,4.13,0,0,0,1.75.71,1,1,0,0,0,.68-.32c.19-.19.45-.52.7-.77a2.52,2.52,0,0,1,1-.7,1.23,1.23,0,0,1,.71,0,.65.65,0,0,0,.34,0,.55.55,0,0,0,.47-.39,3.78,3.78,0,0,1,.51-1,2.17,2.17,0,0,1,1-.77,5.18,5.18,0,0,1,1.11-.21c.7-.07.82-.28.93-.91a2,2,0,0,1,.51-1.24,2.09,2.09,0,0,1,1.22-.49c.16,0,.17-.07.12,0s0,0,0-.18a4,4,0,0,1,0-1.19,1.68,1.68,0,0,1,.8-1.2,3.54,3.54,0,0,1,.52-.25c.15-.07.14-.1.1,0s0-.05,0-.16a2.35,2.35,0,0,0-.19-.39,3.69,3.69,0,0,1-.49-1.09c-.2-.9.24-1.76.15-2.09a2.11,2.11,0,0,0-1.12-1c-.14-.07-.29-.15-.44-.21L41,24.77l-.22-.13a1.1,1.1,0,0,1-.33-.38,1.35,1.35,0,0,1-.15-.88,1.71,1.71,0,0,1,.3-.69l.14-.22.07-.11h0a.29.29,0,0,0,0-.13c0-.06,0,0-.11-.14l-.38-.35-.32-.4a2.71,2.71,0,0,1-.44-.57,2.08,2.08,0,0,1-.13-1.43,5.69,5.69,0,0,0,.2-.91.57.57,0,0,0,0-.26.14.14,0,0,0-.06-.12,1.1,1.1,0,0,0-.14-.21,6.61,6.61,0,0,1-.57-1,2.7,2.7,0,0,1-.21-1.31,6.26,6.26,0,0,1,.25-1.14.77.77,0,0,0,0-.52,1,1,0,0,0-.48-.29c-.27-.1-.61-.17-1-.27a3.34,3.34,0,0,1-1.18-.54,1.65,1.65,0,0,1-.54-.71c-.08-.19-.12-.32-.19-.47a2.58,2.58,0,0,0-.41-.7,1,1,0,0,0-.56-.31,7.5,7.5,0,0,0-.93-.15l-.53-.06a2.21,2.21,0,0,1-.75-.25,2.47,2.47,0,0,1-.94-1.06l-.23-.48A.92.92,0,0,0,31,8.31c-.15-.21-.7-.23-1.42-.19H29a2.8,2.8,0,0,1-.71-.06,2.82,2.82,0,0,1-1.18-.77c-.27-.29-.48-.55-.61-.65s-.13-.07-.35,0a15,15,0,0,1-2.09.58,7.71,7.71,0,0,1-2.25,0,1.92,1.92,0,0,0-.79.08,1.23,1.23,0,0,0-.41.13.76.76,0,0,0-.23.13,1,1,0,0,0-.18.23c-.07.12-.18.31-.31.49a3.59,3.59,0,0,1-1,.9c-.18.12-.35.2-.53.3s-.42.19-.44.21a.77.77,0,0,0-.33.4,2.43,2.43,0,0,0-.14.76,2.51,2.51,0,0,0,.06.77v.05a.75.75,0,0,1-.54.91.82.82,0,0,1-.44,0,4.88,4.88,0,0,0-2.07-.31,1.11,1.11,0,0,0-.69.3,3.5,3.5,0,0,0-.33.43c-.14.18-.29.35-.45.53a2.87,2.87,0,0,1-1.37.86,9,9,0,0,0-1.15.22,1.55,1.55,0,0,0-.71.44c-.14.14-.21.54-.49,1.05a2.66,2.66,0,0,1-.52.64c-.18.18-.46.34-.5.39a1.14,1.14,0,0,0-.36.67,1.88,1.88,0,0,0,.14.93,2.54,2.54,0,0,1,.16.82,1.4,1.4,0,0,1-.51,1,2,2,0,0,1-.33.24l-.23.14a.29.29,0,0,0-.13.14c-.07,0-.07.14,0,.29a2.58,2.58,0,0,1,.17.62,1.29,1.29,0,0,1-.26,1.1,3.38,3.38,0,0,1-.63.5.76.76,0,0,0-.25.19V24h0l.16.39A4.44,4.44,0,0,1,6.4,25a2,2,0,0,1-.24,1.47l-.22.3-.2.21a.92.92,0,0,0-.19.28,1,1,0,0,0,0,.67V28c0,.33.28.5.5,1.19a2.72,2.72,0,0,1-.3,1.56c-.11.37-.11.34.13.59s.88.45,1.06,1.17a2.15,2.15,0,0,1,0,.8H7a2.75,2.75,0,0,0,.49.14,5,5,0,0,1,.75.15,1,1,0,0,1,.47.4,1.36,1.36,0,0,1,.16.48l.08.64a1.36,1.36,0,0,0,.15.47c.09.16.16.23.2.24a1,1,0,0,0,.42,0,1.43,1.43,0,0,1,.93.14,2.18,2.18,0,0,1,.8,1.39c.12.49.18.66.37.7a6.29,6.29,0,0,1,1.3.05,1.16,1.16,0,0,1,.76.59,1.63,1.63,0,0,0,.3.44,1.42,1.42,0,0,0,.92.41,3.24,3.24,0,0,0,2.13-.74h0a.34.34,0,0,1,.48,0,.35.35,0,0,1,0,.48h0a4,4,0,0,1-2.66,1,2.2,2.2,0,0,1-1.43-.6,3,3,0,0,1-.46-.62.39.39,0,0,0-.25-.17c-.26-.08-.69.09-1.3,0a1.2,1.2,0,0,1-.78-.59,3.16,3.16,0,0,1-.25-.71,1.56,1.56,0,0,0-.42-.84H9.78a1.83,1.83,0,0,1-.87,0,1.45,1.45,0,0,1-.7-.66,2.66,2.66,0,0,1-.27-.76c-.05-.25-.06-.48-.09-.65s0-.13-.06-.14a2.34,2.34,0,0,1-.53-.08,3.29,3.29,0,0,1-.76-.21A1.18,1.18,0,0,1,6,33.9a1,1,0,0,1-.15-.62,2,2,0,0,0,0-.49.55.55,0,0,0-.2-.25l-.21-.15-.25-.33a1.53,1.53,0,0,1-.54-.8,1.59,1.59,0,0,1,.08-.94,2.18,2.18,0,0,0,.25-1,8,8,0,0,1-.53-1.2v.06a2,2,0,0,1,0-1.46,2.18,2.18,0,0,1,.4-.63,1.64,1.64,0,0,0,.27-.32.89.89,0,0,0,.07-.64,1.88,1.88,0,0,0-.14-.42c0-.19-.12-.27-.22-.64v.1a1.3,1.3,0,0,1,0-1.09,1.76,1.76,0,0,1,.66-.64,3.16,3.16,0,0,0,.5-.22v-.07a2.87,2.87,0,0,1-.2-1.5,1.51,1.51,0,0,1,.6-.84l.29-.19a1.09,1.09,0,0,0,.17-.13L7,19.43a1.47,1.47,0,0,0-.13-.37,3.27,3.27,0,0,1-.21-1.51,2.37,2.37,0,0,1,.78-1.49c.27-.23.36-.26.48-.38a1.14,1.14,0,0,0,.26-.32,8.14,8.14,0,0,1,.57-1.19A2.86,2.86,0,0,1,10,13.23,6.37,6.37,0,0,1,11.31,13a1.5,1.5,0,0,0,.69-.47c.12-.13.23-.27.35-.42a4.75,4.75,0,0,1,.43-.55,2.58,2.58,0,0,1,1.51-.74,6,6,0,0,1,2.82.36l-1,.93a4.38,4.38,0,0,1-.08-1.3,3.68,3.68,0,0,1,.24-1.28,2.27,2.27,0,0,1,1-1.16c.29-.15.34-.16.5-.24l.38-.21a2.11,2.11,0,0,0,.56-.51L19,7a2.07,2.07,0,0,1,.48-.58A2,2,0,0,1,20,6c.21-.07.37-.14.58-.19a3.4,3.4,0,0,1,1.27-.12,6.05,6.05,0,0,0,1.9,0,16.1,16.1,0,0,0,1.92-.54,2,2,0,0,1,.83-.08,1.69,1.69,0,0,1,.83.31,5.13,5.13,0,0,1,.84.84,1.27,1.27,0,0,0,.53.38h.79a7.36,7.36,0,0,1,1.15,0A2.09,2.09,0,0,1,32,7.32a2.16,2.16,0,0,1,.41.62l.21.47a1.13,1.13,0,0,0,.37.5.63.63,0,0,0,.23.08l.5.06a7.23,7.23,0,0,1,1.13.2,2.34,2.34,0,0,1,1.21.73,3.93,3.93,0,0,1,.65,1.08c.08.17.14.37.2.5a.36.36,0,0,0,.11.14,2.36,2.36,0,0,0,.71.31,7.21,7.21,0,0,1,1,.31,2.07,2.07,0,0,1,1.18.89A1.91,1.91,0,0,1,40,14.73a5,5,0,0,0-.22.89,2.34,2.34,0,0,0,.55,1.53l.14.23a1.89,1.89,0,0,1,.17.35,1.78,1.78,0,0,1,.11.76,6.24,6.24,0,0,1-.25,1.12c-.11.58,0,.63.58,1.21l.38.36a1.38,1.38,0,0,1,.44.73,1.44,1.44,0,0,1-.08.89l-.1.19-.07.11-.14.22c-.13.19-.12.17-.13.25a.33.33,0,0,0,0,.14h0l.12.06.5.29a4.64,4.64,0,0,1,1,.65,2,2,0,0,1,.72,1.21,3.43,3.43,0,0,1-.14,1.23,2,2,0,0,0,0,.81,2.74,2.74,0,0,0,.36.8,3.43,3.43,0,0,1,.25.55,1.3,1.3,0,0,1,0,.85,1.2,1.2,0,0,1-.66.65,2,2,0,0,0-.42.2.59.59,0,0,0-.32.48,3.32,3.32,0,0,0,0,.89,1.38,1.38,0,0,1-.15.84,1.18,1.18,0,0,1-.78.46c-.4.06-.6.1-.71.21a1.1,1.1,0,0,0-.25.66,2.09,2.09,0,0,1-.54,1.22,2,2,0,0,1-1.23.48c-.74.06-1.23.14-1.56.59a3.11,3.11,0,0,0-.43.83,1.52,1.52,0,0,1-.43.58,1.76,1.76,0,0,1-.66.28,1.61,1.61,0,0,1-.69,0c-.19,0-.24-.06-.32,0a1.88,1.88,0,0,0-.67.48c-.25.24-.42.46-.73.76a1.67,1.67,0,0,1-1.2.47,4.59,4.59,0,0,1-2.07-.84h0a.34.34,0,0,1-.14-.45h0a.41.41,0,0,1,.51-.16Z" fill="#333"/>
              <path d="M19.89,15.32a1.77,1.77,0,0,0,.26,1.16,2.88,2.88,0,0,0,1.2.72,3.75,3.75,0,0,1,1,.45,1.61,1.61,0,0,1,.53.57,1.52,1.52,0,0,1,.15.84,3.6,3.6,0,0,1-.3,1,1.18,1.18,0,0,0-.14.55c0,.07.06.17.26.3s.5.27.76.39a2.83,2.83,0,0,1,1.55,1.47,1.66,1.66,0,0,1,.09.63,2,2,0,0,1-.18.58,7.13,7.13,0,0,1-.54.81,3.15,3.15,0,0,0-.74,1.44h0a.28.28,0,0,1-.3.26h0a.28.28,0,0,1-.26-.28,3.65,3.65,0,0,1,.7-1.85,5.91,5.91,0,0,0,.4-.74.54.54,0,0,0,0-.55,2,2,0,0,0-1.16-.82c-.27-.11-.55-.19-.89-.36a1.65,1.65,0,0,1-.88-1,2.21,2.21,0,0,1,.13-1.22,2.88,2.88,0,0,0,.18-.7c0-.11,0,0-.13-.13a2.44,2.44,0,0,0-.69-.23,4.25,4.25,0,0,1-1.94-1,3.27,3.27,0,0,1-.81-2.23.87.87,0,0,1,1.74-.12v.06h0S19.89,15.3,19.89,15.32Z" fill="#333"/>
              <path d="M58.58,33.6,54.49,33a1,1,0,0,1-.85-1V30.63l2.59-.81a12.49,12.49,0,0,0,.19-4.6c-.45-1.79-.69-3.76-4.32-3.76s-3.25,3.7-3.25,3.7V32A1,1,0,0,1,48,33l-3.34.61a1.39,1.39,0,0,0-1.09,1V42.2a1.12,1.12,0,0,0,1.12,1.12H58.5a1.13,1.13,0,0,0,1.12-1.11l.08-7.6A1.4,1.4,0,0,0,58.58,33.6Z" fill="#c4d9df"/>
              <path d="M49.09,41.66H47a1.24,1.24,0,0,1-1.2-1.2V37.9A3.12,3.12,0,0,1,49,34.78H49a1.22,1.22,0,0,1,1.2,1.2v4.56a1.09,1.09,0,0,1-1.06,1.12Z" fill="#dd9292"/>
              <path d="M49.09,41.66H47a1.24,1.24,0,0,1-1.2-1.2V37.9A3.12,3.12,0,0,1,49,34.78H49a1.22,1.22,0,0,1,1.2,1.2v4.56a1.09,1.09,0,0,1-1.06,1.12Z" fill="none" stroke="#333" stroke-linejoin="round" stroke-width="1.2"/>
              <path d="M54.21,41.66h2.08a1.24,1.24,0,0,0,1.2-1.2V37.9a3.12,3.12,0,0,0-3.12-3.12h-.08a1.22,1.22,0,0,0-1.2,1.2v4.56a1.09,1.09,0,0,0,1.06,1.12Z" fill="#dd9292"/>
              <path d="M54.21,41.66h2.08a1.24,1.24,0,0,0,1.2-1.2V37.9a3.12,3.12,0,0,0-3.12-3.12h-.08a1.22,1.22,0,0,0-1.2,1.2v4.56a1.09,1.09,0,0,0,1.06,1.12Z" fill="none" stroke="#333" stroke-linejoin="round" stroke-width="1.2"/>
              <polyline points="50.37 36.94 51.65 35.66 52.93 36.94" fill="none" stroke="#333" stroke-linejoin="round" stroke-width="1.2"/>
              <line x1="51.65" y1="31.82" x2="51.65" y2="35.66" fill="none" stroke="#333" stroke-linejoin="round" stroke-width="1.2"/>
              <line x1="51.65" y1="29.82" x2="51.65" y2="31.02" fill="none" stroke="#333" stroke-linejoin="round" stroke-width="1.2"/>
              <polyline points="51.65 29.02 51.65 27.82 53.47 27.82" fill="none" stroke="#333" stroke-linejoin="round" stroke-width="1.2"/>
              <line x1="54.63" y1="27.72" x2="56.23" y2="27.72" fill="none" stroke="#333" stroke-linejoin="round" stroke-width="1.2"/>
              <line x1="17.59" y1="39.36" x2="17.59" y2="42.72" fill="none" stroke="#333" stroke-linejoin="round" stroke-width="1.5"/>
              <line x1="29.93" y1="39.36" x2="29.93" y2="42.72" fill="none" stroke="#333" stroke-linejoin="round" stroke-width="1.5"/>
              <path d="M9.85,59.06A1.78,1.78,0,0,1,8.09,57.3V54.1a1.78,1.78,0,0,1,1.76-1.76h2.48a1.78,1.78,0,0,1,1.76,1.76v3.2a1.78,1.78,0,0,1-1.76,1.76" fill="none" stroke="#333" stroke-linejoin="round" stroke-width="1.2"/>
              <line x1="9.85" y1="58.59" x2="9.85" y2="59.55" fill="none" stroke="#333" stroke-linecap="round" stroke-linejoin="round" stroke-width="1.2"/>
              <line x1="12.33" y1="58.59" x2="12.33" y2="59.55" fill="none" stroke="#333" stroke-linecap="round" stroke-linejoin="round" stroke-width="1.2"/>
              <path d="M33.53,40.91a3.59,3.59,0,0,1,3.6,3.58h0v9.78a3.6,3.6,0,0,1-3.58,3.6h0" fill="none" stroke="#333" stroke-linejoin="round" stroke-width="1.2"/>
              <path d="M11.13,52.27V44.51a3.59,3.59,0,0,1,3.58-3.6h0" fill="none" stroke="#333" stroke-linejoin="round" stroke-width="1.2"/>
              <circle cx="32.25" cy="57.87" r="3.12" fill="#9cbbbc"/>
              <circle cx="32.25" cy="57.87" r="0.88" fill="#e6f3f4"/>
              <circle cx="32.25" cy="57.87" r="3.12" fill="none" stroke="#333" stroke-linejoin="round" stroke-width="1.2"/>
            </g>
          </g>
        </g>
      </g>
      <g id="bb77d497-ee12-4cce-8a12-278ddd4e5df4">
        <path d="M29.39,32.86a5.21,5.21,0,0,1,2.23,7,4.79,4.79,0,0,1-.67,1c-.81,1-6.43,9.31-14.29,0a5.21,5.21,0,0,1,.61-7.35,4.79,4.79,0,0,1,1-.64l4.33-2.25a2.75,2.75,0,0,1,2.5,0Z" fill="#fff"/>
        <path d="M16.22,34.73a21.93,21.93,0,0,1-3.58-8.89" fill="#fff" stroke="#333" stroke-linecap="round" stroke-linejoin="round" stroke-width="1.5"/>
        <path d="M31.65,34.73a21.89,21.89,0,0,0,3.58-8.88" fill="#fff" stroke="#333" stroke-linecap="round" stroke-linejoin="round" stroke-width="1.5"/>
        <line x1="15.43" y1="37.38" x2="13.86" y2="36.51" fill="none" stroke="#333" stroke-linecap="round" stroke-linejoin="round" stroke-width="1.5"/>
        <line x1="32.44" y1="37.38" x2="34.01" y2="36.51" fill="none" stroke="#333" stroke-linecap="round" stroke-linejoin="round" stroke-width="1.5"/>
        <path d="M29.39,32.86l-4.32-2.24a2.75,2.75,0,0,0-2.5,0l-4.33,2.25a5.13,5.13,0,0,0-2.65,3.36,5.1,5.1,0,0,0,1.07,2.08c7.86,9.32,13.48,1,14.29,0A5.18,5.18,0,0,0,32,36.23,5.17,5.17,0,0,0,29.39,32.86Z" fill="#fff"/>
        <path d="M29.39,32.86l-4.32-2.24a2.91,2.91,0,0,0-1.13-.29h0V38c0,2,2.1,1.54.83,3.93-2,3.67-6.77-2.76-6.77.39,0,.11,2.83,2,2.82,2.11,5.64,2.93,9.49-2.74,10.15-3.52a5.21,5.21,0,0,0-.58-7.35A5.43,5.43,0,0,0,29.39,32.86Z" fill="#eee"/>
        <path d="M15.61,36.14a18.09,18.09,0,0,0,8.33,2.17A16.46,16.46,0,0,0,32,36.14" fill="none" stroke="#ddd" stroke-miterlimit="10" stroke-width="0.96"/>
        <path d="M15.61,38.27a18.23,18.23,0,0,0,8.33,2.18A16.47,16.47,0,0,0,32,38.27" fill="none" stroke="#ddd" stroke-miterlimit="10" stroke-width="0.96"/>
        <path d="M29.39,32.86a5.21,5.21,0,0,1,2.23,7,4.79,4.79,0,0,1-.67,1c-.81,1-6.43,9.31-14.29,0a5.21,5.21,0,0,1,.61-7.35,4.79,4.79,0,0,1,1-.64l4.33-2.25a2.75,2.75,0,0,1,2.5,0Z" fill="none" stroke="#333" stroke-linejoin="round" stroke-width="1.5"/>
      </g>
    </g>
  </g>
</svg>
