<svg xmlns="http://www.w3.org/2000/svg" width="64" height="64" viewBox="0 0 64 64">
  <title>green-hair-white-female</title>
  <g id="green-hair-white-female">
    <g id="green-hair-white-female-2" data-name="green-hair-white-female">
      <g id="Icons">
        <g>
          <g>
            <path d="M55,50.09c-1-2-1.88-3.47-4-4-1-.22-12.85-3-13-3v-5H26v5l-13,3c-2.12.53-3.31.92-4,3l-1,3c.29.23,10.12,5,24,5s23.63-4.65,23.92-4.87C55.92,52.21,56,52.05,55,50.09Z" style="fill: #edccc3"/>
            <path d="M32,50.08v7.34c13.88,0,23.63-5,23.92-5.2l-.52-2.08A5.37,5.37,0,0,0,51.24,46c-1.64-.36-5.52-1.21-9.71-2.11-1.09-.24-2.43-.62-3.53-.77v-4H26v3L30.76,47A4.67,4.67,0,0,1,32,50.08Z" style="fill: #e5c2ba"/>
            <path d="M40.84,46.57l.69.14,4.75,1a39.17,39.17,0,0,0,4.29-1.92l-9-2c-1.09-.24-2.19-.43-3.29-.58v.12A3.24,3.24,0,0,0,40.84,46.57Z" style="fill: #e9c7be"/>
            <g>
              <path d="M23,44.09c-2.42.42-5.63,1.1-10,2-3.33.83-4,2-5,6,.18.11,9.28,5,24,5C27.36,54.23,23.82,50,23,44.09Z" style="fill: #545454"/>
              <path d="M55.87,50.39a5.79,5.79,0,0,0-4.26-4.48A87.92,87.92,0,0,0,40.79,43.7,19.15,19.15,0,0,1,32,57.41a59.42,59.42,0,0,0,24.07-5l0,0Z" style="fill: #545454"/>
            </g>
            <path d="M51.61,48.69l-4.45-1.11a62.77,62.77,0,0,0-6.91-1.31C38.94,51,36,53.66,32,56.09c-3.94-2.43-6.93-5.08-8.25-9.82a62.77,62.77,0,0,0-6.91,1.31l-4.45,1.11c-2,.5-3.81,1.47-4.39,3.4a60.94,60.94,0,0,0,24,5,59.27,59.27,0,0,0,23.72-4.47A5.78,5.78,0,0,0,51.61,48.69Z" style="fill: #424040"/>
            <path d="M26,43.09s-9,2-13,3c-4.54,1.14-4.57,4.72-4.92,6.12.29.23,10,4.87,23.92,4.87s23.63-4.65,23.92-4.87l-.52-2.08A5.37,5.37,0,0,0,51.24,46c-4.45-1-13-2.6-13-2.6" style="fill: none;stroke: #333;stroke-linecap: round;stroke-linejoin: round;stroke-width: 1.5px"/>
            <path d="M26,43.09l-3,1c1,6,4.36,9.14,9,12,4.64-2.86,8-6,9-12l-3-1" style="fill: none;stroke: #333;stroke-linejoin: round;stroke-width: 1.5px"/>
            <line x1="26" y1="45.09" x2="26" y2="41.09" style="fill: none;stroke: #333;stroke-linejoin: round;stroke-width: 1.5px"/>
            <line x1="38" y1="45.09" x2="38" y2="41.09" style="fill: none;stroke: #333;stroke-linejoin: round;stroke-width: 1.5px"/>
            <path d="M51.4,27.56c0-7.27-6.7-20.81-17.91-20.81-5.82,0-7.62,1.09-9.51,2.87h0c-7.68,0-11.34,15.52-10.79,21.8L14.93,30c.09,5.2,2.55,8.65,5.72,12.78a13.92,13.92,0,0,1,2.06-4.36l18.93-.39a8.18,8.18,0,0,1,1.89,4.79c1.75-2.67,3.94-7.34,4.26-10.13a9.92,9.92,0,0,1,2.58,2.17C50,28.1,48,25.28,47.92,25.23l3.48,2.33Z" style="fill: #72b085"/>
            <path d="M31.85,12.13c8.38,0,10.95,5.27,10.95,10.92,0,.33,0,1.23,0,1.56,1.8,0,2.22,1.89,1.93,4.28-.25,2-1,4.53-3,4.58v1c0,3.13-2.5,4.76-5.4,7.79-1.92,2-3.23,1.6-4.5,1.6s-2.59.4-4.51-1.6c-2.91-3-5.4-4.65-5.4-7.79,0-.52,0-1.19,0-1-1.94-.06-2.73-2.55-3-4.58-.29-2.39.13-4.28,1.93-4.28V23.05C20.9,17.4,23.47,12.13,31.85,12.13Z" style="fill: #fbd3ca"/>
            <path d="M44.88,28.89c.29-2.39-.12-4.28-1.93-4.28,0-.33,0-1.23,0-1.56,0-5.64-2.57-10.92-11-10.92a16.16,16.16,0,0,0-2.89.24V23.09a4.1,4.1,0,0,1-1.32,3,.46.46,0,0,0,.2.8,2.69,2.69,0,0,1,2,2,.5.5,0,0,0,.8.3,1.73,1.73,0,0,1,.61-.33.51.51,0,0,1,.64.5v2.16a1.15,1.15,0,0,0,.65,1c.61.33.14,1.45-.63,1.45-.92,0-.94-.52-2.09-.52a.38.38,0,0,0,0,.76c.91,0,.94.51,2.06.52v4.2a.41.41,0,0,0,.32.39c1.37.32,2.1,2.61-.32,3.09-1.14.23-2.68-1-3.2,0a5.06,5.06,0,0,0-.06,1,5.08,5.08,0,0,0,3.25.56c1.27,0,2.58.4,4.5-1.6,2.91-3,5.41-4.66,5.41-7.79v-1C43.85,33.41,44.63,30.92,44.88,28.89Z" style="fill: #f3cac2"/>
            <g>
              <path d="M44.38,25.52a1.7,1.7,0,0,0-1.58-.91c0-.33,0-1.23,0-1.56,0-5.64-2.57-10.92-10.95-10.92S20.9,17.4,20.9,23V24.6a1.76,1.76,0,0,0-1.28.51c.3,2.14,2.51,3.79,2.75,5.67a.5.5,0,0,0,1,.06c.93-8.11,5.31-6.37,11.71-11.93,0,0,0-.05,0,0s0,0,0,0C31.08,22.85,25,24.32,25,29.5a.35.35,0,1,0,.69,0c.54-4.15,5.35-4.4,9.74-8.83,1.6,4.22,5,3.7,5.42,9.87a.55.55,0,0,0,.56.51.54.54,0,0,0,.52-.56C41.83,29.16,43.23,27.55,44.38,25.52Z" style="fill: #f3cac2"/>
              <path d="M42.8,24.61c0-.33,0-1.23,0-1.56,0-5.62-2.56-10.88-10.87-10.91a15.44,15.44,0,0,0-2.82.24V22.86a29.25,29.25,0,0,0,6-3.92s0-.05,0,0,0,0,0,0a45.72,45.72,0,0,1-6,4.43,4.08,4.08,0,0,1-1.24,2.68c1.93-1.46,4.8-2.6,7.53-5.35,1.6,4.22,5,3.7,5.42,9.87a.55.55,0,0,0,.56.51.54.54,0,0,0,.52-.56c-.05-1.33,1.35-2.94,2.5-5A1.68,1.68,0,0,0,42.8,24.61Z" style="fill: #e5c2ba"/>
            </g>
            <line x1="31.32" y1="40.27" x2="32.68" y2="40.27" style="fill: none;stroke: #e0a9a2;stroke-linecap: round;stroke-miterlimit: 10;stroke-width: 0.75px"/>
            <line x1="32.02" y1="34.81" x2="32.02" y2="35.57" style="fill: none;stroke: #eabfb9;stroke-linecap: round;stroke-miterlimit: 10;stroke-width: 0.5px"/>
            <path d="M29.94,34.29c1,0,1,.52,2.09.52s1-.52,2.09-.52" style="fill: none;stroke: #ba8d86;stroke-linecap: round;stroke-miterlimit: 10;stroke-width: 0.75px"/>
            <circle cx="27.01" cy="29.47" r="0.78" style="fill: #333"/>
            <path d="M28.9,29.86c-.57-.33-1.87-1.8-3.86-.56" style="fill: none;stroke: #333;stroke-linecap: round;stroke-miterlimit: 10;stroke-width: 0.525200009346008px"/>
            <path d="M24.21,27.08a3.85,3.85,0,0,1,1.37-.56,4.83,4.83,0,0,1,1.47,0c.48.08.94.2,1.39.32a9.05,9.05,0,0,0,1.27.29h0a.53.53,0,1,1-.11,1.05h-.08a9.36,9.36,0,0,1-1.37-.52,12.92,12.92,0,0,0-1.25-.49,4,4,0,0,0-1.28-.2,2,2,0,0,0-1.2.39.19.19,0,0,1-.23-.29S24.21,27.09,24.21,27.08Z" style="fill: #333"/>
            <path d="M39.42,27.38a1.92,1.92,0,0,0-1.2-.39A4,4,0,0,0,37,27.2c-.42.13-.83.31-1.26.49a8.61,8.61,0,0,1-1.39.51.52.52,0,0,1-.24-1h.09a7.64,7.64,0,0,0,1.26-.28c.45-.12.91-.25,1.39-.33a4.53,4.53,0,0,1,1.47,0,3.8,3.8,0,0,1,1.37.55.19.19,0,0,1-.2.32S39.42,27.39,39.42,27.38Z" style="fill: #333"/>
            <circle cx="36.8" cy="29.47" r="0.78" style="fill: #333"/>
            <path d="M34.91,29.86c.57-.33,1.87-1.8,3.86-.56" style="fill: none;stroke: #333;stroke-linecap: round;stroke-miterlimit: 10;stroke-width: 0.525200009346008px"/>
            <line x1="29.06" y1="37.74" x2="28.76" y2="38.48" style="fill: none;stroke: #eabfb9;stroke-linecap: round;stroke-miterlimit: 10;stroke-width: 0.512799978256226px"/>
            <line x1="34.95" y1="36.92" x2="35.24" y2="37.58" style="fill: none;stroke: #eabfb9;stroke-linecap: round;stroke-miterlimit: 10;stroke-width: 0.512799978256226px"/>
            <path d="M32.75,36.7c-.51.11-.5.2-.82.2s-.2-.17-.71-.2c-1.13-.07-1.11.88-2.45,1.39,1.2.53,1.19,1.14,2.6,1.14a4.89,4.89,0,0,0,1.53-.12c.62-.15,1-.24,2.19-1.9C33.55,37.21,33.61,36.51,32.75,36.7Z" style="fill: #e2b8b5"/>
            <path d="M35,37.23c-.74.81-1.53.18-3.07.68h0c-1.56-.5-1.79.17-2.85.17" style="fill: none;stroke: #ba8d86;stroke-linecap: round;stroke-miterlimit: 10;stroke-width: 0.512799978256226px"/>
            <path d="M32,12.13c8.38,0,11,5.27,11,10.92,0,.33,0,1.23,0,1.56,1.81,0,2.22,1.89,1.93,4.28-.25,2-1,4.53-3,4.58v1c0,3.13-2.5,4.76-5.4,7.79-1.92,2-3.23,1.6-4.5,1.6s-2.59.4-4.51-1.6c-2.91-3-5.4-4.65-5.4-7.79,0-.52,0-1.19,0-1-1.94-.06-2.73-2.55-3-4.58-.29-2.39.13-4.28,1.93-4.28V23.05C21.05,17.4,23.61,12.13,32,12.13Z" style="fill: none;stroke: #333;stroke-linejoin: round;stroke-width: 1.5px"/>
            <path d="M33.49,6.75c-5.82,0-7.62,1.09-9.51,2.87h0c-5.37,0-8.78,7.59-10.15,14.3h0a28.55,28.55,0,0,0-.64,7.48h0L14.93,30h0c.09,5.2,2.55,8.65,5.72,12.78a13.84,13.84,0,0,1,2.06-4.36l1,0a6.41,6.41,0,0,1-1.59-5c-1.94-.06-2.73-2.55-3-4.58a5.29,5.29,0,0,1,.47-3.58c0,.06.08.1.11.08,1,2,2.53,2.56,2.53,4.68,0-8.73,11.8-9.75,14.21-14.53,0,7.06,5.57,6.77,5.57,14.72,0-1.9,1.78-2.88,2.44-4.89a5.48,5.48,0,0,1,.42,3.51c-.25,2-1,4.53-3,4.58-.11.77.44,2.32-1.31,4.6l1,0h0a8.05,8.05,0,0,1,1.89,4.79c1.65-2.51,3.93-7.24,4.26-10.13h0a9.83,9.83,0,0,1,2.58,2.17c-.24-4.8-1.5-8.38-2.45-9.66l3.48,2.34h0C51.4,20.29,44.7,6.75,33.49,6.75Z" style="fill: #72b085"/>
            <path d="M46.48,14.19c-.35-.72-3-1.76-4-2.07a14.62,14.62,0,0,1,2.26,7.1,16.31,16.31,0,0,0-3.94-6.1,26.91,26.91,0,0,1,2,8.17,25.63,25.63,0,0,0-4.46-8.86c-.73,1.53-1.6,3-2.44,4.42C36,23.47,42,22.46,42,30.26c0-1.9,1.78-2.88,2.44-4.89a5.48,5.48,0,0,1,.42,3.51c-.25,2-1,4.53-3,4.58-.11.77.44,2.32-1.31,4.6l1,0a8.05,8.05,0,0,1,1.89,4.79c1.65-2.51,3.93-7.24,4.26-10.13a9.83,9.83,0,0,1,2.58,2.17c-.24-4.8-1.5-8.38-2.45-9.66l3.48,2.34h0C51.4,24.5,49.9,19.23,46.48,14.19Z" style="fill: #427c53"/>
            <path d="M42.4,9.94a13.86,13.86,0,0,1,2.38,3,8.91,8.91,0,0,1,1.11,3.55,8.59,8.59,0,0,0-1.91-3,13.06,13.06,0,0,0-2.8-2,1,1,0,1,1,1-1.77l.22.16Z" style="fill: #72b085"/>
            <path d="M37.07,11.1a11.51,11.51,0,0,1-3.77,3.13c-1.4.8-2.82,1.51-4.22,2.22s-2.83,1.32-4.15,2.11a11,11,0,0,0-3.43,2.92h0a.34.34,0,0,1-.48.07.33.33,0,0,1-.1-.43,10.58,10.58,0,0,1,3.34-3.6,25,25,0,0,1,4.17-2.43c1.44-.67,2.9-1.26,4.3-1.94a12.63,12.63,0,0,0,3.8-2.46l0,0a.34.34,0,0,1,.48,0A.31.31,0,0,1,37.07,11.1Z" style="fill: #427c53"/>
            <path d="M38.32,13.57A15.2,15.2,0,0,1,36,18.49a18.61,18.61,0,0,1-4,3.78c-1.46,1.07-3,1.89-4.41,2.89a5.46,5.46,0,0,0-2.56,4v0a.34.34,0,0,1-.68,0A5,5,0,0,1,25,26.36a8.3,8.3,0,0,1,1.82-2.16C28.23,23,29.72,22,31.14,21A19.35,19.35,0,0,0,35,17.72a16.39,16.39,0,0,0,2.66-4.36v0a.35.35,0,0,1,.45-.18A.35.35,0,0,1,38.32,13.57Z" style="fill: #427c53"/>
            <path d="M22,34.51c0-.52,0-1.19,0-1-1.94-.06-2.73-2.55-3-4.58A7.64,7.64,0,0,1,19,26.24c.52.22.1-2.32.1-2.32a17.24,17.24,0,0,0-2.43,9,17,17,0,0,0,2.05,7.37l1.89,2.53,2.51-4.86A5.55,5.55,0,0,1,22,34.51Z" style="fill: #427c53"/>
            <path d="M41.88,37.81a8.54,8.54,0,0,1,2,5l-.73-.19a34.71,34.71,0,0,0,2.52-4.84,20.34,20.34,0,0,0,1.57-5.13v0a.48.48,0,0,1,.54-.41l.09,0a3.07,3.07,0,0,1,.91.51,7.74,7.74,0,0,1,.69.57c.22.19.43.39.64.6a7.9,7.9,0,0,1,.65.7l-1,.31c-.05-.82-.12-1.65-.23-2.46s-.25-1.63-.44-2.42a20.34,20.34,0,0,0-.69-2.34,10.61,10.61,0,0,0-1-2.11h0a.59.59,0,0,1,.15-.82.61.61,0,0,1,.66,0l3.5,2.32-1,.51a22.59,22.59,0,0,0-2.63-9.32,23.58,23.58,0,0,0-6-7.57A14.36,14.36,0,0,0,33.32,7.5,22,22,0,0,0,28.49,8a8.15,8.15,0,0,0-4,2.21.74.74,0,0,1-.22.14h0a.85.85,0,0,1-.26,0,6.58,6.58,0,0,0-5,2.83,20.67,20.67,0,0,0-3,5.57A35.82,35.82,0,0,0,14.25,25a26.09,26.09,0,0,0-.5,6.39L12.86,31l1.75-1.38h0a.53.53,0,0,1,.74.09.5.5,0,0,1,.11.32,14.84,14.84,0,0,0,1.63,6.65A40.72,40.72,0,0,0,21,42.55l-.7.14a15.44,15.44,0,0,1,.89-2.32,11.35,11.35,0,0,1,1.29-2.15.34.34,0,0,1,.54.42h0a11.47,11.47,0,0,0-1.15,2A15.11,15.11,0,0,0,21,42.9a.4.4,0,0,1-.48.29.34.34,0,0,1-.21-.14h0a37.94,37.94,0,0,1-4.08-5.95A15.79,15.79,0,0,1,14.42,30l.86.4-1.73,1.4a.55.55,0,0,1-.77-.08.56.56,0,0,1-.12-.3,27.72,27.72,0,0,1,.41-6.7,37.22,37.22,0,0,1,1.69-6.46,21.75,21.75,0,0,1,3.16-6A10.31,10.31,0,0,1,20.5,9.93a6.73,6.73,0,0,1,3.48-1l-.28.06h0l-.22.14a11,11,0,0,1,2.13-1.64,9.55,9.55,0,0,1,2.54-1A23.38,23.38,0,0,1,33.32,6a15.53,15.53,0,0,1,9.74,3.52,25.06,25.06,0,0,1,6.32,8.12A23.94,23.94,0,0,1,52,27.56a.61.61,0,0,1-.59.62.68.68,0,0,1-.35-.1h0l-3.47-2.36.8-.83a11.3,11.3,0,0,1,1.16,2.41,22,22,0,0,1,.71,2.49c.19.84.32,1.69.43,2.53s.17,1.7.21,2.55a.53.53,0,0,1-.93.36l0,0a7.36,7.36,0,0,0-.51-.54c-.19-.19-.39-.39-.6-.57s-.41-.36-.62-.52a2.81,2.81,0,0,0-.56-.35l.63-.43a20.67,20.67,0,0,1-1.74,5.38,36,36,0,0,1-2.68,4.91.4.4,0,0,1-.55.11.39.39,0,0,1-.18-.3,7.7,7.7,0,0,0-1.75-4.59h0a.33.33,0,0,1,0-.48A.33.33,0,0,1,41.88,37.81Z" style="fill: #333"/>
            <path d="M19.59,25.31a5.35,5.35,0,0,0-.47,3.58c.25,2,1,4.53,3,4.58,0-.14,0,.52,0,1,0,3.13,2.49,4.76,5.4,7.79,1.92,2,3.24,1.6,4.51,1.6s2.58.4,4.5-1.6c2.91-3,5.4-4.66,5.4-7.79v-1c1.94-.06,2.72-2.55,3-4.58a5.39,5.39,0,0,0-.45-3.56h-.08" style="fill: none;stroke: #333;stroke-linejoin: round;stroke-width: 1.5px"/>
            <path d="M36.16,16.34A10.22,10.22,0,0,0,37,20a8.78,8.78,0,0,0,2.33,2.79A8.55,8.55,0,0,1,41.9,26a9.8,9.8,0,0,1,.56,4.12H41.37a3.4,3.4,0,0,1,.53-1.79A15.28,15.28,0,0,1,43,27.08a6.44,6.44,0,0,0,.84-1.24,8.41,8.41,0,0,0,.53-1.43v0a.33.33,0,0,1,.42-.23.35.35,0,0,1,.24.4,8.73,8.73,0,0,1-.46,1.62,6.77,6.77,0,0,1-.85,1.48,11.91,11.91,0,0,0-.92,1.24,2.22,2.22,0,0,0-.3,1.27.54.54,0,0,1-1.08,0v0a9.71,9.71,0,0,0-.8-3.54,10.76,10.76,0,0,0-2.21-2.85A9.43,9.43,0,0,1,36,20.4a9.63,9.63,0,0,1-.49-4.06.34.34,0,0,1,.36-.32.35.35,0,0,1,.3.32Z" style="fill: #427c53"/>
            <path d="M38.19,16a10.16,10.16,0,0,0,.57,2.46,6.07,6.07,0,0,0,1.37,2,11,11,0,0,1,1.69,2.16,6.55,6.55,0,0,1,.78,2.69.29.29,0,0,1-.25.3.26.26,0,0,1-.28-.19h0A7.46,7.46,0,0,0,41,23.19a24.74,24.74,0,0,0-1.75-1.88,6.39,6.39,0,0,1-1.4-2.49A8,8,0,0,1,37.64,16a.28.28,0,0,1,.55,0Z" style="fill: #72b085"/>
            <path d="M39.6,10.8a23.45,23.45,0,0,1,2.24,5.1,28.85,28.85,0,0,1,.88,5.39,28.48,28.48,0,0,0-1.81-5A21.79,21.79,0,0,0,38,11.92a1,1,0,0,1,1.54-1.3l.1.15Z" style="fill: #72b085"/>
            <path d="M40.23,10.18l1.63,1.93a15.81,15.81,0,0,1,1.55,2.12,11.64,11.64,0,0,1,1.27,5,11.2,11.2,0,0,0-2.09-4.41,36.68,36.68,0,0,0-3.77-3.21,1,1,0,0,1,1.27-1.55Z" style="fill: #72b085"/>
            <path d="M38.28,13.58a23.86,23.86,0,0,1-4,4.62,28.2,28.2,0,0,1-5.05,3.45,20.45,20.45,0,0,0-4.89,3.26A6.21,6.21,0,0,0,23,27.33a10.34,10.34,0,0,0-.36,2.84h-1a3.31,3.31,0,0,0-.5-1.38c-.26-.41-.66-.79-1-1.29A7.06,7.06,0,0,1,18.8,24a.35.35,0,0,1,.66-.18v0a11.18,11.18,0,0,0,.78,1.46,12.07,12.07,0,0,0,1,1.27,7.28,7.28,0,0,1,1,1.58,3.77,3.77,0,0,1,.31,2v.06a.5.5,0,0,1-.55.44.49.49,0,0,1-.44-.5A11.2,11.2,0,0,1,22,27a7.21,7.21,0,0,1,1.63-2.77,21,21,0,0,1,5.16-3.36,28.09,28.09,0,0,0,5-3.29,22.54,22.54,0,0,0,3.95-4.43.33.33,0,0,1,.47-.09A.37.37,0,0,1,38.28,13.58Z" style="fill: #427c53"/>
          </g>
          <path d="M20.45,26.74c2.2-6.68,8.45-4.74,17.8-14.3l-.64,2.46L30.3,20.39l-4.71,2.87L23,26l-1,3.44-1.48-2.26Z" style="fill: #427c53"/>
        </g>
      </g>
    </g>
  </g>
</svg>
