<svg xmlns="http://www.w3.org/2000/svg" width="64" height="64" viewBox="0 0 64 64">
  <title>hippie-braids-asian-female</title>
  <g id="hippie-braids-asian-female">
    <g id="hippie-braids-asian-female-2" data-name="hippie-braids-asian-female">
      <g id="Icons">
        <g>
          <g>
            <path d="M55.4,49.15A4.8,4.8,0,0,0,51.75,45c-3.46-.86-7.74-1.78-13.12-2.79V36.5H26.29v5.69c-5.49,1-9.7,2.07-13.12,2.78C11,45.42,10,47,9.52,49.14L9,51.23a54.05,54.05,0,0,0,23.46,5.21,54.05,54.05,0,0,0,23.46-5.21Z" style="fill: #e6b790"/>
            <path d="M26.29,36.5v1.19l5,5.18a4.07,4.07,0,0,1,1.15,2.85,2.63,2.63,0,0,0,2.63,2.63h.52a3,3,0,0,0,3-3V36.49H26.29Z" style="fill: #d6a787"/>
            <path d="M55.4,49.15C55,47,53.88,45.48,51.75,45c-3-.71-6.56-1.57-10.94-2.34h0a13.32,13.32,0,0,1-8.35,13.54,13.35,13.35,0,0,1-8.37-13.55h0c-4.27.91-7.74,1.61-10.92,2.35-2.14.5-3.22,2-3.65,4.17L9,51.23a54.05,54.05,0,0,0,23.46,5.21,54.05,54.05,0,0,0,23.46-5.21Z" style="fill: #bed5fc"/>
            <path d="M55.48,49.47a4.63,4.63,0,0,0-2.87-1.88A111.74,111.74,0,0,0,40.74,45a13.48,13.48,0,0,1-8.28,11.16A13.47,13.47,0,0,1,24.18,45,111.74,111.74,0,0,0,12.31,47.6a4.67,4.67,0,0,0-2.87,1.88L9,51.23a54.05,54.05,0,0,0,23.46,5.21,54.05,54.05,0,0,0,23.46-5.21Z" style="fill: #a9c6ff"/>
            <g>
              <path d="M24.09,42.63a13.36,13.36,0,0,0,8.37,13.55,13.32,13.32,0,0,0,8.35-13.54" style="fill: none;stroke: #333;stroke-linejoin: round;stroke-width: 1.5px"/>
              <polyline points="26.29 44.46 26.29 36.5 38.63 36.5 38.63 44.45" style="fill: none;stroke: #333;stroke-linecap: round;stroke-linejoin: round;stroke-width: 1.5px"/>
            </g>
            <path d="M26.29,42.19S18.59,43.77,13.17,45C11,45.45,10,47,9.52,49.14L9,51.23a54.05,54.05,0,0,0,23.46,5.21,54.05,54.05,0,0,0,23.46-5.21l-.52-2.09A4.8,4.8,0,0,0,51.75,45c-4.35-1.09-13.1-2.87-13.12-2.79" style="fill: none;stroke: #333;stroke-linejoin: round;stroke-width: 1.5px"/>
            <g>
              <path d="M24,34.28a4.28,4.28,0,0,0-1.12-7A4.28,4.28,0,0,0,20.8,33a4.33,4.33,0,0,0,.94,1.3,4.28,4.28,0,0,0-.17,6l.17.17a4.28,4.28,0,0,0-1,4.67,2.31,2.31,0,0,0,3,1.31A2.34,2.34,0,0,0,25,45.16a4.28,4.28,0,0,0-1-4.69,4.28,4.28,0,0,0,.17-6L24,34.26Z" style="fill: #333"/>
              <path d="M22.49,45.56a4.25,4.25,0,0,1,.41-3.94,1.36,1.36,0,0,0,0-1.5,4.27,4.27,0,0,1,0-4.7,1.36,1.36,0,0,0,0-1.5,4.23,4.23,0,0,1-.72-2.36,4.3,4.3,0,0,1,1.8-3.5,4.33,4.33,0,0,0-1.12-.78A4.28,4.28,0,0,0,20.8,33a4.33,4.33,0,0,0,.94,1.3,4.28,4.28,0,0,0-.17,6l.17.17a4.28,4.28,0,0,0-1,4.67,2.28,2.28,0,0,0,2.58,1.42A2.31,2.31,0,0,1,22.49,45.56Z" style="fill: #3f3f3f"/>
              <path d="M24,34.28a4.28,4.28,0,0,0-1.12-7A4.28,4.28,0,0,0,20.8,33a4.33,4.33,0,0,0,.94,1.3,4.28,4.28,0,0,0-.17,6l.17.17a4.28,4.28,0,0,0-1,4.67,2.31,2.31,0,0,0,3,1.31A2.34,2.34,0,0,0,25,45.16a4.28,4.28,0,0,0-1-4.69,4.28,4.28,0,0,0,.17-6L24,34.26Z" style="fill: none;stroke: #333;stroke-linecap: round;stroke-linejoin: round;stroke-width: 1.5px"/>
              <path d="M22.86,47a7,7,0,0,0-3.3,3.31,2,2,0,0,0,1.83,2.91h2.94a2,2,0,0,0,2-2,2.22,2.22,0,0,0-.15-.8A6.92,6.92,0,0,0,22.86,47Z" style="fill: #333"/>
              <path d="M21.33,52a6.93,6.93,0,0,1,3.3-3.31,6.62,6.62,0,0,1,.9.5A6.83,6.83,0,0,0,22.86,47a7,7,0,0,0-3.3,3.31A2,2,0,0,0,20.5,53a2,2,0,0,0,.67.19A2.15,2.15,0,0,1,21.33,52Z" style="fill: #3f3f3f"/>
              <path d="M22.86,47a7,7,0,0,0-3.3,3.31,2,2,0,0,0,1.83,2.91h2.94a2,2,0,0,0,2-2,2.22,2.22,0,0,0-.15-.8A6.92,6.92,0,0,0,22.86,47Z" style="fill: none;stroke: #333;stroke-linecap: round;stroke-linejoin: round;stroke-width: 1.5px"/>
              <path d="M41.36,34.28a4.28,4.28,0,0,1,1.12-7A4.28,4.28,0,0,1,44.54,33a4.33,4.33,0,0,1-.94,1.3,4.28,4.28,0,0,1,.17,6l-.17.17a4.28,4.28,0,0,1,1,4.67,2.31,2.31,0,0,1-3,1.31,2.34,2.34,0,0,1-1.31-1.31,4.28,4.28,0,0,1,1-4.69,4.28,4.28,0,0,1-.17-6l.17-.17Z" style="fill: #3f3f3f"/>
              <path d="M42.86,45.56a4.28,4.28,0,0,0-.4-3.94,1.36,1.36,0,0,1,0-1.5,4.27,4.27,0,0,0,0-4.7,1.36,1.36,0,0,1,0-1.5,4.23,4.23,0,0,0,.72-2.36,4.3,4.3,0,0,0-1.8-3.5,4.33,4.33,0,0,1,1.12-.78A4.28,4.28,0,0,1,44.56,33a4.33,4.33,0,0,1-.94,1.3,4.28,4.28,0,0,1,.17,6l-.17.17a4.28,4.28,0,0,1,1,4.67,2.28,2.28,0,0,1-2.58,1.42A2.44,2.44,0,0,0,42.86,45.56Z" style="fill: #333"/>
              <path d="M41.36,34.28a4.28,4.28,0,0,1,1.12-7A4.28,4.28,0,0,1,44.54,33a4.33,4.33,0,0,1-.94,1.3,4.28,4.28,0,0,1,.17,6l-.17.17a4.28,4.28,0,0,1,1,4.67,2.31,2.31,0,0,1-3,1.31,2.34,2.34,0,0,1-1.31-1.31,4.28,4.28,0,0,1,1-4.69,4.28,4.28,0,0,1-.17-6l.17-.17Z" style="fill: none;stroke: #333;stroke-linecap: round;stroke-linejoin: round;stroke-width: 1.5px"/>
              <path d="M42.48,47a7,7,0,0,1,3.3,3.31A2,2,0,0,1,44,53.21H41a2,2,0,0,1-2-2,2.22,2.22,0,0,1,.15-.8A7,7,0,0,1,42.48,47Z" style="fill: #3f3f3f"/>
              <path d="M44,52a6.93,6.93,0,0,0-3.3-3.31,6.62,6.62,0,0,0-.9.5A6.83,6.83,0,0,1,42.48,47a6.91,6.91,0,0,1,3.29,3.31A2,2,0,0,1,44.83,53a2,2,0,0,1-.67.19A2,2,0,0,0,44,52Z" style="fill: #333"/>
              <path d="M42.48,47a7,7,0,0,1,3.3,3.31A2,2,0,0,1,44,53.21H41a2,2,0,0,1-2-2,2.22,2.22,0,0,1,.15-.8A7,7,0,0,1,42.48,47Z" style="fill: none;stroke: #333;stroke-linecap: round;stroke-linejoin: round;stroke-width: 1.5px"/>
            </g>
            <g>
              <path d="M32.46,9C40.84,9,43.41,14.3,43.41,20c0,.33,0,1.23,0,1.56,1.81,0,2.22,1.89,1.93,4.28-.25,2-1,4.53-3,4.58v1c0,3.13-2.5,4.76-5.4,7.79-1.92,2-3.23,1.6-4.5,1.6s-2.59.4-4.51-1.6c-2.91-3-5.4-4.65-5.4-7.79,0-.52,0-1.19,0-1-1.94-.06-2.73-2.55-3-4.58-.29-2.39.13-4.28,1.93-4.28V20C21.51,14.31,24.08,9,32.46,9Z" style="fill: #efc8a5"/>
              <path d="M45.35,23.56c-.18-1.23-.76-2-1.94-2,0-.33,0-1.23,0-1.56C43.41,14.32,40.84,9,32.46,9S21.51,14.31,21.51,20v1.56c-1.2,0-1.78.84-2,2.1a53,53,0,0,1,13-1.68A53.09,53.09,0,0,1,45.35,23.56Z" style="fill: #e6b790"/>
              <path d="M43.41,21.51c0-.33,0-1.23,0-1.56C43.41,14.31,40.84,9,32.46,9a16.16,16.16,0,0,0-2.89.24V20a4.1,4.1,0,0,1-1.32,3,.46.46,0,0,0,.2.8,2.69,2.69,0,0,1,2,2,.5.5,0,0,0,.8.3,1.73,1.73,0,0,1,.61-.33.51.51,0,0,1,.64.5v2.15a1.15,1.15,0,0,0,.65,1c.6.33.17,1.46-.65,1.46h0a1.81,1.81,0,0,1-.93-.24c-.77-.39-1.49.4-1.33.71s.35,0,1.13.36a2.22,2.22,0,0,0,1.13.28h0v3.83a.41.41,0,0,0,.32.39c1.37.32,2.1,2.6-.32,3.09h0a1.29,1.29,0,0,0-1.07,1.26v.32c.37,0,.73,0,1.08,0,1.27,0,2.58.4,4.5-1.6,2.91-3,5.4-4.66,5.4-7.79v-1c1.94-.06,2.72-2.55,3-4.58C45.63,23.4,45.22,21.51,43.41,21.51Z" style="fill: #e6b790"/>
              <path d="M29.58,9.27h0V20A4,4,0,0,1,29,22.06c1.14-.08,2.34-.13,3.58-.13a53.58,53.58,0,0,1,12.79,1.63c-.09-.1-.12-2-1.94-2,0-.33,0-1.23,0-1.56a11.69,11.69,0,0,0-2.33-7.58C38.37,9.13,33.32,8.6,29.58,9.27Z" style="fill: #d6a787"/>
              <path d="M32.46,9C40.84,9,43.41,14.3,43.41,20c0,.33,0,1.23,0,1.56,1.81,0,2.22,1.89,1.93,4.28-.25,2-1,4.53-3,4.58v1c0,3.13-2.5,4.76-5.4,7.79-1.92,2-3.23,1.6-4.5,1.6s-2.59.4-4.51-1.6c-2.91-3-5.4-4.65-5.4-7.79,0-.52,0-1.19,0-1-1.94-.06-2.73-2.55-3-4.58-.29-2.39.13-4.28,1.93-4.28V20C21.51,14.31,24.08,9,32.46,9Z" style="fill: none;stroke: #333;stroke-linejoin: round;stroke-width: 1.5px"/>
            </g>
            <path d="M32.46,7.77c-8,0-11.83,5.32-11.83,9.45C20.63,19.84,22,24,22,26.73c0-7.14,5.57-6.36,10.5-9,5.37,3.28,10.5,1.1,10.5,9,.21-3.61,1.33-6.85,1.33-9.51C44.29,13.09,40.47,7.77,32.46,7.77Z" style="fill: #3f3f3f"/>
            <path d="M22.54,16a8.44,8.44,0,0,1,9-6C29.44,11.16,27.53,11.19,22.54,16Z" style="fill: #333"/>
            <path d="M43.7,14.11a12,12,0,0,0-6.63-3.28,16.57,16.57,0,0,1,3.32,2.25,7.75,7.75,0,0,1,1.69,2,7.68,7.68,0,0,0-1.92-1.67,19.14,19.14,0,0,0-4.61-2.06c-.45-.14-.9-.24-1.35-.36a.41.41,0,0,1-.05.09A25.61,25.61,0,0,1,41,16.69,25.46,25.46,0,0,0,33.09,12a28.54,28.54,0,0,1,4.39,4.91,27.37,27.37,0,0,0-5.89-4.39A16.81,16.81,0,0,0,24.72,19a17.65,17.65,0,0,1,3.78-5.93c-3.53,1.83-5.69,4.26-7,10.12L22,26.73c0-7.53,6.11-6.15,10.5-9C38.19,21,43,20.35,43,26.73,43,23.12,45.52,17.43,43.7,14.11Z" style="fill: #333"/>
            <path d="M21.62,26.73a6.91,6.91,0,0,1,.81-3.84,7.63,7.63,0,0,1,3-2.61c1.14-.61,2.29-1.08,3.41-1.6S31,17.61,32.08,17a.79.79,0,0,1,.73,0h0c1.06.57,2.15,1.11,3.26,1.64s2.26,1,3.39,1.63a7.84,7.84,0,0,1,3,2.6,6.63,6.63,0,0,1,.83,3.83.34.34,0,0,1-.35.33.35.35,0,0,1-.33-.32h0a6.18,6.18,0,0,0-1-3.29,6.68,6.68,0,0,0-2.72-2,73.88,73.88,0,0,1-6.83-3.05h.74c-2.24,1.25-4.68,2-6.85,3a6.69,6.69,0,0,0-2.71,2.05,6.21,6.21,0,0,0-1,3.3h0a.34.34,0,0,1-.36.32A.32.32,0,0,1,21.62,26.73Z" style="fill: #333"/>
            <path d="M42.62,26.73A17,17,0,0,1,43,23.36c.21-1.09.41-2.16.55-3.24a18.39,18.39,0,0,0,.16-3.22,8.2,8.2,0,0,0-.76-3A8.55,8.55,0,0,0,41.2,11.4a10.09,10.09,0,0,0-2.56-1.72,15.43,15.43,0,0,0-6.16-1.17,15.37,15.37,0,0,0-6.15,1.2,10,10,0,0,0-2.55,1.71A8.6,8.6,0,0,0,22,13.91a8.11,8.11,0,0,0-.77,3,18.4,18.4,0,0,0,.14,3.22c.23,2.16.94,4.28.95,6.61a.34.34,0,0,1-.68,0v0a16.28,16.28,0,0,0-.55-3.19c-.27-1.07-.52-2.17-.7-3.28a19.18,19.18,0,0,1-.27-3.4,9.49,9.49,0,0,1,.75-3.44,9.68,9.68,0,0,1,2-3,11.2,11.2,0,0,1,2.88-2A15.5,15.5,0,0,1,32.48,7a15.56,15.56,0,0,1,6.75,1.44,11.35,11.35,0,0,1,2.87,2,9.81,9.81,0,0,1,2,2.93,9.41,9.41,0,0,1,.77,3.43,19.18,19.18,0,0,1-.26,3.4c-.33,2.23-1.15,4.35-1.25,6.47h0A.34.34,0,0,1,43,27,.32.32,0,0,1,42.62,26.73Z" style="fill: #333"/>
            <path d="M44.46,16.34a22.23,22.23,0,0,0-11.89-3.71,20.44,20.44,0,0,0-12.09,3.71v5.47s3.93-1.56,12.09-1.56,11.89,1.56,11.89,1.56" style="fill: #a8c2ff"/>
            <path d="M44.46,20.07c-1-1.31-2.31-2.94-2.09-3.62.12-.38,1-.26,2-.17a22.32,22.32,0,0,0-11.81-3.65A21,21,0,0,0,20.89,16c.47.17.81.37.9.65a5.1,5.1,0,0,1-.79,4,6.1,6.1,0,0,1-.53.61v.54s3.93-1.56,12.09-1.56,11.89,1.56,11.89,1.56V20.07Z" style="fill: #cdf0cd"/>
            <path d="M42.19,15a21.27,21.27,0,0,0-19.5,0c1.1.25,2.5.12,2.64.56s-1,1.46-1.74,2.4-.45,1.4-.14,1.83.49.46,1.65.06,3-1.51,3.43-1.2c.24.17-.05.94-.34,1.79,1.29-.1,2.75-.16,4.38-.16,1.43,0,2.73.05,3.89.13a1.73,1.73,0,0,1,.38-1.11,4.86,4.86,0,0,1,3.12.1c1.16.4,2,1.41,2.29,1s-.68-1.06-1.42-2a4,4,0,0,1-.95-2.66C40,15.2,41.13,15.27,42.19,15Z" style="fill: #ecd3bc"/>
            <path d="M32.56,12.63a21.91,21.91,0,0,0-6.91,1.11,6,6,0,0,0,.93.37c.67.2,1.33.28,1.42.57a2.17,2.17,0,0,1-.33,1.66c-.44.58-.69.48-.5.73s.47.86,1.16.63,1.09-.8,1.33-.62-.22.77-.23,1.46a1.59,1.59,0,0,0,.84,1.4,1.68,1.68,0,0,0,1.61-.57c.39-.57.26-2.22.57-2.22s.45,1.47.84,2a3.43,3.43,0,0,0,1.24,1.12h.25a2.47,2.47,0,0,0,.77-1.77c0-.69-.7-1.48-.46-1.65s.79.67,1.45.89a2,2,0,0,0,1.79-.27c.18-.25-.4-.8-.84-1.38s-1-1.26-.9-1.55,1.17.1,1.84-.1a.82.82,0,0,0,.6-.75A20.34,20.34,0,0,0,32.56,12.63Z" style="fill: #e5a1b5"/>
            <line x1="32.46" y1="31.94" x2="32.46" y2="32.71" style="fill: none;stroke: #ddad8a;stroke-linecap: round;stroke-miterlimit: 10;stroke-width: 0.649999976158142px"/>
            <line x1="29.28" y1="34.59" x2="28.93" y2="35.29" style="fill: none;stroke: #ddad8a;stroke-linecap: round;stroke-miterlimit: 10;stroke-width: 0.649999976158142px"/>
            <line x1="35.65" y1="34.59" x2="36.06" y2="35.42" style="fill: none;stroke: #ddad8a;stroke-linecap: round;stroke-miterlimit: 10;stroke-width: 0.649999976158142px"/>
            <path d="M33.28,33.75a1.88,1.88,0,0,1-.81.21c-.21,0-.23,0-.7-.21-.84-.33-.88.69-2.43,1.25l1,1a2.26,2.26,0,0,0,1.62.58h1a2.56,2.56,0,0,0,1.74-.63l.89-.94C34.11,34.47,34.11,33.42,33.28,33.75Z" style="fill: #925140"/>
            <path d="M35.58,35c-1,0-1.56-.52-3.12,0h0c-1.55-.52-2.07,0-3.12,0" style="fill: none;stroke: #743f40;stroke-linecap: round;stroke-miterlimit: 10;stroke-width: 0.521399974822998px"/>
            <path d="M30.38,31.42c1,0,1,.52,2.09.52s1-.52,2.09-.52" style="fill: none;stroke: #c6916d;stroke-linecap: round;stroke-miterlimit: 10;stroke-width: 0.75px"/>
            <path d="M24.75,24a3.85,3.85,0,0,1,1.37-.56,4.83,4.83,0,0,1,1.47,0c.48.08.94.2,1.39.32a8.75,8.75,0,0,0,1.27.29h0a.53.53,0,1,1-.11,1.05h-.08a9.36,9.36,0,0,1-1.37-.52,12.92,12.92,0,0,0-1.25-.49,4,4,0,0,0-1.28-.2,2,2,0,0,0-1.2.39.19.19,0,0,1-.23-.29S24.74,24,24.75,24Z" style="fill: #333"/>
            <path d="M40,24.27a1.92,1.92,0,0,0-1.2-.39,4,4,0,0,0-1.27.21c-.42.13-.83.31-1.26.49a8.61,8.61,0,0,1-1.39.51.52.52,0,0,1-.24-1h.09A7.64,7.64,0,0,0,36,23.78c.45-.12.91-.25,1.39-.33a4.53,4.53,0,0,1,1.47,0,3.8,3.8,0,0,1,1.37.55.19.19,0,0,1-.2.32Z" style="fill: #333"/>
          </g>
          <path d="M24.32,47.72H21.38a.75.75,0,1,1,0-1.5h2.94a.75.75,0,0,1,0,1.5Z" style="fill: #b22b2b;stroke: #333;stroke-miterlimit: 10"/>
          <path d="M43.94,47.72H41a.75.75,0,0,1,0-1.5h2.94a.75.75,0,0,1,0,1.5Z" style="fill: #b22b2b;stroke: #333;stroke-miterlimit: 10"/>
          <circle cx="27" cy="26.56" r="3.26" style="fill: #555"/>
          <path d="M30.26,26.56A3.24,3.24,0,0,0,29.84,25a3.24,3.24,0,0,0-4.42,4.42,3.24,3.24,0,0,0,4.84-2.84Z" style="fill: #444"/>
          <circle cx="37.59" cy="26.56" r="3.26" style="fill: #555"/>
          <path d="M40.85,26.56A3.24,3.24,0,0,0,40.43,25,3.24,3.24,0,0,0,36,29.4a3.24,3.24,0,0,0,4.84-2.84Z" style="fill: #444"/>
          <path d="M29.58,27c-.58-.33-1.93-1.92-3.86-.33a4.16,4.16,0,0,1-.76-.25,4.89,4.89,0,0,1,3.31-.26" style="fill: #3a3a3a;stroke: #3a3a3a;stroke-linecap: round;stroke-miterlimit: 10;stroke-width: 0.525200009346008px"/>
          <ellipse cx="27.66" cy="26.66" rx="0.81" ry="0.47" style="fill: #3a3a3a"/>
          <path d="M35.12,27c.58-.33,1.93-1.92,3.86-.33a4.16,4.16,0,0,0,.76-.25,4.89,4.89,0,0,0-3.31-.26" style="fill: #3a3a3a;stroke: #3a3a3a;stroke-linecap: round;stroke-miterlimit: 10;stroke-width: 0.525200009346008px"/>
          <ellipse cx="37.05" cy="26.66" rx="0.81" ry="0.47" style="fill: #3a3a3a"/>
          <circle cx="27" cy="26.56" r="3.26" style="fill: none;stroke: #333;stroke-linejoin: round"/>
          <circle cx="37.59" cy="26.56" r="3.26" style="fill: none;stroke: #333;stroke-linejoin: round"/>
          <path d="M34.34,27.78a2.07,2.07,0,0,0-4.14,0" style="fill: none;stroke: #333;stroke-linecap: round;stroke-miterlimit: 10;stroke-width: 1.11230003833771px"/>
          <path d="M32.56,12.63A20.83,20.83,0,0,0,20.7,16.16a.56.56,0,0,0-.23.45v4.44a.55.55,0,0,0,.71.53,41.28,41.28,0,0,1,11.39-1.32,39.51,39.51,0,0,1,11.18,1.32.55.55,0,0,0,.71-.52V16.64a.53.53,0,0,0-.25-.46A22.28,22.28,0,0,0,32.56,12.63Z" style="fill: none;stroke: #333;stroke-linecap: round;stroke-linejoin: round;stroke-width: 1.5px"/>
        </g>
      </g>
    </g>
  </g>
</svg>
