<svg xmlns="http://www.w3.org/2000/svg" width="64" height="64" viewBox="0 0 64 64">
  <title>old-hippies-black-male</title>
  <g id="old-hippies-black-male">
    <g id="old-hippies-black-male-2" data-name="old-hippies-black-male">
      <g id="Icons">
        <g>
          <g>
            <path d="M43.48,38.14c0,6.15-5.37,6.76-11.69,6.76S20.1,44.28,20.1,38.14s5.36-11.07,11.67-11.07S43.48,32,43.48,38.14Z" style="fill: #666"/>
            <path d="M33.64,27.68c-6.28,0-11.07,4.33-11.07,10.45,0,6.83,6.88,6.76,9.23,6.76,6.31,0,11.69-.62,11.69-6.76C43.48,32.74,39.17,27.66,33.64,27.68Z" style="fill: #444"/>
            <path d="M43.48,38.14c0,6.15-5.37,6.76-11.69,6.76S20.1,44.28,20.1,38.14s5.36-11.07,11.67-11.07S43.48,32,43.48,38.14Z" style="fill: none;stroke: #333;stroke-linejoin: round;stroke-width: 1.5px"/>
            <path d="M32,55.49c13.22,0,23-4.28,25-5.5-.12-.75-.47-7.19-5.5-8L39,40a7.27,7.27,0,0,1-7,4,7.27,7.27,0,0,1-7-4L12.5,42c-5,.81-5.38,7.25-5.5,8C9,51.22,18.78,55.47,32,55.49Z" style="fill: #a8c2ff"/>
            <g>
              <path d="M32,44a7.11,7.11,0,0,0,6.5-3.23V36.5h-13v4.27A7.09,7.09,0,0,0,32,44Z" style="fill: #a0775c"/>
              <line x1="25.5" y1="40.99" x2="25.5" y2="36.49" style="fill: none;stroke: #333;stroke-linejoin: round;stroke-width: 1.5px"/>
              <line x1="38.5" y1="40.99" x2="38.5" y2="36.5" style="fill: none;stroke: #333;stroke-linejoin: round;stroke-width: 1.5px"/>
            </g>
            <g>
              <path d="M45.78,49.46a6.69,6.69,0,0,1,1-5.19c1.37-1.81,2.15-1.51,1.57-2.3-.11-.15-.22-.33-.36-.53l-4.69-.75c-1.28.78-2.19,1.69-2.77,1.27-.38-.28-.21-.89.06-1.7L39,40a7.27,7.27,0,0,1-7,4,7.27,7.27,0,0,1-7-4l-2,.32c.5,1.07,1,1.94.53,2.24s-1.6-.86-2.9-1.86l-7,1.12c.52.86,1.56,2,2.41,3.08,1.31,1.73,3.13,4,2.84,4.87s-3.68-.31-5.77.32a2.48,2.48,0,0,0-1.77,1.8A61.25,61.25,0,0,0,32,55.48,61.48,61.48,0,0,0,52.36,52a19.64,19.64,0,0,0-2.15-.78C48.15,50.61,46.07,50.35,45.78,49.46Z" style="fill: #cdf0cd"/>
              <path d="M50.24,51.24c-2.09-.63-4.17-.89-4.45-1.77a6.69,6.69,0,0,1,1-5.19c1.37-1.81,2.15-1.51,1.57-2.3-.11-.15-.22-.33-.36-.53l-.53-.08-.26,0-.83-.13-3.06-.49c-1.28.78-2.19,1.69-2.77,1.27-.38-.28-.21-.89.06-1.7L39,40a7.27,7.27,0,0,1-7,4c-.39,0-.76,0-1.11-.06A8.73,8.73,0,0,1,32,47.77c0,.17,0,4.11,0,7.75.74,0,1.47,0,2.18-.05l.5,0c.7,0,1.4-.07,2.08-.12h.1c.66,0,1.3-.12,1.93-.19l.46-.05,1.9-.25.17,0L43,54.52l.41-.07,1.7-.34.21,0,1.45-.34.36-.09,1.48-.39.24-.07,1.19-.35.32-.1,1.23-.4.24-.09.52-.19A16,16,0,0,0,50.24,51.24Z" style="fill: #b9d8b9"/>
              <path d="M45,51.79c-1.48-.45-3.62-.19-3.82-.82s1.36-1.92,2.28-3.14.59-1.83.18-2.39-.65-.61-2.17-.08-3.95,2-4.49,1.58,1-3.2,1-4.74c0-.24,0-.49,0-.73A7.11,7.11,0,0,1,32,44a7.29,7.29,0,0,1-5.35-1.87v0c0,1.54,0,3.52-.58,3.92S23.43,46.48,22,46s-2.58-1.85-3-1.28.89,1.39,1.86,2.67,1.45,2.84,1.24,3.49-1.94.46-3.42.91a2,2,0,0,0-1.6,1.91A62.48,62.48,0,0,0,32,55.5a62.66,62.66,0,0,0,16.29-2.19A11.81,11.81,0,0,0,45,51.79Z" style="fill: #ecd3bc"/>
              <path d="M45,51.79c-1.48-.45-3.62-.19-3.82-.82s1.36-1.92,2.28-3.14.59-1.83.18-2.39-.65-.61-2.17-.08-3.95,2-4.49,1.58,1-3.2,1-4.74c0-.24,0-.49,0-.73a.6.6,0,0,1-.08.08c-.09.11-.19.21-.28.3s-.23.23-.35.34l-.29.26c-.15.12-.31.23-.47.34l-.24.17a6.21,6.21,0,0,1-.77.4l-.29.11a5.81,5.81,0,0,1-.63.21l-.35.09-.72.13-.34.05A10.9,10.9,0,0,1,32,44,9.79,9.79,0,0,1,30.88,44,8.73,8.73,0,0,1,32,47.76c0,.17,0,4.11,0,7.75.82,0,1.62,0,2.4,0l.74,0c.53,0,1.06-.05,1.57-.09.32,0,.63-.06.94-.09l1.27-.12,1-.13L41,54.85l1.07-.17.94-.16,1.09-.21.81-.16L46,53.9l.7-.16,1.06-.27.47-.12A10.78,10.78,0,0,0,45,51.79Z" style="fill: #d4bea9"/>
              <path d="M41.43,54c0-.42-1-.88-1.92-1.15s-1.74-.37-1.86-.74a2.81,2.81,0,0,1,.43-2.17c.57-.76.9-.63.66-1s-.62-1.13-1.52-.82-1.43,1.05-1.75.82.28-1,.3-1.91a2.06,2.06,0,0,0-1.1-1.84,2.19,2.19,0,0,0-2.11.75c-.52.74-.34,2.91-.75,2.91s-.59-1.92-1.1-2.66-1.53-1.63-1.91-1.51a3.13,3.13,0,0,0-1.05,2.35c0,.91.91,1.93.6,2.16s-1-.88-1.89-1.17a2.6,2.6,0,0,0-2.34.35c-.24.33.53,1.05,1.1,1.8s1.31,1.65,1.18,2-1.54-.13-2.41.13-.8,1.2-.8,1.63a1.76,1.76,0,0,0,.15.87,61.22,61.22,0,0,0,8.66.62c2.12,0,4.14-.12,6.06-.31a6.79,6.79,0,0,1,1.29-.56C40.26,54.36,41.43,54.42,41.43,54Z" style="fill: #e5a1b5"/>
              <path d="M39.35,54.63c.9-.27,2.07-.21,2.07-.63s-1-.88-1.92-1.15-1.74-.37-1.86-.74a2.81,2.81,0,0,1,.43-2.17c.57-.76.9-.63.66-1s-.62-1.13-1.52-.82-1.43,1.05-1.75.82.28-1,.3-1.91a2.06,2.06,0,0,0-1.1-1.84,2.19,2.19,0,0,0-2.11.75A9.49,9.49,0,0,0,32,48.57c0,1.37,0,4.23,0,6.94h0c1,0,1.9,0,2.82-.08l.81,0q1-.06,2-.15l.45,0A6.38,6.38,0,0,1,39.35,54.63Z" style="fill: #ce91a3"/>
            </g>
            <path d="M32,55.49c13.22,0,23-4.28,25-5.5-.12-.75-.47-7.19-5.5-8L39,40a7.27,7.27,0,0,1-7,4,7.27,7.27,0,0,1-7-4L12.5,42c-5,.81-5.38,7.25-5.5,8C9,51.22,18.78,55.47,32,55.49Z" style="fill: none;stroke: #333;stroke-linejoin: round;stroke-width: 1.5px"/>
          </g>
          <path d="M42.5,22.5v-4a10.5,10.5,0,0,0-21,0v4c-1.5,0-3.81.82-2,4.23a9.44,9.44,0,0,1,1.09,3c.09.71.89,1.95,2.91,1.25l.33,2.13c.11,1.21.17,2.33,1.07,3.15l3.18,2.89a3.27,3.27,0,0,0,2.18.84h3.48a3.23,3.23,0,0,0,2.18-.84l3.18-2.89c.9-.82,1-1.94,1.07-3.15L40.5,31c2,.7,2.81-.54,2.91-1.25a9.61,9.61,0,0,1,1.09-3C46.31,23.32,44,22.5,42.5,22.5Z" style="fill: #a88064"/>
          <path d="M42.28,33.93c-.62,0-1.1-.84-1.09-1.86" style="fill: none;stroke: #debe70;stroke-linecap: round;stroke-linejoin: round;stroke-width: 0.75px"/>
          <path d="M42.5,22.5v-4A10.5,10.5,0,0,0,32,8v9c0,3-1,3.77-6.38,5.12-.16,0,3.54-.43,3.54,1.51,0,.85.77,0,1.33.74a.41.41,0,0,0,.43.14,3.59,3.59,0,0,1,.49-.13.49.49,0,0,1,.59.48v3a.3.3,0,0,0,.24.29A.9.9,0,0,1,33,29a1,1,0,0,1-.76.85.28.28,0,0,0-.24.28v4.06a1.11,1.11,0,0,0,1,1.1c1.05.05,2,.52,2,1.71,0,2-5.73.22-5.81,2.81a3.2,3.2,0,0,0,1.06.19h3.49a3.23,3.23,0,0,0,2.18-.84l3.18-2.89c.9-.82,1-1.94,1.07-3.15L40.5,31c2,.7,2.81-.54,2.91-1.25a9.61,9.61,0,0,1,1.09-3C46.31,23.32,44,22.5,42.5,22.5Z" style="fill: #9c775b"/>
          <circle cx="27.75" cy="24.5" r="0.75" style="fill: #333"/>
          <circle cx="36.25" cy="24.5" r="0.75" style="fill: #333"/>
          <path d="M29.56,29.29a2.82,2.82,0,0,1,1,.31h0a2.69,2.69,0,0,0,2.61,0h0a2.75,2.75,0,0,1,1.31-.34" style="fill: none;stroke: #9c775b;stroke-linecap: round;stroke-miterlimit: 10;stroke-width: 0.600000023841858px"/>
          <path d="M42.5,22.5v-4a10.5,10.5,0,0,0-21,0v4c-1.5,0-3.81.82-2,4.23a9.44,9.44,0,0,1,1.09,3,2.2,2.2,0,0,0,2.91,1.94l.33,1.43a3.19,3.19,0,0,0,1.07,2.62l3.18,3.41a3.27,3.27,0,0,0,2.18.84h3.48a3.23,3.23,0,0,0,2.18-.84l3.18-3.41a3.21,3.21,0,0,0,1.07-2.62l.33-1.43c2,.7,2.81-1.24,2.91-1.94a9.61,9.61,0,0,1,1.09-3C46.31,23.32,44,22.5,42.5,22.5Z" style="fill: none;stroke: #333;stroke-linecap: round;stroke-linejoin: round;stroke-width: 1.5px"/>
          <path d="M23.25,24.5a4.13,4.13,0,0,0,.11,1.74,4.35,4.35,0,0,0,.87,1.64.25.25,0,0,1,0,.34.26.26,0,0,1-.3,0h0a5.26,5.26,0,0,1-1.44-1.59,5.58,5.58,0,0,1-.71-2.14v0a.76.76,0,0,1,1.51-.17A.74.74,0,0,1,23.25,24.5Z" style="fill: #936b55"/>
          <path d="M42.25,24.5a5.33,5.33,0,0,1-2.15,3.73h0a.24.24,0,0,1-.33-.35,4.42,4.42,0,0,0,.87-1.64,4.13,4.13,0,0,0,.11-1.74.76.76,0,1,1,1.5-.22.6.6,0,0,1,0,.19Z" style="fill: #936b55"/>
          <path d="M41.19,13.41a4.62,4.62,0,0,1,3.54,4.09c.26,2.36-1.21,2.91-1.21,5a1.84,1.84,0,0,0-2,2V19C42.43,17.12,42,15.27,41.19,13.41Z" style="fill: #444;stroke: #333;stroke-linejoin: round"/>
          <path d="M22.81,13.41a4.62,4.62,0,0,0-3.54,4.09c-.26,2.36,1.21,2.91,1.21,5a1.84,1.84,0,0,1,2,2V19C21.57,17.12,22,15.27,22.81,13.41Z" style="fill: #444;stroke: #333;stroke-linejoin: round"/>
          <line x1="33.5" y1="25.5" x2="33.5" y2="24" style="fill: none;stroke: #936b55;stroke-linecap: round;stroke-miterlimit: 10;stroke-width: 0.649999976158142px"/>
          <line x1="32" y1="31.38" x2="32" y2="32" style="fill: none;stroke: #936b55;stroke-linecap: round;stroke-miterlimit: 10;stroke-width: 0.649999976158142px"/>
          <line x1="31" y1="36" x2="33" y2="36" style="fill: none;stroke: #936b55;stroke-linecap: round;stroke-miterlimit: 10;stroke-width: 0.649999976158142px"/>
          <path d="M29,28.5A10.13,10.13,0,0,0,26.5,33" style="fill: none;stroke: #936b55;stroke-linecap: round;stroke-miterlimit: 10;stroke-width: 0.649999976158142px"/>
          <path d="M35,28.5A10.13,10.13,0,0,1,37.5,33" style="fill: none;stroke: #a88064;stroke-linecap: round;stroke-miterlimit: 10;stroke-width: 0.5px"/>
          <line x1="33.5" y1="27" x2="33.5" y2="27.5" style="fill: none;stroke: #936b55;stroke-linecap: round;stroke-miterlimit: 10;stroke-width: 0.649999976158142px"/>
          <path d="M24.79,22.29a4.27,4.27,0,0,1,1.13-.95,4.75,4.75,0,0,1,1.42-.54,3.05,3.05,0,0,1,1.55.18,3.31,3.31,0,0,1,1.29.8.35.35,0,0,1,0,.49.33.33,0,0,1-.32.1h-.05a5.65,5.65,0,0,0-1.18-.16,10,10,0,0,0-1.1.1,5.72,5.72,0,0,0-1.14.17,12.33,12.33,0,0,0-1.18.36l0,0a.34.34,0,0,1-.44-.22A.3.3,0,0,1,24.79,22.29Z" style="fill: #444"/>
          <path d="M38.79,22.82a12.33,12.33,0,0,0-1.18-.36,5.94,5.94,0,0,0-1.14-.17,10,10,0,0,0-1.1-.1,5.65,5.65,0,0,0-1.18.16h0a.35.35,0,0,1-.41-.28.37.37,0,0,1,.1-.32,3.56,3.56,0,0,1,1.29-.8,3.16,3.16,0,0,1,1.55-.18,4.86,4.86,0,0,1,1.42.54,4.27,4.27,0,0,1,1.13.95.35.35,0,0,1,0,.49.34.34,0,0,1-.33.06Z" style="fill: #444"/>
          <path d="M25.8,24.9a2.79,2.79,0,0,1,2.43-1.11,3.93,3.93,0,0,1,1.27.3" style="fill: none;stroke: #936b55;stroke-linecap: round;stroke-miterlimit: 10;stroke-width: 0.649999976158142px"/>
          <path d="M38.2,24.9a3,3,0,0,0-3.7-.81" style="fill: none;stroke: #936b55;stroke-linecap: round;stroke-miterlimit: 10;stroke-width: 0.649999976158142px"/>
          <path d="M24.35,17.33l.5-.27a6.47,6.47,0,0,1,5.08-.42h0a6.47,6.47,0,0,0,4.08,0l.05,0a6.47,6.47,0,0,1,5.11.46l.43.23" style="fill: none;stroke: #a88064;stroke-linecap: round;stroke-miterlimit: 10;stroke-width: 0.5px"/>
          <path d="M25.87,14.59a6.38,6.38,0,0,1,4.05,0h0a6.47,6.47,0,0,0,4.08,0l0,0a6.42,6.42,0,0,1,4.13,0" style="fill: none;stroke: #a88064;stroke-linecap: round;stroke-miterlimit: 10;stroke-width: 0.5px"/>
          <path d="M24.35,17.85l.5-.27a6.47,6.47,0,0,1,5.08-.42h0a6.47,6.47,0,0,0,4.08,0l.05,0a6.47,6.47,0,0,1,5.11.46l.43.23" style="fill: none;stroke: #9c775b;stroke-linecap: round;stroke-miterlimit: 10;stroke-width: 0.5px"/>
          <path d="M25.87,15.12a6.38,6.38,0,0,1,4.05,0h0a6.47,6.47,0,0,0,4.08,0l0,0a6.42,6.42,0,0,1,4.13,0" style="fill: none;stroke: #9c775b;stroke-linecap: round;stroke-miterlimit: 10;stroke-width: 0.5px"/>
          <path d="M29.92,12.86h0a6.4,6.4,0,0,0,4.08,0l0,0" style="fill: none;stroke: #9c775b;stroke-linecap: round;stroke-miterlimit: 10;stroke-width: 0.5px"/>
          <g>
            <path d="M32.88,32.33l-.77.31-.85-.19a1.64,1.64,0,0,0-1.15.15L28,33.53c1.59.29,1.36.94,2.94,1.06,0,0,1.54,0,2.34-.07,1.13-.12,1.81-.33,2.85-1.87a7.79,7.79,0,0,1-2.42-.36A1.16,1.16,0,0,0,32.88,32.33Z" style="fill: #916953"/>
            <line x1="28.12" y1="33.04" x2="27.75" y2="33.99" style="fill: none;stroke: #936b55;stroke-linecap: round;stroke-miterlimit: 10;stroke-width: 0.649999976158142px"/>
            <line x1="35.95" y1="32.08" x2="36.33" y2="33.19" style="fill: none;stroke: #936b55;stroke-linecap: round;stroke-miterlimit: 10;stroke-width: 0.649999976158142px"/>
            <path d="M36.18,32.79a2.64,2.64,0,0,1-1,.57l-1,.13c-.7.07-1.42.15-2.13.2s-1.43,0-2.13,0-1.39,0-2.06,0a.16.16,0,0,1-.15-.16.15.15,0,0,1,.13-.15l.18,0,2.07-.28c.68-.09,1.34-.18,2-.21s1.32,0,2,0h1a2.29,2.29,0,0,0,.88-.34.18.18,0,0,1,.25.07A.2.2,0,0,1,36.18,32.79Z" style="fill: #674848"/>
          </g>
          <path d="M29.92,12.35h0a6.4,6.4,0,0,0,4.08,0l0,0" style="fill: none;stroke: #a88064;stroke-linecap: round;stroke-miterlimit: 10;stroke-width: 0.5px"/>
          <path d="M29.25,29.75a3.14,3.14,0,0,1,1.38.32h0a3.09,3.09,0,0,0,2.75,0h0a3.14,3.14,0,0,1,1.38-.32" style="fill: none;stroke: #674848;stroke-linecap: round;stroke-miterlimit: 10;stroke-width: 0.75px"/>
          <path d="M37.71,34.24v-1.5a2,2,0,0,0-1.9-2H28.22a2,2,0,0,0-1.9,2v1.5c-1.73-1.9-3.68-3.36-3.68-8v4c0,6,2.67,5.25,4.69,8.28,1.43,2.16,3.55,1.74,4.69,1.72s3.26.44,4.69-1.72c2-3,4.8-2.28,4.8-8.28v-4C41.52,31.08,39.23,32.64,37.71,34.24Zm-1.19.84-1,1.22a1.2,1.2,0,0,1-.94.47c-.93,0-1.19-1-1.23-1h-2.7c-.05.07-.29,1-1.23,1a1.2,1.2,0,0,1-.94-.47l-1-1.22V32.55a.76.76,0,0,1,.72-.8h2.43A1.47,1.47,0,0,0,31.88,31a.19.19,0,0,1,.31,0,1.49,1.49,0,0,0,1.19.73h2.43a.76.76,0,0,1,.72.8v2.53Z" style="fill: #444"/>
          <path d="M41.74,26.28a13.14,13.14,0,0,1-.1,2.34A9.38,9.38,0,0,1,41,30.91a8.69,8.69,0,0,1-1.31,2c-.51.61-1.07,1.14-1.59,1.67h0a.5.5,0,0,1-.86-.35V32.69a1.75,1.75,0,0,0,0-.4,1.54,1.54,0,0,0-1.07-1.11,6.31,6.31,0,0,0-1-.07l-1,0L32,31a.23.23,0,0,1-.22-.24.24.24,0,0,1,.22-.22l2.09-.1,1,0a6.15,6.15,0,0,1,1.13,0A2.38,2.38,0,0,1,38.08,32a2.78,2.78,0,0,1,.11.63l0,.54v1l-.86-.34c.54-.58,1.11-1.07,1.61-1.6a8.38,8.38,0,0,0,1.27-1.76,10.19,10.19,0,0,0,1.06-4.26h0a.22.22,0,0,1,.24-.21A.23.23,0,0,1,41.74,26.28Z" style="fill: #333"/>
          <path d="M32,31l-2.09.1-1,0a6.41,6.41,0,0,0-1,.07,1.54,1.54,0,0,0-1.08,1.11,1.83,1.83,0,0,0-.05.4v.51l0,1a.5.5,0,0,1-.49.51.53.53,0,0,1-.38-.16h0c-.49-.55-1.05-1.08-1.54-1.69a8.94,8.94,0,0,1-1.27-2,10,10,0,0,1-.73-4.6.23.23,0,0,1,.24-.22.24.24,0,0,1,.22.22,10.18,10.18,0,0,0,1,4.23,17.2,17.2,0,0,0,2.79,3.4l-.87.34,0-1,0-.54A2.78,2.78,0,0,1,26,32a2.37,2.37,0,0,1,1.79-1.64,6.14,6.14,0,0,1,1.13,0l1,0,2.09.1a.23.23,0,0,1,.22.24A.24.24,0,0,1,32,31Z" style="fill: #333"/>
          <path d="M23,26.28l.07,2.07,0,1,0,.52v.42h-.95v-.08h.95A8.61,8.61,0,0,0,24,34.17c.6,1.1,1.88,1.73,3,2.86a8.3,8.3,0,0,1,.77.9,8.35,8.35,0,0,0,.61.76,2.83,2.83,0,0,0,1.52.79,9.18,9.18,0,0,0,2,0,14,14,0,0,0,2.07,0,3,3,0,0,0,1.57-.68,3.17,3.17,0,0,0,.6-.66,9.19,9.19,0,0,1,.74-.91c1.09-1.19,2.46-1.8,3.16-2.82a7.24,7.24,0,0,0,1-3.82l.15-4.31a.34.34,0,0,1,.68,0c0,1.45.12,2.87.13,4.34a8.31,8.31,0,0,1-1,4.47,7.49,7.49,0,0,1-1.61,1.7,11.91,11.91,0,0,0-1.5,1.39,9.37,9.37,0,0,0-.59.78,4.64,4.64,0,0,1-.82,1A4.16,4.16,0,0,1,34.13,41a14.12,14.12,0,0,1-2.24,0,8.46,8.46,0,0,1-2.32-.1,4.23,4.23,0,0,1-2.22-1.25,8.18,8.18,0,0,1-.72-.94A7.36,7.36,0,0,0,26,38a18.27,18.27,0,0,0-1.56-1.4A6,6,0,0,1,23,34.74a9.46,9.46,0,0,1-.78-4.48v0a.48.48,0,0,1,.49-.47.47.47,0,0,1,.47.49h0v.08h-.95v-.42l0-.52,0-1,.07-2.07a.34.34,0,0,1,.35-.33A.3.3,0,0,1,23,26.28Z" style="fill: #333"/>
          <path d="M30.88,25.73a1.14,1.14,0,0,1,2.18,0" style="fill: none;stroke: #333;stroke-linecap: round;stroke-linejoin: round;stroke-width: 0.75px"/>
          <path d="M23.92,25.73h7l-1,1.77a1.44,1.44,0,0,1-1.25.74H26.52a2,2,0,0,1-1.73-1Z" style="fill: #bf9882"/>
          <path d="M28.57,28.24a1.37,1.37,0,0,0,.22-.74A1.33,1.33,0,0,0,28.7,27a.25.25,0,0,0-.23-.16H26.35a.24.24,0,0,0-.23.16,1.33,1.33,0,0,0-.09.49,1.3,1.3,0,0,0,.2.7,1.75,1.75,0,0,0,.32,0Z" style="fill: #c49e8c"/>
          <path d="M40,25.73h-7l1,1.76a1.44,1.44,0,0,0,1.25.74H37.4a2,2,0,0,0,1.73-1Z" style="fill: #bf9882"/>
          <path d="M37.7,28.24a1.37,1.37,0,0,0,.22-.74,1.33,1.33,0,0,0-.09-.49.25.25,0,0,0-.23-.16H35.48a.24.24,0,0,0-.23.16,1.33,1.33,0,0,0-.09.49,1.3,1.3,0,0,0,.2.7,1.75,1.75,0,0,0,.32,0Z" style="fill: #c49e8c"/>
          <path d="M23.92,25.73h7l-1,1.77a1.44,1.44,0,0,1-1.25.74H26.52a2,2,0,0,1-1.73-1Z" style="fill: none;stroke: #333;stroke-linecap: round;stroke-linejoin: round;stroke-width: 0.75px"/>
          <path d="M40,25.73h-7l1,1.76a1.44,1.44,0,0,0,1.25.74H37.4a2,2,0,0,0,1.73-1Z" style="fill: none;stroke: #333;stroke-linecap: round;stroke-linejoin: round;stroke-width: 0.75px"/>
          <path d="M42.33,30.24c.62,0,1.1.84,1.09,1.86s-.53,1.84-1.14,1.83" style="fill: none;stroke: #debe70;stroke-linecap: round;stroke-linejoin: round;stroke-width: 0.75px"/>
        </g>
      </g>
    </g>
  </g>
</svg>
