<svg xmlns="http://www.w3.org/2000/svg" width="64" height="64" viewBox="0 0 64 64">
  <title>punk-black-female</title>
  <g id="punk-black-female">
    <g id="punk-black-female-2" data-name="punk-black-female">
      <g id="Icons">
        <g>
          <path d="M55.46,51.22l-.25-1.9A5.7,5.7,0,0,0,51,44.92a98.85,98.85,0,0,0-11-2.35h0l-.29,0c-.61-.08-1.23-.16-1.88-.22V36.17H25.56v6.15A83.25,83.25,0,0,0,12.5,44.93a5.7,5.7,0,0,0-4.19,4.4L8,51.2l.09.06a58.35,58.35,0,0,0,20.47,4.88h0q1.58.09,3.18.09c1,0,2.09,0,3.13-.08h0A58.35,58.35,0,0,0,55.4,51.27Z" style="fill: #9b775c"/>
          <g>
            <g>
              <path d="M23.35,43.7c0-.17,0-.63,0-1.11A96.51,96.51,0,0,0,12.5,44.93a5.7,5.7,0,0,0-4.19,4.4L8,51.2l.09.06a58.35,58.35,0,0,0,20.47,4.88A18.38,18.38,0,0,1,23.35,43.7Z" style="fill: #555"/>
              <path d="M55.21,49.32A5.7,5.7,0,0,0,51,44.92a98.85,98.85,0,0,0-11-2.35c0,.37,0,.74,0,1.12A18.35,18.35,0,0,1,34.9,56.13a58.35,58.35,0,0,0,20.52-4.88l0,0Z" style="fill: #555"/>
              <path d="M31.76,56.22q-1.61,0-3.18-.09Q30.16,56.22,31.76,56.22Z" style="fill: #555"/>
            </g>
            <g>
              <path d="M34.9,56.13a58.44,58.44,0,0,0,20.56-4.91c-.33-2.25-2.12-3-3.5-3.32A96.39,96.39,0,0,0,40,45.37,18.48,18.48,0,0,1,34.9,56.13Z" style="fill: #444"/>
              <path d="M23.45,45.38A97.8,97.8,0,0,0,11.57,47.9c-1.41.35-3.25,1.42-3.57,3.3a58,58,0,0,0,20.56,4.93A18.4,18.4,0,0,1,23.45,45.38Z" style="fill: #444"/>
              <path d="M31.76,56.22c1,0,1.9,0,2.82-.07C33.64,56.19,32.71,56.22,31.76,56.22Z" style="fill: #444"/>
              <path d="M31.76,56.22c-1,0-2,0-2.92-.08C29.79,56.19,30.77,56.22,31.76,56.22Z" style="fill: #444"/>
            </g>
            <path d="M23.4,42.58a18.13,18.13,0,0,0,5.17,13.55" style="fill: none;stroke: #333;stroke-linejoin: round;stroke-width: 1.5px"/>
            <path d="M25.62,42.31c-5.3.86-8.42,1.52-13.12,2.61a5.67,5.67,0,0,0-4.18,4.4L8,51.2l.09.06a58.56,58.56,0,0,0,23.66,5,58.47,58.47,0,0,0,23.65-5l.05,0-.25-1.9A5.7,5.7,0,0,0,51,44.93c-4.6-1.15-7.73-1.73-13-2.6" style="fill: none;stroke: #333;stroke-linejoin: round;stroke-width: 1.5px"/>
            <g>
              <path d="M25.56,36.16v3.12l5,5.18a4.07,4.07,0,0,1,1.15,2.85,2.63,2.63,0,0,0,2.63,2.63h.52a3,3,0,0,0,3-3V36.16Z" style="fill: #957058"/>
              <polyline points="25.56 44.19 25.56 36.16 37.9 36.16 37.9 44.19" style="fill: none;stroke: #333;stroke-linejoin: round;stroke-width: 1.5px"/>
            </g>
            <path d="M34.89,56.14a18.17,18.17,0,0,0,5.17-13.57" style="fill: none;stroke: #333;stroke-linejoin: round;stroke-width: 1.5px"/>
          </g>
          <g>
            <path d="M31.73,10.59c8.38,0,10.85,4.89,10.85,10.53,0,.33-.09,1.66-.13,2,1.8,0,2.45,1.85,2.16,4.24-.25,2-1,4.26-3,4.32,0,.12,0,.44-.1,1.1-.2,3.13-2.41,5-5.32,8a5,5,0,0,1-4.5,1.82,5,5,0,0,1-4.5-1.82c-2.91-3-5.12-4.87-5.32-8,0-.66-.09-1-.1-1.1-1.94-.06-2.71-2.28-3-4.32-.29-2.39.35-4.24,2.16-4.24,0-.33-.13-1.66-.13-2C20.88,15.48,23.35,10.59,31.73,10.59Z" style="fill: #a68064"/>
            <path d="M29.68,28.4l-2.5-1.2c-3.72-.17-4.43-.6-4.43-.6h0a3,3,0,0,0,2.45,3,12.83,12.83,0,0,0,2.36.25C29.88,29.83,29.68,28.4,29.68,28.4Z" style="fill: #72b1c4"/>
            <path d="M42.38,23.14c0-.34.13-1.66.13-2h0c0-5.64-2.47-10.53-10.85-10.53a17.45,17.45,0,0,0-2.82.22h0V21.78a4.1,4.1,0,0,1-1.32,3,.45.45,0,0,0-.16.34.47.47,0,0,0,.36.46,2.69,2.69,0,0,1,2,2,.5.5,0,0,0,.8.3,1.73,1.73,0,0,1,.61-.33.51.51,0,0,1,.64.5v1.84c0,1,1.36.87.81,1.91a.78.78,0,0,1-.81.47c-.9,0-.86-.29-1.54-.4-.34-.06-.55.22-.55.57,1,0,1,.52,2.09.52v4.61h0a.41.41,0,0,0,.32.39,1.69,1.69,0,0,1,1.26,1.48c0,.67-.37,1.36-1.58,1.6s-2.68-1-3.2,0a.8.8,0,0,0-.06.27c0,.44.34,1.28,3.26,1.28a4.84,4.84,0,0,0,4.43-1.8c2.91-3,5.12-4.87,5.32-8,0-.66.09-1,.1-1.1,1.94-.06,2.71-2.28,3-4.32,0-.3.06-.59.07-.87C44.65,24.55,44,23.14,42.38,23.14Z" style="fill: #9b775c"/>
            <path d="M31.66,10.61a17.45,17.45,0,0,0-2.82.22h0v3.9l.35,4.06A1.77,1.77,0,0,0,31,20.41h3a1.78,1.78,0,0,0,1.77-1.62l.65-7.49A15.25,15.25,0,0,0,31.66,10.61Z" style="fill: #957058"/>
            <path d="M42.45,23.12c0-.33.13-1.66.13-2,0-5.64-2.47-10.53-10.85-10.53S20.88,15.49,20.88,21.13c0,.33.09,1.66.13,2-1.81,0-2.45,1.85-2.16,4.24.25,2,1,4.26,3,4.32,0,.12.05.44.1,1.1.2,3.13,2.26,4.82,5.17,7.85a6.23,6.23,0,0,0,4.65,2,6.15,6.15,0,0,0,4.63-2c2.91-3,5-4.74,5.19-7.87,0-.66.09-1,.1-1.1,1.94-.06,2.71-2.28,3-4.32C44.9,25,44.26,23.12,42.45,23.12Z" style="fill: none;stroke: #333;stroke-linejoin: round;stroke-width: 1.5px"/>
          </g>
          <line x1="31.13" y1="38.42" x2="32.49" y2="38.42" style="fill: none;stroke: #957058;stroke-linecap: round;stroke-miterlimit: 10;stroke-width: 0.75px"/>
          <line x1="31.73" y1="33.2" x2="31.73" y2="33.97" style="fill: none;stroke: #957058;stroke-linecap: round;stroke-miterlimit: 10;stroke-width: 0.75px"/>
          <circle cx="33.8" cy="31.68" r="0.25" style="fill: #936d58;stroke: #936d58;stroke-miterlimit: 10;stroke-width: 0.5px"/>
          <path d="M33.8,31.68a1.36,1.36,0,1,1-.39,2.2,1.3,1.3,0,0,1-.34-.57" style="fill: none;stroke: #eee;stroke-linecap: round;stroke-miterlimit: 10;stroke-width: 0.5px"/>
          <path d="M29.64,32.68c1,0,1,.52,2.09.52s1-.52,2.09-.52" style="fill: none;stroke: #674848;stroke-linecap: round;stroke-miterlimit: 10;stroke-width: 0.75px"/>
          <line x1="28.55" y1="35.85" x2="28.2" y2="36.55" style="fill: none;stroke: #957058;stroke-linecap: round;stroke-miterlimit: 10;stroke-width: 0.75px"/>
          <line x1="34.91" y1="35.85" x2="35.32" y2="36.68" style="fill: none;stroke: #957058;stroke-linecap: round;stroke-miterlimit: 10;stroke-width: 0.75px"/>
          <path d="M33.23,20.08h-3a1.78,1.78,0,0,1-1.77-1.62l-.74-8.52A1.77,1.77,0,0,1,29.45,8H34a1.78,1.78,0,0,1,1.77,1.93L35,18.45A1.78,1.78,0,0,1,33.23,20.08Z" style="fill: #333"/>
          <path d="M29.49,28.22c-.55-.38-2.19-2-4.12-.4-.75-.52-1.36,0-2.61-1.23,1.61.56,4.26.06,5.62.86" style="fill: #333;stroke: #333;stroke-linecap: round;stroke-linejoin: round;stroke-width: 0.503600001335144px"/>
          <path d="M33.78,28.4l2.5-1.2c3.72-.17,4.43-.6,4.43-.6h0a3,3,0,0,1-2.45,3,12.83,12.83,0,0,1-2.36.25C33.58,29.83,33.78,28.4,33.78,28.4Z" style="fill: #72b1c4"/>
          <path d="M34,28.22c.55-.38,2.19-2,4.12-.4.75-.52,1.36,0,2.61-1.23-1.61.56-4.26.06-5.62.86" style="fill: #333;stroke: #333;stroke-linecap: round;stroke-linejoin: round;stroke-width: 0.503600001335144px"/>
          <circle cx="27.04" cy="27.92" r="0.78" style="fill: #333"/>
          <circle cx="36.42" cy="27.92" r="0.78" style="fill: #333"/>
          <path d="M22.62,24.88a4.8,4.8,0,0,1,1.61-.55,6,6,0,0,1,1.69,0c1.1.14,2.18.52,3.15.63h0A.5.5,0,0,1,29,26h-.05a13.24,13.24,0,0,1-1.61-.51c-.51-.18-1-.36-1.51-.49a3.78,3.78,0,0,0-3,.21.18.18,0,1,1-.2-.3S22.62,24.89,22.62,24.88Z" style="fill: #9b775c"/>
          <path d="M40.61,25.19a3.78,3.78,0,0,0-3-.19c-.51.13-1,.31-1.51.49a11.43,11.43,0,0,1-1.62.5.5.5,0,0,1-.19-1h.07a10.23,10.23,0,0,0,1.51-.29c.53-.12,1.07-.25,1.62-.33a6.36,6.36,0,0,1,1.69,0,4.64,4.64,0,0,1,1.61.54.18.18,0,0,1-.17.31Z" style="fill: #a68064"/>
          <path d="M32.53,35a1.88,1.88,0,0,1-.81.21c-.21,0-.23,0-.7-.21-.84-.33-.88.69-2.43,1.25l1,1a2.26,2.26,0,0,0,1.62.58h1A2.56,2.56,0,0,0,34,37.19l.89-.94C33.36,35.73,33.36,34.68,32.53,35Z" style="fill: #500d7f"/>
          <path d="M34.83,36.26c-1,0-1.56-.52-3.12,0h0c-1.55-.52-2.07,0-3.12,0" style="fill: none;stroke: #3a105e;stroke-linecap: round;stroke-miterlimit: 10;stroke-width: 0.521399974822998px"/>
        </g>
      </g>
    </g>
  </g>
</svg>
