<svg id="Avatars" xmlns="http://www.w3.org/2000/svg" width="64" height="64" viewBox="0 0 64 64">
  <title>punk-goth-emo-woman-asian</title>
  <g>
    <g>
      <path d="M38.82,36.61A4.67,4.67,0,0,0,42,37.81" style="fill: none;stroke: #dbb61b;stroke-linecap: round;stroke-miterlimit: 10"/>
      <path d="M49.62,45.09l-4.51-1-7.86-2.6V38.34H25.72v3.15l-7.86,2.62-4.52,1A4.89,4.89,0,0,0,10,49.73v1.58c3.58,1.51,11.47,5.83,21.48,5.83S49.39,52.82,53,51.31V49.73A4.88,4.88,0,0,0,49.62,45.09Z" style="fill: #efc8a5"/>
      <path d="M14.88,44.75l-1.54.34A4.89,4.89,0,0,0,10,49.73v1.58c3.58,1.51,11.47,5.83,21.48,5.83a39.86,39.86,0,0,0,12.71-2.2C27.17,53.68,16.29,45.82,14.88,44.75Z" style="fill: #bcbcbe"/>
      <path d="M33.58,50.85h.52a3.27,3.27,0,0,0,3.15-3.19V38.34H25.72v2.84l4.07,4a4.55,4.55,0,0,1,1.21,3,2.59,2.59,0,0,0,2.56,2.62Z" style="fill: #e6b790"/>
      <line x1="25.72" y1="38.34" x2="25.72" y2="43.58" style="fill: none;stroke: #333;stroke-linejoin: round;stroke-width: 1.5px"/>
      <line x1="37.25" y1="38.34" x2="37.25" y2="43.58" style="fill: none;stroke: #333;stroke-linejoin: round;stroke-width: 1.5px"/>
      <path d="M25.72,41.49l-7.86,2.62-4.52,1A4.89,4.89,0,0,0,10,49.73v1.58c3.58,1.51,11.47,5.83,21.48,5.83S49.39,52.82,53,51.31V49.73a4.88,4.88,0,0,0-3.35-4.64l-4.51-1-7.89-2.6" style="fill: none;stroke: #333;stroke-linejoin: round;stroke-width: 1.5px"/>
      <path d="M24.15,36.61A4.71,4.71,0,0,1,21,37.81" style="fill: none;stroke: #dbb61b;stroke-linecap: round;stroke-miterlimit: 10"/>
      <path d="M31.48,9C40,9,42.55,14.3,42.55,20v1.58c1.83,0,2.25,1.91,2,4.33-.25,2-1,4.57-3,4.63v1.06c0,3.16-2.33,4.72-5.27,7.78-1.94,2-3.46,1.58-4.74,1.58s-2.81.44-4.75-1.58c-2.94-3.06-5.26-4.62-5.27-7.78V30.51c-2-.06-2.75-2.58-3-4.63-.3-2.42.13-4.33,2-4.33V20C20.42,14.3,23,9,31.48,9Z" style="fill: #efc8a5"/>
      <path d="M44.5,25.91c.3-2.42-.12-4.33-2-4.33V20c0-5.7-2.59-11-11.07-11S20.37,14.33,20.37,20v1.58a1.84,1.84,0,0,0-.77.17v.36c.45,0,1.58.16,1.92,2.4a.2.2,0,0,0,.22.18.22.22,0,0,0,.16-.12l1.53-3.08V19.15A3.67,3.67,0,0,1,24.68,16a27.86,27.86,0,0,1,8.64,3.48c3.07,3.8,5.34,9.51,7.89,13.83a5.47,5.47,0,0,0,.29-1.7V30.54C43.46,30.49,44.25,28,44.5,25.91Z" style="fill: #e6b790"/>
      <path d="M31.48,9C40,9,42.55,14.3,42.55,20v1.58c1.83,0,2.25,1.91,2,4.33-.25,2-1,4.57-3,4.63v1.06c0,3.16-2.33,4.72-5.27,7.78-1.94,2-3.46,1.58-4.74,1.58s-2.81.44-4.75-1.58c-2.94-3.06-5.26-4.62-5.27-7.78V30.51c-2-.06-2.75-2.58-3-4.63-.3-2.42.13-4.33,2-4.33V20C20.42,14.3,23,9,31.48,9Z" style="fill: none;stroke: #3a3a3a;stroke-linejoin: round;stroke-width: 1.58080959320068px"/>
      <path d="M42.55,21.58V20c0-5.7-2.59-11-11.07-11a17.15,17.15,0,0,0-2.86.23v11a4.09,4.09,0,0,1-1.34,3,.47.47,0,0,0,0,.66.44.44,0,0,0,.25.15,2.71,2.71,0,0,1,2,2,.5.5,0,0,0,.58.4.55.55,0,0,0,.22-.1,1.76,1.76,0,0,1,.62-.33.51.51,0,0,1,.62.36.68.68,0,0,1,0,.14v2.08a1.18,1.18,0,0,0,.65,1c.6.33.17,1.47-.65,1.47h0a1.74,1.74,0,0,1-.94-.24c-.77-.39-1.49.41-1.33.71s.35,0,1.13.36a2.61,2.61,0,0,0,1.16.28V36a.41.41,0,0,0,.32.4c1.38.32,2.11,2.61-.32,3.11h0a1.3,1.3,0,0,0-1.07,1.26V41h1.06c1.28,0,2.8.44,4.74-1.58,2.94-3.06,5.27-4.62,5.27-7.78V30.54c2-.06,2.75-2.58,3-4.63C44.8,23.49,44.38,21.58,42.55,21.58Z" style="fill: #e6b790"/>
      <path d="M28.55,26.34a4.53,4.53,0,0,0-1-.63l-.05,0a5.24,5.24,0,0,0-3.61.27l-.58.27.6.21.26.1a2.12,2.12,0,0,0,.58.17l.11,0,.09-.08A2.45,2.45,0,0,1,26.66,26l.09,0c-.38,0-.68.21-.68.44s.37.45.83.45.83-.2.83-.45c0,0,0-.05,0-.08.19.12.37.25.53.37s.27.2.37.26a.31.31,0,0,0,.13,0,.23.23,0,0,0,.22-.13.25.25,0,0,0-.09-.35C28.78,26.51,28.68,26.43,28.55,26.34Z" style="fill: #333"/>
      <path d="M42.55,21.58V20c0-5.7-2.59-11-11.07-11a17.15,17.15,0,0,0-2.86.23v8a38.56,38.56,0,0,1,4.7,2.3c2.79,3.45,5.38,9.56,7.82,14.06a5.33,5.33,0,0,0,.36-1.93V30.54c2-.06,2.75-2.58,3-4.63C44.8,23.49,44.38,21.58,42.55,21.58Z" style="fill: #ddab85"/>
      <path d="M23.33,24.2a4.15,4.15,0,0,1,1.45-.53,5.23,5.23,0,0,1,1.53,0c.5.08,1,.19,1.46.31a11.24,11.24,0,0,0,1.35.28h0a.53.53,0,1,1-.1,1.06l-.08,0a10.09,10.09,0,0,1-1.44-.5,11.88,11.88,0,0,0-1.34-.47,3.06,3.06,0,0,0-2.63.18.19.19,0,1,1-.23-.31Z" style="fill: #333"/>
      <path d="M39.4,24.52a2.16,2.16,0,0,0-1.28-.38,4.87,4.87,0,0,0-1.35.21c-.45.13-.89.3-1.34.47a9.57,9.57,0,0,1-1.46.5.54.54,0,0,1-.63-.41.53.53,0,0,1,.41-.63h.08A8.37,8.37,0,0,0,35.17,24c.47-.11,1-.23,1.46-.3a5.6,5.6,0,0,1,1.53,0,4.15,4.15,0,0,1,1.45.53.19.19,0,0,1,.07.26.2.2,0,0,1-.26.07Z" style="fill: #333"/>
      <path d="M39.14,26a5.23,5.23,0,0,0-3.61-.27l-.05,0a4.78,4.78,0,0,0-1,.63,3.13,3.13,0,0,1-.32.22.26.26,0,0,0-.09.35.23.23,0,0,0,.22.13.28.28,0,0,0,.13,0,3.77,3.77,0,0,0,.37-.26,6.31,6.31,0,0,1,.54-.37s0,.05,0,.08c0,.25.37.45.83.45s.83-.2.83-.45-.29-.4-.68-.44l.1,0a2.39,2.39,0,0,1,1.71.65l.09.08.11,0a2.3,2.3,0,0,0,.59-.17l.25-.1.6-.21Z" style="fill: #333"/>
      <path d="M31.48,9C40,9,42.55,14.3,42.55,20v1.58c1.83,0,2.25,1.91,2,4.33-.25,2-1,4.57-3,4.63v1.06c0,3.16-2.33,4.72-5.27,7.78-1.94,2-3.46,1.58-4.74,1.58s-2.81.44-4.75-1.58c-2.94-3.06-5.26-4.62-5.27-7.78V30.51c-2-.06-2.75-2.58-3-4.63-.3-2.42.13-4.33,2-4.33V20C20.42,14.3,23,9,31.48,9Z" style="fill: none;stroke: #3a3a3a;stroke-linejoin: round;stroke-width: 1.58080959320068px"/>
      <line x1="31.47" y1="32.47" x2="31.47" y2="33.25" style="fill: none;stroke: #ddab85;stroke-linecap: round;stroke-miterlimit: 10;stroke-width: 0.75px"/>
      <path d="M29.42,31.59c1,0,1,.52,2.1.52s1-.52,2.09-.52" style="fill: none;stroke: #c6916d;stroke-linecap: round;stroke-miterlimit: 10;stroke-width: 0.65px"/>
      <line x1="28.37" y1="34.67" x2="27.85" y2="35.72" style="fill: none;stroke: #ddab85;stroke-linecap: round;stroke-miterlimit: 10;stroke-width: 0.75px"/>
      <line x1="34.66" y1="34.67" x2="35.19" y2="35.72" style="fill: none;stroke: #ddab85;stroke-linecap: round;stroke-miterlimit: 10;stroke-width: 0.75px"/>
      <path d="M42,37.81a4.72,4.72,0,0,0,.43-9.43H42" style="fill: none;stroke: #dbb61b;stroke-linecap: round;stroke-miterlimit: 10"/>
      <path d="M43.54,17.38l3.66,2.11-3.3-5.9a12.53,12.53,0,0,0-3.77-4.1l-1.07-.74A12.5,12.5,0,0,0,30,6.65h0a12.48,12.48,0,0,0-7.77,4.55L21,12.66l.62.84L19.4,17.38v4.19c.53,0,1.89.2,2.1,3.14l1.57-3.61V18.74a4.58,4.58,0,0,1,1.57-3.46h0c3.36.21,5.76,1.21,9.3,3.1,4.36,5.18,5.73,12.41,10.42,17.34a45.59,45.59,0,0,0,1.07-8.94l1.77.71C46.68,24,45.63,19.75,43.54,17.38Z" style="fill: #444"/>
      <path d="M44.36,35.72a45.59,45.59,0,0,0,1.07-8.94l1.77.71c-.52-3.54-1.57-7.78-3.66-10.15l3.66,2.15-3.3-5.9a11.65,11.65,0,0,0-.73-1.1,12.47,12.47,0,0,0-1.44-1.17l-1.07-.75a12.53,12.53,0,0,0-9.09-2.08,12.25,12.25,0,0,0-7.49,4.82l-1.17,1.46.34.57L21,19.21v3.44a3.66,3.66,0,0,1,.29.78,1.68,1.68,0,0,1,.65.26l1.12-2.59V18.74a4.58,4.58,0,0,1,1.57-3.46c3.37.21,5.77,1.21,9.31,3.1C38.3,23.56,39.67,30.79,44.36,35.72Z" style="fill: #333"/>
      <path d="M43.41,32.11a29.08,29.08,0,0,1-1.8-2.72c-.55-.9-1.07-1.9-1.61-2.85-1-1.93-1.92-3.91-2.77-5.91a.51.51,0,0,1,.26-.66h0a.48.48,0,0,1,.64.26h0q1,3.07,2.28,6.06c.42,1,.86,2,1.34,2.94A26.24,26.24,0,0,0,43.41,32.11Z" style="fill: #444"/>
      <path d="M43.68,29.42l-3.76-7.51a.5.5,0,0,1,.23-.67h0a.48.48,0,0,1,.66.21h0v.06Z" style="fill: #444"/>
      <path d="M47.2,27.49C37.11,22.29,36.46,17,23.43,15l2.29-2.73,17.19,6.06Z" style="fill: #333"/>
      <path d="M43.8,22a22.56,22.56,0,0,0-3.45-4.28A20.65,20.65,0,0,0,36,14.49h0a.5.5,0,1,1,.41-.91l.09.05h0a23.61,23.61,0,0,1,4.23,3.75A22.77,22.77,0,0,1,43.8,22Z" style="fill: #444"/>
      <path d="M47.2,19.49a34.35,34.35,0,0,0-4.68-7,16.91,16.91,0,0,0-3.2-2.64A17.08,17.08,0,0,0,35.67,8a10.87,10.87,0,0,0-7.8.09,13.18,13.18,0,0,0-3.43,2.07,21,21,0,0,0-2.91,2.9V12.3l.6.86h0a.6.6,0,0,1,0,.63c-.78,1.27-1.55,2.55-2.34,3.81l.06-.23c0,1.39-.12,2.79-.2,4.19l-.27-.27a1.91,1.91,0,0,1,1.1.41,2.37,2.37,0,0,1,.66.91,5.53,5.53,0,0,1,.34,2.09,8.49,8.49,0,0,0-.22-1,4.75,4.75,0,0,0-.38-.94,1.6,1.6,0,0,0-1.5-.92.23.23,0,0,1-.26-.2h0c-.09-1.4-.15-2.8-.2-4.19a.34.34,0,0,1,0-.2h0c.68-1.32,1.39-2.63,2.09-3.94V14l-.65-.82a.62.62,0,0,1,0-.75h0a16.69,16.69,0,0,1,6.79-5.55A11.4,11.4,0,0,1,31.58,6,12.41,12.41,0,0,1,36,6.9a17.81,17.81,0,0,1,6.95,5.22,24.37,24.37,0,0,1,2.32,3.61A35.36,35.36,0,0,1,47.2,19.49Z" style="fill: #333"/>
      <path d="M21,37.81a4.72,4.72,0,0,1,0-9.43" style="fill: none;stroke: #dbb61b;stroke-linecap: round;stroke-miterlimit: 10"/>
      <path d="M14.72,44.63s11.21,9,29.48,10.31" style="fill: none;stroke: #333;stroke-linejoin: round;stroke-width: 1.5px"/>
      <path d="M32.34,33.93a1.92,1.92,0,0,1-.82.21c-.21,0-.23,0-.71-.21-.84-.33-.89.69-2.44,1.26l1,1a2.28,2.28,0,0,0,1.63.59h1a2.55,2.55,0,0,0,1.75-.63l.9-.94C33.18,34.65,33.17,33.6,32.34,33.93Z" style="fill: #444"/>
      <path d="M34.65,35.19c-1,0-1.56-.52-3.13,0h0c-1.55-.52-2.08,0-3.13,0" style="fill: none;stroke: #333;stroke-linecap: round;stroke-miterlimit: 10;stroke-width: 0.524007022380829px"/>
      <line x1="18.65" y1="47.21" x2="18.65" y2="43.13" style="fill: none;stroke: #333;stroke-linecap: round;stroke-linejoin: round"/>
      <line x1="44.32" y1="54.94" x2="44.32" y2="43.13" style="fill: none;stroke: #333;stroke-linecap: round;stroke-linejoin: round"/>
      <path d="M34,18a16,16,0,0,1,3.13,4.23c.83,1.53,1.48,3.13,2.16,4.69a42.88,42.88,0,0,0,2.21,4.58,21,21,0,0,0,3,4.07.21.21,0,0,1-.3.3A21.35,21.35,0,0,1,41,31.79a44.09,44.09,0,0,1-2.37-4.58c-.73-1.56-1.42-3.11-2.26-4.57a15.48,15.48,0,0,0-3.06-3.91.5.5,0,0,1,0-.71A.5.5,0,0,1,34,18Z" style="fill: #333"/>
    </g>
    <path d="M42.25,13.49a14.63,14.63,0,0,0-3.51-2.13,19.09,19.09,0,0,0-3.9-1.26,20.4,20.4,0,0,0-4.05-.43c-.68,0-1.36,0-2,.06s-1.35.16-2,.23h0a.5.5,0,1,1-.11-1h0c.7,0,1.4-.1,2.11-.12a16.32,16.32,0,0,1,2.1.07A21.44,21.44,0,0,1,35,9.61a20,20,0,0,1,3.89,1.52A15.23,15.23,0,0,1,42.25,13.49Z" style="fill: #444"/>
    <path d="M39.34,13.3a22.24,22.24,0,0,0-3.54-1.17,28.3,28.3,0,0,0-3.66-.64,30.47,30.47,0,0,0-3.7-.2,32.51,32.51,0,0,0-3.69.25h0a.5.5,0,1,1-.12-1h0a34.41,34.41,0,0,1,3.8,0,33.66,33.66,0,0,1,3.75.45,30.61,30.61,0,0,1,3.66.92A21.94,21.94,0,0,1,39.34,13.3Z" style="fill: #444"/>
    <path d="M37.86,18A26.57,26.57,0,0,0,31,14.72a21.36,21.36,0,0,0-3.7-.78,17.89,17.89,0,0,0-3.73,0h0a.49.49,0,0,1-.54-.45.5.5,0,0,1,.45-.55h0a18.49,18.49,0,0,1,3.93.29,21.27,21.27,0,0,1,3.76,1A26.91,26.91,0,0,1,37.86,18Z" style="fill: #444"/>
    <path d="M30.15,12.77a25.28,25.28,0,0,1,9.13,1.83,36.67,36.67,0,0,1,7.92,4.89c-2.87-1.19-5.51-2.8-8.31-3.95A72.11,72.11,0,0,0,30.15,12.77Z" style="fill: #444"/>
    <path d="M23.43,15a28.48,28.48,0,0,1,6.73,1.27,22.26,22.26,0,0,1,6.15,3.11c1.88,1.34,3.59,2.82,5.35,4.22s3.63,2.67,5.54,3.9c-1.05-.44-2.07-.93-3.08-1.47a28.45,28.45,0,0,1-2.91-1.81c-1.9-1.27-3.64-2.75-5.47-4A27.66,27.66,0,0,0,29.9,17,30,30,0,0,0,26.71,16C25.64,15.56,24.53,15.36,23.43,15Z" style="fill: #444"/>
  </g>
</svg>
