<svg xmlns="http://www.w3.org/2000/svg" width="64" height="64" viewBox="0 0 64 64">
  <title>punk-asian-male</title>
  <g id="punk-asian-male">
    <g id="punk-asian-male-2" data-name="punk-asian-male">
      <g id="Icons">
        <g>
          <path d="M57.56,50a5.64,5.64,0,0,0-4.5-4.5c-1.33-.33-4.71-1.16-8.5-2-1.84-.41-3.7-.72-5.56-1V38.84H24v3.67c-1.82.24-3.63.54-5.42,1-3.65.85-7,1.64-8.52,2A5.64,5.64,0,0,0,5.56,50l-.5,2.5A65.25,65.25,0,0,0,31.59,58a65.33,65.33,0,0,0,26.47-5.5Z" style="fill: #e6b790"/>
          <path d="M24,38.85v1.79L30.13,47a5,5,0,0,1,1.4,3.47,3.21,3.21,0,0,0,3.21,3.21h.63A3.61,3.61,0,0,0,39,50V38.85Z" style="fill: #ddad8a"/>
          <g>
            <line x1="24" y1="38.85" x2="24" y2="43.91" style="fill: none;stroke: #333;stroke-linejoin: round;stroke-width: 1.5px"/>
            <line x1="39" y1="38.85" x2="39" y2="43.91" style="fill: none;stroke: #333;stroke-linejoin: round;stroke-width: 1.5px"/>
            <path d="M39,42.52s12.5,2.64,14,2.94A5.38,5.38,0,0,1,57.5,50l.5,2.5A65.82,65.82,0,0,1,31.5,58,65.82,65.82,0,0,1,5,52.46L5.5,50a5.38,5.38,0,0,1,4.5-4.5c1.5-.3,14-3,14-3" style="fill: none;stroke: #333;stroke-linecap: round;stroke-linejoin: round;stroke-width: 1.5px"/>
          </g>
          <g>
            <path d="M57.56,50a5.64,5.64,0,0,0-4.5-4.5c-1.33-.33-4.71-1.16-8.5-2-.73-.16-1.47-.31-2.21-.44a11.5,11.5,0,0,1-21.53,0c-.75.14-1.5.29-2.24.47-3.65.85-7,1.64-8.52,2A5.64,5.64,0,0,0,5.56,50l-.5,2.5A65.25,65.25,0,0,0,31.59,58a65.33,65.33,0,0,0,26.47-5.5Z" style="fill: #b77279"/>
            <path d="M5.31,52.6A66.13,66.13,0,0,0,31.6,58,66.2,66.2,0,0,0,57.82,52.6a6.58,6.58,0,0,0-4.76-3.68c-.32-.08-6.54-1.35-12.66-2.57a11.47,11.47,0,0,1-17.72-.13c-6.1,1.28-12.56,2.67-12.62,2.69A6.62,6.62,0,0,0,5.31,52.6Z" style="fill: #a15152"/>
            <path d="M24.1,42.48c-3.65.85-12.55,2.63-14,3A5.64,5.64,0,0,0,5.57,50l-.5,2.5A65.25,65.25,0,0,0,31.6,58a65.33,65.33,0,0,0,26.47-5.5l-.5-2.5a5.64,5.64,0,0,0-4.5-4.5c-1.33-.33-10.18-2.16-14-3" style="fill: none;stroke: #333;stroke-linejoin: round;stroke-width: 1.5px"/>
            <path d="M57.56,50a5.64,5.64,0,0,0-4.5-4.5c-1-.26-6.56-1.41-10.76-2.3a11.5,11.5,0,0,1-21.41,0c-4.15.89-9.69,2-10.83,2.29A5.64,5.64,0,0,0,5.56,50l-.5,2.5A65.25,65.25,0,0,0,31.59,58a65.33,65.33,0,0,0,26.47-5.5Z" style="fill: none;stroke: #333;stroke-linecap: round;stroke-linejoin: round;stroke-width: 1.5px"/>
          </g>
          <g>
            <path d="M42.48,24.3V22.1c0-6-2.09-12.08-11-12.08s-11,6.13-11,12.08v2.2c-.09,0-3.29,0-2.2,5.49a4.27,4.27,0,0,0,3.29,3.29c0,3.9,1.1,4.39,4.81,8.21C27.85,43.11,29.59,43,31.49,43s3.65.15,5.07-1.67c3.71-3.82,4.81-4.31,4.81-8.21a4.27,4.27,0,0,0,3.29-3.29C45.77,24.3,42.57,24.26,42.48,24.3Z" style="fill: #efc8a5"/>
            <path d="M44.67,29.79c1.1-5.49-2.11-5.52-2.2-5.49V22.1c0-6-2.09-12.08-11-12.08a15.39,15.39,0,0,0-2.92.26V21.36a3.9,3.9,0,0,1-1.27,2.88.45.45,0,0,0,.2.77c1.5.43,2.3.71,3.23.47.31-.08.86.27.86.59v2.51a1.69,1.69,0,0,0,.64,1.4,1.1,1.1,0,0,1-.64,2c-.81,0-1.1-.55-2.2-.55-.65,0-.55.85-.57.82a2.38,2.38,0,0,1,1.1.29,3.38,3.38,0,0,0,1.65.43v3.31A1.91,1.91,0,0,0,32.82,38a1.55,1.55,0,0,1,.94,1.63c0,3-5.43-.3-5.43,3v0a9.89,9.89,0,0,0,3.16.29c1.9,0,3.65.15,5.07-1.67,3.71-3.82,4.81-4.31,4.81-8.21A4.29,4.29,0,0,0,44.67,29.79Z" style="fill: #e6b790"/>
            <path d="M39,33v1.47a1.43,1.43,0,0,1-.35.93L37.5,36.68V36a3,3,0,0,0-3-3h-6a3,3,0,0,0-3,3v.68l-1.15-1.29a1.46,1.46,0,0,1-.35-.94V33a5.07,5.07,0,0,0-2-4.5v4c0,6,2,5.73,4.28,8.75C27.87,43.39,30.23,43,31.5,43s3.62.44,5.22-1.72C39,38.2,41,38.48,41,32.48v-4A5.1,5.1,0,0,0,39,33Zm-3.58,6a1.41,1.41,0,0,1-2.31-.31L33,38.48H30l-.11.23a1.41,1.41,0,0,1-2.31.31L26.5,37.8V36.29a.8.8,0,0,1,.8-.8H30a1.83,1.83,0,0,0,1.5-1,1.83,1.83,0,0,0,1.5,1h2.7a.8.8,0,0,1,.8.8V37.8Z" style="fill: #d3a688"/>
            <path d="M42.48,24.3V22.1c0-6-2.09-12.08-11-12.08s-11,6.13-11,12.08v2.2h0c1.08.95,1.1,1.35,1.1,2.2a1.1,1.1,0,0,0,1.09-1.06V23.31a4.64,4.64,0,0,1,1-3.19,2.31,2.31,0,0,1-1-2.13c0-1.59,1-3.71,3.1-3.71s3.1,1.59,5.69,1.59,3.62-1.59,5.69-1.59,3.1,2.12,3.1,3.71a2.31,2.31,0,0,1-1,2.13,4.64,4.64,0,0,1,1,3.19v2.13a1.09,1.09,0,0,0,1.09,1.06A3.09,3.09,0,0,1,42.48,24.3Z" style="fill: #d3a688"/>
            <path d="M32.84,35a2.83,2.83,0,0,0-1.18.13.61.61,0,0,1-.42,0A2.87,2.87,0,0,0,30.06,35c-.67.1-.74.52-2.09,1.25l1.19.74a2.29,2.29,0,0,0,1.27.41H32.5A2.21,2.21,0,0,0,33.77,37L35,36.3C33.64,35.56,33.51,35.11,32.84,35Z" style="fill: #ddab85"/>
            <path d="M35,36.3c-1,0-1.26-.39-2.24-.39a6.73,6.73,0,0,0-1.29.17,7.52,7.52,0,0,0-1.29-.17c-.94,0-1.15.36-2.21.36" style="fill: none;stroke: #c6916d;stroke-linecap: round;stroke-miterlimit: 10;stroke-width: 0.75px"/>
          </g>
          <path d="M42.48,24.3V22.1c0-6-2.09-12.08-11-12.08s-11,6.13-11,12.08v2.2c-.09,0-3.29,0-2.2,5.49a4.27,4.27,0,0,0,3.29,3.29c0,3.9,1.1,4.39,4.81,8.21C27.85,43.11,29.59,43,31.49,43s3.65.15,5.07-1.67c3.71-3.82,4.81-4.31,4.81-8.21a4.27,4.27,0,0,0,3.29-3.29C45.77,24.3,42.57,24.26,42.48,24.3Z" style="fill: none;stroke: #3a3a3a;stroke-linejoin: round;stroke-width: 1.5px"/>
          <path d="M33,18.08H30a1.78,1.78,0,0,1-1.77-1.62l-.74-8.52A1.78,1.78,0,0,1,29.24,6h4.52a1.78,1.78,0,0,1,1.77,1.93l-.74,8.52A1.78,1.78,0,0,1,33,18.08Z" style="fill: #333"/>
          <ellipse cx="26.99" cy="27.4" rx="0.91" ry="0.46" style="fill: #333"/>
          <ellipse cx="35.87" cy="27.4" rx="0.91" ry="0.46" style="fill: #333"/>
          <circle cx="33.58" cy="31.19" r="0.25" style="fill: #936d58;stroke: #936d58;stroke-miterlimit: 10;stroke-width: 0.5px"/>
          <path d="M33.58,31.19a1.36,1.36,0,1,1-.39,2.2,1.3,1.3,0,0,1-.34-.57" style="fill: none;stroke: #fff;stroke-linecap: round;stroke-miterlimit: 10;stroke-width: 0.5px"/>
          <path d="M29,32.07a2.64,2.64,0,0,1,1.25.32h0a2.58,2.58,0,0,0,2.5,0h0A2.64,2.64,0,0,1,34,32.07" style="fill: none;stroke: #c6916d;stroke-linecap: round;stroke-miterlimit: 10;stroke-width: 0.75px"/>
          <path d="M24,24.75a6,6,0,0,1,1.45-.55A5.58,5.58,0,0,1,27,24.11a9.72,9.72,0,0,1,2.82,1h0a.23.23,0,0,1,.12.3.24.24,0,0,1-.23.14,12.27,12.27,0,0,1-1.48-.26c-.47-.09-.93-.14-1.37-.21a7.3,7.3,0,0,0-2.75.06h0a.22.22,0,0,1-.15-.42Z" style="fill: #e6b790"/>
          <path d="M39,25.17a7.29,7.29,0,0,0-2.75-.06c-.45.07-.9.12-1.37.21a12.27,12.27,0,0,1-1.48.26.22.22,0,0,1-.24-.22.23.23,0,0,1,.14-.23h0a9.72,9.72,0,0,1,2.82-1,6.43,6.43,0,0,1,1.58.09,5.18,5.18,0,0,1,1.45.55.23.23,0,0,1-.17.43Z" style="fill: #efc8a5"/>
        </g>
      </g>
    </g>
  </g>
</svg>
