<svg id="Avatars" xmlns="http://www.w3.org/2000/svg" width="64" height="64" viewBox="0 0 64 64">
  <title>punk-goth-emo-woman-african</title>
  <g>
    <g>
      <path d="M39.73,36.52a4.66,4.66,0,0,0,3.14,1.2" style="fill: none;stroke: #dbb61b;stroke-linecap: round;stroke-miterlimit: 10;stroke-width: 1.04485070705414px"/>
      <path d="M50.5,45,46,44l-7.83-2.61V38.27H26.67v3.14L18.84,44l-4.51,1A4.86,4.86,0,0,0,11,49.63V51.2C14.57,52.71,22.43,57,32.42,57s17.85-4.31,21.42-5.82V49.63A4.87,4.87,0,0,0,50.5,45Z" style="fill: #ab8166"/>
      <path d="M15.86,44.67,14.33,45A4.88,4.88,0,0,0,11,49.63V51.2C14.57,52.71,22.43,57,32.42,57a39.66,39.66,0,0,0,12.67-2.2C28.12,53.57,17.27,45.73,15.86,44.67Z" style="fill: #bcbcbe"/>
      <path d="M34.51,50.75H35a3.26,3.26,0,0,0,3.17-3.23V38.27H26.67V41.1l4.06,4a4.57,4.57,0,0,1,1.17,3,2.57,2.57,0,0,0,2.51,2.65Z" style="fill: #9b7059"/>
      <line x1="26.67" y1="38.27" x2="26.67" y2="43.49" style="fill: none;stroke: #333;stroke-linejoin: round;stroke-width: 1.56727612018585px"/>
      <line x1="38.17" y1="38.27" x2="38.17" y2="43.49" style="fill: none;stroke: #333;stroke-linejoin: round;stroke-width: 1.56727612018585px"/>
      <path d="M26.67,41.41,18.84,44l-4.51,1A4.86,4.86,0,0,0,11,49.63V51.2C14.57,52.71,22.43,57,32.42,57s17.85-4.31,21.42-5.82V49.63A4.87,4.87,0,0,0,50.5,45L46,44l-7.83-2.61" style="fill: none;stroke: #333;stroke-linejoin: round;stroke-width: 1.56727612018585px"/>
      <path d="M25.11,36.52A4.67,4.67,0,0,1,22,37.75" style="fill: none;stroke: #dbb61b;stroke-linecap: round;stroke-miterlimit: 10;stroke-width: 1.04485070705414px"/>
      <path d="M32.42,9c8.4,0,11,5.32,11,11v1.56c1.81,0,2.38,1.78,2.09,4.18-.25,2-1.56,4.7-3.13,4.71v1c0,3.13-2.5,4.77-5.42,7.8-1.92,2-3.24,1.6-4.51,1.6s-2.59.4-4.51-1.6c-2.94-3-5.44-4.64-5.44-7.74v-1c-1.57,0-2.89-2.67-3.14-4.71-.3-2.4.28-4.18,2.09-4.18V20C21.45,14.33,24,9,32.42,9Z" style="fill: #ab8166"/>
      <path d="M43.39,21.52V20c0-5.66-2.57-11-11-11a17.07,17.07,0,0,0-2.86.24V20.1a4.08,4.08,0,0,1-1.33,3,.47.47,0,0,0,.21.8,2.71,2.71,0,0,1,2,2,.5.5,0,0,0,.58.4.55.55,0,0,0,.22-.1,1.81,1.81,0,0,1,.61-.33.52.52,0,0,1,.63.39s0,.07,0,.11v2.15a1.14,1.14,0,0,0,.66,1c.59.33.16,1.46-.66,1.46h0a1.77,1.77,0,0,1-.93-.24c-.77-.39-1.49.4-1.33.71s.35,0,1.13.36a2.56,2.56,0,0,0,1.15.27v3.85a.4.4,0,0,0,.33.39c1.37.32,2.1,2.6-.33,3.1h0a1.3,1.3,0,0,0-1.07,1.26v.21h1.05c1.27,0,2.59.4,4.51-1.6,2.92-3,5.42-4.67,5.42-7.8v-1c1.57,0,2.88-2.67,3.13-4.71C45.77,23.33,45.2,21.52,43.39,21.52Z" style="fill: #a0775c"/>
      <path d="M43.39,21.52V20c0-5.66-2.57-11-11-11-5.26,0-8.24,2.09-9.73,5l.06.09-.47.85a14.19,14.19,0,0,0-.83,5v1.62a2.22,2.22,0,0,0-.8.15v.39c.45,0,1.57.17,1.91,2.4a.24.24,0,0,0,.21.27.25.25,0,0,0,.26-.21h0l1.39-3V19.15A3.67,3.67,0,0,1,25.63,16a27.93,27.93,0,0,1,8.62,3.45c3.36,4.16,5,9.3,7.83,13.69a5,5,0,0,0,.27-1.63v-1c1.57,0,2.88-2.67,3.13-4.71C45.77,23.33,45.2,21.52,43.39,21.52Z" style="fill: #a0775c"/>
      <path d="M43.39,21.52V20c0-5.66-2.57-11-11-11a17.07,17.07,0,0,0-2.86.24v7.92a37,37,0,0,1,4.69,2.29c3.36,4.16,5,9.3,7.83,13.69a5.33,5.33,0,0,0,.3-1.58v-1c1.57,0,2.88-2.67,3.13-4.71C45.77,23.33,45.2,21.52,43.39,21.52Z" style="fill: #9b7059"/>
      <path d="M24.26,24.19a4,4,0,0,1,1.45-.53,5.23,5.23,0,0,1,1.53,0A13.48,13.48,0,0,1,28.7,24a11.24,11.24,0,0,0,1.35.28h0a.54.54,0,0,1,.48.58.53.53,0,0,1-.58.47h-.08a11.51,11.51,0,0,1-1.44-.5,11.88,11.88,0,0,0-1.34-.47,3.09,3.09,0,0,0-2.63.17.18.18,0,0,1-.27,0,.19.19,0,0,1,0-.26Z" style="fill: #333"/>
      <path d="M40.33,24.5a2.15,2.15,0,0,0-1.28-.37,4.52,4.52,0,0,0-1.35.21c-.45.13-.89.3-1.34.47a8.61,8.61,0,0,1-1.46.49.53.53,0,0,1-.63-.4.53.53,0,0,1,.41-.63h.08A8.37,8.37,0,0,0,36.1,24c.47-.11,1-.23,1.46-.3a4.9,4.9,0,0,1,1.53,0,4.15,4.15,0,0,1,1.45.53.19.19,0,0,1,.07.26.2.2,0,0,1-.26.07Z" style="fill: #333"/>
      <circle cx="27.79" cy="26.47" r="0.78" style="fill: #3a3a3a"/>
      <path d="M29.67,26.86c-.6-.34-2.16-2.34-4.18-.34a2.42,2.42,0,0,1-.7-.48A4.31,4.31,0,0,1,28,25.75" style="fill: #3a3a3a;stroke: #333;stroke-linecap: round;stroke-miterlimit: 10;stroke-width: 0.526187598705292px"/>
      <path d="M35.37,26.86c.63-.34,2.16-2.34,4.19-.34a2.2,2.2,0,0,0,.69-.48,4.26,4.26,0,0,0-3.17-.28" style="fill: #3a3a3a;stroke: #333;stroke-linecap: round;stroke-miterlimit: 10;stroke-width: 0.526187598705292px"/>
      <circle cx="37.19" cy="26.47" r="0.78" style="fill: #3a3a3a"/>
      <path d="M30.32,32.06c1,0,1,.53,2.08.53s1.05-.53,2.09-.53" style="fill: none;stroke: #a3775d;stroke-linecap: round;stroke-miterlimit: 10;stroke-width: 0.522425353527069px"/>
      <line x1="32.4" y1="32.43" x2="32.4" y2="33.2" style="fill: none;stroke: #a3775d;stroke-linecap: round;stroke-miterlimit: 10;stroke-width: 0.522425353527069px"/>
      <path d="M30.36,31.52c1.05,0,1.05.52,2.09.52s1-.52,2.09-.52" style="fill: none;stroke: #674848;stroke-linecap: round;stroke-miterlimit: 10;stroke-width: 0.783638060092926px"/>
      <path d="M30.29,36.09a2.28,2.28,0,0,0,1.63.59h1a2.65,2.65,0,0,0,1.77-.63" style="fill: none;stroke: #a3775d;stroke-linecap: round;stroke-miterlimit: 10;stroke-width: 0.522425353527069px"/>
      <line x1="29.32" y1="34.61" x2="28.8" y2="35.66" style="fill: none;stroke: #a3775d;stroke-linecap: round;stroke-miterlimit: 10;stroke-width: 0.522425353527069px"/>
      <line x1="35.59" y1="34.61" x2="36.11" y2="35.66" style="fill: none;stroke: #a3775d;stroke-linecap: round;stroke-miterlimit: 10;stroke-width: 0.522425353527069px"/>
      <path d="M32.42,9c8.4,0,11,5.32,11,11v1.56c1.81,0,2.38,1.78,2.09,4.18-.25,2-1.56,4.7-3.13,4.71v1c0,3.13-2.5,4.77-5.42,7.8-1.92,2-3.24,1.6-4.51,1.6s-2.59.4-4.51-1.6c-2.94-3-5.44-4.64-5.44-7.74v-1c-1.57,0-2.89-2.67-3.14-4.71-.3-2.4.28-4.18,2.09-4.18V20C21.45,14.33,24,9,32.42,9Z" style="fill: none;stroke: #333;stroke-linejoin: round;stroke-width: 1.56727612018585px"/>
      <path d="M42.87,37.75a4.71,4.71,0,0,0,0-9.41" style="fill: none;stroke: #dbb61b;stroke-linecap: round;stroke-miterlimit: 10;stroke-width: 1.04485070705414px"/>
      <path d="M44.44,17.37l3.65,2.09-3.3-5.86A12.54,12.54,0,0,0,41,9.52l-1-.79a12.44,12.44,0,0,0-9.1-2.05h0a12.43,12.43,0,0,0-7.75,4.53L22,12.67l.62.84L20.4,17.37v4.15c.53,0,1.89.2,2.09,3.14l1.57-3.6V18.73a4.57,4.57,0,0,1,1.57-3.45h0c3.3.25,5.71,1.17,9.23,3.09,4.35,5.17,5.72,12.37,10.4,17.29a46.85,46.85,0,0,0,1.07-8.91l1.76.75C47.57,24,46.52,19.74,44.44,17.37Z" style="fill: #444"/>
      <path d="M45.26,35.66a46.85,46.85,0,0,0,1.07-8.91l1.76.75c-.52-3.54-1.57-7.76-3.65-10.13l3.65,2.09-3.3-5.86a12.66,12.66,0,0,0-.72-1.08,14.58,14.58,0,0,0-1.43-1.17l-1.07-.83a12.45,12.45,0,0,0-9.07-2A12.25,12.25,0,0,0,25,13.31l-1.16,1.46.34.57L22,19.2v3.43a3.66,3.66,0,0,1,.29.78,1.72,1.72,0,0,1,.65.25l1.12-2.57V18.73a4.57,4.57,0,0,1,1.57-3.45c3.3.25,5.71,1.17,9.23,3.09C39.21,23.52,40.58,30.74,45.26,35.66Z" style="fill: #333"/>
      <path d="M44.3,32.06a28.73,28.73,0,0,1-1.81-2.69c-.57-.93-1.09-1.88-1.6-2.83-1-1.92-2-3.88-2.82-5.88a.63.63,0,1,1,1.1-.61.37.37,0,0,1,0,.11v.05c.66,2,1.39,4.07,2.21,6.06.41,1,.84,2,1.31,2.95A25.23,25.23,0,0,0,44.3,32.06Z" style="fill: #444"/>
      <path d="M44.58,29.39l-3.87-7.45a.63.63,0,0,1,1.12-.58v.09Z" style="fill: #444"/>
      <path d="M48.09,27.52C38,22.31,37.38,17.06,24.39,15l2.28-2.73,17.14,6Z" style="fill: #333"/>
      <path d="M44.69,22a22.7,22.7,0,0,0-3.44-4.26A19.34,19.34,0,0,0,39.18,16a18.46,18.46,0,0,0-2.26-1.45h0a.52.52,0,0,1,.52-.91h0a19.62,19.62,0,0,1,2.22,1.75,21,21,0,0,1,2,2A22.86,22.86,0,0,1,44.69,22Z" style="fill: #444"/>
      <path d="M48.09,19.46c-.8-1.17-1.56-2.38-2.33-3.57l-1.15-1.8a13.19,13.19,0,0,0-1.19-1.69,13.58,13.58,0,0,0-3.06-2.7A13.18,13.18,0,0,0,36.73,8a12.74,12.74,0,0,0-7.89.23,12.32,12.32,0,0,0-3.49,1.94,15.79,15.79,0,0,0-2.83,3v-.81l.59.85h0a.61.61,0,0,1,0,.66c-.79,1.27-1.55,2.54-2.34,3.79l.06-.24c0,1.4-.12,2.79-.21,4.18l-.28-.27a1.89,1.89,0,0,1,1.11.41,2.35,2.35,0,0,1,.65.91,5.33,5.33,0,0,1,.33,2.09,6.86,6.86,0,0,0-.22-1,4.66,4.66,0,0,0-.38-.93,1.55,1.55,0,0,0-1.49-.91.25.25,0,0,1-.27-.22h0c-.09-1.39-.16-2.78-.21-4.18a.34.34,0,0,1,0-.2h0c.68-1.32,1.39-2.62,2.08-3.94V14l-.64-.82a.66.66,0,0,1,0-.78h0a17.31,17.31,0,0,1,3-3.28,13.79,13.79,0,0,1,16.8-.48,13.39,13.39,0,0,1,3.1,3.14,28.67,28.67,0,0,1,2,3.8C46.87,16.89,47.5,18.16,48.09,19.46Z" style="fill: #333"/>
      <path d="M22,37.75a4.71,4.71,0,0,1,0-9.41" style="fill: none;stroke: #dbb61b;stroke-linecap: round;stroke-miterlimit: 10;stroke-width: 1.04485070705414px"/>
      <path d="M15.7,44.52s11.18,9,29.4,10.3" style="fill: none;stroke: #333;stroke-linejoin: round;stroke-width: 1.56727612018585px"/>
      <path d="M33.36,34.92a7.06,7.06,0,0,0-.91.21,6.77,6.77,0,0,0-.89-.21c-1.42,0-1.17.21-2.25.21l1,1a2.29,2.29,0,0,0,1.62.59h1a2.57,2.57,0,0,0,1.74-.63l.9-.94C34.49,35.12,34.81,34.92,33.36,34.92Z" style="fill: #444"/>
      <path d="M32.45,35.14a5.74,5.74,0,0,1,.91-.22c1.45,0,1.13.2,2.22.21-1.47-.53-1.48-1.58-2.31-1.25a1.92,1.92,0,0,1-.82.21c-.21,0-.23,0-.7-.21-.84-.33-.89.69-2.44,1.25,1.08,0,.83-.21,2.25-.21A5.51,5.51,0,0,1,32.45,35.14Z" style="fill: #444"/>
      <path d="M35.58,35.13c-1,0-1.56-.52-3.13,0h0c-1.55-.53-2.08,0-3.13,0" style="fill: none;stroke: #333;stroke-linecap: round;stroke-miterlimit: 10;stroke-width: 0.522425353527069px"/>
      <line x1="19.62" y1="47.11" x2="19.62" y2="43.05" style="fill: none;stroke: #333;stroke-linecap: round;stroke-linejoin: round;stroke-width: 1.04485070705414px"/>
      <line x1="45.22" y1="54.82" x2="45.22" y2="43.05" style="fill: none;stroke: #333;stroke-linecap: round;stroke-linejoin: round;stroke-width: 1.04485070705414px"/>
      <path d="M34.93,18a15.94,15.94,0,0,1,3.12,4.22c.82,1.53,1.48,3.12,2.15,4.68a42.8,42.8,0,0,0,2.2,4.58,20.53,20.53,0,0,0,3,4,.22.22,0,0,1,0,.3h0a.23.23,0,0,1-.29,0,21.23,21.23,0,0,1-3.19-4.06,44.09,44.09,0,0,1-2.37-4.58c-.72-1.55-1.41-3.1-2.25-4.55a15.33,15.33,0,0,0-3-3.89.5.5,0,0,1,0-.71h0A.51.51,0,0,1,35,18Z" style="fill: #333"/>
    </g>
    <path d="M43.16,13.52a14.59,14.59,0,0,0-3.52-2.1,19.52,19.52,0,0,0-3.89-1.22,20.7,20.7,0,0,0-4-.39,19,19,0,0,0-2,.07c-.66.07-1.34.18-2,.26h-.06a.63.63,0,1,1-.2-1.24h.05c.71,0,1.41-.09,2.11-.1a16.54,16.54,0,0,1,2.11.08,21.51,21.51,0,0,1,4.14.73,18.6,18.6,0,0,1,3.88,1.55A15,15,0,0,1,43.16,13.52Z" style="fill: #444"/>
    <path d="M40.25,13.31a22.12,22.12,0,0,0-3.54-1.14,29.62,29.62,0,0,0-7.33-.78,32,32,0,0,0-3.66.28h0a.63.63,0,0,1-.15-1.26h.05a34.41,34.41,0,0,1,3.8,0,29.6,29.6,0,0,1,3.75.49,28.32,28.32,0,0,1,3.65.94A21.6,21.6,0,0,1,40.25,13.31Z" style="fill: #444"/>
    <path d="M38.78,18a26.23,26.23,0,0,0-6.89-3.21A20.89,20.89,0,0,0,28.21,14a17.6,17.6,0,0,0-3.7,0h0a.62.62,0,0,1-.69-.54v0a.64.64,0,0,1,.57-.69h0a18.52,18.52,0,0,1,4,.32,20.28,20.28,0,0,1,3.74,1.09A26.32,26.32,0,0,1,38.78,18Z" style="fill: #444"/>
    <path d="M31.09,12.78a24,24,0,0,1,9.14,1.74,26.7,26.7,0,0,1,4.11,2.22,43.66,43.66,0,0,1,3.75,2.72c-2.9-1.13-5.54-2.72-8.32-3.85A87.92,87.92,0,0,0,31.09,12.78Z" style="fill: #444"/>
    <path d="M24.39,15a29,29,0,0,1,6.72,1.23,22.91,22.91,0,0,1,6.14,3.11c1.87,1.33,3.57,2.82,5.33,4.21s3.6,2.68,5.51,3.91a32.5,32.5,0,0,1-6-3.25c-1.89-1.28-3.63-2.74-5.45-4a27.89,27.89,0,0,0-5.82-3.19A55.71,55.71,0,0,0,24.39,15Z" style="fill: #444"/>
  </g>
</svg>
