<svg xmlns="http://www.w3.org/2000/svg" width="64" height="64" viewBox="0 0 64 64">
  <title>punk-white-male</title>
  <g id="punk-white-male">
    <g id="punk-white-male-2" data-name="punk-white-male">
      <g id="Icons">
        <g>
          <path d="M57.56,49.33a5.64,5.64,0,0,0-4.5-4.5c-1.33-.33-4.71-1.16-8.5-2-1.84-.41-3.7-.72-5.56-1V38.2H24v3.67c-1.82.24-3.63.54-5.42,1-3.65.85-7,1.64-8.52,2a5.64,5.64,0,0,0-4.5,4.5l-.5,2.5a65.25,65.25,0,0,0,26.53,5.5,65.33,65.33,0,0,0,26.47-5.5Z" style="fill: #e5c2ba"/>
          <path d="M24,38.2V40l6.11,6.31a5,5,0,0,1,1.4,3.47A3.21,3.21,0,0,0,34.74,53h.63A3.61,3.61,0,0,0,39,49.31V38.2Z" style="fill: #d8b3ad"/>
          <g>
            <line x1="24" y1="38.2" x2="24" y2="43.26" style="fill: none;stroke: #333;stroke-linejoin: round;stroke-width: 1.5px"/>
            <line x1="39" y1="38.2" x2="39" y2="43.26" style="fill: none;stroke: #333;stroke-linejoin: round;stroke-width: 1.5px"/>
            <path d="M39,41.88s12.5,2.64,14,2.94a5.38,5.38,0,0,1,4.5,4.5l.5,2.5a65.82,65.82,0,0,1-26.5,5.5A65.72,65.72,0,0,1,5,51.81l.5-2.5a5.38,5.38,0,0,1,4.5-4.5c1.5-.3,14-3,14-3" style="fill: none;stroke: #333;stroke-linecap: round;stroke-linejoin: round;stroke-width: 1.5px"/>
          </g>
          <g>
            <path d="M57.56,49.33a5.64,5.64,0,0,0-4.5-4.5c-1.33-.33-4.71-1.16-8.5-2-.73-.16-1.47-.31-2.21-.44a11.5,11.5,0,0,1-21.53,0c-.75.14-1.5.29-2.24.47-3.65.85-7,1.64-8.52,2a5.64,5.64,0,0,0-4.5,4.5l-.5,2.5a65.25,65.25,0,0,0,26.53,5.5,65.33,65.33,0,0,0,26.47-5.5Z" style="fill: #b77279"/>
            <path d="M5.31,52A66.13,66.13,0,0,0,31.6,57.33,66.2,66.2,0,0,0,57.82,52a6.58,6.58,0,0,0-4.76-3.68c-.32-.08-6.54-1.35-12.66-2.57a11.47,11.47,0,0,1-17.72-.13c-6.1,1.28-12.56,2.67-12.62,2.69A6.62,6.62,0,0,0,5.31,52Z" style="fill: #a15152"/>
            <path d="M24.1,41.83c-3.65.85-12.55,2.63-14,3a5.64,5.64,0,0,0-4.5,4.5l-.5,2.5a65.25,65.25,0,0,0,26.53,5.5,65.33,65.33,0,0,0,26.47-5.5l-.5-2.5a5.64,5.64,0,0,0-4.5-4.5c-1.33-.33-10.18-2.16-14-3" style="fill: none;stroke: #333;stroke-linejoin: round;stroke-width: 1.5px"/>
            <path d="M57.56,49.33a5.64,5.64,0,0,0-4.5-4.5c-1-.26-6.56-1.41-10.76-2.3a11.5,11.5,0,0,1-21.41,0c-4.15.89-9.69,2-10.83,2.29a5.64,5.64,0,0,0-4.5,4.5l-.5,2.5a65.25,65.25,0,0,0,26.53,5.5,65.33,65.33,0,0,0,26.47-5.5Z" style="fill: none;stroke: #333;stroke-linecap: round;stroke-linejoin: round;stroke-width: 1.5px"/>
          </g>
          <g>
            <path d="M42.48,23.65v-2.2c0-5.95-2.09-12.08-11-12.08s-11,6.13-11,12.08v2.2c-.09,0-3.29,0-2.2,5.49a4.27,4.27,0,0,0,3.29,3.29c0,3.9,1.1,4.39,4.81,8.21,1.43,1.82,3.17,1.67,5.07,1.67s3.65.15,5.07-1.67c3.71-3.82,4.81-4.31,4.81-8.21a4.27,4.27,0,0,0,3.29-3.29C45.77,23.65,42.57,23.62,42.48,23.65Z" style="fill: #eed1c9"/>
            <path d="M44.67,29.14c1.1-5.49-2.11-5.52-2.2-5.49v-2.2c0-5.95-2.09-12.08-11-12.08a15.39,15.39,0,0,0-2.92.26V21.12A3.9,3.9,0,0,1,27.3,24a.45.45,0,0,0,.2.77c1.5.43,2.3.71,3.23.47.31-.08.86.27.86.59v2.09a1.69,1.69,0,0,0,.64,1.4,1.1,1.1,0,0,1-.64,2c-.81,0-1.1-.55-2.2-.55-.65,0-.55.85-.57.82a2.38,2.38,0,0,1,1.1.29,3.38,3.38,0,0,0,1.65.43v3.31a1.91,1.91,0,0,0,1.25,1.76A1.55,1.55,0,0,1,33.76,39c0,3-5.43-.3-5.43,3v0a9.89,9.89,0,0,0,3.16.29c1.9,0,3.65.15,5.07-1.67,3.71-3.82,4.81-4.31,4.81-8.21A4.27,4.27,0,0,0,44.67,29.14Z" style="fill: #e5c2ba"/>
            <path d="M24,24.4a6,6,0,0,1,1.45-.55A5.58,5.58,0,0,1,27,23.76a9.72,9.72,0,0,1,2.82,1h0a.23.23,0,0,1,.12.3.24.24,0,0,1-.23.14A12.27,12.27,0,0,1,28.23,25c-.47-.09-.93-.14-1.37-.21a7.3,7.3,0,0,0-2.75.06h0a.24.24,0,0,1-.27-.18A.23.23,0,0,1,24,24.4Z" style="fill: #e5c2ba"/>
            <path d="M38.89,24.83a7.29,7.29,0,0,0-2.75-.06c-.45.07-.9.12-1.37.21a12.27,12.27,0,0,1-1.48.26.22.22,0,0,1-.24-.22.23.23,0,0,1,.14-.23h0a9.72,9.72,0,0,1,2.82-1,6.43,6.43,0,0,1,1.58.09,5.18,5.18,0,0,1,1.45.55.23.23,0,0,1-.17.43Z" style="fill: #eed1c9"/>
            <path d="M42.48,23.65v-2.2c0-5.95-2.09-12.08-11-12.08s-11,6.13-11,12.08v2.2h0c1.08,1,1.1,1.35,1.1,2.2a1.1,1.1,0,0,0,1.09-1.06V22.66a4.64,4.64,0,0,1,1-3.19,2.31,2.31,0,0,1-1-2.13c0-1.59,1-3.71,3.1-3.71s3.1,1.59,5.69,1.59,3.62-1.59,5.69-1.59,3.1,2.12,3.1,3.71a2.31,2.31,0,0,1-1,2.13,4.64,4.64,0,0,1,1,3.19v2.13a1.09,1.09,0,0,0,1.09,1.06A3.09,3.09,0,0,1,42.48,23.65Z" style="fill: #ccaba8"/>
            <path d="M32.84,34.36a2.83,2.83,0,0,0-1.18.13.61.61,0,0,1-.42,0,2.87,2.87,0,0,0-1.18-.13c-.67.1-.74.52-2.09,1.25l1.19.73a2.29,2.29,0,0,0,1.27.41H32.5a2.21,2.21,0,0,0,1.27-.41l1.23-.7C33.64,34.91,33.51,34.46,32.84,34.36Z" style="fill: #d6b3b0"/>
            <path d="M35,35.65c-1,0-1.26-.39-2.24-.39a6.73,6.73,0,0,0-1.29.17,7.52,7.52,0,0,0-1.29-.17c-.94,0-1.15.36-2.21.36" style="fill: none;stroke: #af8582;stroke-linecap: round;stroke-miterlimit: 10;stroke-width: 0.600000023841858px"/>
            <path d="M39,32.34v1.47a1.43,1.43,0,0,1-.35.93L37.5,36v-.68a3,3,0,0,0-3-3h-6a3,3,0,0,0-3,3V36l-1.15-1.29A1.46,1.46,0,0,1,24,33.8V32.33a5.07,5.07,0,0,0-2-4.5v4c0,6,2,5.73,4.28,8.75,1.59,2.16,3.95,1.74,5.22,1.72s3.62.44,5.22-1.72C39,37.55,41,37.83,41,31.83v-4A5.1,5.1,0,0,0,39,32.34Zm-3.58,6a1.41,1.41,0,0,1-2.31-.31L33,37.83H30l-.11.23a1.41,1.41,0,0,1-2.31.31L26.5,37.15V35.64a.8.8,0,0,1,.8-.8H30a1.83,1.83,0,0,0,1.5-1,1.83,1.83,0,0,0,1.5,1h2.7a.8.8,0,0,1,.8.8v1.51Z" style="fill: #ccaba8"/>
            <circle cx="27.02" cy="26.77" r="0.71" style="fill: #333"/>
            <circle cx="35.98" cy="26.77" r="0.71" style="fill: #333"/>
          </g>
          <path d="M42.48,23.65v-2.2c0-5.95-2.09-12.08-11-12.08s-11,6.13-11,12.08v2.2c-.09,0-3.29,0-2.2,5.49a4.27,4.27,0,0,0,3.29,3.29c0,3.9,1.1,4.39,4.81,8.21,1.43,1.82,3.17,1.67,5.07,1.67s3.65.15,5.07-1.67c3.71-3.82,4.81-4.31,4.81-8.21a4.27,4.27,0,0,0,3.29-3.29C45.77,23.65,42.57,23.62,42.48,23.65Z" style="fill: none;stroke: #3a3a3a;stroke-linejoin: round;stroke-width: 1.5px"/>
          <path d="M32.92,18.08h-3a1.78,1.78,0,0,1-1.77-1.62l-.74-8.52A1.78,1.78,0,0,1,29.14,6h4.52a1.78,1.78,0,0,1,1.77,1.93l-.74,8.52A1.78,1.78,0,0,1,32.92,18.08Z" style="fill: #333"/>
          <circle cx="33.58" cy="30.54" r="0.25" style="fill: #936d58;stroke: #936d58;stroke-miterlimit: 10;stroke-width: 0.5px"/>
          <path d="M33.58,30.54a1.36,1.36,0,1,1-.39,2.2,1.3,1.3,0,0,1-.34-.57" style="fill: none;stroke: #eee;stroke-linecap: round;stroke-miterlimit: 10;stroke-width: 0.5px"/>
          <path d="M29,31.43a2.64,2.64,0,0,1,1.25.32h0a2.58,2.58,0,0,0,2.5,0h0A2.64,2.64,0,0,1,34,31.43" style="fill: none;stroke: #af8582;stroke-linecap: round;stroke-miterlimit: 10;stroke-width: 0.75px"/>
        </g>
      </g>
    </g>
  </g>
</svg>
