<svg id="Avatars" xmlns="http://www.w3.org/2000/svg" width="64" height="64" viewBox="0 0 64 64">
  <title>punk-girl-nosering-tanktop</title>
  <g>
    <g>
      <g>
        <path d="M56.41,51.05a4,4,0,0,0-2.84-3.19l-13.17-2A2.81,2.81,0,0,1,38,43.13V38.6H26v4.53a2.81,2.81,0,0,1-2.4,2.78l-13.17,2A4,4,0,0,0,7.58,51.1L7,54.55a61.54,61.54,0,0,0,25,5,61.7,61.7,0,0,0,25-5Z" style="fill: #fbd3ca"/>
        <path d="M41.39,51.79c.93-.77,3.3-3,5.3-5l-6.29-1A2.81,2.81,0,0,1,38,43.13V38.6H26v3.85l9.07,9A4.68,4.68,0,0,0,41.39,51.79Z" style="fill: #e8bfba"/>
        <path d="M48.39,57.34v-.2c-3-1.83-3.5-7.65-3.57-10.56V47c0,5-5,9.06-11.06,9.06h-3.5C24.15,56.07,19.19,52,19.19,47v-.42c-.08,3-.63,8.75-3.56,10.55l.16.24A61.2,61.2,0,0,0,32,59.55,61.73,61.73,0,0,0,48.39,57.34Z" style="fill: #333;stroke: #333;stroke-linecap: round;stroke-linejoin: round;stroke-width: 1.5px"/>
        <path d="M26,39.6v3.53a2.81,2.81,0,0,1-2.4,2.78l-13.17,2A4,4,0,0,0,7.58,51.1L7,54.55a61.54,61.54,0,0,0,25,5,61.7,61.7,0,0,0,25-5l-.59-3.5a4,4,0,0,0-2.84-3.19l-13.17-2A2.81,2.81,0,0,1,38,43.13V39.6" style="fill: none;stroke: #333;stroke-linejoin: round;stroke-width: 1.5px"/>
      </g>
      <path d="M31.94,11.52c8.48,0,11.07,5.33,11.07,11V24.1c1.83,0,2.25,1.91,2,4.33-.25,2-1,4.57-3,4.63v1.06c0,3.16-2.33,4.72-5.27,7.78-1.94,2-3.46,1.58-4.74,1.58s-2.81.44-4.75-1.58C24.31,38.84,22,37.28,22,34.12V33.06c-2-.06-2.75-2.58-3-4.63-.3-2.42.13-4.33,2-4.33V22.55C20.88,16.85,23.46,11.52,31.94,11.52Z" style="fill: #edccc3"/>
      <path d="M31.94,11.52c8.48,0,11.07,5.33,11.07,11V24.1c1.83,0,2.25,1.91,2,4.33-.25,2-1,4.57-3,4.63v1.06c0,3.16-2.33,4.72-5.27,7.78-1.94,2-3.46,1.58-4.74,1.58s-2.81.44-4.75-1.58C24.31,38.84,22,37.28,22,34.12V33.06c-2-.06-2.75-2.58-3-4.63-.3-2.42.13-4.33,2-4.33V22.55C20.88,16.85,23.46,11.52,31.94,11.52Z" style="fill: none;stroke: #3a3a3a;stroke-linejoin: round;stroke-width: 1.58080959320068px"/>
      <path d="M43,24.13V22.55c0-5.7-2.59-11-11.07-11a17.15,17.15,0,0,0-2.86.23v11a4.09,4.09,0,0,1-1.34,3,.47.47,0,0,0,0,.66.44.44,0,0,0,.25.15,2.71,2.71,0,0,1,2,2,.5.5,0,0,0,.58.4.55.55,0,0,0,.22-.1,1.76,1.76,0,0,1,.62-.33.51.51,0,0,1,.62.36.68.68,0,0,1,0,.14v2.08a1.18,1.18,0,0,0,.65,1c.6.33.17,1.47-.65,1.47h0a1.74,1.74,0,0,1-.94-.24c-.77-.39-1.49.41-1.33.71s.35,0,1.13.36a2.61,2.61,0,0,0,1.16.28v3.85a.41.41,0,0,0,.32.4c1.38.32,2.11,2.61-.32,3.11h0A1.3,1.3,0,0,0,31,43.34v.22H32c1.28,0,2.8.44,4.74-1.58C39.7,38.92,42,37.36,42,34.2V33.09c2-.06,2.75-2.58,3-4.63C45.26,26,44.84,24.13,43,24.13Z" style="fill: #e5c2ba"/>
      <path d="M31.94,11.52c8.48,0,11.07,5.33,11.07,11V24.1c1.83,0,2.25,1.91,2,4.33-.25,2-1,4.57-3,4.63v1.06c0,3.16-2.33,4.72-5.27,7.78-1.94,2-3.46,1.58-4.74,1.58s-2.81.44-4.75-1.58C24.31,38.84,22,37.28,22,34.12V33.06c-2-.06-2.75-2.58-3-4.63-.3-2.42.13-4.33,2-4.33V22.55C20.88,16.85,23.46,11.52,31.94,11.52Z" style="fill: none;stroke: #3a3a3a;stroke-linejoin: round;stroke-width: 1.58080959320068px"/>
      <circle cx="27.3" cy="29.05" r="0.75" style="fill: #3a3a3a"/>
      <path d="M24,26.74c-1,.62-1.09,2.05.31,2.14.52,0,2.12-1.16,3.17-.65a10.8,10.8,0,0,1,1.69,1s1.24-1.08.25-1.84C28,26.6,25.8,25.61,24,26.74Z" style="fill: #1aa4e8"/>
      <path d="M40,26.74c1,.62,1.09,2.05-.31,2.14-.52,0-2.12-1.16-3.17-.65a10.8,10.8,0,0,0-1.69,1s-1.24-1.08-.25-1.84C36,26.6,38.22,25.61,40,26.74Z" style="fill: #1aa4e8"/>
      <path d="M29.19,29.44c-.61-.35-2.17-2.36-4.19-.35a2.24,2.24,0,0,1-.7-.48,4.33,4.33,0,0,1,3.16-.29" style="fill: #3a3a3a;stroke: #333;stroke-linecap: round;stroke-miterlimit: 10;stroke-width: 0.527780652046204px"/>
      <path d="M34.91,29.44c.6-.35,2.16-2.36,4.19-.35a2.42,2.42,0,0,0,.7-.48,4.33,4.33,0,0,0-3.18-.29" style="fill: #3a3a3a;stroke: #333;stroke-linecap: round;stroke-miterlimit: 10;stroke-width: 0.527780652046204px"/>
      <circle cx="36.73" cy="29.05" r="0.75" style="fill: #3a3a3a"/>
      <path d="M32,34.66a2.14,2.14,0,0,1-1.09-.26,1.16,1.16,0,1,0,2.25.38,1.1,1.1,0,0,0-.08-.4A1.93,1.93,0,0,1,32,34.66Z" style="fill: none;stroke: #dbb61b;stroke-miterlimit: 10;stroke-width: 0.5px"/>
      <path d="M29.93,34.14c1,0,1,.52,2.1.52s1-.52,2.09-.52" style="fill: none;stroke: #ba8d86;stroke-linecap: round;stroke-miterlimit: 10;stroke-width: 0.786010503768921px"/>
      <line x1="28.83" y1="37.22" x2="28.31" y2="38.27" style="fill: none;stroke: #d8b5af;stroke-linecap: round;stroke-miterlimit: 10;stroke-width: 0.524007022380829px"/>
      <line x1="35.12" y1="37.22" x2="35.65" y2="38.27" style="fill: none;stroke: #d8b5af;stroke-linecap: round;stroke-miterlimit: 10;stroke-width: 0.524007022380829px"/>
      <path d="M32.8,36.48a1.92,1.92,0,0,1-.82.21c-.21,0-.23,0-.71-.21-.84-.33-.89.69-2.44,1.26l1,1a2.33,2.33,0,0,0,1.63.59h1a2.55,2.55,0,0,0,1.75-.63l.9-.94C33.64,37.2,33.63,36.15,32.8,36.48Z" style="fill: #444"/>
      <path d="M35.11,37.74c-1,0-1.56-.52-3.13,0h0c-1.55-.52-2.08,0-3.13,0" style="fill: none;stroke: #333;stroke-linecap: round;stroke-miterlimit: 10;stroke-width: 0.524007022380829px"/>
      <path d="M23.89,26.59a4.12,4.12,0,0,1,1.44-.54,5.22,5.22,0,0,1,1.53,0c.51.07,1,.19,1.47.3a8.34,8.34,0,0,0,1.35.28h0a.53.53,0,0,1-.11,1.06h-.07a9.66,9.66,0,0,1-1.44-.51c-.45-.17-.89-.34-1.34-.47a3.12,3.12,0,0,0-2.64.18.19.19,0,0,1-.22-.3Z" style="fill: #333"/>
      <path d="M40,26.9a2.15,2.15,0,0,0-1.28-.37,4.74,4.74,0,0,0-1.35.2c-.45.13-.89.3-1.34.48a9.59,9.59,0,0,1-1.46.49.53.53,0,1,1-.22-1h.08a9.52,9.52,0,0,0,1.34-.26,13.48,13.48,0,0,1,1.46-.31,5.23,5.23,0,0,1,1.53,0,3.91,3.91,0,0,1,1.44.53.17.17,0,0,1,.07.25.18.18,0,0,1-.25.07Z" style="fill: #333"/>
      <path d="M46.12,13.85C45,10,39.94,8.42,39.94,8.42c1.68-.82,5,.37,5,.37S41.75,4,31.92,4c-9.43,0-11,7.08-9.54,9.4h0A6.28,6.28,0,0,1,19.25,12c-.08,2.89,1.5,3.77,1.63,3.84a2.5,2.5,0,0,0-2.16.69,3.08,3.08,0,0,1,1.53.88,2,2,0,0,0-1.83,1.8c.56-.06,1.5,0,1.52.42a5.23,5.23,0,0,1,0,1.12,7.66,7.66,0,0,0,1.38,4.59,9.57,9.57,0,0,1,1.42,4,45.44,45.44,0,0,1,.09-4.67A13.62,13.62,0,0,1,24,21.23a4.43,4.43,0,0,0,.31-3.16c-.07-.15,6.09-4.86,10.5,0,3.64,4-.76,10-.76,10,5.26-2.16,6.13-6.29,6.13-6.29,1.31,2.35.54,5.83.54,5.83,8.15-5.08,2.46-14.27,2.46-14.27C44.44,12.85,46.12,13.85,46.12,13.85Z" style="fill: #333;stroke: #333;stroke-linejoin: round"/>
      <path d="M39.69,18.11c.4,1-.08,2.24.3,3.16a13.62,13.62,0,0,1,1.19,3.44,40.4,40.4,0,0,1,.09,4.67,9.27,9.27,0,0,1,1.43-4,7.74,7.74,0,0,0,1.37-4.59,10.51,10.51,0,0,1,.06-1.12Z" style="fill: #333;stroke: #333;stroke-miterlimit: 10"/>
    </g>
    <path d="M19.16,12.2a4.58,4.58,0,0,0,0,1.81,2.14,2.14,0,0,0,.85,1.29,4.56,4.56,0,0,0,1.53.75l.93.2c.32,0,.64.08,1,.13h0a.28.28,0,0,1,.24.33.3.3,0,0,1-.24.24l-1,.13c-.35,0-.71,0-1.07,0a4.08,4.08,0,0,1-2.15-.79,3.17,3.17,0,0,1-1.06-2.13A4.22,4.22,0,0,1,18.63,12a.29.29,0,0,1,.38-.13.29.29,0,0,1,.15.3Z" style="fill: #5b5b5b"/>
    <path d="M28.54,10.85a6.73,6.73,0,0,1,2.57-1.3A10.53,10.53,0,0,1,34,9.17a8.49,8.49,0,0,1,2.82.62,9.69,9.69,0,0,1,2.45,1.44.35.35,0,0,1,.05.49.36.36,0,0,1-.4.1h0A14.1,14.1,0,0,0,36.41,11a15.35,15.35,0,0,0-2.51-.3,11.27,11.27,0,0,0-2.53.06,8.15,8.15,0,0,0-2.45.66h0a.34.34,0,0,1-.45-.17A.33.33,0,0,1,28.54,10.85Z" style="fill: #5b5b5b"/>
    <path d="M26.9,14.91a5.47,5.47,0,0,1,2.93-1.62,10.08,10.08,0,0,1,3.29-.21A8.62,8.62,0,0,1,39,16.16a8.27,8.27,0,0,1,1.52,3A11.72,11.72,0,0,1,41,22.41a21.55,21.55,0,0,1-.89,6.32.34.34,0,0,1-.42.23.35.35,0,0,1-.25-.38,23.64,23.64,0,0,0,.32-6.09,10.26,10.26,0,0,0-1.94-5.4A7.45,7.45,0,0,0,33,14.3a9,9,0,0,0-2.93,0,4.7,4.7,0,0,0-2.6,1.08l0,0a.36.36,0,0,1-.49,0A.35.35,0,0,1,26.9,14.91Z" style="fill: #5b5b5b"/>
    <path d="M28.62,16a5.78,5.78,0,0,1,4.95.25,6.09,6.09,0,0,1,2.89,4.22,8.45,8.45,0,0,1-.86,4.93,16.18,16.18,0,0,1-2.71,4,.34.34,0,0,1-.55-.4v0a19.12,19.12,0,0,0,2.1-4A9,9,0,0,0,35,20.71a4.9,4.9,0,0,0-2-3.42,5.22,5.22,0,0,0-4.09-.65h0a.34.34,0,0,1-.41-.25A.34.34,0,0,1,28.62,16Z" style="fill: #5b5b5b"/>
    <path d="M23.16,13.24a9.36,9.36,0,0,1,2-4.74,9.87,9.87,0,0,1,4.32-3A11.74,11.74,0,0,1,34.64,5a17,17,0,0,1,4.9,1.28.34.34,0,0,1,.18.45.35.35,0,0,1-.4.2h0a19.47,19.47,0,0,0-4.75-.69A14.41,14.41,0,0,0,30,7a9.11,9.11,0,0,0-3.88,2.34,9.45,9.45,0,0,0-2.26,4.06.34.34,0,0,1-.67-.13Z" style="fill: #5b5b5b"/>
    <path d="M25.21,18.11a10.93,10.93,0,0,1,0,3,6.14,6.14,0,0,1-.49,1.52c-.22.46-.4.86-.55,1.26a15,15,0,0,0-.67,2.6c-.16.92-.26,1.87-.4,2.83h0a.34.34,0,0,1-.39.29.34.34,0,0,1-.29-.3,19.24,19.24,0,0,1-.16-2.95,8.39,8.39,0,0,1,.5-3A11.87,11.87,0,0,1,23.46,22,4.83,4.83,0,0,0,24,20.83a15.07,15.07,0,0,0,.52-2.72h0a.34.34,0,0,1,.39-.29A.35.35,0,0,1,25.21,18.11Z" style="fill: #5b5b5b"/>
  </g>
</svg>
