<svg xmlns="http://www.w3.org/2000/svg" width="64" height="64" viewBox="0 0 64 64">
  <title>young-hippies-black-female</title>
  <g id="young-hippies-black-female">
    <g id="young-hippies-black-female-2" data-name="young-hippies-black-female">
      <g id="Icons">
        <g>
          <g>
            <path d="M55.4,53a4.8,4.8,0,0,0-3.65-4.17C48.29,47.93,44,47,38.63,46V40.31H26.29V46c-5.49,1-9.7,2.07-13.12,2.78C11,49.23,10,50.8,9.52,53L9,55.05a54.05,54.05,0,0,0,23.46,5.21,54.05,54.05,0,0,0,23.46-5.21Z" style="fill: #ac8164"/>
            <path d="M55.4,53c-.43-2.15-1.52-3.67-3.65-4.17-3-.71-6.56-1.57-10.94-2.34h0A13.32,13.32,0,0,1,32.46,60a13.35,13.35,0,0,1-8.37-13.55h0c-4.27.91-7.74,1.61-10.92,2.35-2.14.5-3.22,2-3.65,4.17L9,55.05a54.05,54.05,0,0,0,23.46,5.21,54.05,54.05,0,0,0,23.46-5.21Z" style="fill: #bed5fc"/>
            <path d="M55.48,53.28a4.63,4.63,0,0,0-2.87-1.88,111.74,111.74,0,0,0-11.87-2.56A13.48,13.48,0,0,1,32.46,60a13.47,13.47,0,0,1-8.28-11.15,111.74,111.74,0,0,0-11.87,2.56,4.67,4.67,0,0,0-2.87,1.88L9,55.05a54.05,54.05,0,0,0,23.46,5.21,54.05,54.05,0,0,0,23.46-5.21Z" style="fill: #a9c6ff"/>
            <path d="M26.29,46s-7.7,1.58-13.12,2.78C11,49.27,10,50.81,9.52,53L9,55.05a54.05,54.05,0,0,0,23.46,5.21,54.05,54.05,0,0,0,23.46-5.21L55.4,53a4.8,4.8,0,0,0-3.65-4.17C47.4,47.7,38.65,45.92,38.63,46" style="fill: none;stroke: #333;stroke-linejoin: round;stroke-width: 1.5px"/>
            <path d="M26.29,40.31V41.5l5,5.18a4.07,4.07,0,0,1,1.15,2.85,2.63,2.63,0,0,0,2.63,2.63h.52a3,3,0,0,0,3-3V40.3H26.29Z" style="fill: #a0775c"/>
            <g>
              <path d="M24.09,46.45A13.36,13.36,0,0,0,32.46,60a13.32,13.32,0,0,0,8.35-13.54" style="fill: none;stroke: #333;stroke-linejoin: round;stroke-width: 1.5px"/>
              <polyline points="26.29 48.27 26.29 40.32 38.63 40.32 38.63 48.27" style="fill: none;stroke: #333;stroke-linecap: round;stroke-linejoin: round;stroke-width: 1.5px"/>
            </g>
            <polygon points="26.49 32.11 21.51 25.33 18 60.82 26.29 60.82 26.49 32.11" style="fill: #a8c2ff"/>
            <path d="M26.29,32.05l-2.21-3.11c-.73.44-1.44.78-1.83.65-.59-.19-.26-1.77-.16-3.41l-.58-.86L18,60.82c.71.17,2.62-.15,3.39,0,.34-1.32.57-4.07,1.18-4.27a7.57,7.57,0,0,1,3.73.2V32.05Z" style="fill: #cdf0cd"/>
            <path d="M26.29,47.73V36.94s-.32-.06-.35-.1c-.4-.54-.38-2.61.12-4.06l.23-.73-.81-1.14c-.22.2-.55.51-.8.7-1.23.93-2.84,1.45-3.49,1.24a.39.39,0,0,1-.21-.17L18.14,59.45a31.41,31.41,0,0,0,2.1-3.72c.45-1.48.19-3.62.82-3.82S23,53.27,24.2,54.19a1.9,1.9,0,0,0,2.05.32V50.57c-.59-1.28-1.43-2.47-1.15-2.86C25.22,47.55,25.81,47.6,26.29,47.73Z" style="fill: #ecd3bc"/>
            <path d="M25,46.54a3,3,0,0,0,1.32-.31V43.34c-.74-.52-3.14-.34-3.14-.75s1.92-.59,2.66-1.1l.26-.2V38.73a3.11,3.11,0,0,0-1.1-.21c-.91,0-1.93.91-2.16.6s.88-1,1.17-1.89a2.6,2.6,0,0,0-.35-2.34c-.33-.24-1.05.53-1.8,1.1-.36.27-.78.6-1.15.85l-.85,11.65a.21.21,0,0,1,.1-.06,2.81,2.81,0,0,1,2.17.43c.76.57.63.9,1,.66s1.13-.62.82-1.52-1.05-1.43-.82-1.75S24.06,46.52,25,46.54Z" style="fill: #e5a1b5"/>
            <polygon points="26.29 60.82 26.29 32.05 21.51 25.33 18 60.82 26.29 60.82" style="fill: none;stroke: #333;stroke-linejoin: round;stroke-width: 1.5px"/>
            <g>
              <g>
                <path d="M32.46,12.85c8.38,0,10.95,5.27,10.95,10.92,0,.33,0,1.23,0,1.56,1.81,0,2.22,1.89,1.93,4.28-.25,2-1,4.53-3,4.58v1c0,3.13-2.5,4.76-5.4,7.79-1.92,2-3.23,1.6-4.5,1.6S29.88,45,28,43c-2.91-3-5.4-4.65-5.4-7.79,0-.52,0-1.19,0-1-1.94-.06-2.73-2.55-3-4.58-.29-2.39.13-4.28,1.93-4.28V23.77C21.51,18.12,24.08,12.85,32.46,12.85Z" style="fill: #a88064"/>
                <path d="M45.35,27.37c-.18-1.23-.76-2-1.94-2,0-.33,0-1.23,0-1.56,0-5.64-2.57-10.92-10.95-10.92S21.51,18.12,21.51,23.77v1.56c-1.2,0-1.78.84-2,2.1a53,53,0,0,1,13-1.68A53.61,53.61,0,0,1,45.35,27.37Z" style="fill: #a0775c"/>
                <path d="M43.41,25.33c0-.33,0-1.23,0-1.56,0-5.64-2.57-10.92-10.95-10.92a16.16,16.16,0,0,0-2.89.24V23.81a4.1,4.1,0,0,1-1.32,3,.46.46,0,0,0,.2.8,2.69,2.69,0,0,1,2,2,.5.5,0,0,0,.8.3,1.73,1.73,0,0,1,.61-.33.51.51,0,0,1,.64.5V32.2a1.15,1.15,0,0,0,.65,1c.6.33.17,1.46-.65,1.46h0a1.81,1.81,0,0,1-.93-.24c-.77-.39-1.49.4-1.33.71s.35,0,1.13.36a2.22,2.22,0,0,0,1.13.28h0v3.83a.41.41,0,0,0,.32.39c1.37.32,2.1,2.6-.32,3.09h0a1.29,1.29,0,0,0-1.07,1.26v.32c.37,0,.73,0,1.08,0,1.27,0,2.58.4,4.5-1.6,2.91-3,5.4-4.66,5.4-7.79v-1c1.94-.06,2.72-2.55,3-4.58C45.63,27.22,45.22,25.33,43.41,25.33Z" style="fill: #a0775c"/>
                <path d="M29.58,13.09h0V23.81A4,4,0,0,1,29,25.88c1.14-.08,2.34-.13,3.58-.13a53.58,53.58,0,0,1,12.79,1.63c-.09-.1-.12-2-1.94-2,0-.33,0-1.23,0-1.56a11.69,11.69,0,0,0-2.33-7.58C38.37,12.94,33.32,12.42,29.58,13.09Z" style="fill: #957058"/>
                <path d="M32.46,12.85c8.38,0,10.95,5.27,10.95,10.92,0,.33,0,1.23,0,1.56,1.81,0,2.22,1.89,1.93,4.28-.25,2-1,4.53-3,4.58v1c0,3.13-2.5,4.76-5.4,7.79-1.92,2-3.23,1.6-4.5,1.6S29.88,45,28,43c-2.91-3-5.4-4.65-5.4-7.79,0-.52,0-1.19,0-1-1.94-.06-2.73-2.55-3-4.58-.29-2.39.13-4.28,1.93-4.28V23.77C21.51,18.12,24.08,12.85,32.46,12.85Z" style="fill: none;stroke: #333;stroke-linejoin: round;stroke-width: 1.5px"/>
              </g>
              <path d="M48.34,14.09a.25.25,0,0,0-.16-.38l-.74-.18a.66.66,0,0,1-.49-.86l.35-1.16a.32.32,0,0,0-.14-.36.35.35,0,0,0-.4,0,.71.71,0,0,1-1.06-.28l-1-2.29a.75.75,0,0,0-1.36,0l-.62-1.13a.72.72,0,0,0-1.18-.09L41.05,8a.72.72,0,0,1-1.13,0l-.62-.83a.72.72,0,0,0-1.06-.09l-.19.18a.74.74,0,0,1-.8.13L31.7,4.8a.7.7,0,0,0-1,.59v.48a.68.68,0,0,1-.7.66H28.43a.81.81,0,0,0-.83.79L25.29,6.7a.7.7,0,0,0-.85.42l-.24.63a.69.69,0,0,1-.66.44H20.65a.69.69,0,0,0-.67.48l-.68,2.27a.72.72,0,0,1-1,.25.33.33,0,0,0-.4,0,.3.3,0,0,0-.14.36l.35,1.16a.65.65,0,0,1-.49.86l-.74.18a.25.25,0,0,0-.16.38l1.71,2.57a.66.66,0,0,1,0,.61l-.36.57c-.16.26,2.47,2.22,2.69,2.44v4.32a3.73,3.73,0,0,1,2.32,3,8.74,8.74,0,0,1,1.42-4.3v-2.2c0-3.38,8-3.29,8.11-3.29,3.19,0,8.11,1.16,8.11,3.29v2.2a10.08,10.08,0,0,1,1.83,4.18,2.93,2.93,0,0,1,1.71-2.8l.06-4.33c.22-.22,3-2.26,2.82-2.52l-.36-.57a.63.63,0,0,1,0-.61Z" style="fill: #3f3f3f"/>
              <path d="M48.34,14.09a.25.25,0,0,0-.16-.38l-.74-.18a.66.66,0,0,1-.49-.86l.35-1.16a.32.32,0,0,0-.14-.36.35.35,0,0,0-.4,0,.71.71,0,0,1-1.06-.28l-1-2.29A.74.74,0,0,0,44,8.18a.73.73,0,0,0-.68.43l-.62-1.13a.72.72,0,0,0-1.18-.09L41.05,8a.71.71,0,0,1-.92.16c-.21-.17-1-1.17-1-1.14a3.82,3.82,0,0,1-1.91.36c-1-.66-4-1.34-3.2.28l.07.08a.65.65,0,0,1-.91.92h0c-.63-.64-1.78-.17-1,.89l0,0,.62.82a.55.55,0,0,1-.11.78.56.56,0,0,1-.74-.06l0,0-.68-.71,0,0h0c-1.71-1.78-2.49-.38-2,.46l.6.65a.51.51,0,0,1-.71.73l0,0-.38-.33c-.36-.2-1-.82-1.57-1.29l-.11-.05h0l-.42-.3c-1.61-.82-2.16,1.1-1.38,1.55a.54.54,0,0,1,.11.75.53.53,0,0,1-.7.14l0,0-.77-.46a.9.9,0,0,0-1,.07.67.67,0,0,0,0,1l.08.08a.65.65,0,0,1,0,.93.67.67,0,0,1-.86.06h0l-.24-.18a.83.83,0,0,0-.91,0c-.23.17,0,.79.09,1.14l.07.19,0,.07h0l0,.1a2.44,2.44,0,0,0,.1.24h0l.07.19a.58.58,0,0,1-.33.74.57.57,0,0,1-.71-.27h0l-.13-.24a1.61,1.61,0,0,0-.48-.55c-.69-.35-1.27.93-1.66,2.21a23.77,23.77,0,0,0,2.67,2.34v4.32a3.84,3.84,0,0,1,2.37,3.08c.29-3.13,1.36-4.38,1.36-4.38v-2.2c0-3.38,8-3.29,8.11-3.29,3.19,0,8.11,1.16,8.11,3.29v2.2a10.19,10.19,0,0,1,1.79,4,3.57,3.57,0,0,1,1.75-2.62l.06-4.33c.22-.22,3-2.26,2.82-2.52l-.36-.57a.63.63,0,0,1,0-.61ZM21.93,19.2a.4.4,0,0,1-.49-.22h0l-.41-.9h0a.47.47,0,1,1,.85-.39s0,0,0,0l.3,1A.38.38,0,0,1,21.93,19.2Zm.69,2.5a.24.24,0,0,1-.27-.17v0l-.28-.93v0a.3.3,0,0,1,.58-.18s0,0,0,0l.17,1A.23.23,0,0,1,22.62,21.7Zm2-5.55a.45.45,0,0,1-.58,0l0,0-.66-.68,0,0a.53.53,0,0,1,0-.75.53.53,0,0,1,.75,0l.05.06.61.86A.46.46,0,0,1,24.66,16.15Zm1.14,2.27a.25.25,0,0,1-.3-.09L25,17.45a.32.32,0,1,1,.54-.34.08.08,0,0,1,0,0v0l.38.89v0A.24.24,0,0,1,25.8,18.42Zm1.45-4.08a.4.4,0,0,1-.52,0l0,0-.7-.66,0,0A.44.44,0,0,1,26,13a.43.43,0,0,1,.62,0l0,0,.68.78A.4.4,0,0,1,27.25,14.34Zm1.54,2.08a.25.25,0,0,1-.32-.05l-.63-.78a.3.3,0,0,1,.46-.38l0,0,.54.84A.25.25,0,0,1,28.79,16.42Zm2.56-2.05a.37.37,0,0,1-.49-.1l0,0-.57-.79,0,0a.42.42,0,1,1,.69-.49l0,0,.52.89A.36.36,0,0,1,31.35,14.37Zm1.27,2.29a.24.24,0,0,1-.32-.09l-.53-.85a.29.29,0,0,1,.49-.31l0,0,.44.89A.25.25,0,0,1,32.62,16.66Zm1.51-3.27a.41.41,0,0,1-.52-.12v0l-.56-.8,0,0a.46.46,0,0,1,.75-.53l0,0,.49.91A.4.4,0,0,1,34.13,13.39Zm1,2.41a.25.25,0,0,1-.29-.14v0l-.36-.9v0a.3.3,0,0,1,.56-.22v0l.27,1A.24.24,0,0,1,35.09,15.8Zm.51-5a.52.52,0,0,1-.68-.11l0,0-.6-.76,0,0a.56.56,0,1,1,.89-.69l0,.05.55.87A.49.49,0,0,1,35.6,10.79ZM36.28,13v0l-.45-.86v0a.43.43,0,0,1,.76-.4s0,0,0,0l.38,1a.38.38,0,0,1-.21.49A.36.36,0,0,1,36.28,13Zm1.09,2.72a.23.23,0,0,1-.26-.18v-.05l-.22-.93v0a.29.29,0,1,1,.57-.13,0,0,0,0,0,0,0l.13,1A.23.23,0,0,1,37.37,15.68Zm.89-5.9v0L38,9.27h0a.76.76,0,0,1,.37-1,.75.75,0,0,1,1,.37l0,.08.18.54a.72.72,0,0,1-.46.91A.7.7,0,0,1,38.26,9.78Zm.93,2.51v0l-.3-.92v0a.62.62,0,1,1,1.18-.38s0,.05,0,.07l.2,1a.56.56,0,0,1-1.08.28Zm1.17,4.33-.13,1a.24.24,0,0,1-.48,0h0v-1h0a.3.3,0,0,1,.3-.3.31.31,0,0,1,.3.3Zm-.28-1.38a.39.39,0,0,1-.4-.35v0l-.12-1v0a.46.46,0,0,1,.91-.11v1.08A.39.39,0,0,1,40.08,15.24Zm1.36-5.47-.13-.66h0a.75.75,0,0,1,1.47-.29s0,0,0,.06l.07.69a.72.72,0,0,1-1.42.22Zm.27,1.68A.64.64,0,1,1,43,11.29v.06l0,1a.6.6,0,0,1-1.2.1v0l-.12-1Zm.79,8.23-.21,1a.26.26,0,0,1-.29.19.25.25,0,0,1-.19-.26h0l.12-1h0a.29.29,0,1,1,.57.07Zm.39-2.76-.11,1a.36.36,0,0,1-.72-.05h0l0-1h0a.42.42,0,0,1,.41-.4.41.41,0,0,1,.4.41ZM43,15.15a.49.49,0,0,1-.5.47.48.48,0,0,1-.46-.45v0l0-1h0a.52.52,0,0,1,.5-.55.53.53,0,0,1,.55.5v.05Z" style="fill: #333"/>
              <path d="M42.1,27.47a4.05,4.05,0,0,1,.52-1.79,4.49,4.49,0,0,1,1.32-1.32l-.18.33V20.34a.41.41,0,0,1,.14-.31c.4-.35.69-.57,1-.85l1-.81c.16-.14.31-.27.45-.41l.19-.2,0-.06s0,0,0,.09,0,0,0,.07a.62.62,0,0,0,0,.18.59.59,0,0,0,0,.08h0v0l-.35-.54a1.18,1.18,0,0,1-.09-1.11l0-.07,1-1.57.51-.79.13-.2c0-.07,0,0,0,.06a.43.43,0,0,0,0,.16.31.31,0,0,0,.17.21c.07,0,0,0,0,0l-.11,0-.46-.11-.12,0-.2-.07a1.38,1.38,0,0,1-.36-.23,1.22,1.22,0,0,1-.39-.77,1.07,1.07,0,0,1,0-.44l.08-.26.26-.89s0-.12,0-.07a.2.2,0,0,0,0,.11.29.29,0,0,0,.1.18.26.26,0,0,0,.32,0l0,0a1.33,1.33,0,0,1-1.19.17,1.31,1.31,0,0,1-.53-.34A1.78,1.78,0,0,1,45.1,11l-.56-1.25-.28-.62-.14-.31,0,0c-.05-.05-.18,0-.17,0a.53.53,0,0,1-1,.45l-.22-.39L42.24,8s-.11-.21-.1-.18h0s0,0,0,0l-.33.43-.18.23a1.49,1.49,0,0,1-.41.34,1.42,1.42,0,0,1-1,.13,1.49,1.49,0,0,1-.48-.22,1.12,1.12,0,0,1-.2-.18l-.13-.16L39,8l-.26-.34s0,0,0,0h0l-.18.17a1.35,1.35,0,0,1-.44.29,1.49,1.49,0,0,1-1,0A2,2,0,0,1,36.76,8l-.26-.13L32.59,6.06l-1-.46-.24-.11h0s0,0,0-.07v.47A1.44,1.44,0,0,1,30,7.3h0a.57.57,0,0,1-.18,0l-1.88-.56.92-.45L28.3,7.6h0a.75.75,0,0,1-.89.45l-2.3-.64s0,0,0,0L25,7.74l-.06.16a1.91,1.91,0,0,1-.1.23,1.39,1.39,0,0,1-1.11.75h-.77l-2.31,0-.71,2.25h0a.42.42,0,0,1,0,.1,1.36,1.36,0,0,1-2,.48l-.05,0a.27.27,0,0,0,.35,0,.3.3,0,0,0,.11-.19.48.48,0,0,0,0-.12s0,.05,0,.07l.26.89.08.26a1.35,1.35,0,0,1,0,.45,1.19,1.19,0,0,1-.4.78,1.16,1.16,0,0,1-.36.23l-.2.07-.12,0-.46.1-.11,0s-.09,0,0,0a.33.33,0,0,0,.18-.22.48.48,0,0,0,0-.17s-.07-.13,0-.07l.13.2.51.79,1,1.58,0,.07a1.17,1.17,0,0,1-.07,1.09l-.35.53,0,0v0h0a.2.2,0,0,0,0-.08.55.55,0,0,0,0-.17.2.2,0,0,0,0-.07.73.73,0,0,0,0-.08s0,0,0,0l.17.19.43.4c.3.27.62.53.93.79s.61.49,1,.83a.43.43,0,0,1,.14.31v0l-.07,4.32-.22-.36a5.14,5.14,0,0,1,1.71,1.35,4.76,4.76,0,0,1,.81,2,.34.34,0,0,1-.27.4.35.35,0,0,1-.4-.26,4.07,4.07,0,0,0-.73-1.7A4.23,4.23,0,0,0,20.5,25a.38.38,0,0,1-.22-.35h0l-.07-4.32.14.33-.94-.74c-.33-.26-.66-.52-1-.79l-.49-.44a3.45,3.45,0,0,1-.25-.27,1,1,0,0,1-.16-.24.81.81,0,0,1-.05-.15.34.34,0,0,1,0-.1.56.56,0,0,1,0-.21.47.47,0,0,1,0-.1v0l0,0,.32-.52a.09.09,0,0,0,0-.1L18,17,16.9,15.41l-.53-.78-.13-.19a.81.81,0,0,1-.13-.27.68.68,0,0,1,0-.4.84.84,0,0,1,.48-.57.73.73,0,0,1,.2-.06l.11,0,.45-.12.11,0h0l0,0s0,0,0,0l-.07-.2-.29-.91-.05-.16a.87.87,0,0,1,0-.36,1,1,0,0,1,.35-.59,1,1,0,0,1,1.22,0l-.05,0s.12,0,.11,0l0,.1.38-1.33.19-.66a3.68,3.68,0,0,1,.12-.39,1.33,1.33,0,0,1,.41-.55,1.43,1.43,0,0,1,.6-.28,1.89,1.89,0,0,1,.3,0h2.85s0,0,0,0l.2-.57a1.39,1.39,0,0,1,1-.9,1.42,1.42,0,0,1,.68,0l.37.09.67.17,1.34.34-.9.46.51-1.34a.75.75,0,0,1,.92-.45l1.88.56-.21,0s0,0,0,.08V5.48s0-.09,0-.2a1.38,1.38,0,0,1,.55-1,1.47,1.47,0,0,1,1-.29,1.59,1.59,0,0,1,.51.14l.24.11,1,.46,3.89,1.85.42.2h0s0,0,0,0l.22-.2a1.44,1.44,0,0,1,1-.35,1.42,1.42,0,0,1,1,.41,3.7,3.7,0,0,1,.24.29l.16.22.32.43,0,.05h0l.16-.19L41,7a1.39,1.39,0,0,1,1.86-.29,1.22,1.22,0,0,1,.37.38c.11.18.1.19.16.29l.51,1-1.16.05a1.4,1.4,0,0,1,2.15-.51,1.32,1.32,0,0,1,.39.51l.14.32.27.63.54,1.26c.06.15,0,.1,0,.12l0,0a.11.11,0,0,0,.11,0h-.07a.93.93,0,0,1,1.52.54.83.83,0,0,1,0,.35l-.05.16-.29.91-.06.19v0l0,.05,0,0h0l.11,0,.46.11.11,0,.2.06a.82.82,0,0,1,.47.55.86.86,0,0,1,0,.39.81.81,0,0,1-.13.27l-.13.19-.53.78L47.05,17l0-.07a.09.09,0,0,0,0,.11l.34.54v0l0,.1a.44.44,0,0,1,0,.22.36.36,0,0,1,0,.1.56.56,0,0,1-.1.23,1,1,0,0,1-.15.19,3.19,3.19,0,0,1-.26.26c-.17.16-.34.3-.5.44-.34.28-.67.55-1,.81l-1,.75.14-.32-.13,4.32h0a.35.35,0,0,1-.18.31,3,3,0,0,0-1.6,2.52.34.34,0,0,1-.38.3A.31.31,0,0,1,42.1,27.47Z" style="fill: #333"/>
            </g>
            <path d="M22.7,27.68A8.25,8.25,0,0,1,23,25.26a7.06,7.06,0,0,1,.41-1.17A4.88,4.88,0,0,1,24,23l-.13.34,0-1.45,0-.73a2.67,2.67,0,0,1,.14-.92,3,3,0,0,1,1.09-1.41A6,6,0,0,1,26.51,18a18,18,0,0,1,5.94-1,15.91,15.91,0,0,1,5.93,1.1,7.48,7.48,0,0,1,1.4.73A3.43,3.43,0,0,1,41,20.16a2.06,2.06,0,0,1,.22,1l0,.73,0,1.45L41,23a9.53,9.53,0,0,1,1.26,2.09,5.82,5.82,0,0,1,.53,2.42.33.33,0,0,1-.35.33.34.34,0,0,1-.33-.32h0a5.1,5.1,0,0,0-.63-2,9.43,9.43,0,0,0-1.24-1.8.47.47,0,0,1-.12-.31v0l-.05-1.45,0-.73a.9.9,0,0,0-.13-.42,4,4,0,0,0-2-1.28,18.53,18.53,0,0,0-5.45-.86,17.78,17.78,0,0,0-5.48.7,3,3,0,0,0-1.87,1.35,1.35,1.35,0,0,0-.11.5l0,.73,0,1.45h0a.49.49,0,0,1-.13.33,4.66,4.66,0,0,0-.57.85,6.85,6.85,0,0,0-.43,1,8,8,0,0,0-.39,2.18.34.34,0,0,1-.35.33A.34.34,0,0,1,22.7,27.68Z" style="fill: #333"/>
            <path d="M20.47,20.46V24.8a.6.6,0,0,0,.76.58,41.23,41.23,0,0,1,11.33-1.31,40,40,0,0,1,11.13,1.3.6.6,0,0,0,.76-.58V20.47a.6.6,0,0,0-.27-.5,22.27,22.27,0,0,0-11.62-3.52A20.9,20.9,0,0,0,20.71,20,.6.6,0,0,0,20.47,20.46Z" style="fill: #a8c2ff"/>
            <path d="M44.46,23.89c-1-1.31-2.31-2.94-2.09-3.62.12-.38,1-.26,2-.17a22.32,22.32,0,0,0-11.81-3.65,21,21,0,0,0-11.68,3.4c.47.17.81.37.9.65a5.1,5.1,0,0,1-.79,4,6.1,6.1,0,0,1-.53.61v.54s3.93-1.56,12.09-1.56,11.89,1.56,11.89,1.56V23.89Z" style="fill: #cdf0cd"/>
            <path d="M42.19,18.84a21.27,21.27,0,0,0-19.5-.05c1.1.25,2.5.12,2.64.56s-1,1.46-1.74,2.4-.45,1.4-.14,1.83.49.46,1.65.06,3-1.51,3.43-1.2c.24.17-.05.94-.34,1.79,1.29-.1,2.75-.16,4.38-.16,1.43,0,2.73.05,3.89.13a1.73,1.73,0,0,1,.38-1.11,4.86,4.86,0,0,1,3.12.1c1.16.4,2,1.41,2.29,1s-.68-1.06-1.42-2a4,4,0,0,1-.95-2.66C40,19,41.13,19.08,42.19,18.84Z" style="fill: #ecd3bc"/>
            <path d="M32.56,16.45a21.91,21.91,0,0,0-6.91,1.11,6,6,0,0,0,.93.37c.67.2,1.33.28,1.42.57a2.17,2.17,0,0,1-.33,1.66c-.44.58-.69.48-.5.73s.47.86,1.16.63,1.09-.8,1.33-.62-.22.77-.23,1.46a1.59,1.59,0,0,0,.84,1.4,1.68,1.68,0,0,0,1.61-.57c.39-.57.26-2.22.57-2.22s.45,1.47.84,2a3.43,3.43,0,0,0,1.24,1.12h.25a2.47,2.47,0,0,0,.77-1.77c0-.69-.7-1.48-.46-1.65s.79.67,1.45.89a2,2,0,0,0,1.79-.27c.18-.25-.4-.8-.84-1.38s-1-1.26-.9-1.55,1.17.1,1.84-.1a.82.82,0,0,0,.6-.75A20.34,20.34,0,0,0,32.56,16.45Z" style="fill: #e5a1b5"/>
            <path d="M32.56,16.45A20.89,20.89,0,0,0,20.72,20a.58.58,0,0,0-.25.49V24.8a.6.6,0,0,0,.77.58,41.23,41.23,0,0,1,11.33-1.31,39.88,39.88,0,0,1,11.12,1.3.61.61,0,0,0,.77-.58V20.48a.6.6,0,0,0-.27-.5A22.33,22.33,0,0,0,32.56,16.45Z" style="fill: none;stroke: #333;stroke-linejoin: round;stroke-width: 1.5px"/>
          </g>
          <line x1="32.46" y1="35.76" x2="32.46" y2="36.53" style="fill: none;stroke: #936b55;stroke-linecap: round;stroke-miterlimit: 10;stroke-width: 0.75px"/>
          <line x1="29.28" y1="38.41" x2="28.93" y2="39.11" style="fill: none;stroke: #936b55;stroke-linecap: round;stroke-miterlimit: 10;stroke-width: 0.75px"/>
          <line x1="35.65" y1="38.41" x2="36.06" y2="39.23" style="fill: none;stroke: #936b55;stroke-linecap: round;stroke-miterlimit: 10;stroke-width: 0.75px"/>
          <path d="M33.28,37.57a1.88,1.88,0,0,1-.81.21c-.21,0-.23,0-.7-.21-.84-.33-.88.69-2.43,1.25l1,1a2.26,2.26,0,0,0,1.62.58h1a2.56,2.56,0,0,0,1.74-.63l.89-.94C34.11,38.29,34.11,37.24,33.28,37.57Z" style="fill: #925140"/>
          <path d="M35.58,38.82c-1,0-1.56-.52-3.12,0h0c-1.55-.52-2.07,0-3.12,0" style="fill: none;stroke: #743f40;stroke-linecap: round;stroke-miterlimit: 10;stroke-width: 0.521399974822998px"/>
          <path d="M30.38,35.24c1,0,1,.52,2.09.52s1-.52,2.09-.52" style="fill: none;stroke: #674848;stroke-linecap: round;stroke-miterlimit: 10;stroke-width: 0.75px"/>
          <path d="M24.75,27.79a3.85,3.85,0,0,1,1.37-.56,4.83,4.83,0,0,1,1.47,0c.48.08.94.2,1.39.32a8.75,8.75,0,0,0,1.27.29h0a.53.53,0,1,1-.11,1.05h-.08a9.36,9.36,0,0,1-1.37-.52,12.92,12.92,0,0,0-1.25-.49,4,4,0,0,0-1.28-.2,2,2,0,0,0-1.2.39.19.19,0,1,1-.23-.29Z" style="fill: #333"/>
          <path d="M40,28.09a1.92,1.92,0,0,0-1.2-.39,4,4,0,0,0-1.27.21c-.42.13-.83.31-1.26.49a8.61,8.61,0,0,1-1.39.51.52.52,0,0,1-.24-1h.09A7.64,7.64,0,0,0,36,27.6c.45-.12.91-.25,1.39-.33a4.53,4.53,0,0,1,1.47,0,3.8,3.8,0,0,1,1.37.55.19.19,0,0,1-.2.32Z" style="fill: #333"/>
          <circle cx="27" cy="30.37" r="3.26" style="fill: #555"/>
          <path d="M30.26,30.37a3.24,3.24,0,0,0-.42-1.58,3.24,3.24,0,0,0-4.42,4.42,3.24,3.24,0,0,0,4.84-2.84Z" style="fill: #444"/>
          <circle cx="37.59" cy="30.37" r="3.26" style="fill: #555"/>
          <path d="M40.85,30.37a3.24,3.24,0,0,0-.42-1.58A3.24,3.24,0,0,0,36,33.21a3.24,3.24,0,0,0,4.84-2.84Z" style="fill: #444"/>
          <path d="M29.69,30.57c-.6-.35-2.16-2.35-4.17-.35a2.47,2.47,0,0,1-.7-.48A4.32,4.32,0,0,1,28,29.45" style="fill: #3a3a3a;stroke: #3a3a3a;stroke-linecap: round;stroke-miterlimit: 10;stroke-width: 0.525200009346008px"/>
          <circle cx="27.8" cy="30.18" r="0.78" style="fill: #3a3a3a"/>
          <circle cx="27" cy="30.37" r="3.26" style="fill: none;stroke: #333;stroke-linejoin: round"/>
          <path d="M35.38,30.57c.6-.35,2.16-2.35,4.17-.35a2.47,2.47,0,0,0,.7-.48,4.32,4.32,0,0,0-3.17-.29" style="fill: #3a3a3a;stroke: #3a3a3a;stroke-linecap: round;stroke-miterlimit: 10;stroke-width: 0.525200009346008px"/>
          <circle cx="37.19" cy="30.17" r="0.78" style="fill: #3a3a3a"/>
          <circle cx="37.59" cy="30.37" r="3.26" style="fill: none;stroke: #333;stroke-linejoin: round"/>
          <path d="M34.34,31.59a2.07,2.07,0,0,0-4.14,0" style="fill: none;stroke: #333;stroke-linecap: round;stroke-miterlimit: 10;stroke-width: 1.11230003833771px"/>
        </g>
      </g>
    </g>
  </g>
</svg>
