<svg xmlns="http://www.w3.org/2000/svg" width="64" height="64" viewBox="0 0 64 64">
  <title>young-hippies-asian-female</title>
  <g id="young-hippies-asian-female">
    <g id="young-hippies-asian-female-2" data-name="young-hippies-asian-female">
      <g id="Icons">
        <g>
          <g>
            <path d="M55.4,52.25a4.8,4.8,0,0,0-3.65-4.17c-3.46-.86-7.74-1.78-13.12-2.79V39.6H26.29v5.69c-5.49,1-9.7,2.07-13.12,2.78-2.15.45-3.22,2-3.65,4.17L9,54.33a54.05,54.05,0,0,0,23.46,5.21,54.05,54.05,0,0,0,23.46-5.21Z" style="fill: #e6b790"/>
            <path d="M26.29,39.6v1.19l5,5.18a4.07,4.07,0,0,1,1.15,2.85,2.63,2.63,0,0,0,2.63,2.63h.52a3,3,0,0,0,3-3V39.59H26.29Z" style="fill: #d6a787"/>
            <path d="M55.4,52.25c-.43-2.15-1.52-3.67-3.65-4.17-3-.71-6.56-1.57-10.94-2.34h0a13.32,13.32,0,0,1-8.35,13.54,13.35,13.35,0,0,1-8.37-13.55h0c-4.27.91-7.74,1.61-10.92,2.35-2.14.5-3.22,2-3.65,4.17L9,54.33a54.05,54.05,0,0,0,23.46,5.21,54.05,54.05,0,0,0,23.46-5.21Z" style="fill: #bed5fc"/>
            <path d="M55.48,52.57a4.63,4.63,0,0,0-2.87-1.88,111.74,111.74,0,0,0-11.87-2.56,13.48,13.48,0,0,1-8.28,11.16,13.47,13.47,0,0,1-8.28-11.15A111.74,111.74,0,0,0,12.31,50.7a4.67,4.67,0,0,0-2.87,1.88L9,54.33a54.05,54.05,0,0,0,23.46,5.21,54.05,54.05,0,0,0,23.46-5.21Z" style="fill: #a9c6ff"/>
            <g>
              <path d="M24.09,45.73a13.36,13.36,0,0,0,8.37,13.55,13.32,13.32,0,0,0,8.35-13.54" style="fill: none;stroke: #333;stroke-linejoin: round;stroke-width: 1.5px"/>
              <polyline points="26.29 47.56 26.29 39.6 38.63 39.6 38.63 47.56" style="fill: none;stroke: #333;stroke-linecap: round;stroke-linejoin: round;stroke-width: 1.5px"/>
            </g>
            <path d="M26.29,45.29s-7.7,1.58-13.12,2.78c-2.14.48-3.22,2-3.65,4.17L9,54.33a54.05,54.05,0,0,0,23.46,5.21,54.05,54.05,0,0,0,23.46-5.21l-.52-2.08a4.8,4.8,0,0,0-3.65-4.17C47.4,47,38.65,45.21,38.63,45.29" style="fill: none;stroke: #333;stroke-linejoin: round;stroke-width: 1.5px"/>
            <polygon points="26.49 31.39 21.51 24.61 18 60.1 26.29 60.1 26.49 31.39" style="fill: #a8c2ff"/>
            <path d="M26.29,31.33l-2.21-3.11c-.73.44-1.44.78-1.83.65-.59-.19-.26-1.77-.16-3.41l-.58-.86L18,60.1c.71.17,2.62-.15,3.39,0,.34-1.32.57-4.07,1.18-4.27a7.57,7.57,0,0,1,3.73.2V31.33Z" style="fill: #cdf0cd"/>
            <path d="M26.29,47V36.22s-.32-.06-.35-.1c-.4-.54-.38-2.61.12-4.06l.23-.73-.81-1.14c-.22.2-.55.51-.8.7-1.23.93-2.84,1.45-3.49,1.24A.39.39,0,0,1,21,32L18.14,58.73A31.41,31.41,0,0,0,20.24,55c.45-1.48.19-3.62.82-3.82S23,52.55,24.2,53.47a1.9,1.9,0,0,0,2.05.32V49.85c-.59-1.28-1.43-2.47-1.15-2.86C25.22,46.84,25.81,46.88,26.29,47Z" style="fill: #ecd3bc"/>
            <path d="M25,45.83a3,3,0,0,0,1.32-.31V42.63c-.74-.52-3.14-.34-3.14-.75s1.92-.59,2.66-1.1l.26-.2V38a3.11,3.11,0,0,0-1.1-.21c-.91,0-1.93.91-2.16.6s.88-1,1.17-1.89a2.6,2.6,0,0,0-.35-2.34c-.33-.24-1.05.53-1.8,1.1-.36.27-.78.6-1.15.85l-.85,11.65a.21.21,0,0,1,.1-.06,2.81,2.81,0,0,1,2.17.43c.76.57.63.9,1,.66s1.13-.62.82-1.52-1.05-1.43-.82-1.75S24.06,45.81,25,45.83Z" style="fill: #e5a1b5"/>
            <polygon points="26.29 60.1 26.29 31.33 21.51 24.61 18 60.1 26.29 60.1" style="fill: none;stroke: #333;stroke-linejoin: round;stroke-width: 1.5px"/>
            <g>
              <g>
                <path d="M32.46,12.13c8.38,0,10.95,5.27,10.95,10.92,0,.33,0,1.23,0,1.56,1.81,0,2.22,1.89,1.93,4.28-.25,2-1,4.53-3,4.58v1c0,3.13-2.5,4.76-5.4,7.79-1.92,2-3.23,1.6-4.5,1.6s-2.59.4-4.51-1.6c-2.91-3-5.4-4.65-5.4-7.79,0-.52,0-1.19,0-1-1.94-.06-2.73-2.55-3-4.58-.29-2.39.13-4.28,1.93-4.28V23.05C21.51,17.41,24.08,12.13,32.46,12.13Z" style="fill: #efc8a5"/>
                <path d="M45.35,26.66c-.18-1.23-.76-2-1.94-2,0-.33,0-1.23,0-1.56,0-5.64-2.57-10.92-10.95-10.92S21.51,17.41,21.51,23.05v1.56c-1.2,0-1.78.84-2,2.1a53,53,0,0,1,13-1.68A53.5,53.5,0,0,1,45.35,26.66Z" style="fill: #e6b790"/>
                <path d="M43.41,24.61c0-.33,0-1.23,0-1.56,0-5.64-2.57-10.92-10.95-10.92a16.16,16.16,0,0,0-2.89.24V23.09a4.1,4.1,0,0,1-1.32,3,.46.46,0,0,0,.2.8,2.69,2.69,0,0,1,2,2,.5.5,0,0,0,.8.3,1.73,1.73,0,0,1,.61-.33.51.51,0,0,1,.64.5v2.15a1.15,1.15,0,0,0,.65,1c.6.33.17,1.46-.65,1.46h0a1.81,1.81,0,0,1-.93-.24c-.77-.39-1.49.4-1.33.71s.35,0,1.13.36a2.22,2.22,0,0,0,1.13.28h0v3.83a.41.41,0,0,0,.32.39c1.37.32,2.1,2.6-.32,3.09h0a1.29,1.29,0,0,0-1.07,1.26v.32c.37,0,.73,0,1.08,0,1.27,0,2.58.4,4.5-1.6,2.91-3,5.4-4.66,5.4-7.79v-1c1.94-.06,2.72-2.55,3-4.58C45.63,26.5,45.22,24.61,43.41,24.61Z" style="fill: #e6b790"/>
                <path d="M29.58,12.37h0V23.09A4,4,0,0,1,29,25.16c1.14-.08,2.34-.13,3.58-.13a53.58,53.58,0,0,1,12.79,1.63c-.09-.1-.12-2-1.94-2,0-.33,0-1.23,0-1.56a11.69,11.69,0,0,0-2.33-7.58C38.37,12.23,33.32,11.7,29.58,12.37Z" style="fill: #d6a787"/>
                <path d="M32.46,12.13c8.38,0,10.95,5.27,10.95,10.92,0,.33,0,1.23,0,1.56,1.81,0,2.22,1.89,1.93,4.28-.25,2-1,4.53-3,4.58v1c0,3.13-2.5,4.76-5.4,7.79-1.92,2-3.23,1.6-4.5,1.6s-2.59.4-4.51-1.6c-2.91-3-5.4-4.65-5.4-7.79,0-.52,0-1.19,0-1-1.94-.06-2.73-2.55-3-4.58-.29-2.39.13-4.28,1.93-4.28V23.05C21.51,17.41,24.08,12.13,32.46,12.13Z" style="fill: none;stroke: #333;stroke-linejoin: round;stroke-width: 1.5px"/>
              </g>
              <path d="M48.39,12.61l-1.25.1.21-3.14c-.38.23-1,.61-1.39.92L43.91,6.42c-.3.67-.59,1.48-.59,1.48L41.94,6.2l-1.1,1.3L38.26,5.75,38,7.12,30.66,3.75l.09,2.41L28.1,5.28,27.46,7l-2.8-1.15L24,8l-3.89-.57.07,2.82c-.42,0-1.88.2-2.67.13l.82,2.27L16.43,13l2.37,3.28-1.48.85s3.13,2.24,3.34,2.46v4.32A3.87,3.87,0,0,1,23,26.8a8.75,8.75,0,0,1,1.41-4.2V20.4c0-3.38,8-3.29,8.11-3.29,3.19,0,8.11,1.16,8.11,3.29v2.2a10.05,10.05,0,0,1,1.82,4.15A3.36,3.36,0,0,1,44.15,24l.06-4.33c.22-.22,3.55-2.77,3.39-3l-1.22-.12Z" style="fill: #3f3f3f"/>
              <path d="M34.82,5.57c1.91.77,2.61,1.57,3.21,1l.19-.18C39.39,5.28,40,8.68,41,7.32l.49-.63c.88-1.12,1.69,1.1,1.8,1.22,1.13-2.62,1.89,3.64,3.43,2.57a.33.33,0,0,1,.4,0c.55.33-1,2.08.28,2.38.25.1,1.24-.64,1-.21-1.34,2.26-2.1,3.33-1.71,3.94l.36.57c.16.26-2.6,2.3-2.82,2.52L44.16,24a2.93,2.93,0,0,0-1.71,2.8,9.94,9.94,0,0,0-1.83-4.18V20.4c0-2.13-4.92-3.29-8.11-3.29-.12,0-8.11-.09-8.11,3.29v2.2A8.74,8.74,0,0,0,23,26.9a3.71,3.71,0,0,0-2.32-3V19.57c-.1-.1-2.66-2.34-3.34-2.46,0,0,2.92-.47,4.27.22a14.44,14.44,0,0,0-2.09-3.5s3.29.85,4.93,2.61c0,0-1.78-3.66-3.95-5.2,0,0,4.49,1.29,6.8,4A24,24,0,0,0,23.05,9s4.81,2.12,6.54,4.6a17.12,17.12,0,0,0-3.29-6s5,2.41,7.41,6.35A24.8,24.8,0,0,0,29.77,7s5.36,3.63,7.65,7.71c0,0-2-5-4.24-7.62,0,0,4.25,2.68,5.45,5.78C38.62,12.89,38.42,9.36,34.82,5.57Z" style="fill: #333"/>
            </g>
            <path d="M22.7,27A8.25,8.25,0,0,1,23,24.54a7.06,7.06,0,0,1,.41-1.17A4.88,4.88,0,0,1,24,22.25l-.13.34,0-1.45,0-.73a2.67,2.67,0,0,1,.14-.92,3,3,0,0,1,1.09-1.41,6,6,0,0,1,1.43-.76,18,18,0,0,1,5.94-1,15.91,15.91,0,0,1,5.93,1.1,7.48,7.48,0,0,1,1.4.73A3.43,3.43,0,0,1,41,19.44a2.06,2.06,0,0,1,.22,1l0,.73,0,1.45L41,22.26a9.53,9.53,0,0,1,1.26,2.09,5.82,5.82,0,0,1,.53,2.42.33.33,0,0,1-.35.33.34.34,0,0,1-.33-.32h0a5.1,5.1,0,0,0-.63-2,9.43,9.43,0,0,0-1.24-1.8.47.47,0,0,1-.12-.31v0l-.05-1.45,0-.73a.9.9,0,0,0-.13-.42,4,4,0,0,0-2-1.28,18.53,18.53,0,0,0-5.45-.86,17.78,17.78,0,0,0-5.48.7,3,3,0,0,0-1.87,1.35,1.35,1.35,0,0,0-.11.5l0,.73,0,1.45h0a.49.49,0,0,1-.13.33,4.66,4.66,0,0,0-.57.85,6.85,6.85,0,0,0-.43,1A8,8,0,0,0,23.4,27a.35.35,0,0,1-.7,0Z" style="fill: #333"/>
            <path d="M32.56,15.73a20.44,20.44,0,0,0-12.09,3.71v5.47s3.93-1.56,12.09-1.56,11.89,1.56,11.89,1.56V19.44A22.19,22.19,0,0,0,32.56,15.73Z" style="fill: none;stroke: #333;stroke-miterlimit: 10;stroke-width: 1.5px"/>
            <path d="M42.1,26.75A4.05,4.05,0,0,1,42.62,25a4.49,4.49,0,0,1,1.32-1.32l-.17.32V19.63h0a.4.4,0,0,1,.13-.3l3.37-3.09.29.88L46.34,17a.52.52,0,0,1-.47-.56.48.48,0,0,1,.05-.18h0l2-3.9.54.8-1.25.11a.56.56,0,0,1-.61-.5v-.08h0l.18-3.14.89.54L46.29,11a.6.6,0,0,1-.84-.16l0-.07-2.08-4,1.15,0c-.2.46-.39,1-.55,1.43a.65.65,0,0,1-.83.4.48.48,0,0,1-.27-.18h0L41.43,6.62h1L41.37,7.94a.67.67,0,0,1-.89.13h0L37.86,6.33,39,5.89l-.28,1.38a.71.71,0,0,1-.84.56l-.15,0h0Q34,6.12,30.34,4.42l1.06-.71.09,2.41a.76.76,0,0,1-.72.78.84.84,0,0,1-.27,0L27.85,6l.94-.44-.65,1.68h0a.74.74,0,0,1-.95.43h0L24.37,6.48l1-.46-.66,2.13h0a.68.68,0,0,1-.77.48L20,8l.77-.68,0,2.82a.64.64,0,0,1-.64.66h-.05c-.14,0-.39,0-.6,0l-.66,0-1.33.07.54-.83.79,2.28h0a.58.58,0,0,1-.36.75l-.09,0-1.91.36.35-.9,2.34,3.3h0a.53.53,0,0,1-.12.73l-.05,0-1.48.84,0-.86,1.67,1.24.83.62c.29.23.52.38.87.69a.41.41,0,0,1,.14.3v0l-.06,4.32-.22-.36a5.14,5.14,0,0,1,1.71,1.35,4.76,4.76,0,0,1,.81,2,.34.34,0,0,1-.27.4.35.35,0,0,1-.4-.26,4.07,4.07,0,0,0-.73-1.7,4.23,4.23,0,0,0-1.49-1.09.39.39,0,0,1-.22-.35h0l-.06-4.32.14.33-.78-.58-.84-.6L17,17.51a.51.51,0,0,1-.12-.71.4.4,0,0,1,.15-.14h0l1.47-.87-.16.77L16,13.3a.57.57,0,0,1,.12-.8.62.62,0,0,1,.22-.1h0l1.9-.4-.44.78-.84-2.26a.61.61,0,0,1,.36-.79l.17,0h0l1.34-.1.68,0c.24,0,.43,0,.74,0l-.69.66-.09-2.82a.67.67,0,0,1,.65-.69h.13l3.89.54-.78.49L24,5.57a.72.72,0,0,1,.89-.49l.07,0h0l2.81,1.13-1,.42L27.42,5a.74.74,0,0,1,.94-.44L31,5.41l-1,.78-.09-2.41A.76.76,0,0,1,30.63,3a.77.77,0,0,1,.34.07q3.66,1.68,7.3,3.4l-1,.5.3-1.37h0a.7.7,0,0,1,1.09-.43l2.58,1.77-.9.13,1.11-1.29h0a.67.67,0,0,1,.94-.07l.09.09,1.37,1.71-1.12.19c.19-.51.39-1,.62-1.52h0a.64.64,0,0,1,.84-.32.61.61,0,0,1,.31.3l2,4.08L45.63,10l1.43-.93a.58.58,0,0,1,.8.17.59.59,0,0,1,.09.36v0l-.25,3.14-.61-.6,1.25-.09h0a.55.55,0,0,1,.59.51.6.6,0,0,1-.06.3l-2,3.87L46.44,16l1.21.13h0a.5.5,0,0,1,.28.88l-3.41,3,.13-.31L44.54,24h0a.38.38,0,0,1-.17.31,3.69,3.69,0,0,0-1.13,1.05,3.39,3.39,0,0,0-.46,1.47.34.34,0,0,1-.38.3A.35.35,0,0,1,42.1,26.75Z" style="fill: #333"/>
            <path d="M20.47,19.44v5.47s3.93-1.56,12.09-1.56,11.89,1.56,11.89,1.56V19.44a22.23,22.23,0,0,0-11.89-3.71A20.44,20.44,0,0,0,20.47,19.44Z" style="fill: #a8c2ff"/>
            <path d="M44.46,23.17c-1-1.31-2.31-2.94-2.09-3.62.12-.38,1-.26,2-.17a22.32,22.32,0,0,0-11.81-3.65,21,21,0,0,0-11.68,3.4c.47.17.81.37.9.65a5.12,5.12,0,0,1-.79,4,6.1,6.1,0,0,1-.53.61v.54s3.93-1.56,12.09-1.56S44.45,24.9,44.45,24.9V23.17Z" style="fill: #cdf0cd"/>
            <path d="M42.19,18.12a21.27,21.27,0,0,0-19.5-.05c1.1.25,2.5.12,2.64.56s-1,1.46-1.74,2.4-.45,1.4-.14,1.83.49.46,1.65.06,3-1.51,3.43-1.2c.24.17-.05.94-.34,1.79,1.29-.1,2.75-.16,4.38-.16,1.43,0,2.73,0,3.89.13a1.73,1.73,0,0,1,.38-1.11,4.86,4.86,0,0,1,3.12.1c1.16.4,2,1.41,2.29,1s-.68-1.06-1.42-2a4,4,0,0,1-.95-2.66C40,18.3,41.13,18.37,42.19,18.12Z" style="fill: #ecd3bc"/>
            <path d="M32.56,15.73a21.91,21.91,0,0,0-6.91,1.11,6,6,0,0,0,.93.37c.67.2,1.33.28,1.42.57a2.17,2.17,0,0,1-.33,1.66c-.44.58-.69.48-.5.73s.47.86,1.16.63,1.09-.8,1.33-.62-.22.77-.23,1.46a1.59,1.59,0,0,0,.84,1.4,1.68,1.68,0,0,0,1.61-.57c.39-.57.26-2.22.57-2.22s.45,1.47.84,2a3.43,3.43,0,0,0,1.24,1.12h.25a2.47,2.47,0,0,0,.77-1.77c0-.69-.7-1.48-.46-1.65s.79.67,1.45.89a2,2,0,0,0,1.79-.27c.18-.25-.4-.8-.84-1.38s-1-1.26-.9-1.55,1.17.1,1.84-.1a.82.82,0,0,0,.6-.75A20.34,20.34,0,0,0,32.56,15.73Z" style="fill: #e5a1b5"/>
            <path d="M32.56,15.73a20.44,20.44,0,0,0-12.09,3.71v5.47s3.93-1.56,12.09-1.56,11.89,1.56,11.89,1.56V19.44A22.19,22.19,0,0,0,32.56,15.73Z" style="fill: none;stroke: #333;stroke-linecap: round;stroke-linejoin: round;stroke-width: 1.5px"/>
          </g>
          <line x1="32.46" y1="35.04" x2="32.46" y2="35.81" style="fill: none;stroke: #ddad8a;stroke-linecap: round;stroke-miterlimit: 10;stroke-width: 0.649999976158142px"/>
          <line x1="29.28" y1="37.7" x2="28.93" y2="38.39" style="fill: none;stroke: #ddad8a;stroke-linecap: round;stroke-miterlimit: 10;stroke-width: 0.649999976158142px"/>
          <line x1="35.65" y1="37.7" x2="36.06" y2="38.52" style="fill: none;stroke: #ddad8a;stroke-linecap: round;stroke-miterlimit: 10;stroke-width: 0.649999976158142px"/>
          <path d="M33.28,36.85a1.88,1.88,0,0,1-.81.21c-.21,0-.23,0-.7-.21-.84-.33-.88.69-2.43,1.25l1,1a2.26,2.26,0,0,0,1.62.58h1A2.56,2.56,0,0,0,34.7,39l.89-.94C34.11,37.57,34.11,36.52,33.28,36.85Z" style="fill: #925140"/>
          <path d="M35.58,38.1c-1,0-1.56-.52-3.12,0h0c-1.55-.52-2.07,0-3.12,0" style="fill: none;stroke: #743f40;stroke-linecap: round;stroke-miterlimit: 10;stroke-width: 0.521399974822998px"/>
          <path d="M30.38,34.52c1,0,1,.52,2.09.52s1-.52,2.09-.52" style="fill: none;stroke: #c6916d;stroke-linecap: round;stroke-miterlimit: 10;stroke-width: 0.75px"/>
          <path d="M24.75,27.07a3.85,3.85,0,0,1,1.37-.56,4.83,4.83,0,0,1,1.47,0c.48.08.94.2,1.39.32a8.75,8.75,0,0,0,1.27.29h0a.53.53,0,1,1-.11,1.05h-.08a9.36,9.36,0,0,1-1.37-.52,12.92,12.92,0,0,0-1.25-.49,4,4,0,0,0-1.28-.2,2,2,0,0,0-1.2.39.19.19,0,0,1-.23-.29Z" style="fill: #333"/>
          <path d="M40,27.37a1.92,1.92,0,0,0-1.2-.39,4,4,0,0,0-1.27.21c-.42.13-.83.31-1.26.49a8.61,8.61,0,0,1-1.39.51.52.52,0,0,1-.24-1h.09A7.64,7.64,0,0,0,36,26.88c.45-.12.91-.25,1.39-.33a4.53,4.53,0,0,1,1.47,0,3.8,3.8,0,0,1,1.37.55.19.19,0,1,1-.2.32Z" style="fill: #333"/>
          <circle cx="27" cy="29.66" r="3.26" style="fill: #555"/>
          <path d="M30.26,29.66a3.24,3.24,0,0,0-.42-1.58,3.24,3.24,0,0,0-4.42,4.42,3.24,3.24,0,0,0,4.84-2.84Z" style="fill: #444"/>
          <circle cx="37.59" cy="29.66" r="3.26" style="fill: #555"/>
          <path d="M40.85,29.66a3.24,3.24,0,0,0-.42-1.58A3.24,3.24,0,0,0,36,32.5a3.24,3.24,0,0,0,4.84-2.84Z" style="fill: #444"/>
          <path d="M29.58,30.05c-.58-.33-1.93-1.92-3.86-.33a4.16,4.16,0,0,1-.76-.25,4.89,4.89,0,0,1,3.31-.26" style="fill: #3a3a3a;stroke: #3a3a3a;stroke-linecap: round;stroke-miterlimit: 10;stroke-width: 0.525200009346008px"/>
          <ellipse cx="27.66" cy="29.76" rx="0.81" ry="0.47" style="fill: #3a3a3a"/>
          <path d="M35.12,30.05c.58-.33,1.93-1.92,3.86-.33a4.16,4.16,0,0,0,.76-.25,4.89,4.89,0,0,0-3.31-.26" style="fill: #3a3a3a;stroke: #3a3a3a;stroke-linecap: round;stroke-miterlimit: 10;stroke-width: 0.525200009346008px"/>
          <ellipse cx="37.05" cy="29.76" rx="0.81" ry="0.47" style="fill: #3a3a3a"/>
          <circle cx="27" cy="29.66" r="3.26" style="fill: none;stroke: #333;stroke-linejoin: round"/>
          <circle cx="37.59" cy="29.66" r="3.26" style="fill: none;stroke: #333;stroke-linejoin: round"/>
          <path d="M34.34,30.88a2.07,2.07,0,0,0-4.14,0" style="fill: none;stroke: #333;stroke-linecap: round;stroke-miterlimit: 10;stroke-width: 1.11230003833771px"/>
        </g>
      </g>
    </g>
  </g>
</svg>
