<svg xmlns="http://www.w3.org/2000/svg" width="64" height="64" viewBox="0 0 64 64">
  <title>young-hippies-black-male</title>
  <g id="young-hippies-black-male">
    <g id="young-hippies-black-male-2" data-name="young-hippies-black-male">
      <g id="Icons">
        <g>
          <path d="M51.5,47C44.39,45.85,40.8,45.25,39,44.93V41.4H25.05v3.54c-1.92.33-5.55.93-12.55,2.05-5,.81-5.38,7.25-5.5,8,2,1.22,11.78,5.48,25,5.5S55,56.21,57,55C56.88,54.24,56.54,47.8,51.5,47Z" style="fill: #957058"/>
          <path d="M24.53,45C11,47.37,8.57,45.52,7,55c3.71,2.23,14.11,5.48,25,5.5S53.29,57.22,57,55c-1.57-9.47-4-7.65-17.59-10A8.86,8.86,0,0,1,24.53,45Z" style="fill: #a8c2ff"/>
          <g>
            <path d="M43,26.35v-2.2c0-5.95-2.09-12.08-11-12.08S21,18.2,21,24.15v2.2c-.09,0-3.29,0-2.2,5.49a4.27,4.27,0,0,0,3.29,3.29c0,3.9,1.1,4.39,4.81,8.21C28.35,45.16,30.09,45,32,45s3.65.15,5.07-1.67c3.71-3.82,4.81-4.31,4.81-8.21a4.27,4.27,0,0,0,3.29-3.29C46.27,26.35,43.07,26.32,43,26.35Z" style="fill: #a88064"/>
            <path d="M23.63,34a3.67,3.67,0,0,1-1.52-3.29V28.06a2.44,2.44,0,0,0-1.46-1.65c-.83.17-2.72,1-1.83,5.45a4.27,4.27,0,0,0,3.29,3.29c0,3.3.8,4.17,3.29,6.68V38.45A5.22,5.22,0,0,0,23.63,34Z" style="fill: #9b775c"/>
            <path d="M45.17,31.84c1.1-5.49-2.11-5.52-2.2-5.49v-2.2c0-5.95-2.09-12.08-11-12.08a15.39,15.39,0,0,0-2.92.26v12a3.9,3.9,0,0,1-1.27,2.88A.45.45,0,0,0,28,28c1.5.43,2.3.71,3.23.47.31-.08.86.27.86.59v1.57a1.69,1.69,0,0,0,.64,1.4,1.1,1.1,0,0,1-.64,2c-.81,0-1.1-.55-2.2-.55-.65,0-.55.85-.57.82a2.38,2.38,0,0,1,1.1.29,3.38,3.38,0,0,0,1.65.43v3.31a1.91,1.91,0,0,0,1.25,1.76,1.55,1.55,0,0,1,.94,1.63c0,3-5.43-.3-5.43,3v0A9.89,9.89,0,0,0,32,45c1.9,0,3.65.15,5.07-1.67,3.71-3.82,4.81-4.31,4.81-8.21A4.27,4.27,0,0,0,45.17,31.84Z" style="fill: #9c775b"/>
            <path d="M43,26.35a2.18,2.18,0,0,0-1.12,1.87v2.53A3.64,3.64,0,0,1,40.37,34a5.24,5.24,0,0,0-1.78,4.39v3.38c2.5-2.51,3.29-3.38,3.29-6.68a4.27,4.27,0,0,0,3.29-3.29C46.24,26.53,43.28,26.33,43,26.35Z" style="fill: #957058"/>
            <path d="M43,26.35v-2.2c0-5.95-2.09-12.08-11-12.08S21,18.2,21,24.15v2.2c-.09,0-3.29,0-2.2,5.49a4.27,4.27,0,0,0,3.29,3.29c0,3.9,1.1,4.39,4.81,8.21C28.35,45.16,30.09,45,32,45s3.65.15,5.07-1.67c3.71-3.82,4.81-4.31,4.81-8.21a4.27,4.27,0,0,0,3.29-3.29C46.27,26.35,43.07,26.32,43,26.35Z" style="fill: none;stroke: #333;stroke-linejoin: round;stroke-width: 1.5px"/>
            <line x1="31.98" y1="35.01" x2="31.98" y2="36" style="fill: none;stroke: #977059;stroke-linecap: round;stroke-miterlimit: 10;stroke-width: 0.75px"/>
            <line x1="31.85" y1="42.77" x2="32.1" y2="42.77" style="fill: none;stroke: #977059;stroke-linecap: round;stroke-miterlimit: 10;stroke-width: 0.75px"/>
          </g>
          <path d="M24.38,27.46a6,6,0,0,1,1.45-.55,5.58,5.58,0,0,1,1.58-.09,9.72,9.72,0,0,1,2.82,1h0a.23.23,0,0,1,.12.3.24.24,0,0,1-.23.14A12.27,12.27,0,0,1,28.66,28c-.47-.09-.93-.14-1.37-.21a7.3,7.3,0,0,0-2.75.06h0a.24.24,0,0,1-.27-.18A.25.25,0,0,1,24.38,27.46Z" style="fill: #333"/>
          <path d="M39.32,27.89a7.29,7.29,0,0,0-2.75-.06c-.45.07-.9.12-1.37.21a12.27,12.27,0,0,1-1.48.26.22.22,0,0,1-.24-.22.23.23,0,0,1,.14-.23h0a9.72,9.72,0,0,1,2.82-1,6.43,6.43,0,0,1,1.58.09,5.18,5.18,0,0,1,1.45.55.23.23,0,0,1,.09.31.26.26,0,0,1-.26.12Z" style="fill: #333"/>
          <circle cx="27.45" cy="29.55" r="0.71" style="fill: #333"/>
          <circle cx="36.41" cy="29.55" r="0.71" style="fill: #333"/>
          <g>
            <line x1="25.04" y1="41.4" x2="25.04" y2="45.73" style="fill: none;stroke: #333;stroke-linejoin: round;stroke-width: 1.5px"/>
            <line x1="38.95" y1="41.4" x2="38.95" y2="45.77" style="fill: none;stroke: #333;stroke-linejoin: round;stroke-width: 1.5px"/>
          </g>
          <g>
            <path d="M52.38,57c-3.23-1.41-6.24-1.43-6.6-2.56a6.69,6.69,0,0,1,1-5.19c.84-1.12,2-2,2.65-2.77-1.56-.27-3.46-.5-5.8-.83-1.87,1.13-3.92,2.23-3-.42A10.33,10.33,0,0,0,39.41,45a8.86,8.86,0,0,1-14.88,0l-1.69.28c.48,1,1,2,.68,2.25s-1.66-.91-2.79-1.92c-3.11.45-5.47.71-7.29,1.08.79,1,1.94,2.37,2.56,3.19,1.31,1.73,3.13,4,2.84,4.87s-3.68-.31-5.77.32a2.48,2.48,0,0,0-1.77,1.8A63.71,63.71,0,0,0,32,60.48,63.77,63.77,0,0,0,52.38,57Z" style="fill: #cdf0cd"/>
            <path d="M52,57.15c-.24-.18-.47-.37-.7-.56-2.79-1-5.19-1.13-5.51-2.13a6.69,6.69,0,0,1,1-5.19c.84-1.12,2-2,2.65-2.77l-5.8-.83c-1.87,1.13-3.92,2.23-3-.42A10.33,10.33,0,0,0,39.41,45a8.63,8.63,0,0,1-8.15,4A9,9,0,0,1,32,52.73c0,.14,0,4.27,0,7.75A63.92,63.92,0,0,0,52,57.15Z" style="fill: #b9d8b9"/>
            <path d="M41.15,56c-.21-.65,1.36-1.92,2.28-3.14s.59-1.83.18-2.39-.65-.61-2.17-.08-3.95,2-4.49,1.58,1.2-3.2,1-5.48c-2.88,3.44-8.66,3.19-11.32.67,0,.79.06,3.5-.57,4S23.45,51.47,22,51s-2.58-1.85-3-1.28.89,1.39,1.86,2.67,1.45,2.84,1.24,3.49-1.94.46-3.42.91a2,2,0,0,0-1.6,1.91A62.48,62.48,0,0,0,32,60.49,62.66,62.66,0,0,0,48.29,58.3C45.05,55.88,41.43,56.85,41.15,56Z" style="fill: #ecd3bc"/>
            <path d="M41.15,56c-.21-.65,1.36-1.92,2.28-3.14s.59-1.83.18-2.39-.65-.61-2.17-.08-3.95,2-4.49,1.58,1.2-3.19,1-5.48c-1.45,1.73-3.64,2.82-7.08,2.48A8.73,8.73,0,0,1,32,52.75c0,.17,0,4.11,0,7.75a63.48,63.48,0,0,0,16.29-2.19C45.07,55.9,41.43,56.84,41.15,56Z" style="fill: #d4bea9"/>
            <path d="M41.43,59c0-1-3.58-1.3-3.78-1.89a2.81,2.81,0,0,1,.43-2.17c.57-.76.9-.63.66-1s-.62-1.13-1.52-.82-1.43,1.05-1.75.82.28-1,.3-1.91A1.74,1.74,0,0,0,32.56,51c-.52.74-.34,2.91-.75,2.91s-.59-1.92-1.1-2.66c-2.1-3-3-.46-3,.84,0,.91.91,1.93.6,2.16s-1-.88-1.89-1.17a2.6,2.6,0,0,0-2.34.35c-.24.33.53,1,1.1,1.8s1.31,1.65,1.18,2-1.54-.13-2.41.13-.8,1.2-.8,1.63a1.76,1.76,0,0,0,.15.87,62.8,62.8,0,0,0,8.66.61c2.12,0,4.14-.12,6.06-.31a6.79,6.79,0,0,1,1.29-.56C40.26,59.36,41.43,59.42,41.43,59Z" style="fill: #e5a1b5"/>
            <path d="M39.35,59.63c.9-.27,2.07-.21,2.07-.63,0-1-3.58-1.3-3.78-1.89a2.81,2.81,0,0,1,.43-2.17c.57-.76.9-.63.66-1s-.62-1.13-1.52-.82-1.43,1.05-1.75.82.28-1,.3-1.91A1.74,1.74,0,0,0,32.55,51,9.49,9.49,0,0,0,32,53.58c0,1.37,0,4.23,0,6.94h0c1.82,0,4-.11,6.06-.32A5.9,5.9,0,0,1,39.35,59.63Z" style="fill: #ce91a3"/>
          </g>
          <path d="M24.53,45C11,47.37,8.57,45.52,7,55c3.71,2.23,14.11,5.48,25,5.5S53.29,57.22,57,55c-1.57-9.47-4-7.65-17.59-10A8.86,8.86,0,0,1,24.53,45Z" style="fill: none;stroke: #333;stroke-linejoin: round;stroke-width: 1.5px"/>
          <path d="M32.66,37.07l-.54.28-.45-.1a2,2,0,0,0-1.22.12l-2,.89c1.47.65,2.11,1.44,2.83,1.42,0,0,1.1-.07,1.87-.15,1.08-.11,1.59-.89,2.67-2.32a5.94,5.94,0,0,1-2-.26A1.53,1.53,0,0,0,32.66,37.07Z" style="fill: #957058"/>
          <line x1="28.47" y1="37.85" x2="28.11" y2="38.76" style="fill: none;stroke: #977059;stroke-linecap: round;stroke-miterlimit: 10;stroke-width: 0.75px"/>
          <line x1="35.65" y1="36.84" x2="36.01" y2="37.65" style="fill: none;stroke: #977059;stroke-linecap: round;stroke-miterlimit: 10;stroke-width: 0.75px"/>
          <path d="M35.7,37.22a3.35,3.35,0,0,1-1.22.71s-6,.33-6,.32" style="fill: none;stroke: #674848;stroke-linecap: round;stroke-miterlimit: 10;stroke-width: 0.75px"/>
          <g>
            <g>
              <path d="M47.83,14.09a.25.25,0,0,0-.16-.38l-.74-.18a.66.66,0,0,1-.49-.86l.35-1.16a.32.32,0,0,0-.14-.36.35.35,0,0,0-.4,0,.71.71,0,0,1-1.06-.28l-1-2.29a.75.75,0,0,0-1.36,0L42.2,7.49A.72.72,0,0,0,41,7.4L40.53,8A.72.72,0,0,1,39.4,8l-.62-.83a.72.72,0,0,0-1.06-.09l-.19.18a.74.74,0,0,1-.8.13l-5.55-2.6a.7.7,0,0,0-1,.59v.48a.68.68,0,0,1-.7.66H27.91a.81.81,0,0,0-.83.79l-2.31-.62a.7.7,0,0,0-.85.42l-.22.61a.69.69,0,0,1-.66.44H20.15a.69.69,0,0,0-.67.48l-.68,2.26a.72.72,0,0,1-1,.25.33.33,0,0,0-.4,0,.3.3,0,0,0-.14.36l.35,1.16a.65.65,0,0,1-.49.86l-.74.18a.25.25,0,0,0-.16.38l1.71,2.57a.66.66,0,0,1,0,.61l-.36.57c-.16.26,2.47,2.22,2.69,2.44v4.32a3.73,3.73,0,0,1,2.32,3,8.74,8.74,0,0,1,1.42-4.3V21.1c0-3.38,8-3.29,8.11-3.29,3.19,0,8.11,1.16,8.11,3.29v2.2A10.08,10.08,0,0,1,42,27.48a2.93,2.93,0,0,1,1.71-2.8l.06-4.33c.22-.22,3-2.26,2.82-2.52l-.36-.57a.63.63,0,0,1,0-.61Z" style="fill: #3f3f3f"/>
              <path d="M47.83,14.09a.25.25,0,0,0-.16-.38l-.74-.18a.66.66,0,0,1-.49-.86l.35-1.16a.32.32,0,0,0-.14-.36.35.35,0,0,0-.4,0,.71.71,0,0,1-1.06-.28l-1-2.29a.74.74,0,0,0-.68-.43.73.73,0,0,0-.68.43L42.2,7.49A.72.72,0,0,0,41,7.4L40.53,8a.73.73,0,0,1-.93.16c-.21-.17-1-1.17-1-1.14a3.82,3.82,0,0,1-1.91.36c-1-.66-4-1.34-3.2.28l.07.08a.65.65,0,0,1-.91.92h0c-.63-.64-1.78-.17-1,.89l0,0,.62.82a.55.55,0,0,1-.11.78.56.56,0,0,1-.74-.06l0,0-.68-.71,0,0h0c-1.71-1.78-2.49-.38-2,.46l.6.65a.51.51,0,0,1-.71.73l0,0-.38-.33c-.36-.2-.95-.82-1.57-1.29l-.11-.05h0l-.42-.3c-1.61-.82-2.16,1.1-1.38,1.55a.54.54,0,0,1,.11.75.53.53,0,0,1-.7.14l0,0-.77-.46a.9.9,0,0,0-1,.07.67.67,0,0,0,0,1l.08.08a.65.65,0,0,1,0,.93.67.67,0,0,1-.86.06h0l-.24-.18a.83.83,0,0,0-.91,0c-.23.17,0,.79.09,1.14l.07.19,0,.07h0l0,.1a2.44,2.44,0,0,0,.1.24h0l.07.19a.58.58,0,0,1-.33.74.57.57,0,0,1-.71-.27h0l-.13-.24a1.61,1.61,0,0,0-.48-.55c-.69-.35-1.27.93-1.66,2.21a23.77,23.77,0,0,0,2.67,2.34v4.32a3.84,3.84,0,0,1,2.37,3.08c.29-3.13,1.36-4.38,1.36-4.38v-2.2c0-3.38,8-3.29,8.11-3.29,3.19,0,8.11,1.16,8.11,3.29v2.2a10.19,10.19,0,0,1,1.79,4,3.57,3.57,0,0,1,1.75-2.62l.06-4.33c.22-.22,3-2.26,2.82-2.52l-.36-.57a.63.63,0,0,1,0-.61ZM21.42,19.2a.4.4,0,0,1-.49-.22h0l-.41-.9h0a.47.47,0,1,1,.85-.39s0,0,0,0l.3,1A.39.39,0,0,1,21.42,19.2Zm.69,2.5a.24.24,0,0,1-.27-.17v0l-.28-.93v0a.3.3,0,1,1,.58-.18s0,0,0,0l.17,1A.23.23,0,0,1,22.11,21.7Zm2-5.55a.45.45,0,0,1-.58,0l0,0-.66-.68,0,0a.53.53,0,0,1,0-.75.53.53,0,0,1,.75,0l0,.06.61.86A.47.47,0,0,1,24.15,16.15Zm1.13,2.27a.25.25,0,0,1-.3-.09l-.54-.88a.32.32,0,1,1,.54-.34l0,0v0l.38.89v0A.24.24,0,0,1,25.28,18.42Zm1.46-4.08a.4.4,0,0,1-.52,0l0,0-.7-.66,0,0a.44.44,0,0,1,0-.63.43.43,0,0,1,.62,0l0,0,.68.78A.4.4,0,0,1,26.74,14.34Zm1.53,2.08a.25.25,0,0,1-.32-.05l-.63-.78a.3.3,0,0,1,.46-.38l0,0,.54.84A.23.23,0,0,1,28.27,16.42Zm2.57-2.05a.37.37,0,0,1-.49-.1l0,0-.57-.79,0,0a.42.42,0,1,1,.69-.49l0,0,.52.89A.36.36,0,0,1,30.84,14.37Zm1.26,2.29a.24.24,0,0,1-.32-.09l-.53-.85a.29.29,0,0,1,.49-.31l0,0,.44.89A.24.24,0,0,1,32.1,16.66Zm1.52-3.27a.41.41,0,0,1-.52-.12l0,0-.56-.8,0,0a.46.46,0,0,1,.75-.53l0,0,.49.91A.39.39,0,0,1,33.62,13.39Zm1,2.41a.25.25,0,0,1-.29-.14v0l-.36-.9v0a.3.3,0,0,1,.56-.22v0l.27,1A.25.25,0,0,1,34.58,15.8Zm.51-5a.52.52,0,0,1-.68-.11l0,0-.6-.76,0,0a.56.56,0,1,1,.89-.69l0,.05.55.87A.49.49,0,0,1,35.09,10.79ZM35.77,13v0l-.45-.86v0a.43.43,0,0,1,.76-.4l0,0,.38,1a.38.38,0,0,1-.21.49A.36.36,0,0,1,35.77,13Zm1.09,2.72a.23.23,0,0,1-.26-.18v-.05l-.22-.93v0a.29.29,0,1,1,.57-.13,0,0,0,0,0,0,0l.13,1A.24.24,0,0,1,36.86,15.68Zm.88-5.9v0l-.23-.49h0a.76.76,0,0,1,.37-1,.75.75,0,0,1,1,.37l0,.08.18.54a.72.72,0,0,1-1.34.53Zm.94,2.51v0l-.3-.92v0a.62.62,0,1,1,1.18-.38s0,.05,0,.07l.2,1a.56.56,0,0,1-1.08.28Zm1.16,4.33-.13,1a.24.24,0,0,1-.48,0h0v-1h0a.3.3,0,0,1,.3-.3.31.31,0,0,1,.3.3Zm-.27-1.38a.39.39,0,0,1-.4-.35v0l-.12-1v0a.46.46,0,0,1,.91-.11v1.08A.4.4,0,0,1,39.57,15.24Zm1.36-5.47-.13-.66h0a.75.75,0,0,1,1.47-.29s0,0,0,.06l.07.69a.71.71,0,0,1-.64.79.7.7,0,0,1-.78-.56Zm.27,1.68a.64.64,0,0,1,1.28-.16v.06l0,1a.6.6,0,0,1-1.2.1v0l-.12-1ZM42,19.68l-.21,1a.26.26,0,0,1-.29.19.25.25,0,0,1-.19-.26h0l.12-1h0a.29.29,0,1,1,.57.07S42,19.67,42,19.68Zm.4-2.76-.11,1a.36.36,0,0,1-.72-.05h0l0-1h0a.42.42,0,0,1,.41-.4.41.41,0,0,1,.4.41Zm.12-1.77a.49.49,0,0,1-.5.47.48.48,0,0,1-.46-.45v0l0-1h0a.52.52,0,0,1,.5-.55.53.53,0,0,1,.55.5v.05Z" style="fill: #333"/>
              <path d="M41.59,27.47a4.05,4.05,0,0,1,.52-1.79,4.49,4.49,0,0,1,1.32-1.32l-.18.33V20.34a.41.41,0,0,1,.14-.31c.4-.35.69-.57,1-.85l1-.81c.16-.14.31-.27.45-.41l.19-.2,0-.06s0,0,0,.09,0,0,0,.07a.62.62,0,0,0,0,.18l0,.08h0v0l-.35-.54a1.18,1.18,0,0,1-.09-1.11l0-.07,1-1.57.51-.79.13-.2c0-.07,0,0,0,.06a.43.43,0,0,0,0,.16.31.31,0,0,0,.17.21c.07,0,0,0,0,0l-.11,0-.46-.11-.12,0-.2-.07a1.38,1.38,0,0,1-.36-.23,1.22,1.22,0,0,1-.39-.77,1.07,1.07,0,0,1,0-.44l.08-.26.26-.89s0-.12,0-.07a.2.2,0,0,0,0,.11.29.29,0,0,0,.1.18.26.26,0,0,0,.32,0l0,0a1.33,1.33,0,0,1-1.19.17,1.31,1.31,0,0,1-.53-.34,1.78,1.78,0,0,1-.29-.46L44,9.79l-.28-.62-.15-.3s0,0,0,0-.18,0-.17,0a.53.53,0,0,1-.95.45l-.22-.39L41.72,8s-.11-.21-.1-.18h0a.08.08,0,0,0,0,0l0,0-.33.43L41,8.5a1.49,1.49,0,0,1-.41.34,1.42,1.42,0,0,1-1,.13,1.49,1.49,0,0,1-.48-.22,1.12,1.12,0,0,1-.2-.18l-.13-.16L38.48,8l-.26-.34s0,0,0,0h0L38,7.82a1.35,1.35,0,0,1-.44.29,1.49,1.49,0,0,1-1,0A2,2,0,0,1,36.24,8L36,7.9,32.09,6.09l-1-.48-.24-.11h0s0,0,0-.07v.47a1.44,1.44,0,0,1-1.45,1.42h0l-.18,0-1.88-.56.92-.45-.51,1.34h0a.75.75,0,0,1-.89.45l-2.3-.64s0,0,0,0l-.15.32-.06.16a1.91,1.91,0,0,1-.1.23,1.39,1.39,0,0,1-1.11.75h-.77l-2.31,0-.71,2.25h0a.42.42,0,0,1,0,.1,1.36,1.36,0,0,1-2,.48l-.05,0a.27.27,0,0,0,.35,0,.3.3,0,0,0,.11-.19.48.48,0,0,0,0-.12s0,.05,0,.07l.26.89.08.26a1.35,1.35,0,0,1,0,.45,1.19,1.19,0,0,1-.4.78,1.16,1.16,0,0,1-.36.23l-.2.07-.12,0-.46.1-.11,0s-.09,0,0,0a.33.33,0,0,0,.18-.22.48.48,0,0,0,0-.17s-.07-.13,0-.07l.13.2.51.79,1,1.58,0,.07a1.17,1.17,0,0,1-.07,1.09l-.35.53,0,0v0h0a.2.2,0,0,0,0-.08.55.55,0,0,0,0-.17.2.2,0,0,0,0-.07.73.73,0,0,0,0-.08s0,0,0,0l.17.19.43.4c.3.27.62.53.93.79s.61.49,1,.83a.43.43,0,0,1,.14.31v0l-.07,4.32-.22-.36a5.14,5.14,0,0,1,1.71,1.35,4.76,4.76,0,0,1,.81,2,.34.34,0,0,1-.27.4.35.35,0,0,1-.4-.26,4.07,4.07,0,0,0-.73-1.7A4.23,4.23,0,0,0,20,25a.38.38,0,0,1-.22-.35h0l-.07-4.32.14.33-.94-.74c-.33-.26-.66-.52-1-.79l-.49-.44a3.45,3.45,0,0,1-.25-.27,1,1,0,0,1-.16-.24A.81.81,0,0,1,17,18a.34.34,0,0,1,0-.1.56.56,0,0,1,0-.21l.05-.1v0l0,0L17.4,17a.09.09,0,0,0,0-.1l0,.07-1.06-1.55-.53-.78-.13-.19a.81.81,0,0,1-.13-.27.68.68,0,0,1,0-.4.84.84,0,0,1,.48-.57.73.73,0,0,1,.2-.06l.11,0,.45-.12.11,0h0l0,0s0,0,0,0l-.07-.2-.29-.91-.05-.16a.87.87,0,0,1,0-.36,1,1,0,0,1,.35-.59,1,1,0,0,1,1.22,0l0,0s.12,0,.11,0l0,.1.38-1.33.19-.66a3.68,3.68,0,0,1,.12-.39,1.33,1.33,0,0,1,.41-.55,1.43,1.43,0,0,1,.6-.28,1.89,1.89,0,0,1,.3,0H23s0,0,0,0l.2-.57a1.39,1.39,0,0,1,1-.9,1.42,1.42,0,0,1,.68,0l.37.09.67.17,1.34.34-.9.46.51-1.34a.75.75,0,0,1,.92-.45l1.88.56-.21,0s-.05,0-.05.08V5.48s0-.09,0-.2a1.38,1.38,0,0,1,.55-1A1.47,1.47,0,0,1,31,4a1.59,1.59,0,0,1,.51.14l.24.11,1,.46L36.6,6.57l.42.2h0s0,0,0,0l.22-.2a1.44,1.44,0,0,1,1-.35,1.42,1.42,0,0,1,1,.41,3.7,3.7,0,0,1,.24.29l.16.22.32.43,0,.05h0l.16-.19L40.49,7a1.39,1.39,0,0,1,1.86-.29,1.22,1.22,0,0,1,.37.38c.11.18.1.19.16.29l.51,1-1.16.05a1.4,1.4,0,0,1,2.15-.51,1.32,1.32,0,0,1,.39.51l.14.32.27.63.54,1.26c.06.15.05.1.05.12l0,0a.11.11,0,0,0,.11,0h-.06a.93.93,0,0,1,1.52.54.83.83,0,0,1,0,.35l0,.16L47,12.7l-.06.19v0L47,13l0,0h0l.11,0,.46.11.11,0,.2.06a.82.82,0,0,1,.47.55.86.86,0,0,1,0,.39.81.81,0,0,1-.13.27l-.13.19-.53.78L46.54,17l0-.07a.09.09,0,0,0,0,.11l.34.54v0s0,.07,0,.1a.44.44,0,0,1,0,.22.36.36,0,0,1,0,.1.56.56,0,0,1-.1.23,1,1,0,0,1-.15.19,3.19,3.19,0,0,1-.26.26c-.17.16-.34.3-.5.44-.34.28-.67.55-1,.81l-1,.75.14-.32L44,24.67h0a.35.35,0,0,1-.18.31,3,3,0,0,0-1.6,2.52.34.34,0,0,1-.38.3A.3.3,0,0,1,41.59,27.47Z" style="fill: #333"/>
            </g>
            <path d="M22.18,27.68a8.25,8.25,0,0,1,.26-2.42,7.06,7.06,0,0,1,.41-1.17A4.88,4.88,0,0,1,23.52,23l-.13.34,0-1.45,0-.73a2.67,2.67,0,0,1,.14-.92,3,3,0,0,1,1.09-1.41A6,6,0,0,1,26,18a18,18,0,0,1,5.94-1,15.91,15.91,0,0,1,5.93,1.1,7.48,7.48,0,0,1,1.4.73,3.43,3.43,0,0,1,1.2,1.27,2.06,2.06,0,0,1,.22,1l0,.73,0,1.45L40.49,23a9.53,9.53,0,0,1,1.26,2.09,5.82,5.82,0,0,1,.53,2.42.33.33,0,0,1-.35.33.34.34,0,0,1-.33-.32h0a5.1,5.1,0,0,0-.63-2,9.43,9.43,0,0,0-1.24-1.8.47.47,0,0,1-.12-.31v0l0-1.45,0-.73a.9.9,0,0,0-.13-.42,4,4,0,0,0-2-1.28,18.53,18.53,0,0,0-5.45-.86,17.78,17.78,0,0,0-5.48.7,3,3,0,0,0-1.87,1.35,1.35,1.35,0,0,0-.11.5l0,.73,0,1.45h0a.49.49,0,0,1-.13.33,4.66,4.66,0,0,0-.57.85,6.85,6.85,0,0,0-.43,1,8,8,0,0,0-.39,2.18.34.34,0,0,1-.35.33A.35.35,0,0,1,22.18,27.68Z" style="fill: #333"/>
          </g>
          <g>
            <path d="M19.91,20.54v4.59a.73.73,0,0,0,.94.7A38.83,38.83,0,0,1,32,24.46a37.62,37.62,0,0,1,11,1.36.72.72,0,0,0,.94-.7V20.55a.72.72,0,0,0-.3-.59A21.09,21.09,0,0,0,32,16.14,19.78,19.78,0,0,0,20.19,20,.74.74,0,0,0,19.91,20.54Z" style="fill: #439155"/>
            <g>
              <path d="M27.92,20.26a4.35,4.35,0,0,1,2.57-4.05c-.43,0-.85.07-1.26.13A4.74,4.74,0,0,0,27.93,18a2.36,2.36,0,0,1,.16-1.47l-.48.11a3.27,3.27,0,0,0,0,1.66,2.48,2.48,0,0,0-1.24,2,2.49,2.49,0,0,0,1.23,2,2.63,2.63,0,0,0,.4,2.33l.06.05.76-.05a1.3,1.3,0,0,1-.53-.32,2.06,2.06,0,0,1-.33-1.74,4.75,4.75,0,0,0,1.8,2l1.27,0A4.28,4.28,0,0,1,27.92,20.26Zm-1.18,0a2,2,0,0,1,.89-1.48,5.52,5.52,0,0,0-.23,1.48,5.22,5.22,0,0,0,.24,1.49A2,2,0,0,1,26.74,20.26Z" style="fill: #82ce91"/>
              <path d="M35.88,18a4.75,4.75,0,0,0-1.31-1.68c-.42-.06-.86-.11-1.3-.15a4.32,4.32,0,0,1,2.61,4.06,4.27,4.27,0,0,1-3.07,4.21l1.28,0a4.7,4.7,0,0,0,1.79-2,2.06,2.06,0,0,1-.33,1.74,1.24,1.24,0,0,1-.53.32l.76.05.06-.05a2.62,2.62,0,0,0,.4-2.33,2.47,2.47,0,0,0,1.22-1.95,2.49,2.49,0,0,0-1.23-2,3.36,3.36,0,0,0,0-1.65l-.48-.11A2.37,2.37,0,0,1,35.88,18Zm.29.75a1.94,1.94,0,0,1,.89,1.48,2,2,0,0,1-.9,1.49,5.29,5.29,0,0,0,.24-1.5A5.51,5.51,0,0,0,36.17,18.78Z" style="fill: #82ce91"/>
            </g>
            <g>
              <path d="M30.26,20.48h-.15a.22.22,0,0,1-.21-.22.21.21,0,0,1,.21-.22h.15a.22.22,0,0,1,0,.44Z" style="fill: #82ce91"/>
              <path d="M30.25,21.23a.2.2,0,0,1-.19-.14.23.23,0,0,1,.11-.29l.13-.06a.21.21,0,0,1,.27.12.23.23,0,0,1-.11.29l-.13.06Z" style="fill: #82ce91"/>
              <path d="M30.63,21.86a.19.19,0,0,1-.15-.07.24.24,0,0,1,0-.32l.1-.11a.19.19,0,0,1,.29,0,.24.24,0,0,1,0,.32l-.1.11A.15.15,0,0,1,30.63,21.86Z" style="fill: #82ce91"/>
              <path d="M31.21,22.28l-.08,0A.24.24,0,0,1,31,22l.06-.15a.2.2,0,0,1,.27-.12.24.24,0,0,1,.11.29l-.06.15A.2.2,0,0,1,31.21,22.28Z" style="fill: #82ce91"/>
              <path d="M31.9,22.43a.22.22,0,0,1-.21-.22v-.16a.21.21,0,0,1,.21-.22.22.22,0,0,1,.21.22v.16A.23.23,0,0,1,31.9,22.43Z" style="fill: #82ce91"/>
              <path d="M32.58,22.28a.2.2,0,0,1-.19-.14L32.33,22a.23.23,0,0,1,.11-.29.2.2,0,0,1,.27.12l.06.15a.23.23,0,0,1-.11.29A.11.11,0,0,1,32.58,22.28Z" style="fill: #82ce91"/>
              <path d="M33.16,21.86a.19.19,0,0,1-.15-.07l-.1-.11a.24.24,0,0,1,0-.32.19.19,0,0,1,.29,0l.1.11a.24.24,0,0,1,0,.32A.15.15,0,0,1,33.16,21.86Z" style="fill: #82ce91"/>
              <path d="M33.55,21.23l-.08,0-.14-.06a.24.24,0,0,1-.11-.29.2.2,0,0,1,.27-.12l.14.06a.24.24,0,0,1,.11.29A.21.21,0,0,1,33.55,21.23Z" style="fill: #82ce91"/>
              <path d="M33.69,20.48h-.15a.22.22,0,0,1-.21-.22.21.21,0,0,1,.21-.22h.15a.22.22,0,0,1,0,.44Z" style="fill: #82ce91"/>
              <path d="M33.42,19.79a.2.2,0,0,1-.19-.14.23.23,0,0,1,.11-.29l.14-.06a.2.2,0,0,1,.27.12.23.23,0,0,1-.11.29l-.14.06A.13.13,0,0,1,33.42,19.79Z" style="fill: #82ce91"/>
              <path d="M33.06,19.21a.19.19,0,0,1-.15-.07.24.24,0,0,1,0-.32l.1-.11a.19.19,0,0,1,.29,0,.24.24,0,0,1,0,.32l-.1.11A.17.17,0,0,1,33.06,19.21Z" style="fill: #82ce91"/>
              <path d="M32.53,18.83l-.08,0a.24.24,0,0,1-.11-.29l.06-.15a.2.2,0,0,1,.27-.12.24.24,0,0,1,.11.29l-.06.15A.23.23,0,0,1,32.53,18.83Z" style="fill: #82ce91"/>
              <path d="M31.9,18.69a.22.22,0,0,1-.21-.22v-.16a.21.21,0,0,1,.21-.22.22.22,0,0,1,.21.22v.16A.23.23,0,0,1,31.9,18.69Z" style="fill: #82ce91"/>
              <path d="M31.27,18.83a.2.2,0,0,1-.19-.14L31,18.54a.23.23,0,0,1,.11-.29.21.21,0,0,1,.27.12l.06.15a.23.23,0,0,1-.11.29Z" style="fill: #82ce91"/>
              <path d="M30.74,19.21a.19.19,0,0,1-.15-.07l-.1-.11a.24.24,0,0,1,0-.32.19.19,0,0,1,.29,0l.1.11a.24.24,0,0,1,0,.32A.17.17,0,0,1,30.74,19.21Z" style="fill: #82ce91"/>
              <path d="M30.38,19.79l-.08,0-.13-.06a.24.24,0,0,1-.11-.29.2.2,0,0,1,.27-.12l.13.06a.24.24,0,0,1,.11.29A.2.2,0,0,1,30.38,19.79Z" style="fill: #82ce91"/>
              <path d="M35.19,20H34.7a3.58,3.58,0,0,0-.13-.74l.45-.21a.24.24,0,0,0,.11-.29.2.2,0,0,0-.27-.12l-.45.2a2.79,2.79,0,0,0-.38-.62l.35-.38a.24.24,0,0,0,0-.32.19.19,0,0,0-.29,0l-.35.38a3.35,3.35,0,0,0-.57-.42l.19-.49a.23.23,0,0,0-.11-.29.2.2,0,0,0-.27.12l-.19.49a2.58,2.58,0,0,0-.68-.15v-.54a.21.21,0,0,0-.21-.22.22.22,0,0,0-.21.22v.54a2.58,2.58,0,0,0-.68.15l-.19-.49a.2.2,0,0,0-.27-.12.23.23,0,0,0-.11.29l.19.49a2.33,2.33,0,0,0-.57.42l-.35-.38a.19.19,0,0,0-.29,0,.24.24,0,0,0,0,.32l.35.38a3,3,0,0,0-.38.62l-.45-.2a.2.2,0,0,0-.27.12.23.23,0,0,0,.11.29l.45.2a3,3,0,0,0-.13.74h-.49a.22.22,0,0,0-.21.22.21.21,0,0,0,.21.22h.49a3.58,3.58,0,0,0,.13.74l-.45.2a.24.24,0,0,0-.11.29.2.2,0,0,0,.19.14l.08,0,.45-.2a2.79,2.79,0,0,0,.38.62l-.35.38a.24.24,0,0,0,0,.32.21.21,0,0,0,.15.07.19.19,0,0,0,.15-.07l.35-.38a3.35,3.35,0,0,0,.57.42l-.19.49a.23.23,0,0,0,.11.29l.08,0a.2.2,0,0,0,.19-.14l.19-.49a2.58,2.58,0,0,0,.68.15v.54a.21.21,0,0,0,.21.22.22.22,0,0,0,.21-.22v-.54a2.67,2.67,0,0,0,.68-.15l.19.49a.2.2,0,0,0,.19.14l.08,0a.24.24,0,0,0,.11-.29L33.18,23a2.33,2.33,0,0,0,.57-.42l.35.38a.21.21,0,0,0,.15.07.18.18,0,0,0,.15-.07.24.24,0,0,0,0-.32l-.35-.38a3,3,0,0,0,.38-.62l.45.2.08,0a.2.2,0,0,0,.19-.14A.23.23,0,0,0,35,21.4l-.45-.21a3,3,0,0,0,.13-.74h.49a.22.22,0,0,0,.21-.22A.27.27,0,0,0,35.19,20ZM31.9,22.82a2.58,2.58,0,0,1,0-5.14,2.47,2.47,0,0,1,2.35,2.57A2.47,2.47,0,0,1,31.9,22.82Z" style="fill: #82ce91"/>
            </g>
            <path d="M31.9,21.36a1.1,1.1,0,1,1,1-1.1A1.05,1.05,0,0,1,31.9,21.36Zm0-1.76a.65.65,0,1,0,.6.65A.63.63,0,0,0,31.9,19.6Z" style="fill: #82ce91"/>
            <g>
              <path d="M39.06,23.11A4.28,4.28,0,0,1,42,19c-.36-.21-.78-.43-1.23-.65a1.89,1.89,0,0,0-1.64.51,2.62,2.62,0,0,0-.4,2.34,2.48,2.48,0,0,0-1.24,2,2.32,2.32,0,0,0,1,1.75c.36.05.71.1,1,.16A4.69,4.69,0,0,1,39.06,23.11Zm-1.18,0a2,2,0,0,1,.89-1.48,5.08,5.08,0,0,0-.23,1.47,5.22,5.22,0,0,0,.24,1.49A1.93,1.93,0,0,1,37.88,23.12Zm1.52-4a1.65,1.65,0,0,1,1.6-.36,4.66,4.66,0,0,0-1.93,2.09A2,2,0,0,1,39.4,19.13Z" style="fill: #82ce91"/>
              <g>
                <path d="M41.39,23.34h-.15a.22.22,0,0,1-.21-.22.21.21,0,0,1,.21-.22h.15a.22.22,0,0,1,.21.22A.21.21,0,0,1,41.39,23.34Z" style="fill: #82ce91"/>
                <path d="M41.38,24.08a.2.2,0,0,1-.19-.14.23.23,0,0,1,.11-.29l.13-.06a.21.21,0,0,1,.27.12.23.23,0,0,1-.11.29l-.13.06A.11.11,0,0,1,41.38,24.08Z" style="fill: #82ce91"/>
                <path d="M41.77,24.72a.19.19,0,0,1-.15-.07.24.24,0,0,1,0-.32l.1-.11a.19.19,0,0,1,.29,0,.24.24,0,0,1,0,.32l-.1.11A.19.19,0,0,1,41.77,24.72Z" style="fill: #82ce91"/>
                <path d="M42.35,25.14l-.08,0a.24.24,0,0,1-.11-.29l.06-.15a.2.2,0,0,1,.27-.12.24.24,0,0,1,.11.29l-.06.15A.2.2,0,0,1,42.35,25.14Z" style="fill: #82ce91"/>
                <path d="M43,25.29a.22.22,0,0,1-.21-.22v-.16a.21.21,0,0,1,.21-.22.22.22,0,0,1,.21.22v.16A.23.23,0,0,1,43,25.29Z" style="fill: #82ce91"/>
                <path d="M43.72,25.14a.2.2,0,0,1-.19-.14l-.06-.15a.23.23,0,0,1,.11-.29.2.2,0,0,1,.27.12l.06.15a.23.23,0,0,1-.11.29Z" style="fill: #82ce91"/>
                <path d="M43.66,21.68l-.08,0a.24.24,0,0,1-.11-.29l.06-.15a.2.2,0,0,1,.27-.12.24.24,0,0,1,.11.29l-.06.15A.19.19,0,0,1,43.66,21.68Z" style="fill: #82ce91"/>
                <path d="M43,21.54a.22.22,0,0,1-.21-.22v-.16a.21.21,0,0,1,.21-.22.22.22,0,0,1,.21.22v.16A.23.23,0,0,1,43,21.54Z" style="fill: #82ce91"/>
                <path d="M42.41,21.68a.2.2,0,0,1-.19-.14l-.06-.15a.23.23,0,0,1,.11-.29.21.21,0,0,1,.27.12l.06.15a.23.23,0,0,1-.11.29A.13.13,0,0,1,42.41,21.68Z" style="fill: #82ce91"/>
                <path d="M41.88,22.07a.19.19,0,0,1-.15-.07l-.1-.11a.24.24,0,0,1,0-.32.19.19,0,0,1,.29,0l.1.11A.24.24,0,0,1,42,22,.17.17,0,0,1,41.88,22.07Z" style="fill: #82ce91"/>
                <path d="M41.52,22.65l-.08,0-.13-.06a.24.24,0,0,1-.11-.29.2.2,0,0,1,.27-.12l.13.06a.24.24,0,0,1,.11.29A.2.2,0,0,1,41.52,22.65Z" style="fill: #82ce91"/>
                <path d="M43.67,26.07a1.74,1.74,0,0,0,.22-.05v-.53a2.23,2.23,0,0,1-.85.18,2.58,2.58,0,0,1,0-5.14,2.19,2.19,0,0,1,.85.18v-.53a2.79,2.79,0,0,0-.65-.14v-.33l-.39-.26s0,0,0,.05V20a2.58,2.58,0,0,0-.68.15L42,19.7a.2.2,0,0,0-.27-.12.23.23,0,0,0-.11.29l.19.49a2.33,2.33,0,0,0-.57.42l-.35-.38a.19.19,0,0,0-.29,0,.24.24,0,0,0,0,.32l.35.38a3,3,0,0,0-.38.62l-.45-.2a.2.2,0,0,0-.27.12.23.23,0,0,0,.11.29l.45.2a3,3,0,0,0-.13.74h-.49a.22.22,0,0,0-.21.22.21.21,0,0,0,.21.22h.49a3.58,3.58,0,0,0,.13.74l-.45.2a.24.24,0,0,0-.11.29.2.2,0,0,0,.19.14l.08,0,.45-.2a2.79,2.79,0,0,0,.38.62l-.14.16A22.42,22.42,0,0,1,43.67,26.07Z" style="fill: #82ce91"/>
              </g>
              <path d="M43,24.21a1.1,1.1,0,1,1,1-1.1A1.05,1.05,0,0,1,43,24.21Zm0-1.75a.65.65,0,1,0,.6.65A.63.63,0,0,0,43,22.46Z" style="fill: #82ce91"/>
            </g>
            <g>
              <path d="M22.27,18.93l-.36-.1c-.26.15-.51.3-.72.44a4.19,4.19,0,0,1,3.69,4.31A4.45,4.45,0,0,1,24.64,25l.55-.08a4.92,4.92,0,0,0,.2-1.33,5.08,5.08,0,0,0-.23-1.47,1.94,1.94,0,0,1,.89,1.48,1.8,1.8,0,0,1-.69,1.3l.64-.08a2,2,0,0,0,.46-1.22,2.49,2.49,0,0,0-1.23-2,2.61,2.61,0,0,0-.4-2.34,2.11,2.11,0,0,0-2.14-.44,2.93,2.93,0,0,0-.24-.34l-.36.2A.72.72,0,0,1,22.27,18.93Zm2.29.67a2.08,2.08,0,0,1,.33,1.74A4.78,4.78,0,0,0,23,19.24,1.67,1.67,0,0,1,24.56,19.6Z" style="fill: #82ce91"/>
              <g>
                <path d="M20.22,25.6l-.08,0a.24.24,0,0,1-.11-.29l.06-.15a.2.2,0,0,1,.27-.12.24.24,0,0,1,.11.29l-.06.15A.21.21,0,0,1,20.22,25.6Z" style="fill: #82ce91"/>
                <path d="M20.9,25.75a.22.22,0,0,1-.21-.22v-.16a.21.21,0,0,1,.21-.22.22.22,0,0,1,.21.22v.16A.22.22,0,0,1,20.9,25.75Z" style="fill: #82ce91"/>
                <path d="M21.59,25.6a.2.2,0,0,1-.19-.14l-.06-.15a.23.23,0,0,1,.11-.29.2.2,0,0,1,.27.12l.06.15a.23.23,0,0,1-.11.29Z" style="fill: #82ce91"/>
                <path d="M22.17,25.18a.19.19,0,0,1-.15-.07l-.1-.11a.24.24,0,0,1,0-.32.19.19,0,0,1,.29,0l.1.11a.24.24,0,0,1,0,.32A.21.21,0,0,1,22.17,25.18Z" style="fill: #82ce91"/>
                <path d="M22.55,24.54l-.08,0-.14-.06a.24.24,0,0,1-.11-.29.2.2,0,0,1,.27-.12l.14.06a.24.24,0,0,1,.11.29A.2.2,0,0,1,22.55,24.54Z" style="fill: #82ce91"/>
                <path d="M22.69,23.8h-.15a.22.22,0,0,1-.21-.22.21.21,0,0,1,.21-.22h.15a.22.22,0,0,1,0,.44Z" style="fill: #82ce91"/>
                <path d="M22.42,23.11a.2.2,0,0,1-.19-.14.23.23,0,0,1,.11-.29l.14-.06a.2.2,0,0,1,.27.12.23.23,0,0,1-.11.29l-.14.06A.13.13,0,0,1,22.42,23.11Z" style="fill: #82ce91"/>
                <path d="M22.06,22.53a.19.19,0,0,1-.15-.07.24.24,0,0,1,0-.32L22,22a.19.19,0,0,1,.29,0,.24.24,0,0,1,0,.32l-.1.11A.16.16,0,0,1,22.06,22.53Z" style="fill: #82ce91"/>
                <path d="M21.53,22.14l-.08,0a.24.24,0,0,1-.11-.29l.06-.15a.2.2,0,0,1,.27-.12.24.24,0,0,1,.11.29l-.06.15A.2.2,0,0,1,21.53,22.14Z" style="fill: #82ce91"/>
                <path d="M20.9,22a.22.22,0,0,1-.21-.22v-.16a.21.21,0,0,1,.21-.22.22.22,0,0,1,.21.22v.16A.22.22,0,0,1,20.9,22Z" style="fill: #82ce91"/>
                <path d="M20.27,22.14a.2.2,0,0,1-.19-.14L20,21.85a.23.23,0,0,1,.11-.29.21.21,0,0,1,.27.12l.06.15a.23.23,0,0,1-.11.29A.11.11,0,0,1,20.27,22.14Z" style="fill: #82ce91"/>
                <g>
                  <path d="M19.91,25.89v.27l.35-.13A1.83,1.83,0,0,1,19.91,25.89Z" style="fill: #82ce91"/>
                  <path d="M24.19,23.35H23.7a3.58,3.58,0,0,0-.13-.74L24,22.4a.24.24,0,0,0,.11-.29.2.2,0,0,0-.27-.12l-.45.2a2.79,2.79,0,0,0-.38-.62l.35-.38a.24.24,0,0,0,0-.32.19.19,0,0,0-.29,0l-.35.38a3.35,3.35,0,0,0-.57-.42l.19-.49a.23.23,0,0,0-.11-.29.2.2,0,0,0-.27.12l-.19.49a2.58,2.58,0,0,0-.68-.15V20a.21.21,0,1,0-.42,0v.54a2.58,2.58,0,0,0-.68.15l-.11-.3v.89a2.12,2.12,0,0,1,1-.25,2.47,2.47,0,0,1,2.35,2.57,2.66,2.66,0,0,1-.69,1.81l.66-.14c.06-.1.13-.19.18-.29l.4.18.28-.05,0,0a.23.23,0,0,0-.11-.29l-.45-.21a3,3,0,0,0,.13-.74h.49a.22.22,0,0,0,.21-.22A.21.21,0,0,0,24.19,23.35Z" style="fill: #82ce91"/>
                </g>
              </g>
              <path d="M20.9,24.68a1.1,1.1,0,1,1,1-1.1A1.05,1.05,0,0,1,20.9,24.68Zm0-1.76a.65.65,0,1,0,.6.65A.63.63,0,0,0,20.9,22.92Z" style="fill: #82ce91"/>
            </g>
            <path d="M32,16.15A19.73,19.73,0,0,0,20.17,20a.65.65,0,0,0-.26.53V25.2a.67.67,0,0,0,.87.65A38.44,38.44,0,0,1,32,24.46a37.26,37.26,0,0,1,11,1.38.68.68,0,0,0,.88-.65V20.53a.67.67,0,0,0-.28-.55A21.25,21.25,0,0,0,32,16.15Z" style="fill: none;stroke: #333;stroke-linejoin: round;stroke-width: 1.5px"/>
          </g>
          <g>
            <path d="M35,41.31a1.39,1.39,0,0,1-1-.36,2.52,2.52,0,0,0-1.67-.7h-.79a2.53,2.53,0,0,0-1.67.71,1.43,1.43,0,0,1-1,.35c-.8,0-1.15-.4-1.76-1.63a.26.26,0,0,0-.49.11v3.65c1.67,2,4,1.55,5.28,1.54s3.61.42,5.28-1.54V39.78a.26.26,0,0,0-.49-.11C36.12,41,35.8,41.31,35,41.31Z" style="fill: #333"/>
            <path d="M35.19,35.07H28.82a2.15,2.15,0,0,0-2,1.77h3.65A1.94,1.94,0,0,0,32,35.78a1.94,1.94,0,0,0,1.58,1.06h3.65A2.17,2.17,0,0,0,35.19,35.07Z" style="fill: #333"/>
          </g>
          <path d="M29.28,34.12a2.67,2.67,0,0,1,1.31.34h0a2.75,2.75,0,0,0,2.61,0h0a2.75,2.75,0,0,1,1.31-.34" style="fill: none;stroke: #674848;stroke-linecap: round;stroke-miterlimit: 10;stroke-width: 0.75px"/>
        </g>
      </g>
    </g>
  </g>
</svg>
