<svg xmlns="http://www.w3.org/2000/svg" width="64" height="64" viewBox="0 0 64 64">
  <title>young-hippies-white-male</title>
  <g id="young-hippies-white-male">
    <g id="young-hippies-white-male-2" data-name="young-hippies-white-male">
      <g id="Icons">
        <g>
          <path d="M51.5,44.25C44.39,43.11,40.8,42.51,39,42.19V38.66H25.05V42.2c-1.92.33-5.55.93-12.55,2-5,.81-5.38,7.25-5.5,8,2,1.22,11.78,5.48,25,5.5s23-4.28,25-5.5C56.88,51.51,56.54,45.06,51.5,44.25Z" style="fill: #d8b3ad"/>
          <path d="M24.53,42.29c-13.54,2.34-16,.5-17.53,10,3.71,2.23,14.11,5.48,25,5.5s21.29-3.27,25-5.5c-1.57-9.47-4-7.65-17.59-10A8.85,8.85,0,0,1,24.53,42.29Z" style="fill: #a8c2ff"/>
          <g>
            <line x1="25.04" y1="38.66" x2="25.04" y2="42.99" style="fill: none;stroke: #333;stroke-linejoin: round;stroke-width: 1.5px"/>
            <line x1="38.95" y1="38.66" x2="38.95" y2="43.03" style="fill: none;stroke: #333;stroke-linejoin: round;stroke-width: 1.5px"/>
          </g>
          <g>
            <path d="M52.38,54.28c-3.23-1.41-6.24-1.43-6.6-2.56a6.69,6.69,0,0,1,1-5.19c.84-1.12,2-2,2.65-2.77-1.56-.27-3.46-.5-5.8-.83-1.87,1.13-3.92,2.23-3-.42a10.33,10.33,0,0,0-1.22-.25,8.86,8.86,0,0,1-14.88,0l-1.69.28c.48,1,1,2,.68,2.25s-1.66-.91-2.79-1.92c-3.11.45-5.47.71-7.29,1.08.79,1,1.94,2.37,2.56,3.19,1.31,1.73,3.13,4,2.84,4.87s-3.68-.31-5.77.32a2.48,2.48,0,0,0-1.77,1.8A63.71,63.71,0,0,0,32,57.74,63.77,63.77,0,0,0,52.38,54.28Z" style="fill: #cdf0cd"/>
            <path d="M52,54.41c-.24-.18-.47-.37-.7-.56-2.79-1-5.19-1.13-5.51-2.13a6.69,6.69,0,0,1,1-5.19c.84-1.12,2-2,2.65-2.77l-5.8-.83c-1.87,1.13-3.92,2.23-3-.42a10.33,10.33,0,0,0-1.22-.25,8.63,8.63,0,0,1-8.15,4A9,9,0,0,1,32,50c0,.14,0,4.27,0,7.75A63.92,63.92,0,0,0,52,54.41Z" style="fill: #b9d8b9"/>
            <path d="M41.15,53.23c-.21-.65,1.36-1.92,2.28-3.14s.59-1.83.18-2.39-.65-.61-2.17-.08-3.95,2-4.49,1.58,1.2-3.2,1-5.48c-2.88,3.44-8.66,3.19-11.32.67,0,.79.06,3.5-.57,4s-2.63.38-4.09-.13-2.58-1.85-3-1.28.89,1.39,1.86,2.67,1.45,2.84,1.24,3.49-1.94.46-3.42.91a2,2,0,0,0-1.6,1.91A62.48,62.48,0,0,0,32,57.75a62.66,62.66,0,0,0,16.29-2.19C45.05,53.14,41.43,54.11,41.15,53.23Z" style="fill: #ecd3bc"/>
            <path d="M41.15,53.23c-.21-.65,1.36-1.92,2.28-3.14s.59-1.83.18-2.39-.65-.61-2.17-.08-3.95,2-4.49,1.58,1.2-3.19,1-5.48c-1.45,1.73-3.64,2.82-7.08,2.48A8.73,8.73,0,0,1,32,50c0,.17,0,4.11,0,7.75a63.48,63.48,0,0,0,16.29-2.19C45.07,53.16,41.43,54.1,41.15,53.23Z" style="fill: #d4bea9"/>
            <path d="M41.43,56.26c0-1-3.58-1.3-3.78-1.89a2.81,2.81,0,0,1,.43-2.17c.57-.76.9-.63.66-1s-.62-1.13-1.52-.82-1.43,1-1.75.82.28-1,.3-1.91a1.74,1.74,0,0,0-3.21-1.08c-.52.74-.34,2.91-.75,2.91s-.59-1.92-1.1-2.66c-2.1-3-3-.46-3,.84,0,.91.91,1.93.6,2.16s-1-.88-1.89-1.17a2.6,2.6,0,0,0-2.34.35c-.24.33.53,1,1.1,1.8s1.31,1.65,1.18,2-1.54-.13-2.41.13-.8,1.2-.8,1.63a1.76,1.76,0,0,0,.15.87,62.8,62.8,0,0,0,8.66.61c2.12,0,4.14-.12,6.06-.31a6.79,6.79,0,0,1,1.29-.56C40.26,56.62,41.43,56.68,41.43,56.26Z" style="fill: #e5a1b5"/>
            <path d="M39.35,56.89c.9-.27,2.07-.21,2.07-.63,0-1-3.58-1.3-3.78-1.89a2.81,2.81,0,0,1,.43-2.17c.57-.76.9-.63.66-1s-.62-1.13-1.52-.82-1.43,1-1.75.82.28-1,.3-1.91a1.74,1.74,0,0,0-3.21-1.08A9.49,9.49,0,0,0,32,50.84c0,1.37,0,4.23,0,6.94h0c1.82,0,4-.11,6.06-.32A5.9,5.9,0,0,1,39.35,56.89Z" style="fill: #ce91a3"/>
          </g>
          <path d="M24.53,42.29c-13.54,2.34-16,.5-17.53,10,3.71,2.23,14.11,5.48,25,5.5s21.29-3.27,25-5.5c-1.57-9.47-4-7.65-17.59-10A8.85,8.85,0,0,1,24.53,42.29Z" style="fill: none;stroke: #333;stroke-linejoin: round;stroke-width: 1.5px"/>
          <g>
            <path d="M23.52,34.28a4.28,4.28,0,0,0-1.12-7A4.28,4.28,0,0,0,20.34,33a4.33,4.33,0,0,0,.94,1.3,4.28,4.28,0,0,0-.17,6l.17.17a4.28,4.28,0,0,0-1,4.67,2.31,2.31,0,0,0,3,1.31,2.34,2.34,0,0,0,1.31-1.31,4.28,4.28,0,0,0-1-4.69,4.28,4.28,0,0,0,.17-6l-.17-.17Z" style="fill: #333"/>
            <path d="M22,45.56a4.25,4.25,0,0,1,.41-3.94,1.36,1.36,0,0,0,0-1.5,4.27,4.27,0,0,1,0-4.7,1.36,1.36,0,0,0,0-1.5,4.23,4.23,0,0,1-.72-2.36,4.3,4.3,0,0,1,1.8-3.5,4.33,4.33,0,0,0-1.12-.78A4.28,4.28,0,0,0,20.34,33a4.33,4.33,0,0,0,.94,1.3,4.28,4.28,0,0,0-.17,6l.17.17a4.28,4.28,0,0,0-1,4.67,2.28,2.28,0,0,0,2.58,1.42A2.31,2.31,0,0,1,22,45.56Z" style="fill: #614938"/>
            <path d="M23.52,34.28a4.28,4.28,0,0,0-1.12-7A4.28,4.28,0,0,0,20.34,33a4.33,4.33,0,0,0,.94,1.3,4.28,4.28,0,0,0-.17,6l.17.17a4.28,4.28,0,0,0-1,4.67,2.31,2.31,0,0,0,3,1.31,2.34,2.34,0,0,0,1.31-1.31,4.28,4.28,0,0,0-1-4.69,4.28,4.28,0,0,0,.17-6l-.17-.17Z" style="fill: none;stroke: #333;stroke-linecap: round;stroke-linejoin: round;stroke-width: 1.5px"/>
            <path d="M22.08,40.16a1.23,1.23,0,0,0-.88.4" style="fill: none;stroke: #333;stroke-linejoin: round;stroke-width: 1.5px"/>
            <path d="M22.08,34a1.23,1.23,0,0,0-.88.4" style="fill: none;stroke: #333;stroke-linejoin: round;stroke-width: 1.5px"/>
            <path d="M22.4,47a7,7,0,0,0-3.3,3.31,2,2,0,0,0,1.83,2.91h2.94a2,2,0,0,0,2-2,2.22,2.22,0,0,0-.15-.8A6.92,6.92,0,0,0,22.4,47Z" style="fill: #333"/>
            <path d="M20.87,52a6.93,6.93,0,0,1,3.3-3.31,6.62,6.62,0,0,1,.9.5A6.83,6.83,0,0,0,22.4,47a7,7,0,0,0-3.3,3.31A2,2,0,0,0,20,53a2,2,0,0,0,.67.19A2.15,2.15,0,0,1,20.87,52Z" style="fill: #614938"/>
            <path d="M22.4,47a7,7,0,0,0-3.3,3.31,2,2,0,0,0,1.83,2.91h2.94a2,2,0,0,0,2-2,2.22,2.22,0,0,0-.15-.8A6.92,6.92,0,0,0,22.4,47Z" style="fill: none;stroke: #333;stroke-linecap: round;stroke-linejoin: round;stroke-width: 1.5px"/>
            <path d="M21.09,46.11h2.65a.5.5,0,0,1,.5.5V47a.5.5,0,0,1-.5.5H21.09a.5.5,0,0,1-.5-.5v-.37A.51.51,0,0,1,21.09,46.11Z" style="fill: none;stroke: #333;stroke-linecap: round;stroke-linejoin: round;stroke-width: 1.5px"/>
            <path d="M40.9,34.28a4.28,4.28,0,0,1,1.12-7A4.28,4.28,0,0,1,44.08,33a4.33,4.33,0,0,1-.94,1.3,4.28,4.28,0,0,1,.17,6l-.17.17a4.28,4.28,0,0,1,1,4.67,2.31,2.31,0,0,1-3,1.31,2.34,2.34,0,0,1-1.31-1.31,4.28,4.28,0,0,1,1-4.69,4.28,4.28,0,0,1-.17-6l.17-.17Z" style="fill: #614938"/>
            <path d="M42.4,45.56a4.28,4.28,0,0,0-.4-3.94,1.36,1.36,0,0,1,0-1.5,4.27,4.27,0,0,0,0-4.7,1.36,1.36,0,0,1,0-1.5,4.23,4.23,0,0,0,.72-2.36,4.3,4.3,0,0,0-1.8-3.5A4.33,4.33,0,0,1,42,27.28,4.28,4.28,0,0,1,44.1,33a4.33,4.33,0,0,1-.94,1.3,4.28,4.28,0,0,1,.17,6l-.17.17a4.28,4.28,0,0,1,1,4.67,2.28,2.28,0,0,1-2.58,1.42A2.44,2.44,0,0,0,42.4,45.56Z" style="fill: #333"/>
            <path d="M40.9,34.28a4.28,4.28,0,0,1,1.12-7A4.28,4.28,0,0,1,44.08,33a4.33,4.33,0,0,1-.94,1.3,4.28,4.28,0,0,1,.17,6l-.17.17a4.28,4.28,0,0,1,1,4.67,2.31,2.31,0,0,1-3,1.31,2.34,2.34,0,0,1-1.31-1.31,4.28,4.28,0,0,1,1-4.69,4.28,4.28,0,0,1-.17-6l.17-.17Z" style="fill: none;stroke: #333;stroke-linecap: round;stroke-linejoin: round;stroke-width: 1.5px"/>
            <path d="M42.34,40.16a1.23,1.23,0,0,1,.88.4" style="fill: none;stroke: #333;stroke-linejoin: round;stroke-width: 1.5px"/>
            <path d="M42.34,34a1.23,1.23,0,0,1,.88.4" style="fill: none;stroke: #333;stroke-linejoin: round;stroke-width: 1.5px"/>
            <path d="M42,47a7,7,0,0,1,3.3,3.31,2,2,0,0,1-1.83,2.91h-3a2,2,0,0,1-2-2,2.22,2.22,0,0,1,.15-.8A7,7,0,0,1,42,47Z" style="fill: #614938"/>
            <path d="M43.55,52a6.93,6.93,0,0,0-3.3-3.31,6.62,6.62,0,0,0-.9.5A6.83,6.83,0,0,1,42,47a6.91,6.91,0,0,1,3.29,3.31A2,2,0,0,1,44.37,53a2,2,0,0,1-.67.19A2,2,0,0,0,43.55,52Z" style="fill: #333"/>
            <path d="M42,47a7,7,0,0,1,3.3,3.31,2,2,0,0,1-1.83,2.91h-3a2,2,0,0,1-2-2,2.22,2.22,0,0,1,.15-.8A7,7,0,0,1,42,47Z" style="fill: none;stroke: #333;stroke-linecap: round;stroke-linejoin: round;stroke-width: 1.5px"/>
            <path d="M43.33,47.48H40.68a.5.5,0,0,1-.5-.5v-.37a.5.5,0,0,1,.5-.5h2.65a.5.5,0,0,1,.5.5V47A.5.5,0,0,1,43.33,47.48Z" style="fill: none;stroke: #333;stroke-linecap: round;stroke-linejoin: round;stroke-width: 1.5px"/>
          </g>
          <g>
            <path d="M43,23.62v-2.2c0-6-2.09-12.08-11-12.08S21,15.47,21,21.42v2.2c-.09,0-3.29,0-2.2,5.49a4.27,4.27,0,0,0,3.29,3.29c0,3.9,1.1,4.39,4.81,8.21,1.43,1.82,3.17,1.67,5.07,1.67s3.65.15,5.07-1.67c3.71-3.82,4.81-4.31,4.81-8.21a4.27,4.27,0,0,0,3.29-3.29C46.27,23.62,43.07,23.58,43,23.62Z" style="fill: #eed1c9"/>
            <path d="M23.63,31.3A3.67,3.67,0,0,1,22.11,28V25.32a2.44,2.44,0,0,0-1.46-1.65c-.83.17-2.72,1-1.83,5.45a4.27,4.27,0,0,0,3.29,3.29c0,3.3.8,4.17,3.29,6.68V35.71A5.22,5.22,0,0,0,23.63,31.3Z" style="fill: #e5c2ba"/>
            <path d="M45.17,29.11c1.1-5.49-2.11-5.52-2.2-5.49v-2.2c0-6-2.09-12.08-11-12.08a15.39,15.39,0,0,0-2.92.26v12A3.9,3.9,0,0,1,27.8,24.5a.45.45,0,0,0,.2.77c1.5.43,2.3.71,3.23.47.31-.08.86.27.86.59V27.9a1.69,1.69,0,0,0,.64,1.4,1.1,1.1,0,0,1-.64,2c-.81,0-1.1-.55-2.2-.55-.65,0-.55.85-.57.82a2.38,2.38,0,0,1,1.1.29,3.38,3.38,0,0,0,1.65.43V35.6a1.91,1.91,0,0,0,1.25,1.76A1.55,1.55,0,0,1,34.26,39c0,3-5.43-.3-5.43,3v0a9.89,9.89,0,0,0,3.16.29c1.9,0,3.65.15,5.07-1.67,3.71-3.82,4.81-4.31,4.81-8.21A4.29,4.29,0,0,0,45.17,29.11Z" style="fill: #e5c2ba"/>
            <path d="M43,23.61a2.18,2.18,0,0,0-1.12,1.87V28a3.64,3.64,0,0,1-1.52,3.29,5.24,5.24,0,0,0-1.78,4.39v3.38c2.5-2.51,3.29-3.38,3.29-6.68a4.27,4.27,0,0,0,3.29-3.29C46.24,23.79,43.28,23.59,43,23.61Z" style="fill: #d8b3ad"/>
            <path d="M43,23.62v-2.2c0-6-2.09-12.08-11-12.08S21,15.47,21,21.42v2.2c-.09,0-3.29,0-2.2,5.49a4.63,4.63,0,0,0,3.29,3.58c0,3.9,1.1,4.11,4.81,7.93,1.43,1.82,3.17,1.67,5.07,1.67s3.65.15,5.07-1.67c3.71-3.82,4.81-4,4.81-7.93a4.62,4.62,0,0,0,3.29-3.58C46.27,23.62,43.07,23.58,43,23.62Z" style="fill: none;stroke: #333;stroke-linejoin: round;stroke-width: 1.5px"/>
            <line x1="31.98" y1="32.04" x2="31.98" y2="32.92" style="fill: none;stroke: #ddb7b1;stroke-linecap: round;stroke-miterlimit: 10;stroke-width: 0.75px"/>
            <path d="M32.52,34.36l-.54.28-.45-.1a2,2,0,0,0-1.22.12l-2,.89c1.47.65,2.11,1.29,2.83,1.27,0,0,1.1-.07,1.87-.15,1.08-.11,1.59-.75,2.67-2.18a5.94,5.94,0,0,1-2-.26A1.63,1.63,0,0,0,32.52,34.36Z" style="fill: #d8b4ad"/>
            <line x1="28.32" y1="35.14" x2="27.97" y2="36.05" style="fill: none;stroke: #ddb7b1;stroke-linecap: round;stroke-miterlimit: 10;stroke-width: 0.75px"/>
            <line x1="35.51" y1="34.13" x2="35.87" y2="34.94" style="fill: none;stroke: #ddb7b1;stroke-linecap: round;stroke-miterlimit: 10;stroke-width: 0.75px"/>
            <path d="M35.56,34.51a3.35,3.35,0,0,1-1.22.71s-6,.33-6,.32" style="fill: none;stroke: #a3837c;stroke-linecap: round;stroke-miterlimit: 10;stroke-width: 0.75px"/>
          </g>
          <path d="M24.38,24.32a6,6,0,0,1,1.45-.55,5.58,5.58,0,0,1,1.58-.09,9.72,9.72,0,0,1,2.82,1h0a.23.23,0,0,1,.12.3.24.24,0,0,1-.23.14,12.27,12.27,0,0,1-1.48-.26c-.47-.09-.93-.14-1.37-.21a7.3,7.3,0,0,0-2.75.06h0a.24.24,0,0,1-.27-.18A.26.26,0,0,1,24.38,24.32Z" style="fill: #333"/>
          <path d="M39.32,24.75a7.29,7.29,0,0,0-2.75-.06c-.45.07-.9.12-1.37.21a12.27,12.27,0,0,1-1.48.26.22.22,0,0,1-.24-.22.23.23,0,0,1,.14-.23h0a9.72,9.72,0,0,1,2.82-1,6.43,6.43,0,0,1,1.58.09,5.18,5.18,0,0,1,1.45.55.23.23,0,0,1-.17.43Z" style="fill: #333"/>
          <g>
            <path d="M22.64,26.11s.07-.07,0,0Z" style="fill: #565454"/>
            <path d="M38.64,10.78c0,.07,0-.06,0,0Z" style="fill: #565454"/>
          </g>
          <g>
            <polygon points="20.17 25.03 20.16 25.02 20.16 25.03 20.17 25.03" style="fill: #6b7278"/>
            <path d="M43.06,14.86h0S43.05,14.83,43.06,14.86Z" style="fill: #6b7278"/>
          </g>
          <g>
            <path d="M32,7.77c-8,0-11.83,5.32-11.83,9.45,0,2.62,1.33,6.81,1.33,9.51,0-7.14,5.57-6.36,10.5-9,5.37,3.28,10.5,1.1,10.5,9,.21-3.61,1.33-6.85,1.33-9.51C43.83,13.09,40,7.77,32,7.77Z" style="fill: #614938"/>
            <path d="M21.16,25.62a5.1,5.1,0,0,1,1-3.6,8.22,8.22,0,0,1,3.1-2.1c1.1-.49,2.2-.9,3.26-1.36s2.08-1,3.07-1.54a.79.79,0,0,1,.73,0h0c1,.53,2,1,3.08,1.51s2.15.88,3.25,1.38a8.22,8.22,0,0,1,3.1,2.1,4.41,4.41,0,0,1,.88,1.74c.06.31.11.63.14.94v.93a.35.35,0,0,1-.34.35.34.34,0,0,1-.35-.33v0a4.46,4.46,0,0,0-1.1-2.95,7.34,7.34,0,0,0-2.83-1.61,38.78,38.78,0,0,1-6.6-2.72h.74a46.93,46.93,0,0,1-6.61,2.71,7.19,7.19,0,0,0-2.82,1.62,4.3,4.3,0,0,0-1.1,2.95.34.34,0,0,1-.67,0Z" style="fill: #333"/>
          </g>
          <path d="M22.08,16a8.44,8.44,0,0,1,9-6C29,11.16,27.07,11.19,22.08,16Z" style="fill: #333"/>
          <path d="M43.24,14.11a12,12,0,0,0-6.63-3.28,16.57,16.57,0,0,1,3.32,2.25,7.75,7.75,0,0,1,1.69,2,7.68,7.68,0,0,0-1.92-1.67,19.14,19.14,0,0,0-4.61-2.06c-.45-.14-.9-.24-1.35-.36a.41.41,0,0,1-.05.09,25.61,25.61,0,0,1,6.82,5.64A25.46,25.46,0,0,0,32.63,12,28.54,28.54,0,0,1,37,16.86a27.37,27.37,0,0,0-5.89-4.39A16.81,16.81,0,0,0,24.26,19,17.65,17.65,0,0,1,28,13.08c-3.53,1.83-5.69,4.26-7,10.12l.49,3.53c0-7.53,6.11-6.15,10.5-9,5.72,3.28,10.5,2.66,10.5,9C42.5,23.12,45.06,17.43,43.24,14.11Z" style="fill: #333"/>
          <path d="M42.16,26.73a17,17,0,0,1,.41-3.37c.21-1.09.41-2.16.55-3.24a18.39,18.39,0,0,0,.16-3.22,8.2,8.2,0,0,0-.76-3,8.55,8.55,0,0,0-1.78-2.51,10.09,10.09,0,0,0-2.56-1.72A15.43,15.43,0,0,0,32,8.51a15.37,15.37,0,0,0-6.15,1.2,10,10,0,0,0-2.55,1.71,8.6,8.6,0,0,0-1.78,2.49,8.11,8.11,0,0,0-.77,3,18.4,18.4,0,0,0,.14,3.22c.23,2.16.94,4.28.95,6.61a.34.34,0,0,1-.68,0v0a16.28,16.28,0,0,0-.55-3.19c-.27-1.07-.52-2.17-.7-3.28a19.18,19.18,0,0,1-.27-3.4,9.49,9.49,0,0,1,.75-3.44,9.68,9.68,0,0,1,2-3,11.2,11.2,0,0,1,2.88-2A15.5,15.5,0,0,1,32,7a15.56,15.56,0,0,1,6.75,1.44,11.35,11.35,0,0,1,2.87,2,9.81,9.81,0,0,1,2,2.93,9.41,9.41,0,0,1,.77,3.43,19.18,19.18,0,0,1-.26,3.4c-.33,2.23-1.15,4.35-1.25,6.47h0a.34.34,0,0,1-.36.32A.32.32,0,0,1,42.16,26.73Z" style="fill: #333"/>
          <g>
            <path d="M20.06,17.6v5.47S24,21.51,32.15,21.51,44,23.07,44,23.07V17.6a22.23,22.23,0,0,0-11.89-3.71A20.56,20.56,0,0,0,20.06,17.6Z" style="fill: #439155"/>
            <g>
              <path d="M28.08,17.66A4,4,0,0,1,30.65,14q-.64,0-1.26.12a4.43,4.43,0,0,0-1.3,1.52,2,2,0,0,1,.16-1.35l-.48.1a2.75,2.75,0,0,0,0,1.52,2.26,2.26,0,0,0-1.24,1.8,2.27,2.27,0,0,0,1.23,1.8,2.26,2.26,0,0,0,.4,2.14l.06,0,.76,0a1.25,1.25,0,0,1-.53-.29,1.76,1.76,0,0,1-.33-1.59,4.49,4.49,0,0,0,1.8,1.84c.41,0,.84,0,1.27,0A4,4,0,0,1,28.08,17.66Zm-1.18,0a1.75,1.75,0,0,1,.89-1.35,4.3,4.3,0,0,0-.23,1.35A4.48,4.48,0,0,0,27.8,19,1.8,1.8,0,0,1,26.9,17.67Z" style="fill: #82ce91"/>
              <path d="M36,15.62a4.44,4.44,0,0,0-1.31-1.54c-.42-.06-.86-.1-1.3-.13A4,4,0,0,1,33,21.53l1.28,0A4.49,4.49,0,0,0,36,19.71a1.79,1.79,0,0,1-.33,1.6,1.19,1.19,0,0,1-.53.29l.76,0,.06,0a2.23,2.23,0,0,0,.4-2.13,2.23,2.23,0,0,0,1.22-1.79,2.27,2.27,0,0,0-1.23-1.8,2.82,2.82,0,0,0,0-1.51l-.48-.1A2,2,0,0,1,36,15.62Zm.28.69a1.77,1.77,0,0,1,.89,1.36,1.77,1.77,0,0,1-.9,1.37,4.49,4.49,0,0,0,.24-1.38A4.35,4.35,0,0,0,36.32,16.31Z" style="fill: #82ce91"/>
            </g>
            <g>
              <path d="M30.42,17.87h-.15a.21.21,0,0,1,0-.42h.15a.21.21,0,0,1,.21.21A.22.22,0,0,1,30.42,17.87Z" style="fill: #82ce91"/>
              <path d="M30.41,18.55a.21.21,0,0,1-.19-.13.22.22,0,0,1,.11-.27l.13-.06a.21.21,0,0,1,.16.38l-.13.06A.13.13,0,0,1,30.41,18.55Z" style="fill: #82ce91"/>
              <path d="M30.79,19.13a.22.22,0,0,1-.15-.06.21.21,0,0,1,0-.29l.1-.1A.21.21,0,0,1,31,19l-.1.1A.17.17,0,0,1,30.79,19.13Z" style="fill: #82ce91"/>
              <path d="M31.37,19.52l-.08,0a.21.21,0,0,1-.11-.27l.06-.14a.21.21,0,0,1,.38.16l-.06.14A.21.21,0,0,1,31.37,19.52Z" style="fill: #82ce91"/>
              <path d="M32.06,19.66a.21.21,0,0,1-.21-.21V19.3a.21.21,0,0,1,.42,0v.15A.23.23,0,0,1,32.06,19.66Z" style="fill: #82ce91"/>
              <path d="M32.74,19.52a.21.21,0,0,1-.19-.13l-.06-.14a.21.21,0,0,1,.38-.16l.06.14a.21.21,0,0,1-.11.27A.12.12,0,0,1,32.74,19.52Z" style="fill: #82ce91"/>
              <path d="M33.32,19.13a.22.22,0,0,1-.15-.06l-.1-.1a.21.21,0,0,1,.29-.29l.1.1a.21.21,0,0,1,0,.29A.18.18,0,0,1,33.32,19.13Z" style="fill: #82ce91"/>
              <path d="M33.71,18.55l-.08,0-.14-.06a.21.21,0,0,1-.11-.27.2.2,0,0,1,.27-.11l.14.06a.21.21,0,0,1,.11.27A.21.21,0,0,1,33.71,18.55Z" style="fill: #82ce91"/>
              <path d="M33.85,17.87H33.7a.21.21,0,0,1,0-.42h.15a.21.21,0,0,1,.21.21A.22.22,0,0,1,33.85,17.87Z" style="fill: #82ce91"/>
              <path d="M33.57,17.24a.21.21,0,0,1-.19-.13.21.21,0,0,1,.11-.27l.14-.06a.21.21,0,0,1,.27.11.21.21,0,0,1-.11.27l-.14.06Z" style="fill: #82ce91"/>
              <path d="M33.22,16.71a.22.22,0,0,1-.15-.06.21.21,0,0,1,0-.29l.1-.1a.21.21,0,0,1,.29.29l-.1.1A.2.2,0,0,1,33.22,16.71Z" style="fill: #82ce91"/>
              <path d="M32.69,16.35l-.08,0a.21.21,0,0,1-.11-.27l.06-.13a.21.21,0,0,1,.38.16l-.06.13A.22.22,0,0,1,32.69,16.35Z" style="fill: #82ce91"/>
              <path d="M32.06,16.23a.21.21,0,0,1-.21-.21v-.15a.21.21,0,0,1,.42,0V16A.23.23,0,0,1,32.06,16.23Z" style="fill: #82ce91"/>
              <path d="M31.43,16.35a.21.21,0,0,1-.19-.13l-.06-.13a.21.21,0,1,1,.38-.16l.06.13a.22.22,0,0,1-.11.27A.13.13,0,0,1,31.43,16.35Z" style="fill: #82ce91"/>
              <path d="M30.9,16.71a.22.22,0,0,1-.15-.06l-.1-.1a.21.21,0,0,1,.29-.29l.1.1a.21.21,0,0,1,0,.29A.2.2,0,0,1,30.9,16.71Z" style="fill: #82ce91"/>
              <path d="M30.54,17.24l-.08,0-.13-.06a.21.21,0,0,1,.16-.38l.13.06a.21.21,0,0,1,.11.27A.21.21,0,0,1,30.54,17.24Z" style="fill: #82ce91"/>
              <path d="M35.35,17.46h-.49a3,3,0,0,0-.13-.68l.45-.19a.21.21,0,1,0-.16-.38l-.45.19a2.46,2.46,0,0,0-.38-.57l.35-.35a.21.21,0,0,0-.29-.29l-.35.35a2.7,2.7,0,0,0-.57-.38l.19-.45a.21.21,0,0,0-.38-.16L33,15a2.56,2.56,0,0,0-.68-.13v-.5a.21.21,0,0,0-.21-.21.21.21,0,0,0-.21.21v.49a3,3,0,0,0-.68.13L31,14.54a.21.21,0,0,0-.27-.11.2.2,0,0,0-.11.27l.19.45a2.46,2.46,0,0,0-.57.38l-.35-.35a.21.21,0,0,0-.29.29l.35.35a2.7,2.7,0,0,0-.38.57l-.45-.19a.21.21,0,0,0-.27.11.21.21,0,0,0,.11.27l.45.19a2.56,2.56,0,0,0-.13.68h-.49a.21.21,0,0,0,0,.42h.49a3.14,3.14,0,0,0,.13.68l-.45.19a.21.21,0,0,0-.11.27.21.21,0,0,0,.19.13l.08,0,.45-.19a2.46,2.46,0,0,0,.38.57l-.35.35a.21.21,0,0,0,.15.35.22.22,0,0,0,.15-.06l.35-.35a2.7,2.7,0,0,0,.57.38l-.19.45a.22.22,0,0,0,.11.27l.08,0a.21.21,0,0,0,.19-.13l.19-.45a2.56,2.56,0,0,0,.68.13V21a.21.21,0,0,0,.21.21.21.21,0,0,0,.21-.21v-.49a3.14,3.14,0,0,0,.68-.13l.19.45a.21.21,0,0,0,.19.13l.08,0a.21.21,0,0,0,.11-.27l-.19-.45a2.46,2.46,0,0,0,.57-.38l.35.35a.21.21,0,0,0,.3-.29l-.35-.35a2.7,2.7,0,0,0,.38-.57l.45.19.08,0a.21.21,0,0,0,.19-.13.21.21,0,0,0-.11-.27l-.45-.19a2.56,2.56,0,0,0,.13-.68h.49a.21.21,0,0,0,.21-.21A.25.25,0,0,0,35.35,17.46ZM32.06,20a2.35,2.35,0,1,1,2.35-2.35A2.35,2.35,0,0,1,32.06,20Z" style="fill: #82ce91"/>
            </g>
            <path d="M32.06,18.67a1,1,0,1,1,1-1A1,1,0,0,1,32.06,18.67Zm0-1.61a.6.6,0,1,0,.6.6A.6.6,0,0,0,32.06,17.06Z" style="fill: #82ce91"/>
            <g>
              <path d="M39.22,20.28a4,4,0,0,1,2.92-3.82c-.36-.19-.78-.39-1.23-.59a2,2,0,0,0-1.64.47,2.24,2.24,0,0,0-.4,2.15,2.26,2.26,0,0,0-1.24,1.8,2.1,2.1,0,0,0,1,1.61l1,.14A4,4,0,0,1,39.22,20.28Zm-1.18,0a1.75,1.75,0,0,1,.89-1.35,4.3,4.3,0,0,0-.23,1.35,4.48,4.48,0,0,0,.24,1.37A1.8,1.8,0,0,1,38,20.29Zm1.52-3.66a1.78,1.78,0,0,1,1.6-.33,4.47,4.47,0,0,0-1.93,1.92A1.73,1.73,0,0,1,39.56,16.63Z" style="fill: #82ce91"/>
              <g>
                <path d="M41.55,20.49H41.4a.21.21,0,0,1,0-.42h.15a.21.21,0,0,1,0,.42Z" style="fill: #82ce91"/>
                <path d="M41.54,21.17a.21.21,0,0,1-.19-.13.22.22,0,0,1,.11-.27l.13-.06a.21.21,0,1,1,.16.38l-.13.06A.11.11,0,0,1,41.54,21.17Z" style="fill: #82ce91"/>
                <path d="M41.93,21.75a.22.22,0,0,1-.15-.06.21.21,0,0,1,0-.29l.1-.1a.21.21,0,1,1,.29.29l-.1.1A.18.18,0,0,1,41.93,21.75Z" style="fill: #82ce91"/>
                <path d="M42.51,22.14l-.08,0a.21.21,0,0,1-.11-.27l.06-.14a.21.21,0,1,1,.38.16L42.7,22A.21.21,0,0,1,42.51,22.14Z" style="fill: #82ce91"/>
                <path d="M43.2,22.27a.21.21,0,0,1-.21-.21v-.15a.21.21,0,1,1,.42,0v.15A.22.22,0,0,1,43.2,22.27Z" style="fill: #82ce91"/>
                <path d="M43.88,22.14a.21.21,0,0,1-.19-.13l-.06-.14a.21.21,0,0,1,.38-.16l.06.14a.21.21,0,0,1-.11.27Z" style="fill: #82ce91"/>
                <path d="M43.82,19l-.08,0a.21.21,0,0,1-.11-.27l.06-.13a.21.21,0,0,1,.38.16l-.06.13A.21.21,0,0,1,43.82,19Z" style="fill: #82ce91"/>
                <path d="M43.2,18.84a.21.21,0,0,1-.21-.21v-.15a.21.21,0,0,1,.42,0v.15A.22.22,0,0,1,43.2,18.84Z" style="fill: #82ce91"/>
                <path d="M42.57,19a.21.21,0,0,1-.19-.13l-.06-.13a.21.21,0,1,1,.38-.16l.06.13a.22.22,0,0,1-.11.27Z" style="fill: #82ce91"/>
                <path d="M42,19.33a.22.22,0,0,1-.15-.06l-.1-.1a.21.21,0,1,1,.29-.29l.1.1a.21.21,0,0,1,0,.29A.17.17,0,0,1,42,19.33Z" style="fill: #82ce91"/>
                <path d="M41.68,19.86l-.08,0-.13-.06a.21.21,0,0,1,.16-.38l.13.06a.21.21,0,0,1,.11.27A.21.21,0,0,1,41.68,19.86Z" style="fill: #82ce91"/>
                <path d="M43.83,23l.22,0v-.48a2.43,2.43,0,0,1-.85.17,2.35,2.35,0,0,1,0-4.7,2.19,2.19,0,0,1,.85.17v-.49a2.78,2.78,0,0,0-.65-.13v-.3L43,17s0,0,0,0v.49a3,3,0,0,0-.68.13l-.19-.45a.21.21,0,0,0-.27-.11.2.2,0,0,0-.11.27l.19.44a2.46,2.46,0,0,0-.57.38L41,17.8a.21.21,0,1,0-.29.29l.35.35a2.7,2.7,0,0,0-.38.57l-.45-.19a.21.21,0,0,0-.27.11.21.21,0,0,0,.11.27l.45.19a2.56,2.56,0,0,0-.13.68h-.5a.21.21,0,0,0,0,.42h.49a3.14,3.14,0,0,0,.13.68l-.45.19a.21.21,0,0,0-.11.27.21.21,0,0,0,.19.13l.08,0,.45-.19a2.46,2.46,0,0,0,.38.57l-.14.14A21.64,21.64,0,0,1,43.83,23Z" style="fill: #82ce91"/>
              </g>
              <path d="M43.2,21.29a1,1,0,1,1,1-1A1,1,0,0,1,43.2,21.29Zm0-1.61a.6.6,0,1,0,.6.6A.6.6,0,0,0,43.2,19.68Z" style="fill: #82ce91"/>
            </g>
            <g>
              <path d="M22.43,16.45l-.36-.09-.72.4A4,4,0,0,1,25,20.71,3.75,3.75,0,0,1,24.8,22l.55-.07a4.16,4.16,0,0,0,.2-1.22,4.35,4.35,0,0,0-.23-1.35,1.77,1.77,0,0,1,.89,1.36,1.6,1.6,0,0,1-.69,1.19l.64-.07a1.75,1.75,0,0,0,.46-1.12,2.27,2.27,0,0,0-1.23-1.8,2.25,2.25,0,0,0-.4-2.15,2.25,2.25,0,0,0-2.14-.4,2.55,2.55,0,0,0-.24-.31l-.36.18A.86.86,0,0,1,22.43,16.45Zm2.28.61a1.78,1.78,0,0,1,.33,1.6,4.53,4.53,0,0,0-1.92-1.93A1.79,1.79,0,0,1,24.71,17.06Z" style="fill: #82ce91"/>
              <g>
                <path d="M20.38,22.56l-.08,0a.21.21,0,0,1-.11-.27l.06-.14a.21.21,0,0,1,.38.16l-.06.14A.22.22,0,0,1,20.38,22.56Z" style="fill: #82ce91"/>
                <path d="M21.06,22.7a.21.21,0,0,1-.21-.21v-.15a.21.21,0,0,1,.42,0v.15A.21.21,0,0,1,21.06,22.7Z" style="fill: #82ce91"/>
                <path d="M21.74,22.56a.21.21,0,0,1-.19-.13l-.06-.14a.21.21,0,1,1,.38-.16l.06.14a.21.21,0,0,1-.11.27A.11.11,0,0,1,21.74,22.56Z" style="fill: #82ce91"/>
                <path d="M22.32,22.17a.22.22,0,0,1-.15-.06l-.1-.1a.21.21,0,0,1,.29-.29l.1.1a.21.21,0,0,1,0,.29A.17.17,0,0,1,22.32,22.17Z" style="fill: #82ce91"/>
                <path d="M22.71,21.59l-.08,0-.14-.06a.21.21,0,0,1-.11-.27.2.2,0,0,1,.27-.11l.14.06a.21.21,0,0,1,.11.27A.19.19,0,0,1,22.71,21.59Z" style="fill: #82ce91"/>
                <path d="M22.85,20.91H22.7a.21.21,0,0,1,0-.42h.15a.21.21,0,0,1,.21.21A.22.22,0,0,1,22.85,20.91Z" style="fill: #82ce91"/>
                <path d="M22.58,20.28a.21.21,0,0,1-.19-.13.21.21,0,0,1,.11-.27l.14-.06a.21.21,0,0,1,.27.11.21.21,0,0,1-.11.27l-.14.06A.13.13,0,0,1,22.58,20.28Z" style="fill: #82ce91"/>
                <path d="M22.22,19.75a.22.22,0,0,1-.15-.06.21.21,0,0,1,0-.29l.1-.1a.21.21,0,0,1,.29.29l-.1.1A.18.18,0,0,1,22.22,19.75Z" style="fill: #82ce91"/>
                <path d="M21.69,19.39l-.08,0a.21.21,0,0,1-.11-.27l.06-.13a.21.21,0,0,1,.38.16l-.06.13A.21.21,0,0,1,21.69,19.39Z" style="fill: #82ce91"/>
                <path d="M21.06,19.27a.21.21,0,0,1-.21-.21v-.15a.21.21,0,0,1,.42,0v.15A.21.21,0,0,1,21.06,19.27Z" style="fill: #82ce91"/>
                <path d="M20.43,19.39a.21.21,0,0,1-.19-.13l-.06-.13a.21.21,0,1,1,.38-.16l.06.13a.22.22,0,0,1-.11.27A.12.12,0,0,1,20.43,19.39Z" style="fill: #82ce91"/>
                <g>
                  <path d="M20.06,22.83v.25l.35-.12Z" style="fill: #82ce91"/>
                  <path d="M24.35,20.5h-.49a3,3,0,0,0-.13-.68l.45-.19a.21.21,0,0,0-.16-.38l-.45.19a2.46,2.46,0,0,0-.38-.57l.35-.35a.21.21,0,0,0-.29-.29l-.35.35a2.7,2.7,0,0,0-.57-.38l.19-.45a.21.21,0,1,0-.38-.16L22,18a2.56,2.56,0,0,0-.68-.13v-.49a.21.21,0,0,0-.21-.21.21.21,0,0,0-.21.21v.49a3,3,0,0,0-.68.13l-.11-.27v.82a2.34,2.34,0,0,1,3.35,2.12,2.33,2.33,0,0,1-.69,1.66l.66-.13a2.53,2.53,0,0,0,.18-.27l.4.17.28,0s0,0,0,0a.21.21,0,0,0-.11-.27l-.45-.19a2.56,2.56,0,0,0,.13-.68h.49a.21.21,0,0,0,.21-.21A.2.2,0,0,0,24.35,20.5Z" style="fill: #82ce91"/>
                </g>
              </g>
              <path d="M21.06,21.71a1,1,0,1,1,1-1A1,1,0,0,1,21.06,21.71Zm0-1.6a.6.6,0,1,0,.6.6A.6.6,0,0,0,21.06,20.11Z" style="fill: #82ce91"/>
            </g>
            <path d="M32.16,13.9a20.44,20.44,0,0,0-12.09,3.71v5.47S24,21.52,32.16,21.52s11.89,1.56,11.89,1.56V17.61A22.13,22.13,0,0,0,32.16,13.9Z" style="fill: none;stroke: #333;stroke-linejoin: round;stroke-width: 1.5px"/>
          </g>
          <path d="M42.11,28.22c0,4.67-2.42,5.72-3.59,6.63-.33-.79-1.14-1.94-1.57-2.05L33.64,32H30.55l-3.31.83c-.41.1-1.15,1.29-1.48,2.12-1.13-.92-3.68-1.9-3.68-6.7,0,5-4.88,7.38,5.38,18.08a2.35,2.35,0,0,0,1.71.73H35a2.41,2.41,0,0,0,1.71-.73C47,35.6,42.11,33.26,42.11,28.22Zm-5.38,9.66a1.2,1.2,0,0,1-1.19,1.2c-1.18,0-1.74-1.17-2.34-1.76H31c-.59.59-1.16,1.75-2.34,1.76a1.2,1.2,0,0,1-1.19-1.2v-2.7a1,1,0,0,1,.69-.92,13.46,13.46,0,0,1,3.94-.77,13.2,13.2,0,0,1,4,.74,1,1,0,0,1,.67.92Z" style="fill: #614938"/>
          <path d="M29.18,47H35a2.41,2.41,0,0,0,1.71-.73,33,33,0,0,0,5.15-6.59,2.47,2.47,0,0,1,0-.68,10,10,0,0,0,0-4.71,9.39,9.39,0,0,1-1,4.39c-.22.46-.46.9-.72,1.34a13.53,13.53,0,0,0,0-1.56,10.11,10.11,0,0,0-.36-2.12,10.35,10.35,0,0,1-.14,2.09,11.22,11.22,0,0,1-.53,2,14.13,14.13,0,0,1-.82,1.87c-.17.32-.7,1.17-1.21,2,.11-.36.21-.73.29-1.1a12.69,12.69,0,0,0,.16-4.38,12.34,12.34,0,0,1-1.1,4.06,10.4,10.4,0,0,1-1,1.77c-.18.25-.37.5-.58.74,0-.52.07-1,.09-1.57a18.38,18.38,0,0,0-.16-3.24A17.48,17.48,0,0,1,34,43.62c-.3.84-.64,1.67-1,2.46l-.9-6.19-.9,6.22c-.37-.8-.72-1.64-1-2.49a18.67,18.67,0,0,1-.83-3.06,19.44,19.44,0,0,0-.16,3.24c0,.53,0,1.05.09,1.57-.2-.24-.4-.49-.58-.74a11.78,11.78,0,0,1-2.14-5.83,12.46,12.46,0,0,0,.16,4.38c.06.28.14.56.22.84-.48-.67-1-1.39-1.14-1.7A14.91,14.91,0,0,1,25,40.45a12.15,12.15,0,0,1-.53-2,10.35,10.35,0,0,1-.14-2.09A10.56,10.56,0,0,0,24,38.49a13.55,13.55,0,0,0,0,1.56c-.26-.43-.5-.88-.72-1.34a9.7,9.7,0,0,1-1-4.39,10,10,0,0,0,0,4.71c.05.22.12.57.2,1a34.63,34.63,0,0,0,5,6.3A2.42,2.42,0,0,0,29.18,47Z" style="fill: #333"/>
          <path d="M22.36,28.22c.05,2.22-.9,4.24-1,6.2A9.56,9.56,0,0,0,23.13,40,30.82,30.82,0,0,0,27,44.82c.34.36.74.8,1,1.08a1.7,1.7,0,0,0,1,.4l3.1,0h3.1a1.7,1.7,0,0,0,1-.4c.29-.28.69-.73,1-1.08A31.33,31.33,0,0,0,41.06,40a9.55,9.55,0,0,0,1.77-5.58c-.08-2-1-4-1-6.2a.35.35,0,0,1,.35-.34.35.35,0,0,1,.34.34c0,2,1.09,3.9,1.28,6.13a10.67,10.67,0,0,1-1.7,6.28,30.37,30.37,0,0,1-3.84,5.13c-.38.41-.66.76-1.11,1.22a3.09,3.09,0,0,1-1.87.79H32.11c-1.07,0-2.05,0-3.19,0a3.08,3.08,0,0,1-1.85-.8c-.45-.45-.73-.81-1.11-1.22a31.25,31.25,0,0,1-3.84-5.12,10.66,10.66,0,0,1-1.73-6.27c.21-2.23,1.25-4.12,1.29-6.13a.35.35,0,0,1,.35-.34A.37.37,0,0,1,22.36,28.22Z" style="fill: #333"/>
          <path d="M29.28,31.38a2.67,2.67,0,0,1,1.31.34h0a2.75,2.75,0,0,0,2.61,0h0a2.75,2.75,0,0,1,1.31-.34" style="fill: none;stroke: #af8582;stroke-linecap: round;stroke-miterlimit: 10;stroke-width: 0.75px"/>
          <g>
            <g>
              <path d="M39.71,25.26H34.43a1.51,1.51,0,0,0-1.11.49,2,2,0,0,0-.22,2.36l1.23,2a2.06,2.06,0,0,0,1.72,1h2.28a3.12,3.12,0,0,0,2.93-3.28v-.8A1.74,1.74,0,0,0,39.71,25.26Z" style="fill: #444;stroke: #333;stroke-miterlimit: 10;stroke-width: 0.5px"/>
              <path d="M30.77,25.67a1.46,1.46,0,0,0-1.08-.42H24.38a1.73,1.73,0,0,0-1.62,1.82v.8a3.11,3.11,0,0,0,2.93,3.24l2.35,0a2.06,2.06,0,0,0,1.72-1L31,28A2,2,0,0,0,30.77,25.67Z" style="fill: #444;stroke: #333;stroke-miterlimit: 10;stroke-width: 0.5px"/>
            </g>
            <line x1="30.88" y1="25.81" x2="33.26" y2="25.81" style="fill: none;stroke: #333;stroke-miterlimit: 10;stroke-width: 0.5px"/>
          </g>
          <circle cx="27.45" cy="26.81" r="0.71" style="fill: #333"/>
          <circle cx="36.41" cy="26.81" r="0.71" style="fill: #333"/>
          <path d="M31.28,26.83a1.38,1.38,0,0,1,1.51,0" style="fill: none;stroke: #333;stroke-miterlimit: 10;stroke-width: 0.5px"/>
        </g>
      </g>
    </g>
  </g>
</svg>
